<svg id="ArrowUp" xmlns="http://www.w3.org/2000/svg" viewBox="0 0 32 32"><defs><style>.cls-1{fill:#2f2f2f;}.cls-2{fill:#0078d4;}</style></defs><title>BackEndServerMirrorv</title><g id="backend_server_mirror"><path class="cls-1" d="M1.11,32H16.89A1.12,1.12,0,0,0,18,30.87V24.66l-6.89-6.44,6.89-7V1.13A1.12,1.12,0,0,0,16.89,0H1.11A1.12,1.12,0,0,0,0,1.13V30.87A1.12,1.12,0,0,0,1.11,32Zm5.64-4.57h4.5v2.28H6.75Z"/><polygon class="cls-2" points="17.98 19.2 22.38 19.16 22.36 17.16 17.96 17.2 20.19 14.88 18.79 13.49 14.2 18.23 18.88 22.89 20.25 21.47 17.98 19.2"/><polygon class="cls-2" points="28.24 17.2 23.84 17.16 23.82 19.16 28.22 19.2 25.96 21.47 27.33 22.89 32 18.23 27.41 13.49 26.02 14.88 28.24 17.2"/></g></svg>