<svg xmlns="http://www.w3.org/2000/svg" viewBox="0 0 26.27 32"><defs><style>.cls-1{fill:#2f2f2f;}.cls-2{fill:#d83b01;}.cls-3{fill:#fff;}.cls-4{fill:#939393;}</style></defs><title>certificate_authority</title><g id="Layer_2" data-name="Layer 2"><g id="SYMBOLS"><g id="certificate_authority"><path class="cls-1" d="M1.13,32H16V26s-3.16-1.56-3.16-6.44c0-5.22,5.47-7.31,5.47-7.31V1.13A1.13,1.13,0,0,0,17.16,0h-16A1.12,1.12,0,0,0,0,1.13V30.87A1.12,1.12,0,0,0,1.13,32Zm5.73-4.57h4.57v2.28H6.86Z"/><g id="_Group_" data-name="&lt;Group&gt;"><path class="cls-2" d="M21.79,26.15a3.52,3.52,0,0,1-1.41.29A3.56,3.56,0,0,1,19,26.15a3.71,3.71,0,0,1-1-.65l-.4,0V32l2.82-1.41L23.21,32V25.46l-.41,0A3.43,3.43,0,0,1,21.79,26.15Z"/><path class="cls-3" d="M17.5,22.44a4.1,4.1,0,0,0,2.88,1.19A4.07,4.07,0,0,0,22,23.31a4.12,4.12,0,0,0,1.3-.87,4.24,4.24,0,0,0,.87-1.3,4.09,4.09,0,0,0,0-3.17,4,4,0,0,0-.87-1.3,4.33,4.33,0,0,0-1.3-.88,4.07,4.07,0,0,0-1.59-.32,4,4,0,0,0-1.58.32A4.15,4.15,0,0,0,16.62,18a4.21,4.21,0,0,0,0,3.17A4.45,4.45,0,0,0,17.5,22.44Z"/><path class="cls-4" d="M26.07,18.58a2.46,2.46,0,0,0-.54-.8,3,3,0,0,0-.34-.28c0-.05,0-.09,0-.14a2.53,2.53,0,0,0-2.51-2.51l-.22,0a1.91,1.91,0,0,0-.31-.38,2.57,2.57,0,0,0-.8-.54,2.48,2.48,0,0,0-1.95,0,2,2,0,0,0-.43.23,2.17,2.17,0,0,0-.37.31,2.38,2.38,0,0,0-.32.38l-.21,0a2.49,2.49,0,0,0-1,.2,2.82,2.82,0,0,0-.42.23,2.25,2.25,0,0,0-.37.31,2.46,2.46,0,0,0-.54.8,2.28,2.28,0,0,0-.2,1,2.11,2.11,0,0,0,0,.26l-.19.16a2.5,2.5,0,0,0,0,3.55,1.73,1.73,0,0,0,.21.17h0a2.71,2.71,0,0,0,0,.4,2.29,2.29,0,0,0,.2,1,2.22,2.22,0,0,0,.23.43,2.17,2.17,0,0,0,.31.37,2.2,2.2,0,0,0,.37.3,2.86,2.86,0,0,0,.42.24,2.44,2.44,0,0,0,.46.14h0a2.73,2.73,0,0,0,.5.05,1.75,1.75,0,0,0,.33,0c.07.08.13.17.2.24l.17.14a2.41,2.41,0,0,0,.63.4,2.48,2.48,0,0,0,1.95,0,2.57,2.57,0,0,0,.8-.54,2.23,2.23,0,0,0,.19-.24,1.86,1.86,0,0,0,.34,0,2.24,2.24,0,0,0,.52-.06,2.35,2.35,0,0,0,.45-.14,2.52,2.52,0,0,0,.43-.24,2.69,2.69,0,0,0,.37-.3,2.24,2.24,0,0,0,.71-2.05h0a2.6,2.6,0,0,0,.36-.3,2.76,2.76,0,0,0,.31-.37,2.5,2.5,0,0,0,.23-.43,2.48,2.48,0,0,0,0-2ZM23.85,21a3.86,3.86,0,0,1-2,2,3.65,3.65,0,0,1-1.47.3,3.6,3.6,0,0,1-1.46-.3,4,4,0,0,1-1.2-.81,3.72,3.72,0,0,1-.8-1.19,3.65,3.65,0,0,1-.3-1.47,3.57,3.57,0,0,1,.3-1.46,3.66,3.66,0,0,1,.8-1.2,4,4,0,0,1,1.2-.81,3.77,3.77,0,0,1,1.46-.29,3.82,3.82,0,0,1,1.47.29,3.92,3.92,0,0,1,1.19.81,3.85,3.85,0,0,1,.81,1.2,3.57,3.57,0,0,1,.3,1.46A3.65,3.65,0,0,1,23.85,21Z"/></g></g></g></g></svg>