<svg id="ArrowUp" xmlns="http://www.w3.org/2000/svg" viewBox="0 0 32 32"><defs><style>.cls-1{fill:#2f2f2f;}.cls-2{fill:#0078d4;}.cls-3{fill:#c2c2c2;}</style></defs><title>ClientAccessServer-blue</title><g id="client_access_server"><path class="cls-1" d="M1,30.18H15.21a1,1,0,0,0,1-1v-.65h-4a.91.91,0,0,1-1-.94l.1-10.91H5.53V8.1h8.35v5.73h2.33v-11a1,1,0,0,0-1-1H1a1,1,0,0,0-1,1V29.19A1,1,0,0,0,1,30.18Zm5.08-4.05h4.05v2H6.08Z"/><polygon class="cls-2" points="8.65 12.6 11.48 15.37 12.72 14.11 9.89 11.33 12.76 11.3 12.75 9.53 6.85 9.59 6.91 15.48 8.67 15.47 8.65 12.6"/><path class="cls-3" d="M32,26.67V15.73a.57.57,0,0,0-.58-.57H13.34a.57.57,0,0,0-.58.57V26.67a.58.58,0,0,0,.58.58h8.24V29H18.64v1.21H26V29H23.05V27.25h8.37A.58.58,0,0,0,32,26.67Z"/></g></svg>