<svg xmlns="http://www.w3.org/2000/svg" viewBox="0 0 36.1 32"><defs><style>.cls-1{fill:#2f2f2f;}.cls-2{fill:#d83b01;}.cls-3{fill:#c2c2c2;}</style></defs><title>client_access_server</title><g id="Layer_2" data-name="Layer 2"><g id="SYMBOLS"><g id="client_access_server"><path class="cls-1" d="M1.13,32h16a1.13,1.13,0,0,0,1.13-1.13v-.72H13.75a1,1,0,0,1-1.14-1.06l.11-12.32-6.48,0V7.09h9.42v6.47h2.63V1.13A1.13,1.13,0,0,0,17.16,0h-16A1.12,1.12,0,0,0,0,1.13V30.87A1.12,1.12,0,0,0,1.13,32Zm5.73-4.57h4.57v2.28H6.86Z"/><polygon class="cls-2" points="9.76 12.16 12.95 15.29 14.35 13.87 11.16 10.74 14.4 10.69 14.38 8.71 7.73 8.77 7.79 15.42 9.78 15.4 9.76 12.16"/><path class="cls-3" d="M36.1,28V15.7a.66.66,0,0,0-.65-.65H15.05a.65.65,0,0,0-.65.65V28a.66.66,0,0,0,.65.66h9.29v1.94H21V32h8.28V30.63H26V28.69h9.45A.66.66,0,0,0,36.1,28Z"/></g></g></g></svg>