<svg xmlns="http://www.w3.org/2000/svg" viewBox="0 0 30 31.97"><defs><style>.cls-1{fill:#2f2f2f;}.cls-2{fill:#939393;}</style></defs><title>cluster_server</title><g id="Layer_2" data-name="Layer 2"><g id="SYMBOLS"><g id="cluster_server"><path class="cls-1" d="M22.51,21.31h6.74a.75.75,0,0,0,.75-.75V.75A.76.76,0,0,0,29.25,0H18.57a.75.75,0,0,0-.75.75V9.23h3.29a1.3,1.3,0,0,1,1.42,1.43Zm0-3h2.92v1.52H22.51Z"/><path class="cls-1" d="M7.48,21.31H.75A.75.75,0,0,1,0,20.56V.75A.76.76,0,0,1,.75,0H11.43a.76.76,0,0,1,.75.75V9.23H8.89a1.3,1.3,0,0,0-1.42,1.43Zm0-3H4.57v1.52H7.48Z"/><path class="cls-2" d="M9.68,32H20.36a.75.75,0,0,0,.75-.75V11.41a.74.74,0,0,0-.75-.75H9.68a.75.75,0,0,0-.75.75V31.22A.76.76,0,0,0,9.68,32Zm3.82-3h3v1.53h-3Z"/></g></g></g></svg>