<svg id="ArrowUp" xmlns="http://www.w3.org/2000/svg" viewBox="0 0 32 32"><defs><style>.cls-1{fill:#c2c2c2;}.cls-2{fill:#0078d4;}.cls-3{fill:#2f2f2f;}</style></defs><title>DatabaseServer-blue</title><g id="database_server"><path class="cls-1" d="M27,21.43c-.61.1-1.23.17-1.84.21s-1.19.06-1.73.06-1.1,0-1.72-.06-1.23-.11-1.84-.21A14.57,14.57,0,0,1,18,21a7.39,7.39,0,0,1-1.54-.62V30.1a.53.53,0,0,0,.2.39,2.27,2.27,0,0,0,.49.35,5.25,5.25,0,0,0,.59.28,5.12,5.12,0,0,0,.48.19,8.55,8.55,0,0,0,1.21.32c.43.09.87.16,1.32.22s.89.09,1.33.12l1.27,0,1.28,0c.44,0,.89-.07,1.33-.12s.89-.13,1.32-.22a8.55,8.55,0,0,0,1.21-.32,5.12,5.12,0,0,0,.48-.19,4.41,4.41,0,0,0,.58-.28,2.11,2.11,0,0,0,.5-.35.53.53,0,0,0,.2-.39V20.41a7.39,7.39,0,0,1-1.54.62A14.57,14.57,0,0,1,27,21.43Z"/><path class="cls-2" d="M16.62,19a2.24,2.24,0,0,0,.73.56,6.5,6.5,0,0,0,1.06.42q.6.16,1.26.3c.45.08.9.15,1.34.2s.88.08,1.29.1.77,0,1.08,0,.69,0,1.09,0,.84-.05,1.29-.1.89-.12,1.34-.2.86-.19,1.26-.3a6.5,6.5,0,0,0,1.06-.42,2,2,0,0,0,.73-.56.51.51,0,0,0,.09-.13.28.28,0,0,0,0-.15.55.55,0,0,0-.2-.39,2.47,2.47,0,0,0-.5-.36,6.19,6.19,0,0,0-.58-.28l-.48-.18a10.33,10.33,0,0,0-1.22-.32c-.43-.09-.87-.16-1.31-.22s-.89-.1-1.33-.12l-1.28,0-1.27,0c-.44,0-.89.06-1.33.12s-.88.13-1.31.22a10.33,10.33,0,0,0-1.22.32l-.48.18c-.2.08-.39.18-.59.28a2.7,2.7,0,0,0-.49.36.55.55,0,0,0-.2.39.28.28,0,0,0,0,.15A.51.51,0,0,0,16.62,19Z"/><path class="cls-3" d="M2.85,32H14.92V18.42c.78-2.21,5.08-2.61,5.08-2.61V1.13A1.13,1.13,0,0,0,18.88,0h-16A1.13,1.13,0,0,0,1.72,1.13V30.87A1.13,1.13,0,0,0,2.85,32Zm5.73-4.57h4.57v2.28H8.58Z"/></g></svg>