<svg xmlns="http://www.w3.org/2000/svg" viewBox="0 0 40.45 32"><defs><style>.cls-1{fill:#2f2f2f;}.cls-2{fill:#939393;}</style></defs><title>datacenter</title><g id="Layer_2" data-name="Layer 2"><g id="SYMBOLS"><g id="datacenter"><path class="cls-1" d="M31.39,29.68H39.6a.86.86,0,0,0,.85-.86V6.18a.86.86,0,0,0-.85-.86H31.39Zm.36-3.48h3.48v1.74H31.75Z"/><path class="cls-1" d="M9.06,29.68H.86A.86.86,0,0,1,0,28.82V6.18a.86.86,0,0,1,.86-.86h8.2ZM8.7,26.2H5.22v1.74H8.7Z"/><path class="cls-2" d="M12.19,32h16a1.12,1.12,0,0,0,1.13-1.13V1.13A1.12,1.12,0,0,0,28.22,0h-16a1.12,1.12,0,0,0-1.12,1.13V30.87A1.12,1.12,0,0,0,12.19,32Zm5.73-4.57h4.57v2.28H17.92Z"/></g></g></g></svg>