<svg xmlns="http://www.w3.org/2000/svg" viewBox="0 0 40.48 31.97"><defs><style>.cls-1{fill:#2f2f2f;}.cls-2{fill:#939393;}.cls-3{fill:#d83b01;}</style></defs><title>director_array</title><g id="Layer_2" data-name="Layer 2"><g id="SYMBOLS"><g id="director_array"><path class="cls-1" d="M9,29.66H.85A.85.85,0,0,1,0,28.81V6.31a.85.85,0,0,1,.85-.85H9ZM8.64,26.2H5.19v1.73H8.64Z"/><path class="cls-2" d="M12.12,32h16a1.13,1.13,0,0,0,1.12-1.13V27.3l-3.75,0,0-5.64-7-7L25.76,7V2h3.5V1.13A1.12,1.12,0,0,0,28.14,0h-16A1.13,1.13,0,0,0,11,1.13V30.84A1.14,1.14,0,0,0,12.12,32Zm5.72-4.57h4.57v2.28H17.84Z"/><polygon class="cls-3" points="31.07 5.25 21.75 14.53 24.23 14.98 32.49 6.65 32.54 9.88 34.52 9.86 34.46 3.22 27.82 3.28 27.84 5.27 31.07 5.25"/><polygon class="cls-3" points="31.07 23.91 21.75 14.53 24.62 14.57 32.49 22.51 32.54 19.28 34.52 19.3 34.46 25.94 27.82 25.88 27.84 23.89 31.07 23.91"/><polygon class="cls-3" points="36.66 13.59 23.2 13.55 23.19 15.54 36.64 15.59 34.34 17.86 35.73 19.28 40.48 14.62 35.82 9.88 34.4 11.27 36.66 13.59"/></g></g></g></svg>