<svg id="ArrowUp" xmlns="http://www.w3.org/2000/svg" viewBox="0 0 32 32"><defs><style>.cls-1{fill:#2f2f2f;}.cls-2{fill:#0078d4;}</style></defs><title>Director-blue</title><g id="director"><path class="cls-1" d="M2.58,32h16a1.13,1.13,0,0,0,1.13-1.13V27.32l-3.75,0-.05-5.64-7-7L16.23,7V2h3.5V1.13A1.13,1.13,0,0,0,18.61,0h-16A1.13,1.13,0,0,0,1.45,1.13V30.87A1.13,1.13,0,0,0,2.58,32Zm5.73-4.57h4.57v2.28H8.31Z"/><polygon class="cls-2" points="21.55 5.25 12.22 14.55 14.7 14.99 22.97 6.65 23.02 9.89 25 9.87 24.94 3.22 18.29 3.29 18.31 5.27 21.55 5.25"/><polygon class="cls-2" points="21.55 23.93 12.22 14.55 15.09 14.59 22.97 22.53 23.02 19.3 25 19.32 24.94 25.97 18.29 25.9 18.31 23.91 21.55 23.93"/><polygon class="cls-2" points="27.14 13.6 13.67 13.56 13.65 15.56 27.13 15.6 24.82 17.88 26.21 19.3 30.96 14.64 26.3 9.89 24.89 11.28 27.14 13.6"/></g></svg>