<svg id="ArrowUp" xmlns="http://www.w3.org/2000/svg" viewBox="0 0 32 32"><defs><style>.cls-1{fill:#2f2f2f;}.cls-2{fill:#c2c2c2;}.cls-3{fill:#0078d4;}</style></defs><title>DirectorArray-blue</title><g id="director_array"><path class="cls-1" d="M7.12,26.81H.67A.67.67,0,0,1,0,26.14V8.35a.67.67,0,0,1,.67-.67H7.12Zm-.29-2.73H4.1v1.37H6.83Z"/><path class="cls-2" d="M9.58,28.64H22.24a.89.89,0,0,0,.89-.89V24.94l-3,0,0-4.46-5.53-5.56,5.76-6v-4h2.76V4.25a.89.89,0,0,0-.89-.89H9.58a.89.89,0,0,0-.89.89v23.5A.89.89,0,0,0,9.58,28.64ZM14.11,25h3.61v1.8H14.11Z"/><polygon class="cls-3" points="24.56 7.51 17.2 14.85 19.15 15.2 25.69 8.62 25.72 11.18 27.29 11.16 27.24 5.91 21.99 5.96 22.01 7.53 24.56 7.51"/><polygon class="cls-3" points="24.56 22.27 17.2 14.85 19.46 14.88 25.69 21.16 25.72 18.6 27.29 18.62 27.24 23.87 21.99 23.82 22.01 22.25 24.56 22.27"/><polygon class="cls-3" points="28.98 14.11 18.35 14.07 18.33 15.65 28.97 15.69 27.15 17.48 28.25 18.6 32 14.93 28.32 11.18 27.2 12.28 28.98 14.11"/></g></svg>