<svg xmlns="http://www.w3.org/2000/svg" viewBox="0 0 29.51 32"><defs><style>.cls-1{fill:#2f2f2f;}.cls-2{fill:#d83b01;}</style></defs><title>director</title><g id="Layer_2" data-name="Layer 2"><g id="SYMBOLS"><g id="director"><path class="cls-1" d="M1.13,32h16a1.13,1.13,0,0,0,1.13-1.13V27.32l-3.76,0,0-5.64-7-7L14.78,7V2h3.51V1.13A1.13,1.13,0,0,0,17.16,0h-16A1.12,1.12,0,0,0,0,1.13V30.87A1.12,1.12,0,0,0,1.13,32Zm5.73-4.57h4.57v2.28H6.86Z"/><polygon class="cls-2" points="20.09 5.25 10.77 14.55 13.24 14.99 21.52 6.65 21.56 9.89 23.55 9.87 23.49 3.22 16.84 3.29 16.86 5.27 20.09 5.25"/><polygon class="cls-2" points="20.09 23.93 10.77 14.55 13.64 14.59 21.52 22.53 21.56 19.3 23.55 19.32 23.49 25.97 16.84 25.9 16.86 23.91 20.09 23.93"/><polygon class="cls-2" points="25.69 13.6 12.22 13.56 12.2 15.56 25.67 15.6 23.37 17.88 24.76 19.3 29.51 14.64 24.85 9.89 23.43 11.28 25.69 13.6"/></g></g></g></svg>