<svg id="ArrowUp" xmlns="http://www.w3.org/2000/svg" viewBox="0 0 32 32"><defs><style>.cls-1{fill:#2f2f2f;}.cls-2{fill:#0078d4;}</style></defs><title>DirSyncServer-blue</title><g id="dirsync_server"><path class="cls-1" d="M6.21,32H22.32c.82,0,1.05-.38,1.05-1.2V26.94c-1.51,0-4.74.47-7.39-2.78-1.75-2.16-1.75-9.85.75-12.41a9.77,9.77,0,0,1,6.64-2.53V1.13A1.12,1.12,0,0,0,22.24,0h-16A1.13,1.13,0,0,0,5.08,1.13V30.87A1.13,1.13,0,0,0,6.21,32Zm5.73-4.57h4.57v2.28H11.94Z"/><path class="cls-2" d="M27.8,11.19v2.48a5,5,0,0,0-.95-1.06,11.23,11.23,0,0,0-1.17-.78,6.08,6.08,0,0,0-2.75-.64,6.08,6.08,0,0,0-2.16.39,5.68,5.68,0,0,0-1.84,1.09,5.15,5.15,0,0,0-1.28,1.68,4.81,4.81,0,0,0-.48,2.15h1.77a3,3,0,0,1,.34-1.45,3.73,3.73,0,0,1,.9-1.11,4.12,4.12,0,0,1,1.28-.72A4.38,4.38,0,0,1,22.93,13a4.29,4.29,0,0,1,1.94.46,3.69,3.69,0,0,1,1.51,1.31H24.26V16.5h5.31V11.19Z"/><path class="cls-2" d="M27.8,18.28a3,3,0,0,1-.34,1.45,4,4,0,0,1-.91,1.12l-.06,0a4.35,4.35,0,0,1-2.68.94,4.29,4.29,0,0,1-1.94-.46,3.66,3.66,0,0,1-1.5-1.31h2.11V18.28H17.17v5.31h1.77V21.12a5,5,0,0,0,.95,1.05,5.75,5.75,0,0,0,1.18.78,6,6,0,0,0,2.74.64A6.3,6.3,0,0,0,26,23.21c.19-.07.35-.17.52-.25a5.52,5.52,0,0,0,1.32-.85,5.32,5.32,0,0,0,1.29-1.68,4.94,4.94,0,0,0,.47-2.15Z"/></g></svg>