<svg xmlns="http://www.w3.org/2000/svg" viewBox="0 0 32.51 32"><defs><style>.cls-1{fill:#2f2f2f;}.cls-2{fill:#d83b01;}</style></defs><title>edge_transport_server</title><g id="Layer_2" data-name="Layer 2"><g id="SYMBOLS"><g id="edge_transport_server"><path class="cls-1" d="M1.13,32h16a1.13,1.13,0,0,0,1.13-1.13V24.66l-7-6.44,7-7V1.13A1.13,1.13,0,0,0,17.16,0h-16A1.12,1.12,0,0,0,0,1.13V30.87A1.12,1.12,0,0,0,1.13,32Zm5.73-4.57h4.57v2.28H6.86Z"/><polygon class="cls-2" points="18.27 19.2 22.74 19.16 22.72 17.16 18.25 17.2 20.51 14.88 19.09 13.49 14.43 18.23 19.18 22.89 20.57 21.47 18.27 19.2"/><polygon class="cls-2" points="28.69 17.2 24.22 17.16 24.2 19.16 28.67 19.2 26.37 21.47 27.76 22.89 32.51 18.23 27.85 13.49 26.43 14.88 28.69 17.2"/></g></g></g></svg>