<svg xmlns="http://www.w3.org/2000/svg" viewBox="0 0 32.14 32"><defs><style>.cls-1{fill:#2f2f2f;}.cls-2{fill:#c2c2c2;}</style></defs><title>file_server</title><g id="Layer_2" data-name="Layer 2"><g id="SYMBOLS"><g id="file_server"><path class="cls-1" d="M1.13,32h16a1.13,1.13,0,0,0,1.13-1.13V25.43H10.71l0-19.76h7.55V1.13A1.13,1.13,0,0,0,17.16,0h-16A1.12,1.12,0,0,0,0,1.13V30.87A1.12,1.12,0,0,0,1.13,32Zm5.73-4.57h4.57v2.28H6.86Z"/><g id="Artwork_247" data-name="Artwork 247"><path class="cls-2" d="M12.48,23.33V10h8.78L22.6,8.67h9.54V23.33Z"/></g><polygon class="cls-2" points="20.7 8.67 12.48 8.67 12.48 7.33 20.7 7.33 21.38 8 20.7 8.67"/></g></g></g></svg>