<svg id="ArrowUp" xmlns="http://www.w3.org/2000/svg" viewBox="0 0 32 32"><defs><style>.cls-1{fill:#2f2f2f;}.cls-2{fill:#0078d4;}</style></defs><title>ForwardProxy-blue</title><g id="forward_proxy"><path class="cls-1" d="M5.52,32h16a1.12,1.12,0,0,0,1.12-1.13V21.4H19.06V15.15h3.61v-14A1.12,1.12,0,0,0,21.56,0h-16A1.12,1.12,0,0,0,4.4,1.13V30.87A1.12,1.12,0,0,0,5.52,32Zm5.74-4.57h4.57v2.28H11.26Z"/><polygon class="cls-2" points="26.09 17.2 20.62 17.16 20.6 19.16 26.07 19.2 23.77 21.47 25.16 22.89 29.91 18.23 25.25 13.49 23.83 14.88 26.09 17.2"/></g></svg>