<svg xmlns="http://www.w3.org/2000/svg" viewBox="0 0 25.51 32"><defs><style>.cls-1{fill:#2f2f2f;}.cls-2{fill:#d83b01;}</style></defs><title>forward_proxy</title><g id="Layer_2" data-name="Layer 2"><g id="SYMBOLS"><g id="forward_proxy"><path class="cls-1" d="M1.13,32h16a1.13,1.13,0,0,0,1.13-1.13V21.4H14.66V15.15h3.62v-14A1.13,1.13,0,0,0,17.16,0h-16A1.12,1.12,0,0,0,0,1.13V30.87A1.12,1.12,0,0,0,1.13,32Zm5.73-4.57h4.57v2.28H6.86Z"/><polygon class="cls-2" points="21.69 17.2 16.22 17.16 16.2 19.16 21.67 19.2 19.37 21.47 20.76 22.89 25.51 18.23 20.85 13.49 19.43 14.88 21.69 17.2"/></g></g></g></svg>