<svg width="32" height="26" viewBox="0 0 32 26" fill="none" xmlns="http://www.w3.org/2000/svg">
<path d="M24.8615 23.703H31.3544C31.7503 23.703 32.067 23.3905 31.9878 22.9998V5.34363C31.9878 4.953 31.6711 4.6405 31.3544 4.6405H24.8615V23.703V23.703ZM25.1783 20.9686H27.9496V22.2967H25.1783V20.9686V20.9686Z" fill="#CCCCCC"/>
<path d="M7.20545 23.7031H0.712627C0.316723 23.7031 0 23.3906 0 23V5.34375C0 4.95312 0.316723 4.64062 0.712627 4.64062H7.20545V23.7031ZM6.88872 20.9687H4.1174V22.2968H6.88872V20.9687Z" fill="#CCCCCC"/>
<path d="M9.6613 25.4999H22.3302C22.8053 25.4999 23.2012 25.1093 23.2012 24.6406V1.35937C23.2012 0.890624 22.8053 0.5 22.3302 0.5H9.6613C9.18622 0.5 8.79031 0.890624 8.79031 1.35937V24.5624C8.79031 25.1093 9.18622 25.4999 9.6613 25.4999ZM14.1746 21.9062H17.8169V23.7031H14.1746V21.9062Z" fill="#0078D4"/>
</svg>
