<svg xmlns="http://www.w3.org/2000/svg" viewBox="0 0 32.51 32"><defs><style>.cls-1{fill:#2f2f2f;}.cls-2{fill:#d83b01;}.cls-3{fill:#d2d2d2;}</style></defs><title>mail_server</title><g id="Layer_2" data-name="Layer 2"><g id="SYMBOLS"><g id="mail_server"><path class="cls-1" d="M1.13,32h16a1.13,1.13,0,0,0,1.13-1.13V25.43H10.71l0-15.76h7.55V1.13A1.13,1.13,0,0,0,17.16,0h-16A1.12,1.12,0,0,0,0,1.13V30.87A1.12,1.12,0,0,0,1.13,32Zm5.73-4.57h4.57v2.28H6.86Z"/><path class="cls-2" d="M22.51,17.72,13.6,13.26l-1.08-.54V23.8h20V12.72l-1.08.54Z"/><polygon class="cls-3" points="32.5 12.71 32.5 12.72 32.51 12.71 32.5 12.71"/><polygon class="cls-3" points="12.51 12.71 12.52 12.72 12.52 12.71 12.51 12.71"/><polygon class="cls-2" points="22.51 16.31 31.42 11.86 32.5 11.31 32.5 11.31 12.52 11.31 12.52 11.31 13.6 11.86 22.51 16.31"/></g></g></g></svg>