<svg id="ArrowUp" xmlns="http://www.w3.org/2000/svg" viewBox="0 0 32 32"><defs><style>.cls-1{fill:#2f2f2f;}.cls-2{fill:#0078d4;}.cls-3{fill:#d2d2d2;}</style></defs><title>MailServer-blue</title><g id="mail_server"><path class="cls-1" d="M1.11,31.91H16.89A1.12,1.12,0,0,0,18,30.79V25.35H10.54l0-15.77H18V1A1.12,1.12,0,0,0,16.89-.09H1.11A1.12,1.12,0,0,0,0,1V30.79A1.12,1.12,0,0,0,1.11,31.91Zm5.64-4.57h4.5v2.29H6.75Z"/><path class="cls-2" d="M22.16,17.63l-8.77-4.46-1.07-.54V23.71H32V12.63l-1.06.54Z"/><polygon class="cls-3" points="31.99 12.63 31.99 12.63 32 12.63 31.99 12.63"/><polygon class="cls-3" points="12.31 12.63 12.32 12.63 12.32 12.63 12.31 12.63"/><polygon class="cls-2" points="22.16 16.23 30.93 11.77 31.99 11.23 31.99 11.22 12.32 11.22 12.32 11.23 13.39 11.77 22.16 16.23"/></g></svg>