<svg id="ArrowUp" xmlns="http://www.w3.org/2000/svg" viewBox="0 0 32 32"><defs><style>.cls-1{fill:#2f2f2f;}.cls-2{fill:#c2c2c2;}.cls-3{fill:#0078d4;}</style></defs><title>MainframeHost-blue</title><g id="mainframe_host"><path class="cls-1" d="M.91,27.05H13.83a.9.9,0,0,0,.9-.91v-24a.9.9,0,0,0-.9-.9H.91a.9.9,0,0,0-.91.9v24A.91.91,0,0,0,.91,27.05Zm4.62-3.68H9.21v1.84H5.53Z"/><path class="cls-2" d="M18.17,27.05H31.09a.91.91,0,0,0,.91-.91v-24a.9.9,0,0,0-.91-.9H18.17a.9.9,0,0,0-.9.9v24A.9.9,0,0,0,18.17,27.05Zm4.62-3.68h3.68v1.84H22.79Z"/><rect class="cls-3" y="28.89" width="32" height="1.84"/></g></svg>