<svg xmlns="http://www.w3.org/2000/svg" viewBox="0 0 45.75 32"><defs><style>.cls-1{fill:#2f2f2f;}.cls-2{fill:#939393;}.cls-3{fill:#d83b01;}</style></defs><title>mainframe</title><g id="Layer_2" data-name="Layer 2"><g id="SYMBOLS"><g id="mainframe"><path class="cls-1" d="M1,28H15a1,1,0,0,0,1-1V1a1,1,0,0,0-1-1H1A1,1,0,0,0,0,1V27A1,1,0,0,0,1,28Zm5-4h4v2H6Z"/><path class="cls-2" d="M30.74,28h14a1,1,0,0,0,1-1V1a1,1,0,0,0-1-1h-14a1,1,0,0,0-1,1V27A1,1,0,0,0,30.74,28Zm5-4h4v2h-4Z"/><path class="cls-1" d="M19.43,28h7a1,1,0,0,0,1-1V1a1,1,0,0,0-1-1h-7a1,1,0,0,0-1,1V27A1,1,0,0,0,19.43,28ZM21,24h4v2H21Z"/><rect class="cls-3" y="30" width="45.75" height="2"/></g></g></g></svg>