<svg id="ArrowUp" xmlns="http://www.w3.org/2000/svg" viewBox="0 0 32 32"><defs><style>.cls-1{fill:#2f2f2f;}.cls-2{fill:#c2c2c2;}.cls-3{fill:#0078d4;}</style></defs><title>Mainframe-blue</title><g id="mainframe"><path class="cls-1" d="M.69,24.39H10.5a.69.69,0,0,0,.69-.69V5.5a.69.69,0,0,0-.69-.69H.69A.69.69,0,0,0,0,5.5V23.7A.69.69,0,0,0,.69,24.39ZM4.2,21.6H7V23H4.2Z"/><path class="cls-2" d="M21.5,24.39h9.81A.69.69,0,0,0,32,23.7V5.5a.69.69,0,0,0-.69-.69H21.5a.69.69,0,0,0-.69.69V23.7A.69.69,0,0,0,21.5,24.39ZM25,21.6H27.8V23H25Z"/><path class="cls-1" d="M13.59,24.39h4.92a.69.69,0,0,0,.69-.69V5.5a.69.69,0,0,0-.69-.69H13.59a.69.69,0,0,0-.69.69V23.7A.69.69,0,0,0,13.59,24.39Zm1.06-2.79h2.8V23h-2.8Z"/><rect class="cls-3" y="25.79" width="32" height="1.4"/></g></svg>