<svg xmlns="http://www.w3.org/2000/svg" viewBox="0 0 21.35 31.97"><defs><style>.cls-1{fill:#d83b01;}.cls-2{fill:#2f2f2f;}</style></defs><title>network</title><g id="Layer_2" data-name="Layer 2"><g id="SYMBOLS"><g id="network"><path class="cls-1" d="M21.35,29.12v1.42H15.66V32h-10V30.54H0V29.12H5.69V27.7H8.54V26.27H10V23.43h1.43v2.84h1.42V27.7h2.85v1.42Z"/><path class="cls-2" d="M4.8,23.48H16.56a.83.83,0,0,0,.82-.83V.83A.83.83,0,0,0,16.56,0H4.8A.83.83,0,0,0,4,.83V22.65A.83.83,0,0,0,4.8,23.48ZM9,20.12h3.35V21.8H9Z"/></g></g></g></svg>