<svg xmlns="http://www.w3.org/2000/svg" viewBox="0 0 35.08 31.97"><defs><style>.cls-1{fill:#2f2f2f;}.cls-2{fill:#d83b01;}.cls-3{fill:#fff;}.cls-4{fill:#c2c2c2;}</style></defs><title>on_premises_server</title><g id="Layer_2" data-name="Layer 2"><g id="SYMBOLS"><g id="on_premises_server"><g id="on_premises_server-2" data-name="on_premises_server"><polygon class="cls-1" points="18.25 3.04 18.25 0 0 0 0 31.97 9.13 31.97 9.13 3.04 18.25 3.04"/><path class="cls-1" d="M21.29,32V9.66h6.09V6.08H12.16V32h9.13ZM15.21,9.13h3v3h-3Zm0,6.08h3v3h-3Z"/><path class="cls-2" d="M6.08,30.42H3v-3h3Zm0-6.08H3V21.29h3Zm0-6.09H3v-3h3Zm0-6.08H3v-3h3Zm0-6.09H3V3h3Z"/><rect class="cls-2" x="3.04" y="9.13" width="3.04" height="3.04"/><rect class="cls-3" x="3.04" y="3.04" width="3.04" height="3.04"/><rect class="cls-3" x="3.04" y="15.21" width="3.04" height="3.04"/><rect class="cls-3" x="3.04" y="21.29" width="3.04" height="3.04"/><rect class="cls-3" x="3.04" y="27.38" width="3.04" height="3.04"/><rect class="cls-2" x="15.21" y="15.21" width="3.04" height="3.04"/><rect class="cls-3" x="15.21" y="9.13" width="3.04" height="3.04"/><rect class="cls-3" x="15.21" y="21.29" width="3.04" height="3.04"/><rect class="cls-3" x="15.21" y="27.38" width="3.04" height="3.04"/></g><path class="cls-4" d="M24.41,31.89h10a.7.7,0,0,0,.7-.7V12.7a.7.7,0,0,0-.7-.7h-10a.7.7,0,0,0-.7.7V31.19A.7.7,0,0,0,24.41,31.89ZM28,29.05h2.85v1.42H28Z"/></g></g></g></svg>