<svg id="ArrowUp" xmlns="http://www.w3.org/2000/svg" viewBox="0 0 32 32"><defs><style>.cls-1{fill:#2f2f2f;}.cls-2{fill:#d83b01;}.cls-3{fill:#0078d4;}.cls-4{fill:#fff;}.cls-5{fill:#c2c2c2;}</style></defs><title>OnPremisesServer-blue</title><g id="on_premises_server"><g id="on_premises_server-2" data-name="on_premises_server"><polygon class="cls-1" points="16.65 4.2 16.65 1.42 0 1.42 0 30.58 8.32 30.58 8.32 4.2 16.65 4.2"/><path class="cls-1" d="M19.42,30.58V10.23H25V7H11.09V30.58h8.33ZM13.87,9.74h2.78v2.78H13.87Zm0,5.55h2.78v2.78H13.87Z"/><path class="cls-2" d="M5.55,29.17H2.77V26.39H5.55Zm0-5.55H2.77V20.84H5.55Zm0-5.55H2.77V15.29H5.55Zm0-5.55H2.77V9.74H5.55ZM5.55,7H2.77V4.19H5.55Z"/><rect class="cls-3" x="2.77" y="9.74" width="2.78" height="2.78"/><rect class="cls-4" x="2.77" y="4.19" width="2.78" height="2.77"/><rect class="cls-4" x="2.77" y="15.29" width="2.78" height="2.78"/><rect class="cls-4" x="2.77" y="20.84" width="2.78" height="2.78"/><rect class="cls-4" x="2.77" y="26.39" width="2.78" height="2.77"/><rect class="cls-3" x="13.87" y="15.29" width="2.78" height="2.78"/><rect class="cls-4" x="13.87" y="9.74" width="2.78" height="2.78"/><rect class="cls-4" x="13.87" y="20.84" width="2.78" height="2.78"/><rect class="cls-4" x="13.87" y="26.39" width="2.78" height="2.78"/></g><path class="cls-5" d="M22.27,30.51h9.09a.64.64,0,0,0,.64-.63V13a.64.64,0,0,0-.64-.64H22.27a.64.64,0,0,0-.64.64V29.88A.64.64,0,0,0,22.27,30.51Zm3.25-2.59h2.59v1.3H25.52Z"/></g></svg>