<svg id="ArrowUp" xmlns="http://www.w3.org/2000/svg" viewBox="0 0 32 32"><defs><style>.cls-1{fill:#2f2f2f;}.cls-2{fill:#0078d4;}</style></defs><title>ReverseProxy-blue</title><g id="reverse_proxy"><path class="cls-1" d="M3.87,32h16A1.12,1.12,0,0,0,21,30.87V22.32h-2l0-7.43-4.59-4.67L21,3.82V1.13A1.12,1.12,0,0,0,19.9,0h-16A1.13,1.13,0,0,0,2.74,1.13V30.87A1.13,1.13,0,0,0,3.87,32ZM9.6,27.43h4.57v2.28H9.6Z"/><polygon class="cls-2" points="21.01 11.2 25.48 11.16 25.46 9.16 20.99 9.2 23.25 6.88 21.83 5.49 17.18 10.23 21.92 14.89 23.32 13.47 21.01 11.2"/><polygon class="cls-2" points="25.44 18.2 20.97 18.16 20.95 20.16 25.42 20.2 23.11 22.47 24.51 23.89 29.25 19.23 24.6 14.49 23.18 15.88 25.44 18.2"/></g></svg>