<svg xmlns="http://www.w3.org/2000/svg" viewBox="0 0 26.51 32"><defs><style>.cls-1{fill:#2f2f2f;}.cls-2{fill:#d83b01;}</style></defs><title>reverse_proxy</title><g id="Layer_2" data-name="Layer 2"><g id="SYMBOLS"><g id="reverse_proxy"><path class="cls-1" d="M1.13,32h16a1.13,1.13,0,0,0,1.13-1.13V22.32h-2V14.89l-4.59-4.67,6.57-6.4V1.13A1.13,1.13,0,0,0,17.16,0h-16A1.12,1.12,0,0,0,0,1.13V30.87A1.12,1.12,0,0,0,1.13,32Zm5.73-4.57h4.57v2.28H6.86Z"/><polygon class="cls-2" points="18.27 11.2 22.74 11.16 22.72 9.16 18.25 9.2 20.51 6.88 19.09 5.49 14.43 10.23 19.18 14.89 20.57 13.47 18.27 11.2"/><polygon class="cls-2" points="22.69 18.2 18.22 18.16 18.2 20.16 22.67 20.2 20.37 22.47 21.76 23.89 26.51 19.23 21.85 14.49 20.43 15.88 22.69 18.2"/></g></g></g></svg>