<svg xmlns="http://www.w3.org/2000/svg" xmlns:xlink="http://www.w3.org/1999/xlink" viewBox="0 0 28.18 32"><defs><style>.cls-1{fill:#d73910;}.cls-2{fill:#2f2f2f;}</style><symbol id="Heart" data-name="Heart" viewBox="0 0 31.87 27.9"><path class="cls-1" d="M23.4,0a8.08,8.08,0,0,1,3.3.67,8.67,8.67,0,0,1,2.69,1.81,8.47,8.47,0,0,1,1.83,9.24,8.45,8.45,0,0,1-1.83,2.74L15.93,27.9,2.47,14.46A8.58,8.58,0,0,1,.65,11.72,8.24,8.24,0,0,1,0,8.47a8.35,8.35,0,0,1,.66-3.3A8.5,8.5,0,0,1,2.47,2.48,8.83,8.83,0,0,1,5.17.67,8.08,8.08,0,0,1,8.47,0a8.11,8.11,0,0,1,2.3.3,7.84,7.84,0,0,1,1.87.81,9.75,9.75,0,0,1,1.65,1.26c.53.48,1.07,1,1.64,1.6.57-.58,1.12-1.12,1.65-1.6a9.75,9.75,0,0,1,1.65-1.26A7.84,7.84,0,0,1,21.1.3,8.07,8.07,0,0,1,23.4,0Z"/></symbol></defs><title>server_diagnostic</title><g id="Layer_2" data-name="Layer 2"><g id="SYMBOLS"><g id="server_diagnostic"><use id="Heart-3" data-name="Heart" width="31.87" height="27.9" transform="translate(8.4 7.34) scale(0.62)" xlink:href="#Heart"/><path class="cls-2" d="M1.13,32H17.24c.82,0,1.05-.38,1.05-1.2V27.43c.17,0-10.54-10-10.54-10C5.08,14.37,5.93,9.49,8.4,7.06c4.94-4.88,9.89-.21,9.89-.21V1.13A1.13,1.13,0,0,0,17.16,0h-16A1.12,1.12,0,0,0,0,1.13V30.87A1.12,1.12,0,0,0,1.13,32Zm5.73-4.57h4.57v2.28H6.86Z"/></g></g></g></svg>