<svg id="ArrowUp" xmlns="http://www.w3.org/2000/svg" viewBox="0 0 32 32"><defs><style>.cls-1{fill:#0078d4;}.cls-2{fill:#2f2f2f;}</style></defs><title>ServerDiagnostic-blue</title><g id="server_diagnostic"><path class="cls-1" d="M25.35,7.34a5,5,0,0,1,2,.42,5.37,5.37,0,0,1,1.68,1.12A5.25,5.25,0,0,1,30.6,12.6a5.28,5.28,0,0,1-1.53,3.71l-8.36,8.35-8.35-8.35a5.19,5.19,0,0,1-1.14-1.7,5.11,5.11,0,0,1-.4-2,5.21,5.21,0,0,1,.41-2,5.08,5.08,0,0,1,1.13-1.67A5.22,5.22,0,0,1,14,7.76a5,5,0,0,1,2-.42,5.1,5.1,0,0,1,1.42.18A5.6,5.6,0,0,1,18.67,8a6.27,6.27,0,0,1,1,.78q.49.45,1,1c.36-.36.69-.69,1-1a7.27,7.27,0,0,1,1-.78,5.6,5.6,0,0,1,1.17-.51A5.18,5.18,0,0,1,25.35,7.34Z"/><path class="cls-2" d="M3.55,32H19.66c.83,0,1.05-.38,1.05-1.2V27.43c.18,0-10.53-10-10.53-10-2.67-3.06-1.82-7.94.64-10.37,4.94-4.88,9.89-.21,9.89-.21V1.13A1.12,1.12,0,0,0,19.58,0h-16A1.12,1.12,0,0,0,2.43,1.13V30.87A1.12,1.12,0,0,0,3.55,32Zm5.73-4.57h4.57v2.28H9.28Z"/></g></svg>