<svg xmlns="http://www.w3.org/2000/svg" viewBox="0 0 47.55 31.97"><defs><style>.cls-1{fill:#939393;}.cls-2{fill:#2f2f2f;}</style></defs><title>server_farm</title><g id="Layer_2" data-name="Layer 2"><g id="SYMBOLS"><g id="server_farm"><path class="cls-1" d="M.88,32H13.47a.88.88,0,0,0,.88-.89V7.73a.88.88,0,0,0-.88-.88H.88A.89.89,0,0,0,0,7.73V31.08A.89.89,0,0,0,.88,32Zm4.5-3.59H9v1.79H5.38Z"/><path class="cls-2" d="M22.34,4.85v-4A.88.88,0,0,0,21.46,0H8.88A.89.89,0,0,0,8,.88v4Z"/><path class="cls-2" d="M38.89,4.85v-4A.88.88,0,0,0,38,0H25.42a.89.89,0,0,0-.88.88v4Z"/><path class="cls-1" d="M17.43,32H30a.88.88,0,0,0,.88-.89V7.73A.88.88,0,0,0,30,6.85H17.43a.88.88,0,0,0-.88.88V31.08A.88.88,0,0,0,17.43,32Zm4.5-3.59h3.59v1.79H21.93Z"/><path class="cls-1" d="M34.08,32H46.67a.88.88,0,0,0,.88-.89V7.73a.88.88,0,0,0-.88-.88H34.08a.88.88,0,0,0-.88.88V31.08A.88.88,0,0,0,34.08,32Zm4.5-3.59h3.59v1.79H38.58Z"/></g></g></g></svg>