<svg xmlns="http://www.w3.org/2000/svg" viewBox="0 0 31.97 13.24"><defs><style>.cls-1{fill:#c2c2c2;}</style></defs><title>server_rack_single</title><g id="Layer_2" data-name="Layer 2"><g id="SYMBOLS"><path id="server_rack_single" class="cls-1" d="M29.68,0H0V13.24H32V0ZM19.84,8.09H2.64V5.49h17.2ZM24,7.72a1.25,1.25,0,0,1-.92.39,1.26,1.26,0,0,1-.92-.39,1.3,1.3,0,0,1,0-1.84,1.26,1.26,0,0,1,.92-.39,1.25,1.25,0,0,1,.92.39,1.28,1.28,0,0,1,0,1.84Zm4.52,0a1.25,1.25,0,0,1-.92.39,1.3,1.3,0,0,1-.92-2.23,1.26,1.26,0,0,1,.92-.39,1.25,1.25,0,0,1,.92.39,1.28,1.28,0,0,1,0,1.84Z"/></g></g></svg>