<svg xmlns="http://www.w3.org/2000/svg" viewBox="0 0 31.9 32"><defs><style>.cls-1{fill:#2f2f2f;}.cls-2{fill:#c2c2c2;}.cls-3{fill:#939393;}</style></defs><title>server_health</title><g id="Layer_2" data-name="Layer 2"><g id="SYMBOLS"><g id="server_health"><path class="cls-1" d="M1.13,32h16a1.13,1.13,0,0,0,1.13-1.13V25.43H10.71l0-23h7.55V1.13A1.13,1.13,0,0,0,17.16,0h-16A1.12,1.12,0,0,0,0,1.13V30.87A1.12,1.12,0,0,0,1.13,32Zm5.73-4.57h4.57v2.28H6.86Z"/><path class="cls-2" d="M12.89,4.5V17.18h1.86l1.34-1.35a.8.8,0,0,1,.56-.23.79.79,0,0,1,.56.23L19.4,18l3-11.72a.7.7,0,0,1,.28-.43.79.79,0,0,1,.49-.17.77.77,0,0,1,.49.17A.82.82,0,0,1,24,6.3l1.26,5.16h1.93a.81.81,0,0,1,.49.17.74.74,0,0,1,.28.43l.89,3.54H31.9V4.5Z"/><path class="cls-3" d="M31.9,23.52V17.18H28.19A.72.72,0,0,1,27.7,17a.74.74,0,0,1-.28-.43l-.89-3.53H24.6a.77.77,0,0,1-.49-.17.72.72,0,0,1-.28-.44l-.67-2.7-2.57,10a.75.75,0,0,1-.28.42.73.73,0,0,1-.49.17.8.8,0,0,1-.56-.23L16.65,17.5l-1,1a.74.74,0,0,1-.55.24H12.89v4.75Z"/></g></g></g></svg>