<svg xmlns="http://www.w3.org/2000/svg" viewBox="0 0 27.29 32"><defs><style>.cls-1{fill:#2f2f2f;}.cls-2{fill:#d83b01;}.cls-3{fill:#fff;}</style></defs><title>trusted_application_server</title><g id="Layer_2" data-name="Layer 2"><g id="SYMBOLS"><g id="trusted_application_server"><path class="cls-1" d="M1.13,32H17.24c.82,0,1.05-.38,1.05-1.2V26.92A11.49,11.49,0,0,1,9.67,23C7,20,6.18,14.65,9.14,9.61c2.63-4.47,9.15-4.44,9.15-4.44v-4A1.13,1.13,0,0,0,17.16,0h-16A1.12,1.12,0,0,0,0,1.13V30.87A1.12,1.12,0,0,0,1.13,32Zm5.73-4.57h4.57v2.28H6.86Z"/><path class="cls-2" d="M27,13.53a9,9,0,0,0-.9-2.16,9.15,9.15,0,0,0-1.41-1.82,8.61,8.61,0,0,0-1.82-1.41,9.06,9.06,0,0,0-2.15-.9,9.12,9.12,0,0,0-4.79,0,9.06,9.06,0,0,0-2.15.9,8.87,8.87,0,0,0-1.82,1.41,9.15,9.15,0,0,0-1.41,1.82,9,9,0,0,0-.9,2.16,9.09,9.09,0,0,0,0,4.78,8.95,8.95,0,0,0,2.31,4,9.19,9.19,0,0,0,1.82,1.4,9.4,9.4,0,0,0,2.16.91,9,9,0,0,0,2.39.32,9.06,9.06,0,0,0,2.39-.32,9.52,9.52,0,0,0,2.15-.91A8.94,8.94,0,0,0,27,18.31a8.67,8.67,0,0,0,.33-2.39A8.57,8.57,0,0,0,27,13.53Z"/><polygon class="cls-3" points="16.88 17.26 14.46 14.85 13.39 15.92 16.88 19.41 23.74 12.54 22.67 11.47 16.88 17.26"/></g></g></g></svg>