<svg id="ArrowUp" xmlns="http://www.w3.org/2000/svg" viewBox="0 0 32 32"><defs><style>.cls-1{fill:#2f2f2f;}.cls-2{fill:#0078d4;}.cls-3{fill:#fff;}</style></defs><title>TrustedApplicationServer-blue</title><g id="trusted_application_server"><path class="cls-1" d="M3.48,32H19.6c.82,0,1-.38,1-1.2V26.92A11.48,11.48,0,0,1,12,23C9.36,20,8.54,14.65,11.5,9.61c2.62-4.47,9.14-4.44,9.14-4.44v-4A1.12,1.12,0,0,0,19.52,0h-16A1.12,1.12,0,0,0,2.36,1.13V30.87A1.12,1.12,0,0,0,3.48,32Zm5.73-4.57h4.58v2.28H9.21Z"/><path class="cls-2" d="M29.32,13.53a9,9,0,0,0-.9-2.16,9.14,9.14,0,0,0-3.23-3.23A9,9,0,0,0,23,7.24a9.09,9.09,0,0,0-4.78,0,8.89,8.89,0,0,0-2.15.9,8.61,8.61,0,0,0-1.82,1.41,9.15,9.15,0,0,0-1.41,1.82A9.4,9.4,0,0,0,12,13.53a9.09,9.09,0,0,0,0,4.78,9.33,9.33,0,0,0,.91,2.15,8.93,8.93,0,0,0,3.23,3.23,9.33,9.33,0,0,0,2.15.91,9.06,9.06,0,0,0,2.39.32A9,9,0,0,0,23,24.6a9.05,9.05,0,0,0,4-2.31,8.95,8.95,0,0,0,2.31-4,8.67,8.67,0,0,0,.32-2.39A8.57,8.57,0,0,0,29.32,13.53Z"/><polygon class="cls-3" points="19.24 17.26 16.82 14.85 15.75 15.92 19.24 19.41 26.1 12.54 25.03 11.47 19.24 17.26"/></g></svg>