<svg xmlns="http://www.w3.org/2000/svg" viewBox="0 0 40.49 32"><defs><style>.cls-1{fill:#2f2f2f;}.cls-2{fill:#939393;}.cls-3{fill:#d83b01;}.cls-4{fill:#fff;}</style></defs><title>trusted_application_pool</title><g id="Layer_2" data-name="Layer 2"><g id="SYMBOLS"><g id="trusted_application_pool"><path class="cls-1" d="M9.06,29.68H.86A.86.86,0,0,1,0,28.82V6.18a.86.86,0,0,1,.86-.86h8.2ZM8.7,26.2H5.22v1.74H8.7Z"/><path class="cls-2" d="M12.19,32h16a1.12,1.12,0,0,0,1.13-1.13V23.64c-4.33,0-8.88-4.61-8.88-10.93,0-5.53,5.09-10.07,8.88-10.24V1.13A1.12,1.12,0,0,0,28.22,0h-16a1.12,1.12,0,0,0-1.12,1.13V30.87A1.12,1.12,0,0,0,12.19,32Zm5.73-4.57h4.57v2.28H17.92Z"/><path class="cls-3" d="M40.17,10.8a8.92,8.92,0,0,0-6.29-6.29,9.09,9.09,0,0,0-4.78,0,8.89,8.89,0,0,0-2.15.9,8.61,8.61,0,0,0-1.82,1.41,8.87,8.87,0,0,0-1.41,1.82,9.4,9.4,0,0,0-.91,2.16,9.09,9.09,0,0,0,0,4.78,9.33,9.33,0,0,0,.91,2.15A9.14,9.14,0,0,0,27,21a9.52,9.52,0,0,0,2.15.91,9.06,9.06,0,0,0,2.39.32,9,9,0,0,0,2.39-.32A9.4,9.4,0,0,0,36,21a8.87,8.87,0,0,0,1.82-1.41,8.61,8.61,0,0,0,1.41-1.82,9.06,9.06,0,0,0,.9-2.15,8.67,8.67,0,0,0,.32-2.39A8.57,8.57,0,0,0,40.17,10.8Z"/><polygon class="cls-4" points="30.09 14.53 27.67 12.12 26.6 13.19 30.09 16.68 36.95 9.81 35.88 8.74 30.09 14.53"/></g></g></g></svg>