<svg id="ArrowUp" xmlns="http://www.w3.org/2000/svg" viewBox="0 0 32 32"><defs><style>.cls-1{fill:#2f2f2f;}.cls-2{fill:#c2c2c2;}.cls-3{fill:#0078d4;}.cls-4{fill:#fff;}</style></defs><title>TrustedApplicationPool-blue</title><g id="trusted_application_pool"><path class="cls-1" d="M7.16,26.81H.68A.68.68,0,0,1,0,26.13V8.24a.68.68,0,0,1,.68-.68H7.16Zm-.29-2.75H4.12v1.37H6.87Z"/><path class="cls-2" d="M9.63,28.64H22.3a.88.88,0,0,0,.89-.89V22c-3.42,0-7-3.64-7-8.63,0-4.37,4-8,7-8.09V4.25a.88.88,0,0,0-.89-.89H9.63a.89.89,0,0,0-.89.89v23.5A.89.89,0,0,0,9.63,28.64ZM14.16,25h3.62v1.81H14.16Z"/><path class="cls-3" d="M31.75,11.89a7,7,0,0,0-.72-1.7,7.44,7.44,0,0,0-1.11-1.45,7.09,7.09,0,0,0-1.44-1.11,7.73,7.73,0,0,0-1.7-.71,7,7,0,0,0-1.89-.26A6.9,6.9,0,0,0,23,6.92a7.34,7.34,0,0,0-1.7.71,7.14,7.14,0,0,0-2.56,2.56,7.34,7.34,0,0,0-.71,1.7,7.27,7.27,0,0,0,0,3.78,7.73,7.73,0,0,0,.71,1.7,6.79,6.79,0,0,0,1.12,1.44,7.09,7.09,0,0,0,1.44,1.11,7,7,0,0,0,1.7.72,7.09,7.09,0,0,0,5.48-.72A7.08,7.08,0,0,0,31,17.37a7.3,7.3,0,0,0,.72-1.7A7,7,0,0,0,32,13.78,6.9,6.9,0,0,0,31.75,11.89Z"/><polygon class="cls-4" points="23.78 14.84 21.87 12.93 21.02 13.78 23.78 16.53 29.2 11.11 28.35 10.26 23.78 14.84"/></g></svg>