<svg xmlns="http://www.w3.org/2000/svg" viewBox="0 0 28.14 32"><defs><style>.cls-1{fill:#2f2f2f;}.cls-2{fill:#c2c2c2;}</style></defs><title>web_server</title><g id="Layer_2" data-name="Layer 2"><g id="SYMBOLS"><g id="web_server"><path class="cls-1" d="M1.13,32H17.24c.82,0,1.05-.38,1.05-1.2V27.15A11.59,11.59,0,0,1,9.14,8.52,12.77,12.77,0,0,1,18.29,4V1.13A1.13,1.13,0,0,0,17.16,0h-16A1.12,1.12,0,0,0,0,1.13V30.87A1.12,1.12,0,0,0,1.13,32Zm5.73-4.57h4.57v2.28H6.86Z"/><g id="_Group_" data-name="&lt;Group&gt;"><path class="cls-2" d="M22.08,19.78H14.49c.06.28.15.62.26,1s.24.79.4,1.21a12.27,12.27,0,0,0,.56,1.23,6.11,6.11,0,0,0,.71,1.1,3.69,3.69,0,0,0,.86.78,1.89,1.89,0,0,0,2,0,3.69,3.69,0,0,0,.86-.78,6.11,6.11,0,0,0,.71-1.1A12.27,12.27,0,0,0,21.42,22c.16-.42.3-.83.41-1.21S22,20.06,22.08,19.78Z"/><path class="cls-2" d="M23.74,12.74c.06.47.1.94.13,1.4s0,.94,0,1.41,0,.95,0,1.42-.07.93-.13,1.4h4a9.87,9.87,0,0,0,0-5.63Z"/><path class="cls-2" d="M22.79,8.68q.24.64.42,1.32c.12.45.22.89.31,1.33h3.66a9.76,9.76,0,0,0-1-1.67,10.07,10.07,0,0,0-1.32-1.44,9.89,9.89,0,0,0-1.57-1.15,9.48,9.48,0,0,0-1.77-.83,9.84,9.84,0,0,1,.71,1.17A13.25,13.25,0,0,1,22.79,8.68Z"/><path class="cls-2" d="M14.25,12.74c-.06.47-.1.94-.14,1.4s0,.94,0,1.41,0,.95,0,1.42.08.93.14,1.4h8.07c.06-.47.1-.94.14-1.4s.05-.94.05-1.42,0-.94-.05-1.41-.08-.93-.14-1.4Z"/><path class="cls-2" d="M15.71,7.87a6,6,0,0,1,.71-1.09A3.69,3.69,0,0,1,17.28,6a1.83,1.83,0,0,1,2,0,3.69,3.69,0,0,1,.86.78,6,6,0,0,1,.71,1.09,12.43,12.43,0,0,1,.56,1.24c.16.42.3.82.41,1.21s.19.73.25,1H14.49c.06-.28.15-.62.26-1s.24-.79.4-1.21A12.43,12.43,0,0,1,15.71,7.87Z"/><path class="cls-2" d="M10.4,9.66a10.07,10.07,0,0,1,1.32-1.44,10.37,10.37,0,0,1,1.57-1.15,9.48,9.48,0,0,1,1.77-.83,9.84,9.84,0,0,0-.71,1.17,13.25,13.25,0,0,0-.57,1.27q-.24.64-.42,1.32c-.12.45-.22.89-.31,1.33H9.39A9.76,9.76,0,0,1,10.4,9.66Z"/><path class="cls-2" d="M8.44,15.55a9.74,9.74,0,0,1,.4-2.81h4c-.06.47-.1.94-.13,1.4s0,.94,0,1.41,0,.95,0,1.42.07.93.13,1.4h-4A9.76,9.76,0,0,1,8.44,15.55Z"/><path class="cls-2" d="M13.29,24a11.1,11.1,0,0,1-1.57-1.15,10.64,10.64,0,0,1-1.32-1.44,9.76,9.76,0,0,1-1-1.67h3.66c.09.43.19.88.31,1.33s.26.88.42,1.32a13.25,13.25,0,0,0,.57,1.27,9.84,9.84,0,0,0,.71,1.17A10.16,10.16,0,0,1,13.29,24Z"/><path class="cls-2" d="M26.17,21.45A9.93,9.93,0,0,1,23.28,24a10.16,10.16,0,0,1-1.77.83,9.84,9.84,0,0,0,.71-1.17,13.25,13.25,0,0,0,.57-1.27q.24-.66.42-1.32c.12-.45.22-.9.31-1.33h3.66A9.76,9.76,0,0,1,26.17,21.45Z"/></g></g></g></g></svg>