<svg xmlns="http://www.w3.org/2000/svg" viewBox="0 0 31.97 25.84"><defs><style>.cls-1{fill:#c2c2c2;}.cls-2{fill:#2f2f2f;}.cls-3{fill:#d83b01;}</style></defs><title>audio_conferencing_application</title><g id="Layer_2" data-name="Layer 2"><g id="SYMBOLS"><g id="audio_conferencing_application"><path class="cls-1" d="M27.21,9V5.83H0V21.38H15A7,7,0,0,1,18.08,19c1.23-.32,2.92,2.8,4,1.53s2.85-3,4.6-4.82c.92-.93-1.83-2.3-1.79-3.32C25,11.05,27.21,9,27.21,9Z"/><rect class="cls-2" width="27.21" height="3.89"/><path class="cls-3" d="M19.09,25.84a7.19,7.19,0,0,0,2.08-.33,12.09,12.09,0,0,0,2.17-.91,16.08,16.08,0,0,0,2.16-1.39,19.63,19.63,0,0,0,2-1.75,18.72,18.72,0,0,0,1.77-2,16.35,16.35,0,0,0,1.41-2.17,11.41,11.41,0,0,0,.93-2.19A7.06,7.06,0,0,0,32,13a3.86,3.86,0,0,0-.13-1.1,2.49,2.49,0,0,0-.37-.81,4.14,4.14,0,0,0-.59-.7l-.78-.78a.82.82,0,0,0-.6-.25.78.78,0,0,0-.39.13,3.41,3.41,0,0,0-.48.35c-.17.14-.34.3-.51.47l-.5.52-.43.47-.32.33a.84.84,0,0,0-.11,1.06,2.41,2.41,0,0,0,.34.4,4.63,4.63,0,0,0,.45.42A3.34,3.34,0,0,1,28,14a2.72,2.72,0,0,1,.35.57,1.86,1.86,0,0,1,.13.73,2,2,0,0,1-.15.77,2,2,0,0,1-.44.66L22.8,21.76a1.82,1.82,0,0,1-.66.44,2,2,0,0,1-.78.15,1.81,1.81,0,0,1-.72-.13,3.68,3.68,0,0,1-.58-.34,4,4,0,0,1-.47-.45L19.17,21a3.07,3.07,0,0,0-.41-.34.77.77,0,0,0-.44-.14.82.82,0,0,0-.61.25l-.33.32-.47.43-.52.5c-.18.17-.33.35-.47.51a3.2,3.2,0,0,0-.35.48.78.78,0,0,0-.13.39.85.85,0,0,0,.24.6c.3.29.56.56.79.79a4.67,4.67,0,0,0,.7.59,3.32,3.32,0,0,0,.81.36A4.27,4.27,0,0,0,19.09,25.84Z"/></g></g></g></svg>