<svg id="ArrowUp" xmlns="http://www.w3.org/2000/svg" viewBox="0 0 32 32"><defs><style>.cls-1{fill:#c2c2c2;}.cls-2{fill:#0078d4;}.cls-3{fill:#2f2f2f;}</style></defs><title>CallPhoneDialSkypeMinutes-blue</title><path class="cls-1" d="M24.93,32a14,14,0,0,1-4-.63,22.51,22.51,0,0,1-4.21-1.77,31.06,31.06,0,0,1-4.18-2.69A37.93,37.93,0,0,1,8.6,23.51a35.1,35.1,0,0,1-3.42-3.9,32.45,32.45,0,0,1-2.73-4.18,24.14,24.14,0,0,1-1.8-4.25A14.13,14.13,0,0,1,0,7.06,8,8,0,0,1,.24,4.93,5.47,5.47,0,0,1,1,3.36,9.38,9.38,0,0,1,2.1,2L3.62.49A1.59,1.59,0,0,1,4.78,0a1.56,1.56,0,0,1,.76.26,6.05,6.05,0,0,1,.92.67c.32.27.65.58,1,.92s.66.67,1,1,.59.63.84.91l.62.65a1.59,1.59,0,0,1,.48,1.17,1.49,1.49,0,0,1-.27.86,5.12,5.12,0,0,1-.66.79c-.26.26-.55.53-.86.81A6.32,6.32,0,0,0,7.69,9,5.09,5.09,0,0,0,7,10.08a3.46,3.46,0,0,0-.27,1.4A3.88,3.88,0,0,0,7.06,13a3.77,3.77,0,0,0,.85,1.28l9.83,9.83a3.9,3.9,0,0,0,2.78,1.14A3.51,3.51,0,0,0,21.93,25,5.09,5.09,0,0,0,23,24.32a7.57,7.57,0,0,0,.92-.87c.28-.31.55-.6.81-.86a4.61,4.61,0,0,1,.79-.66,1.46,1.46,0,0,1,.85-.27,1.6,1.6,0,0,1,1.18.48l.65.62.91.83c.33.31.66.63,1,1s.65.67.92,1a6.05,6.05,0,0,1,.67.92,1.56,1.56,0,0,1,.26.76,1.6,1.6,0,0,1-.48,1.16L30,29.92a7.76,7.76,0,0,1-1.36,1.13,5.27,5.27,0,0,1-1.56.7A8.12,8.12,0,0,1,24.93,32Z"/><g id="_Handset_-_Dial_Pad" data-name="~Handset - Dial Pad"><path class="cls-2" d="M29.64,13.83H18.21V11.55H29.64Z"/></g><rect class="cls-3" x="18.21" y="2.41" width="2.28" height="2.28"/><rect class="cls-3" x="18.21" y="6.98" width="2.28" height="2.28"/><rect class="cls-3" x="22.78" y="2.41" width="2.28" height="2.28"/><rect class="cls-3" x="22.78" y="6.98" width="2.28" height="2.28"/><rect class="cls-3" x="27.35" y="2.41" width="2.28" height="2.28"/><rect class="cls-3" x="27.35" y="6.98" width="2.28" height="2.28"/></svg>