<svg xmlns="http://www.w3.org/2000/svg" viewBox="0 0 26 31.02"><defs><style>.cls-1{fill:#c2c2c2;}.cls-2{fill:#2f2f2f;}.cls-3{fill:#d2d2d2;}.cls-4{fill:#d83b01;}</style></defs><title>chat_bot</title><g id="Layer_2" data-name="Layer 2"><g id="SYMBOLS"><g id="chat_bot"><g id="_Bot" data-name="~Bot"><path class="cls-1" d="M2,31H0V23.7a2.61,2.61,0,0,1,.21-1,2.88,2.88,0,0,1,.57-.85,2.65,2.65,0,0,1,.85-.57,2.49,2.49,0,0,1,1-.22H8V19H6.67a2.66,2.66,0,0,1-2.46-1.63,2.61,2.61,0,0,1-.21-1V15H2V11H4V9.7a2.61,2.61,0,0,1,.21-1,2.88,2.88,0,0,1,.57-.85,2.65,2.65,0,0,1,.85-.57,2.49,2.49,0,0,1,1-.22H12V3.76A2.07,2.07,0,0,1,11.27,3,2,2,0,0,1,11,2a1.85,1.85,0,0,1,.16-.78,1.81,1.81,0,0,1,.43-.63,2,2,0,0,1,.63-.43,2,2,0,0,1,1.56,0,2,2,0,0,1,.63.43,1.81,1.81,0,0,1,.43.63A1.85,1.85,0,0,1,15,2a2,2,0,0,1-.27,1,2.07,2.07,0,0,1-.73.74V7h5.33a2.41,2.41,0,0,1,1,.22,2.71,2.71,0,0,1,1.43,1.42,2.61,2.61,0,0,1,.21,1V11h2v4H22v1.33a2.61,2.61,0,0,1-.21,1,2.52,2.52,0,0,1-.58.85,2.76,2.76,0,0,1-.85.57,2.56,2.56,0,0,1-1,.21H18v2h5.33a2.41,2.41,0,0,1,1,.22,2.71,2.71,0,0,1,1.43,1.42,2.61,2.61,0,0,1,.21,1V31H2Zm8-10h6V19H10Z"/></g><rect class="cls-2" x="8.5" y="11.02" width="2" height="2"/><rect class="cls-3" x="15.52" y="11.02" width="2" height="2"/><rect class="cls-2" x="15.52" y="11.02" width="2" height="2"/><circle class="cls-4" cx="13" cy="2.02" r="2.02"/></g></g></g></svg>