<svg id="ArrowUp" xmlns="http://www.w3.org/2000/svg" viewBox="0 0 32 32"><defs><style>.cls-1{fill:#c2c2c2;}.cls-2{fill:#2f2f2f;}.cls-3{fill:#d2d2d2;}.cls-4{fill:#0078d4;}</style></defs><title>ChatBot-blue</title><g id="chat_bot"><g id="_Bot" data-name="~Bot"><path class="cls-1" d="M27.14,23.9,4.65,32H2.59V24.39a2.6,2.6,0,0,1,.22-1.07,2.73,2.73,0,0,1,.59-.87,2.6,2.6,0,0,1,.88-.6,2.73,2.73,0,0,1,1.07-.22h5.49V19.57H9.47a2.63,2.63,0,0,1-1.07-.22,2.67,2.67,0,0,1-.88-.59,3,3,0,0,1-.59-.87,2.81,2.81,0,0,1-.21-1.08V15.44H4.65V11.32H6.72V10a2.76,2.76,0,0,1,.21-1.07A3.11,3.11,0,0,1,7.52,8a2.55,2.55,0,0,1,.88-.6,2.81,2.81,0,0,1,1.07-.22H15V3.82a2.07,2.07,0,0,1-.75-.75,2,2,0,0,1-.28-1,2,2,0,0,1,.6-1.46,2.23,2.23,0,0,1,.65-.45,2.13,2.13,0,0,1,1.62,0,2.23,2.23,0,0,1,.65.45A2,2,0,0,1,18.06,2a2,2,0,0,1-.28,1,2.07,2.07,0,0,1-.75.75V7.19h5.5a2.72,2.72,0,0,1,1.06.22,2.65,2.65,0,0,1,.88.6,2.94,2.94,0,0,1,.6.87A2.76,2.76,0,0,1,25.28,10v1.37h2.07v4.12H25.28v1.37a2.64,2.64,0,0,1-.81,2,2.78,2.78,0,0,1-.88.59,2.55,2.55,0,0,1-1.06.22H21.16v2.06h5.49a2.7,2.7,0,0,1,1.94.82,2.7,2.7,0,0,1,.82,1.94V32H4.65Zm8.26-10.32h6.18V19.57H12.91Z"/></g><rect class="cls-2" x="11.36" y="11.32" width="2.06" height="2.06"/><rect class="cls-3" x="18.6" y="11.32" width="2.06" height="2.06"/><rect class="cls-2" x="18.6" y="11.32" width="2.06" height="2.06"/><circle class="cls-4" cx="16" cy="2.03" r="2.08"/></g></svg>