<svg id="ArrowUp" xmlns="http://www.w3.org/2000/svg" viewBox="0 0 32 32"><defs><style>.cls-1{fill:#c2c2c2;}.cls-2{fill:#0078d4;}</style></defs><title>Chat-blue</title><path class="cls-1" d="M0,25.62H4.57v3.62c.61-.61,1.21-1.21,1.8-1.82s1.2-1.21,1.83-1.8H25.14v-16H0Z"/><path class="cls-1" d="M25.14,25.62H8.2q-.94.89-1.83,1.8c-.59.61-1.19,1.21-1.8,1.82V25.62H0v-16H25.14Z"/><polygon class="cls-1" points="4.57 7.33 27.43 7.33 27.43 21.05 32 21.05 32 2.76 4.57 2.76 4.57 7.33"/><polygon class="cls-2" points="32 21.05 27.43 21.05 27.43 7.33 4.57 7.33 4.57 2.76 32 2.76 32 21.05"/></svg>