<svg xmlns="http://www.w3.org/2000/svg" viewBox="0 0 31.97 27.27"><defs><style>.cls-1{fill:#c2c2c2;}.cls-2{fill:#d83b01;}</style></defs><title>communications</title><g id="Layer_2" data-name="Layer 2"><g id="SYMBOLS"><g id="communications"><path class="cls-1" d="M3.7,22.62A14.13,14.13,0,0,1,2.34,19,13.84,13.84,0,0,1,2,15.23a13.68,13.68,0,0,1,.74-3.83,13.82,13.82,0,0,1,4.11-6,13.71,13.71,0,0,1,3-2,14.55,14.55,0,0,1,3.39-1.14A13.66,13.66,0,0,1,16.87,2a13.45,13.45,0,0,1,3.67.74,13.42,13.42,0,0,1,3.34,1.68,13.63,13.63,0,0,1,2.7,2.43,14.15,14.15,0,0,1,2,3,13.57,13.57,0,0,1,1.15,3.39,14.06,14.06,0,0,1,.25,3.62,13.82,13.82,0,0,1-2.56,7.18A6.53,6.53,0,0,1,26,25.78l1.41,1.49a9.3,9.3,0,0,0,1.5-1.88A15.94,15.94,0,0,0,31.94,17a15.82,15.82,0,0,0-1.6-8A15.89,15.89,0,0,0,28.1,5.57,16.3,16.3,0,0,0,25,2.8,16.23,16.23,0,0,0,17,0,16.7,16.7,0,0,0,12.87.3,15.71,15.71,0,0,0,9,1.61,16.16,16.16,0,0,0,5.56,3.84,16,16,0,0,0,2.79,6.92,15.65,15.65,0,0,0,.86,10.75,15.86,15.86,0,0,0,0,15.13a16.09,16.09,0,0,0,4.59,12L6,25.75A14,14,0,0,1,3.7,22.62Z"/><path class="cls-1" d="M22.32,22.15l1.59,1.58a6,6,0,0,0,1.3-1.6,10.87,10.87,0,0,0,1.26-2.53,10.92,10.92,0,0,0,.39-5.79A11,11,0,0,0,24.4,8.75a11.29,11.29,0,0,0-2.14-1.93,11.18,11.18,0,0,0-5.58-1.93,11.4,11.4,0,0,0-2.87.2A11.24,11.24,0,0,0,8.75,7.55,11.29,11.29,0,0,0,6.82,9.69a11.06,11.06,0,0,0-1.34,2.66,10.56,10.56,0,0,0-.58,3,11.37,11.37,0,0,0,.26,3,11.54,11.54,0,0,0,1.08,2.84,11,11,0,0,0,1.83,2.48l1.61-1.57a9.13,9.13,0,0,1-1.48-2A8.85,8.85,0,0,1,7.11,15.5a8.57,8.57,0,0,1,.47-2.43A8.88,8.88,0,0,1,12.09,8a9,9,0,0,1,3.29-.88,8.81,8.81,0,0,1,3.5.48A8.74,8.74,0,0,1,24,12.09a9,9,0,0,1,.88,3.29,8.63,8.63,0,0,1-.47,3.5,8.05,8.05,0,0,1-.84,1.75A9.73,9.73,0,0,1,22.32,22.15Z"/><path class="cls-2" d="M16,10a5.67,5.67,0,1,0,5.67,5.67A5.67,5.67,0,0,0,16,10Zm0,9a3.38,3.38,0,1,1,3.38-3.38A3.37,3.37,0,0,1,16,19Z"/></g></g></g></svg>