<svg xmlns="http://www.w3.org/2000/svg" viewBox="0 0 31.97 27.56"><defs><style>.cls-1{fill:#c2c2c2;}.cls-2{fill:#d2d2d2;}.cls-3{fill:#2f2f2f;}.cls-4{fill:#d83b01;}</style></defs><title>discovery_search_mailbox</title><g id="Layer_2" data-name="Layer 2"><g id="SYMBOLS"><g id="discovery_search_mailbox"><path class="cls-1" d="M16.15,8.32,4.59,2.53l-1.4-.7v9.52l0,3.15,15.4.08c2.47-6.82,9.1-6.21,10.51-5.37V1.83l-1.41.7Z"/><polygon class="cls-2" points="29.12 1.82 29.12 1.83 29.13 1.82 29.12 1.82"/><polygon class="cls-2" points="3.18 1.82 3.19 1.83 3.19 1.82 3.18 1.82"/><polygon class="cls-1" points="16.15 6.5 27.71 0.71 29.12 0.01 29.12 0 3.19 0 3.19 0.01 4.59 0.71 16.15 6.5"/><path class="cls-3" d="M0,14v9.63H15.59L19.46,20c-1.46-2-.84-5.37-.84-5.37L3.19,14.43V12.72Z"/><path class="cls-4" d="M23,21.1l-6.31,6.3a.5.5,0,0,1-.36.16c-.14,0-.57-.37-.68-.47a.85.85,0,0,1-.23-.45.49.49,0,0,1,.15-.36L21.85,20A6.34,6.34,0,0,0,23,21.1Z"/><path class="cls-3" d="M26.28,10.75A5.69,5.69,0,1,0,32,16.44,5.69,5.69,0,0,0,26.28,10.75Zm0,9.32a3.63,3.63,0,1,1,3.63-3.63A3.64,3.64,0,0,1,26.28,20.07Z"/></g></g></g></svg>