<svg xmlns="http://www.w3.org/2000/svg" viewBox="0 0 31.97 25.57"><defs><style>.cls-1{fill:#c2c2c2;}.cls-2{fill:#d2d2d2;}.cls-3{fill:#2f2f2f;}.cls-4{fill:#d83b01;}.cls-5{fill:#fff;}</style></defs><title>disconnected_mailbox</title><g id="Layer_2" data-name="Layer 2"><g id="SYMBOLS"><g id="disconnected_mailbox"><path class="cls-1" d="M14.18,7.31,4,2.22,2.8,1.61V10l0,2.77H14.19c3-6.55,10.38-6,11.38-5.37V1.61l-1.24.61Z"/><polygon class="cls-2" points="25.57 1.6 25.57 1.61 25.58 1.6 25.57 1.6"/><polygon class="cls-2" points="2.79 1.6 2.8 1.61 2.8 1.6 2.79 1.6"/><polygon class="cls-1" points="14.18 5.7 24.33 0.62 25.57 0.01 25.57 0 2.8 0 2.8 0.01 4.03 0.62 14.18 5.7"/><path class="cls-3" d="M0,12.25v8.47H14.18c-1.78-4.78,0-8,0-8L2.8,12.67v-1.5Z"/><circle class="cls-4" cx="23.53" cy="17.13" r="8.44" transform="translate(3.33 38.08) rotate(-82.11)"/><polygon class="cls-5" points="21.29 17 21.8 17.5 22.49 18.18 22.49 17.5 22.49 15.96 22.49 12.69 24.25 12.69 24.25 15.96 24.25 17.5 24.25 18.18 24.94 17.5 26.28 16.17 27.52 17.41 27.43 17.5 23.37 21.56 21.29 19.49 19.31 17.5 19.22 17.41 20.46 16.17 21.29 17 21.29 17"/></g></g></g></svg>