<svg id="ArrowUp" xmlns="http://www.w3.org/2000/svg" viewBox="0 0 32 32"><defs><style>.cls-1{fill:#c2c2c2;}.cls-2{fill:#0078d4;}</style></defs><title>EmailEnvelopeDownload-blue</title><polygon points="31.99 10.56 32 10.55 32 10.55 31.99 10.56 31.99 10.56"/><polygon points="31.99 10.56 32 10.55 31.99 10.55 31.99 10.56"/><path class="cls-1" d="M16,18.56,1.74,11.42,0,10.56V28.29H32V10.56l-1.73.86Z"/><polygon points="0 10.55 0.01 10.56 0.01 10.56 0 10.55 0 10.55"/><polygon points="0 10.55 0.01 10.56 0.01 10.55 0 10.55"/><polygon class="cls-1" points="16 16.31 30.26 9.18 31.99 8.31 31.99 8.3 23.79 8.3 23.84 8.35 22.42 9.77 17.41 14.78 16 16.19 14.58 14.78 9.57 9.77 8.16 8.35 8.21 8.3 0 8.3 0 8.31 1.74 9.18 16 16.31"/><polygon class="cls-2" points="21.01 8.35 20.96 8.3 19.51 6.85 18.05 8.3 17.06 9.28 17.06 8.3 17.06 2.65 14.93 2.65 14.93 8.3 14.93 9.28 13.94 8.3 12.48 6.85 11.04 8.3 10.98 8.35 16 13.36 21.01 8.35"/></svg>