<svg width="32" height="28" viewBox="0 0 32 28" fill="none" xmlns="http://www.w3.org/2000/svg">
<path d="M14.2087 7.80177L26.8713 1.45716L28.4085 0.684082H0L1.53728 1.45716L14.2087 7.80177Z" fill="#C2C2C2"/>
<path d="M16.7057 16.7411C17.1677 15.6659 17.8075 14.7151 18.625 13.9154C19.4337 13.1245 20.3756 12.4847 21.4241 12.0315C22.4905 11.5695 23.6545 11.3295 24.8808 11.3207C26.1071 11.3207 27.28 11.5517 28.3641 12.0227C28.3819 12.0315 28.4085 12.0404 28.4263 12.0493V2.68347L26.8801 3.45655L14.2176 9.80115L1.53728 3.45655L0 2.68347V18.4383H16.1814C16.2969 17.8519 16.4746 17.2832 16.7057 16.7411Z" fill="#C2C2C2"/>
<path d="M18.3511 22.9707C18.7243 23.8238 19.2308 24.5791 19.8706 25.2278C20.5104 25.8765 21.2657 26.3918 22.1277 26.7562C22.9896 27.1294 23.9137 27.316 24.8912 27.316C25.8776 27.316 26.8017 27.1205 27.6548 26.7473C28.5078 26.3741 29.2631 25.8676 29.9118 25.2278C30.5605 24.588 31.0759 23.8327 31.4402 22.9707C31.8134 22.1088 32 21.1846 32 20.2072C32 19.2208 31.8045 18.2967 31.4313 17.4436C31.0581 16.5906 30.5516 15.8353 29.9118 15.1866C29.272 14.5379 28.5167 14.0225 27.6548 13.6582C26.7928 13.285 25.8687 13.0984 24.8912 13.0984C23.9049 13.0984 22.9807 13.2939 22.1277 13.6671C21.2746 14.0403 20.5193 14.5468 19.8706 15.1866C19.2219 15.8264 18.7066 16.5817 18.3422 17.4436C17.969 18.3056 17.7824 19.2297 17.7824 20.2072C17.7824 21.1935 17.9779 22.1177 18.3511 22.9707V22.9707ZM23.9937 16.635H25.7709V18.4389H23.9937V16.635ZM23.9937 19.3008H25.7709V24.6768H23.9937V19.3008Z" fill="#0078D4"/>
</svg>
