<svg id="ArrowUp" xmlns="http://www.w3.org/2000/svg" viewBox="0 0 32 32"><defs><style>.cls-1{fill:#c2c2c2;}.cls-2{fill:#0078d4;}</style></defs><title>GlobeHyperlink-blue</title><path class="cls-1" d="M14,21.34a5.6,5.6,0,0,1,1-.78H9c.09.41.21.91.38,1.47a18.5,18.5,0,0,0,.6,1.77c.16.43.37.84.57,1.26A5.67,5.67,0,0,1,11.38,24Z"/><path class="cls-1" d="M26.68,10.28h-4c.09.68.15,1.37.19,2.05,0,.1,0,.2,0,.3l.76-.74A6,6,0,0,1,26.68,10.28Z"/><path class="cls-1" d="M21.23,4.34a17.53,17.53,0,0,1,.63,1.94c.17.65.32,1.3.45,1.94h5.42a13.76,13.76,0,0,0-1.5-2.45,14.29,14.29,0,0,0-1.95-2.09A15,15,0,0,0,22,2,14.39,14.39,0,0,0,19.34.79a13.89,13.89,0,0,1,1.06,1.7A18,18,0,0,1,21.23,4.34Z"/><path class="cls-1" d="M20.82,14.39c0-.7,0-1.38-.08-2.06s-.11-1.37-.2-2.05H8.6c-.08.68-.15,1.37-.2,2.05s-.07,1.36-.07,2.06,0,1.38.07,2.06.12,1.37.2,2.05H19.17a6,6,0,0,1,1.64-3.85C20.81,14.56,20.82,14.48,20.82,14.39Z"/><path class="cls-1" d="M9,8.22H20.18c-.08-.41-.21-.91-.37-1.47A18.5,18.5,0,0,0,19.21,5a19.4,19.4,0,0,0-.82-1.81,9.22,9.22,0,0,0-1.05-1.6A5.44,5.44,0,0,0,16.06.43a2.8,2.8,0,0,0-3,0,5.4,5.4,0,0,0-1.27,1.14,9.22,9.22,0,0,0-1.05,1.6A19.4,19.4,0,0,0,9.94,5a18.5,18.5,0,0,0-.6,1.77C9.17,7.31,9.05,7.81,9,8.22Z"/><path class="cls-1" d="M7.29,6.28a19.84,19.84,0,0,1,.62-1.94c.25-.63.53-1.25.84-1.85A12.77,12.77,0,0,1,9.81.79,14.09,14.09,0,0,0,7.19,2,15.06,15.06,0,0,0,4.86,3.68,15.47,15.47,0,0,0,2.91,5.77a15,15,0,0,0-1.5,2.45H6.83C7,7.58,7.11,6.93,7.29,6.28Z"/><path class="cls-1" d="M6.31,16.45c0-.68-.06-1.36-.06-2.06s0-1.38.06-2.06.11-1.37.2-2.05H.6a14.38,14.38,0,0,0,0,8.22H6.51C6.42,17.82,6.35,17.13,6.31,16.45Z"/><path class="cls-1" d="M8.75,26.29a19.53,19.53,0,0,1-.84-1.86,18.84,18.84,0,0,1-.62-1.93c-.18-.65-.33-1.3-.46-1.94H1.41A15,15,0,0,0,2.91,23a15.47,15.47,0,0,0,2,2.09,15.75,15.75,0,0,0,2.33,1.69,13.74,13.74,0,0,0,2.43,1.13c0-.06,0-.12,0-.18A14,14,0,0,1,8.75,26.29Z"/><path class="cls-2" d="M30.81,13.06c-.07-.07-.16-.12-.23-.18A4,4,0,0,0,29,12.07a4.19,4.19,0,0,0-4,1L22.87,15.2l-.48.47a4,4,0,0,0-.62,4.88L20.41,21.9a4,4,0,0,0-.56-.26,4.1,4.1,0,0,0-4.39.87l-2.64,2.61a4,4,0,0,0,0,5.7,4,4,0,0,0,1,.72A4,4,0,0,0,15.7,32a4.09,4.09,0,0,0,2.89-1.18l2.64-2.61a3.86,3.86,0,0,0,1.06-1.89,4,4,0,0,0-.06-2.11,4.26,4.26,0,0,0-.38-.88l.22-.22L23.22,22l.19.1a4.15,4.15,0,0,0,.69.28,3.89,3.89,0,0,0,1.18.19,4.3,4.3,0,0,0,1.24-.21,4.16,4.16,0,0,0,1.64-1l2.65-2.62a4,4,0,0,0,0-5.69ZM20.16,26.25a1.75,1.75,0,0,1-.37.53L17.14,29.4a2.11,2.11,0,0,1-2.17.44,2,2,0,0,1-.71-.44,2,2,0,0,1-.55-1,2,2,0,0,1,.55-1.83l2.65-2.61a2,2,0,0,1,1.44-.59,2.32,2.32,0,0,1,.52.07l-.65.64-1,1a1,1,0,0,0,0,1.43,1,1,0,0,0,.32.21.94.94,0,0,0,.29.06l.11,0a1,1,0,0,0,.72-.29l1.66-1.64A2,2,0,0,1,20.16,26.25Zm9.2-8.92-.78.77-.15.15-1.71,1.69a2.07,2.07,0,0,1-.53.36h0a2.19,2.19,0,0,1-1.4.15l.14-.15,1.38-1.36a1,1,0,0,0,.3-.69,1,1,0,0,0-.14-.5.94.94,0,0,0-.16-.23,1,1,0,0,0-1.44,0l-.64.62-.1.11-.8.78a2.09,2.09,0,0,1-.07-.51,2.45,2.45,0,0,1,0-.27,2,2,0,0,1,.57-1.16l2.65-2.61a2,2,0,0,1,2.66-.18,1.92,1.92,0,0,1,.22.18l0,0a2,2,0,0,1,0,2.8Z"/></svg>