<svg xmlns="http://www.w3.org/2000/svg" viewBox="0 0 31.97 32.23"><defs><style>.cls-1{fill:#c2c2c2;}.cls-2{fill:#2f2f2f;}</style></defs><title>global_address_list</title><g id="Layer_2" data-name="Layer 2"><g id="SYMBOLS"><g id="global_address_list"><g id="Artwork_215" data-name="Artwork 215"><path class="cls-1" d="M21,0H2a1.6,1.6,0,0,0-.72.18,2.44,2.44,0,0,0-1.1,1.1A1.6,1.6,0,0,0,0,2V22.55A4,4,0,0,1,2,22H9.52s.22-5.28,3.6-8.47c3.81-3.61,7.67-3.57,10.25-3.48V6.85H21V4.94h2.35V.85H21ZM9.68,24H2a1.85,1.85,0,0,0-.78.16,1.81,1.81,0,0,0-.63.43,1.81,1.81,0,0,0-.43.63,2,2,0,0,0,0,1.56,2,2,0,0,0,.43.64,2.13,2.13,0,0,0,.63.43A2,2,0,0,0,2,28h9.43C10.49,27.06,9.68,24,9.68,24Z"/></g><g id="_Group_" data-name="&lt;Group&gt;"><path class="cls-2" d="M25.69,26.4H17.82c.06.29.15.64.26,1.05a12.25,12.25,0,0,0,.42,1.25A13.26,13.26,0,0,0,19.08,30a6.54,6.54,0,0,0,.73,1.14,4.23,4.23,0,0,0,.9.81,1.93,1.93,0,0,0,1,.3,2,2,0,0,0,1.05-.3,4,4,0,0,0,.89-.81A7.21,7.21,0,0,0,24.43,30c.21-.42.4-.85.57-1.28a12.25,12.25,0,0,0,.42-1.25C25.54,27,25.62,26.69,25.69,26.4Z"/><path class="cls-2" d="M27.41,19.1c.06.49.1,1,.13,1.45s.05,1,.05,1.47,0,1-.05,1.46-.07,1-.13,1.46h4.14a10.36,10.36,0,0,0,0-5.84Z"/><path class="cls-2" d="M26.42,14.89a13.63,13.63,0,0,1,.44,1.37c.12.46.23.92.32,1.38H31a9.58,9.58,0,0,0-1.05-1.74,10.76,10.76,0,0,0-1.37-1.49,10.64,10.64,0,0,0-1.63-1.19,9.92,9.92,0,0,0-1.84-.86,8.69,8.69,0,0,1,.74,1.21A11.26,11.26,0,0,1,26.42,14.89Z"/><path class="cls-2" d="M17.57,19.1c-.06.49-.11,1-.15,1.45s-.05,1-.05,1.47,0,1,.05,1.46.09,1,.15,1.46h8.37c.06-.49.1-1,.14-1.46s.05-1,.05-1.46,0-1-.05-1.47-.08-1-.14-1.45Z"/><path class="cls-2" d="M19.08,14.05a6.09,6.09,0,0,1,.73-1.13,4.23,4.23,0,0,1,.9-.81,1.86,1.86,0,0,1,1-.31,1.92,1.92,0,0,1,1.05.31,4,4,0,0,1,.89.81,6.69,6.69,0,0,1,.74,1.13c.21.43.4.85.57,1.29a12.25,12.25,0,0,1,.42,1.25c.12.4.2.75.27,1.05H17.82c.06-.3.15-.65.26-1.05a12.25,12.25,0,0,1,.42-1.25A13.43,13.43,0,0,1,19.08,14.05Z"/><path class="cls-2" d="M13.58,15.9a10,10,0,0,1,3-2.68,9.55,9.55,0,0,1,1.83-.86,9.77,9.77,0,0,0-.74,1.21,11.26,11.26,0,0,0-.59,1.32c-.17.45-.31.91-.44,1.37s-.22.92-.32,1.38H12.53A9.58,9.58,0,0,1,13.58,15.9Z"/><path class="cls-2" d="M11.54,22A10.11,10.11,0,0,1,12,19.1H16.1c-.06.49-.11,1-.14,1.45s-.05,1-.05,1.47,0,1,.05,1.46.08,1,.14,1.46H12A10.16,10.16,0,0,1,11.54,22Z"/><path class="cls-2" d="M16.58,30.82a10.78,10.78,0,0,1-1.64-1.2,10.08,10.08,0,0,1-1.36-1.48,10.32,10.32,0,0,1-1.05-1.74h3.79c.1.45.2.91.32,1.38s.27.92.44,1.37a13,13,0,0,0,.59,1.32,10.57,10.57,0,0,0,.74,1.21A9.55,9.55,0,0,1,16.58,30.82Z"/><path class="cls-2" d="M29.93,28.14a10.14,10.14,0,0,1-1.37,1.48,10.7,10.7,0,0,1-1.63,1.2,9.92,9.92,0,0,1-1.84.86,9.32,9.32,0,0,0,.74-1.21,13,13,0,0,0,.59-1.32,13.63,13.63,0,0,0,.44-1.37c.12-.47.23-.93.32-1.38H31A10.32,10.32,0,0,1,29.93,28.14Z"/></g></g></g></g></svg>