<svg xmlns="http://www.w3.org/2000/svg" viewBox="0 0 31.97 31.97"><defs><style>.cls-1{fill:#c2c2c2;}.cls-2{fill:#d83b01;}</style></defs><title>hyperlink</title><g id="Layer_2" data-name="Layer 2"><g id="SYMBOLS"><g id="hyperlink"><path class="cls-1" d="M12.44,24.82,8.9,28.36a3.65,3.65,0,0,1-1.24.83,3.85,3.85,0,0,1-1.41.28,3.85,3.85,0,0,1-1.41-.28,3.65,3.65,0,0,1-1.24-.83,3.55,3.55,0,0,1-.83-1.25,3.69,3.69,0,0,1,0-2.82,3.61,3.61,0,0,1,.83-1.24l3.53-3.54.26-.22,3.3-3.3a6.54,6.54,0,0,0-1.53-.05,5.92,5.92,0,0,0-2,.56,6.1,6.1,0,0,0-1.77,1.24L1.83,21.28A6,6,0,0,0,.46,23.35,6.36,6.36,0,0,0,0,25.72a6.22,6.22,0,0,0,.46,2.35,6,6,0,0,0,1.37,2.06,6,6,0,0,0,2.06,1.38A6.48,6.48,0,0,0,6.25,32a6.48,6.48,0,0,0,2.36-.46,6,6,0,0,0,2.06-1.38l3.54-3.54A6.21,6.21,0,0,0,16,22.79,6,6,0,0,0,16,21.27l-3.29,3.29A2.85,2.85,0,0,1,12.44,24.82Z"/><path class="cls-1" d="M31.51,3.89a5.93,5.93,0,0,0-1.37-2.08A5.92,5.92,0,0,0,28.08.45a6.41,6.41,0,0,0-4.72,0,6,6,0,0,0-2.07,1.36L17.75,5.35a6.3,6.3,0,0,0-1.24,1.77,6.4,6.4,0,0,0-.56,2A6,6,0,0,0,16,10.67L19.3,7.38a2.75,2.75,0,0,1,.22-.26l3.54-3.54a3.79,3.79,0,0,1,1.25-.83,3.82,3.82,0,0,1,2.82,0,3.75,3.75,0,0,1,1.24.83,3.55,3.55,0,0,1,.83,1.25,3.69,3.69,0,0,1,0,2.82,3.61,3.61,0,0,1-.83,1.24l-3.54,3.54a2.75,2.75,0,0,1-.26.22L21.28,16a6,6,0,0,0,1.53.05,6.28,6.28,0,0,0,3.79-1.8l3.54-3.54A6,6,0,0,0,31.51,8.6,6.19,6.19,0,0,0,32,6.25,6.27,6.27,0,0,0,31.51,3.89Z"/><path class="cls-2" d="M8.86,21.36a1.18,1.18,0,0,0-.23.35,1.33,1.33,0,0,0-.08.45,1.23,1.23,0,0,0,.35.89,1.21,1.21,0,0,0,.89.36,1.13,1.13,0,0,0,.45-.09,1.16,1.16,0,0,0,.36-.23L23.1,10.58a1,1,0,0,0,.24-.35,1.33,1.33,0,0,0,.08-.45,1.21,1.21,0,0,0-.36-.89,1.19,1.19,0,0,0-.88-.36,1.14,1.14,0,0,0-.46.09,1.12,1.12,0,0,0-.35.23Z"/></g></g></g></svg>