<svg id="ArrowUp" xmlns="http://www.w3.org/2000/svg" viewBox="0 0 32 32"><defs><style>.cls-1{fill:#c2c2c2;}.cls-2{fill:#0078d4;}</style></defs><title>HyperlinkLink-blue</title><path class="cls-1" d="M12.52,24.84,9,28.39a3.75,3.75,0,0,1-1.24.83,3.84,3.84,0,0,1-2.83,0,3.75,3.75,0,0,1-1.24-.83,3.75,3.75,0,0,1,0-5.32L7.2,19.53a2.75,2.75,0,0,1,.26-.22l3.3-3.3A6.54,6.54,0,0,0,9.23,16a6.4,6.4,0,0,0-2,.56,6.19,6.19,0,0,0-1.77,1.25L1.89,21.3A5.93,5.93,0,0,0,.52,23.38a6.28,6.28,0,0,0,0,4.72,6,6,0,0,0,1.37,2.06A6,6,0,0,0,4,31.54,6.52,6.52,0,0,0,6.31,32a6.24,6.24,0,0,0,2.36-.46,6.06,6.06,0,0,0,2.07-1.38l3.55-3.54a6.2,6.2,0,0,0,1.24-1.78,6.1,6.1,0,0,0,.56-2A6.54,6.54,0,0,0,16,21.29l-3.3,3.3C12.66,24.67,12.6,24.76,12.52,24.84Z"/><path class="cls-1" d="M31.6,3.89A6.14,6.14,0,0,0,28.16.45a6.41,6.41,0,0,0-4.72,0,6,6,0,0,0-2.07,1.36L17.83,5.36a6.06,6.06,0,0,0-1.25,1.77,6.33,6.33,0,0,0-.56,2,6.48,6.48,0,0,0,.06,1.52l3.3-3.29a2.75,2.75,0,0,1,.22-.26l3.55-3.55a3.77,3.77,0,0,1,4.06-.83,3.85,3.85,0,0,1,1.25.83,3.79,3.79,0,0,1,1.11,2.66,3.66,3.66,0,0,1-.28,1.41,3.55,3.55,0,0,1-.83,1.25l-3.54,3.54-.26.23L21.36,16a6,6,0,0,0,1.53.06,6.4,6.4,0,0,0,2-.56,6.14,6.14,0,0,0,1.77-1.25l3.54-3.54A6,6,0,0,0,31.6,8.61a6.22,6.22,0,0,0,.46-2.35A6.29,6.29,0,0,0,31.6,3.89Z"/><path class="cls-2" d="M8.93,21.38a1.32,1.32,0,0,0-.23.35,1.14,1.14,0,0,0-.09.46,1.19,1.19,0,0,0,.36.88,1.21,1.21,0,0,0,.89.36,1.33,1.33,0,0,0,.45-.08,1.19,1.19,0,0,0,.36-.24L23.19,10.59a1.18,1.18,0,0,0,.23-.35,1.12,1.12,0,0,0,.08-.45,1.15,1.15,0,0,0-.35-.89,1.21,1.21,0,0,0-.89-.36,1.34,1.34,0,0,0-.46.08,1.15,1.15,0,0,0-.35.24Z"/></svg>