<svg xmlns="http://www.w3.org/2000/svg" viewBox="0 0 32 36.79"><defs><style>.cls-1{fill:#c2c2c2;}.cls-2{fill:#fff;}.cls-3{fill:#d83b01;}.cls-4{fill:#2f2f2f;}</style></defs><title>import_email</title><g id="Layer_2" data-name="Layer 2"><g id="SYMBOLS"><g id="import_email"><path class="cls-1" d="M30.25,19.93,16,27.06,1.75,19.93,0,19.06V36.79H32V19.06Z"/><polygon class="cls-2" points="31.99 19.05 31.99 19.06 32 19.05 31.99 19.05"/><rect x="31.99" y="19.05" width="0.01"/><polygon class="cls-2" points="0 19.05 0.01 19.06 0.01 19.05 0 19.05"/><polygon points="0.01 19.05 0 19.05 0.01 19.06 0.01 19.05 0.01 19.05"/><polygon class="cls-1" points="16 24.82 30.25 17.68 31.99 16.81 31.99 16.8 18.54 16.82 18.54 21.64 13.52 21.62 13.52 16.8 0.01 16.8 0.01 16.81 1.75 17.68 16 24.82"/><rect class="cls-3" x="12.66" width="6.68" height="6.68"/><polygon class="cls-4" points="17.03 13.29 17.03 20.07 14.97 20.07 14.97 13.29 12.6 15.64 11.15 14.19 16 9.35 20.84 14.19 19.4 15.64 17.03 13.29"/></g></g></g></svg>