<svg id="ArrowUp" xmlns="http://www.w3.org/2000/svg" viewBox="0 0 32 32"><defs><style>.cls-1{fill:#c2c2c2;}.cls-2{fill:#0078d4;}</style></defs><title>InstantMessage1-blue</title><path class="cls-1" d="M0,23.29H4v7.42l7.42-7.42H32v-22H0ZM22.06,11a1.93,1.93,0,0,1,.42-.63,2.12,2.12,0,0,1,.64-.43,2,2,0,0,1,1.56,0,2,2,0,0,1,.63.43,1.81,1.81,0,0,1,.43.63,2,2,0,0,1,0,1.57,1.81,1.81,0,0,1-.43.63,2.13,2.13,0,0,1-.63.43,2.1,2.1,0,0,1-1.56,0,2.32,2.32,0,0,1-.64-.43,1.93,1.93,0,0,1-.42-.63,2,2,0,0,1,0-1.57Zm-8,0a1.93,1.93,0,0,1,.42-.63,2.12,2.12,0,0,1,.64-.43,2,2,0,0,1,1.56,0,2,2,0,0,1,.63.43,1.81,1.81,0,0,1,.43.63,2,2,0,0,1,0,1.57,1.81,1.81,0,0,1-.43.63,2.13,2.13,0,0,1-.63.43,2.1,2.1,0,0,1-1.56,0,2.32,2.32,0,0,1-.64-.43,1.93,1.93,0,0,1-.42-.63,2,2,0,0,1,0-1.57Zm-8,0a1.93,1.93,0,0,1,.42-.63A2.12,2.12,0,0,1,7.12,10a2,2,0,0,1,1.56,0,2,2,0,0,1,.63.43,1.81,1.81,0,0,1,.43.63,2,2,0,0,1,0,1.57,1.81,1.81,0,0,1-.43.63,2.13,2.13,0,0,1-.63.43,2.1,2.1,0,0,1-1.56,0,2.32,2.32,0,0,1-.64-.43,1.93,1.93,0,0,1-.42-.63,2,2,0,0,1,0-1.57Z"/><path class="cls-2" d="M6.48,13.24a2.32,2.32,0,0,0,.64.43,2.1,2.1,0,0,0,1.56,0,2.13,2.13,0,0,0,.63-.43,1.81,1.81,0,0,0,.43-.63,2,2,0,0,0,0-1.57,1.81,1.81,0,0,0-.43-.63A2,2,0,0,0,8.68,10a2,2,0,0,0-1.56,0,2.12,2.12,0,0,0-.64.43,1.93,1.93,0,0,0-.42.63,2,2,0,0,0,0,1.57A1.93,1.93,0,0,0,6.48,13.24Z"/><path class="cls-2" d="M14.48,13.24a2.32,2.32,0,0,0,.64.43,2.1,2.1,0,0,0,1.56,0,2.13,2.13,0,0,0,.63-.43,1.81,1.81,0,0,0,.43-.63,2,2,0,0,0,0-1.57,1.81,1.81,0,0,0-.43-.63,2,2,0,0,0-.63-.43,2,2,0,0,0-1.56,0,2.12,2.12,0,0,0-.64.43,1.93,1.93,0,0,0-.42.63,2,2,0,0,0,0,1.57A1.93,1.93,0,0,0,14.48,13.24Z"/><path class="cls-2" d="M22.48,13.24a2.32,2.32,0,0,0,.64.43,2.1,2.1,0,0,0,1.56,0,2.13,2.13,0,0,0,.63-.43,1.81,1.81,0,0,0,.43-.63,2,2,0,0,0,0-1.57,1.81,1.81,0,0,0-.43-.63,2,2,0,0,0-.63-.43,2,2,0,0,0-1.56,0,2.12,2.12,0,0,0-.64.43,1.93,1.93,0,0,0-.42.63,2,2,0,0,0,0,1.57A1.93,1.93,0,0,0,22.48,13.24Z"/></svg>