<svg xmlns="http://www.w3.org/2000/svg" viewBox="0 0 32 29.42"><defs><style>.cls-1{fill:#c2c2c2;}.cls-2{fill:#d83b01;}</style></defs><title>instant_message_1 (2)</title><g id="Layer_2" data-name="Layer 2"><g id="SYMBOLS"><g id="instant_message_1"><path class="cls-1" d="M0,0V22H4v7.42L11.42,22H32V0ZM9.74,11.32a1.81,1.81,0,0,1-.43.63,2.13,2.13,0,0,1-.63.43,2,2,0,0,1-1.56,0A2.32,2.32,0,0,1,6.48,12a1.93,1.93,0,0,1-.42-.63,2,2,0,0,1,0-1.57,1.93,1.93,0,0,1,.42-.63,2.32,2.32,0,0,1,.64-.43,2.1,2.1,0,0,1,1.56,0,2.13,2.13,0,0,1,.63.43,1.81,1.81,0,0,1,.43.63,2,2,0,0,1,0,1.57Zm8,0a1.81,1.81,0,0,1-.43.63,2.13,2.13,0,0,1-.63.43,2,2,0,0,1-1.56,0,2.32,2.32,0,0,1-.64-.43,1.93,1.93,0,0,1-.42-.63,2,2,0,0,1,0-1.57,1.93,1.93,0,0,1,.42-.63,2.32,2.32,0,0,1,.64-.43,2.1,2.1,0,0,1,1.56,0,2.13,2.13,0,0,1,.63.43,1.81,1.81,0,0,1,.43.63,2,2,0,0,1,0,1.57Zm8,0a1.81,1.81,0,0,1-.43.63,2.13,2.13,0,0,1-.63.43,2,2,0,0,1-1.56,0,2.32,2.32,0,0,1-.64-.43,1.93,1.93,0,0,1-.42-.63,2,2,0,0,1,0-1.57,1.93,1.93,0,0,1,.42-.63,2.32,2.32,0,0,1,.64-.43,2.1,2.1,0,0,1,1.56,0,2.13,2.13,0,0,1,.63.43,1.81,1.81,0,0,1,.43.63,2,2,0,0,1,0,1.57Z"/><path class="cls-2" d="M9.31,9.12a2.13,2.13,0,0,0-.63-.43,2.1,2.1,0,0,0-1.56,0,2.32,2.32,0,0,0-.64.43,1.93,1.93,0,0,0-.42.63,2,2,0,0,0,0,1.57,1.93,1.93,0,0,0,.42.63,2.32,2.32,0,0,0,.64.43,2,2,0,0,0,1.56,0A2.13,2.13,0,0,0,9.31,12a1.81,1.81,0,0,0,.43-.63,2,2,0,0,0,0-1.57A1.81,1.81,0,0,0,9.31,9.12Z"/><path class="cls-2" d="M17.31,9.12a2.13,2.13,0,0,0-.63-.43,2.1,2.1,0,0,0-1.56,0,2.32,2.32,0,0,0-.64.43,1.93,1.93,0,0,0-.42.63,2,2,0,0,0,0,1.57,1.93,1.93,0,0,0,.42.63,2.32,2.32,0,0,0,.64.43,2,2,0,0,0,1.56,0,2.13,2.13,0,0,0,.63-.43,1.81,1.81,0,0,0,.43-.63,2,2,0,0,0,0-1.57A1.81,1.81,0,0,0,17.31,9.12Z"/><path class="cls-2" d="M25.31,9.12a2.13,2.13,0,0,0-.63-.43,2.1,2.1,0,0,0-1.56,0,2.32,2.32,0,0,0-.64.43,1.93,1.93,0,0,0-.42.63,2,2,0,0,0,0,1.57,1.93,1.93,0,0,0,.42.63,2.32,2.32,0,0,0,.64.43,2,2,0,0,0,1.56,0,2.13,2.13,0,0,0,.63-.43,1.81,1.81,0,0,0,.43-.63,2,2,0,0,0,0-1.57A1.81,1.81,0,0,0,25.31,9.12Z"/></g></g></g></svg>