<svg id="ArrowUp" xmlns="http://www.w3.org/2000/svg" viewBox="0 0 32 32"><defs><style>.cls-1{fill:#c2c2c2;}.cls-2{fill:#0078d4;}</style></defs><title>InstantMessage2-blue</title><path class="cls-1" d="M0,23.29H4v7.42l7.42-7.42H32v-22H0Zm18-14h4v4a1.85,1.85,0,0,1-.16.78,2.06,2.06,0,0,1-1.06,1.06,1.85,1.85,0,0,1-.78.16v-2H18Zm-8,0h4v4a1.85,1.85,0,0,1-.16.78,2.06,2.06,0,0,1-1.06,1.06,1.85,1.85,0,0,1-.78.16v-2H10Z"/><path class="cls-2" d="M12,15.29a1.85,1.85,0,0,0,.78-.16,2.06,2.06,0,0,0,1.06-1.06,1.85,1.85,0,0,0,.16-.78v-4H10v4h2Z"/><path class="cls-2" d="M20,15.29a1.85,1.85,0,0,0,.78-.16,2.06,2.06,0,0,0,1.06-1.06,1.85,1.85,0,0,0,.16-.78v-4H18v4h2Z"/></svg>