<svg xmlns="http://www.w3.org/2000/svg" viewBox="0 0 32 29.42"><defs><style>.cls-1{fill:#c2c2c2;}.cls-2{fill:#d83b01;}</style></defs><title>instant_message_1</title><g id="Layer_2" data-name="Layer 2"><g id="SYMBOLS"><g id="instant_message_1"><path class="cls-1" d="M0,0V22H4v7.42L11.42,22H32V0ZM14,12a1.85,1.85,0,0,1-.16.78,2.06,2.06,0,0,1-1.06,1.06A1.85,1.85,0,0,1,12,14V12H10V8h4Zm8,0a1.85,1.85,0,0,1-.16.78,2.06,2.06,0,0,1-1.06,1.06A1.85,1.85,0,0,1,20,14V12H18V8h4Z"/><path class="cls-2" d="M10,12h2v2a1.85,1.85,0,0,0,.78-.16,2.06,2.06,0,0,0,1.06-1.06A1.85,1.85,0,0,0,14,12V8H10Z"/><path class="cls-2" d="M18,12h2v2a1.85,1.85,0,0,0,.78-.16,2.06,2.06,0,0,0,1.06-1.06A1.85,1.85,0,0,0,22,12V8H18Z"/></g></g></g></svg>