<svg xmlns="http://www.w3.org/2000/svg" viewBox="0 0 31.97 24.08"><defs><style>.cls-1{fill:#939393;}.cls-2{fill:#c2c2c2;}</style></defs><title>messages_queued</title><g id="Layer_2" data-name="Layer 2"><g id="SYMBOLS"><g id="messages_queued"><polygon class="cls-1" points="0 0 21.97 0 21.97 3.54 3.48 3.53 3.5 13.73 0 13.73 0 0"/><polygon class="cls-1" points="5.09 5.26 27.06 5.26 27.06 8.8 8.58 8.79 8.6 18.98 5.09 18.98 5.09 5.26"/><path class="cls-2" d="M21,17.4l-9.79-4.9L10,11.9V24.08H32V11.9l-1.19.6Z"/><polygon class="cls-1" points="31.96 11.89 31.96 11.9 31.97 11.89 31.96 11.89"/><polygon class="cls-1" points="9.98 11.89 9.99 11.9 9.99 11.89 9.98 11.89"/><polygon class="cls-2" points="20.97 15.85 30.77 10.95 31.96 10.35 31.96 10.35 9.99 10.35 9.99 10.35 11.18 10.95 20.97 15.85"/></g></g></g></svg>