<svg xmlns="http://www.w3.org/2000/svg" viewBox="0 0 31.97 20.5"><defs><style>.cls-1{fill:#c2c2c2;}.cls-2{fill:#d2d2d2;}.cls-3{fill:#2f2f2f;}.cls-4{fill:#d83b01;}</style></defs><title>move_requested</title><g id="Layer_2" data-name="Layer 2"><g id="SYMBOLS"><g id="move_requested"><path class="cls-1" d="M14,7.23,4,2.2,2.77,1.59V9.86l0,2.73h19V10.24H25.3V1.59l-1.23.61Z"/><polygon class="cls-2" points="25.3 1.58 25.3 1.59 25.3 1.58 25.3 1.58"/><polygon class="cls-2" points="2.76 1.58 2.77 1.59 2.77 1.58 2.76 1.58"/><polygon class="cls-1" points="14.03 5.64 24.07 0.62 25.3 0.01 25.3 0 2.77 0 2.77 0.01 3.99 0.62 14.03 5.64"/><polygon class="cls-3" points="0 12.12 0 20.5 18.26 20.5 27.58 20.5 27.58 18.61 24.17 14.84 21.75 14.84 21.75 12.59 2.77 12.54 2.77 11.05 0 12.12"/><polygon class="cls-4" points="27.82 8.53 26.63 9.71 27.82 10.91 28.63 11.72 27.82 11.72 23.19 11.72 23.19 13.47 27.82 13.47 28.63 13.47 27.82 14.28 26.63 15.47 27.82 16.66 27.86 16.7 31.97 12.59 27.86 8.49 27.82 8.53"/></g></g></g></svg>