<svg xmlns="http://www.w3.org/2000/svg" viewBox="0 0 31.97 31.67"><defs><style>.cls-1{fill:#2f2f2f;}.cls-2{fill:#c2c2c2;}</style></defs><title>offline_address_book</title><g id="Layer_2" data-name="Layer 2"><g id="SYMBOLS"><g id="offline_address_book"><path class="cls-1" d="M32,27.82v-12a.63.63,0,0,0-.63-.63H11.54a.63.63,0,0,0-.63.63v12a.63.63,0,0,0,.63.63h9v1.89H17.34v1.33h8V30.34H22.17V28.45h9.17A.63.63,0,0,0,32,27.82Z"/><g id="Artwork_215" data-name="Artwork 215"><path class="cls-2" d="M20.28,0H1.93a1.59,1.59,0,0,0-.69.17A2.44,2.44,0,0,0,.17,1.24,1.59,1.59,0,0,0,0,1.93V21.75a3.87,3.87,0,0,1,1.93-.51H9.19s0-5.85,0-6.21c0-.94.5-1.5,1.3-1.5h10V10.72h2.07V6.61l-2.26,0V4.77h2.26V.82H20.28ZM9.18,23.17H1.93a1.87,1.87,0,0,0-1.36.57A1.87,1.87,0,0,0,0,25.1a1.91,1.91,0,0,0,.15.76,2,2,0,0,0,.42.61,2,2,0,0,0,.61.41,1.86,1.86,0,0,0,.75.15H9.18Z"/></g></g></g></g></svg>