<svg xmlns="http://www.w3.org/2000/svg" viewBox="0 0 31.97 20.13"><defs><style>.cls-1{fill:#c2c2c2;}.cls-2{fill:#d2d2d2;}.cls-3{fill:#2f2f2f;}.cls-4{fill:#d83b01;}</style></defs><title>personal_archive_mailbox</title><g id="Layer_2" data-name="Layer 2"><g id="SYMBOLS"><g id="personal_archive_mailbox"><path class="cls-1" d="M13.74,7.1,3.88,2.16l-1.2-.6V9.68l0,2.69H16.33V7l8.48,0V1.56l-1.2.6Z"/><polygon class="cls-2" points="24.84 1.55 24.84 1.56 24.85 1.55 24.84 1.55"/><polygon class="cls-2" points="2.71 1.55 2.72 1.56 2.72 1.55 2.71 1.55"/><polygon class="cls-1" points="13.78 5.54 23.64 0.6 24.84 0 24.84 0 2.72 0 2.72 0 3.92 0.6 13.78 5.54"/><polygon class="cls-3" points="0 11.91 0 20.13 16.33 20.13 16.33 12.37 2.72 12.31 2.72 10.85 0 11.91"/><g id="Artwork_247" data-name="Artwork 247"><path class="cls-4" d="M17.73,20.13V10.47h6.36l1-1H32V20.13Z"/></g><polygon class="cls-4" points="23.68 9.36 17.73 9.36 17.73 8.39 23.68 8.39 24.17 8.87 23.68 9.36"/></g></g></g></svg>