<svg xmlns="http://www.w3.org/2000/svg" viewBox="0 0 31.97 37.3"><defs><style>.cls-1{fill:#c2c2c2;}.cls-2{fill:#d83b01;}</style></defs><title>phone_book_contacts</title><g id="Layer_2" data-name="Layer 2"><g id="SYMBOLS"><g id="phone_book_contacts"><path class="cls-1" d="M2.66,0a2.09,2.09,0,0,0-1,.24A3.14,3.14,0,0,0,.24,1.71a2.12,2.12,0,0,0-.24,1V32.2A4,4,0,0,1,1.33,32H32V0ZM26.45,24.27l-1,1a5.44,5.44,0,0,1-.86.75,3.38,3.38,0,0,1-1,.46,4.93,4.93,0,0,1-1.38.16,9.78,9.78,0,0,1-3.64-.76,19.74,19.74,0,0,1-3.79-2,25.45,25.45,0,0,1-3.59-3,25.65,25.65,0,0,1-3-3.56A18.79,18.79,0,0,1,6.1,13.49a10,10,0,0,1-.77-3.73,5.38,5.38,0,0,1,.15-1.38,3.66,3.66,0,0,1,.46-1,5.4,5.4,0,0,1,.75-.88c.3-.28.64-.61,1-1a.59.59,0,0,1,.44-.19.87.87,0,0,1,.39.22,8.27,8.27,0,0,1,.67.55c.25.22.51.47.77.74l.74.78a8.62,8.62,0,0,1,.56.67,1,1,0,0,1,.22.41,1,1,0,0,1-.4.69c-.26.23-.55.51-.86.82a6,6,0,0,0-.86,1.09A2.73,2.73,0,0,0,9,12.82a3.19,3.19,0,0,0,1,2.33L16.82,22a3.16,3.16,0,0,0,1.07.72,3.29,3.29,0,0,0,1.26.24,2.9,2.9,0,0,0,1.53-.39,5.56,5.56,0,0,0,1.09-.85c.3-.31.58-.6.81-.87a1,1,0,0,1,.69-.39.87.87,0,0,1,.39.22,8.27,8.27,0,0,1,.67.55c.25.22.51.47.78.74s.52.53.75.78a5.85,5.85,0,0,1,.56.68.93.93,0,0,1,.22.4Z"/><path class="cls-1" d="M.4,35A1.24,1.24,0,0,0,0,36a1.26,1.26,0,0,0,.4.94,1.28,1.28,0,0,0,.93.4H32V34.63H1.33A1.24,1.24,0,0,0,.4,35Z"/><path class="cls-2" d="M25.86,22.77q-.34-.37-.75-.78c-.27-.27-.53-.52-.78-.74a8.27,8.27,0,0,0-.67-.55.87.87,0,0,0-.39-.22,1,1,0,0,0-.69.39c-.23.27-.51.56-.81.87a5.56,5.56,0,0,1-1.09.85,2.9,2.9,0,0,1-1.53.39,3.29,3.29,0,0,1-1.26-.24A3.16,3.16,0,0,1,16.82,22L10,15.15a3.19,3.19,0,0,1-1-2.33,2.73,2.73,0,0,1,.4-1.52,6,6,0,0,1,.86-1.09c.31-.31.6-.59.86-.82a1,1,0,0,0,.4-.69,1,1,0,0,0-.22-.41,8.62,8.62,0,0,0-.56-.67L10,6.84c-.26-.27-.52-.52-.77-.74a8.27,8.27,0,0,0-.67-.55.87.87,0,0,0-.39-.22.59.59,0,0,0-.44.19c-.37.37-.71.7-1,1a5.4,5.4,0,0,0-.75.88,3.66,3.66,0,0,0-.46,1,5.38,5.38,0,0,0-.15,1.38,10,10,0,0,0,.77,3.73A18.79,18.79,0,0,0,8.18,17.3a25.65,25.65,0,0,0,3,3.56,25.45,25.45,0,0,0,3.59,3,19.74,19.74,0,0,0,3.79,2,9.78,9.78,0,0,0,3.64.76,4.93,4.93,0,0,0,1.38-.16,3.38,3.38,0,0,0,1-.46,5.44,5.44,0,0,0,.86-.75l1-1,.19-.42a.93.93,0,0,0-.22-.4A5.85,5.85,0,0,0,25.86,22.77Z"/></g></g></g></svg>