<svg id="ArrowUp" xmlns="http://www.w3.org/2000/svg" viewBox="0 0 32 32"><defs><style>.cls-1{fill:#c2c2c2;}.cls-2{fill:#0078d4;}</style></defs><title>PhoneBookContacts-blue</title><g id="phone_book_contacts"><path class="cls-1" d="M4.57,0a1.78,1.78,0,0,0-.82.21A2.7,2.7,0,0,0,3,.73a2.9,2.9,0,0,0-.53.73,1.81,1.81,0,0,0-.2.83V27.63a3.34,3.34,0,0,1,1.14-.2H29.71V0ZM25,20.82l-.84.86a4.84,4.84,0,0,1-.74.64,2.72,2.72,0,0,1-.86.4,4.33,4.33,0,0,1-1.18.14,8.6,8.6,0,0,1-3.13-.65A17.19,17.19,0,0,1,15,20.46,22.85,22.85,0,0,1,11.9,17.9a22.43,22.43,0,0,1-2.6-3.06,15.9,15.9,0,0,1-1.78-3.27,8.64,8.64,0,0,1-.66-3.19A4.4,4.4,0,0,1,7,7.19a3.06,3.06,0,0,1,.39-.86A4.47,4.47,0,0,1,8,5.58l.86-.85a.55.55,0,0,1,.38-.16.78.78,0,0,1,.34.19c.16.12.35.28.57.47s.43.4.66.64.44.45.63.67a5.61,5.61,0,0,1,.49.58.9.9,0,0,1,.18.34.8.8,0,0,1-.34.59c-.22.21-.47.44-.74.71a5.49,5.49,0,0,0-.74.94A2.33,2.33,0,0,0,10,11a2.74,2.74,0,0,0,.84,2l5.89,5.89a2.77,2.77,0,0,0,.92.62,2.8,2.8,0,0,0,1.08.2A2.51,2.51,0,0,0,20,19.38a4.62,4.62,0,0,0,.93-.73c.27-.27.5-.51.7-.74a.82.82,0,0,1,.59-.34.78.78,0,0,1,.34.19,6.34,6.34,0,0,1,.57.47c.21.19.44.4.67.64s.45.45.64.67a5.61,5.61,0,0,1,.49.58.9.9,0,0,1,.18.34Z"/><path class="cls-1" d="M2.62,30.05a1.13,1.13,0,0,0-.33.81A1.14,1.14,0,0,0,3.43,32H29.71V29.71H3.43A1.14,1.14,0,0,0,2.62,30.05Z"/><path class="cls-2" d="M24.47,19.54c-.19-.22-.41-.44-.64-.67s-.46-.45-.67-.64a6.34,6.34,0,0,0-.57-.47.78.78,0,0,0-.34-.19.82.82,0,0,0-.59.34c-.2.23-.43.47-.7.74a4.62,4.62,0,0,1-.93.73,2.51,2.51,0,0,1-1.32.33,2.8,2.8,0,0,1-1.08-.2,2.77,2.77,0,0,1-.92-.62L10.82,13A2.74,2.74,0,0,1,10,11a2.33,2.33,0,0,1,.34-1.3,5.49,5.49,0,0,1,.74-.94c.27-.27.52-.5.74-.71a.8.8,0,0,0,.34-.59A.9.9,0,0,0,12,7.12a5.61,5.61,0,0,0-.49-.58c-.19-.22-.4-.44-.63-.67s-.45-.45-.66-.64-.41-.35-.57-.47a.78.78,0,0,0-.34-.19.55.55,0,0,0-.38.16L8,5.58a4.47,4.47,0,0,0-.65.75A3.06,3.06,0,0,0,7,7.19a4.4,4.4,0,0,0-.13,1.19,8.64,8.64,0,0,0,.66,3.19A15.9,15.9,0,0,0,9.3,14.84a22.43,22.43,0,0,0,2.6,3.06A22.85,22.85,0,0,0,15,20.46a17.19,17.19,0,0,0,3.25,1.75,8.6,8.6,0,0,0,3.13.65,4.33,4.33,0,0,0,1.18-.14,2.72,2.72,0,0,0,.86-.4,4.84,4.84,0,0,0,.74-.64l.84-.86.16-.36a.9.9,0,0,0-.18-.34A5.61,5.61,0,0,0,24.47,19.54Z"/></g></svg>