<svg xmlns="http://www.w3.org/2000/svg" viewBox="0 0 31.97 26.71"><defs><style>.cls-1{fill:#939393;}.cls-2{fill:#c2c2c2;}.cls-3{fill:#d2d2d2;}.cls-4{fill:#d83b01;}.cls-5{fill:#2f2f2f;}</style></defs><title>queue_viewer</title><g id="Layer_2" data-name="Layer 2"><g id="SYMBOLS"><g id="queue_viewer"><polygon class="cls-1" points="0 0 19.56 0 19.56 3.15 3.1 3.15 3.12 12.22 0 12.22 0 0"/><polygon class="cls-1" points="4.54 4.68 24.1 4.68 24.1 7.83 7.64 7.83 7.66 16.91 4.54 16.91 4.54 4.68"/><path class="cls-2" d="M18.68,15.49,10,11.13,8.9,10.6V21.44h13l1-.93s-1.75-3.33.67-5.86a5.84,5.84,0,0,1,4.88-1.49V10.6l-1.06.53Z"/><polygon class="cls-3" points="28.46 10.59 28.46 10.6 28.47 10.59 28.46 10.59"/><polygon class="cls-3" points="8.89 10.59 8.89 10.6 8.89 10.59 8.89 10.59"/><polygon class="cls-2" points="18.68 14.12 27.4 9.75 28.46 9.22 28.46 9.22 8.89 9.22 8.89 9.22 9.96 9.75 18.68 14.12"/><path class="cls-4" d="M25.25,21.87l-4.73,4.72a.37.37,0,0,1-.27.12c-.11,0-.43-.28-.51-.36a.6.6,0,0,1-.18-.33.37.37,0,0,1,.12-.27L24.39,21A4.87,4.87,0,0,0,25.25,21.87Z"/><path class="cls-5" d="M27.71,14.12A4.26,4.26,0,1,0,32,18.38,4.26,4.26,0,0,0,27.71,14.12Zm0,7a2.72,2.72,0,1,1,2.72-2.72A2.72,2.72,0,0,1,27.71,21.1Z"/></g></g></g></svg>