<svg xmlns="http://www.w3.org/2000/svg" viewBox="0 0 31.97 25.31"><defs><style>.cls-1{fill:#c2c2c2;}.cls-2{fill:#d2d2d2;}.cls-3{fill:#2f2f2f;}.cls-4{fill:#d83b01;}</style></defs><title>remote_mailbox</title><g id="Layer_2" data-name="Layer 2"><g id="SYMBOLS"><g id="remote_mailbox"><path class="cls-1" d="M14.48,7.46,4.12,2.27,2.86,1.64v8.53l0,2.82h11.7c3.09-6.68,10.73-5.83,11.53-5.27V1.64l-1.26.63Z"/><polygon class="cls-2" points="26.1 1.63 26.1 1.64 26.11 1.63 26.1 1.63"/><polygon class="cls-2" points="2.85 1.63 2.86 1.64 2.86 1.63 2.85 1.63"/><polygon class="cls-1" points="14.48 5.82 24.84 0.64 26.1 0.01 26.1 0 2.86 0 2.86 0.01 4.12 0.64 14.48 5.82"/><path class="cls-3" d="M0,12.51v8.64H14.82c-2-3.7-.24-8.16-.24-8.16L2.86,12.93V11.4Z"/><g id="_Group_" data-name="&lt;Group&gt;"><path class="cls-4" d="M26.8,20.51H20.34c0,.24.12.53.21.86a10.46,10.46,0,0,0,.35,1,8.21,8.21,0,0,0,.47,1.05,5.24,5.24,0,0,0,.61.94,3.21,3.21,0,0,0,.73.66,1.55,1.55,0,0,0,1.72,0,3.21,3.21,0,0,0,.73-.66,5.24,5.24,0,0,0,.61-.94,9.88,9.88,0,0,0,.47-1.05c.14-.36.25-.7.35-1S26.75,20.75,26.8,20.51Z"/><path class="cls-4" d="M28.22,14.51c.05.4.09.8.11,1.19s0,.8,0,1.21,0,.8,0,1.2-.06.8-.11,1.2h3.4a8.4,8.4,0,0,0,0-4.8Z"/><path class="cls-4" d="M27.41,11c.14.38.26.75.36,1.13s.19.76.26,1.14h3.12a7.64,7.64,0,0,0-.86-1.43,8.75,8.75,0,0,0-1.12-1.23,9.51,9.51,0,0,0-1.35-1,7.86,7.86,0,0,0-1.5-.7,8.14,8.14,0,0,1,.6,1A8.73,8.73,0,0,1,27.41,11Z"/><path class="cls-4" d="M20.13,14.51c-.05.4-.09.8-.12,1.19s0,.8,0,1.21,0,.8,0,1.2.07.8.12,1.2H27q.07-.6.12-1.2c0-.4,0-.8,0-1.2s0-.81,0-1.21-.07-.79-.12-1.19Z"/><path class="cls-4" d="M21.37,10.36A4.82,4.82,0,0,1,22,9.43a3,3,0,0,1,.73-.67,1.6,1.6,0,0,1,1.72,0,3,3,0,0,1,.73.67,4.82,4.82,0,0,1,.61.93c.18.35.33.7.47,1.05s.25.7.35,1,.16.62.21.87H20.34c0-.25.12-.53.21-.87a10.46,10.46,0,0,1,.35-1A9.67,9.67,0,0,1,21.37,10.36Z"/><path class="cls-4" d="M16.85,11.88A8.75,8.75,0,0,1,18,10.65a10,10,0,0,1,1.34-1A7.94,7.94,0,0,1,20.82,9a8.2,8.2,0,0,0-.61,1A10.43,10.43,0,0,0,19.73,11c-.14.38-.26.75-.36,1.13s-.19.76-.26,1.14H16A7.15,7.15,0,0,1,16.85,11.88Z"/><path class="cls-4" d="M15.17,16.91a8.34,8.34,0,0,1,.35-2.4h3.4c-.05.4-.09.8-.11,1.19s0,.8,0,1.21,0,.8,0,1.2.06.8.11,1.2h-3.4A8.34,8.34,0,0,1,15.17,16.91Z"/><path class="cls-4" d="M19.31,24.14a8.52,8.52,0,0,1-1.34-1,9.26,9.26,0,0,1-1.12-1.22A7.75,7.75,0,0,1,16,20.51h3.12c.07.37.16.75.26,1.13a11.4,11.4,0,0,0,.36,1.13,10.43,10.43,0,0,0,.48,1.08,9.2,9.2,0,0,0,.61,1A8.65,8.65,0,0,1,19.31,24.14Z"/><path class="cls-4" d="M30.29,21.94a9.26,9.26,0,0,1-1.12,1.22,8.16,8.16,0,0,1-1.35,1,8.56,8.56,0,0,1-1.5.71,9.12,9.12,0,0,0,.6-1,8.73,8.73,0,0,0,.49-1.08,11.4,11.4,0,0,0,.36-1.13c.1-.38.19-.76.26-1.13h3.12A8.35,8.35,0,0,1,30.29,21.94Z"/></g></g></g></g></svg>