<svg xmlns="http://www.w3.org/2000/svg" viewBox="0 0 31.97 21.08"><defs><style>.cls-1{fill:#c2c2c2;}.cls-2{fill:#d2d2d2;}.cls-3{fill:#2f2f2f;}.cls-4{fill:#db4519;}</style></defs><title>shared_mailbox</title><g id="Layer_2" data-name="Layer 2"><g id="SYMBOLS"><g id="shared_mailbox"><path class="cls-1" d="M14.43,7.43,4.1,2.26,2.85,1.63v8.51l0,2.81H14.53l4.74,0A3.41,3.41,0,0,1,24,12.48l2-1.11,0-9.11V1.63l-1.26.63Z"/><polygon class="cls-2" points="26.02 1.63 26.02 1.63 26.03 1.63 26.02 1.63"/><polygon class="cls-2" points="2.84 1.63 2.85 1.63 2.85 1.63 2.84 1.63"/><polygon class="cls-1" points="14.43 5.8 24.76 0.63 26.02 0.01 26.02 0 2.85 0 2.85 0.01 4.1 0.63 14.43 5.8"/><path class="cls-3" d="M0,12.47v8.61H25.94V18.87L24,17.7a4,4,0,0,1-4.12-.08,3.57,3.57,0,0,1-.62-4.7l-16.42,0V11.37Z"/><path class="cls-3" d="M24.3,16.53l3.17,1.76a2.28,2.28,0,0,1,.49-.94l-3.12-1.74A2.72,2.72,0,0,1,24.3,16.53Z"/><path class="cls-3" d="M24.8,14.51l3-1.65a2.38,2.38,0,0,1-.47-1l-3,1.68A4.22,4.22,0,0,1,24.8,14.51Z"/><path class="cls-4" d="M22,13.16a1.89,1.89,0,1,0,1.89,1.89A1.89,1.89,0,0,0,22,13.16Z"/><path class="cls-4" d="M30.08,12.92A1.89,1.89,0,1,0,28.19,11,1.89,1.89,0,0,0,30.08,12.92Z"/><path class="cls-4" d="M30.08,17.3A1.89,1.89,0,1,0,32,19.19,1.89,1.89,0,0,0,30.08,17.3Z"/></g></g></g></svg>