<svg id="ArrowUp" xmlns="http://www.w3.org/2000/svg" viewBox="0 0 32 32"><defs><style>.cls-1{fill:none;}.cls-2{fill:#c2c2c2;}.cls-3{fill:#2f2f2f;}.cls-4{fill:#0078d4;}</style></defs><title>SkypeVideoCall-blue</title><path class="cls-1" d="M21.69,25.3A2,2,0,0,1,21,23.78a5.76,5.76,0,0,0-.7-.85,5.81,5.81,0,0,0-1.9-1.27,6.25,6.25,0,0,0-4.73,0,6.09,6.09,0,0,0-1.9,1.27,6.75,6.75,0,0,0-.8,1,1.94,1.94,0,0,1-.59,1.24A6.17,6.17,0,0,0,10,26.7H22A5.88,5.88,0,0,0,21.69,25.3ZM16,25.78a2,2,0,1,1,2-2A2,2,0,0,1,16,25.78Z"/><path class="cls-1" d="M13.18,18a4,4,0,0,0,1.27.86A3.68,3.68,0,0,0,16,19.2a3.74,3.74,0,0,0,1.55-.32A4,4,0,0,0,18.82,18a4.27,4.27,0,0,0,.86-1.26,3.91,3.91,0,0,0,0-3.1,4.24,4.24,0,0,0-.86-1.28,4.16,4.16,0,0,0-1.27-.85A3.75,3.75,0,0,0,16,11.2a3.69,3.69,0,0,0-1.55.33,4.16,4.16,0,0,0-1.27.85,4.24,4.24,0,0,0-.86,1.28,3.91,3.91,0,0,0,0,3.1A4.27,4.27,0,0,0,13.18,18Z"/><rect class="cls-1" x="22.36" y="7.67" width="7.19" height="7.19"/><path class="cls-2" d="M0,26.7H10a6.17,6.17,0,0,1,.31-1.49A2,2,0,1,1,11,23.78a1.11,1.11,0,0,1,0,.19,6.75,6.75,0,0,1,.8-1,6.09,6.09,0,0,1,1.9-1.27,6.25,6.25,0,0,1,4.73,0,5.81,5.81,0,0,1,1.9,1.27,5.76,5.76,0,0,1,.7.85h0a2,2,0,1,1,2,2,1.93,1.93,0,0,1-1.28-.48A5.88,5.88,0,0,1,22,26.7H32V5.3H0Zm22.36-19h7.19v7.19H22.36Zm-10,6a4.24,4.24,0,0,1,.86-1.28,4.16,4.16,0,0,1,1.27-.85A3.69,3.69,0,0,1,16,11.2a3.75,3.75,0,0,1,1.55.33,4.16,4.16,0,0,1,1.27.85,4.24,4.24,0,0,1,.86,1.28,3.91,3.91,0,0,1,0,3.1A4.27,4.27,0,0,1,18.82,18a4,4,0,0,1-1.27.86A3.74,3.74,0,0,1,16,19.2a3.68,3.68,0,0,1-1.55-.32A4,4,0,0,1,13.18,18a4.27,4.27,0,0,1-.86-1.26,3.91,3.91,0,0,1,0-3.1Z"/><polygon class="cls-3" points="10.04 26.7 0 26.7 0 29.7 32 29.7 32 26.7 21.96 26.7 10.04 26.7"/><rect class="cls-3" y="2.3" width="32" height="3"/><path class="cls-4" d="M11,23.78a2,2,0,1,0-.61,1.43A1.94,1.94,0,0,0,10.94,24,1.11,1.11,0,0,0,11,23.78Z"/><circle class="cls-2" cx="16" cy="23.78" r="2"/><path class="cls-3" d="M23,25.78a2,2,0,1,0-2-2h0a2,2,0,0,0,.72,1.52A1.93,1.93,0,0,0,23,25.78Z"/></svg>