<svg xmlns="http://www.w3.org/2000/svg" viewBox="0 0 31.97 27.37"><defs><style>.cls-1{fill:#c2c2c2;}.cls-2{fill:#2f2f2f;}.cls-3{fill:#d83b01;}</style></defs><title>skype_video_call</title><g id="Layer_2" data-name="Layer 2"><g id="SYMBOLS"><g id="skype_video_call"><path class="cls-1" d="M0,24.38H10a6.17,6.17,0,0,1,.31-1.49A2,2,0,1,1,11,21.46a1.23,1.23,0,0,1,0,.19,5.69,5.69,0,0,1,.8-1,6.09,6.09,0,0,1,1.9-1.27A5.94,5.94,0,0,1,16,18.88a6.19,6.19,0,0,1,2.38.46,5.88,5.88,0,0,1,1.89,1.27,5.76,5.76,0,0,1,.7.85h0a2,2,0,1,1,2,2A2,2,0,0,1,21.66,23a5.8,5.8,0,0,1,.28,1.4H32V3H0Zm22.34-19h7.18v7.18H22.34Zm-10,6a4.06,4.06,0,0,1,.86-1.28,4.24,4.24,0,0,1,1.26-.85A3.68,3.68,0,0,1,16,8.9a3.74,3.74,0,0,1,1.55.32,4.16,4.16,0,0,1,1.27.85,4.06,4.06,0,0,1,.86,1.28,3.89,3.89,0,0,1,0,3.09,4,4,0,0,1-.86,1.27,4.19,4.19,0,0,1-1.27.86,3.91,3.91,0,0,1-1.55.32,3.84,3.84,0,0,1-1.55-.32,4.27,4.27,0,0,1-1.26-.86,4,4,0,0,1-.86-1.27,3.89,3.89,0,0,1,0-3.09Z"/><polygon class="cls-2" points="21.94 24.38 10.03 24.38 0 24.38 0 27.37 31.97 27.37 31.97 24.38 21.94 24.38"/><rect class="cls-2" width="31.97" height="2.99"/><path class="cls-3" d="M9,19.46a2,2,0,1,0,2,2.19,1.23,1.23,0,0,0,0-.19A2,2,0,0,0,9,19.46Z"/><circle class="cls-1" cx="15.98" cy="21.46" r="2"/><path class="cls-2" d="M23,19.46a2,2,0,0,0-2,2h0A2,2,0,0,0,21.66,23a2,2,0,0,0,1.29.48,2,2,0,0,0,0-4Z"/></g></g></g></svg>