<svg xmlns="http://www.w3.org/2000/svg" viewBox="0 0 32 31.93"><defs><style>.cls-1{fill:#c2c2c2;}.cls-2{fill:#d2d2d2;}.cls-3{fill:#2f2f2f;}</style></defs><title>smtp_connector</title><g id="Layer_2" data-name="Layer 2"><g id="SYMBOLS"><g id="smtp_connector"><path class="cls-1" d="M16,10.26,1.75,3.12,0,2.25V20H32V2.25l-1.74.87Z"/><polygon class="cls-2" points="31.99 2.25 31.99 2.25 32 2.25 31.99 2.25"/><polygon class="cls-2" points="0 2.25 0.01 2.25 0.01 2.25 0 2.25"/><polygon class="cls-1" points="16 8.01 30.25 0.87 31.99 0.01 31.99 0 0.01 0 0.01 0.01 1.75 0.87 16 8.01"/><path class="cls-3" d="M31,27.93v2H23v2H9v-2H1v-2H9v-2h4v-2h2v-4h2v4h2v2h4v2Z"/></g></g></g></svg>