<svg xmlns="http://www.w3.org/2000/svg" viewBox="0 0 31.97 23.58"><defs><style>.cls-1{fill:#d2d2d2;}.cls-2{fill:#c2c2c2;}.cls-3{fill:#2f2f2f;}.cls-4{fill:#d83b01;}</style></defs><title>user_mailbox</title><g id="Layer_2" data-name="Layer 2"><g id="SYMBOLS"><g id="user_mailbox"><polygon class="cls-1" points="26.11 1.64 26.11 1.64 26.12 1.64 26.11 1.64"/><polygon class="cls-1" points="2.85 1.64 2.86 1.64 2.86 1.64 2.85 1.64"/><path class="cls-2" d="M14.48,7.46,4.12,2.27,2.86,1.64v8.54l0,2.82H20.56A5.9,5.9,0,0,1,22,9.2a5.76,5.76,0,0,1,4.15-1.56v-6l-1.26.63Z"/><polygon class="cls-2" points="14.48 5.83 24.85 0.64 26.11 0.01 26.11 0 2.86 0 2.86 0.01 4.12 0.64 14.48 5.83"/><path class="cls-3" d="M0,12.52v8.64H19a7.82,7.82,0,0,1,3.51-4A6.14,6.14,0,0,1,20.56,13l-17.7-.06V11.41Z"/><path class="cls-4" d="M26.12,16.79a3.91,3.91,0,0,0,0-7.81,4,4,0,0,0-1.62.36,3.9,3.9,0,0,0,1.62,7.45Z"/><path class="cls-4" d="M26.11,17.73a5.85,5.85,0,0,0-5.85,5.85H32A5.85,5.85,0,0,0,26.11,17.73Z"/></g></g></g></svg>