<svg xmlns="http://www.w3.org/2000/svg" viewBox="0 0 31.98 23.21"><defs><style>.cls-1{fill:#c2c2c2;}.cls-2{fill:#d83b01;}.cls-3{fill:#2f2f2f;}</style></defs><title>voicemail_preview</title><g id="Layer_2" data-name="Layer 2"><g id="SYMBOLS"><g id="voicemail_preview"><path class="cls-1" d="M27.52,7.24a7.58,7.58,0,0,1,2.71.84c0-.29.05-.9.05-1.2a6.89,6.89,0,0,0-13.77,0A6.82,6.82,0,0,0,17.92,11H12.35a6.76,6.76,0,0,0,1.41-4.13,6.88,6.88,0,1,0-6.88,6.88h13.8a4.6,4.6,0,0,1,.73-3.26,4.73,4.73,0,0,1-2.14-3.62,4.13,4.13,0,1,1,8.25,0M6.88,11A4.13,4.13,0,1,1,11,6.88,4.13,4.13,0,0,1,6.88,11Z"/><path class="cls-2" d="M24.12,17.56,18.6,23.08a.44.44,0,0,1-.32.13c-.12,0-.5-.32-.59-.41a.68.68,0,0,1-.21-.39.43.43,0,0,1,.14-.31l5.5-5.52A5.77,5.77,0,0,0,24.12,17.56Z"/><path class="cls-3" d="M27,8.5a5,5,0,1,0,5,5A5,5,0,0,0,27,8.5Zm0,8.16a3.18,3.18,0,1,1,3.18-3.18A3.19,3.19,0,0,1,27,16.66Z"/></g></g></g></svg>