<svg xmlns="http://www.w3.org/2000/svg" viewBox="0 0 32 19.25"><defs><style>.cls-1{fill:#0078d4;}</style></defs><title>ArrowRightAndUp</title><g id="Layer_2" data-name="Layer 2"><g id="ArrowUp"><path class="cls-1" d="M13.91,15.26H0v4H15.57l7.77-7.78,5.31-5.31,2,3.31A.67.67,0,0,0,31,9.8a.77.77,0,0,0,.45,0,.87.87,0,0,0,.38-.25A.67.67,0,0,0,32,9.09V.74a.74.74,0,0,0-.21-.53A.74.74,0,0,0,31.26,0H22.91a.67.67,0,0,0-.47.16.79.79,0,0,0-.25.38.77.77,0,0,0,0,.45.64.64,0,0,0,.32.37l3.31,2L20.52,8.65Z"/></g></g></svg>