<svg xmlns="http://www.w3.org/2000/svg" viewBox="0 0 31.33 32"><defs><style>.cls-1{fill:#c2c2c2;}.cls-2{fill:#0078d4;}</style></defs><title>CircularArrow</title><g id="Layer_2" data-name="Layer 2"><g id="ArrowUp"><path class="cls-1" d="M2,11c-.38.39-.71.75-1,1.07s-.53.6-.7.83a1.23,1.23,0,0,0-.27.44.82.82,0,0,0,.18.48.51.51,0,0,0,.43.25A3.65,3.65,0,0,0,1.07,14l.7-.15.82-.2.82-.22.73-.2.52-.13a14.76,14.76,0,0,0,.63,4.35A12.89,12.89,0,0,0,7.12,21.2a12.61,12.61,0,0,0,2.92,3,14.11,14.11,0,0,0,3.9,2,2.19,2.19,0,0,1,1,.73,1.94,1.94,0,0,1,.38,1.18V32h4V28.08a6,6,0,0,0-1.17-3.58,6.17,6.17,0,0,0-1.35-1.3,6.82,6.82,0,0,0-1.73-.86A8.64,8.64,0,0,1,12.41,21,9.25,9.25,0,0,1,9.1,16.27a9.8,9.8,0,0,1-.44-3v-.19l.86.23,1.22.32,1.18.28a4.34,4.34,0,0,0,.78.12.53.53,0,0,0,.45-.25.82.82,0,0,0,.18-.48,1.23,1.23,0,0,0-.27-.44c-.17-.23-.41-.5-.7-.83l-1-1.07L10.2,9.8C9.81,9.4,9.41,9,9,8.64l-1.08-1c-.32-.29-.6-.53-.83-.7a1.15,1.15,0,0,0-.45-.27c-.08,0-.22.09-.45.27s-.5.41-.83.7-.68.63-1.08,1L3.12,9.8Z"/><path class="cls-2" d="M31.33,13.33a12.91,12.91,0,0,0-.48-3.53,13.39,13.39,0,0,0-3.44-5.88,13.64,13.64,0,0,0-2.7-2.09A13.14,13.14,0,0,0,15.23.3a13.58,13.58,0,0,0-2.64.86,13.08,13.08,0,0,0-2.4,1.38A12.75,12.75,0,0,0,8.11,4.41l2.83,2.84a9.08,9.08,0,0,1,1.47-1.37,9.9,9.9,0,0,1,1.71-1A8.69,8.69,0,0,1,16,4.22,9,9,0,0,1,18,4a9.18,9.18,0,0,1,3.62.73,9.35,9.35,0,0,1,5,5,9.3,9.3,0,0,1,.17,6.84,9.43,9.43,0,0,1-4,4.8,8.56,8.56,0,0,1-3.06,1.14A7.19,7.19,0,0,1,21,24.16a8.3,8.3,0,0,1,.79,2,12.9,12.9,0,0,0,3.88-1.87,13.38,13.38,0,0,0,3-2.94,13.35,13.35,0,0,0,2.66-8Z"/></g></g></svg>