<svg xmlns="http://www.w3.org/2000/svg" viewBox="0 0 30.67 32"><defs><style>.cls-1{fill:#c2c2c2;}.cls-2{fill:#0078d4;}</style></defs><title>Follow2</title><g id="Layer_2" data-name="Layer 2"><g id="ArrowUp"><rect class="cls-1" y="1.33" width="4" height="30.67"/><rect class="cls-1" x="26.67" y="1.33" width="4" height="30.67"/><path class="cls-2" d="M17.33,32V6.44l3.75.94a.66.66,0,0,0,.5,0A.76.76,0,0,0,21.91,7,.81.81,0,0,0,22,6.59a.67.67,0,0,0-.22-.45L15.86.22a.74.74,0,0,0-1,0L8.89,6.14a.67.67,0,0,0-.22.45.74.74,0,0,0,.1.44.69.69,0,0,0,.32.31.63.63,0,0,0,.49,0l3.75-.94V32Z"/></g></g></svg>