<svg xmlns="http://www.w3.org/2000/svg" viewBox="0 0 14.66 32"><defs><style>.cls-1{fill:#c2c2c2;}</style></defs><title>Follow</title><g id="Layer_2" data-name="Layer 2"><g id="ArrowUp"><path class="cls-1" d="M4.05,7.82a20.38,20.38,0,0,0-1.65,2,12.82,12.82,0,0,0-1.28,2.22A12.68,12.68,0,0,0,.3,14.62a14.11,14.11,0,0,0-.3,3V32H4V17.64a9.15,9.15,0,0,1,.6-3.44,11.43,11.43,0,0,1,1.58-2.76A19.36,19.36,0,0,1,8.4,9c.83-.78,1.67-1.6,2.54-2.46l.31.56c.13.25.29.53.45.84s.35.62.54.94.39.62.58.88a3.81,3.81,0,0,0,.56.65.7.7,0,0,0,.48.25.8.8,0,0,0,.8-.79V.8a.78.78,0,0,0-.24-.57A.77.77,0,0,0,13.86,0H4.8a.81.81,0,0,0-.57.23A.81.81,0,0,0,4,.8a.77.77,0,0,0,.25.49,4,4,0,0,0,.64.55,9.62,9.62,0,0,0,.88.57q.48.3.93.54l.84.46.57.31L6,5.83C5.29,6.5,4.65,7.16,4.05,7.82Z"/></g></g></svg>