<svg xmlns="http://www.w3.org/2000/svg" viewBox="0 0 18 32"><defs><style>.cls-1{fill:#0078d4;}.cls-2{fill:#c2c2c2;}</style></defs><title>GoAround</title><g id="Layer_2" data-name="Layer 2"><g id="ArrowUp"><rect class="cls-1" x="10.67" y="17.33" width="1.33" height="5.34"/><path class="cls-2" d="M0,12V28H9.33v4h4V24H4V16h9.33V6.44l.46.11.73.2.86.23.84.21.67.15a1.71,1.71,0,0,0,.38.07.73.73,0,0,0,.52-.22A.74.74,0,0,0,18,6.66a.7.7,0,0,0-.22-.52L11.86.22a.74.74,0,0,0-1,0L4.89,6.14a.7.7,0,0,0-.22.52.74.74,0,0,0,.21.53.73.73,0,0,0,.53.22,1.83,1.83,0,0,0,.36-.07l.68-.15L7.29,7l.86-.23.73-.2.45-.11V12Z"/></g></g></svg>