<svg xmlns="http://www.w3.org/2000/svg" viewBox="0 0 32 19.33"><defs><style>.cls-1{fill:#0078d4;}.cls-2{fill:#c2c2c2;}</style></defs><title>Merge</title><g id="Layer_2" data-name="Layer 2"><g id="ArrowUp"><path class="cls-1" d="M10.39,7.47c.39-.38.78-.73,1.18-1.06a15.48,15.48,0,0,1,1.28-.92,15.07,15.07,0,0,1,1.51-.82H0v4H9.17C9.6,8.24,10,7.84,10.39,7.47Z"/><path class="cls-2" d="M31,5.39c-.29-.32-.62-.68-1-1.08s-.76-.79-1.16-1.19L27.68,2c-.39-.38-.75-.71-1.07-1s-.6-.53-.83-.7S25.41,0,25.34,0a.75.75,0,0,0-.5.2.56.56,0,0,0-.25.47,2,2,0,0,0,.07.39q.06.3.15.69t.21.84c.08.31.16.59.23.87s.14.52.2.74.09.37.11.47H23.42a17.07,17.07,0,0,0-1.91.1,13.9,13.9,0,0,0-1.88.31,13,13,0,0,0-2,.65,11.43,11.43,0,0,0-2.75,1.59,29.81,29.81,0,0,0-2.31,2c-.72.71-1.43,1.42-2.13,2.14A18.18,18.18,0,0,1,8.2,13.4a11.37,11.37,0,0,1-2.6,1.39,9,9,0,0,1-3.24.54H0v4H2.36a13.87,13.87,0,0,0,3.7-.46A13.22,13.22,0,0,0,9,17.66,14,14,0,0,0,11.39,16c.72-.63,1.41-1.28,2.06-1.95s1.31-1.32,2-1.95a14.27,14.27,0,0,1,2.1-1.71A10.68,10.68,0,0,1,20,9.13a9.39,9.39,0,0,1,3-.46h2.59c0,.18-.11.46-.22.85L25,10.75c-.11.43-.2.83-.29,1.2a4.54,4.54,0,0,0-.12.77.51.51,0,0,0,.25.44.9.9,0,0,0,.48.17c.07,0,.21-.09.44-.27s.51-.41.83-.7l1.07-1c.39-.38.79-.76,1.19-1.16S29.66,9.41,30,9s.71-.75,1-1.07.53-.61.7-.83A1.15,1.15,0,0,0,32,6.67a1.15,1.15,0,0,0-.27-.45C31.56,6,31.32,5.71,31,5.39Z"/></g></g></svg>