<svg xmlns="http://www.w3.org/2000/svg" viewBox="0 0 31.97 29.44"><defs><style>.cls-1{fill:#c2c2c2;}.cls-2{fill:#2f2f2f;}</style></defs><title>navigation_3</title><g id="Layer_2" data-name="Layer 2"><g id="SYMBOLS"><g id="navigation_3"><path class="cls-1" d="M2.12,21.07V2H29.66v12.6h.14s1.49.08,2,.16V2.13A2.13,2.13,0,0,0,29.65,0H2.13A2.14,2.14,0,0,0,0,2.13V21a2.13,2.13,0,0,0,2.13,2.13H15l0-2Z"/><path class="cls-2" d="M31.78,17.23a1.07,1.07,0,0,0-.13-.19,1,1,0,0,0-.74-.31H23.5V9.32a1,1,0,0,0-.32-.75,1.06,1.06,0,0,0-1.8.75V22a1,1,0,0,1-.32.75,1,1,0,0,1-.74.31,1,1,0,0,1-.74-.31,1,1,0,0,1-.32-.75V16.73a2.09,2.09,0,0,0-.83.17,2.32,2.32,0,0,0-.67.45,2.19,2.19,0,0,0-.45.67,2.09,2.09,0,0,0-.17.83V22a8.94,8.94,0,0,0,.08,1.06,7.1,7.1,0,0,0,.51,1.83,7.49,7.49,0,0,0,3.94,3.94,7.35,7.35,0,0,0,5.77,0,7.49,7.49,0,0,0,3.94-3.94A7.18,7.18,0,0,0,32,22V17.79A1,1,0,0,0,31.78,17.23Z"/></g></g></g></svg>