<svg xmlns="http://www.w3.org/2000/svg" viewBox="0 0 22.03 31.97"><defs><style>.cls-1{fill:#d83b01;}.cls-2{fill:#c2c2c2;}</style></defs><title>navigation_1</title><g id="Layer_2" data-name="Layer 2"><g id="SYMBOLS"><g id="navigation_1"><path class="cls-1" d="M4.57,9.7V7.09a3.6,3.6,0,1,1,7.2,0V9.7a5.53,5.53,0,1,0-7.2,0Z"/><path class="cls-2" d="M20.47,13.65a1.54,1.54,0,0,0-1.55,1.55V18h-1V13a1.56,1.56,0,1,0-3.11,0V18h-1V13a1.56,1.56,0,1,0-3.11,0V18h-1V7.09A1.56,1.56,0,0,0,8.12,5.53,1.54,1.54,0,0,0,6.59,7.09v15L3.07,20.58s-2.25-.75-2.83.16A1.13,1.13,0,0,0,.3,22.22l8.45,8.45c2.07,1.74,6.68,1.23,6.68,1.23,6.7-.68,6.6-5,6.6-5V15.2A1.55,1.55,0,0,0,20.47,13.65Z"/></g></g></g></svg>