<svg xmlns="http://www.w3.org/2000/svg" viewBox="0 0 26.11 27.69"><defs><style>.cls-1{fill:#0078d4;}.cls-2{fill:#c2c2c2;}</style></defs><title>Naviation2</title><g id="Layer_2" data-name="Layer 2"><g id="ArrowUp"><polygon class="cls-1" points="6.72 13.71 4.56 9 9 9 0 0 0 12.6 2.77 9.88 4.91 14.54 6.72 13.71"/><path class="cls-2" d="M24.59,9.88a1.52,1.52,0,0,0-1.51,1.51v2.75h-1V9.21a1.51,1.51,0,1,0-3,0v4.93h-1V9.21a1.52,1.52,0,0,0-3,0v4.93h-1V3.51A1.51,1.51,0,0,0,12.59,2,1.49,1.49,0,0,0,11.1,3.51V14.14h0v3.93L7.67,16.62s-2.18-.73-2.74.15A1.11,1.11,0,0,0,5,18.22l8.22,8.21c2,1.69,6.49,1.19,6.49,1.19,6.52-.66,6.42-4.85,6.42-4.85V11.39A1.52,1.52,0,0,0,24.59,9.88Z"/></g></g></svg>