<svg xmlns="http://www.w3.org/2000/svg" viewBox="0 0 31.8 31.8"><defs><style>.cls-1{fill:#c2c2c2;}.cls-2{fill:#0078d4;}</style></defs><title>Quotes</title><g id="Layer_2" data-name="Layer 2"><g id="ArrowUp"><path class="cls-1" d="M15.9,0A15.9,15.9,0,1,0,31.8,15.9,15.9,15.9,0,0,0,15.9,0ZM14.44,15.48h-2.2a8.59,8.59,0,0,0,.08,1.19,4.85,4.85,0,0,0,.31,1.22,2.61,2.61,0,0,0,.66.95,1.65,1.65,0,0,0,1.12.38v2a3.42,3.42,0,0,1-1.95-.52,4.07,4.07,0,0,1-1.26-1.35,5.77,5.77,0,0,1-.67-1.84,9.81,9.81,0,0,1-.2-2V11.2h4.11Zm6.82,0h-2.2c0,.24,0,.49,0,.77a5.72,5.72,0,0,0,.12.83,5.24,5.24,0,0,0,.22.8,2.61,2.61,0,0,0,.38.68,1.91,1.91,0,0,0,.58.48,1.73,1.73,0,0,0,.81.18v2a3.72,3.72,0,0,1-1.37-.24,3.34,3.34,0,0,1-1-.66,4.12,4.12,0,0,1-.77-1,5.81,5.81,0,0,1-.52-1.2,6.93,6.93,0,0,1-.29-1.31,9.72,9.72,0,0,1-.09-1.31V11.2h4.15Z"/><path class="cls-2" d="M10.33,15.48a9.81,9.81,0,0,0,.2,2,5.77,5.77,0,0,0,.67,1.84,4.07,4.07,0,0,0,1.26,1.35,3.42,3.42,0,0,0,1.95.52v-2a1.65,1.65,0,0,1-1.12-.38,2.61,2.61,0,0,1-.66-.95,4.85,4.85,0,0,1-.31-1.22,8.59,8.59,0,0,1-.08-1.19h2.2V11.2H10.33Z"/><path class="cls-2" d="M17.11,15.48a9.72,9.72,0,0,0,.09,1.31,6.93,6.93,0,0,0,.29,1.31A5.81,5.81,0,0,0,18,19.3a4.12,4.12,0,0,0,.77,1,3.34,3.34,0,0,0,1,.66,3.72,3.72,0,0,0,1.37.24v-2a1.73,1.73,0,0,1-.81-.18,1.91,1.91,0,0,1-.58-.48,2.61,2.61,0,0,1-.38-.68,5.24,5.24,0,0,1-.22-.8,5.72,5.72,0,0,1-.12-.83c0-.28,0-.53,0-.77h2.2V11.2H17.11Z"/></g></g></svg>