<svg xmlns="http://www.w3.org/2000/svg" viewBox="0 0 31.97 31.97"><defs><style>.cls-1{fill:#c2c2c2;}.cls-2{fill:#d83b01;}</style></defs><title>quotes</title><g id="Layer_2" data-name="Layer 2"><g id="SYMBOLS"><g id="quotes"><path class="cls-1" d="M16,0A16,16,0,1,0,32,16,16,16,0,0,0,16,0ZM14.52,15.57H12.3a8.81,8.81,0,0,0,.09,1.19A4.37,4.37,0,0,0,12.7,18a2.56,2.56,0,0,0,.67,1,1.59,1.59,0,0,0,1.12.38v2a3.49,3.49,0,0,1-2-.53,4.11,4.11,0,0,1-1.26-1.36,6.09,6.09,0,0,1-.68-1.85,10.57,10.57,0,0,1-.2-2V11.26h4.14Zm6.86,0H19.17c0,.23,0,.49,0,.77a7.53,7.53,0,0,0,.11.83,4.42,4.42,0,0,0,.23.81,2.14,2.14,0,0,0,.38.68,1.8,1.8,0,0,0,.58.48,1.73,1.73,0,0,0,.81.18v2a3.68,3.68,0,0,1-1.37-.25,3.28,3.28,0,0,1-1.06-.66,4.21,4.21,0,0,1-.78-1,7.13,7.13,0,0,1-.52-1.2,7.92,7.92,0,0,1-.29-1.32,10,10,0,0,1-.09-1.31V11.26h4.18Z"/><path class="cls-2" d="M10.38,15.57a10.57,10.57,0,0,0,.2,2,6.09,6.09,0,0,0,.68,1.85,4.11,4.11,0,0,0,1.26,1.36,3.49,3.49,0,0,0,2,.53v-2a1.59,1.59,0,0,1-1.12-.38,2.56,2.56,0,0,1-.67-1,4.37,4.37,0,0,1-.31-1.22,8.81,8.81,0,0,1-.09-1.19h2.22V11.26H10.38Z"/><path class="cls-2" d="M17.2,15.57a10,10,0,0,0,.09,1.31,7.92,7.92,0,0,0,.29,1.32,7.13,7.13,0,0,0,.52,1.2,4.21,4.21,0,0,0,.78,1,3.28,3.28,0,0,0,1.06.66,3.68,3.68,0,0,0,1.37.25v-2a1.73,1.73,0,0,1-.81-.18,1.8,1.8,0,0,1-.58-.48,2.14,2.14,0,0,1-.38-.68,4.42,4.42,0,0,1-.23-.81,7.53,7.53,0,0,1-.11-.83c0-.28,0-.54,0-.77h2.21V11.26H17.2Z"/></g></g></g></svg>