<svg xmlns="http://www.w3.org/2000/svg" viewBox="0 0 32 32"><defs><style>.cls-1{fill:#c2c2c2;}.cls-2{fill:#d2d2d2;}.cls-3{fill:#0078d4;}</style></defs><title>RadarControl</title><g id="Layer_2" data-name="Layer 2"><g id="ArrowUp"><path class="cls-1" d="M13.26,14a3.19,3.19,0,0,1,.77-.74,3.28,3.28,0,0,1,1-.47l2.25-2.27c-.21-.05-.42-.09-.64-.12a4.89,4.89,0,0,0-.66,0,5.37,5.37,0,0,0-2.21.46,5.71,5.71,0,0,0-3,3A5.58,5.58,0,0,0,10.3,16a5.66,5.66,0,0,0,.44,2.21A5.83,5.83,0,0,0,12,20a5.61,5.61,0,0,0,1.81,1.22,5.53,5.53,0,0,0,2.21.45,5.45,5.45,0,0,0,1.56-.23A5.78,5.78,0,0,0,19,20.83a5.36,5.36,0,0,0,1.19-1A5.93,5.93,0,0,0,21,18.53l-2-1a3.47,3.47,0,0,1-1.25,1.38,3.25,3.25,0,0,1-1.79.51,3.32,3.32,0,0,1-1.32-.27,3.49,3.49,0,0,1-1.08-.73,3.69,3.69,0,0,1-.74-1.09A3.41,3.41,0,0,1,12.58,16a3.32,3.32,0,0,1,.18-1.09A3.46,3.46,0,0,1,13.26,14Z"/><path class="cls-1" d="M26.28,25.44a13.78,13.78,0,0,1-2.94,2.45A14,14,0,0,1,16,30a13.73,13.73,0,0,1-3.71-.5,13.91,13.91,0,0,1-3.34-1.41,13.7,13.7,0,0,1-2.83-2.2,14.06,14.06,0,0,1-2.19-2.84A14,14,0,0,1,2.5,12.29,13.74,13.74,0,0,1,3.91,9,14.06,14.06,0,0,1,6.1,6.11a13.7,13.7,0,0,1,2.83-2.2A13.92,13.92,0,0,1,16,2a13.67,13.67,0,0,1,3.92.57,14.14,14.14,0,0,1,3.6,1.65L25,2.77A16.09,16.09,0,0,0,20.67.71,16,16,0,0,0,11.73.57a15.92,15.92,0,0,0-7,4.13,15.74,15.74,0,0,0-2.5,3.24A16.18,16.18,0,0,0,.57,11.76a16.05,16.05,0,0,0,0,8.48,16.18,16.18,0,0,0,1.61,3.82,16.22,16.22,0,0,0,5.73,5.75A15.8,15.8,0,0,0,16,32a15.66,15.66,0,0,0,4.43-.63,16.12,16.12,0,0,0,9.87-8.28l-1.8-.87A13.8,13.8,0,0,1,26.28,25.44Z"/><path class="cls-2" d="M19.75,8l1.66-1.65a10.86,10.86,0,0,0-2.62-1.07,11,11,0,0,0-5.76,0,10.94,10.94,0,0,0-2.65,1.12A11.27,11.27,0,0,0,8.13,8.15a11.1,11.1,0,0,0,0,15.7,11.27,11.27,0,0,0,2.25,1.74A10.94,10.94,0,0,0,13,26.71a10.72,10.72,0,0,0,3,.4,10.85,10.85,0,0,0,3.07-.44,11,11,0,0,0,2.77-1.24,11.13,11.13,0,0,0,2.34-1.95,11.25,11.25,0,0,0,1.75-2.54l-2-1a9,9,0,0,1-1.39,2,8.66,8.66,0,0,1-1.86,1.56,9.19,9.19,0,0,1-2.21,1,8.91,8.91,0,0,1-5.91-.34A9,9,0,0,1,9.7,22.29a8.89,8.89,0,0,1-1.91-2.83A8.85,8.85,0,0,1,9.7,9.72a9.19,9.19,0,0,1,2.82-1.91A8.56,8.56,0,0,1,16,7.11a7.78,7.78,0,0,1,1.93.23A9.33,9.33,0,0,1,19.75,8Z"/><path class="cls-3" d="M31,0a.94.94,0,0,0-.7.3l-15,15a1,1,0,0,0-.3.7.94.94,0,0,0,.3.71A1,1,0,0,0,16,17a1,1,0,0,0,.71-.3l15-15A1,1,0,0,0,32,1a1,1,0,0,0-.3-.7A1,1,0,0,0,31,0Z"/></g></g></svg>