<svg xmlns="http://www.w3.org/2000/svg" viewBox="0 0 28 32"><defs><style>.cls-1{fill:#c2c2c2;}.cls-2{fill:#0078d4;}.cls-3{fill:#2f2f2f;}</style></defs><title>ShareFilesFoldersVisionOrgChart</title><g id="Layer_2" data-name="Layer 2"><g id="ArrowUp"><path class="cls-1" d="M15.3,7.86A.91.91,0,0,0,16,7.59.91.91,0,0,0,16,6.3a.91.91,0,0,0-1.29,0,.91.91,0,0,0-.27.65.92.92,0,0,0,.91.91Z"/><path class="cls-1" d="M9.23,15.47a2,2,0,0,0,.59.4,1.77,1.77,0,0,0,.73.15,1.72,1.72,0,0,0,.72-.15,1.91,1.91,0,0,0,.6-.4,1.87,1.87,0,0,0,.4-.59,1.72,1.72,0,0,0,.15-.72,1.77,1.77,0,0,0-.15-.73,2,2,0,0,0-.4-.59,1.78,1.78,0,0,0-.6-.41,1.72,1.72,0,0,0-.72-.15,1.77,1.77,0,0,0-.73.15,2,2,0,0,0-1,1,1.77,1.77,0,0,0-.15.73,1.72,1.72,0,0,0,.15.72A1.74,1.74,0,0,0,9.23,15.47Z"/><path class="cls-1" d="M2,0V4H0V6H2v4H0v2H2v8H0v2H2v4H0v2H2v4H28V0ZM7,12.65a3.94,3.94,0,0,1,.82-1.24A4.06,4.06,0,0,1,9,10.59a3.68,3.68,0,0,1,1.51-.31,4.32,4.32,0,0,1,1.14.17l1.23-1.83a2.74,2.74,0,0,1-.4-.78A3.3,3.3,0,0,1,12.39,7a2.94,2.94,0,0,1,.23-1.14,3.09,3.09,0,0,1,.62-.93,3.17,3.17,0,0,1,.92-.62A2.87,2.87,0,0,1,15.3,4a2.94,2.94,0,0,1,1.14.23A2.85,2.85,0,0,1,18,5.81,2.94,2.94,0,0,1,18.22,7,2.71,2.71,0,0,1,18,8.09a2.9,2.9,0,0,1-.63.92,3,3,0,0,1-2.05.85,2.94,2.94,0,0,1-.74-.09l-1.17,1.76a3.66,3.66,0,0,1,.73,1.13,3.84,3.84,0,0,1,.3,1.32l3.66,1a2.85,2.85,0,0,1,1-.83,3,3,0,0,1,1.29-.29,2.81,2.81,0,0,1,1.13.22,2.94,2.94,0,0,1,1.55,1.55,2.94,2.94,0,0,1-.62,3.2,2.94,2.94,0,0,1-.93.63,2.81,2.81,0,0,1-1.13.22,2.92,2.92,0,0,1-1.11-.21,3.13,3.13,0,0,1-.91-.6,2.81,2.81,0,0,1-.64-.88,2.73,2.73,0,0,1-.26-1.1l-3.49-1a3.78,3.78,0,0,1-1.43,1.51,3.72,3.72,0,0,1-2,.57,3.8,3.8,0,0,1-1.5-.31,4,4,0,0,1-1.24-.83A3.94,3.94,0,0,1,7,15.66a3.63,3.63,0,0,1-.31-1.5A3.68,3.68,0,0,1,7,12.65ZM24,24.06H6v-2H24Z"/><path class="cls-1" d="M20.39,17.72a.87.87,0,0,0,.64-.27.85.85,0,0,0,.27-.64.87.87,0,0,0-.27-.64.86.86,0,0,0-.64-.26.88.88,0,0,0-.65.26.87.87,0,0,0-.27.64.85.85,0,0,0,.27.64A.89.89,0,0,0,20.39,17.72Z"/><path class="cls-2" d="M7.81,16.88a4,4,0,0,0,1.24.83,3.8,3.8,0,0,0,1.5.31,3.72,3.72,0,0,0,2-.57A3.78,3.78,0,0,0,14,15.94l3.49,1a2.73,2.73,0,0,0,.26,1.1,2.81,2.81,0,0,0,.64.88,3.13,3.13,0,0,0,.91.6,2.92,2.92,0,0,0,1.11.21,2.81,2.81,0,0,0,1.13-.22,2.94,2.94,0,0,0,.93-.63,2.93,2.93,0,0,0,.62-3.2,2.94,2.94,0,0,0-1.55-1.55,2.81,2.81,0,0,0-1.13-.22,3,3,0,0,0-1.29.29,2.85,2.85,0,0,0-1,.83l-3.66-1a3.84,3.84,0,0,0-.3-1.32,3.66,3.66,0,0,0-.73-1.13l1.17-1.76a2.94,2.94,0,0,0,.74.09A3,3,0,0,0,17.35,9,2.9,2.9,0,0,0,18,8.09,2.71,2.71,0,0,0,18.22,7,2.94,2.94,0,0,0,18,5.81a2.85,2.85,0,0,0-1.55-1.55A2.94,2.94,0,0,0,15.3,4a2.87,2.87,0,0,0-1.14.23,3.17,3.17,0,0,0-.92.62,3.09,3.09,0,0,0-.62.93A2.94,2.94,0,0,0,12.39,7a3.3,3.3,0,0,0,.13.89,2.74,2.74,0,0,0,.4.78l-1.23,1.83a4.32,4.32,0,0,0-1.14-.17A3.68,3.68,0,0,0,9,10.59a4.06,4.06,0,0,0-1.24.82A3.94,3.94,0,0,0,7,12.65a3.68,3.68,0,0,0-.31,1.51A3.63,3.63,0,0,0,7,15.66,3.94,3.94,0,0,0,7.81,16.88Zm11.93-.71a.88.88,0,0,1,.65-.26.86.86,0,0,1,.64.26.87.87,0,0,1,.27.64.85.85,0,0,1-.27.64.87.87,0,0,1-.64.27.89.89,0,0,1-.65-.27.85.85,0,0,1-.27-.64A.87.87,0,0,1,19.74,16.17ZM14.66,6.3A.92.92,0,0,1,16.22,7a.85.85,0,0,1-.27.64.91.91,0,0,1-.65.27A.92.92,0,0,1,14.39,7,.91.91,0,0,1,14.66,6.3ZM8.82,13.43a2,2,0,0,1,1-1,1.77,1.77,0,0,1,.73-.15,1.72,1.72,0,0,1,.72.15,1.78,1.78,0,0,1,.6.41,2,2,0,0,1,.4.59,1.77,1.77,0,0,1,.15.73,1.72,1.72,0,0,1-.15.72,1.87,1.87,0,0,1-.4.59,1.91,1.91,0,0,1-.6.4,1.72,1.72,0,0,1-.72.15,1.77,1.77,0,0,1-.73-.15,2,2,0,0,1-.59-.4,1.74,1.74,0,0,1-.41-.59,1.72,1.72,0,0,1-.15-.72A1.77,1.77,0,0,1,8.82,13.43Z"/><rect class="cls-3" x="5.98" y="22.06" width="18.03" height="2"/></g></g></svg>