<svg xmlns="http://www.w3.org/2000/svg" viewBox="0 0 19.21 32"><defs><style>.cls-1{fill:#c2c2c2;}.cls-2{fill:#0078d4;}</style></defs><title>SwipeNavigation</title><g id="Layer_2" data-name="Layer 2"><g id="ArrowUp"><path class="cls-1" d="M18.83,17a1.27,1.27,0,0,0-.9-.38H9v-9A1.3,1.3,0,0,0,7.68,6.39a1.19,1.19,0,0,0-.9.38,1.23,1.23,0,0,0-.38.9V23a1.27,1.27,0,0,1-.38.9,1.26,1.26,0,0,1-1.8,0,1.27,1.27,0,0,1-.38-.9V16.63a2.5,2.5,0,0,0-.83.15l-.17,0a2.7,2.7,0,0,0-.81.55,2.77,2.77,0,0,0-.55.81,2.55,2.55,0,0,0-.2,1V23A8.71,8.71,0,0,0,2,26.53a9.13,9.13,0,0,0,1.92,2.84,9,9,0,0,0,2.84,1.92,8.93,8.93,0,0,0,7,0,9.06,9.06,0,0,0,2.85-1.92,9.49,9.49,0,0,0,1.92-2.84A8.71,8.71,0,0,0,19.21,23V17.91A1.27,1.27,0,0,0,18.83,17Z"/><path class="cls-2" d="M3.5,14.1c.11,0,.22,0,.34,0V10.93A5,5,0,0,1,2.62,7.68a5.06,5.06,0,1,1,8.9,3.24v3.15h.39a7.68,7.68,0,1,0-8.41,0Z"/></g></g></svg>