<svg xmlns="http://www.w3.org/2000/svg" viewBox="0 0 32 31.76"><defs><style>.cls-1{fill:#c2c2c2;}.cls-2{fill:#0078d4;}</style></defs><title>Toggle</title><g id="Layer_2" data-name="Layer 2"><g id="ArrowUp"><path class="cls-1" d="M10.25,4.28A6.33,6.33,0,0,0,12,8.67H4.29a4.29,4.29,0,1,1,0-8.58h7.52A6.37,6.37,0,0,0,10.25,4.28Z"/><path class="cls-2" d="M20.93,4.28a4.24,4.24,0,0,1-1.77,3.44V5.91A1.6,1.6,0,0,0,17.58,4.3h0A1.59,1.59,0,0,0,16,5.91V8.48A4.27,4.27,0,0,1,15.8.09,4,4,0,0,1,16.65,0a3.68,3.68,0,0,1,.82.09A4.27,4.27,0,0,1,20.93,4.28Z"/><path class="cls-1" d="M32,14.34V26.5s.11,4.48-6.86,5.19c0,0-4.79.53-6.94-1.28L9.42,21.63a1.17,1.17,0,0,1-.06-1.54c.6-.94,2.93-.17,2.93-.17L16,21.47V5.91A1.59,1.59,0,0,1,17.55,4.3h0a1.6,1.6,0,0,1,1.58,1.61V17.28h1.06V12a1.62,1.62,0,0,1,3.24,0v5.27h1V12a1.61,1.61,0,1,1,3.22,0v5.27h1V14.34a1.62,1.62,0,0,1,3.24,0Z"/></g></g></svg>