<svg xmlns="http://www.w3.org/2000/svg" viewBox="0 0 31.97 31.73"><defs><style>.cls-1{fill:#c2c2c2;}.cls-2{fill:#d83b01;}</style></defs><title>toggle</title><g id="Layer_2" data-name="Layer 2"><g id="SYMBOLS"><g id="toggle"><path class="cls-1" d="M10.24,4.27A6.41,6.41,0,0,1,11.8.08H4.28a4.29,4.29,0,0,0,0,8.57H12A6.32,6.32,0,0,1,10.24,4.27Z"/><path class="cls-2" d="M17.53,4.29A1.62,1.62,0,0,1,19.15,5.9V7.7A4.26,4.26,0,0,0,16.64,0a4.41,4.41,0,0,0-.83.08,4.26,4.26,0,0,0,.13,8.38V5.9A1.59,1.59,0,0,1,17.53,4.29Z"/><path class="cls-1" d="M30.35,12.71a1.62,1.62,0,0,0-1.61,1.62v2.93h-1V12a1.62,1.62,0,0,0-3.23,0v5.26h-1V12a1.62,1.62,0,0,0-3.23,0v5.26H19.15V5.9a1.62,1.62,0,0,0-1.62-1.61A1.59,1.59,0,0,0,15.94,5.9V21.45l-3.66-1.54s-2.33-.78-2.93.16a1.16,1.16,0,0,0,.06,1.54l8.77,8.77c2.15,1.81,6.94,1.28,6.94,1.28,7-.71,6.85-5.19,6.85-5.19V14.33A1.63,1.63,0,0,0,30.35,12.71Z"/></g></g></g></svg>