<svg xmlns="http://www.w3.org/2000/svg" viewBox="0 0 32 32"><defs><style>.cls-1{fill:#c2c2c2;}.cls-2{fill:#0078d4;}</style></defs><title>TurnRight</title><g id="Layer_2" data-name="Layer 2"><g id="ArrowUp"><polygon class="cls-1" points="0 16 10 26 10 23.17 10 19.81 10 14 18.58 14 15.3 10.7 16.7 9.3 22.41 15 16.7 20.7 15.3 19.3 18.58 16 12 16 12 19.88 12 25.17 12 28 16 32 32 16 16 0 0 16"/><polygon class="cls-2" points="12 19.88 12 16 18.58 16 15.3 19.3 16.7 20.7 22.41 15 16.7 9.3 15.3 10.7 18.58 14 10 14 10 19.81 10 23.17 10 26 12 28 12 25.17 12 19.88"/></g></g></svg>