<svg id="ArrowUp" xmlns="http://www.w3.org/2000/svg" viewBox="0 0 32 32"><defs><style>.cls-1{fill:#c2c2c2;}.cls-2{fill:#0078d4;}</style></defs><title>AddUser-blue</title><path class="cls-1" d="M14.22,16.58A4.54,4.54,0,1,0,9.68,12,4.55,4.55,0,0,0,14.22,16.58Z"/><path class="cls-1" d="M14.22,17.67a6.82,6.82,0,0,0-6.83,6.82H21A6.82,6.82,0,0,0,14.22,17.67Z"/><path class="cls-1" d="M0,24.52H5.35v0a9.06,9.06,0,0,1,1-4.15A4.54,4.54,0,0,0,0,24.52Z"/><path class="cls-1" d="M4.55,12.05a3.4,3.4,0,0,0-2.19,6,3.35,3.35,0,0,0,2,.79l.2,0,.2,0a3.32,3.32,0,0,0,2-.79A3.36,3.36,0,0,0,8,15.46,3.41,3.41,0,0,0,4.55,12.05Z"/><polygon class="cls-2" points="27.45 15.39 27.45 10.84 25.18 10.84 25.18 15.39 20.63 15.39 20.63 17.67 25.18 17.67 25.18 17.67 25.18 22.22 27.45 22.22 27.45 17.67 27.45 17.67 32 17.67 32 15.39 27.45 15.39"/></svg>