<svg width="32" height="32" viewBox="0 0 32 32" fill="none" xmlns="http://www.w3.org/2000/svg">
<path d="M11.4991 14.6505C15.5477 14.6505 18.8186 11.3681 18.8186 7.33094C18.8186 4.36883 17.0573 1.82988 14.5184 0.674767C13.592 0.251608 12.5741 0 11.4877 0C10.4012 0 9.38329 0.251608 8.45692 0.674767C5.9294 1.82988 4.15671 4.36883 4.15671 7.33094C4.15671 11.3795 7.43905 14.6505 11.4762 14.6505H11.4991Z" fill="#C2C2C2"/>
<path d="M26.6868 20.0944H24.3995V32H26.6868V20.0944Z" fill="#0078D4"/>
<path d="M17.3099 22.6105H21.3699C19.5972 18.9393 15.846 16.4004 11.4886 16.4004C5.41566 16.4004 0.497864 21.3182 0.497864 27.3911H17.3099V22.6105Z" fill="#C2C2C2"/>
<path d="M31.5021 24.8973H19.5965V27.1847H31.5021V24.8973Z" fill="#0078D4"/>
</svg>
