<svg xmlns="http://www.w3.org/2000/svg" viewBox="0 0 48.69 32.1"><defs><style>.cls-1{fill:#c2c2c2;}.cls-2{fill:#939393;}.cls-3{fill:#2f2f2f;}.cls-4{fill:#d83b01;}</style></defs><title>coauthoring</title><g id="Layer_2" data-name="Layer 2"><g id="SYMBOLS"><g id="coauthoring"><path class="cls-1" d="M28.57,17c5,0,9.14-3.79,9.14-8.48A8.46,8.46,0,0,0,32.35.78a9.55,9.55,0,0,0-7.56,0,8.47,8.47,0,0,0-5.36,7.7C19.43,13.17,23.53,17,28.57,17Z"/><path class="cls-1" d="M28.56,19C21,19,14.85,24.69,14.85,31.71H26.73l1-4L35,20.43A20.66,20.66,0,0,0,28.56,19Z"/><path class="cls-2" d="M0,31.77H10.74v0a15.9,15.9,0,0,1,2-7.74,9.75,9.75,0,0,0-3.64-.7C4.09,23.29,0,27.08,0,31.77Z"/><path class="cls-2" d="M9.14,8.52a6.63,6.63,0,0,0-6.86,6.36,6.16,6.16,0,0,0,2.47,4.85,7.08,7.08,0,0,0,4,1.47c.13,0,.26,0,.4,0s.26,0,.4,0a7.11,7.11,0,0,0,4-1.47A6.18,6.18,0,0,0,16,14.88,6.62,6.62,0,0,0,9.14,8.52Z"/><path class="cls-3" d="M44.16,15.1l2.59,2.59-13,13a4,4,0,0,0-1-1.61,4,4,0,0,0-1.61-1Z"/><path class="cls-4" d="M45.38,13.87a2.86,2.86,0,0,1,.41-.37,1.92,1.92,0,0,1,.47-.25,1.74,1.74,0,0,1,.59-.09,1.71,1.71,0,0,1,.71.15,1.74,1.74,0,0,1,.58.39,2,2,0,0,1,.4.59,1.71,1.71,0,0,1,.15.71,1.78,1.78,0,0,1-.1.59,1.94,1.94,0,0,1-.25.47,4.59,4.59,0,0,1-.36.41l-.43.41L45,14.29Z"/><path class="cls-3" d="M30.46,29.19a3,3,0,0,1,.77.28,3.17,3.17,0,0,1,.65.49,2.75,2.75,0,0,1,.48.64,3,3,0,0,1,.29.77l-2.91.73Z"/></g></g></g></svg>