<svg xmlns="http://www.w3.org/2000/svg" viewBox="0 0 44.83 31.97"><defs><style>.cls-1{fill:#c2c2c2;}.cls-2{fill:#939393;}.cls-3{fill:#2f2f2f;}.cls-4{fill:#d2d2d2;}</style></defs><title>distribution_group</title><g id="Layer_2" data-name="Layer 2"><g id="SYMBOLS"><g id="distribution_group"><path class="cls-1" d="M24,15.34a7.66,7.66,0,1,0-7.67-7.67A7.67,7.67,0,0,0,24,15.34Z"/><path class="cls-1" d="M24,17.17a11.5,11.5,0,0,0-11.5,11.5H24.14V25.59l.08-7.29,4.6,0A13.22,13.22,0,0,0,24,17.17Z"/><path class="cls-2" d="M0,28.72H9v0a15.24,15.24,0,0,1,1.7-7A7.66,7.66,0,0,0,0,28.72Z"/><path class="cls-2" d="M7.67,7.7a5.74,5.74,0,0,0-.34,11.47c.12,0,.22,0,.34,0l.33,0a5.79,5.79,0,0,0,5.42-5.72A5.76,5.76,0,0,0,7.67,7.7Z"/><path class="cls-3" d="M35.58,26.35l-8.23-4.12-1-.5V32H44.82V21.73l-1,.5Z"/><polygon class="cls-4" points="44.82 21.72 44.82 21.73 44.83 21.72 44.82 21.72"/><polygon class="cls-4" points="26.34 21.72 26.35 21.73 26.35 21.72 26.34 21.72"/><polygon class="cls-3" points="35.59 25.05 43.82 20.93 44.82 20.43 44.82 20.42 26.35 20.42 26.35 20.43 27.35 20.93 35.59 25.05"/></g></g></g></svg>