<svg id="ArrowUp" xmlns="http://www.w3.org/2000/svg" viewBox="0 0 32 32"><defs><style>.cls-1{fill:#0078d4;}.cls-2{fill:#d2d2d2;}.cls-3{fill:#c2c2c2;}</style></defs><title>DownloadToUser-blue</title><polygon class="cls-1" points="17.39 0 15.03 0 15.03 7.79 12.3 5.09 10.64 6.76 16.21 12.33 21.78 6.76 20.12 5.09 17.39 7.79 17.39 0"/><path class="cls-2" d="M.89,32H6.46v0a9.36,9.36,0,0,1,1.06-4.32,4.61,4.61,0,0,0-1.89-.4A4.74,4.74,0,0,0,.89,32Z"/><path class="cls-3" d="M10.77,27.11a7,7,0,0,0-.76.95,7.4,7.4,0,0,0-.6,1.11A7.1,7.1,0,0,0,8.83,32H19.14a7.06,7.06,0,0,1,2-4.88,7.09,7.09,0,0,0-10.33,0Z"/><path class="cls-3" d="M26.25,27.24a4.82,4.82,0,0,0-1.9.4,5,5,0,0,0-1,.62A4.77,4.77,0,0,0,21.51,32H31A4.74,4.74,0,0,0,26.25,27.24Z"/><path class="cls-3" d="M26,26.08l.21,0,.2,0a3,3,0,0,0,1.92-.88,3,3,0,1,0-4.24,0A3,3,0,0,0,26,26.08Z"/><path class="cls-3" d="M13.26,22.89a4.63,4.63,0,0,0,2.35.81c.11,0,.22,0,.34,0s.22,0,.33,0a4.62,4.62,0,0,0,2.35-.8,4.72,4.72,0,0,0-.72-8.2h0a4.59,4.59,0,0,0-3.92,0h0a4.72,4.72,0,0,0-.73,8.19Z"/><path class="cls-2" d="M5.63,19a3.55,3.55,0,0,0-.21,7.09l.21,0,.21,0a3.56,3.56,0,0,0,2.07-.83A3.54,3.54,0,0,0,5.63,19Z"/></svg>