<svg id="ArrowUp" xmlns="http://www.w3.org/2000/svg" viewBox="0 0 32 32"><defs><style>.cls-1{fill:#0078d4;}.cls-2{fill:#c2c2c2;}</style></defs><title>DownloadToUser1-blue</title><polygon class="cls-1" points="21.38 7.09 19.77 5.49 17.14 8.09 17.14 0.57 14.86 0.57 14.86 8.09 12.23 5.49 10.63 7.09 16 12.47 21.38 7.09"/><path class="cls-2" d="M16,14.33a4.6,4.6,0,1,0,1.89.42A4.59,4.59,0,0,0,16,14.33Z"/><circle class="cls-2" cx="27.43" cy="9.19" r="2.86"/><path class="cls-2" d="M27.43,13.15a4.57,4.57,0,0,0-4.57,4.57H32A4.58,4.58,0,0,0,27.43,13.15Z"/><circle class="cls-2" cx="4.57" cy="9.19" r="2.86"/><path class="cls-2" d="M4.57,13.15A4.58,4.58,0,0,0,0,17.72H9.14A4.57,4.57,0,0,0,4.57,13.15Z"/><path class="cls-2" d="M16,24.57a6.86,6.86,0,0,0-6.86,6.86H22.86A6.86,6.86,0,0,0,16,24.57Z"/></svg>