<svg xmlns="http://www.w3.org/2000/svg" viewBox="0 0 33.66 31.97"><defs><style>.cls-1{fill:#d2d2d2;}.cls-2{fill:#2f2f2f;}</style></defs><title>home_user</title><g id="Layer_2" data-name="Layer 2"><g id="SYMBOLS"><g id="home_user"><path class="cls-1" d="M12,16A8,8,0,0,0,15.27.73,7.85,7.85,0,0,0,12,0a8,8,0,1,0,0,16Z"/><path class="cls-1" d="M12,17.85a12,12,0,0,0-12,12H15.2V26.61l-2-2.42L18,19.57C16.54,19,13.64,17.85,12,17.85Z"/><path class="cls-2" d="M24.94,15.7l8.72,8.73-.84.84-.76-.76V32H26.12V26H23.75V32H17.82V24.51l-.77.76-.83-.84Z"/></g></g></g></svg>