<svg xmlns="http://www.w3.org/2000/svg" viewBox="0 0 32.38 31.97"><defs><style>.cls-1{fill:#c2c2c2;}.cls-2{fill:#2f2f2f;}.cls-3{fill:#d2d2d2;}</style></defs><title>mail_user</title><g id="Layer_2" data-name="Layer 2"><g id="SYMBOLS"><g id="mail_user"><path class="cls-1" d="M11.88,15.82A7.9,7.9,0,0,0,15.15.73a7.69,7.69,0,0,0-6.54,0,7.9,7.9,0,0,0,3.27,15.09Z"/><path class="cls-1" d="M11.86,17.71A11.86,11.86,0,0,0,0,29.58H12.05V26.4l.08-7.52h4.75A13.83,13.83,0,0,0,11.86,17.71Z"/><path class="cls-2" d="M22.85,26.17l-8.5-4.25-1-.52V32h19V21.4l-1,.52Z"/><polygon class="cls-3" points="32.37 21.4 32.37 21.4 32.38 21.4 32.37 21.4"/><polygon class="cls-3" points="13.31 21.4 13.32 21.4 13.32 21.4 13.31 21.4"/><polygon class="cls-2" points="22.85 24.83 31.34 20.58 32.37 20.06 32.37 20.06 13.32 20.06 13.32 20.06 14.35 20.58 22.85 24.83"/></g></g></g></svg>