<svg xmlns="http://www.w3.org/2000/svg" viewBox="0 0 31.48 31.97"><defs><style>.cls-1{fill:#c2c2c2;}.cls-2{fill:#2f2f2f;}</style></defs><title>mobile_user</title><g id="Layer_2" data-name="Layer 2"><g id="SYMBOLS"><g id="mobile_user"><path class="cls-1" d="M12.1,16.11A8,8,0,0,0,15.43.74a7.86,7.86,0,0,0-6.66,0A8,8,0,0,0,12.1,16.11Z"/><path class="cls-1" d="M12.08,18A12.08,12.08,0,0,0,0,30.12H18.87V19.67A17.75,17.75,0,0,0,12.08,18Z"/><path class="cls-2" d="M21.57,32h9.26a.65.65,0,0,0,.65-.65V14.13a.65.65,0,0,0-.65-.65H21.57a.65.65,0,0,0-.65.65V31.32A.65.65,0,0,0,21.57,32Zm3.31-2.64h2.64v1.32H24.88Z"/></g></g></g></svg>