<svg id="ArrowUp" xmlns="http://www.w3.org/2000/svg" viewBox="0 0 32 32"><defs><style>.cls-1{fill:#c2c2c2;}</style></defs><title>MultiplePeople-blue</title><path class="cls-1" d="M18.61,19a2.85,2.85,0,0,0,.84.1h.81V32h2.57V21.66H25.4V32H28V19.09h1.29a.93.93,0,0,0,.54-.16,1.56,1.56,0,0,0,.4-.41,2.11,2.11,0,0,0,.25-.55,2,2,0,0,0,.09-.57v-6a2.13,2.13,0,0,0-.23-.93,3.14,3.14,0,0,0-1.41-1.41A2.13,2.13,0,0,0,28,8.82h-7.7a2.07,2.07,0,0,0-.9.23,2.89,2.89,0,0,0-.83.6,3.19,3.19,0,0,0-.6.83,2,2,0,0,0-.24.91v6.42a1.1,1.1,0,0,0,.27.81A1.37,1.37,0,0,0,18.61,19Z"/><path class="cls-1" d="M21,3.09A3.09,3.09,0,1,0,24.11,0,3.1,3.1,0,0,0,21,3.09Z"/><path class="cls-1" d="M12.66,9.05a2.09,2.09,0,0,0-.92-.23H4a2.08,2.08,0,0,0-.91.23A3.22,3.22,0,0,0,1.7,10.48a2.08,2.08,0,0,0-.23.91v6.42a1.14,1.14,0,0,0,.26.81,1.37,1.37,0,0,0,.65.38,2.85,2.85,0,0,0,.84.1H4V32H6.6V21.66H9.17V32h2.57V19.09H13a.93.93,0,0,0,.54-.16,1.42,1.42,0,0,0,.4-.41,2.14,2.14,0,0,0,.26-.55,2,2,0,0,0,.09-.57v-6a2.13,2.13,0,0,0-.23-.93,3.46,3.46,0,0,0-.6-.82A3,3,0,0,0,12.66,9.05Z"/><path class="cls-1" d="M11,3.09A3.09,3.09,0,1,0,7.89,6.18,3.09,3.09,0,0,0,11,3.09Z"/></svg>