<svg xmlns="http://www.w3.org/2000/svg" viewBox="0 0 31.58 32"><defs><style>.cls-1{fill:none;}.cls-2{fill:#c2c2c2;}.cls-3{fill:#d83b01;}.cls-4{fill:#2f2f2f;}</style></defs><title>on_premises_user</title><g id="Layer_2" data-name="Layer 2"><g id="SYMBOLS"><g id="on_premises_user"><g id="on_premises_user-2" data-name="on_premises_user"><rect class="cls-1" x="9.12" y="18.29" width="4.59" height="4.59"/><rect class="cls-1" x="9.12" y="11.41" width="4.59" height="4.59"/><rect class="cls-1" x="2.24" y="11.41" width="4.59" height="4.59"/><rect class="cls-1" x="9.12" y="4.53" width="4.59" height="4.59"/><rect class="cls-1" x="9.12" y="25.17" width="4.59" height="4.59"/><rect class="cls-1" x="2.24" y="18.29" width="4.59" height="4.59"/><rect class="cls-1" x="16" y="4.53" width="4.59" height="4.59"/><rect class="cls-1" x="16" y="11.41" width="4.59" height="4.59"/><path class="cls-2" d="M0,0V32H14.74a9.42,9.42,0,0,1,1.78-5.54,12.84,12.84,0,0,1,3.6-3.05,6.79,6.79,0,0,1-1.58-9.55,6.44,6.44,0,0,1,4.29-2.45V0ZM2.3,4.53H6.77V9.12H2.3ZM6.83,22.88H2.24V18.29H6.83Zm0-6.88H2.24V11.41H6.83Zm6.88,13.76H9.12V25.17h4.59Zm0-6.88H9.12V18.29h4.59Zm0-6.88H9.12V11.41h4.59Zm0-6.88H9.12V4.53h4.59Zm6.88,0H16V4.53h4.59Z"/><rect class="cls-3" x="2.3" y="4.53" width="4.47" height="4.58"/></g><path class="cls-4" d="M23.85,23A5.16,5.16,0,0,0,26,13.16a5,5,0,0,0-4.27,0A5.16,5.16,0,0,0,23.85,23Z"/><path class="cls-4" d="M23.84,24.25A7.75,7.75,0,0,0,16.09,32H31.58A7.74,7.74,0,0,0,23.84,24.25Z"/></g></g></g></svg>