<svg xmlns="http://www.w3.org/2000/svg" viewBox="0 0 34.94 31.97"><defs><style>.cls-1{fill:#c2c2c2;}.cls-2{fill:#2f2f2f;}</style></defs><title>online_user</title><g id="Layer_2" data-name="Layer 2"><g id="SYMBOLS"><g id="online_user"><path class="cls-1" d="M34.42,13.11A6.72,6.72,0,0,0,33,11a6.64,6.64,0,0,0-2.09-1.43A6.23,6.23,0,0,0,28.34,9a10.74,10.74,0,0,0-1.08-3.57,10.09,10.09,0,0,0-2.15-2.86A9.58,9.58,0,0,0,18.56,0a9.73,9.73,0,0,0-4.71,1.23A9.78,9.78,0,0,0,11.9,2.7a10.77,10.77,0,0,0-1.58,2A8.55,8.55,0,0,0,8.74,4.5a8.37,8.37,0,0,0-3.41.71A8.73,8.73,0,0,0,2.55,7.14a9.21,9.21,0,0,0,0,12.75,8.73,8.73,0,0,0,2.78,1.93,8.36,8.36,0,0,0,3.41.7H16c-1.74-3.32.15-9.32,5.54-9.27,5.24.05,7.38,5.3,5.38,9.27h1.48A6.06,6.06,0,0,0,30.93,22,6.49,6.49,0,0,0,33,20.54a6.94,6.94,0,0,0,1.4-7.43Z"/><path class="cls-2" d="M21.53,24.05A4.49,4.49,0,0,0,26,19.5a4.57,4.57,0,0,0-2.59-4.14,4.27,4.27,0,0,0-3.65,0,4.56,4.56,0,0,0-2.59,4.14A4.49,4.49,0,0,0,21.53,24.05Z"/><path class="cls-2" d="M21.53,25.14A6.73,6.73,0,0,0,14.9,32H28.15A6.73,6.73,0,0,0,21.53,25.14Z"/></g></g></g></svg>