<svg xmlns="http://www.w3.org/2000/svg" viewBox="0 0 29.36 31.97"><defs><style>.cls-1{fill:#2f2f2f;}.cls-2{fill:#c2c2c2;}</style></defs><title>personal_folder</title><g id="Layer_2" data-name="Layer 2"><g id="SYMBOLS"><g id="personal_folder"><path class="cls-1" d="M18.59,17.24a4.34,4.34,0,0,0,0,3.46,4.44,4.44,0,0,0,.95,1.41,4.63,4.63,0,0,0,1.41,1,4.87,4.87,0,0,0,.74.23h2a4.87,4.87,0,0,0,.74-.23,4.56,4.56,0,0,0,1.42-1,4.63,4.63,0,0,0,1-1.41,4.34,4.34,0,0,0,0-3.46,4.52,4.52,0,0,0-2.38-2.38,4.45,4.45,0,0,0-3.46,0,4.63,4.63,0,0,0-1.41,1A4.37,4.37,0,0,0,18.59,17.24Z"/><path class="cls-1" d="M28.86,29.69a6.48,6.48,0,0,0-3.53-3.52,6.58,6.58,0,0,0-2.64-.52,6.61,6.61,0,0,0-6.17,4.06A6.53,6.53,0,0,0,16,32H29.36A6.65,6.65,0,0,0,28.86,29.69Z"/><path class="cls-2" d="M6.59,7,0,.45V25.9l4.39,4.39V23.74a2.37,2.37,0,0,1,.34-1.31,5.19,5.19,0,0,1,.76-.95c.27-.27.52-.5.75-.7a.84.84,0,0,0,.35-.61Z"/><path class="cls-2" d="M16.05,21.86a7.66,7.66,0,0,1-.68-3.2,7.82,7.82,0,0,1,1.18-4.11,7.91,7.91,0,0,1,1.38-1.63,7.65,7.65,0,0,1,1.83-1.21V0H2.64L8.15,5.49a2.08,2.08,0,0,1,.46.71A2.28,2.28,0,0,1,8.78,7V20.17a2.39,2.39,0,0,1-.34,1.31,5.19,5.19,0,0,1-.76.95c-.27.26-.52.5-.75.7a.82.82,0,0,0-.34.61v2.6h9.12A9.77,9.77,0,0,1,18,24.47,7.8,7.8,0,0,1,16.05,21.86Z"/></g></g></g></svg>