<svg id="ArrowUp" xmlns="http://www.w3.org/2000/svg" viewBox="0 0 32 32"><defs><style>.cls-1{fill:#c2c2c2;}.cls-2{fill:#0078d4;}</style></defs><title>PresenterPresentationChart-blue</title><path class="cls-1" d="M19.38,19.78a6.33,6.33,0,0,1-.54-2.59,6.5,6.5,0,0,1,.53-2.57,7.06,7.06,0,0,1,1.4-2.07,6.8,6.8,0,0,1,2.06-1.39,6.41,6.41,0,0,1,5.15,0,6.72,6.72,0,0,1,1.84,1.2V2h-4.1L15.08,12.61l-3.71-2.19L6.12,16.35H0v5.13H20.48A6.89,6.89,0,0,1,19.38,19.78Z"/><polygon class="cls-2" points="10.94 7.64 14.73 9.89 22.66 1.96 0 1.96 0 14.18 5.14 14.18 10.94 7.64"/><path class="cls-1" d="M23.7,21.24a3.67,3.67,0,0,0,.73.24h2a3.8,3.8,0,0,0,.72-.24,4.37,4.37,0,0,0,2.35-2.33,4.24,4.24,0,0,0,0-3.42,4.42,4.42,0,0,0-.94-1.4,4.61,4.61,0,0,0-1.41-.95,4.33,4.33,0,0,0-3.41,0,4.52,4.52,0,0,0-1.39.95,4.44,4.44,0,0,0-.95,1.4,4.35,4.35,0,0,0,0,3.42,4.64,4.64,0,0,0,.95,1.39A4.49,4.49,0,0,0,23.7,21.24Z"/><path class="cls-1" d="M28,24.31a6.69,6.69,0,0,0-2.62-.51,6.46,6.46,0,0,0-2.6.52,6.48,6.48,0,0,0-3.49,3.49,6.37,6.37,0,0,0-.5,2.23H32a6.7,6.7,0,0,0-.49-2.25A6.36,6.36,0,0,0,28,24.31Z"/></svg>