<svg xmlns="http://www.w3.org/2000/svg" viewBox="0 0 26.05 31.97"><defs><style>.cls-1{fill:#2f2f2f;}.cls-2{fill:#c2c2c2;}</style></defs><title>presenter_with_podium</title><g id="Layer_2" data-name="Layer 2"><g id="SYMBOLS"><g id="presenter_with_podium"><path class="cls-1" d="M18.17,11.08a5.9,5.9,0,0,0-1.33-1.52,5.78,5.78,0,0,0-1.76-1,6,6,0,0,0-4.11,0,5.78,5.78,0,0,0-1.76,1,5.71,5.71,0,0,0-1.33,1.52A6,6,0,0,0,7.1,13H18.94A6.2,6.2,0,0,0,18.17,11.08Z"/><polygon class="cls-2" points="0 15.39 0 17.76 4.74 17.76 4.74 31.97 21.31 31.97 21.31 17.76 26.05 17.76 26.05 15.39 0 15.39"/><circle class="cls-1" cx="13.02" cy="3.55" r="3.55"/></g></g></g></svg>