<svg xmlns="http://www.w3.org/2000/svg" viewBox="0 0 31.97 28.05"><defs><style>.cls-1{fill:#939393;}.cls-2{fill:#c2c2c2;}.cls-3{fill:#2f2f2f;}</style></defs><title>presenter</title><g id="Layer_2" data-name="Layer 2"><g id="SYMBOLS"><g id="presenter"><path class="cls-1" d="M19.36,17.8a6.32,6.32,0,0,1-.54-2.58,6.43,6.43,0,0,1,.53-2.57A6.58,6.58,0,0,1,22.8,9.19a6.33,6.33,0,0,1,2.59-.54A6.41,6.41,0,0,1,28,9.18a6.75,6.75,0,0,1,1.84,1.21V0H25.7L15.07,10.63,11.36,8.45,6.11,14.37H0V19.5H20.46A6.89,6.89,0,0,1,19.36,17.8Z"/><polygon class="cls-2" points="10.93 5.68 14.72 7.92 22.64 0 0 0 0 12.21 5.14 12.21 10.93 5.68"/><path class="cls-3" d="M27.09,11.17a4.14,4.14,0,0,0-1.7-.35,4.09,4.09,0,0,0-1.71.35,4.53,4.53,0,0,0-1.4.94,4.58,4.58,0,0,0-.94,1.41,4.08,4.08,0,0,0-.35,1.7,4.16,4.16,0,0,0,.35,1.71,4.61,4.61,0,0,0,.94,1.39,4.53,4.53,0,0,0,1.4.94,3.58,3.58,0,0,0,.72.24h2a3.9,3.9,0,0,0,.73-.24,4.53,4.53,0,0,0,1.4-.94,4.61,4.61,0,0,0,.94-1.39,4.16,4.16,0,0,0,.36-1.71,4.08,4.08,0,0,0-.36-1.7,4.58,4.58,0,0,0-.94-1.41A4.53,4.53,0,0,0,27.09,11.17Z"/><path class="cls-3" d="M31.48,25.8a6.53,6.53,0,0,0-1.39-2.09A6.7,6.7,0,0,0,28,22.32a6.7,6.7,0,0,0-7.3,1.41,6.73,6.73,0,0,0-1.4,2.09,6.37,6.37,0,0,0-.5,2.23H32A6.7,6.7,0,0,0,31.48,25.8Z"/></g></g></g></svg>