<svg id="ArrowUp" xmlns="http://www.w3.org/2000/svg" viewBox="0 0 32 32"><defs><style>.cls-1{fill:#0078d4;}.cls-2{fill:#c2c2c2;}</style></defs><title>SendToUser-blue</title><polygon class="cls-1" points="15.25 9.9 16.86 11.51 22.23 6.14 16.86 0.76 15.25 2.37 17.86 4.99 10.34 4.99 10.34 7.28 17.86 7.28 15.25 9.9"/><path class="cls-2" d="M16,14a4.43,4.43,0,0,0-1.89.42,4.57,4.57,0,1,0,3.78,0A4.47,4.47,0,0,0,16,14Z"/><circle class="cls-2" cx="27.43" cy="8.81" r="2.86"/><path class="cls-2" d="M27.43,12.77a4.56,4.56,0,0,0-4.57,4.57H32A4.57,4.57,0,0,0,27.43,12.77Z"/><circle class="cls-2" cx="4.57" cy="8.81" r="2.86"/><path class="cls-2" d="M4.57,12.77A4.57,4.57,0,0,0,0,17.34H9.14A4.56,4.56,0,0,0,4.57,12.77Z"/><path class="cls-2" d="M16,24.19A6.86,6.86,0,0,0,9.14,31H22.86A6.86,6.86,0,0,0,16,24.19Z"/></svg>