<svg width="32" height="30" viewBox="0 0 32 30" fill="none" xmlns="http://www.w3.org/2000/svg">
<path d="M27.4057 20.7273C28.0219 20.7326 28.6321 20.6055 29.1949 20.3546C30.2897 19.8857 31.1634 19.0153 31.6365 17.9223C31.8799 17.3574 32.0036 16.7482 31.9999 16.1331C32.0013 15.6406 31.9162 15.1517 31.7483 14.6887L28.0207 18.3697L25.1319 15.4715L28.8129 11.7439C28.3586 11.597 27.8829 11.5277 27.4057 11.5389C26.7906 11.5352 26.1814 11.6589 25.6165 11.9023C24.52 12.3735 23.6461 13.2474 23.1749 14.3439C22.9315 14.9088 22.8078 15.518 22.8115 16.1331C22.8096 16.3677 22.8315 16.6018 22.8767 16.832C22.914 17.0557 22.9606 17.2793 23.0165 17.503L14.2567 26.2814C14.0588 26.474 13.9033 26.7056 13.8001 26.9617C13.6893 27.2209 13.6322 27.4999 13.6322 27.7818C13.6322 28.0636 13.6893 28.3426 13.8001 28.6018C14.0155 29.1151 14.4237 29.5233 14.937 29.7387C15.1959 29.8505 15.4751 29.9076 15.7571 29.9065C16.039 29.9068 16.318 29.8497 16.5771 29.7387C16.8312 29.6319 17.0623 29.4768 17.2574 29.2821L26.0358 20.5223C26.2595 20.5689 26.4831 20.6248 26.7068 20.6621C26.9375 20.7032 27.1713 20.725 27.4057 20.7273" fill="#0078D4"/>
<path d="M12.2149 16.005C16.6397 16.005 20.2213 12.4358 20.2213 8.03731C20.1917 6.46876 19.7303 4.94456 18.8951 3.65626C18.0599 2.36796 16.8881 1.37304 15.527 0.79651C14.4776 0.314551 13.3479 0.06604 12.2062 0.06604C11.0646 0.06604 9.93482 0.314551 8.88544 0.79651C7.52432 1.37304 6.35252 2.36796 5.5173 3.65626C4.68208 4.94456 4.2207 6.46876 4.19115 8.03731C4.20853 12.4358 7.7988 16.005 12.2149 16.005Z" fill="#C2C2C2"/>
<path d="M12.5032 17.9497C5.60022 17.9497 0 23.3081 0 29.9338H12.6661C12.6661 29.9338 10.151 27.7719 12.4037 25.4514L18.4049 19.4026C16.8614 18.6454 15.1141 18.1213 12.5032 17.9497Z" fill="#C2C2C2"/>
</svg>
