<svg width="32" height="32" viewBox="0 0 32 32" fill="none" xmlns="http://www.w3.org/2000/svg">
<path d="M26.9 16.7748C25.6 15.9248 23.9 15.9248 22.6 16.7748C21.85 17.2748 21 17.6748 20.15 17.9748C19.3 18.2748 18.4 18.4748 17.5 18.6248V21.1248C17.5 22.2248 17.7 23.2748 18.15 24.2748C18.55 25.2748 19.1 26.2248 19.8 27.0248C20.5 27.8748 21.3 28.6748 22.15 29.3748C23 30.0748 23.85 30.6748 24.75 31.2748C25.65 30.6748 26.55 30.0748 27.4 29.3748C28.25 28.6748 29.05 27.8748 29.7 27.0248C30.35 26.1748 30.95 25.2748 31.35 24.2748C31.75 23.2748 32 22.1748 32 21.1248V18.6248C31.1 18.4748 30.2 18.2748 29.35 17.9748C28.5 17.6748 27.7 17.2748 26.9 16.7748Z" fill="#0078D4"/>
<path d="M12.25 17.225C16.85 17.225 20.5 13.525 20.5 8.97498C20.5 4.37498 16.8 0.724976 12.25 0.724976C7.7 0.724976 4 4.42498 4 8.97498C4 13.525 7.7 17.225 12.25 17.225Z" fill="#C2C2C2"/>
<path d="M12.2 19.0248C5.45 19.0248 0 24.4748 0 31.2248H21.35C21.35 31.2248 17.25 28.3748 15.95 25.0248C15.35 23.2748 15.1 21.4748 15.2 19.6248C14.3 19.1248 13.25 18.9748 12.2 19.0248Z" fill="#C2C2C2"/>
</svg>
