<svg xmlns="http://www.w3.org/2000/svg" viewBox="0 0 47.49 31.97"><defs><style>.cls-1{fill:#c2c2c2;}.cls-2{fill:#939393;}.cls-3{fill:#d83b01;}</style></defs><title>universal_security_group</title><g id="Layer_2" data-name="Layer 2"><g id="SYMBOLS"><g id="universal_security_group"><path class="cls-1" d="M26.69,17.07a8.52,8.52,0,1,0-8.54-8.54A8.53,8.53,0,0,0,26.69,17.07Z"/><path class="cls-1" d="M26.67,19.11a12.8,12.8,0,0,0-12.8,12.8H36.31s-4.33-3-5.66-6.54a14.63,14.63,0,0,1-.79-5.66A5.9,5.9,0,0,0,26.67,19.11Z"/><path class="cls-2" d="M0,32H10v0a17,17,0,0,1,1.89-7.79A8.52,8.52,0,0,0,0,32Z"/><path class="cls-2" d="M8.53,8.57a6.39,6.39,0,0,0-.37,12.77c.13,0,.25,0,.37,0s.25,0,.38,0A6.39,6.39,0,0,0,8.53,8.57Z"/><path class="cls-3" d="M42.15,16.67a4.15,4.15,0,0,0-4.55,0A11.53,11.53,0,0,1,35,17.94a15.24,15.24,0,0,1-2.78.68v2.62a8.54,8.54,0,0,0,.66,3.34,12.2,12.2,0,0,0,1.74,2.92A16.41,16.41,0,0,0,37.11,30a25.82,25.82,0,0,0,2.76,2,27,27,0,0,0,2.77-2,16.41,16.41,0,0,0,2.45-2.48,12.53,12.53,0,0,0,1.74-2.92,8.54,8.54,0,0,0,.66-3.34V18.62a15,15,0,0,1-2.78-.68A11.53,11.53,0,0,1,42.15,16.67Z"/></g></g></g></svg>