<svg xmlns="http://www.w3.org/2000/svg" viewBox="0 0 30.07 31.97"><defs><style>.cls-1{fill:#c2c2c2;}.cls-2{fill:#d73910;}</style></defs><title>upload_to_user</title><g id="Layer_2" data-name="Layer 2"><g id="SYMBOLS"><g id="upload_to_user"><path class="cls-1" d="M0,32H5.57v0a9.38,9.38,0,0,1,1-4.32A4.72,4.72,0,0,0,0,32Z"/><path class="cls-1" d="M9.87,27.08a7,7,0,0,0-.76,1,7.4,7.4,0,0,0-.6,1.11A7.1,7.1,0,0,0,7.93,32h10.3a7.1,7.1,0,0,1,1.95-4.88,7.08,7.08,0,0,0-10.31,0Z"/><path class="cls-1" d="M25.33,27.21a4.77,4.77,0,0,0-1.89.4A4.82,4.82,0,0,0,20.6,32h9.47A4.74,4.74,0,0,0,25.33,27.21Z"/><path class="cls-1" d="M25.13,26.05l.2,0,.21,0a2.9,2.9,0,0,0,1.91-.88,3,3,0,0,0-2.12-5,3,3,0,0,0-3,3,2.95,2.95,0,0,0,2.76,2.94Z"/><path class="cls-1" d="M12.35,22.87a4.7,4.7,0,0,0,2.35.81l.34,0c.12,0,.22,0,.33,0a4.71,4.71,0,0,0,1.63-9h0a4.68,4.68,0,0,0-3.92,0h0a4.73,4.73,0,0,0-.73,8.19Z"/><path class="cls-1" d="M4.73,19a3.54,3.54,0,0,0-2.27,6.26,3.46,3.46,0,0,0,2.07.82l.2,0,.21,0A3.46,3.46,0,0,0,7,25.25,3.54,3.54,0,0,0,4.73,19Z"/><polygon class="cls-2" points="15.03 0 9.47 5.57 11.13 7.23 13.85 4.53 13.85 12.31 16.22 12.31 16.22 4.53 18.93 7.23 20.6 5.57 15.03 0"/></g></g></g></svg>