<svg xmlns="http://www.w3.org/2000/svg" viewBox="0 0 35.7 31.97"><defs><style>.cls-1{fill:#c2c2c2;}.cls-2{fill:#2f2f2f;}</style></defs><title>users_settings</title><g id="Layer_2" data-name="Layer 2"><g id="SYMBOLS"><g id="users_settings"><path class="cls-1" d="M12.84,17.1A8.54,8.54,0,1,0,4.29,8.55,8.55,8.55,0,0,0,12.84,17.1Z"/><path class="cls-1" d="M12.82,19.14A12.83,12.83,0,0,0,0,32H22.48S17.84,29.61,16.79,25a11,11,0,0,1-.17-5.09A8.11,8.11,0,0,0,12.82,19.14Z"/><path class="cls-2" d="M33.55,22.25V22a.76.76,0,0,1,0-.15l2.16-1.34-1.32-3.2-2.48.57-.42-.42.57-2.47-3.19-1.33-1.35,2.16h-.6l-1.34-2.16-3.19,1.33.56,2.47-.41.42-2.48-.57-1.33,3.2,2.16,1.34V22c0,.05,0,.1,0,.15s0,.1,0,.15v.15l-2.16,1.34,1.33,3.2,2.48-.57.41.42-.56,2.47,3.19,1.33,1.34-2.16h.6l1.35,2.16,3.19-1.33-.57-2.47q.22-.21.42-.42l2.48.57,1.32-3.2L33.54,22.4A.76.76,0,0,1,33.55,22.25ZM30.1,23.32a3.25,3.25,0,0,1-.67,1,3.14,3.14,0,0,1-1,.67,3.09,3.09,0,0,1-1.22.25A3.13,3.13,0,0,1,26,25a3.25,3.25,0,0,1-1-.67,3.44,3.44,0,0,1-.67-1,3.22,3.22,0,0,1,0-2.44,3.44,3.44,0,0,1,.67-1,3.25,3.25,0,0,1,1-.67A3.13,3.13,0,0,1,27.21,19a3.09,3.09,0,0,1,1.22.25,3.14,3.14,0,0,1,1,.67,3.25,3.25,0,0,1,.67,1,3.1,3.1,0,0,1,0,2.44Z"/></g></g></g></svg>