<svg xmlns="http://www.w3.org/2000/svg" viewBox="0 0 39.47 31.97"><defs><style>.cls-1{fill:#c2c2c2;}.cls-2{fill:#939393;}</style></defs><title>users_people</title><g id="Layer_2" data-name="Layer 2"><g id="SYMBOLS"><g id="users_people"><path class="cls-1" d="M26.69,17.07a8.52,8.52,0,1,0-8.54-8.54A8.53,8.53,0,0,0,26.69,17.07Z"/><path class="cls-1" d="M26.67,19.11a12.8,12.8,0,0,0-12.8,12.8h25.6A12.8,12.8,0,0,0,26.67,19.11Z"/><path class="cls-2" d="M0,32H10v0a17,17,0,0,1,1.89-7.79A8.52,8.52,0,0,0,0,32Z"/><path class="cls-2" d="M8.53,8.57a6.39,6.39,0,0,0-.37,12.77c.13,0,.25,0,.37,0s.25,0,.38,0A6.39,6.39,0,0,0,8.53,8.57Z"/></g></g></g></svg>