<svg xmlns="http://www.w3.org/2000/svg" viewBox="0 0 40.43 31.97"><defs><style>.cls-1{fill:#c2c2c2;}.cls-2{fill:#d2d2d2;}.cls-3{fill:#2f2f2f;}.cls-4{fill:#d83b01;}</style></defs><title>user_mailbox</title><g id="Layer_2" data-name="Layer 2"><g id="SYMBOLS"><g id="user_mailbox"><path class="cls-1" d="M18.92,9.74,5.38,3,3.73,2.14V19h22.5a6.5,6.5,0,0,1,1.33-4.5A7.17,7.17,0,0,1,34.11,12V2.14L32.46,3Z"/><polygon class="cls-2" points="34.11 2.14 34.11 2.14 34.12 2.14 34.11 2.14"/><polygon class="cls-2" points="3.72 2.14 3.73 2.14 3.73 2.14 3.72 2.14"/><polygon class="cls-1" points="18.92 7.61 32.46 0.83 34.11 0.01 34.11 0 3.73 0 3.73 0.01 5.38 0.83 18.92 7.61"/><path class="cls-3" d="M0,16.35V27.64H24.59s1.51-3.06,4.19-3.76a7.23,7.23,0,0,1-2.47-6.94l-22.58,0v-2Z"/><path class="cls-4" d="M33.07,23.43a4.9,4.9,0,1,0-4.91-4.91A4.91,4.91,0,0,0,33.07,23.43Z"/><path class="cls-4" d="M33.06,24.6A7.37,7.37,0,0,0,25.7,32H40.43A7.37,7.37,0,0,0,33.06,24.6Z"/></g></g></g></svg>