<svg xmlns="http://www.w3.org/2000/svg" viewBox="0 0 54.24 31.97"><defs><style>.cls-1{fill:#2f2f2f;}.cls-2{fill:#939393;}.cls-3{fill:#c2c2c2;}</style></defs><title>users_group</title><g id="Layer_2" data-name="Layer 2"><g id="SYMBOLS"><g id="users_group"><path class="cls-1" d="M0,32H10v0a16.89,16.89,0,0,1,1.9-7.79A8.53,8.53,0,0,0,0,32Z"/><path class="cls-2" d="M17.81,23.15a13.33,13.33,0,0,0-1.37,1.71,13,13,0,0,0-1.09,2,12.72,12.72,0,0,0-1,5.06H32.89a12.74,12.74,0,0,1,3.52-8.8,12.77,12.77,0,0,0-18.6,0Z"/><path class="cls-3" d="M45.7,23.39a8.23,8.23,0,0,0-5.24,1.84,8.71,8.71,0,0,0-1.59,1.62,8.46,8.46,0,0,0-1.71,5.08H54.24A8.54,8.54,0,0,0,45.7,23.39Z"/><path class="cls-3" d="M45.33,21.29c.12,0,.24,0,.37,0s.24,0,.37,0A5.29,5.29,0,0,0,51,16a5.35,5.35,0,1,0-5.7,5.3Z"/><path class="cls-2" d="M22.29,15.56A8.55,8.55,0,0,0,26.52,17c.21,0,.41.06.61.06s.4,0,.6-.06A8.51,8.51,0,0,0,30.67.78h0a8.4,8.4,0,0,0-7.07,0h0a8.52,8.52,0,0,0-1.31,14.78Z"/><path class="cls-1" d="M8.54,8.56a6.38,6.38,0,0,0-4.1,11.29,6.31,6.31,0,0,0,3.73,1.48c.12,0,.24,0,.37,0s.25,0,.37,0a6.41,6.41,0,0,0,6-6.37A6.4,6.4,0,0,0,8.54,8.56Z"/></g></g></g></svg>