<svg xmlns="http://www.w3.org/2000/svg" viewBox="0 0 38.93 31.97"><defs><style>.cls-1{fill:#c2c2c2;}.cls-2{fill:#2f2f2f;}</style></defs><title>user_monitor</title><g id="Layer_2" data-name="Layer 2"><g id="SYMBOLS"><g id="user_monitor"><path class="cls-1" d="M12.06,16.05A8,8,0,0,0,15.38.74a7.82,7.82,0,0,0-6.64,0,8,8,0,0,0,3.32,15.31Z"/><path class="cls-1" d="M12,18A12,12,0,0,0,0,30H18.8V19.6A17.56,17.56,0,0,0,12,18Z"/><path class="cls-2" d="M38.93,28.58V18.06a.56.56,0,0,0-.56-.56H21a.56.56,0,0,0-.55.56V28.58a.56.56,0,0,0,.55.56h7.93V30.8H26.07V32h7.07V30.8H30.31V29.14h8.06A.56.56,0,0,0,38.93,28.58Z"/></g></g></g></svg>