<svg xmlns="http://www.w3.org/2000/svg" viewBox="0 0 32 32"><defs><style>.cls-1{fill:#2f2f2f;}</style></defs><title>user_accounts</title><g id="Layer_2" data-name="Layer 2"><g id="SYMBOLS"><g id="user_accounts"><path class="cls-1" d="M0,0V32H32V0ZM30,30H2V2H30Z"/><path class="cls-1" d="M11.15,12.78a5,5,0,0,1-.42-2,5.1,5.1,0,0,1,.42-2A5.44,5.44,0,0,1,12.29,7,5.2,5.2,0,0,1,14,5.89,5.05,5.05,0,0,1,16,5.46a5.11,5.11,0,0,1,2,.43,5.39,5.39,0,0,1,2.81,2.8,5.1,5.1,0,0,1,.42,2,5,5,0,0,1-.42,2A5.39,5.39,0,0,1,18,15.58,5.1,5.1,0,0,1,16,16,5,5,0,0,1,14,15.58a5.37,5.37,0,0,1-1.66-1.13A5.56,5.56,0,0,1,11.15,12.78Z"/><path class="cls-1" d="M8.12,26.1a7.88,7.88,0,0,1,.59-2.67,8.2,8.2,0,0,1,1.68-2.5A7.88,7.88,0,0,1,16,18.63a8,8,0,0,1,3.13.61,7.83,7.83,0,0,1,2.5,1.67,7.82,7.82,0,0,1,2.25,5.19Z"/></g></g></g></svg>