<svg xmlns="http://www.w3.org/2000/svg" viewBox="0 0 45.75 31.97"><defs><style>.cls-1{fill:#d2d2d2;}.cls-2{fill:#939393;}.cls-3{fill:#d83b01;}</style></defs><title>users_phone</title><g id="Layer_2" data-name="Layer 2"><g id="SYMBOLS"><g id="users_phone"><path class="cls-1" d="M25.48,16.3a8.14,8.14,0,1,0-8.15-8.15A8.15,8.15,0,0,0,25.48,16.3Z"/><path class="cls-1" d="M25.47,18.25A12.22,12.22,0,0,0,13.24,30.47H25.07A5,5,0,0,1,24.7,28c.2-1.2,3-4.2,4.67-4.2s3.87,2.11,3.87,2.11l2.92-2.75C33.63,19.35,27.18,18.25,25.47,18.25Z"/><path class="cls-2" d="M0,30.52H9.58v0a16.19,16.19,0,0,1,1.81-7.44A8.13,8.13,0,0,0,0,30.52Z"/><path class="cls-2" d="M8.15,8.18A6.09,6.09,0,0,0,4.23,19a6,6,0,0,0,3.56,1.42c.12,0,.24,0,.36,0s.23,0,.35,0A6,6,0,0,0,12.06,19a6,6,0,0,0,2.2-4.65A6.12,6.12,0,0,0,8.15,8.18Z"/><path class="cls-3" d="M45.75,17a8.44,8.44,0,0,1-.38,2.41A14.66,14.66,0,0,1,44.31,22a20.3,20.3,0,0,1-1.61,2.5,22.59,22.59,0,0,1-2,2.35,20.69,20.69,0,0,1-2.34,2.05,18.9,18.9,0,0,1-2.51,1.64,13.54,13.54,0,0,1-2.54,1.08,8.48,8.48,0,0,1-2.48.39,4.6,4.6,0,0,1-1.27-.15,3.21,3.21,0,0,1-.94-.42,5.12,5.12,0,0,1-.81-.69l-.91-.91a.94.94,0,0,1-.29-.7,1,1,0,0,1,.15-.46,6.74,6.74,0,0,1,.4-.55c.17-.19.35-.39.56-.59l.59-.58.55-.5c.17-.15.3-.28.39-.37a1,1,0,0,1,.71-.29.88.88,0,0,1,.51.16,3.34,3.34,0,0,1,.47.4c.16.15.32.33.49.52a4.51,4.51,0,0,0,.55.52,3.36,3.36,0,0,0,.67.39,2,2,0,0,0,.84.16,2.52,2.52,0,0,0,.9-.17,2.35,2.35,0,0,0,.77-.51l5.9-5.9a2.18,2.18,0,0,0,.5-.77,2.3,2.3,0,0,0,.18-.9,2.06,2.06,0,0,0-.16-.84,3,3,0,0,0-.4-.67,4.43,4.43,0,0,0-.51-.55c-.19-.17-.37-.33-.52-.49a2.86,2.86,0,0,1-.4-.47.86.86,0,0,1-.16-.51,1,1,0,0,1,.29-.71l.37-.39.5-.54c.18-.2.38-.4.58-.6a7.28,7.28,0,0,1,.59-.55,5.18,5.18,0,0,1,.55-.41,1,1,0,0,1,.46-.15.91.91,0,0,1,.69.29l.92.91a4.18,4.18,0,0,1,.68.81,3,3,0,0,1,.42.94A4.66,4.66,0,0,1,45.75,17Z"/></g></g></g></svg>