<svg width="22" height="32" viewBox="0 0 22 32" fill="none" xmlns="http://www.w3.org/2000/svg">
<path d="M4.6022 4.2704H8.86521C8.86521 3.86011 8.86521 3.40979 8.86521 2.90944C8.84948 2.44041 8.90344 1.97164 9.02532 1.51845C9.12363 1.11037 9.33119 0.736749 9.62575 0.437691C10.0114 0.117922 10.5077 -0.0367162 11.0067 0.00738682C11.3512 -0.00266106 11.6934 0.0657797 12.0074 0.207528C12.261 0.325092 12.4786 0.508179 12.6379 0.737903C12.802 0.974144 12.9207 1.23882 12.9881 1.51845C13.0558 1.8184 13.1026 2.12267 13.1282 2.4291C13.1282 2.74933 13.1282 3.06955 13.1282 3.42981C13.1282 3.79006 13.1282 4.04024 13.1282 4.32044H17.3912V6.40191H4.6022V4.2704Z" fill="#2F2F2F"/>
<path d="M11.005 32H0.337463V4.27039H2.46897V8.54341H19.531V4.27039H21.6625V32H11.005Z" fill="#C2C2C2"/>
<path d="M11.0492 20.6548C11.8845 20.6538 12.7008 20.4052 13.395 19.9405C14.0891 19.4759 14.6299 18.8158 14.9492 18.0439C15.2684 17.272 15.3516 16.4228 15.1884 15.6035C15.0252 14.7843 14.6229 14.0318 14.0322 13.4412C13.4415 12.8505 12.6891 12.4481 11.8698 12.2849C11.0506 12.1217 10.2014 12.205 9.42945 12.5242C8.65752 12.8434 7.99751 13.3843 7.53282 14.0784C7.06812 14.7725 6.81959 15.5888 6.81861 16.4242C6.81861 17.5462 7.26433 18.6223 8.05772 19.4156C8.85111 20.209 9.92717 20.6548 11.0492 20.6548V20.6548Z" fill="#0078D4"/>
<path d="M11.0433 21.6636C10.2088 21.6642 9.38263 21.8294 8.61202 22.1497C7.8414 22.4699 7.14149 22.939 6.55232 23.53C5.96316 24.121 5.49629 24.8223 5.17844 25.5939C4.86059 26.3655 4.69799 27.1923 4.69994 28.0268H17.3917C17.3936 27.1918 17.2309 26.3647 16.9127 25.5928C16.5946 24.8209 16.1272 24.1193 15.5376 23.5282C14.9479 22.9371 14.2474 22.4682 13.4762 22.1482C12.705 21.8283 11.8783 21.6636 11.0433 21.6636V21.6636Z" fill="#0078D4"/>
</svg>
