<svg xmlns="http://www.w3.org/2000/svg" viewBox="0 0 27.51 35.57"><defs><style>.cls-1{fill:#939393;}.cls-2{fill:#c2c2c2;}.cls-3{fill:#2f2f2f;}</style></defs><title>add_a_document</title><g id="Layer_2" data-name="Layer 2"><g id="SYMBOLS"><g id="add_a_document"><g id="documents_blank"><polygon class="cls-1" points="0 26.16 2.72 26.16 2.72 2.42 13.02 2.42 10.61 0 0 0 0 26.16"/><g id="Artwork_64" data-name="Artwork 64"><path class="cls-2" d="M4.45,4.16V30H15.68V28h4V24l4.13,0V13.84H14.13V4.16Z"/></g><polygon class="cls-1" points="15.74 12.23 23.34 12.23 15.74 4.63 15.74 12.23"/></g><polygon class="cls-3" points="23.51 29.57 23.51 29.55 23.51 25.57 21.51 25.57 21.51 29.55 21.51 29.57 17.51 29.57 17.51 31.57 21.51 31.57 21.51 31.58 21.51 35.57 23.51 35.57 23.51 31.58 23.51 31.57 27.51 31.57 27.51 29.57 23.51 29.57"/></g></g></g></svg>