<svg xmlns="http://www.w3.org/2000/svg" viewBox="0 0 24 32"><defs><style>.cls-1{fill:#c2c2c2;}.cls-2{fill:#939393;}.cls-3{fill:#2f2f2f;}.cls-4{fill:#d83b01;}</style></defs><title>analytics_2</title><g id="Layer_2" data-name="Layer 2"><g id="SYMBOLS"><g id="analytics_2"><path class="cls-1" d="M14,10V0H0V32H24V10ZM4.06,15.57h-2v-2h2Zm0-3.62h-2V10h2Z"/><polygon class="cls-2" points="15.99 0.01 15.99 8.01 23.99 8.01 15.99 0.01"/><rect class="cls-3" x="2.1" y="13.61" width="1.96" height="1.96"/><rect class="cls-4" x="2.1" y="9.99" width="1.96" height="1.96"/><path class="cls-4" d="M5.37,21.79a6.94,6.94,0,0,0,6.94,6.94v-2A4.93,4.93,0,0,1,11.43,17v-2A6.93,6.93,0,0,0,5.37,21.79Z"/><path class="cls-3" d="M13.42,15V17a4.93,4.93,0,0,1,3.82,4.79h2A6.94,6.94,0,0,0,13.42,15Z"/></g></g></g></svg>