<svg id="ArrowUp" xmlns="http://www.w3.org/2000/svg" viewBox="0 0 32 32"><defs><style>.cls-1{fill:#d2d2d2;}.cls-2{fill:#c2c2c2;}.cls-3{fill:#0080c8;}.cls-4{fill:#0078d4;}.cls-5{fill:#2f2f2f;}</style></defs><title>AnalyticsUsageReportChartDocument-blue</title><path class="cls-1" d="M28,32V10H18V.06H4V32H28Zm-9.35-5.91-1.74-6.73a.2.2,0,0,1,.13,0,.19.19,0,0,1,.08.12l1.22,5H20.2ZM6.23,10h2v2h-2Zm0,3.62h2v1.95h-2ZM11.17,28.3c-.11-.11-.18-.11-.29,0L9.52,29.66H6.23v-1H9.11l1.06-1.06a1.21,1.21,0,0,1,1.71,0l1.35,1.34,2.49-9.68a.64.64,0,0,1,.08-.19,1.13,1.13,0,0,1,.35-.46,1.06,1.06,0,0,1,.49-.21h0a1.21,1.21,0,0,1,1,.22.75.75,0,0,1,.11.13h0l-.11-.13a1.25,1.25,0,0,0-1-.21l-.84-3.26-.1-.41a.23.23,0,0,0-.07-.11.22.22,0,0,0-.27,0,.19.19,0,0,0-.07.11l-1.22,5H11.94a.17.17,0,0,0-.13.05.17.17,0,0,0-.07.1l-.9,3.56H6.26v-1h3.8l.71-2.79A1.16,1.16,0,0,1,11.2,19a1.19,1.19,0,0,1,.74-.26h1.34l1-4.25a1.19,1.19,0,0,1,1.48-.87,1.17,1.17,0,0,1,.44.2,1.16,1.16,0,0,1,.43.67l1.09,4.24h0a1.18,1.18,0,0,1,.31.54l1,4.25h.69l.72-.71a1.2,1.2,0,0,1,1.7,0l1.07,1.07h2.88v1h-3.3L21.5,23.52c-.1-.1-.18-.1-.29,0L21,23.7a1.19,1.19,0,0,0-.59-.17h0a1.19,1.19,0,0,1,.59.17h0l.15.08a1.16,1.16,0,0,1,.43.67l.7,2.79h3.81v1H21.54l-.89-3.56a.23.23,0,0,0-.07-.11.21.21,0,0,0-.14,0H18.32l-1.23-5a.18.18,0,0,0-.07-.13.21.21,0,0,0-.13,0,.22.22,0,0,0-.13,0,.14.14,0,0,0-.07.1l-.89,3.44-2,7.93Z"/><polygon class="cls-2" points="19.98 0 19.98 7.98 27.96 7.98 19.98 0"/><rect class="cls-3" x="6.23" y="10.02" width="1.96" height="1.95"/><path class="cls-4" d="M21,23.7l.18-.18c.11-.1.19-.1.29,0l1.36,1.36h3.3v-1H23.28l-1.07-1.07a1.2,1.2,0,0,0-1.7,0l-.72.71h.65A1.19,1.19,0,0,1,21,23.7Z"/><path class="cls-4" d="M17.1,19.52A.19.19,0,0,0,17,19.4a.2.2,0,0,0-.13,0l1.74,6.73,1.57-1.56H18.32Z"/><path class="cls-4" d="M16.24,13.83a1.17,1.17,0,0,0-.44-.2,1.19,1.19,0,0,0-1.48.87l-1,4.25H11.94a1.19,1.19,0,0,0-.74.26,1.16,1.16,0,0,0-.43.66l-.71,2.79H6.26v1h4.58l.9-3.56a.17.17,0,0,1,.07-.1.17.17,0,0,1,.13-.05h2.13l1.22-5a.19.19,0,0,1,.07-.11.22.22,0,0,1,.27,0,.23.23,0,0,1,.07.11l.1.41.84,3.26a1.25,1.25,0,0,1,1,.21l.11.13L16.67,14.5A1.16,1.16,0,0,0,16.24,13.83Z"/><path class="cls-5" d="M16.69,19.5a.14.14,0,0,1,.07-.1.22.22,0,0,1,.13,0,.21.21,0,0,1,.13,0,.18.18,0,0,1,.07.13l1.23,5h2.12a.21.21,0,0,1,.14,0,.23.23,0,0,1,.07.11l.89,3.56h4.59v-1H22.32l-.7-2.79a1.16,1.16,0,0,0-.43-.67L21,23.7h0a1.19,1.19,0,0,0-.59-.17H19.1l-1-4.25a1.18,1.18,0,0,0-.31-.54h0a.75.75,0,0,0-.11-.13,1.21,1.21,0,0,0-1-.22h0a1.06,1.06,0,0,0-.49.21,1.13,1.13,0,0,0-.35.46.64.64,0,0,0-.08.19l-2.49,9.68L11.88,27.6a1.21,1.21,0,0,0-1.71,0L9.11,28.66H6.23v1H9.52l1.36-1.36c.11-.11.18-.11.29,0l2.59,2.57,2-7.93Z"/><rect class="cls-5" x="6.23" y="13.64" width="1.96" height="1.96"/></svg>