<svg xmlns="http://www.w3.org/2000/svg" viewBox="0 0 24 32"><defs><style>.cls-1{fill:#e6e6e6;}.Anon-5{fill:#d2d2d2;}.cls-2{fill:#c2c2c2;}.cls-3{fill:#939393;}.cls-4{fill:#2f2f2f;}.cls-5{fill:#d83b01;}</style></defs><title>analytics_3</title><g id="Layer_2" data-name="Layer 2"><g id="SYMBOLS"><g id="analytics_3"><g id="Artwork_64" data-name="Artwork 64"><path class="cls-1" d="M0,0V32H24V10H14V0Z"/></g><polygon class="Anon-5" points="15.99 8.01 23.99 8.01 15.99 0.01 15.99 8.01"/><g id="Artwork_64-2" data-name="Artwork 64"><path class="cls-2" d="M0,0V32H24V10H14V0Z"/></g><polygon class="cls-3" points="15.99 8.01 23.99 8.01 15.99 0.01 15.99 8.01"/><path class="cls-4" d="M7.06,20a.69.69,0,0,1,.25-.38.71.71,0,0,1,.44-.15H9.49l1.13-4.64a.73.73,0,0,1,.69-.55.7.7,0,0,1,.44.16.61.61,0,0,1,.25.38l2.72,10.54,2-2a.7.7,0,0,1,1,0l1.21,1.21H22v5.24H2.06V23.15h4.2Z"/><rect class="cls-4" x="2.03" y="13.61" width="1.96" height="1.96"/><rect class="cls-5" x="2.03" y="9.99" width="1.96" height="1.96"/><path class="cls-1" d="M7.16,29.81l1.58-6.34a.77.77,0,0,1,.76-.6m0,0a.77.77,0,0,1,.75.57L12,29.81H14.1L14,29.27l-1.77-6.36a2.76,2.76,0,0,0-2.68-2h0A2.77,2.77,0,0,0,6.8,23L5.22,29.33l-.11.46,2.05,0H12"/><path class="cls-5" d="M10.26,23.44,12,29.81H7.17l1.58-6.34A.78.78,0,0,1,10.26,23.44Z"/></g></g></g></svg>