<svg id="ArrowUp" xmlns="http://www.w3.org/2000/svg" viewBox="0 0 32 32"><defs><style>.cls-1{fill:#d2d2d2;}.cls-2{fill:#c2c2c2;}.cls-3{fill:#2f2f2f;}.cls-4{fill:#0078d4;}</style></defs><title>Analytics2ChartDocument-blue</title><path class="cls-1" d="M28,10H18V0H4V32H28ZM8.06,15.57h-2v-2h2Zm0-3.62h-2V10h2Zm8.25,16.78a6.93,6.93,0,0,1-.88-13.81v2a4.93,4.93,0,0,0,.88,9.79Zm4.93-6.94A4.92,4.92,0,0,0,17.42,17V15a6.94,6.94,0,0,1,5.82,6.84Z"/><polygon class="cls-2" points="19.99 8.01 27.99 8.01 19.99 0.01 19.99 8.01"/><rect class="cls-3" x="6.1" y="13.61" width="1.96" height="1.96"/><rect class="cls-4" x="6.1" y="9.99" width="1.96" height="1.96"/><path class="cls-4" d="M11.37,21.79a4.94,4.94,0,0,1,4.06-4.85v-2a6.93,6.93,0,0,0,.88,13.81v-2A4.94,4.94,0,0,1,11.37,21.79Z"/><path class="cls-3" d="M17.42,15V17a4.92,4.92,0,0,1,3.82,4.79h2A6.94,6.94,0,0,0,17.42,15Z"/></svg>