<svg width="30" height="32" viewBox="0 0 30 32" fill="none" xmlns="http://www.w3.org/2000/svg">
<path d="M24.3522 29.3213L21.9748 31.6875L21.6623 32H24.3522V29.3213Z" fill="#C2C2C2"/>
<path d="M15.7133 25.4259L20.4011 30.1137L24.3523 26.1626L20.4011 30.1137L15.7133 25.4259Z" fill="#C2C2C2"/>
<path d="M0.343918 0V32H19.1399L18.8162 31.6875L14.1395 26.9996L12.5546 25.4259L14.1395 23.8409L15.7133 22.2672L17.2982 20.6934L18.872 22.2672L20.4011 23.7963L24.3523 19.8451V9.98953H14.3404V0H0.343918Z" fill="#C2C2C2"/>
<path d="M16.2379 8.58306H24.0509L16.2379 0.77002V8.58306Z" fill="#C2C2C2"/>
<path d="M24.3523 23.0038L20.4011 26.9549L17.2982 23.852L15.7133 25.4258L20.4011 30.1136L24.3523 26.1625L30 20.5147L28.4151 18.9298L24.3523 23.0038Z" fill="#0078D4"/>
</svg>
