<svg xmlns="http://www.w3.org/2000/svg" viewBox="0 0 27.97 31.97"><defs><style>.cls-1{fill:#fff;}.cls-2{fill:#c2c2c2;}.cls-3{fill:#d83b01;}.cls-4{fill:#2f2f2f;}</style></defs><title>document_publisher</title><g id="Layer_2" data-name="Layer 2"><g id="SYMBOLS"><g id="document_publisher"><rect class="cls-1" x="15.98" y="19.92" width="5.99" height="5.99"/><path class="cls-2" d="M0,0V32H28V0ZM4,4H24V6H4ZM4,7.9H24v2H4Zm0,4.36H24v2H4Zm8,15.66H4v-2h8Zm0-4H4v-2h8Zm0-4H4v-2h8Zm12,8H14v-10H24Z"/><rect class="cls-3" x="4" y="17.93" width="7.98" height="2"/><rect class="cls-1" x="4" y="21.92" width="7.98" height="2"/><rect class="cls-1" x="4" y="25.92" width="7.98" height="2"/><rect class="cls-1" x="4" y="7.9" width="19.96" height="2"/><rect class="cls-4" x="4" y="3.98" width="19.96" height="2"/><rect class="cls-1" x="4" y="12.26" width="19.96" height="2"/><path class="cls-4" d="M14,27.92H24v-10H14Zm2-8h6v6H16Z"/></g></g></g></svg>