<svg xmlns="http://www.w3.org/2000/svg" viewBox="0 0 32.21 31.97"><defs><style>.cls-1{fill:#c2c2c2;}.cls-2{fill:#939393;}.cls-3{fill:#2f2f2f;}.cls-4{fill:#db4519;}</style></defs><title>document_shared</title><g id="Layer_2" data-name="Layer 2"><g id="SYMBOLS"><g id="document_shared"><path class="cls-1" d="M18.35,27.62c-2.42-1.44-2-5.16.22-6.36a3.9,3.9,0,0,1,3.82,0l2.54-1.45V10h-10L14.84,0H0V32H24.92l0-3.17-2.11-1.19A4.66,4.66,0,0,1,18.35,27.62Z"/><polygon class="cls-2" points="16.88 0.59 16.88 8.58 24.86 8.58 16.88 0.59"/><path class="cls-3" d="M23.13,26.2l3.76,2.08a2.81,2.81,0,0,1,.58-1.11l-3.7-2.06A3.22,3.22,0,0,1,23.13,26.2Z"/><path class="cls-3" d="M23.73,23.81l3.56-2a2.7,2.7,0,0,1-.55-1.14l-3.61,2A5.21,5.21,0,0,1,23.73,23.81Z"/><path class="cls-4" d="M20.35,22.21a2.24,2.24,0,1,0,2.24,2.24A2.24,2.24,0,0,0,20.35,22.21Z"/><path class="cls-4" d="M30,21.93a2.24,2.24,0,1,0-2.24-2.24A2.23,2.23,0,0,0,30,21.93Z"/><path class="cls-4" d="M30,27.11a2.24,2.24,0,1,0,2.23,2.24A2.24,2.24,0,0,0,30,27.11Z"/></g></g></g></svg>