<svg xmlns="http://www.w3.org/2000/svg" viewBox="0 0 32 21.98"><defs><style>.cls-1{fill:#c2c2c2;}.cls-2{fill:#fff;}.cls-3{fill:#d83b01;}.cls-4{fill:#2f2f2f;}</style></defs><title>document_powerpoint (2)</title><g id="Layer_2" data-name="Layer 2"><g id="SYMBOLS"><g id="document_powerpoint"><path class="cls-1" d="M0,0V22H32V0ZM6,20H2V17H6Zm0-5.16H2v-3H6ZM6,9.9H2V7H6ZM6,5H2V2H6ZM30,20H8V2H30Z"/><rect class="cls-2" x="2.01" y="2.04" width="4" height="2.95"/><rect class="cls-3" x="2.01" y="11.87" width="4" height="2.95"/><rect class="cls-2" x="2.01" y="17.03" width="4" height="2.95"/><path class="cls-1" d="M21.05,18.76A6.91,6.91,0,0,0,22.38,5.07l-1.33,6.78-6,3.39A6.92,6.92,0,0,0,21.05,18.76Z"/><path class="cls-3" d="M17.91,11.47,11,10.56a5.12,5.12,0,0,0,0,.56,6.89,6.89,0,0,0,1.05,3.65Z"/><path class="cls-4" d="M20.75,3.28a6.88,6.88,0,0,0-8.44,5.87l7.1.93Z"/></g></g></g></svg>