<svg id="ArrowUp" xmlns="http://www.w3.org/2000/svg" viewBox="0 0 32 32"><defs><style>.cls-1{fill:none;}.cls-2{fill:#c2c2c2;}.cls-3{fill:#d2d2d2;}.cls-4{fill:#0078d4;}.cls-5{fill:#2f2f2f;}</style></defs><title>DocumentSync-blue</title><polygon class="cls-1" points="6.66 1.67 5.21 0.23 6.66 1.67 6.66 1.67"/><polygon class="cls-2" points="6.66 1.67 10.44 5.46 6.66 1.67 6.66 1.67"/><polygon class="cls-2" points="26.69 29.25 24.46 31.48 24.16 31.77 26.69 31.77 26.69 29.25"/><polygon class="cls-2" points="18.57 25.59 18.57 25.59 22.97 29.99 26.69 26.28 22.97 29.99 18.57 25.59"/><polygon class="cls-2" points="4.11 4.3 4.18 4.22 4.18 4.22 4.11 4.3"/><polygon class="cls-3" points="9.63 1.67 11.93 3.97 13.41 5.46 11.93 6.94 10.44 8.43 8.96 9.91 8.38 9.34 8.38 13.34 8.38 15.43 6.28 15.43 4.18 15.43 4.11 15.43 4.11 31.77 21.79 31.77 21.49 31.48 17.08 27.07 15.6 25.59 17.08 24.1 18.57 22.62 20.05 21.13 21.54 22.62 22.97 24.05 26.69 20.34 26.69 11.07 17.28 11.07 17.28 1.67 9.63 1.67"/><polygon class="cls-2" points="19.07 9.74 26.41 9.74 19.07 2.4 19.07 9.74"/><polygon class="cls-4" points="26.69 23.31 22.97 27.02 20.05 24.1 18.57 25.59 22.97 29.99 26.69 26.28 32 20.96 30.52 19.48 26.69 23.31"/><polygon class="cls-5" points="5.21 0.23 0 5.44 1.49 6.92 4.11 4.3 4.18 4.22 4.18 4.22 4.18 13.34 6.28 13.34 6.28 4.27 6.28 4.27 8.96 6.94 10.44 5.46 6.66 1.67 5.21 0.23"/></svg>