<svg id="ArrowUp" xmlns="http://www.w3.org/2000/svg" viewBox="0 0 32 32"><defs><style>.cls-1{fill:#c2c2c2;}.cls-2{fill:#2f2f2f;}.cls-3{fill:#0078d4;}</style></defs><title>DocumentFinance-blue</title><path class="cls-1" d="M30,0H2V32H30ZM28,30H4V24H28ZM14,13v2H6V13ZM6,10V8H18v2Zm8,8v2H6V18ZM24.59,13,26,14.38l-5.64,5.68L19,18.66ZM19,14a1,1,0,0,1,1-1,.94.94,0,0,1,.7.3,1,1,0,0,1,.3.7,1,1,0,0,1-1,1,1,1,0,0,1-.7-.3A.94.94,0,0,1,19,14Zm3-4V8h4v2Zm4,9a.93.93,0,0,1-.29.7A1,1,0,0,1,25,20a1,1,0,0,1-.71-.29A1,1,0,0,1,24,19a1,1,0,0,1,1.71-.7A.94.94,0,0,1,26,19ZM28,4H4V2H28Z"/><rect class="cls-2" x="4" y="2.02" width="24" height="1.98"/><rect class="cls-1" x="6.02" y="26.03" width="12" height="2"/><polygon class="cls-3" points="20.38 20.06 26.02 14.38 24.59 12.97 18.95 18.66 20.38 20.06"/><path class="cls-3" d="M20.7,14.73A.94.94,0,0,0,21,14a1,1,0,0,0-.3-.7A.94.94,0,0,0,20,13a1,1,0,0,0-1,1,.94.94,0,0,0,.3.7,1,1,0,0,0,.7.3A.94.94,0,0,0,20.7,14.73Z"/><rect class="cls-3" x="22" y="8" width="4" height="2"/><rect class="cls-1" x="22" y="26.03" width="4" height="2"/><path class="cls-3" d="M24.28,18.33a1,1,0,0,0-.3.7,1,1,0,0,0,.29.71A1,1,0,0,0,25,20a1,1,0,0,0,.71-.3A.93.93,0,0,0,26,19a.94.94,0,0,0-.29-.7,1,1,0,0,0-1.41,0Z"/></svg>