<svg xmlns="http://www.w3.org/2000/svg" viewBox="0 0 31.97 25.74"><defs><style>.cls-1{fill:#c2c2c2;}.cls-2{fill:#d73910;}.cls-3{fill:#fff;}</style></defs><title>document_powerpoint</title><g id="Layer_2" data-name="Layer 2"><g id="SYMBOLS"><g id="document_powerpoint"><path class="cls-1" d="M.14,4h0V25.74H31.85V4H.14Zm6,19.79h-4V20.84h4Zm0-5.11h-4V15.72h4Zm0-4.87h-4V10.85h4Zm0-4.87h-4V6h4ZM29.85,23.76H8.08V6H29.85Z"/><polygon class="cls-2" points="31.84 1.99 31.85 1.99 31.85 0 0.14 0 0.14 1.99 0.14 1.99 31.84 1.99"/><rect class="cls-2" x="2.14" y="5.99" width="3.96" height="2.92"/><rect class="cls-3" x="2.14" y="15.72" width="3.96" height="2.92"/><rect class="cls-3" x="2.14" y="20.84" width="3.96" height="2.92"/><rect class="cls-3" x="31.85" y="1.99" width="0.12" height="1.98"/><rect class="cls-3" y="1.99" width="0.14" height="1.98"/><rect class="cls-3" x="0.14" y="1.99" height="1.98"/><rect class="cls-3" x="31.83" y="1.99" width="0.02" height="1.98"/></g></g></g></svg>