<svg id="ArrowUp" xmlns="http://www.w3.org/2000/svg" viewBox="0 0 32 32"><defs><style>.cls-1{fill:#c2c2c2;}.cls-2{fill:#2f2f2f;}.cls-3{fill:#0078d4;}</style></defs><title>Document3-blue</title><path class="cls-1" d="M30,.05H2v32H30Zm-24,6H18v2H6ZM18,26H6V24H18Zm.05-9H6v-2H18Zm6,10-1.95-4h4Zm-2-9,2-4,2.05,4Zm0-9,2.1-4,1.92,4Z"/><rect class="cls-2" x="6.03" y="6.08" width="11.92" height="2"/><rect class="cls-3" x="6.03" y="15.06" width="11.97" height="2"/><rect class="cls-2" x="6.03" y="24.03" width="11.92" height="2"/><polygon class="cls-3" points="21.95 18.05 26 18.05 23.95 14.05 21.95 18.05"/><polygon class="cls-2" points="21.98 9.05 26 9.05 24.08 5.05 21.98 9.05"/><polygon class="cls-2" points="23.98 27.03 26 23.05 22.03 23.05 23.98 27.03"/></svg>