<svg xmlns="http://www.w3.org/2000/svg" viewBox="0 0 31.97 25.12"><defs><style>.cls-1{fill:#c2c2c2;}.cls-2{fill:#fff;}.cls-3{fill:#2f2f2f;}.cls-4{fill:#d83b01;}</style></defs><title>files</title><g id="Layer_2" data-name="Layer 2"><g id="SYMBOLS"><g id="files"><rect class="cls-1" y="4.57" width="9.13" height="2.27"/><path class="cls-1" d="M11.42,20.59h9.13v0H32v-16H11.42ZM13.7,6.85h16V9.13h-16Zm0,4.57h16V13.7h-16Zm0,4.56h16v2.29h-16Z"/><polygon class="cls-1" points="2.28 20.59 9.13 20.59 9.13 18.3 2.28 18.3 2.28 16.02 9.13 16.02 9.13 13.7 2.28 13.7 2.28 11.42 9.13 11.42 9.13 9.12 0 9.12 0 25.12 20.55 25.12 20.55 22.87 2.28 22.87 2.28 20.59"/><rect class="cls-1" x="11.42" width="20.55" height="2.28"/><rect class="cls-2" x="13.7" y="15.98" width="15.98" height="2.28"/><rect class="cls-2" x="13.7" y="6.85" width="15.98" height="2.28"/><rect class="cls-3" x="13.7" y="11.42" width="15.98" height="2.28"/><rect class="cls-4" x="2.28" y="11.42" width="6.85" height="2.28"/></g></g></g></svg>