<svg id="ArrowUp" xmlns="http://www.w3.org/2000/svg" viewBox="0 0 32 32"><defs><style>.cls-1{fill:#c2c2c2;}.cls-2{fill:#2f2f2f;}.cls-3{fill:#0078d4;}</style></defs><title>Files-blue</title><rect class="cls-1" y="8" width="9.14" height="2.27"/><path class="cls-1" d="M20.57,24H32V8H11.43V24h9.14ZM13.71,10.29h16v2.28h-16Zm0,4.57h16v2.28h-16Zm0,4.57h16v2.28h-16Z"/><polygon class="cls-1" points="20.57 26.32 2.29 26.32 2.29 24.04 9.14 24.04 9.14 21.75 2.29 21.75 2.29 19.46 9.14 19.46 9.14 17.14 2.29 17.14 2.29 14.86 9.14 14.86 9.14 12.55 0 12.55 0 28.57 20.57 28.57 20.57 26.32"/><rect class="cls-1" x="11.43" y="3.43" width="20.57" height="2.29"/><rect class="cls-2" x="13.71" y="14.86" width="16" height="2.29"/><rect class="cls-3" x="2.29" y="14.86" width="6.86" height="2.29"/></svg>