<svg xmlns="http://www.w3.org/2000/svg" viewBox="0 0 20.85 31.97"><defs><style>.cls-1{fill:#c2c2c2;}</style></defs><title>folder_open</title><g id="Layer_2" data-name="Layer 2"><g id="SYMBOLS"><g id="folder_open"><path class="cls-1" d="M7,7.42,0,.47V27.33L4.63,32V25.05A2.45,2.45,0,0,1,5,23.67a5.71,5.71,0,0,1,.79-1c.29-.28.56-.53.8-.74A.87.87,0,0,0,7,21.29Z"/><path class="cls-1" d="M20.85,0H2.79L8.6,5.79a2.44,2.44,0,0,1,.49.75,2.35,2.35,0,0,1,.18.88V21.29a2.53,2.53,0,0,1-.36,1.38,5.85,5.85,0,0,1-.8,1c-.29.28-.56.53-.8.74a.89.89,0,0,0-.36.64V27.8h13.9"/></g></g></g></svg>