<svg xmlns="http://www.w3.org/2000/svg" viewBox="0 0 24.16 31.97"><defs><style>.cls-1{fill:#c2c2c2;}.cls-2{fill:#d83b01;}</style></defs><title>folder_upload</title><g id="Layer_2" data-name="Layer 2"><g id="SYMBOLS"><g id="folder_upload"><polygon class="cls-1" points="20.14 0 0 0 0 26.18 3.54 26.18 11.08 18.64 18.61 26.18 22.15 26.18 22.15 15.28 20.14 13.26 20.14 0"/><polygon class="cls-1" points="22.15 0 22.15 12.41 23.16 13.44 24.16 12.41 24.16 0 22.15 0"/><polygon class="cls-2" points="11.08 21.49 6.39 26.18 6.34 26.23 7.76 27.64 9.23 26.18 10.07 25.34 10.07 26.18 10.07 31.97 12.08 31.97 12.08 26.18 12.08 25.34 12.92 26.18 14.39 27.64 15.81 26.23 15.76 26.18 11.08 21.49"/></g></g></g></svg>