<svg xmlns="http://www.w3.org/2000/svg" viewBox="0 0 26.1 31.97"><defs><style>.cls-1{fill:#c2c2c2;}.cls-2{fill:#2f2f2f;}</style></defs><title>folder_sync</title><g id="Layer_2" data-name="Layer 2"><g id="SYMBOLS"><g id="folder_sync"><path class="cls-1" d="M13.86,29.27a7.58,7.58,0,0,1,0-4,8,8,0,0,1,.76-1.8,7.67,7.67,0,0,1,1.19-1.53,7.85,7.85,0,0,1,1.52-1.18,7.55,7.55,0,0,1,1.8-.76,7.58,7.58,0,0,1,4,0c.24.07.48.16.71.25V16.45l-2.17-2.17V0H0V32H15.25c-.22-.29-.44-.59-.63-.9A8,8,0,0,1,13.86,29.27Z"/><polygon class="cls-1" points="26.02 13.36 26.02 0 23.85 0 23.85 13.36 24.93 14.46 26.02 13.36"/><path class="cls-2" d="M24.8,22.73v1.81a3.65,3.65,0,0,0-.69-.78,9.3,9.3,0,0,0-.86-.56,4.68,4.68,0,0,0-1-.35,4.61,4.61,0,0,0-1-.12,4.42,4.42,0,0,0-1.58.28,4.35,4.35,0,0,0-1.35.8A4,4,0,0,0,17.37,25,3.59,3.59,0,0,0,17,26.62h1.29a2.22,2.22,0,0,1,.25-1.07,2.46,2.46,0,0,1,.66-.81,3,3,0,0,1,.93-.53A3.36,3.36,0,0,1,21.24,24a3.09,3.09,0,0,1,1.42.34,2.69,2.69,0,0,1,1.1,1H22.21v1.3H26.1V22.73Z"/><path class="cls-2" d="M24.8,27.91A2.18,2.18,0,0,1,24.55,29a2.77,2.77,0,0,1-.66.82l0,0a3.16,3.16,0,0,1-.9.5,3.19,3.19,0,0,1-1.06.18,3.26,3.26,0,0,1-1.43-.33,2.76,2.76,0,0,1-1.1-1h1.55v-1.3H17V31.8h1.29V30a3.67,3.67,0,0,0,.7.77,3.78,3.78,0,0,0,.86.57,4.56,4.56,0,0,0,3.59.19,3.37,3.37,0,0,0,.38-.19,3.83,3.83,0,0,0,1.9-1.84,3.59,3.59,0,0,0,.35-1.58Z"/></g></g></g></svg>