<svg xmlns="http://www.w3.org/2000/svg" viewBox="0 0 31.97 30.17"><defs><style>.cls-1{fill:#c2c2c2;}.cls-2{fill:#2f2f2f;}.cls-3{fill:#db4519;}</style></defs><title>folder_shared</title><g id="Layer_2" data-name="Layer 2"><g id="SYMBOLS"><g id="folder_shared"><g id="Artwork_247" data-name="Artwork 247"><path class="cls-1" d="M0,25.74V4.29H14.12l2.15-2.15H31.63v10.5a3.08,3.08,0,0,0-2.26-1A4.07,4.07,0,0,0,25,15.31l-5.24,2.87a4,4,0,0,0-6.38,2.76c-.14,2.54,1.73,4.89,5.12,4.22v.58Z"/></g><polygon class="cls-1" points="13.22 2.15 0 2.15 0 0 13.22 0 14.31 1.07 13.22 2.15"/><path class="cls-2" d="M20.81,23.54l4.62,2.57a3.32,3.32,0,0,1,.71-1.37L21.6,22.21A3.94,3.94,0,0,1,20.81,23.54Z"/><path class="cls-2" d="M21.54,20.62l4.38-2.42a3.28,3.28,0,0,1-.68-1.4l-4.43,2.44A5.67,5.67,0,0,1,21.54,20.62Z"/><path class="cls-3" d="M17.4,18.65a2.75,2.75,0,1,0,2.75,2.75A2.75,2.75,0,0,0,17.4,18.65Z"/><path class="cls-3" d="M29.22,18.3a2.75,2.75,0,1,0-2.75-2.75A2.75,2.75,0,0,0,29.22,18.3Z"/><path class="cls-3" d="M29.22,24.67A2.75,2.75,0,1,0,32,27.42,2.75,2.75,0,0,0,29.22,24.67Z"/></g></g></g></svg>