<svg id="ArrowUp" xmlns="http://www.w3.org/2000/svg" viewBox="0 0 32 32"><defs><style>.cls-1{fill:#c2c2c2;}.cls-2{fill:#0078d4;}</style></defs><title>FolderSync2-blue</title><path class="cls-1" d="M4,21.69a2.19,2.19,0,0,1,.32-1.2A5.08,5.08,0,0,1,5,19.62c.25-.24.48-.46.69-.64A.75.75,0,0,0,6,18.42v-12l-6-6V23.67l4,4Z"/><path class="cls-1" d="M17.1-.06V.35L15.93,1.52a2,2,0,0,0-.53,1.87H13.13A2,2,0,0,0,11.74,4h-.25v.28a2.06,2.06,0,0,0-.37,1.17V7.54a2,2,0,0,0,.37,1.17,2,2,0,0,0,1.64.84H15.4a1.12,1.12,0,0,0,0,.32,2,2,0,0,0-1.13.55l-2.75,2.74L9.2,15.46a2,2,0,0,0,0,2.84l2.29,2.31v3.47H6V21.69a.77.77,0,0,1,.32-.56c.21-.18.44-.39.69-.64a4.72,4.72,0,0,0,.69-.87A2.16,2.16,0,0,0,8,18.42v-12A2,2,0,0,0,7.46,5l-5-5Z"/><path class="cls-1" d="M11.49,32.06H30V19.21l-2-2V4H24.22l1.1,1.1a2,2,0,0,1,0,2.85l-4.93,4.93-.11.1a2,2,0,0,1-1.12.57c0,.1,0,.2,0,.3h2.26a2,2,0,0,1,2,2V18a2,2,0,0,1-2,2H19.13a2.05,2.05,0,0,1-.54,1.87L17.1,23.33l0,0a2,2,0,0,1-2.84,0l-.11-.11L11.49,20.6V32.06Z"/><path class="cls-1" d="M11.49,4.24A2.37,2.37,0,0,1,11.74,4h-.25Z"/><polygon class="cls-1" points="32 16.35 32 3.95 29.99 3.95 29.99 16.35 30.99 17.38 32 16.35"/><polygon class="cls-2" points="21.38 3.95 18.97 1.54 18.86 1.44 17.35 2.94 18.36 3.95 18.97 4.57 19.8 5.4 18.97 5.4 17.1 5.4 13.13 5.4 13.13 7.54 17.1 7.54 18.97 7.54 19.8 7.54 18.97 8.38 17.35 10.01 18.86 11.51 18.97 11.4 23.9 6.47 21.38 3.95"/><polygon class="cls-2" points="17.16 20.42 17.1 20.35 17.1 20.48 17.16 20.42"/><polygon class="cls-2" points="17.16 13.35 17.1 13.29 17.1 13.42 17.16 13.35"/><polygon class="cls-2" points="17.1 17.96 21.39 17.96 21.39 15.81 17.1 15.81 15.55 15.81 14.72 15.81 15.55 14.98 17.1 13.42 17.1 13.29 15.66 11.85 15.55 11.95 11.49 16.01 10.62 16.89 11.49 17.76 15.55 21.82 15.66 21.92 17.1 20.48 17.1 20.35 15.55 18.79 14.72 17.96 15.55 17.96 17.1 17.96"/></svg>