<svg id="ArrowUp" xmlns="http://www.w3.org/2000/svg" viewBox="0 0 32 32"><defs><style>.cls-1{fill:#c2c2c2;}.cls-2{fill:#0078d4;}</style></defs><title>FolderSync-blue</title><path class="cls-1" d="M2.94,32H18.21a6.93,6.93,0,0,1-.63-.9,8,8,0,0,1-.77-1.8,7.58,7.58,0,0,1,0-4,7.89,7.89,0,0,1,.77-1.81A8.23,8.23,0,0,1,18.76,22,7.57,7.57,0,0,1,22.09,20a7.58,7.58,0,0,1,4,0c.24.07.48.16.71.25v-3.8l-2.17-2.17V0H2.94Z"/><polygon class="cls-1" points="28.98 13.38 28.98 0 26.81 0 26.81 13.38 27.89 14.48 28.98 13.38"/><path class="cls-2" d="M25.24,22.87a4.61,4.61,0,0,0-1-.12,4.42,4.42,0,0,0-1.58.28,4.35,4.35,0,0,0-1.35.8,4,4,0,0,0-.94,1.24A3.55,3.55,0,0,0,20,26.64h1.3a2.21,2.21,0,0,1,.25-1.06,2.59,2.59,0,0,1,.65-.82,3.46,3.46,0,0,1,.94-.53,3.31,3.31,0,0,1,1.08-.18,3.21,3.21,0,0,1,1.42.33,2.77,2.77,0,0,1,1.1,1H25.17v1.3h3.89V22.75h-1.3v1.81a3.6,3.6,0,0,0-.69-.77,9.15,9.15,0,0,0-.86-.57A4.68,4.68,0,0,0,25.24,22.87Z"/><path class="cls-2" d="M23.87,27.94H20v3.89h1.3V30a3.37,3.37,0,0,0,.69.77,4.28,4.28,0,0,0,.86.57,4.76,4.76,0,0,0,1,.35,4.59,4.59,0,0,0,2.62-.16c.13-.05.25-.12.38-.18a4.16,4.16,0,0,0,1-.62,3.88,3.88,0,0,0,.94-1.23,3.49,3.49,0,0,0,.35-1.58h-1.3A2.18,2.18,0,0,1,27.51,29a2.77,2.77,0,0,1-.66.82l0,0a3.16,3.16,0,0,1-.9.5,3.19,3.19,0,0,1-1.06.18,3.26,3.26,0,0,1-1.43-.33,2.76,2.76,0,0,1-1.1-1h1.55Z"/></svg>