<svg id="ArrowUp" xmlns="http://www.w3.org/2000/svg" viewBox="0 0 32 32"><defs><style>.cls-1{fill:#c2c2c2;}.cls-2{fill:#0078d4;}</style></defs><title>FolderUpload-blue</title><polygon class="cls-1" points="3.9 26.2 7.45 26.2 14.99 18.66 22.54 26.2 26.08 26.2 26.08 15.29 24.06 13.28 24.06 0 3.9 0 3.9 26.2"/><polygon class="cls-1" points="28.09 0 26.08 0 26.08 12.43 27.09 13.45 28.09 12.43 28.09 0"/><polygon class="cls-2" points="13.14 26.2 13.98 25.37 13.98 26.2 13.98 32 16 32 16 26.2 16 25.37 16.84 26.2 18.32 27.67 19.73 26.25 19.68 26.2 14.99 21.51 10.3 26.2 10.25 26.25 11.67 27.67 13.14 26.2"/></svg>