<svg xmlns="http://www.w3.org/2000/svg" viewBox="0 0 31.97 31.97"><defs><style>.cls-1{fill:#c2c2c2;}.cls-2{fill:#d83b01;}</style></defs><title>graph_4</title><g id="Layer_2" data-name="Layer 2"><g id="SYMBOLS"><g id="graph_4"><path class="cls-1" d="M0,0V21.31H3.12L5.39,19a1.29,1.29,0,0,1,.94-.39,1.27,1.27,0,0,1,.93.39L11,22.71,16,3a1.22,1.22,0,0,1,.46-.72A1.32,1.32,0,0,1,17.32,2a1.28,1.28,0,0,1,.83.28,1.31,1.31,0,0,1,.46.74l2.12,8.68H24a1.31,1.31,0,0,1,.82.28,1.26,1.26,0,0,1,.47.72l1.5,5.95H32V0Z"/><path class="cls-2" d="M32,32V21.31H25.72a1.29,1.29,0,0,1-1.29-1l-1.49-5.93H19.69a1.29,1.29,0,0,1-1.29-1L17.27,8.8,13,25.64a1.29,1.29,0,0,1-.47.72,1.31,1.31,0,0,1-.82.28,1.25,1.25,0,0,1-.94-.4L6.33,21.85,4.6,23.58a1.3,1.3,0,0,1-.94.4H0v8Z"/></g></g></g></svg>