<svg xmlns="http://www.w3.org/2000/svg" viewBox="0 0 32 32.25"><defs><style>.cls-1{fill:#2f2f2f;}.cls-2{fill:#d83b01;}.cls-3{fill:#c2c2c2;}</style></defs><title>graph_1</title><g id="Layer_2" data-name="Layer 2"><g id="SYMBOLS"><g id="graph_1"><g id="_Pie_Chart_1" data-name="~Pie Chart 1"><path class="cls-1" d="M15.45,15.05l-14.79-2A15.73,15.73,0,0,1,2.37,7.91,15.39,15.39,0,0,1,5.6,3.76,14.86,14.86,0,0,1,10.05,1a14.21,14.21,0,0,1,5.37-1,15.38,15.38,0,0,1,3,.28Z"/></g><path class="cls-2" d="M14,16.69,1.84,23.5A13.93,13.93,0,0,1,.45,20,15.92,15.92,0,0,1,0,16.16V15.5a4.89,4.89,0,0,1,.05-.66Z"/><path class="cls-3" d="M20,2.12a15.44,15.44,0,0,1,6.23,3,15,15,0,0,1,4.2,5.25A15.44,15.44,0,0,1,32,17.06a15.06,15.06,0,0,1-.52,4A15.41,15.41,0,0,1,30,24.67a15.19,15.19,0,0,1-2.31,3.09,14.46,14.46,0,0,1-3,2.39A15,15,0,0,1,21.1,31.7a14.71,14.71,0,0,1-8,0,14.77,14.77,0,0,1-3.65-1.56,15.2,15.2,0,0,1-3.09-2.46,13.82,13.82,0,0,1-2.33-3.26l13-7.36Z"/></g></g></g></svg>