<svg id="ArrowUp" xmlns="http://www.w3.org/2000/svg" viewBox="0 0 32 32"><defs><style>.cls-1{fill:#c2c2c2;}.cls-2{fill:#0078d4;}</style></defs><title>Graph4-blue</title><path class="cls-1" d="M32,0H0V21.33H3.12L5.4,19.06a1.27,1.27,0,0,1,.93-.39,1.29,1.29,0,0,1,.94.39L11,22.73,16,3a1.33,1.33,0,0,1,1.29-1,1.31,1.31,0,0,1,.84.28,1.34,1.34,0,0,1,.46.74l2.12,8.69H24a1.27,1.27,0,0,1,.82.28,1.24,1.24,0,0,1,.47.72l1.5,6H32Z"/><path class="cls-2" d="M32,21.33H25.75a1.29,1.29,0,0,1-1.29-1L23,14.38H19.71a1.27,1.27,0,0,1-.83-.29,1.23,1.23,0,0,1-.46-.74L17.29,8.81,13,25.67a1.29,1.29,0,0,1-.47.72,1.35,1.35,0,0,1-.82.28,1.26,1.26,0,0,1-.94-.4l-4.4-4.4L4.6,23.6a1.24,1.24,0,0,1-.93.4H0v8H32Z"/></svg>