<svg xmlns="http://www.w3.org/2000/svg" viewBox="0 0 28.24 31.97"><defs><style>.cls-1{fill:#2f2f2f;}.cls-2{fill:#c2c2c2;}.cls-3{fill:#d83b01;}</style></defs><title>graph_3</title><g id="Layer_2" data-name="Layer 2"><g id="SYMBOLS"><g id="graph_3"><path class="cls-1" d="M22.4,21.16l-1-1-2.05,2a2,2,0,0,1-1.45.6,2.24,2.24,0,0,1-.57-.08,2.06,2.06,0,0,1-1.43-1.52l-1.17-5h0c-.68,2.82-1.47,6.13-2.07,8.64a2.93,2.93,0,0,1-4.92,1.42l-.93-.93L6.09,26A2.92,2.92,0,0,1,4,26.89H.87A2.84,2.84,0,0,1,0,26.74V32H28.24V21.76H23.86A2.09,2.09,0,0,1,22.4,21.16Z"/><path class="cls-2" d="M23.93,16l-1.72-1.72a1,1,0,0,0-1.41,0L19,16.09,15.63,3.4c-.06-.22-.74-2.6-.86-2.8a1.36,1.36,0,0,0-2.36.18,12.27,12.27,0,0,0-.51,1.36L9.84,8.71H7.4a1,1,0,0,0-.62.21.93.93,0,0,0-.35.54l-2,5.95H0v2.28H6l.37-1.51.76-3a.9.9,0,0,1,.36-.54.94.94,0,0,1,.62-.22h2.46l1.86-7.18a.93.93,0,0,1,.35-.55.91.91,0,0,1,.63-.22,1,1,0,0,1,1,.76l2.54,11,1.05,4.58L20.72,18a1,1,0,0,1,1.42,0l1.72,1.71h4.38V16Z"/><path class="cls-3" d="M.87,24.83H4a.91.91,0,0,0,.45-.14,1,1,0,0,0,.17-.11L6.1,23.11a1,1,0,0,1,.71-.29,1,1,0,0,1,.71.29l1.67,1.67a.91.91,0,0,0,.24.16l.23.07.11,0h0l.12,0a.36.36,0,0,0,.14,0,.75.75,0,0,0,.3-.17l.11-.11a.9.9,0,0,0,.18-.35l0-.08v-.05s0,0,0-.06.07-.26.11-.46h0v0a1.49,1.49,0,0,1,0-.18,2.09,2.09,0,0,1,.05-.21c0-.09,0-.19.07-.29l.06-.24c.08-.36.18-.78.29-1.24,0-.11.05-.22.08-.34s.11-.45.17-.69v0c.08-.31.15-.62.23-.95l0-.08c.06-.26.13-.53.19-.8l.06-.23c.14-.6.29-1.22.44-1.83,0-.11.05-.22.08-.34l0-.06c.06-.26.13-.53.19-.79l.06-.25.15-.63c0-.1.05-.2.08-.3.07-.28.13-.55.2-.81v0a2.29,2.29,0,0,1,.07-.28c0-.2.09-.39.14-.57v-.1c.07-.25.13-.49.19-.72l-.42-1.8-.79,3a2.19,2.19,0,0,1-.12.33,2.27,2.27,0,0,1-.37.56l0,0a2.07,2.07,0,0,1-1.48.63H9.24a.45.45,0,0,0-.44.34l-.34,1.36-.51,2c0,.11-.07.22-.11.33a2.08,2.08,0,0,1-.62.79,2,2,0,0,1-.59.32,2.14,2.14,0,0,1-.67.11H0V24a.87.87,0,0,0,.87.87Z"/></g></g></g></svg>