<svg id="ArrowUp" xmlns="http://www.w3.org/2000/svg" viewBox="0 0 32 32"><defs><style>.cls-1{fill:none;}.cls-2{fill:#c2c2c2;}.cls-3{fill:#0078d4;}</style></defs><title>PDF-blue</title><path class="cls-1" d="M7,23.76H8a2.85,2.85,0,0,0,1.17-.24,3,3,0,0,0,1-.64,3.12,3.12,0,0,0,.64-.95A3.05,3.05,0,0,0,11,20.76a3,3,0,0,0-.23-1.17,3,3,0,0,0-.64-1,3.16,3.16,0,0,0-1-.64A3,3,0,0,0,8,17.76H5v8H7Zm0-4H8a1,1,0,0,1,.39.07,1.21,1.21,0,0,1,.32.22,1.07,1.07,0,0,1,.22.32,1,1,0,0,1,.07.39.92.92,0,0,1-.07.38,1.12,1.12,0,0,1-.22.33,1,1,0,0,1-.33.22,1.07,1.07,0,0,1-.38.07H7Z"/><path class="cls-1" d="M16.55,25.45a4,4,0,0,0,2.14-2.14A3.83,3.83,0,0,0,19,21.76a3.91,3.91,0,0,0-.31-1.56,4.13,4.13,0,0,0-.86-1.27,4.18,4.18,0,0,0-1.28-.86A3.83,3.83,0,0,0,15,17.76H13v8h2A4,4,0,0,0,16.55,25.45ZM15,19.76a2,2,0,0,1,.77.15h0a1.65,1.65,0,0,1,.32.18h0a1.76,1.76,0,0,1,.3.24h0l0,.06.19.23s0,0,0,0a1.43,1.43,0,0,1,.16.3h0a1.87,1.87,0,0,1,.15.76,1.75,1.75,0,0,1,0,.4.43.43,0,0,1,0,.05,2.81,2.81,0,0,1-.1.31h0a1.81,1.81,0,0,1-.43.63,2,2,0,0,1-.63.43h0a2,2,0,0,1-.77.15Z"/><polygon class="cls-1" points="23 23.76 26 23.76 26 21.76 23 21.76 23 19.76 26 19.76 26 17.76 21 17.76 21 25.76 23 25.76 23 23.76"/><polygon class="cls-2" points="4.13 0 4.13 13.76 28.13 13.76 28.13 9.99 18.12 9.99 18.12 0 4.13 0"/><rect class="cls-2" x="4.13" y="29.76" width="24" height="2.24"/><polygon class="cls-2" points="20.12 8.01 28.11 8.01 20.12 0.01 20.12 8.01"/><path class="cls-3" d="M3,15.76v12H29v-12H3Zm18,2h5v2H23v2h3v2H23v2H21Zm-8,0h2a3.83,3.83,0,0,1,1.55.31,4.18,4.18,0,0,1,1.28.86,4.13,4.13,0,0,1,.86,1.27A3.91,3.91,0,0,1,19,21.76a3.83,3.83,0,0,1-.31,1.55,4,4,0,0,1-2.14,2.14,4,4,0,0,1-1.55.31H13Zm-8,0H8A3,3,0,0,1,9.17,18a3.16,3.16,0,0,1,1,.64,3,3,0,0,1,.64,1A3,3,0,0,1,11,20.76a3.05,3.05,0,0,1-.23,1.17,3.12,3.12,0,0,1-.64.95,3,3,0,0,1-1,.64A2.85,2.85,0,0,1,8,23.76H7v2H5Z"/><path class="cls-3" d="M8.7,21.46a1,1,0,0,0,.3-.7,1,1,0,0,0-1-1H7v2H8A1,1,0,0,0,8.7,21.46Z"/><path class="cls-3" d="M16.41,23.17a1.92,1.92,0,0,0,.44-.64,3,3,0,0,0,.1-.32.43.43,0,0,0,0-.05,1.75,1.75,0,0,0,0-.4,2,2,0,0,0-.15-.77,3.07,3.07,0,0,0-.17-.31s0,0,0,0l-.19-.23,0-.07a2.34,2.34,0,0,0-.31-.24h0a1.74,1.74,0,0,0-.33-.18,2,2,0,0,0-.77-.15v4a1.8,1.8,0,0,0,.77-.16A1.76,1.76,0,0,0,16.41,23.17Z"/><path class="cls-3" d="M16.41,20.34a1.76,1.76,0,0,0-.3-.24,2.34,2.34,0,0,1,.31.24Z"/><path class="cls-3" d="M16.84,21a1.43,1.43,0,0,0-.16-.3,3.07,3.07,0,0,1,.17.31Z"/><path class="cls-3" d="M15.77,23.6h0a2,2,0,0,0,.63-.43,1.81,1.81,0,0,0,.43-.63h0a1.92,1.92,0,0,1-.44.64A1.76,1.76,0,0,1,15.77,23.6Z"/><path class="cls-3" d="M15.78,19.91h0a1.74,1.74,0,0,1,.33.18A1.65,1.65,0,0,0,15.78,19.91Z"/></svg>