<svg xmlns="http://www.w3.org/2000/svg" viewBox="0 0 26 32"><defs><style>.cls-1{fill:#c2c2c2;}.cls-2{fill:#939393;}.cls-3{fill:#d83b01;}.cls-4{fill:#fff;}</style></defs><title>pdf</title><g id="Layer_2" data-name="Layer 2"><g id="SYMBOLS"><g id="pdf"><path class="cls-1" d="M23.24,10H17A1.89,1.89,0,0,1,15.12,8.1V1.88A1.88,1.88,0,0,0,13.24,0H3A1.89,1.89,0,0,0,1.12,1.88v10A1.89,1.89,0,0,0,3,13.76H23.24a1.89,1.89,0,0,0,1.88-1.89h0A1.88,1.88,0,0,0,23.24,10Z"/><rect class="cls-1" x="1.13" y="29.76" width="24" height="2.24"/><polygon class="cls-2" points="17.12 0.01 17.12 8.01 25.11 8.01 17.12 0.01"/><path class="cls-3" d="M25.12,15.76H0v12H26v-12ZM7.77,21.93a3,3,0,0,1-.65.95,2.84,2.84,0,0,1-1,.64A2.85,2.85,0,0,1,5,23.76H4v2H2v-8H5a3,3,0,0,1,2.12.87,2.91,2.91,0,0,1,.65,1A3,3,0,0,1,8,20.76,3.05,3.05,0,0,1,7.77,21.93Zm7.92,1.38a4,4,0,0,1-2.14,2.14,4,4,0,0,1-1.55.31H10v-8h2a3.83,3.83,0,0,1,1.55.31,4.18,4.18,0,0,1,1.28.86,4.13,4.13,0,0,1,.86,1.27A3.91,3.91,0,0,1,16,21.76,3.83,3.83,0,0,1,15.69,23.31ZM23,19.76H20v2h3v2H20v2H18v-8h5Z"/><path class="cls-4" d="M5,21.76a1.07,1.07,0,0,0,.38-.07,1,1,0,0,0,.33-.22,1.12,1.12,0,0,0,.22-.33A.92.92,0,0,0,6,20.76a1,1,0,0,1-1,1Z"/><path class="cls-4" d="M6,20.76a1,1,0,0,0-.07-.39,1.07,1.07,0,0,0-.22-.32,1.21,1.21,0,0,0-.32-.22A1,1,0,0,0,5,19.76a1,1,0,0,1,1,1Z"/><path class="cls-4" d="M4,19.76H5a1,1,0,0,1,.39.07,1.21,1.21,0,0,1,.32.22,1.07,1.07,0,0,1,.22.32,1,1,0,0,1,.07.39.92.92,0,0,1-.07.38,1.12,1.12,0,0,1-.22.33,1,1,0,0,1-.33.22,1.07,1.07,0,0,1-.38.07H4Z"/><path class="cls-4" d="M13.85,22.52a2.81,2.81,0,0,0,.1-.31,3,3,0,0,1-.1.32Z"/><path class="cls-4" d="M13.42,20.35h0l.05.07Z"/><path class="cls-4" d="M12.77,19.91a2,2,0,0,0-.77-.15,2,2,0,0,1,.77.15Z"/><path class="cls-4" d="M12.77,23.6a1.8,1.8,0,0,1-.77.16,2,2,0,0,0,.77-.15Z"/><path class="cls-4" d="M13.85,21h0a2,2,0,0,1,.15.77A1.87,1.87,0,0,0,13.85,21Z"/><path class="cls-3" d="M5.7,21.46a1,1,0,0,0,.3-.7,1,1,0,0,0-1-1H4v2H5A1,1,0,0,0,5.7,21.46Z"/><path class="cls-3" d="M13.41,23.17a1.92,1.92,0,0,0,.44-.64,3,3,0,0,0,.1-.32.43.43,0,0,0,0-.05,1.75,1.75,0,0,0,0-.4,2,2,0,0,0-.15-.77,3.07,3.07,0,0,0-.17-.31s0,0,0,0l-.19-.23-.05-.07a2.34,2.34,0,0,0-.31-.24h0a1.74,1.74,0,0,0-.33-.18,2,2,0,0,0-.77-.15v4a1.8,1.8,0,0,0,.77-.16A1.76,1.76,0,0,0,13.41,23.17Z"/><path class="cls-3" d="M13.41,20.34a1.76,1.76,0,0,0-.3-.24,2.34,2.34,0,0,1,.31.24Z"/><path class="cls-3" d="M13.84,21a1.43,1.43,0,0,0-.16-.3,3.07,3.07,0,0,1,.17.31Z"/><path class="cls-3" d="M12.77,23.6h0a2,2,0,0,0,.63-.43,1.81,1.81,0,0,0,.43-.63h0a1.92,1.92,0,0,1-.44.64A1.76,1.76,0,0,1,12.77,23.6Z"/><path class="cls-3" d="M12.78,19.91h0a1.74,1.74,0,0,1,.33.18A1.65,1.65,0,0,0,12.78,19.91Z"/></g></g></g></svg>