<svg xmlns="http://www.w3.org/2000/svg" viewBox="0 0 30.96 31.97"><defs><style>.cls-1{fill:#d83b01;}.cls-2{fill:#939393;}.cls-3{fill:#c2c2c2;}</style></defs><title>share_files</title><g id="Layer_2" data-name="Layer 2"><g id="SYMBOLS"><g id="share_files"><polygon class="cls-1" points="18.38 3.81 18.96 4.39 19.75 5.18 18.96 5.18 17.18 5.18 13.42 5.18 13.42 7.22 17.18 7.22 18.96 7.22 19.75 7.22 18.96 8.01 17.43 9.55 18.86 10.98 18.96 10.88 23.64 6.2 21.25 3.81 18.96 1.52 18.86 1.42 17.43 2.85 18.38 3.81 18.38 3.81"/><path class="cls-2" d="M5.73,13.6V6.12L0,.39V22.53l3.82,3.81V20.65a2.06,2.06,0,0,1,.3-1.14,5.09,5.09,0,0,1,.65-.83l.66-.61a.72.72,0,0,0,.3-.53Z"/><path class="cls-2" d="M9.69,17.43,8.34,16.08l1.35-1.35,1.13-1.13,1-1V9.13h-.36V3.28h3.65l-.43-.44L16.08,1.5,17.19.39V0H2.3L7.09,4.77a2.07,2.07,0,0,1,.4.62,2,2,0,0,1,.15.73V17.54a2.06,2.06,0,0,1-.3,1.14,4.63,4.63,0,0,1-.66.83L6,20.12a.72.72,0,0,0-.3.53v2.26h6.14V19.62Z"/><polygon class="cls-3" points="12.16 12.26 14.37 10.05 14.47 9.95 14.8 9.62 15.27 9.13 13.42 9.13 12.16 9.13 11.87 9.13 11.87 12.55 12.16 12.26"/><polygon class="cls-3" points="27.14 13.6 27.14 3.81 25.1 3.81 26.9 5.62 26.34 6.2 24.99 7.55 20.31 12.23 20.21 12.34 19.88 12.66 19.39 13.16 21.26 13.16 23.17 13.16 23.17 13.6 23.17 15.07 23.17 17.1 23.17 19.01 21.26 19.01 19.52 19.01 19.94 19.44 17.18 22.2 17.17 22.22 16.47 22.91 15.82 23.57 15.16 22.91 14.47 22.22 14.37 22.11 12.16 19.91 11.87 19.62 11.87 22.91 11.87 31.97 12.16 31.97 29.05 31.97 29.05 18.3 27.14 16.39 27.14 13.6"/><polygon class="cls-3" points="29.05 3.81 29.05 13.6 29.05 15.58 30 16.55 30.96 15.58 30.96 13.6 30.96 3.81 29.05 3.81"/><polygon class="cls-1" points="17.18 17.1 21.26 17.1 21.26 15.07 17.18 15.07 15.71 15.07 14.93 15.07 15.71 14.28 16.39 13.6 17.18 12.79 17.25 12.73 17.18 12.67 15.82 11.3 15.71 11.4 13.52 13.6 12.16 14.96 11.87 15.25 11.04 16.08 11.87 16.91 12.16 17.21 15.71 20.76 15.82 20.87 17.18 19.5 17.25 19.44 17.18 19.37 15.71 17.89 14.93 17.1 15.71 17.1 17.18 17.1"/></g></g></g></svg>