<svg id="ArrowUp" xmlns="http://www.w3.org/2000/svg" viewBox="0 0 32 32"><defs><style>.cls-1{fill:none;}.cls-2{fill:#c2c2c2;}.cls-3{fill:#0078d4;}</style></defs><title>VideoDocument-blue</title><rect class="cls-1" x="2.67" y="20" width="2.67" height="2.67"/><rect class="cls-1" x="2.67" y="14.67" width="2.67" height="2.67"/><rect class="cls-1" x="2.67" y="4" width="2.67" height="2.67"/><rect class="cls-1" x="2.67" y="9.33" width="2.67" height="2.67"/><rect class="cls-1" x="2.67" y="25.33" width="2.67" height="2.67"/><polygon class="cls-2" points="10.67 1.33 10.67 30.67 32 30.67 32 9.33 24 9.33 24 1.33 10.67 1.33"/><path class="cls-3" d="M8,30.67V1.33H0V30.67ZM2.67,4H5.33V6.67H2.67Zm0,5.33H5.33V12H2.67Zm0,5.34H5.33v2.66H2.67Zm0,5.33H5.33v2.67H2.67Zm0,5.33H5.33V28H2.67Z"/><polygon class="cls-2" points="26.67 6.67 30.1 6.67 26.67 3.23 26.67 6.67"/></svg>