<svg id="ArrowUp" xmlns="http://www.w3.org/2000/svg" viewBox="0 0 32 32"><defs><style>.cls-1{fill:#2f2f2f;}.cls-2{fill:#0078d4;}.cls-3{fill:#c2c2c2;}.cls-4{fill:#d2d2d2;}</style></defs><title>AccessDataFromDesktop-blue</title><rect class="cls-1" x="2.11" y="14.89" width="19.25" height="10.69"/><path class="cls-2" d="M25,2.7A12.78,12.78,0,0,0,20.8.47,13.25,13.25,0,0,1,22.09,3.3a25,25,0,0,1,.78,3h5.3A12.83,12.83,0,0,0,25,2.7Z"/><path class="cls-2" d="M29.89,12.75a12.72,12.72,0,0,0-.74-4.28H23.2a34.08,34.08,0,0,1,.27,4.26V17h5.68A12.72,12.72,0,0,0,29.89,12.75Z"/><path class="cls-3" d="M12.84,10.6c0,.71-.06,1.43-.06,2.15h8.55c0-.72,0-1.44-.06-2.15s-.12-1.42-.21-2.13H13C13,9.18,12.89,9.9,12.84,10.6Z"/><path class="cls-3" d="M20,4c-.16-.47-.35-.94-.55-1.42A8.66,8.66,0,0,0,18.8,1.3,3.82,3.82,0,0,0,18,.36a1.37,1.37,0,0,0-1.85,0,3.82,3.82,0,0,0-.82.94,8.66,8.66,0,0,0-.69,1.29c-.2.48-.39,1-.55,1.42s-.3.91-.41,1.32-.19.75-.25,1H20.7c-.06-.25-.14-.59-.25-1S20.2,4.48,20,4Z"/><path class="cls-4" d="M5.94,6.33h5.3a25,25,0,0,1,.78-3A12.78,12.78,0,0,1,13.31.47,12.85,12.85,0,0,0,5.94,6.33Z"/><path class="cls-4" d="M4.22,12.75h6.42c0-.72,0-1.44.06-2.15s.12-1.42.2-2.13H5A12.72,12.72,0,0,0,4.22,12.75Z"/><path class="cls-2" d="M23.47,23.86a13.3,13.3,0,0,0,2.67-2,12.56,12.56,0,0,0,2-2.65H23.47Z"/><polygon class="cls-1" points="10.67 27.72 10.67 29.86 6.39 29.86 6.39 32 17.09 32 17.09 29.86 12.81 29.86 12.81 27.72 10.67 27.72"/></svg>