<svg width="32" height="24" viewBox="0 0 32 24" fill="none" xmlns="http://www.w3.org/2000/svg">
<g clip-path="url(#clip0_1592_415)">
<path d="M13.5076 12.8289L19.002 7.67718H16.0111L18.0753 3.82043H15.7493L13.002 8.96369H15.4093L13.3511 12.8289H13.5076Z" fill="#0078D4"/>
</g>
<path d="M26.7002 0.420044H5.30023V16.22L26.7002 16.11V0.420044ZM24.9202 14.2H7.09023V2.42004H24.9202V14.2Z" fill="#C2C2C2"/>
<path d="M31.9 22.7701C31.884 22.52 31.8195 22.2754 31.71 22.05L26.71 18.05H5.25L0.25 22.05C0.149747 22.2788 0.085649 22.5217 0.06 22.7701C0.0246896 23.0387 0.00465736 23.3091 0 23.5801H32C31.9863 23.308 31.9529 23.0373 31.9 22.7701V22.7701Z" fill="#C2C2C2"/>
<defs>
<clipPath id="clip0_1592_415">
<rect width="6" height="9" fill="white" transform="translate(13.002 3.82043)"/>
</clipPath>
</defs>
</svg>
