<svg id="ArrowUp" xmlns="http://www.w3.org/2000/svg" viewBox="0 0 32 32"><defs><style>.cls-1{fill:none;}.cls-2{fill:#c2c2c2;}.cls-3{fill:#0078d4;}.cls-4{fill:#2f2f2f;}</style></defs><title>Calculator2-blue</title><rect class="cls-1" x="2.93" y="2.38" width="16.64" height="7.14"/><polygon class="cls-2" points="14.81 28.41 21.95 32 21.95 21.96 14.81 18.39 14.81 28.41"/><polygon class="cls-3" points="30 16.46 23.14 13.03 16.28 16.46 23.14 19.89 30 16.46"/><polygon class="cls-2" points="31.47 18.39 24.33 21.96 24.33 32 31.47 28.41 31.47 18.39"/><path class="cls-2" d="M.53,30.94h14l-2.1-1.06V15.73L22,11V0H.53Zm9.52-2.38H7.69V26.18h2.36Zm0-4.76H7.69V21.42h2.36Zm0-4.76H7.69V16.66h2.36Zm0-4.76H7.69V11.9h2.36Zm2.38,0V11.9h2.36l0,2.38ZM2.93,2.38H19.57V9.52H2.93Zm0,9.52H5.29v2.38H2.91Zm0,4.76H5.29V19H2.91Zm0,4.76H5.29V23.8H2.91Zm0,4.76H5.29v2.38H2.91Z"/><rect class="cls-4" x="2.91" y="26.18" width="2.38" height="2.38"/><rect class="cls-4" x="2.91" y="21.42" width="2.38" height="2.38"/><rect class="cls-4" x="7.69" y="11.9" width="2.36" height="2.38"/><polygon class="cls-4" points="12.43 11.9 12.43 14.28 14.81 14.28 14.79 11.9 12.43 11.9"/><rect class="cls-4" x="7.69" y="26.18" width="2.36" height="2.38"/><rect class="cls-4" x="2.91" y="16.66" width="2.38" height="2.38"/><rect class="cls-4" x="2.91" y="11.9" width="2.38" height="2.38"/><rect class="cls-4" x="7.69" y="16.66" width="2.36" height="2.38"/><rect class="cls-4" x="7.69" y="21.42" width="2.36" height="2.38"/></svg>