<svg id="ArrowUp" xmlns="http://www.w3.org/2000/svg" viewBox="0 0 32 32"><defs><style>.cls-1{fill:#c2c2c2;}.cls-2{fill:#2f2f2f;}.cls-3{fill:#0078d4;}</style></defs><title>Calculator-blue</title><path class="cls-1" d="M5,32H27V0H5Zm12-4H15V26h2Zm0-6H15V20h2Zm0-6H15V14h2Zm6,12H21V26h2Zm0-6H21V20h2Zm0-6H21V14h2ZM9,4H23v6H9ZM9,14h2v2H9Zm0,6h2v2H9Zm0,6h2v2H9Z"/><rect class="cls-2" x="9" y="14" width="2" height="2"/><rect class="cls-2" x="9" y="20" width="2" height="2"/><rect class="cls-2" x="9" y="26" width="2" height="2"/><rect class="cls-2" x="15" y="14" width="2" height="2"/><rect class="cls-2" x="15" y="20" width="2" height="2"/><rect class="cls-3" x="15" y="26" width="2" height="2"/><rect class="cls-2" x="21" y="14" width="2" height="2"/><rect class="cls-2" x="21" y="20" width="2" height="2"/><rect class="cls-3" x="21" y="26" width="2" height="2"/></svg>