<svg xmlns="http://www.w3.org/2000/svg" viewBox="0 0 31.97 31.97"><defs><style>.cls-1{fill:#c2c2c2;}.cls-2{fill:#fff;}</style></defs><title>cd_dvd</title><g id="Layer_2" data-name="Layer 2"><g id="SYMBOLS"><g id="cd_dvd"><path class="cls-1" d="M16,32A16,16,0,1,1,32,16,16,16,0,0,1,16,32Zm0-19.41c-1.64.09-3.37,1-3.37,4.08,0,1.73,1.73,2.77,3.7,2.77a3,3,0,0,0,3.12-3.18C19.43,13.62,18,12.56,16,12.56Z"/><path class="cls-2" d="M16,20.55A4.57,4.57,0,1,1,20.55,16,4.57,4.57,0,0,1,16,20.55Zm0-6.85A2.29,2.29,0,1,0,18.27,16,2.28,2.28,0,0,0,16,13.7Z"/></g></g></g></svg>