<svg xmlns="http://www.w3.org/2000/svg" viewBox="0 0 27.05 31.97"><defs><style>.cls-1{fill:#c2c2c2;}</style></defs><title>data_jack</title><g id="Layer_2" data-name="Layer 2"><g id="SYMBOLS"><g id="data_jack"><path class="cls-1" d="M27.05,7.38V16a3.92,3.92,0,0,1-.17,1.13,4.14,4.14,0,0,1-.5,1,3.94,3.94,0,0,1-.78.8,3.63,3.63,0,0,1-1,.54v5.13A7,7,0,0,1,24,27.46a7.54,7.54,0,0,1-1.58,2.35,7.42,7.42,0,0,1-2.35,1.58,7.39,7.39,0,0,1-5.74,0A7.38,7.38,0,0,1,12,29.81a7.74,7.74,0,0,1-1.59-2.35,7.21,7.21,0,0,1-.57-2.87V13.52a3.67,3.67,0,0,0-.29-1.44,3.89,3.89,0,0,0-.79-1.17,3.83,3.83,0,0,0-1.17-.79,3.66,3.66,0,0,0-1.44-.28,3.59,3.59,0,0,0-1.44.28,4,4,0,0,0-1.18.79,3.87,3.87,0,0,0-.78,1.17,3.67,3.67,0,0,0-.29,1.44V32H0V13.52a6,6,0,0,1,.48-2.38A6.2,6.2,0,0,1,3.76,7.87a5.84,5.84,0,0,1,2.39-.49,5.8,5.8,0,0,1,2.38.49,6.29,6.29,0,0,1,3.28,3.27,6,6,0,0,1,.49,2.38V24.59a4.69,4.69,0,0,0,.38,1.91,5,5,0,0,0,1.06,1.57,4.91,4.91,0,0,0,5.39,1.05,4.87,4.87,0,0,0,1.56-1.05,5,5,0,0,0,1.06-1.57,4.86,4.86,0,0,0,.38-1.91V19.46a3.61,3.61,0,0,1-1.78-1.34,3.53,3.53,0,0,1-.5-1A3.61,3.61,0,0,1,19.67,16V7.38h2.46V1.23A1.15,1.15,0,0,1,22.5.37,1.15,1.15,0,0,1,23.36,0a1.19,1.19,0,0,1,.87.37,1.18,1.18,0,0,1,.36.86V7.38Z"/></g></g></g></svg>