<svg xmlns="http://www.w3.org/2000/svg" viewBox="0 0 32 27.01"><defs><style>.cls-1{fill:none;}.cls-2{fill:#939393;}.cls-3{fill:#c2c2c2;}</style></defs><title>devices</title><g id="Layer_2" data-name="Layer 2"><g id="SYMBOLS"><g id="devices"><rect class="cls-1" x="25.13" y="16.5" width="2.75" height="1.38"/><rect class="cls-1" x="11.98" y="23.01" width="4.04" height="2"/><path class="cls-2" d="M31.32,0H21.68A.67.67,0,0,0,21,.68V18.57a.67.67,0,0,0,.68.68h9.64a.67.67,0,0,0,.68-.68V.68A.67.67,0,0,0,31.32,0ZM27.88,17.88H25.12V16.5h2.76Z"/><path class="cls-3" d="M19,18.57V7.06H.94A1,1,0,0,0,0,8V26.07A.94.94,0,0,0,.94,27H27.06a.94.94,0,0,0,.94-.94V21.25H21.68A2.68,2.68,0,0,1,19,18.57ZM16,25H12V23h4Z"/></g></g></g></svg>