<svg id="ArrowUp" xmlns="http://www.w3.org/2000/svg" viewBox="0 0 32 32"><defs><style>.cls-1{fill:none;}.cls-2{fill:#c2c2c2;}.cls-3{fill:#0078d4;}.cls-4{fill:#2f2f2f;}</style></defs><title>Devices2-blue</title><polygon class="cls-1" points="3.54 17.39 1.83 17.39 1.83 26.24 6.05 26.24 6.05 23.72 6.05 21.48 6.05 17.39 5.77 17.39 3.54 17.39"/><path class="cls-1" d="M29.77,5.86h-24V13h4.34v8.46H29.77ZM24.06,12.1H21.69a3.5,3.5,0,0,0-2.62-1.86L18.69,8A5.7,5.7,0,0,1,24.06,12.1Zm-9,1.58H12.87a5.72,5.72,0,0,1,3.61-5.31l.37,2.3A3.48,3.48,0,0,0,15.1,13.68Zm2.37-.1a1.12,1.12,0,1,1,1.12,1.11A1.12,1.12,0,0,1,17.47,13.58Zm1.12,5.82V17.17A3.49,3.49,0,0,0,22,14.35h2.23A5.71,5.71,0,0,1,18.59,19.4Z"/><polygon class="cls-2" points="32 23.72 32 3.62 3.54 3.62 3.54 13.02 5.77 13.02 5.77 5.86 29.77 5.86 29.77 21.48 10.11 21.48 10.11 23.72 16.37 23.72 16.37 25.95 11.91 25.95 11.91 28.18 23.07 28.18 23.07 25.95 18.61 25.95 18.61 23.72 32 23.72"/><path class="cls-2" d="M7.87,23.72V15.25H0V28.38H7.87ZM6.05,21.48v4.76H1.83V17.39H6.05Z"/><path class="cls-3" d="M12.87,13.68H15.1a3.48,3.48,0,0,1,1.75-3l-.37-2.3A5.72,5.72,0,0,0,12.87,13.68Z"/><circle class="cls-3" cx="18.59" cy="13.58" r="1.12"/><path class="cls-2" d="M21.69,12.1h2.37A5.7,5.7,0,0,0,18.69,8l.38,2.27A3.5,3.5,0,0,1,21.69,12.1Z"/><path class="cls-4" d="M18.59,17.17V19.4a5.71,5.71,0,0,0,5.65-5H22A3.49,3.49,0,0,1,18.59,17.17Z"/></svg>