<svg xmlns="http://www.w3.org/2000/svg" viewBox="0 0 15.22 31.97"><defs><style>.cls-1{fill:none;}.cls-2{fill:#c2c2c2;}.cls-3{fill:#d83b01;}</style></defs><title>device_mobile_download</title><g id="Layer_2" data-name="Layer 2"><g id="SYMBOLS"><g id="device_mobile_download"><rect class="cls-1" x="5.71" y="28.16" width="3.81" height="1.9"/><path class="cls-2" d="M13.69,6.77,8.93,11.53,7.58,12.88,6.24,11.53,1.47,6.77.3,5.59a.94.94,0,0,0-.3.68V31A.94.94,0,0,0,.94,32H14.28a.94.94,0,0,0,.94-.94V6.27a.92.92,0,0,0-.33-.7ZM9.51,30.07H5.71V28.16h3.8Z"/><polygon class="cls-3" points="12.26 5.33 10.92 4 9.58 5.33 8.59 6.31 8.59 5.33 8.59 0 6.57 0 6.57 5.33 6.57 6.31 5.58 5.33 4.24 4 2.9 5.33 2.81 5.42 7.58 10.19 12.35 5.42 12.26 5.33"/></g></g></g></svg>