<svg width="32" height="32" viewBox="0 0 32 32" fill="none" xmlns="http://www.w3.org/2000/svg">
<path d="M31.6105 25.9975L29.0834 23.542V14.5919C28.4516 14.8625 27.7797 15.053 27.0778 15.1632V23.0308H13.4595L14.7632 28.0421H30.9687C31.3497 28.0421 31.6205 27.9118 31.7609 27.6512C31.9013 27.3906 31.9715 27.0899 31.9715 26.7592C31.9715 26.5888 31.9414 26.4485 31.8812 26.3383C31.8211 26.228 31.7308 26.1077 31.6105 25.9975V25.9975Z" fill="#C2C2C2"/>
<path d="M10.4393 14.6118C10.2588 14.4314 10.0482 14.2811 9.80754 14.1809C9.56687 14.0806 9.30614 14.0205 9.02535 14.0205H7.01972V11.0138H18.6524C18.3114 10.3924 18.0607 9.72087 17.8902 9.00928H7.01972C6.73893 9.00928 6.47819 9.05939 6.23752 9.16964C5.99684 9.26986 5.78625 9.4202 5.60574 9.6006C5.42524 9.78101 5.27481 9.99148 5.17453 10.232C5.07425 10.4726 5.01408 10.7331 5.01408 11.0138V14.0205H2.00563C1.72484 14.0205 1.46411 14.0706 1.22344 14.1809C0.98276 14.2811 0.772169 14.4314 0.591662 14.6118C0.411155 14.7922 0.260732 15.0027 0.160451 15.2433C0.060169 15.4838 0 15.7444 0 16.025V29.0542C0 29.3348 0.0501408 29.5954 0.160451 29.836C0.260732 30.0765 0.411155 30.287 0.591662 30.4674C0.772169 30.6478 0.98276 30.7981 1.22344 30.8984C1.46411 30.9986 1.72484 31.0587 2.00563 31.0587H9.02535C9.30614 31.0587 9.56687 31.0086 9.80754 30.8984C10.0482 30.7981 10.2588 30.6478 10.4393 30.4674C10.6198 30.287 10.7702 30.0765 10.8705 29.836C10.9708 29.5954 11.031 29.3348 11.031 29.0542V16.025C11.031 15.7444 10.9808 15.4838 10.8705 15.2433C10.7702 15.0027 10.6198 14.7922 10.4393 14.6118ZM7.01972 30.0565H4.01127V29.0542H7.01972V30.0565ZM9.02535 28.052H2.00563V16.025H9.02535V28.052Z" fill="#C2C2C2"/>
<path d="M25.8327 13.2689C29.2423 13.2689 32 10.5127 32 7.1051C32 3.69746 29.2322 0.941284 25.8327 0.941284C22.4331 0.941284 19.6654 3.69746 19.6654 7.1051C19.6654 10.5127 22.4231 13.2689 25.8327 13.2689V13.2689ZM22.7039 6.80443L24.4287 8.52829L28.9113 4.04825L29.9743 5.11063L24.4287 10.6531L21.6409 7.86681L22.7039 6.80443V6.80443Z" fill="#0078D4"/>
</svg>
