<svg id="ArrowUp" xmlns="http://www.w3.org/2000/svg" viewBox="0 0 32 32"><defs><style>.cls-1{fill:#c2c2c2;}.cls-2{fill:#2f2f2f;}.cls-3{fill:gray;}.cls-4{fill:#0078d4;}</style></defs><title>DevicesLaptopTablet-blue</title><path class="cls-1" d="M6,5.91v10h4V13.46a3.33,3.33,0,0,1,1.19-2.38L11,11.2h0V8.58h2V10h0l-.19.06a3.08,3.08,0,0,1,.93-.16H14V7.54h2V9.93h8v-4Zm4,8.52H8v-5h2Z"/><path class="cls-2" d="M0,22a1.88,1.88,0,0,0,.15.74,1.82,1.82,0,0,0,.41.61,1.7,1.7,0,0,0,.61.4,1.85,1.85,0,0,0,.74.15H10v-8H6v-10H24v4h2v-6H4V16.52L.73,20a2.6,2.6,0,0,0-.56.95A3.52,3.52,0,0,0,0,22Z"/><rect class="cls-2" x="5.99" y="15.91" width="3.99" height="0.01"/><rect class="cls-2" x="5.99" y="5.91" width="18"/><path class="cls-2" d="M31.41,27.33a2.18,2.18,0,0,0,.43-.64A2.09,2.09,0,0,0,32,25.9v-12a1.79,1.79,0,0,0-.16-.76,2.16,2.16,0,0,0-.44-.63,1.93,1.93,0,0,0-.63-.42,2,2,0,0,0-.77-.16H14a2,2,0,0,0-1,.28,1.72,1.72,0,0,0-1,1.62v10.1h0v2a1.81,1.81,0,0,0,.16.78,1.85,1.85,0,0,0,.43.64,2.13,2.13,0,0,0,.63.43,2,2,0,0,0,.78.15H30a2,2,0,0,0,.78-.15A2.32,2.32,0,0,0,31.41,27.33ZM30,25.91H14v-12H30Z"/><path class="cls-1" d="M14,25.91H30v-12H14Zm8-8.18h2v6.33H22ZM19,20.9h2v3.16H19Zm-3-1.83h2v5H16Z"/><path class="cls-3" d="M13,8.58H11V11.2h0l.14-.12.17-.15a3.79,3.79,0,0,1,.45-.34l.07,0a4.53,4.53,0,0,1,.48-.27l.41-.16.09,0L13,10Z"/><path class="cls-3" d="M13,10l-.19.07L13,10Z"/><rect class="cls-3" x="15.98" y="19.07" width="2" height="5"/><rect class="cls-3" x="18.99" y="20.9" width="2" height="3.17"/><rect class="cls-4" x="22.02" y="17.73" width="2" height="6.34"/><rect class="cls-3" x="7.97" y="9.43" width="2" height="5"/><polygon class="cls-4" points="15.99 7.56 13.99 7.56 13.99 9.91 13.99 9.94 15.99 9.94 15.99 9.93 15.99 9.91 15.99 7.56"/><rect class="cls-4" x="13.99" y="7.54" width="2" height="0.02"/></svg>