<svg id="ArrowUp" xmlns="http://www.w3.org/2000/svg" viewBox="0 0 32 32"><defs><style>.cls-1{fill:none;}.cls-2{fill:#c2c2c2;}.cls-3{fill:#0078d4;}</style></defs><title>DeviceSettings-blue</title><path class="cls-1" d="M26.28,22.07c-.06-.06-.1-.13-.16-.19a2.88,2.88,0,0,0-.94-.63A2.83,2.83,0,0,0,24,21a3,3,0,0,0-2.09.87c-.06.06-.11.13-.16.19a3.09,3.09,0,0,0-.48.75A3,3,0,0,0,21.06,24s0,.07,0,.1a2.86,2.86,0,0,0,.22,1.05A3,3,0,0,0,24,26.94a3,3,0,0,0,1.16-.23,3.07,3.07,0,0,0,.94-.64,2.78,2.78,0,0,0,.63-.94A3.09,3.09,0,0,0,27,24.08s0-.07,0-.1a2.83,2.83,0,0,0-.24-1.16A3.06,3.06,0,0,0,26.28,22.07Zm-1.32,2a1.09,1.09,0,0,1-.05.26.89.89,0,0,1-.21.32,1.27,1.27,0,0,1-.32.21,1,1,0,0,1-.36.06,1,1,0,0,1-.36-.06,1.07,1.07,0,0,1-.32-.22,1.05,1.05,0,0,1-.21-.31.75.75,0,0,1,0-.26.36.36,0,0,1,0-.1.9.9,0,0,1,.07-.37,1.1,1.1,0,0,1,.2-.31,1,1,0,0,1,.32-.21A.86.86,0,0,1,24,23a.8.8,0,0,1,.36.07.94.94,0,0,1,.53.53A.83.83,0,0,1,25,24S25,24,25,24.08Z"/><path class="cls-2" d="M31.32.74a2.57,2.57,0,0,0-.8-.54,2.48,2.48,0,0,0-1-.2H2.45a2.48,2.48,0,0,0-1,.2,2.57,2.57,0,0,0-.8.54,2.46,2.46,0,0,0-.54.8,2.4,2.4,0,0,0-.19,1V21.57a2.4,2.4,0,0,0,.19,1,2.46,2.46,0,0,0,.54.8,2.57,2.57,0,0,0,.8.54,2.48,2.48,0,0,0,1,.2H14.53l.17-.1-1.21-.75L14,22.07H2.45a.48.48,0,0,1-.36-.14A.49.49,0,0,1,2,21.57V2.51a.49.49,0,0,1,.14-.36A.48.48,0,0,1,2.45,2h27.1a.48.48,0,0,1,.36.14.49.49,0,0,1,.14.36V15.64l.88.36-.32,1.39L32,17.07l0,.14V2.51a2.4,2.4,0,0,0-.19-1A2.46,2.46,0,0,0,31.32.74Z"/><polygon class="cls-2" points="11.99 18.06 11.99 20.07 13.99 20.07 14.81 20.07 15.64 18.06 13.99 18.06 11.99 18.06"/><path class="cls-2" d="M32.05,22.42l-.09-.2a3,3,0,0,1-.1.32Z"/><path class="cls-3" d="M32,22.22l-1.17-2.81-.74.17-1.6.36c-.12-.13-.26-.27-.39-.39l.53-2.34-3-1.26L24.31,18h-.57L22.47,16l-3,1.26.2.85L20,19.55c-.14.12-.27.26-.4.39L18,19.58l-.76-.17-.27.66-.83,2-.15.35,2,1.27v.15A.61.61,0,0,0,18,24a.34.34,0,0,0,0,.1v.18l-2,1.27,1.25,3L19.59,28l.4.4-.54,2.34,3,1.25,1.27-2h.57l1.27,2,3-1.25-.53-2.34c.13-.13.27-.26.39-.4l2.34.54,1.26-3-2-1.27c0-.05,0-.09,0-.14v-.28c0-.05,0-.1,0-.15l1.86-1.15A3,3,0,0,0,32,22.22Zm-5,1.86a3.09,3.09,0,0,1-.23,1.05,2.78,2.78,0,0,1-.63.94,3.07,3.07,0,0,1-.94.64,3,3,0,0,1-1.16.23,3,3,0,0,1-2.73-1.81,2.86,2.86,0,0,1-.22-1.05s0-.07,0-.1a3,3,0,0,1,.23-1.16,3.09,3.09,0,0,1,.48-.75c.05-.06.1-.13.16-.19A3,3,0,0,1,24,21a2.83,2.83,0,0,1,1.16.24,2.88,2.88,0,0,1,.94.63c.06.06.1.13.16.19a3.06,3.06,0,0,1,.47.75A2.83,2.83,0,0,1,27,24S27,24.05,27,24.08Z"/><path class="cls-3" d="M24.7,23.3a.89.89,0,0,0-.32-.21A.8.8,0,0,0,24,23a.86.86,0,0,0-.36.07,1,1,0,0,0-.32.21,1.1,1.1,0,0,0-.2.31.9.9,0,0,0-.07.37.36.36,0,0,0,0,.1.75.75,0,0,0,0,.26,1.05,1.05,0,0,0,.21.31,1.07,1.07,0,0,0,.32.22,1,1,0,0,0,.36.06,1,1,0,0,0,.36-.06,1.27,1.27,0,0,0,.32-.21.89.89,0,0,0,.21-.32,1.09,1.09,0,0,0,.05-.26s0-.06,0-.1a.83.83,0,0,0-.07-.36A.89.89,0,0,0,24.7,23.3Z"/></svg>