<svg xmlns="http://www.w3.org/2000/svg" viewBox="0 0 31.97 22.06"><defs><style>.cls-1{fill:none;}.cls-2{fill:#c2c2c2;}</style></defs><title>device_mobile_tablet</title><g id="Layer_2" data-name="Layer 2"><g id="SYMBOLS"><g id="device_mobile_tablet"><rect class="cls-1" x="4.01" y="20.06" width="3.01" height="1"/><rect class="cls-1" x="2.01" y="7.02" width="7.02" height="12.04"/><path class="cls-2" d="M31.87,17.35a1.58,1.58,0,0,0-.26-.35l-2.53-2.46V2a2,2,0,0,0-.15-.79A2,2,0,0,0,27.86.16,1.85,1.85,0,0,0,27.08,0H7a1.85,1.85,0,0,0-.78.16A2,2,0,0,0,5.6.59a2.13,2.13,0,0,0-.43.63A2,2,0,0,0,5,2V5H2a2,2,0,0,0-.79.16,2.13,2.13,0,0,0-.63.43,2,2,0,0,0-.43.64A1.85,1.85,0,0,0,0,7v13a1.85,1.85,0,0,0,.16.78,2,2,0,0,0,.43.64,2.13,2.13,0,0,0,.63.43,2,2,0,0,0,.79.15H9a2,2,0,0,0,.78-.15,2.09,2.09,0,0,0,1.07-1.07,2,2,0,0,0,.15-.78V7a2,2,0,0,0-.15-.78A2.09,2.09,0,0,0,9.81,5.17,2,2,0,0,0,9,5H7V2H27.08V14H13.46l1.3,5H31a.81.81,0,0,0,.79-.4,1.83,1.83,0,0,0,.21-.89A.77.77,0,0,0,31.87,17.35ZM7,21.06H4v-1H7ZM9,7v12H2V7Z"/></g></g></g></svg>