<svg xmlns="http://www.w3.org/2000/svg" viewBox="0 0 31.99 30.8"><defs><style>.cls-1{fill:#c2c2c2;}.cls-2{fill:#d83b01;}</style></defs><title>device_desktop_download</title><g id="Layer_2" data-name="Layer 2"><g id="SYMBOLS"><g id="device_desktop_download"><path class="cls-1" d="M31,5.81H23.79l-1.3,1.3-5,5-1.42,1.42-1.41-1.42-5-5L8.33,5.81H1a1,1,0,0,0-1,1V25a1,1,0,0,0,1,1h13.7v2.87H9.77v2H22v-2H17.1V25.91H31a1,1,0,0,0,1-1V6.77A1,1,0,0,0,31,5.81Z"/><polygon class="cls-2" points="19.57 4.2 17.96 5.8 17.13 6.63 17.13 5.8 17.13 0 15 0 15 5.8 15 6.63 14.17 5.8 12.55 4.2 11.05 5.7 11.16 5.8 16.06 10.71 20.96 5.8 21.07 5.7 19.57 4.2"/></g></g></g></svg>