<svg xmlns="http://www.w3.org/2000/svg" viewBox="0 0 31.97 31.97"><defs><style>.cls-1{fill:#2f2f2f;}.cls-2{fill:#fff;}</style></defs><title>gateway_symbol</title><g id="Layer_2" data-name="Layer 2"><g id="SYMBOLS"><g id="gateway_symbol"><path class="cls-1" d="M28.77,32H3.2A3.2,3.2,0,0,1,0,28.77V3.2A3.2,3.2,0,0,1,3.2,0H28.77A3.2,3.2,0,0,1,32,3.2V28.77A3.21,3.21,0,0,1,28.77,32Z"/><polygon class="cls-2" points="8.9 14.01 9.4 14.52 10.09 15.21 9.4 15.21 7.86 15.21 4.57 15.21 4.57 16.98 7.86 16.98 9.4 16.98 10.09 16.98 9.4 17.67 8.07 19.01 9.31 20.26 9.4 20.17 13.48 16.09 11.39 14.01 9.4 12.02 9.31 11.93 8.07 13.17 8.9 14.01 8.9 14.01"/><polygon class="cls-2" points="24.16 16.98 27.71 16.98 27.71 15.21 24.16 15.21 22.88 15.21 22.19 15.21 22.88 14.52 23.46 13.93 24.16 13.23 24.21 13.17 24.16 13.12 22.97 11.93 22.88 12.02 20.97 13.93 19.78 15.11 19.53 15.37 18.8 16.09 19.53 16.82 19.78 17.07 22.88 20.17 22.97 20.26 24.16 19.07 24.21 19.01 24.16 18.96 22.88 17.67 22.19 16.98 22.88 16.98 24.16 16.98"/><polygon class="cls-2" points="15.1 9.75 15.1 13.3 16.87 13.3 16.87 9.75 16.87 8.47 16.87 7.79 17.56 8.47 18.15 9.05 18.85 9.75 18.9 9.8 18.96 9.75 20.15 8.56 20.06 8.47 18.15 6.56 16.96 5.38 16.71 5.12 15.98 4.4 15.26 5.12 15.01 5.38 11.91 8.47 11.82 8.56 13.01 9.75 13.06 9.8 13.12 9.75 14.41 8.47 15.1 7.79 15.1 8.47 15.1 9.75"/><polygon class="cls-2" points="16.87 22.38 16.87 18.83 15.1 18.83 15.1 22.38 15.1 23.66 15.1 24.34 14.41 23.66 13.82 23.07 13.12 22.38 13.06 22.32 13.01 22.38 11.82 23.57 11.91 23.66 13.82 25.57 15.01 26.75 15.26 27.01 15.98 27.73 16.71 27.01 16.96 26.75 20.06 23.66 20.15 23.57 18.96 22.38 18.9 22.32 18.85 22.38 17.56 23.66 16.87 24.34 16.87 23.66 16.87 22.38"/></g></g></g></svg>