<svg xmlns="http://www.w3.org/2000/svg" viewBox="0 0 32 32"><defs><style>.cls-1{fill:#c2c2c2;}.cls-2{fill:#fff;}.cls-3{fill:#d83b01;}</style></defs><title>gateway</title><g id="Layer_2" data-name="Layer 2"><g id="SYMBOLS"><g id="gateway"><path class="cls-1" d="M32,16V30H28a1.85,1.85,0,0,1-.16.78,2.06,2.06,0,0,1-1.06,1.06,2,2,0,0,1-1.56,0,2.06,2.06,0,0,1-1.06-1.06A1.85,1.85,0,0,1,24,30H8a1.85,1.85,0,0,1-.16.78,1.81,1.81,0,0,1-.43.63,1.81,1.81,0,0,1-.63.43,2,2,0,0,1-1.56,0,1.81,1.81,0,0,1-.63-.43,1.81,1.81,0,0,1-.43-.63A1.85,1.85,0,0,1,4,30H0V16H4V1A1,1,0,0,1,4.3.3.94.94,0,0,1,5,0a1,1,0,0,1,.7.3A1,1,0,0,1,6,1V16Z"/><rect class="cls-1" x="2" y="18" width="28" height="10"/><rect class="cls-2" x="6.14" y="19.47" width="1.7" height="7.07" transform="translate(-14.22 11.68) rotate(-45)"/><rect class="cls-2" x="12.14" y="19.47" width="1.7" height="7.07" transform="translate(-12.46 15.93) rotate(-45)"/><path class="cls-2" d="M19,24a1,1,0,0,1-1-1,1,1,0,0,1,.3-.7A.94.94,0,0,1,19,22a1,1,0,0,1,1,1,.94.94,0,0,1-.3.7A1,1,0,0,1,19,24Z"/><path class="cls-3" d="M25,26a3,3,0,0,1-1.17-.23,3.12,3.12,0,0,1-1.6-1.6,3.09,3.09,0,0,1,0-2.34,3.12,3.12,0,0,1,1.6-1.6,3.09,3.09,0,0,1,2.34,0,3.12,3.12,0,0,1,1.6,1.6,3.09,3.09,0,0,1,0,2.34,3.12,3.12,0,0,1-1.6,1.6A3,3,0,0,1,25,26Z"/><path class="cls-2" d="M25,22a.94.94,0,0,0-.7.3,1,1,0,0,0-.3.7,1,1,0,0,0,1,1,1,1,0,0,0,.7-.3A.94.94,0,0,0,26,23a1,1,0,0,0-1-1Z"/></g></g></g></svg>