<svg xmlns="http://www.w3.org/2000/svg" viewBox="0 0 31.97 11.42"><defs><style>.cls-1{fill:none;}.cls-2{fill:#c2c2c2;}.cls-3{fill:#2f2f2f;}.cls-4{fill:#d83b01;}</style></defs><title>hard_disk</title><g id="Layer_2" data-name="Layer 2"><g id="SYMBOLS"><g id="hard_disk"><path class="cls-1" d="M3.43,6.85a1.1,1.1,0,0,0-.81.34,1.12,1.12,0,0,0-.34.8A1.16,1.16,0,0,0,3.43,9.13,1.16,1.16,0,0,0,4.57,8a1.12,1.12,0,0,0-.34-.8A1.1,1.1,0,0,0,3.43,6.85Z"/><path class="cls-2" d="M27.4,0V4.57H4.57V0H0V11.42H32V0ZM4.23,8.79a1.12,1.12,0,0,1-1.61,0A1.1,1.1,0,0,1,2.28,8a1.12,1.12,0,0,1,.34-.8,1.12,1.12,0,0,1,1.61,0,1.12,1.12,0,0,1,.34.8A1.1,1.1,0,0,1,4.23,8.79Zm4.56,0a1.11,1.11,0,0,1-1.6,0A1.07,1.07,0,0,1,6.85,8a1.08,1.08,0,0,1,.34-.8,1.11,1.11,0,0,1,1.6,0,1.08,1.08,0,0,1,.34.8A1.07,1.07,0,0,1,8.79,8.79Z"/><rect class="cls-3" x="6.85" width="18.27" height="2.3"/><path class="cls-4" d="M8,6.85a1.07,1.07,0,0,0-.8.34,1.08,1.08,0,0,0-.34.8A1.16,1.16,0,0,0,8,9.13,1.16,1.16,0,0,0,9.13,8a1.08,1.08,0,0,0-.34-.8A1.07,1.07,0,0,0,8,6.85Z"/></g></g></g></svg>