<svg xmlns="http://www.w3.org/2000/svg" viewBox="0 0 31.97 31.94"><defs><style>.cls-1{fill:#d83b01;}</style></defs><title>headset</title><g id="Layer_2" data-name="Layer 2"><g id="SYMBOLS"><g id="headset"><path d="M6,12V12a10,10,0,0,1,20,0V23h4c1,0,2,0,2-2V14c-.09-2-1-2-2-2H28A12,12,0,0,0,4,12H2c-1,0-2-.11-2,1.92L0,21c0,2,1.12,2,2.06,2l2,0a6.78,6.78,0,0,0,2.1,4.84,8.31,8.31,0,0,0,5.06,2.08,3,3,0,0,0,2.82,2h2a3,3,0,0,0,0-6H14a3,3,0,0,0-2.79,1.94,5.45,5.45,0,0,1-3.65-1.44A5.79,5.79,0,0,1,6,23ZM14,28h2a1,1,0,0,1,0,2H14a1,1,0,0,1,0-2Z"/><path class="cls-1" d="M14,28h2a1,1,0,0,1,0,2H14a1,1,0,0,1,0-2Z"/></g></g></g></svg>