<svg xmlns="http://www.w3.org/2000/svg" viewBox="0 0 28.37 31.97"><defs><style>.cls-1{fill:#c2c2c2;}</style></defs><title>load_balancer_symbol</title><g id="Layer_2" data-name="Layer 2"><g id="SYMBOLS"><g id="load_balancer_symbol"><polygon class="cls-1" points="22.54 20.54 15.14 13.14 15.16 9.85 24.19 18.88 25.39 20.08 26.03 20.72 26.03 19.43 26.04 18.34 26.04 17.03 26.04 16.93 26.14 16.93 28.37 16.93 28.37 17.1 28.37 20.67 28.37 22.88 28.37 23.36 28.37 24.71 27.02 24.71 26.54 24.71 20.75 24.71 20.58 24.71 20.59 22.49 20.58 22.39 20.69 22.39 23.09 22.38 24.37 22.37 23.73 21.73 22.54 20.54"/><polygon class="cls-1" points="5.83 20.17 12.83 13.17 12.84 9.85 4.18 18.52 2.98 19.71 2.34 20.35 2.34 19.07 2.33 17.97 2.33 16.67 2.33 16.57 2.22 16.57 0 16.57 0 16.73 0 20.3 0 22.52 0 23 0 24.35 1.35 24.35 1.83 24.35 7.62 24.35 7.78 24.35 7.78 22.12 7.78 22.02 7.68 22.02 5.28 22.01 4 22.01 4.63 21.37 5.83 20.17"/><polygon class="cls-1" points="12.83 24.89 12.83 6.12 15.17 6.12 15.17 24.89 15.17 26.58 15.17 27.49 16.08 26.58 16.86 25.81 17.79 24.89 17.86 24.82 17.93 24.89 19.5 26.46 19.39 26.58 16.86 29.11 15.29 30.67 14.96 31.01 14 31.97 13.04 31.01 12.71 30.67 8.62 26.58 8.5 26.46 10.07 24.89 10.14 24.82 10.22 24.89 11.92 26.58 12.83 27.49 12.83 26.58 12.83 24.89"/><circle class="cls-1" cx="14" cy="3.23" r="3.23"/></g></g></g></svg>