<svg xmlns="http://www.w3.org/2000/svg" viewBox="0 0 25.24 32.97"><defs><style>.cls-1{fill:#939393;}.cls-2{fill:#c2c2c2;}.cls-3{fill:none;stroke:#939393;stroke-linecap:round;stroke-miterlimit:10;stroke-width:2px;}</style></defs><title>microphone_webcast</title><g id="Layer_2" data-name="Layer 2"><g id="SYMBOLS"><g id="microphone_webcast"><path class="cls-1" d="M10.23,10.12a2.63,2.63,0,0,1-.92.89,7.18,7.18,0,0,1-1.39.68,9.62,9.62,0,0,1-1.52.43,6.81,6.81,0,0,1-1.29.15A6.82,6.82,0,0,1,3.32,12a7.6,7.6,0,0,1-1.69-.66L6.25,25.22a2,2,0,0,0,.76,1,2,2,0,0,0,1.17.38,1.91,1.91,0,0,0,.8-.16A2,2,0,0,0,9.63,26a2.2,2.2,0,0,0,.44-.65,4.27,4.27,0,0,0,.16-.8V10.12Z"/><path class="cls-2" d="M.41,7.1a5.34,5.34,0,0,0,1.1,1.62,5.22,5.22,0,0,0,1.62,1.1,5,5,0,0,0,4,0,5.46,5.46,0,0,0,1.62-1.1A5.34,5.34,0,0,0,9.82,7.1a5,5,0,0,0,0-4,5.22,5.22,0,0,0-1.1-1.62A5.46,5.46,0,0,0,7.1.41a5,5,0,0,0-4,0A5.21,5.21,0,0,0,.41,3.13a5,5,0,0,0,0,4Z"/><path class="cls-3" d="M9,28.26a3.78,3.78,0,0,0,3.61,2.47c2.3,0,3.35-1.74,4-3.15,1-2,2.19-3.15,4.41-3a3.44,3.44,0,0,1,3.13,2.82c.36,1.72-.49,3.23-1.7,4.58"/></g></g></g></svg>