<svg xmlns="http://www.w3.org/2000/svg" viewBox="0 0 25.54 32.97"><defs><style>.cls-1{fill:#939393;}.cls-2{fill:#c2c2c2;}.cls-3{fill:none;stroke:#939393;stroke-linecap:round;stroke-miterlimit:10;stroke-width:2px;}.cls-4{fill:#d83b01;}</style></defs><title>microphone_mute</title><g id="Layer_2" data-name="Layer 2"><g id="SYMBOLS"><g id="microphone_mute"><path class="cls-1" d="M10.26,10.15a2.73,2.73,0,0,1-.92.9A7.48,7.48,0,0,1,8,11.73a9.73,9.73,0,0,1-1.53.43,6.25,6.25,0,0,1-1.29.16,6.72,6.72,0,0,1-1.79-.24,7.49,7.49,0,0,1-1.7-.66L6.27,25.3a2,2,0,0,0,.76,1,2,2,0,0,0,1.18.38,2,2,0,0,0,1.45-.6,1.83,1.83,0,0,0,.44-.65,3.46,3.46,0,0,0,.16-.8,7.57,7.57,0,0,1-3.35-6.51c0-2.52,1.59-4.18,3.35-5.54Z"/><path class="cls-2" d="M.41,7.12a5.38,5.38,0,0,0,1.1,1.63,5.38,5.38,0,0,0,1.63,1.1,4.79,4.79,0,0,0,2,.41,4.76,4.76,0,0,0,2-.41,5.38,5.38,0,0,0,1.63-1.1,5.38,5.38,0,0,0,1.1-1.63,4.76,4.76,0,0,0,.41-2,4.79,4.79,0,0,0-.41-2A5.25,5.25,0,0,0,7.12.41a5,5,0,0,0-4,0A5.25,5.25,0,0,0,.41,3.14a5,5,0,0,0,0,4Z"/><path class="cls-3" d="M9.21,28.25a3.79,3.79,0,0,0,3.62,2.48c2.31,0,3.36-1.75,4-3.16,1-2,2.2-3.16,4.43-3a3.47,3.47,0,0,1,3.14,2.83c.36,1.73-.49,3.25-1.71,4.6"/><path class="cls-4" d="M14.43,12.58a5.63,5.63,0,0,1,2.28.46,5.87,5.87,0,0,1,3.1,3.1,5.86,5.86,0,0,1,0,4.55,5.8,5.8,0,0,1-1.25,1.86,6,6,0,0,1-1.85,1.25,6,6,0,0,1-4.55,0,6,6,0,0,1-1.86-1.25,5.85,5.85,0,0,1-1.25-6.41,5.87,5.87,0,0,1,1.25-1.85A5.8,5.8,0,0,1,12.16,13,5.58,5.58,0,0,1,14.43,12.58Zm-4.17,5.84A4,4,0,0,0,10.59,20a4.12,4.12,0,0,0,2.22,2.22,4.12,4.12,0,0,0,2.82.15,4.18,4.18,0,0,0,1.09-.51L11,16.12a4.41,4.41,0,0,0-.51,1.1A4.06,4.06,0,0,0,10.26,18.42Zm7.65,2.29a4,4,0,0,0,.52-1.09,4.46,4.46,0,0,0,.17-1.2,4,4,0,0,0-.33-1.62,4.3,4.3,0,0,0-2.22-2.22,4,4,0,0,0-1.62-.33,4.4,4.4,0,0,0-1.2.17,4,4,0,0,0-1.09.52Z"/></g></g></g></svg>