<svg xmlns="http://www.w3.org/2000/svg" viewBox="0 0 20.95 31.97"><defs><style>.cls-1{fill:#c2c2c2;}</style></defs><title>mouse</title><g id="Layer_2" data-name="Layer 2"><g id="SYMBOLS"><path id="mouse" class="cls-1" d="M20.77.52a.94.94,0,0,0-.12-.18A1,1,0,0,0,20,.05H11.47V11a1,1,0,0,1-1,1,1,1,0,0,1-.7-.3,1,1,0,0,1-.29-.7V0c-.28,0-8,.1-8.26.2A2.32,2.32,0,0,0,.58.63a1.93,1.93,0,0,0-.42.63A1.85,1.85,0,0,0,0,2V25a7.56,7.56,0,0,0,.55,2.72,7.2,7.2,0,0,0,1.5,2.21,7,7,0,0,0,2.21,1.49A6.76,6.76,0,0,0,7,32h6.88a10.61,10.61,0,0,0,2.83-.56,7,7,0,0,0,3.7-3.7A6.76,6.76,0,0,0,21,25V1A.91.91,0,0,0,20.77.52Z"/></g></g></svg>