<svg xmlns="http://www.w3.org/2000/svg" viewBox="0 0 31.97 22.83"><defs><style>.cls-1{fill:#2f2f2f;}</style></defs><title>nic</title><g id="Layer_2" data-name="Layer 2"><g id="SYMBOLS"><g id="nic"><path class="cls-1" d="M32,0H0V20.55H2.34v2.28H3.48V20.55H4.62v2.28H6.9V20.55H8.05v2.28H9.19V20.55h1.14v2.28h1.14V20.55h1.14v2.28h1.14V20.55H14.9v2.28h2.28V20.55H32ZM0,8V6.85H8V3.43h6.85V2.28h5.71V5.71H14.84V4.57H9.13V8Zm0,3.43V10.28H12.56V9.13H22.83V8h5.71v3.43H22.83V10.28H13.7v4.56h5.71V13.7h6.85v3.43H19.41V16H12.56V11.42Z"/></g></g></g></svg>