<svg xmlns="http://www.w3.org/2000/svg" viewBox="0 0 31.97 22.8"><defs><style>.cls-1{fill:none;}.cls-2{fill:#c2c2c2;}.cls-3{fill:#d83b01;}.cls-4{fill:#fff;}</style></defs><title>pbx</title><g id="Layer_2" data-name="Layer 2"><g id="SYMBOLS"><g id="pbx"><rect class="cls-1" x="15.98" y="9.11" width="4.58" height="4.58"/><rect class="cls-1" x="15.98" y="2.24" width="4.58" height="4.58"/><rect class="cls-1" x="22.86" y="9.11" width="4.58" height="4.58"/><rect class="cls-1" x="2.24" y="2.24" width="11.46" height="11.46"/><rect class="cls-1" x="22.86" y="15.98" width="4.58" height="4.58"/><rect class="cls-1" x="15.98" y="15.98" width="4.58" height="4.58"/><path class="cls-2" d="M32,0H0V22.8H32ZM28.58,2.3V6.76H24V2.3ZM17.13,6.82V2.24h4.58V6.82ZM2.24,13.69V2.3l12.61-.06V13.69Zm14.89,0V9.11h4.58v4.58Zm6.87,0V9.11h4.59v4.58Zm-6.87,6.88V16h4.58v4.59Zm6.87,0V16h4.59v4.59Z"/><rect class="cls-3" x="2.25" y="15.97" width="12.6" height="4.46"/><rect class="cls-4" x="24" y="2.3" width="4.58" height="4.46"/></g></g></g></svg>