<svg xmlns="http://www.w3.org/2000/svg" viewBox="0 0 31.97 31.95"><defs><style>.cls-1{fill:#2f2f2f;}</style></defs><title>phone_handset</title><g id="Layer_2" data-name="Layer 2"><g id="SYMBOLS"><g id="phone_handset"><path class="cls-1" d="M24.91,32a13.88,13.88,0,0,1-4-.63,22.51,22.51,0,0,1-4.21-1.77,31.89,31.89,0,0,1-4.17-2.68,38.09,38.09,0,0,1-3.92-3.39,38.22,38.22,0,0,1-3.42-3.89A32.45,32.45,0,0,1,2.45,15.4a22.37,22.37,0,0,1-1.8-4.24A14.13,14.13,0,0,1,0,7,8.12,8.12,0,0,1,.24,4.91,5.54,5.54,0,0,1,1,3.35,9.38,9.38,0,0,1,2.1,2L3.62.48A1.59,1.59,0,0,1,4.78,0a1.63,1.63,0,0,1,.76.26,6,6,0,0,1,.91.67c.33.27.65.58,1,.92s.66.67,1,1l.83.91c.26.28.46.5.62.65a1.61,1.61,0,0,1,.48,1.18,1.51,1.51,0,0,1-.27.86,4.56,4.56,0,0,1-.66.78c-.26.26-.55.53-.86.81A7.57,7.57,0,0,0,7.68,9,5.09,5.09,0,0,0,7,10.06a3.64,3.64,0,0,0-.26,1.4A4.06,4.06,0,0,0,7.05,13a3.92,3.92,0,0,0,.85,1.28l9.82,9.82a3.92,3.92,0,0,0,1.28.85,4,4,0,0,0,1.5.29,3.43,3.43,0,0,0,1.4-.27A5,5,0,0,0,23,24.28a7.49,7.49,0,0,0,.92-.86c.27-.32.55-.6.81-.87a5.7,5.7,0,0,1,.78-.66,1.55,1.55,0,0,1,.86-.26,1.59,1.59,0,0,1,1.17.48l.65.61.91.84c.33.3.66.63,1,1s.65.67.92,1a6.83,6.83,0,0,1,.67.92,1.46,1.46,0,0,1-.22,1.92L30,29.88A8.09,8.09,0,0,1,28.62,31a5.51,5.51,0,0,1-1.56.7A8.23,8.23,0,0,1,24.91,32Z"/></g></g></g></svg>