<svg xmlns="http://www.w3.org/2000/svg" viewBox="0 0 31.97 13.7"><defs><style>.cls-1{fill:#c2c2c2;}</style></defs><title>router</title><g id="Layer_2" data-name="Layer 2"><g id="SYMBOLS"><path id="router" class="cls-1" d="M2.28,0H0V13.7H5.71V11.42H26.26V13.7H32V0H2.28ZM8.59,6.47a1.17,1.17,0,0,1-1.69,0A1.2,1.2,0,0,1,8.59,4.78a1.17,1.17,0,0,1,0,1.69Zm4,0a1.15,1.15,0,0,1-.84.36,1.12,1.12,0,0,1-.84-.36,1.17,1.17,0,0,1,0-1.69,1.15,1.15,0,0,1,.84-.35,1.18,1.18,0,0,1,.84.35,1.17,1.17,0,0,1,0,1.69Zm4.38,0a1.17,1.17,0,0,1-1.69,0A1.2,1.2,0,1,1,17,4.78a1.17,1.17,0,0,1,0,1.69Zm4.38,0a1.2,1.2,0,0,1-2-.84,1.15,1.15,0,0,1,.35-.85,1.2,1.2,0,0,1,1.69,0,1.2,1.2,0,0,1,0,1.69Zm4,0a1.16,1.16,0,0,1-.85.36,1.14,1.14,0,0,1-.84-.36,1.17,1.17,0,0,1,0-1.69,1.16,1.16,0,0,1,.84-.35,1.2,1.2,0,0,1,.85,2Z"/></g></g></svg>