<svg xmlns="http://www.w3.org/2000/svg" viewBox="0 0 31.97 22.83"><defs><style>.cls-1{fill:#c2c2c2;}</style></defs><title>router_access_point</title><g id="Layer_2" data-name="Layer 2"><g id="SYMBOLS"><path id="router_access_point" class="cls-1" d="M3.43,0A1,1,0,0,0,2.28,1.14v8H0v13.7H5.71V20.55H26.26v2.28H32V9.13H29.68v-8a1.14,1.14,0,0,0-2.28,0v8H4.57v-8A1,1,0,0,0,3.43,0ZM8.59,15.6a1.2,1.2,0,0,1-2-.84,1.18,1.18,0,0,1,.35-.84,1.21,1.21,0,0,1,2,.84A1.12,1.12,0,0,1,8.59,15.6Zm4,0a1.15,1.15,0,0,1-.84.36,1.23,1.23,0,0,1-1.2-1.2,1.15,1.15,0,0,1,.36-.84,1.12,1.12,0,0,1,.84-.36,1.23,1.23,0,0,1,1.2,1.2A1.12,1.12,0,0,1,12.61,15.6Zm4.38,0a1.2,1.2,0,0,1-2-.84,1.18,1.18,0,0,1,.35-.84,1.21,1.21,0,0,1,2.05.84A1.12,1.12,0,0,1,17,15.6Zm4.38,0a1.17,1.17,0,0,1-1.69,0,1.11,1.11,0,0,1-.35-.84,1.14,1.14,0,0,1,.35-.84,1.17,1.17,0,0,1,1.69,0,1.14,1.14,0,0,1,.35.84A1.11,1.11,0,0,1,21.37,15.6Zm4,0a1.16,1.16,0,0,1-.85.36,1.14,1.14,0,0,1-.84-.36,1.12,1.12,0,0,1-.36-.84,1.15,1.15,0,0,1,.36-.84,1.14,1.14,0,0,1,.84-.36,1.16,1.16,0,0,1,.85.36,1.18,1.18,0,0,1,.35.84A1.15,1.15,0,0,1,25.33,15.6Z"/></g></g></svg>