<svg xmlns="http://www.w3.org/2000/svg" viewBox="0 0 28.02 31.97"><defs><style>.cls-1{fill:#c2c2c2;}.cls-2{fill:#2f2f2f;}.cls-3{fill:#d83b01;}</style></defs><title>router_wireless</title><g id="Layer_2" data-name="Layer 2"><g id="SYMBOLS"><g id="router_wireless"><path class="cls-1" d="M.32,4.52V28.2H11V.26H.32ZM6.64,20a1.06,1.06,0,1,1-1.5,1.5A1.06,1.06,0,0,1,6.64,20Zm0-3.57a1.06,1.06,0,0,1,.32.75,1.06,1.06,0,0,1-1.82.75,1,1,0,0,1-.31-.75,1.05,1.05,0,0,1,.31-.75,1.06,1.06,0,0,1,1.5,0Zm0-3.88A1.06,1.06,0,0,1,5.14,14a1.06,1.06,0,1,1,1.5-1.5Zm0-3.89a1.06,1.06,0,1,1-1.5,1.5,1.06,1.06,0,0,1,1.5-1.5Zm0-3.51a1.06,1.06,0,1,1-1.5,1.5,1.06,1.06,0,0,1,1.5-1.5Z"/><path class="cls-2" d="M16.58,11a10.62,10.62,0,0,0-2.31-3.45L13,8.77a8.64,8.64,0,0,1,1.91,2.87A8.81,8.81,0,0,1,15.6,15,8.91,8.91,0,0,1,13,21.32l1.25,1.25A10.6,10.6,0,0,0,17.38,15,10.66,10.66,0,0,0,16.58,11Z"/><path class="cls-2" d="M22.39,18.17A15.6,15.6,0,0,0,22.7,15a15.67,15.67,0,0,0-.31-3.13,17.07,17.07,0,0,0-.9-3A16.06,16.06,0,0,0,20,6.19a18.36,18.36,0,0,0-2-2.43L16.78,5a14.31,14.31,0,0,1,3.07,4.61A14.18,14.18,0,0,1,20.92,15a14.32,14.32,0,0,1-.27,2.78,14.12,14.12,0,0,1-.8,2.64,14.37,14.37,0,0,1-1.3,2.45,14.72,14.72,0,0,1-1.77,2.17L18,26.33a17.16,17.16,0,0,0,2-2.43,16.06,16.06,0,0,0,1.47-2.74A16.92,16.92,0,0,0,22.39,18.17Z"/><path class="cls-2" d="M27.61,10.87a21.69,21.69,0,0,0-1.21-4,21.42,21.42,0,0,0-1.95-3.66A21.62,21.62,0,0,0,21.79,0L20.54,1.25a19.66,19.66,0,0,1,2.44,3,19.93,19.93,0,0,1,1.78,3.35,19,19,0,0,1,1.1,3.65,19.44,19.44,0,0,1,0,7.65,18.89,18.89,0,0,1-1.1,3.64A19.55,19.55,0,0,1,23,25.86a19.25,19.25,0,0,1-2.44,3l1.25,1.25a21.62,21.62,0,0,0,2.66-3.24,21.42,21.42,0,0,0,1.95-3.66A21.11,21.11,0,0,0,28,15,21.52,21.52,0,0,0,27.61,10.87Z"/><rect class="cls-3" y="30.09" width="11.28" height="1.88"/></g></g></g></svg>