<svg id="ArrowUp" xmlns="http://www.w3.org/2000/svg" viewBox="0 0 32 32"><defs><style>.cls-1{fill:none;}.cls-2{fill:#c2c2c2;}.cls-3{fill:#d2d2d2;}.cls-4{fill:#0078d4;}</style></defs><title>ShareOnMultipleDevices-blue</title><polygon class="cls-1" points="3.83 27 3.83 25.44 1.82 25.44 1.82 27 1.82 27.41 3.83 27.41 3.83 27"/><polygon class="cls-1" points="22.81 27 22.81 27.01 25.82 27.01 25.82 27 25.82 25 22.81 25 22.81 27"/><path class="cls-2" d="M17.94,14.06V7.9H0v7.46H6.09a2,2,0,0,1,2,2V27h6.14v3h-4v2h10V30H17.47a1.84,1.84,0,0,1-.33,0,2,2,0,0,1-.9-.4A2,2,0,0,1,15.47,28V18a2,2,0,0,1,2-2H30.3v-1.9H17.94Z"/><path class="cls-2" d="M6.08,28.42V17.36h-6V28.42ZM1.82,27V25.44h2v2h-2Z"/><path class="cls-3" d="M31.54,18H17.47V28H31.55Zm-5.72,9h-3V25h3Z"/><path class="cls-4" d="M20,0V12.05H32V0Zm7.59,9.1a3,3,0,0,1-2.1.72,4.56,4.56,0,0,1-1.8-.33V8.09a3.07,3.07,0,0,0,1.62.47,1.49,1.49,0,0,0,1-.31.87.87,0,0,0,.27-.34,1.15,1.15,0,0,0,.11-.5c0-.74-.53-1.1-1.57-1.1a11.54,11.54,0,0,0-1.33.09L24,2.24H28V3.59H25.28l-.1,1.48.69,0a2.52,2.52,0,0,1,1.79.61,2.09,2.09,0,0,1,.65,1.61,2.82,2.82,0,0,1-.08.65A2.29,2.29,0,0,1,27.54,9.1Z"/></svg>