<?xml version="1.0" encoding="utf-8"?>
<!-- Generator: Adobe Illustrator 22.1.0, SVG Export Plug-In . SVG Version: 6.00 Build 0)  -->
<svg version="1.1" id="Layer_1" xmlns="http://www.w3.org/2000/svg" xmlns:xlink="http://www.w3.org/1999/xlink" x="0px" y="0px"
	 viewBox="0 0 64 64" style="enable-background:new 0 0 64 64;" xml:space="preserve">
<style type="text/css">
	.st0{fill:#C2C2C2;}
	.st1{fill:#2F2F2F;}
	.st2{fill:none;stroke:#C2C2C2;stroke-width:0.5;stroke-miterlimit:10;}
</style>
<g id="Background">
</g>
<g id="Symbols">
</g>
<g>
	<path class="st0" d="M1.8,11.6h60.4c1,0,1.8,0.8,1.8,1.8v37.1c0,1-0.8,1.8-1.8,1.8H1.8c-1,0-1.8-0.8-1.8-1.8V13.4
		C0,12.4,0.8,11.6,1.8,11.6z"/>
	<g>
		
			<rect x="4.3" y="35.3" transform="matrix(6.346460e-03 -1 1 6.346460e-03 -29.9471 52.0387)" class="st1" width="13.8" height="11.6"/>
		<line class="st2" x1="17.1" y1="37.4" x2="12.9" y2="37.4"/>
		<line class="st2" x1="17.1" y1="41.1" x2="12.9" y2="41.1"/>
		<line class="st2" x1="17.1" y1="44.8" x2="12.9" y2="44.8"/>
		<line class="st2" x1="9.5" y1="37.4" x2="5.3" y2="37.4"/>
		<line class="st2" x1="9.5" y1="41.1" x2="5.3" y2="41.1"/>
		<line class="st2" x1="9.5" y1="44.8" x2="5.3" y2="44.8"/>
	</g>
</g>
</svg>
