<svg id="ArrowUp" xmlns="http://www.w3.org/2000/svg" viewBox="0 0 32 32"><defs><style>.cls-1{fill:none;}.cls-2{fill:#c2c2c2;}.cls-3{fill:#d2d2d2;}.cls-4{fill:#0078d4;}</style></defs><title>UseOnAllDevices-blue</title><polygon class="cls-1" points="22.8 26.97 22.8 26.98 25.81 26.98 25.81 26.97 25.81 24.97 22.8 24.97 22.8 26.97"/><polygon class="cls-1" points="3.82 26.97 3.82 25.41 1.81 25.41 1.81 26.97 1.81 27.38 3.82 27.38 3.82 26.97"/><path class="cls-2" d="M6.08,28.38v-11h-6V28.39ZM1.81,27V25.41h2v2h-2Z"/><path class="cls-3" d="M17.46,18V28H31.53v-10H17.46Zm8.35,9h-3V25h3Z"/><polygon class="cls-1" points="29.97 4.21 28.91 3.14 24.42 7.63 22.7 5.9 21.63 6.97 24.42 9.76 29.97 4.21"/><path class="cls-4" d="M25.83,12.38a6.18,6.18,0,1,0-6.18-6.17A6.17,6.17,0,0,0,25.83,12.38ZM22.7,5.9l1.72,1.73,4.49-4.49L30,4.21,24.42,9.76,21.63,7Z"/><path class="cls-2" d="M0,15.34H6.09a2,2,0,0,1,2,2V27h6.13v3h-4v2h10V30H17.46a1.69,1.69,0,0,1-.33,0,2,2,0,0,1-.9-.4A2,2,0,0,1,15.46,28v-10a2,2,0,0,1,2-2H30.28V13.21a8.26,8.26,0,0,1-4.48,1.32,8.34,8.34,0,0,1-8.15-6.64H0Z"/></svg>