<svg xmlns="http://www.w3.org/2000/svg" viewBox="0 0 31.97 25.37"><defs><style>.cls-1{fill:#939393;}.cls-2{fill:#c2c2c2;}</style></defs><title>virtual_machine</title><g id="Layer_2" data-name="Layer 2"><g id="SYMBOLS"><g id="virtual_machine"><path class="cls-1" d="M5.21,19h21V14.27H12.62l0-3.09,3.07-2.12V5.48l-10.52,0Z"/><path class="cls-1" d="M31.36,24.67a1.71,1.71,0,0,0-.18-.62l-4.92-3.42H5.17L.25,24.05a1.68,1.68,0,0,0-.19.62,5.33,5.33,0,0,0-.06.7H31.43A4.2,4.2,0,0,0,31.36,24.67Z"/><path class="cls-2" d="M29.08,0H17.36V8.66L29.08,8.6Z"/><path class="cls-2" d="M31.93,12.25a1,1,0,0,0-.1-.4L29.09,9.68H17.33l-2.74,2.17a1,1,0,0,0-.1.4,2.73,2.73,0,0,0,0,.44H32A2.73,2.73,0,0,0,31.93,12.25Z"/></g></g></g></svg>