<svg xmlns="http://www.w3.org/2000/svg" viewBox="0 0 31.97 11.42"><defs><style>.cls-1{fill:#c2c2c2;}</style></defs><title>vpn_device</title><g id="Layer_2" data-name="Layer 2"><g id="SYMBOLS"><path id="vpn_device" class="cls-1" d="M27.4,0H0V11.42H32V0ZM10.81,6.78a1.08,1.08,0,0,1-.8.34,1.07,1.07,0,0,1-.8-.34A1.08,1.08,0,0,1,8.87,6,1.16,1.16,0,0,1,10,4.83a1.12,1.12,0,0,1,.8.34,1.1,1.1,0,0,1,.34.81A1.08,1.08,0,0,1,10.81,6.78Zm3.83,0a1.1,1.1,0,0,1-.81.34,1.08,1.08,0,0,1-.8-.34,1.12,1.12,0,0,1-.34-.8A1.14,1.14,0,0,1,13,5.17a1.12,1.12,0,0,1,.8-.34A1.16,1.16,0,0,1,15,6,1.12,1.12,0,0,1,14.64,6.78Zm4.16,0a1.11,1.11,0,0,1-1.6,0,1.08,1.08,0,0,1-.34-.8,1.14,1.14,0,0,1,2.28,0A1.08,1.08,0,0,1,18.8,6.78Zm4.17,0a1.12,1.12,0,0,1-1.61,0A1.12,1.12,0,0,1,21,6a1.15,1.15,0,0,1,2.29,0A1.12,1.12,0,0,1,23,6.78Zm3.76,0a1.11,1.11,0,0,1-1.6,0,1.08,1.08,0,0,1-.34-.8,1.14,1.14,0,0,1,2.28,0A1.08,1.08,0,0,1,26.73,6.78Z"/></g></g></svg>