<svg xmlns="http://www.w3.org/2000/svg" viewBox="0 0 31.97 25.23"><defs><style>.cls-1{fill:#2f2f2f;}.cls-2{fill:none;}.cls-3{fill:#c2c2c2;}</style></defs><title>workstation</title><g id="Layer_2" data-name="Layer 2"><g id="SYMBOLS"><g id="workstation"><path class="cls-1" d="M.89,25.23H13.53a.89.89,0,0,0,.89-.89v-.91H9.75V5.54h4.67V.89A.89.89,0,0,0,13.53,0H.89A.89.89,0,0,0,0,.89V24.34A.89.89,0,0,0,.89,25.23Zm4.52-3.6H9v1.8H5.41Z"/><path class="cls-2" d="M30.37,9.06H13.14V21.74l0-1.37v-.09h17.2ZM21.54,14.6a.8.8,0,1,1,.8.8A.8.8,0,0,1,21.54,14.6Z"/><polygon class="cls-3" points="31.97 21.88 31.97 7.46 11.54 7.46 11.54 21.88 13.14 20.28 13.14 9.06 30.37 9.06 30.37 20.28 13.14 20.28 11.54 21.88 20.75 21.88 20.75 23.48 17.55 23.48 17.55 25.09 25.56 25.09 25.56 23.48 22.35 23.48 22.35 21.88 31.97 21.88"/></g></g></g></svg>