<svg width="20" height="16" viewBox="0 0 20 16" fill="none" xmlns="http://www.w3.org/2000/svg">
<path d="M20 0.5V15.5H0V0.5H20ZM1.25 1.75V8.36133L5.625 3.99609L11.875 10.2461L14.375 7.74609L18.75 12.1113V1.75H1.25ZM1.25 14.25H14.1113L5.625 5.75391L1.25 10.1387V14.25ZM18.75 14.25V13.8887L14.375 9.50391L12.7539 11.125L15.8887 14.25H18.75ZM15.625 5.5C15.4557 5.5 15.3092 5.43815 15.1855 5.31445C15.0618 5.19076 15 5.04427 15 4.875C15 4.70573 15.0618 4.55924 15.1855 4.43555C15.3092 4.31185 15.4557 4.25 15.625 4.25C15.7943 4.25 15.9408 4.31185 16.0645 4.43555C16.1882 4.55924 16.25 4.70573 16.25 4.875C16.25 5.04427 16.1882 5.19076 16.0645 5.31445C15.9408 5.43815 15.7943 5.5 15.625 5.5Z" fill="#742774"/>
</svg>
