<svg width="25" height="20" viewBox="0 0 25 20" fill="none" xmlns="http://www.w3.org/2000/svg">
<path d="M24.9883 8.28906C24.9883 9.25 24.875 10.1875 24.6484 11.1016C24.4219 12.0078 24.0977 12.8672 23.6758 13.6797C23.2539 14.4844 22.7383 15.2266 22.1289 15.9062C21.5273 16.5859 20.8477 17.1719 20.0898 17.6641C19.3398 18.1484 18.5195 18.5273 17.6289 18.8008C16.7383 19.0742 15.793 19.2109 14.793 19.2109C14.2617 19.2109 13.7305 19.1641 13.1992 19.0703C12.668 18.9766 12.1523 18.8398 11.6523 18.6602C11.1523 18.4805 10.6719 18.2539 10.2109 17.9805C9.75 17.707 9.32422 17.3867 8.93359 17.0195C8.76172 17.3164 8.55078 17.5859 8.30078 17.8281C8.05859 18.0703 7.78906 18.2773 7.49219 18.4492C7.20312 18.6133 6.89453 18.7422 6.56641 18.8359C6.23828 18.9219 5.90234 18.9648 5.55859 18.9648C4.94922 18.9648 4.41406 18.8516 3.95312 18.625C3.49219 18.3984 3.08984 18.0977 2.74609 17.7227C2.41016 17.3477 2.12891 16.9141 1.90234 16.4219C1.67578 15.9297 1.49219 15.4141 1.35156 14.875C1.21875 14.3359 1.12109 13.7969 1.05859 13.2578C1.00391 12.7109 0.976562 12.1953 0.976562 11.7109C0.976562 10.75 1.08984 9.81641 1.31641 8.91016C1.54297 7.99609 1.86719 7.13672 2.28906 6.33203C2.71094 5.51953 3.22266 4.77734 3.82422 4.10547C4.43359 3.42578 5.11719 2.84375 5.875 2.35938C6.63281 1.86719 7.45703 1.48437 8.34766 1.21094C9.23828 0.9375 10.1836 0.800781 11.1836 0.800781C11.707 0.800781 12.2344 0.847656 12.7656 0.941406C13.2969 1.02734 13.8125 1.16406 14.3125 1.35156C14.8125 1.53125 15.293 1.75781 15.7539 2.03125C16.2148 2.30469 16.6406 2.62109 17.0312 2.98047C17.2031 2.68359 17.4102 2.41406 17.6523 2.17188C17.9023 1.92969 18.1719 1.72656 18.4609 1.5625C18.7578 1.39062 19.0703 1.26172 19.3984 1.17578C19.7344 1.08203 20.0742 1.03516 20.418 1.03516C21.0273 1.03516 21.5625 1.14844 22.0234 1.375C22.4844 1.59375 22.8828 1.89453 23.2188 2.27734C23.5625 2.65234 23.8477 3.08594 24.0742 3.57812C24.3008 4.07031 24.4805 4.58594 24.6133 5.125C24.7461 5.66406 24.8398 6.20703 24.8945 6.75391C24.957 7.29297 24.9883 7.80469 24.9883 8.28906ZM5.55859 17.4648C6.13672 17.4648 6.60156 17.3164 6.95312 17.0195C7.30469 16.7227 7.60938 16.3359 7.86719 15.8594C7.38281 15.2266 7.01172 14.5352 6.75391 13.7852C6.49609 13.0273 6.36719 12.25 6.36719 11.4531C6.36719 10.7109 6.48828 9.97266 6.73047 9.23828C6.98047 8.50391 7.33203 7.84766 7.78516 7.26953C8.24609 6.68359 8.80078 6.21094 9.44922 5.85156C10.0977 5.48438 10.8242 5.30078 11.6289 5.30078C12.293 5.30078 12.957 5.41016 13.6211 5.62891C14.2852 5.84766 14.8828 6.16016 15.4141 6.56641C15.9453 6.97266 16.375 7.46875 16.7031 8.05469C17.0391 8.63281 17.207 9.28516 17.207 10.0117C17.207 10.4336 17.1445 10.8477 17.0195 11.2539C16.9023 11.6602 16.7188 12.0352 16.4688 12.3789C16.7344 12.1445 16.9688 11.8789 17.1719 11.582C17.3828 11.2852 17.5547 10.9727 17.6875 10.6445C17.8281 10.3164 17.9336 9.97656 18.0039 9.625C18.0742 9.26562 18.1094 8.91016 18.1094 8.55859C18.1094 7.94141 18.0195 7.35938 17.8398 6.8125C17.6602 6.25781 17.4102 5.75 17.0898 5.28906C16.7695 4.82031 16.3906 4.40234 15.9531 4.03516C15.5156 3.66016 15.0391 3.34375 14.5234 3.08594C14.0078 2.82812 13.4648 2.63281 12.8945 2.5C12.3242 2.35938 11.7461 2.28906 11.1602 2.28906C10.3008 2.28906 9.49219 2.41016 8.73438 2.65234C7.97656 2.88672 7.27344 3.21875 6.625 3.64844C5.98438 4.07031 5.40625 4.57812 4.89062 5.17188C4.38281 5.75781 3.94922 6.40234 3.58984 7.10547C3.23047 7.80078 2.95312 8.53906 2.75781 9.32031C2.57031 10.1016 2.47656 10.9023 2.47656 11.7227C2.47656 12.043 2.49219 12.4062 2.52344 12.8125C2.55469 13.2188 2.61328 13.6367 2.69922 14.0664C2.78516 14.4883 2.90234 14.9062 3.05078 15.3203C3.19922 15.7266 3.38672 16.0898 3.61328 16.4102C3.83984 16.7227 4.11328 16.9766 4.43359 17.1719C4.75391 17.3672 5.12891 17.4648 5.55859 17.4648ZM23.4883 8.27734C23.4883 7.95703 23.4727 7.59375 23.4414 7.1875C23.4102 6.78125 23.3516 6.36719 23.2656 5.94531C23.1797 5.51562 23.0625 5.09766 22.9141 4.69141C22.7656 4.28516 22.5781 3.92187 22.3516 3.60156C22.125 3.28125 21.8516 3.02344 21.5312 2.82812C21.2188 2.63281 20.8477 2.53516 20.418 2.53516C19.8398 2.53516 19.3711 2.68359 19.0117 2.98047C18.6602 3.27734 18.3555 3.66406 18.0977 4.14062C18.582 4.77344 18.9531 5.46875 19.2109 6.22656C19.4766 6.97656 19.6094 7.75391 19.6094 8.55859C19.6094 9.05078 19.5508 9.54688 19.4336 10.0469C19.3242 10.5391 19.1641 11.0156 18.9531 11.4766C18.7422 11.9297 18.4805 12.3516 18.168 12.7422C17.8633 13.1328 17.5156 13.4766 17.125 13.7734C16.7344 14.0625 16.3047 14.2891 15.8359 14.4531C15.3672 14.6172 14.8672 14.6992 14.3359 14.6992C13.6719 14.6992 13.0078 14.5898 12.3438 14.3711C11.6797 14.1523 11.082 13.8398 10.5508 13.4336C10.0195 13.0273 9.58594 12.5352 9.25 11.957C8.92188 11.3789 8.75781 10.7266 8.75781 10C8.75781 9.57031 8.82422 9.15625 8.95703 8.75781C9.08984 8.35938 9.26953 7.98047 9.49609 7.62109C9.23047 7.85547 8.99609 8.12109 8.79297 8.41797C8.58984 8.71484 8.41797 9.03125 8.27734 9.36719C8.13672 9.69531 8.03125 10.0391 7.96094 10.3984C7.89062 10.75 7.85547 11.1016 7.85547 11.4531C7.85547 12.0703 7.94531 12.6562 8.125 13.2109C8.30469 13.7578 8.55469 14.2656 8.875 14.7344C9.19531 15.1953 9.57422 15.6094 10.0117 15.9766C10.4492 16.3438 10.9258 16.6562 11.4414 16.9141C11.957 17.1719 12.5 17.3711 13.0703 17.5117C13.6406 17.6445 14.2188 17.7109 14.8047 17.7109C15.6641 17.7109 16.4727 17.5938 17.2305 17.3594C17.9961 17.1172 18.6992 16.7852 19.3398 16.3633C19.9883 15.9336 20.5664 15.4258 21.0742 14.8398C21.5898 14.2539 22.0234 13.6133 22.375 12.918C22.7344 12.2148 23.0078 11.4727 23.1953 10.6914C23.3906 9.90234 23.4883 9.09766 23.4883 8.27734Z" fill="white"/>
</svg>
