<svg width="27" height="27" viewBox="0 0 27 27" fill="none" xmlns="http://www.w3.org/2000/svg">
<path d="M6.74995 20.2502V22.9502C6.74995 23.6252 7.28995 24.3002 8.09995 24.3002H22.9499C23.76 24.3002 24.2999 23.6252 24.2999 22.9502V4.0502C24.2999 3.3752 23.76 2.7002 22.9499 2.7002H8.09995C7.28995 2.7002 6.74995 3.3752 6.74995 4.0502V6.7502H4.04995C3.23995 6.7502 2.69995 7.42519 2.69995 8.10019V18.9002C2.69995 19.5752 3.23995 20.2502 4.04995 20.2502H6.74995ZM16.2 14.8502H22.9499V18.9002H16.2V14.8502ZM16.2 13.5002V9.45019H22.9499V13.5002H16.2ZM8.09995 20.2502H14.85V22.9502H8.09995V20.2502ZM16.2 22.9502V20.2502H22.9499V22.9502H16.2ZM22.9499 8.10019H16.2V4.0502H22.9499V8.10019ZM8.09995 4.0502H14.85V6.7502H8.09995V4.0502ZM10.935 17.8202L9.44995 15.1202L7.96495 17.9552H5.26495L7.96495 13.5002L5.39995 9.1802H8.09995L9.44995 11.8802L10.935 9.1802H13.5L10.935 13.5002L13.635 17.9552H10.935V17.8202Z" fill="white"/>
</svg>
