<svg width="24" height="24" viewBox="0 0 24 24" fill="none" xmlns="http://www.w3.org/2000/svg">
<path d="M17 7.5C17 10.538 14.538 13 11.5 13C8.463 13 6 10.538 6 7.5C6 4.462 8.463 2 11.5 2C14.538 2 17 4.462 17 7.5Z" fill="#036C70"/>
<path d="M22 13C22 15.761 19.761 18 17 18C14.239 18 12 15.761 12 13C12 10.239 14.239 8 17 8C19.761 8 22 10.239 22 13Z" fill="#1A9BA1"/>
<path d="M16 18C16 20.209 14.209 22 12 22C9.791 22 8 20.209 8 18C8 15.791 9.791 14 12 14C14.209 14 16 15.791 16 18Z" fill="#37C6D0"/>
<path opacity="0.5" d="M13.939 7C14.523 7 15 7.45 15 8V17.839C15 18.389 14.375 19 13.731 19H8.141C8.058 18.679 8 18.347 8 18L6 7.5C6 7.331 6.01 7.165 6.025 7H13.939Z" fill="black"/>
<path d="M13 18H3C2.45 18 2 17.55 2 17V7C2 6.45 2.45 6 3 6H13C13.55 6 14 6.45 14 7V17C14 17.55 13.55 18 13 18Z" fill="#038387"/>
<path d="M6.19279 11.864C5.91579 11.674 5.70279 11.449 5.55479 11.189C5.40679 10.929 5.33179 10.622 5.33179 10.266C5.33179 9.79197 5.46979 9.39297 5.74579 9.07097C6.02079 8.74797 6.38679 8.50897 6.84379 8.35397C7.30079 8.19897 7.80079 8.12097 8.34479 8.12097C9.17879 8.12097 9.83779 8.21397 10.3228 8.39797V9.79497C10.0648 9.63497 9.76579 9.51297 9.42779 9.42897C9.08979 9.34497 8.74079 9.30297 8.38179 9.30297C7.94979 9.30297 7.59079 9.37897 7.30679 9.53097C7.02279 9.68297 6.88079 9.89797 6.88079 10.177C6.88079 10.352 6.94079 10.504 7.06079 10.635C7.18179 10.765 7.34379 10.882 7.54779 10.983C7.75179 11.084 8.05579 11.218 8.46079 11.385C8.52979 11.41 8.57379 11.427 8.59079 11.438C9.06879 11.633 9.45279 11.822 9.74179 12.005C10.0318 12.188 10.2578 12.417 10.4218 12.69C10.5858 12.964 10.6678 13.309 10.6678 13.724C10.6678 14.233 10.5388 14.648 10.2808 14.968C10.0228 15.29 9.67679 15.521 9.24479 15.664C8.81279 15.807 8.32079 15.879 7.76979 15.879C7.29879 15.879 6.85379 15.842 6.43379 15.769C6.01279 15.696 5.65079 15.591 5.34779 15.455V13.98C5.64379 14.2 6.01079 14.374 6.44679 14.503C6.88179 14.632 7.28479 14.697 7.65479 14.697C8.13979 14.697 8.50479 14.619 8.75079 14.464C8.99679 14.309 9.11979 14.09 9.11979 13.807C9.11979 13.616 9.05079 13.448 8.91279 13.305C8.77479 13.162 8.58479 13.03 8.34279 12.907C8.09979 12.786 7.74179 12.625 7.26779 12.426C6.82779 12.241 6.46979 12.054 6.19279 11.864Z" fill="white"/>
</svg>
