<svg width="24" height="23" viewBox="0 0 24 23" fill="none" xmlns="http://www.w3.org/2000/svg">
<path d="M22.582 0.5C22.7539 0.5 22.9258 0.539062 23.0977 0.617188C23.2695 0.6875 23.4219 0.785156 23.5547 0.910156C23.6875 1.02734 23.793 1.16797 23.8711 1.33203C23.957 1.49609 24 1.66797 24 1.84766V16.4492C24 16.6289 23.957 16.8008 23.8711 16.9648C23.793 17.1211 23.6836 17.2617 23.543 17.3867C23.4102 17.5117 23.2578 17.6094 23.0859 17.6797C22.9219 17.75 22.7539 17.7852 22.582 17.7852H15.7266C15.6562 18.043 15.5859 18.3086 15.5156 18.582C15.4531 18.8477 15.4219 19.1172 15.4219 19.3906C15.4219 19.7188 15.5 19.9766 15.6562 20.1641C15.8203 20.3516 16.0195 20.4922 16.2539 20.5859C16.4961 20.6797 16.7578 20.7422 17.0391 20.7734C17.3281 20.8047 17.5977 20.8281 17.8477 20.8438C18.1992 20.8672 18.5469 20.8828 18.8906 20.8906C19.2344 20.8906 19.582 20.8906 19.9336 20.8906V22.3203H4.06641V20.8906C4.42578 20.8906 4.78125 20.8867 5.13281 20.8789C5.48438 20.8711 5.83984 20.8594 6.19922 20.8438C6.48828 20.8203 6.80078 20.793 7.13672 20.7617C7.48047 20.7227 7.79297 20.6484 8.07422 20.5391C8.36328 20.4219 8.60156 20.2539 8.78906 20.0352C8.98438 19.8164 9.08203 19.5117 9.08203 19.1211C9.08203 18.8945 9.05859 18.6719 9.01172 18.4531C8.97266 18.2266 8.92188 18.0039 8.85938 17.7852H1.27734C1.09766 17.7852 0.929688 17.75 0.773438 17.6797C0.617188 17.6016 0.480469 17.5 0.363281 17.375C0.253906 17.25 0.164062 17.1094 0.09375 16.9531C0.03125 16.7891 0 16.6211 0 16.4492V1.84766C0 1.67578 0.03125 1.50781 0.09375 1.34375C0.164062 1.17969 0.253906 1.03516 0.363281 0.910156C0.480469 0.785156 0.617188 0.6875 0.773438 0.617188C0.929688 0.539062 1.09766 0.5 1.27734 0.5H22.582ZM22.1602 15.957V2.31641H1.78125V15.957H22.1602ZM18.668 10.6602V11.7148H15.5273V5.83203H16.7109V10.6602H18.668ZM12.0469 11.8203C11.625 11.8203 11.2539 11.7422 10.9336 11.5859C10.6133 11.4297 10.3477 11.2188 10.1367 10.9531C9.92578 10.6797 9.76562 10.3672 9.65625 10.0156C9.54688 9.66406 9.49219 9.29297 9.49219 8.90234C9.49219 8.49609 9.54688 8.10938 9.65625 7.74219C9.76562 7.36719 9.92969 7.03906 10.1484 6.75781C10.3672 6.47656 10.6406 6.25391 10.9688 6.08984C11.2969 5.91797 11.6836 5.83203 12.1289 5.83203C12.5508 5.83203 12.918 5.91406 13.2305 6.07812C13.5508 6.23437 13.8164 6.44922 14.0273 6.72266C14.2383 6.99609 14.3945 7.3125 14.4961 7.67188C14.5977 8.02344 14.6484 8.39453 14.6484 8.78516C14.6484 8.98828 14.6328 9.19531 14.6016 9.40625C14.5703 9.61719 14.5234 9.82422 14.4609 10.0273C14.3984 10.2305 14.3125 10.4258 14.2031 10.6133C14.1016 10.793 13.9766 10.9531 13.8281 11.0938L15.1641 12.5H13.5L12.8086 11.7148C12.5586 11.7852 12.3047 11.8203 12.0469 11.8203ZM10.7344 8.83203C10.7344 9.04297 10.7539 9.25781 10.793 9.47656C10.8398 9.69531 10.9141 9.89844 11.0156 10.0859C11.125 10.2656 11.2656 10.4141 11.4375 10.5312C11.6094 10.6406 11.8203 10.6953 12.0703 10.6953C12.3281 10.6953 12.543 10.6406 12.7148 10.5312C12.8867 10.4141 13.0195 10.2695 13.1133 10.0977C13.2148 9.91797 13.2852 9.71875 13.3242 9.5C13.3711 9.28125 13.3945 9.06641 13.3945 8.85547C13.3945 8.64453 13.375 8.42969 13.3359 8.21094C13.2969 7.98438 13.2266 7.77734 13.125 7.58984C13.0312 7.40234 12.8984 7.25 12.7266 7.13281C12.5625 7.01562 12.3516 6.95703 12.0938 6.95703C11.8359 6.95703 11.6211 7.01562 11.4492 7.13281C11.2773 7.24219 11.1367 7.39062 11.0273 7.57812C10.9258 7.75781 10.8516 7.96094 10.8047 8.1875C10.7578 8.40625 10.7344 8.62109 10.7344 8.83203ZM5.33203 7.55469C5.33203 7.25 5.38672 6.98828 5.49609 6.76953C5.61328 6.55078 5.76562 6.375 5.95312 6.24219C6.14844 6.10156 6.37109 6 6.62109 5.9375C6.87109 5.86719 7.13281 5.83203 7.40625 5.83203C7.63281 5.83203 7.85547 5.84766 8.07422 5.87891C8.30078 5.91016 8.51562 5.96875 8.71875 6.05469V7.26172C8.53906 7.12891 8.33984 7.03125 8.12109 6.96875C7.91016 6.89844 7.69141 6.86328 7.46484 6.86328C7.37109 6.86328 7.27344 6.87109 7.17188 6.88672C7.07031 6.90234 6.97266 6.93359 6.87891 6.98047C6.79297 7.02734 6.72266 7.08984 6.66797 7.16797C6.61328 7.23828 6.58594 7.33203 6.58594 7.44922C6.58594 7.61328 6.64453 7.74609 6.76172 7.84766C6.87891 7.94922 7.02344 8.04688 7.19531 8.14062C7.375 8.23438 7.56641 8.32812 7.76953 8.42188C7.97266 8.51562 8.16016 8.63672 8.33203 8.78516C8.51172 8.92578 8.66016 9.10156 8.77734 9.3125C8.89453 9.52344 8.95312 9.78516 8.95312 10.0977C8.95312 10.418 8.89453 10.6875 8.77734 10.9062C8.66797 11.125 8.51562 11.3047 8.32031 11.4453C8.13281 11.5781 7.91016 11.6758 7.65234 11.7383C7.40234 11.793 7.13672 11.8203 6.85547 11.8203C6.61328 11.8203 6.35547 11.7969 6.08203 11.75C5.80859 11.7031 5.56641 11.6211 5.35547 11.5039V10.2031C5.55078 10.3828 5.77344 10.5273 6.02344 10.6367C6.27344 10.7461 6.53516 10.8008 6.80859 10.8008C6.90234 10.8008 7 10.793 7.10156 10.7773C7.20312 10.7539 7.29688 10.7227 7.38281 10.6836C7.47656 10.6367 7.55078 10.5781 7.60547 10.5078C7.66797 10.4297 7.69922 10.332 7.69922 10.2148C7.69922 10.043 7.64062 9.90234 7.52344 9.79297C7.40625 9.68359 7.25781 9.58203 7.07812 9.48828C6.90625 9.39453 6.71875 9.30078 6.51562 9.20703C6.3125 9.11328 6.12109 8.99609 5.94141 8.85547C5.76953 8.71484 5.625 8.54297 5.50781 8.33984C5.39062 8.13672 5.33203 7.875 5.33203 7.55469Z" fill="white"/>
</svg>
