<svg xmlns="http://www.w3.org/2000/svg" viewBox="0 0 31.97 35.28"><defs><style>.cls-1{fill:#c2c2c2;}.cls-2{fill:#2f2f2f;}</style></defs><title>database_mini_3</title><g id="Layer_2" data-name="Layer 2"><g id="SYMBOLS"><g id="database_mini_3"><path class="cls-1" d="M24.25,28.78c-1.42.23-2.85.39-4.27.48s-2.76.14-4,.14-2.57,0-4-.14S9.14,29,7.71,28.78a36,36,0,0,1-4.13-.92A17.71,17.71,0,0,1,0,26.41v4.46a1.26,1.26,0,0,0,.47.91,5.92,5.92,0,0,0,1.14.81A14.1,14.1,0,0,0,3,33.24c.46.19.83.34,1.11.43a21.5,21.5,0,0,0,2.8.76c1,.19,2,.36,3.05.49s2.07.22,3.1.27,2,.09,3,.09,1.93,0,3-.09S21,35.05,22,34.92s2.06-.3,3.06-.49a21.5,21.5,0,0,0,2.8-.76c.28-.09.65-.24,1.11-.43a14.1,14.1,0,0,0,1.36-.65,5.92,5.92,0,0,0,1.14-.81,1.26,1.26,0,0,0,.47-.91V26.41a18,18,0,0,1-3.58,1.45A35.69,35.69,0,0,1,24.25,28.78Z"/><path class="cls-1" d="M24.27,11.12c-1.44.23-2.87.39-4.29.49s-2.76.15-4,.15-2.57,0-4-.15-2.86-.26-4.29-.49a35.06,35.06,0,0,1-4.13-.92A18.2,18.2,0,0,1,0,8.77v4.46a1.29,1.29,0,0,0,.47.91A5.92,5.92,0,0,0,1.61,15,14.19,14.19,0,0,0,3,15.61q.69.29,1.11.42a21.25,21.25,0,0,0,2.83.76c1,.2,2,.36,3,.49s2.05.22,3.06.28,2,.08,3,.08,2,0,3-.08,2-.15,3.07-.28,2-.29,3-.49A21.25,21.25,0,0,0,27.89,16q.42-.14,1.11-.42A14.19,14.19,0,0,0,30.36,15a5.92,5.92,0,0,0,1.14-.81,1.29,1.29,0,0,0,.47-.91V8.77A18.72,18.72,0,0,1,28.4,10.2,35.06,35.06,0,0,1,24.27,11.12Z"/><path class="cls-2" d="M.3,5.08A5.38,5.38,0,0,0,2,6.36a15.07,15.07,0,0,0,2.45,1A29.27,29.27,0,0,0,7.38,8c1,.19,2.07.34,3.11.46s2,.19,3,.25,1.78.08,2.52.08,1.59,0,2.53-.08,1.93-.14,3-.25,2.07-.27,3.11-.46a28.42,28.42,0,0,0,2.92-.7,15.32,15.32,0,0,0,2.47-1,4.87,4.87,0,0,0,1.68-1.28,1.65,1.65,0,0,0,.23-.33A.77.77,0,0,0,32,4.41a1.29,1.29,0,0,0-.47-.91,5.52,5.52,0,0,0-1.14-.81A12.16,12.16,0,0,0,29,2q-.69-.28-1.11-.42A27.09,27.09,0,0,0,25.06.86c-1-.21-2-.37-3-.5S20,.13,18.94.08,16.93,0,16,0s-1.93,0-3,.08S11,.23,10,.36s-2,.29-3,.5a27.09,27.09,0,0,0-2.83.75Q3.66,1.75,3,2a12.16,12.16,0,0,0-1.36.66A5.52,5.52,0,0,0,.47,3.5,1.29,1.29,0,0,0,0,4.41a.77.77,0,0,0,.08.34A2.1,2.1,0,0,0,.3,5.08Z"/><path class="cls-1" d="M24.25,20c-1.42.23-2.85.39-4.27.48s-2.76.14-4,.14-2.57,0-4-.14S9.14,20.19,7.71,20A36,36,0,0,1,3.58,19,17.15,17.15,0,0,1,0,17.59v4.46A1.29,1.29,0,0,0,.47,23a6.37,6.37,0,0,0,1.14.8A14.1,14.1,0,0,0,3,24.42c.46.2.83.34,1.11.43a20,20,0,0,0,2.8.76c1,.2,2,.36,3.05.49s2.07.22,3.1.28,2,.08,3,.08,1.93,0,3-.08S21,26.23,22,26.1s2.06-.29,3.06-.49a20,20,0,0,0,2.8-.76c.28-.09.65-.23,1.11-.43a14.1,14.1,0,0,0,1.36-.65A6.37,6.37,0,0,0,31.5,23a1.29,1.29,0,0,0,.47-.92V17.59A17.38,17.38,0,0,1,28.39,19,35.69,35.69,0,0,1,24.25,20Z"/></g></g></g></svg>