<svg xmlns="http://www.w3.org/2000/svg" viewBox="0 0 28.97 31.97"><defs><style>.cls-1{fill:#c2c2c2;}.cls-2{fill:#2f2f2f;}</style></defs><title>database</title><g id="Layer_2" data-name="Layer 2"><g id="SYMBOLS"><g id="database"><path class="cls-1" d="M22,9.76c-1.29.21-2.58.36-3.87.44s-2.5.12-3.62.12-2.34,0-3.63-.12S8.28,10,7,9.76a32,32,0,0,1-3.75-.83A15.65,15.65,0,0,1,0,7.62V28a1.12,1.12,0,0,0,.43.83,4.83,4.83,0,0,0,1,.73q.6.33,1.23.6c.42.17.76.3,1,.38a17.69,17.69,0,0,0,2.54.69q1.35.27,2.76.45c.94.11,1.88.2,2.81.24s1.82.08,2.68.08,1.74,0,2.67-.08S19,31.76,20,31.65s1.86-.27,2.76-.45a17.69,17.69,0,0,0,2.54-.69c.26-.08.59-.21,1-.38s.83-.38,1.23-.6a4.83,4.83,0,0,0,1-.73A1.12,1.12,0,0,0,29,28V7.62a15.65,15.65,0,0,1-3.24,1.31A32,32,0,0,1,22,9.76Z"/><path class="cls-2" d="M.28,4.6A5,5,0,0,0,1.81,5.77,13.65,13.65,0,0,0,4,6.64a24,24,0,0,0,2.65.63q1.41.27,2.82.42c.93.1,1.83.18,2.69.23S13.81,8,14.49,8s1.43,0,2.28-.07,1.76-.13,2.7-.23,1.87-.24,2.81-.42a23.43,23.43,0,0,0,2.65-.63,13.77,13.77,0,0,0,2.24-.87A4.6,4.6,0,0,0,28.69,4.6a1.32,1.32,0,0,0,.21-.29A.67.67,0,0,0,29,4a1.15,1.15,0,0,0-.43-.83,4.83,4.83,0,0,0-1-.73,11.63,11.63,0,0,0-1.23-.6c-.42-.17-.75-.3-1-.38A22.72,22.72,0,0,0,22.71.78C21.8.59,20.89.44,20,.32s-1.87-.2-2.8-.25S15.34,0,14.49,0s-1.75,0-2.68.07S10,.2,9,.32,7.17.59,6.26.78a22.72,22.72,0,0,0-2.56.68c-.25.08-.59.21-1,.38a11.63,11.63,0,0,0-1.23.6,4.83,4.83,0,0,0-1,.73A1.15,1.15,0,0,0,0,4a.68.68,0,0,0,.08.31A1.26,1.26,0,0,0,.28,4.6Z"/></g></g></g></svg>