<svg xmlns="http://www.w3.org/2000/svg" viewBox="0 0 31.97 28.9"><defs><style>.cls-1{fill:#c2c2c2;}.cls-2{fill:#2f2f2f;}</style></defs><title>database_availability_group</title><g id="Layer_2" data-name="Layer 2"><g id="SYMBOLS"><g id="database_availability_group"><path class="cls-1" d="M6.17,6a17.64,17.64,0,0,1-2-.24A17.1,17.1,0,0,1,1.93,5.3,9.71,9.71,0,0,1,0,4.52V16.6a.67.67,0,0,0,.25.5,3.37,3.37,0,0,0,.62.43,6.13,6.13,0,0,0,.73.35l.59.23a12.26,12.26,0,0,0,1.51.41c.54.1,1.92.38,2.47.41Z"/><path class="cls-2" d="M.16,2.73a3,3,0,0,0,.91.69,7.85,7.85,0,0,0,1.33.52A15.71,15.71,0,0,0,4,4.32c.56.1,1.11.18,1.67.24s1.09.11,1.6.14,1,0,1.36,0,.85,0,1.36,0,1-.07,1.59-.14,1.12-.14,1.68-.24,1.08-.23,1.57-.38a8.19,8.19,0,0,0,1.33-.52,2.74,2.74,0,0,0,.9-.69,1.36,1.36,0,0,0,.12-.17.41.41,0,0,0,.05-.19.7.7,0,0,0-.26-.49,2.87,2.87,0,0,0-.61-.43,7.05,7.05,0,0,0-.73-.36A6.11,6.11,0,0,0,15,.87,12.94,12.94,0,0,0,13.48.46C12.94.35,12.4.26,11.85.19S10.74.07,10.19,0,9.11,0,8.6,0,7.56,0,7,0,5.9.12,5.35.19,4.25.35,3.72.46A13.11,13.11,0,0,0,2.19.87c-.14,0-.34.12-.59.22a6.18,6.18,0,0,0-.73.36,3,3,0,0,0-.62.43A.69.69,0,0,0,0,2.37a.41.41,0,0,0,0,.19A1.36,1.36,0,0,0,.16,2.73Z"/><path class="cls-1" d="M13.5,11a20.15,20.15,0,0,1-2-.23,18.93,18.93,0,0,1-2.22-.5,8.65,8.65,0,0,1-1.93-.78V21.55a.71.71,0,0,0,.25.49,3,3,0,0,0,.62.43,7,7,0,0,0,.73.35c.25.11.45.18.59.23a11.09,11.09,0,0,0,1.51.41c.54.11,1.92.38,2.47.41Z"/><path class="cls-2" d="M7.49,7.67a2.68,2.68,0,0,0,.92.69,7.41,7.41,0,0,0,1.32.52,13.37,13.37,0,0,0,1.57.38c.56.1,1.12.19,1.67.25s1.09.1,1.6.13,1,0,1.36,0,.85,0,1.36,0,1-.07,1.59-.13,1.12-.15,1.68-.25a13.87,13.87,0,0,0,1.57-.38,8.19,8.19,0,0,0,1.33-.52,2.5,2.5,0,0,0,.9-.69.88.88,0,0,0,.12-.17.41.41,0,0,0,.05-.19.69.69,0,0,0-.26-.48,2.9,2.9,0,0,0-.61-.44A7,7,0,0,0,22.93,6c-.25-.11-.45-.18-.6-.23a13,13,0,0,0-1.52-.4c-.54-.12-1.08-.21-1.63-.28S18.07,5,17.52,5s-1.08,0-1.59,0-1,0-1.59,0-1.11.07-1.66.14-1.09.16-1.63.28a13.12,13.12,0,0,0-1.53.4c-.14.05-.34.12-.59.23a7,7,0,0,0-.73.35,3,3,0,0,0-.62.44.71.71,0,0,0-.25.48.41.41,0,0,0,0,.19A1.63,1.63,0,0,0,7.49,7.67Z"/><path class="cls-1" d="M27.82,15.72c-.77.12-1.53.21-2.3.26s-1.48.07-2.15.07S22,16,21.22,16s-1.53-.14-2.3-.26a19.39,19.39,0,0,1-2.22-.49,9.71,9.71,0,0,1-1.93-.78V26.53A.67.67,0,0,0,15,27a3,3,0,0,0,.61.44,7,7,0,0,0,.73.35L17,28a10.58,10.58,0,0,0,1.5.4q.81.16,1.65.27c.55.07,1.11.12,1.66.15s1.08,0,1.59,0,1,0,1.59,0,1.11-.08,1.66-.15,1.11-.16,1.65-.27a10.58,10.58,0,0,0,1.5-.4l.6-.23a7,7,0,0,0,.73-.35,3,3,0,0,0,.61-.44.67.67,0,0,0,.26-.49V14.45a9.71,9.71,0,0,1-1.93.78A19.39,19.39,0,0,1,27.82,15.72Z"/><path class="cls-2" d="M14.94,12.66a2.9,2.9,0,0,0,.91.69,7.73,7.73,0,0,0,1.32.52,13.9,13.9,0,0,0,1.57.37c.56.11,1.12.19,1.67.25s1.09.11,1.6.14,1,0,1.36,0,.85,0,1.36,0,1-.08,1.6-.14,1.11-.14,1.67-.25a13.9,13.9,0,0,0,1.57-.37,7.85,7.85,0,0,0,1.33-.52,2.64,2.64,0,0,0,.9-.69.94.94,0,0,0,.12-.18.37.37,0,0,0,0-.18.69.69,0,0,0-.26-.49,2.66,2.66,0,0,0-.61-.44,7,7,0,0,0-.73-.35l-.6-.23a14.57,14.57,0,0,0-1.52-.4c-.54-.11-1.08-.2-1.63-.27S25.51,10,25,10s-1.08,0-1.59,0-1,0-1.59,0-1.1.08-1.66.15-1.09.16-1.63.27a14.57,14.57,0,0,0-1.52.4l-.6.23a7,7,0,0,0-.73.35,2.66,2.66,0,0,0-.61.44.69.69,0,0,0-.26.49.37.37,0,0,0,.05.18A.94.94,0,0,0,14.94,12.66Z"/></g></g></g></svg>