<svg id="ArrowUp" xmlns="http://www.w3.org/2000/svg" viewBox="0 0 32 32"><defs><style>.cls-1{fill:#c2c2c2;}.cls-2{fill:#d2d2d2;}.cls-3{fill:#2f2f2f;}.cls-4{fill:#0078d4;}</style></defs><title>DatabaseMini3-blue</title><path class="cls-1" d="M23.5,26.1c-1.29.21-2.58.36-3.87.44s-2.5.13-3.63.13-2.33,0-3.63-.13-2.58-.23-3.87-.44a30.06,30.06,0,0,1-3.75-.83A15.75,15.75,0,0,1,1.5,24v4a1.12,1.12,0,0,0,.43.83,4.83,4.83,0,0,0,1,.73q.6.33,1.23.6c.42.17.76.3,1,.38a18.44,18.44,0,0,0,2.54.69c.91.18,1.83.33,2.77.45s1.88.2,2.81.25S15.14,32,16,32s1.75,0,2.68-.07,1.87-.13,2.81-.25,1.86-.27,2.77-.45a18.44,18.44,0,0,0,2.54-.69c.25-.08.59-.21,1-.38s.83-.38,1.23-.6a4.83,4.83,0,0,0,1-.73A1.12,1.12,0,0,0,30.5,28V24a15.75,15.75,0,0,1-3.25,1.31A30.06,30.06,0,0,1,23.5,26.1Z"/><path class="cls-2" d="M23.51,10.08c-1.3.21-2.59.36-3.88.45s-2.5.14-3.63.14-2.33-.05-3.63-.14-2.58-.24-3.88-.45a30.26,30.26,0,0,1-3.75-.83A16.83,16.83,0,0,1,1.5,8v4a1.13,1.13,0,0,0,.43.82,4.86,4.86,0,0,0,1,.74,11.63,11.63,0,0,0,1.23.6c.42.17.76.3,1,.38a19.28,19.28,0,0,0,2.57.69c.9.18,1.82.33,2.75.45s1.86.2,2.79.25S15.13,16,16,16s1.77,0,2.69-.07,1.85-.13,2.79-.25,1.85-.27,2.75-.45a19.28,19.28,0,0,0,2.57-.69c.25-.08.59-.21,1-.38a11.63,11.63,0,0,0,1.23-.6,4.86,4.86,0,0,0,1-.74A1.13,1.13,0,0,0,30.5,12V8a16.83,16.83,0,0,1-3.24,1.29A30.26,30.26,0,0,1,23.51,10.08Z"/><path class="cls-3" d="M29,2.44q-.6-.33-1.23-.6c-.42-.17-.76-.3-1-.38A22.9,22.9,0,0,0,24.23.78c-.9-.19-1.82-.34-2.75-.46s-1.87-.2-2.8-.25S16.86,0,16,0s-1.75,0-2.68.07-1.86.13-2.8.25S8.67.59,7.77.78a22.9,22.9,0,0,0-2.57.68c-.25.08-.59.21-1,.38s-.83.38-1.23.6a4.86,4.86,0,0,0-1,.74A1.13,1.13,0,0,0,1.5,4a.65.65,0,0,0,.08.31,1.08,1.08,0,0,0,.2.29A4.69,4.69,0,0,0,3.31,5.77a14,14,0,0,0,2.23.88,24.14,24.14,0,0,0,2.66.63c.94.18,1.88.31,2.82.42s1.83.18,2.69.23S15.33,8,16,8s1.43,0,2.29-.07S20,7.8,21,7.7s1.88-.24,2.82-.42a24.14,24.14,0,0,0,2.66-.63,14.13,14.13,0,0,0,2.24-.88A4.35,4.35,0,0,0,30.22,4.6a1.08,1.08,0,0,0,.2-.29A.65.65,0,0,0,30.5,4a1.13,1.13,0,0,0-.43-.82A4.86,4.86,0,0,0,29,2.44Z"/><path class="cls-4" d="M23.5,18.1c-1.29.21-2.58.36-3.87.44s-2.5.13-3.63.13-2.33-.05-3.63-.13-2.58-.23-3.87-.44a30.06,30.06,0,0,1-3.75-.83A15.75,15.75,0,0,1,1.5,16v4a1.12,1.12,0,0,0,.43.83,4.83,4.83,0,0,0,1,.73q.6.33,1.23.6c.42.17.76.3,1,.38a18.44,18.44,0,0,0,2.54.69c.91.18,1.83.33,2.77.45s1.88.2,2.81.25S15.14,24,16,24s1.75,0,2.68-.07,1.87-.14,2.81-.25,1.86-.27,2.77-.45a18.44,18.44,0,0,0,2.54-.69c.25-.08.59-.21,1-.38s.83-.38,1.23-.6a4.83,4.83,0,0,0,1-.73A1.12,1.12,0,0,0,30.5,20V16a15.75,15.75,0,0,1-3.25,1.31A30.06,30.06,0,0,1,23.5,18.1Z"/></svg>