<svg xmlns="http://www.w3.org/2000/svg" viewBox="0 0 28.52 31.97"><defs><style>.cls-1{fill:#2f2f2f;}.cls-2{fill:#c2c2c2;}.cls-3{fill:#d83b01;}</style></defs><title>database_server</title><g id="Layer_2" data-name="Layer 2"><g id="SYMBOLS"><g id="database_server"><path class="cls-1" d="M1.13,32h16a1.14,1.14,0,0,0,1.13-1.13V27.4s-5.71-.4-6.85-2.83l-.08-13.94c1.13-2.52,6.93-3,6.93-3V1.13A1.13,1.13,0,0,0,17.14,0h-16A1.12,1.12,0,0,0,0,1.13V30.84A1.13,1.13,0,0,0,1.13,32ZM6.85,27.4h4.57v2.28H6.85Z"/><path class="cls-2" d="M24.85,14.37a20.34,20.34,0,0,1-2,.23c-.68,0-1.31.07-1.9.07s-1.23,0-1.9-.07a20.21,20.21,0,0,1-2-.23,15.13,15.13,0,0,1-2-.44,8.35,8.35,0,0,1-1.71-.68V23.93a.62.62,0,0,0,.23.44,2.86,2.86,0,0,0,.54.38,5.38,5.38,0,0,0,.64.31l.53.2a8.74,8.74,0,0,0,1.34.36c.47.1,1,.18,1.45.24s1,.1,1.47.13,1,0,1.41,0,.91,0,1.4,0,1-.07,1.47-.13,1-.14,1.46-.24a8.61,8.61,0,0,0,1.33-.36l.53-.2a5.38,5.38,0,0,0,.64-.31,2.65,2.65,0,0,0,.55-.38.6.6,0,0,0,.22-.44V13.25a8.49,8.49,0,0,1-1.7.68A15.66,15.66,0,0,1,24.85,14.37Z"/><path class="cls-3" d="M13.46,11.66a2.32,2.32,0,0,0,.8.61,7,7,0,0,0,1.17.46c.44.13.9.24,1.39.34s1,.16,1.48.21,1,.1,1.41.12.85,0,1.21,0,.75,0,1.2,0,.92-.06,1.41-.12,1-.12,1.48-.21,1-.21,1.39-.34a6.75,6.75,0,0,0,1.18-.46,2.32,2.32,0,0,0,.8-.61,1.3,1.3,0,0,0,.1-.15.32.32,0,0,0,0-.16.62.62,0,0,0-.22-.44,2.32,2.32,0,0,0-.55-.38c-.21-.12-.42-.22-.64-.32l-.53-.2a12.06,12.06,0,0,0-1.35-.35q-.7-.15-1.44-.24a14.58,14.58,0,0,0-1.47-.13c-.49,0-.95,0-1.4,0s-.92,0-1.41,0A14.58,14.58,0,0,0,18,9.42c-.48.06-1,.14-1.44.24a12.65,12.65,0,0,0-1.35.35l-.53.2c-.22.1-.43.2-.64.32a2.47,2.47,0,0,0-.54.38.64.64,0,0,0-.23.44.47.47,0,0,0,0,.16A.72.72,0,0,0,13.46,11.66Z"/></g></g></g></svg>