<svg width="96" height="96" viewBox="0 0 96 96" fill="none" xmlns="http://www.w3.org/2000/svg">
<defs>
<filter id="filter0_f">
<feFlood flood-opacity="0" result="BackgroundImageFix"/>
<feBlend mode="normal" in="SourceGraphic" in2="BackgroundImageFix" result="shape"/>
<feGaussianBlur stdDeviation="0.38" result="effect1_foregroundBlur"/>
</filter>
<filter id="filter1_f">
<feFlood flood-opacity="0" result="BackgroundImageFix"/>
<feBlend mode="normal" in="SourceGraphic" in2="BackgroundImageFix" result="shape"/>
<feGaussianBlur stdDeviation="4" result="effect1_foregroundBlur"/>
</filter>
<filter id="filter2_f">
<feFlood flood-opacity="0" result="BackgroundImageFix"/>
<feBlend mode="normal" in="SourceGraphic" in2="BackgroundImageFix" result="shape"/>
<feGaussianBlur stdDeviation="0.38" result="effect1_foregroundBlur"/>
</filter>
<filter id="filter3_f">
<feFlood flood-opacity="0" result="BackgroundImageFix"/>
<feBlend mode="normal" in="SourceGraphic" in2="BackgroundImageFix" result="shape"/>
<feGaussianBlur stdDeviation="4" result="effect1_foregroundBlur"/>
</filter>
<linearGradient id="paint0_linear" x1="82.5" y1="96" x2="57.0126" y2="39.5127" gradientUnits="userSpaceOnUse">
<stop stop-color="#0B7418"/>
<stop offset="1" stop-color="#158915"/>
</linearGradient>
<linearGradient id="paint1_linear" x1="58" y1="54.5" x2="43.5" y2="3.22316e-07" gradientUnits="userSpaceOnUse">
<stop stop-color="#4FB918"/>
<stop offset="1" stop-color="#8FDC50"/>
</linearGradient>
<linearGradient id="paint2_linear" x1="11.5" y1="13.5" x2="31.5" y2="85" gradientUnits="userSpaceOnUse">
<stop stop-color="#C3F488"/>
<stop offset="1" stop-color="#6AD116"/>
</linearGradient>
</defs>
<mask id="mask0" mask-type="alpha" maskUnits="userSpaceOnUse" x="1" y="6" width="89" height="89">
<path d="M6 38C6 20.3269 20.3269 6 38 6H86C88.2091 6 90 7.79086 90 10V58C90 75.6731 75.6731 90 58 90L27.0449 90C22.3733 90 17.7268 90.682 13.2522 92.0243L7.11528 93.8654C4.06406 94.7808 1.21922 91.9359 2.13458 88.8847L3.97566 82.7478C5.31803 78.2732 6 73.6267 6 68.9551V38Z" fill="white"/>
</mask>
<g mask="url(#mask0)">
<path d="M0 0H96V96H0V0Z" fill="url(#paint0_linear)"/>
<path d="M0 0H96L0 96V0Z" fill="#34A117"/>
<g filter="url(#filter0_f)">
<path d="M30 0.380025C13.4314 0.38003 -1.0433e-06 13.8115 -2.33027e-06 30.38L-7.45686e-06 96.38L52.6274 43.7526C58.6286 37.7514 62 29.6121 62 21.1252L62 0.380014L30 0.380025Z" fill="black" fill-opacity="0.24"/>
</g>
<g filter="url(#filter1_f)">
<path d="M30 2.00002C13.4314 2.00003 -1.0433e-06 15.4315 -2.33027e-06 32L-7.45686e-06 98L52.6274 45.3726C58.6286 39.3714 62 31.2321 62 22.7452L62 2.00001L30 2.00002Z" fill="black" fill-opacity="0.32"/>
</g>
<path d="M30 1.96916e-05C13.4314 2.52087e-05 -1.0433e-06 13.4315 -2.33027e-06 30L-7.45686e-06 96L52.6274 43.3726C58.6286 37.3714 62 29.2321 62 20.7452L62 9.03608e-06L30 1.96916e-05Z" fill="url(#paint1_linear)"/>
<mask id="mask1" mask-type="alpha" maskUnits="userSpaceOnUse" x="0" y="0" width="62" height="96">
<path d="M30 1.96916e-05C13.4314 2.52087e-05 -1.0433e-06 13.4315 -2.33027e-06 30L-7.45686e-06 96L52.6274 43.3726C58.6286 37.3714 62 29.2321 62 20.7452L62 9.03608e-06L30 1.96916e-05Z" fill="white"/>
</mask>
<g mask="url(#mask1)">
<g filter="url(#filter2_f)">
<path d="M24.6274 71.7526C30.6286 65.7514 34 57.6121 34 49.1252L34 0.380035L30 0.380035C13.4315 0.380032 1.02709e-05 13.8115 8.30555e-06 30.38L4.76839e-07 96.38L24.6274 71.7526Z" fill="black" fill-opacity="0.24"/>
</g>
<g filter="url(#filter3_f)">
<path d="M24.6274 73.3726C30.6286 67.3714 34 59.2321 34 50.7452L34 2.00003L30 2.00003C13.4315 2.00003 1.02709e-05 15.4315 8.30555e-06 32L4.76839e-07 98L24.6274 73.3726Z" fill="black" fill-opacity="0.32"/>
</g>
<path d="M24.6274 71.3726C30.6286 65.3714 34 57.2321 34 48.7452L34 3.05176e-05L30 2.99346e-05C13.4315 2.75198e-05 1.02709e-05 13.4315 8.30555e-06 30L4.76839e-07 96L24.6274 71.3726Z" fill="url(#paint2_linear)"/>
</g>
</g>
</svg>
