<svg width="96" height="96" viewBox="0 0 96 96" fill="none" xmlns="http://www.w3.org/2000/svg">
<g clip-path="url(#clip0)">
<mask id="mask0" mask-type="alpha" maskUnits="userSpaceOnUse" x="4" y="4" width="88" height="88">
<path d="M4 48C4 23.6995 23.6995 4 48 4H88C90.2091 4 92 5.79086 92 8V48C92 72.3005 72.3005 92 48 92C23.6995 92 4 72.3005 4 48Z" fill="black"/>
</mask>
<g mask="url(#mask0)">
<path d="M4 48C4 23.6995 23.6995 4 48 4H88C90.2091 4 92 5.79086 92 8V48C92 72.3005 72.3005 92 48 92C23.6995 92 4 72.3005 4 48Z" fill="url(#paint0_linear)"/>
<path d="M48 4H92V48H48V4Z" fill="url(#paint1_linear)"/>
<path d="M48 48H92V92H48V48Z" fill="url(#paint2_linear)"/>
<g filter="url(#filter0_f)">
<circle cx="70" cy="28" r="18" fill="black" fill-opacity="0.32"/>
</g>
<g filter="url(#filter1_f)">
<circle cx="70" cy="26.38" r="18" fill="black" fill-opacity="0.24"/>
</g>
<circle cx="70" cy="26" r="18" fill="url(#paint3_linear)"/>
</g>
</g>
<defs>
<filter id="filter0_f" x="44" y="2" width="52" height="52" filterUnits="userSpaceOnUse" color-interpolation-filters="sRGB">
<feFlood flood-opacity="0" result="BackgroundImageFix"/>
<feBlend mode="normal" in="SourceGraphic" in2="BackgroundImageFix" result="shape"/>
<feGaussianBlur stdDeviation="4" result="effect1_foregroundBlur"/>
</filter>
<filter id="filter1_f" x="51.24" y="7.62" width="37.52" height="37.52" filterUnits="userSpaceOnUse" color-interpolation-filters="sRGB">
<feFlood flood-opacity="0" result="BackgroundImageFix"/>
<feBlend mode="normal" in="SourceGraphic" in2="BackgroundImageFix" result="shape"/>
<feGaussianBlur stdDeviation="0.38" result="effect1_foregroundBlur"/>
</filter>
<linearGradient id="paint0_linear" x1="-4.25" y1="7.46067" x2="10.2028" y2="104.839" gradientUnits="userSpaceOnUse">
<stop stop-color="#158915"/>
<stop offset="1" stop-color="#065F18"/>
</linearGradient>
<linearGradient id="paint1_linear" x1="48" y1="4" x2="58.8425" y2="55.0432" gradientUnits="userSpaceOnUse">
<stop stop-color="#6AD116"/>
<stop offset="1" stop-color="#34A117"/>
</linearGradient>
<linearGradient id="paint2_linear" x1="48.6875" y1="48.2857" x2="57.3411" y2="98.3904" gradientUnits="userSpaceOnUse">
<stop stop-color="#C3F488"/>
<stop offset="1" stop-color="#8FDC50"/>
</linearGradient>
<linearGradient id="paint3_linear" x1="52.5625" y1="8.23377" x2="50.7226" y2="63.202" gradientUnits="userSpaceOnUse">
<stop stop-color="#C3F488"/>
<stop offset="1" stop-color="#8FDC50"/>
</linearGradient>
<clipPath id="clip0">
<rect width="96" height="96" fill="white"/>
</clipPath>
</defs>
</svg>
