<svg width="96" height="96" viewBox="0 0 96 96" fill="none" xmlns="http://www.w3.org/2000/svg">
<g clip-path="url(#clip0)">
<rect x="12.05" y="0.05" width="71.9" height="95.9" rx="3.95" stroke="#CCCCCC" stroke-width="0.1"/>
<rect x="0.05" y="83.95" width="71.9" height="95.9" rx="3.95" transform="rotate(-90 0.05 83.95)" stroke="#CCCCCC" stroke-width="0.1"/>
<rect x="6.05" y="89.95" width="83.9" height="83.9" rx="3.95" transform="rotate(-90 6.05 89.95)" stroke="#CCCCCC" stroke-width="0.1"/>
<circle cx="48" cy="48" r="23.95" stroke="#CCCCCC" stroke-width="0.1"/>
<circle cx="48" cy="48" r="47.95" stroke="#CCCCCC" stroke-width="0.1"/>
<path d="M48 0V96" stroke="#CCCCCC" stroke-width="0.1"/>
<path d="M96 47.9999L0 47.9999" stroke="#CCCCCC" stroke-width="0.1"/>
<path d="M0 6.10352e-05L96 96.0001" stroke="#CCCCCC" stroke-width="0.1"/>
<path d="M0 96.0001L96 5.62289e-05" stroke="#CCCCCC" stroke-width="0.1"/>
<mask id="mask0" mask-type="alpha" maskUnits="userSpaceOnUse" x="10" y="0" width="78" height="96">
<path d="M40 0H14C11.7909 0 10 1.79086 10 4V26C10 28.2091 11.7909 30 14 30H40C30.0589 30 22.0001 38.0589 22.0001 48C22.0001 57.9411 30.0589 66 40.0001 66H14.0001C11.7909 66 10.0001 67.7909 10.0001 70V92C10.0001 94.2091 11.7909 96 14.0001 96H40.0001C66.5097 96 88.0001 74.5097 88.0001 48C88.0001 21.4903 66.5097 0 40 0Z" fill="#C4C4C4"/>
</mask>
<g mask="url(#mask0)">
<path fill-rule="evenodd" clip-rule="evenodd" d="M14 0C11.7909 0 10 1.79086 10 4V26C10 28.2091 11.7909 30 14 30H40V0H14ZM14 66C11.7909 66 10 67.7909 10 70V92C10 94.2091 11.7909 96 14 96H40V66H14Z" fill="url(#paint0_linear)"/>
<path d="M40 96C66.5097 96 88 74.5097 88 48C88 21.4903 66.5097 0 40 0V96Z" fill="url(#paint1_linear)"/>
<g opacity="0.16" filter="url(#filter0_f)">
<circle cx="40" cy="50" r="18" fill="black"/>
</g>
<g opacity="0.24" filter="url(#filter1_f)">
<circle cx="40" cy="48.38" r="18" fill="black"/>
</g>
<circle cx="40" cy="48" r="18" fill="url(#paint2_linear)"/>
</g>
</g>
<defs>
<filter id="filter0_f" x="14" y="24" width="52" height="52" filterUnits="userSpaceOnUse" color-interpolation-filters="sRGB">
<feFlood flood-opacity="0" result="BackgroundImageFix"/>
<feBlend mode="normal" in="SourceGraphic" in2="BackgroundImageFix" result="shape"/>
<feGaussianBlur stdDeviation="4" result="effect1_foregroundBlur"/>
</filter>
<filter id="filter1_f" x="21.24" y="29.62" width="37.52" height="37.52" filterUnits="userSpaceOnUse" color-interpolation-filters="sRGB">
<feFlood flood-opacity="0" result="BackgroundImageFix"/>
<feBlend mode="normal" in="SourceGraphic" in2="BackgroundImageFix" result="shape"/>
<feGaussianBlur stdDeviation="0.38" result="effect1_foregroundBlur"/>
</filter>
<linearGradient id="paint0_linear" x1="25" y1="0" x2="56.5" y2="96.5" gradientUnits="userSpaceOnUse">
<stop stop-color="#EA8200"/>
<stop offset="1" stop-color="#C46A08"/>
</linearGradient>
<linearGradient id="paint1_linear" x1="40.5" y1="0.5" x2="88.5" y2="96.5" gradientUnits="userSpaceOnUse">
<stop stop-color="#FDC400"/>
<stop offset="1" stop-color="#F29800"/>
</linearGradient>
<linearGradient id="paint2_linear" x1="40" y1="30" x2="58.5" y2="66.5" gradientUnits="userSpaceOnUse">
<stop stop-color="#FFE440"/>
<stop offset="1" stop-color="#FFDB00"/>
</linearGradient>
<clipPath id="clip0">
<rect width="96" height="96" fill="white"/>
</clipPath>
</defs>
</svg>
