<svg width="96" height="96" viewBox="0 0 96 96" fill="none" xmlns="http://www.w3.org/2000/svg">
<g clip-path="url(#clip0)">
<path fill-rule="evenodd" clip-rule="evenodd" d="M90 10.0001C90 7.79098 88.2091 6.00012 86 6.00012H70C67.7909 6.00012 66 7.79098 66 10.0001V48H66C66 57.9411 57.9411 66 48 66C38.0933 66 30.0558 57.9969 30.0002 48.1033L30.0002 85.9475C35.5733 88.5908 41.714 90 48 90C59.1391 90 69.822 85.575 77.6985 77.6985C85.339 70.058 89.7317 59.7768 89.9881 49H90V48V10.0001ZM6.00024 48.1433L6.00024 48H6C6 48.0478 6.00008 48.0956 6.00024 48.1433Z" fill="url(#paint0_linear)"/>
<path fill-rule="evenodd" clip-rule="evenodd" d="M66 10.0526V48H48L30.0002 48L30.0002 86.3557C30.0002 88.3684 28.3686 90.0001 26.3558 90.0001H10.0002C7.79111 90.0001 6.00024 88.2093 6.00024 86.0001L6.00024 48H6L6.00024 47.8572L6.00024 47.0001H6.01189C6.26824 36.2233 10.661 25.9421 18.3015 18.3015C26.178 10.425 36.8609 6 48 6C54.2861 6 60.4269 7.4092 66 10.0526Z" fill="url(#paint1_linear)"/>
<g opacity="0.32" filter="url(#filter0_f)">
<circle cx="48" cy="50" r="18" fill="black"/>
</g>
<g filter="url(#filter1_f)">
<circle cx="48" cy="48.38" r="18" fill="black" fill-opacity="0.24"/>
</g>
<circle cx="48" cy="48" r="18" fill="url(#paint2_linear)"/>
</g>
<defs>
<filter id="filter0_f" x="22" y="24" width="52" height="52" filterUnits="userSpaceOnUse" color-interpolation-filters="sRGB">
<feFlood flood-opacity="0" result="BackgroundImageFix"/>
<feBlend mode="normal" in="SourceGraphic" in2="BackgroundImageFix" result="shape"/>
<feGaussianBlur stdDeviation="4" result="effect1_foregroundBlur"/>
</filter>
<filter id="filter1_f" x="29.24" y="29.62" width="37.52" height="37.52" filterUnits="userSpaceOnUse" color-interpolation-filters="sRGB">
<feFlood flood-opacity="0" result="BackgroundImageFix"/>
<feBlend mode="normal" in="SourceGraphic" in2="BackgroundImageFix" result="shape"/>
<feGaussianBlur stdDeviation="0.38" result="effect1_foregroundBlur"/>
</filter>
<linearGradient id="paint0_linear" x1="36.8348" y1="34.3527" x2="64.9011" y2="86.7583" gradientUnits="userSpaceOnUse">
<stop stop-color="#0078D4"/>
<stop offset="1" stop-color="#2064AE"/>
</linearGradient>
<linearGradient id="paint1_linear" x1="16.2361" y1="13.4673" x2="59.2676" y2="78.8526" gradientUnits="userSpaceOnUse">
<stop stop-color="#7CECFF"/>
<stop offset="1" stop-color="#50E6FF"/>
</linearGradient>
<linearGradient id="paint2_linear" x1="39.5625" y1="29.8807" x2="59.8243" y2="63.3962" gradientUnits="userSpaceOnUse">
<stop stop-color="#40C4F5"/>
<stop offset="1" stop-color="#0095E6"/>
</linearGradient>
<clipPath id="clip0">
<rect width="96" height="96" fill="white"/>
</clipPath>
</defs>
</svg>
