<svg xmlns="http://www.w3.org/2000/svg" viewBox="0 0 500 500">
   <defs>
      <linearGradient id="prefix__a">
         <stop offset="0" stop-color="#50e6ff" />
         <stop offset="1" stop-color="#0078d4" />
      </linearGradient>
   </defs>
   <circle cx="250" cy="250" r="250" fill="#fff" />
   <path fill="url(#prefix__a)"
      d="M374.691 140.625h-70c-8.75 0-17.5 6.44-26.25 19.299h-56.875a40.32 40.32 0 00-30.625-19.299h-70C90.309 144.916 75 198.529 75 250s15.316 105.084 45.934 109.375h70a40.32 40.32 0 0030.632-19.299h56.875a35.147 35.147 0 0026.25 19.299h70C407.5 359.375 425 303.613 425 250c0-53.62-17.5-109.375-50.309-109.375zM94.691 250c0-53.62 17.5-90.076 30.618-90.076 13.125 0 30.625 36.463 30.625 90.076 0 53.62-17.5 90.076-30.625 90.076S94.684 303.613 94.684 250zm96.25 90.076H153.75A162.449 162.449 0 00173.441 250a183.722 183.722 0 00-19.691-90.076h37.191c13.125 0 30.625 36.463 30.625 90.076 0 53.62-17.5 90.076-30.625 90.076zM232.5 179.23h72.184v-19.306h4.382c13.118 0 30.625 36.463 30.625 90.076 0 53.62-17.5 90.076-30.625 90.076h-4.382V320.77H232.5a251.486 251.486 0 008.75-70.77 368.928 368.928 0 00-8.75-70.77zm142.191 160.846H337.5A162.449 162.449 0 00357.191 250a183.722 183.722 0 00-19.691-90.076h37.191c13.125 0 30.625 36.463 30.625 90.076 0 53.62-19.691 90.076-30.625 90.076z" />
</svg>