<svg xmlns="http://www.w3.org/2000/svg" viewBox="0 0 500 500">
    <defs>
        <linearGradient id="a" gradientTransform="rotate(90)">
            <stop offset="0" stop-color="#9cebff" />
            <stop offset=".5" stop-color="#50e6ff" />
            <stop offset="1" stop-color="#00b9d8" />
        </linearGradient>
    </defs>
    <circle cx="250" cy="250" r="250" fill="#fff" />
    <path fill="url(#a)"
        d="M355.478 377.348a261.087 261.087 0 0055.29-6.143 167.802 167.802 0 0051.572-20.334 144.366 144.366 0 0013.576-9.43 74.825 74.825 0 0012.04-11.672 64.504 64.504 0 008.663-13.73 37.566 37.566 0 003.379-16.004 43.955 43.955 0 00-1.506-11.856 52.217 52.217 0 00-4.515-11.12L355.478 0l-138.93 277.551a58.852 58.852 0 00-4.146 10.935 45.89 45.89 0 00-1.505 11.672 37.597 37.597 0 003.41 16.003 62.17 62.17 0 008.662 13.73 74.825 74.825 0 0012.04 11.673 144.15 144.15 0 0013.546 9.43 167.68 167.68 0 0051.603 20.334 261.087 261.087 0 0055.32 6.02z"
        style="isolation:isolate" transform="matrix(.6 0 0 .6 100 100)" />
    <path fill="#0078d4" d="M185.9 400V299.78l85.883-50.093v99.908z" />
    <path fill="#77b0f7" d="M100 249.687l85.9-50.11 85.883 50.11-85.882 50.387z" />
    <path fill="#5395ec" d="M100 349.595v-99.907l85.9 50.387V400z" />
    <path fill="#77b0f7" d="M185.9 299.78V400L100 349.595z" opacity="0.2" />
    <path fill="#5395ec" d="M185.9 299.78V400l85.883-50.405z" opacity="0.2" />
    <path fill="#ccc"
        d="M221.514 128.575l-27.773-26.885c-3.036-3.003-5.623-1.948-5.623 2.717v12.084a3.324 3.307 0 01-3.324 3.325h-.161c-17.965 0-67.817 4.683-69.631 72.61a3.485 3.468 0 003.484 3.574h17.75a3.593 3.575 0 003.593-3.468 1.958 1.948 0 000-.322 41.876 41.667 0 0145.378-50.354 3.485 3.468 0 013.593 3.468v11.136c0 5.595 1.797 6.488 5.623 2.717l27.09-24.864a3.593 3.575 0 00.917-4.826 3.413 3.396 0 00-.916-.912z" />
</svg>