<svg id="ArrowUp" xmlns="http://www.w3.org/2000/svg" viewBox="0 0 32 32"><defs><style>.cls-1{fill:#c2c2c2;}.cls-2{fill:#2f2f2f;}.cls-3{fill:#0078d4;}</style></defs><title>3DBuildings-blue</title><polygon class="cls-1" points="17.17 6.33 12.48 3.98 12.48 7.35 17.17 9.7 17.17 6.33"/><polygon class="cls-1" points="5.44 24.1 10.13 26.44 10.13 15.72 5.44 13.37 5.44 24.1"/><polygon class="cls-1" points="14.55 32 28.09 25.23 25.77 18.3 19.52 21.44 19.52 25.55 11.3 29.65 3.69 25.86 1.66 32 14.55 32"/><polygon class="cls-2" points="17.17 13.37 12.48 15.72 12.48 26.44 17.17 24.1 17.17 13.37"/><polygon class="cls-2" points="24.22 3.98 19.52 6.33 19.52 18.82 24.22 16.47 24.22 3.98"/><polygon class="cls-3" points="15.58 11.54 11.3 9.39 7.03 11.54 11.3 13.66 15.58 11.54"/><polygon class="cls-3" points="22.62 2.15 18.35 0 14.07 2.15 18.35 4.27 22.62 2.15"/><polygon class="cls-1" points="19.8 32 30.34 32 28.84 27.47 19.8 32"/></svg>