<svg id="ArrowUp" xmlns="http://www.w3.org/2000/svg" viewBox="0 0 32 32"><defs><style>.cls-1{fill:#c2c2c2;}.cls-2{fill:#0078d4;}.cls-3{fill:#2f2f2f;}</style></defs><title>3DObjects-blue</title><polygon class="cls-1" points="0 24.02 6.86 27.43 6.86 18.57 0 15.12 0 24.02"/><path class="cls-1" d="M11,6.88A6.87,6.87,0,0,0,10,8.41l8.34,4.18V16l3.78-7.59A7.14,7.14,0,0,0,21,6.87a6.92,6.92,0,0,0-1.43-1.16A6.66,6.66,0,0,0,17.87,5,6.92,6.92,0,0,0,16,4.71,6.79,6.79,0,0,0,14.14,5a7,7,0,0,0-1.68.74A6.61,6.61,0,0,0,11,6.88Z"/><polygon class="cls-2" points="8 10 1.41 13.28 8 16.57 14.59 13.28 8 10"/><polygon class="cls-1" points="9.14 27.43 16 24.02 16 15.12 9.14 18.57 9.14 27.43"/><path class="cls-3" d="M31.71,20.53,25.14,7.39,18.55,20.55a2.5,2.5,0,0,0-.19.52,2,2,0,0,0-.07.55,1.73,1.73,0,0,0,.16.76,2.63,2.63,0,0,0,.41.65,3,3,0,0,0,.57.56c.21.16.43.31.64.44a7.8,7.8,0,0,0,2.45,1,12.44,12.44,0,0,0,5.25,0,7.74,7.74,0,0,0,2.44-1c.22-.13.43-.28.65-.44a3.77,3.77,0,0,0,.57-.56,3.39,3.39,0,0,0,.41-.65,1.73,1.73,0,0,0,.16-.76,2,2,0,0,0-.07-.56A2.6,2.6,0,0,0,31.71,20.53Z"/></svg>