<svg xmlns="http://www.w3.org/2000/svg" viewBox="0 0 31.97 31.74"><defs><style>.cls-1{fill:none;}.cls-2{fill:#c2c2c2;}.cls-3{fill:#939393;}.cls-4{fill:#d83b01;}</style></defs><title>accessibility_check</title><g id="Layer_2" data-name="Layer 2"><g id="SYMBOLS"><g id="accessibility_check"><path class="cls-1" d="M16.91,23.58a5.8,5.8,0,0,1-.4-1.59h-1A6.67,6.67,0,0,0,16,24a6.82,6.82,0,0,0,1.06,1.73l.7-.71A4.88,4.88,0,0,1,16.91,23.58Z"/><polygon class="cls-1" points="23.81 21.12 24.92 20.01 23.81 20.01 23.43 20.01 23.43 14.06 22.44 14.06 22.44 20.01 20.95 20.01 22.93 21.99 23.81 21.12"/><path class="cls-1" d="M18.46,25.69l-.71.7a6.51,6.51,0,0,0,1.73,1.05,6.61,6.61,0,0,0,2,.48v-1a5.8,5.8,0,0,1-1.59-.4A4.88,4.88,0,0,1,18.46,25.69Z"/><path class="cls-1" d="M19.86,16.46a5.8,5.8,0,0,1,1.59-.4v-1a6.61,6.61,0,0,0-2,.48,6.29,6.29,0,0,0-1.73,1.06l.71.69A5.37,5.37,0,0,1,19.86,16.46Z"/><path class="cls-1" d="M16.91,19.41a4.88,4.88,0,0,1,.84-1.4l-.7-.71A7,7,0,0,0,16,19a6.67,6.67,0,0,0-.47,2h1A5.8,5.8,0,0,1,16.91,19.41Z"/><path class="cls-1" d="M27,23.58a5.14,5.14,0,0,1-.85,1.4l.7.71A6.29,6.29,0,0,0,27.89,24a6.69,6.69,0,0,0,.48-2h-1A5.45,5.45,0,0,1,27,23.58Z"/><polygon class="cls-1" points="29.38 18.52 29.38 20.01 26.32 20.01 25.33 21 29.38 21 29.38 22.49 31.37 20.5 31.37 20.5 29.38 18.52"/><path class="cls-1" d="M24,26.53l-.22.08a6.49,6.49,0,0,1-1.37.32v1a6.41,6.41,0,0,0,1.37-.28,4.69,4.69,0,0,0,.6-.2,6.46,6.46,0,0,0,1.72-1.05l-.7-.7A4.88,4.88,0,0,1,24,26.53Z"/><path class="cls-2" d="M10.43,21.5a11.74,11.74,0,0,1,5.12-9.69,1,1,0,0,0-.61-1.9h0a1,1,0,0,1-1-1.05V1.05a1.06,1.06,0,0,0-1.06-1H1.05A1,1,0,0,0,0,1.05V30.69a1,1,0,0,0,1.05,1H13.3a1,1,0,0,0,.72-1.8A11.7,11.7,0,0,1,10.43,21.5Z"/><polygon class="cls-3" points="15.86 0.01 15.86 7.94 23.79 7.94 15.86 0.01"/><path class="cls-4" d="M23.81,11.86a10.84,10.84,0,0,0-1.62-.14,9.78,9.78,0,1,0,0,19.55,9.66,9.66,0,0,0,1.62-.14,9.77,9.77,0,0,0,0-19.27Zm-4.33,3.69a6.61,6.61,0,0,1,2-.48v1a5.8,5.8,0,0,0-1.59.4,5.37,5.37,0,0,0-1.4.84l-.71-.69A6.29,6.29,0,0,1,19.48,15.55Zm-4,5.45A6.67,6.67,0,0,1,16,19a7,7,0,0,1,1.06-1.73l.7.71a4.88,4.88,0,0,0-.84,1.4,5.8,5.8,0,0,0-.4,1.59ZM16,24a6.67,6.67,0,0,1-.47-2h1a5.8,5.8,0,0,0,.4,1.59,4.88,4.88,0,0,0,.84,1.4l-.7.71A6.82,6.82,0,0,1,16,24Zm5.46,4a6.61,6.61,0,0,1-2-.48,6.51,6.51,0,0,1-1.73-1.05l.71-.7a4.88,4.88,0,0,0,1.4.84,5.8,5.8,0,0,0,1.59.4ZM21,20h1.49v-6h1v6h1.49l-1.11,1.11-.88.87Zm3.46,7.43a4.69,4.69,0,0,1-.6.2,6.41,6.41,0,0,1-1.37.28v-1a6.49,6.49,0,0,0,1.37-.32l.22-.08a4.88,4.88,0,0,0,1.4-.84l.7.7A6.46,6.46,0,0,1,24.41,27.44ZM27.89,24a6.29,6.29,0,0,1-1.06,1.73l-.7-.71a5.14,5.14,0,0,0,.85-1.4A5.45,5.45,0,0,0,27.37,22h1A6.69,6.69,0,0,1,27.89,24Zm1.49-1.47V21H25.33l1-1h3.06V18.52l2,2h0Z"/></g></g></g></svg>