<svg id="ArrowUp" xmlns="http://www.w3.org/2000/svg" viewBox="0 0 32 32"><defs><style>.cls-1{fill:none;}.cls-2{fill:#c2c2c2;}.cls-3{fill:#0078d4;}</style></defs><title>Accessibility-blue</title><path class="cls-1" d="M16.92,23.7a5.79,5.79,0,0,1-.39-1.59h-1a6.69,6.69,0,0,0,.48,2,6.54,6.54,0,0,0,1.06,1.73l.7-.71A5.14,5.14,0,0,1,16.92,23.7Z"/><polygon class="cls-1" points="23.45 20.12 23.45 14.16 22.46 14.16 22.46 20.12 20.97 20.12 22.96 22.11 23.83 21.23 24.94 20.12 23.83 20.12 23.45 20.12"/><path class="cls-1" d="M18.47,25.81l-.7.7a6.51,6.51,0,0,0,1.73,1,6.12,6.12,0,0,0,2,.48v-1a5.8,5.8,0,0,1-1.59-.4A5.32,5.32,0,0,1,18.47,25.81Z"/><path class="cls-1" d="M19.88,16.57a5.8,5.8,0,0,1,1.59-.4v-1a6.69,6.69,0,0,0-2,.48,6.29,6.29,0,0,0-1.73,1.06l.7.69A5.6,5.6,0,0,1,19.88,16.57Z"/><path class="cls-1" d="M16.92,19.52a5.14,5.14,0,0,1,.85-1.4l-.7-.71a6.55,6.55,0,0,0-1.54,3.7h1A6,6,0,0,1,16.92,19.52Z"/><path class="cls-1" d="M27,23.7a5.14,5.14,0,0,1-.85,1.4l.7.71a6.54,6.54,0,0,0,1.06-1.73,6.69,6.69,0,0,0,.48-2h-1A5.79,5.79,0,0,1,27,23.7Z"/><polygon class="cls-1" points="29.41 22.6 31.4 20.62 31.4 20.62 29.41 18.63 29.41 20.12 26.35 20.12 25.35 21.11 29.41 21.11 29.41 22.6"/><path class="cls-1" d="M24.05,26.65l-.22.08a6.35,6.35,0,0,1-1.37.32v1a6.41,6.41,0,0,0,1.37-.28,4.69,4.69,0,0,0,.6-.2,6.51,6.51,0,0,0,1.73-1l-.7-.7A5.32,5.32,0,0,1,24.05,26.65Z"/><path class="cls-2" d="M10.44,21.61A11.78,11.78,0,0,1,20.27,10H13.9V.09H0V31.87H16.45A11.78,11.78,0,0,1,10.44,21.61Z"/><polygon class="cls-2" points="15.88 8.04 23.82 8.04 15.88 0.11 15.88 8.04"/><path class="cls-3" d="M22.21,11.82a9.79,9.79,0,0,0,0,19.58,9.66,9.66,0,0,0,1.62-.15,9.77,9.77,0,0,0,0-19.28A9.66,9.66,0,0,0,22.21,11.82ZM19.5,15.66a6.69,6.69,0,0,1,2-.48v1a5.8,5.8,0,0,0-1.59.4,5.6,5.6,0,0,0-1.41.84l-.7-.69A6.29,6.29,0,0,1,19.5,15.66Zm-4,5.45a6.55,6.55,0,0,1,1.54-3.7l.7.71a5.14,5.14,0,0,0-.85,1.4,6,6,0,0,0-.39,1.59Zm.48,3a6.69,6.69,0,0,1-.48-2h1a5.79,5.79,0,0,0,.39,1.59,5.14,5.14,0,0,0,.85,1.4l-.7.71A6.54,6.54,0,0,1,16,24.08Zm5.46,4a6.12,6.12,0,0,1-2-.48,6.51,6.51,0,0,1-1.73-1l.7-.7a5.32,5.32,0,0,0,1.41.84,5.8,5.8,0,0,0,1.59.4Zm3-.48a4.69,4.69,0,0,1-.6.2,6.41,6.41,0,0,1-1.37.28v-1a6.35,6.35,0,0,0,1.37-.32l.22-.08a5.32,5.32,0,0,0,1.41-.84l.7.7A6.51,6.51,0,0,1,24.43,27.56Zm3.49-3.48a6.54,6.54,0,0,1-1.06,1.73l-.7-.71A5.14,5.14,0,0,0,27,23.7a5.79,5.79,0,0,0,.39-1.59h1A6.69,6.69,0,0,1,27.92,24.08Zm-1.57-4h3.06V18.63l2,2h0l-2,2V21.11H25.35Zm-2.52,1.11-.87.88-2-2h1.49v-6h1v6h1.49Z"/></svg>