<svg xmlns="http://www.w3.org/2000/svg" viewBox="0 0 29.61 30"><defs><style>.cls-1{fill:#c2c2c2;}.cls-2{fill:#d83b01;}</style></defs><title>airplane</title><g id="Layer_2" data-name="Layer 2"><g id="SYMBOLS"><path class="cls-1" d="M8,30l4-12H6L5,20H0l1.67-5L0,10H5l1,2h6L8,0h5l6,12h7.62a2.82,2.82,0,0,1,1.15.24,3,3,0,0,1,1,.65,3.25,3.25,0,0,1,.65,1A2.81,2.81,0,0,1,29.61,15a2.75,2.75,0,0,1-.23,1.15,3.25,3.25,0,0,1-.65,1,3,3,0,0,1-1,.65,2.82,2.82,0,0,1-1.15.24H19L13,30Z"/><circle class="cls-2" cx="15.61" cy="14.98" r="1.77"/></g></g></svg>