<svg xmlns="http://www.w3.org/2000/svg" viewBox="0 0 31.97 31.84"><defs><style>.cls-1{fill:#2f2f2f;}.cls-2{fill:#c2c2c2;}.cls-3{fill:#d83b01;}</style></defs><title>alarm</title><g id="Layer_2" data-name="Layer 2"><g id="SYMBOLS"><g id="alarm"><path class="cls-1" d="M16.06,2.26A14.79,14.79,0,1,0,30.85,17.05,14.79,14.79,0,0,0,16.06,2.26Zm0,27.54A12.75,12.75,0,1,1,28.81,17.05,12.76,12.76,0,0,1,16.06,29.8Z"/><path class="cls-2" d="M16.06,4.3A12.75,12.75,0,1,0,28.81,17.05,12.76,12.76,0,0,0,16.06,4.3ZM12.2,15.82l-4-2.47a1,1,0,0,1-.45-.81.94.94,0,0,1,.29-.69.92.92,0,0,1,.66-.28,1,1,0,0,1,.52.15l3.94,2.47A4.05,4.05,0,0,0,12.2,15.82Zm11.48-4.53-5.93,5a1.93,1.93,0,0,1,0,1.56,2,2,0,0,1-.41.62A2,2,0,0,1,16,19a1.9,1.9,0,0,1-.75-.15,1.93,1.93,0,0,1-.63-.42,1.86,1.86,0,0,1-.41-.62,2,2,0,0,1,0-1.52,1.86,1.86,0,0,1,.41-.62,1.93,1.93,0,0,1,.63-.42,1.91,1.91,0,0,1,1.32-.06,2.32,2.32,0,0,1,.53.24l5.91-5a.53.53,0,0,1,.34-.11.52.52,0,0,1,.38.15.5.5,0,0,1,.15.38A.49.49,0,0,1,23.68,11.29Z"/><path class="cls-2" d="M10.68,1.12A8.31,8.31,0,0,0,9.92.68a6.85,6.85,0,0,0-3-.68,6.78,6.78,0,0,0-2.7.54A7.15,7.15,0,0,0,2,2,7.15,7.15,0,0,0,.54,4.23,6.78,6.78,0,0,0,0,6.93,6.79,6.79,0,0,0,.52,9.57c.07.16.18.31.26.47A16.87,16.87,0,0,1,10.68,1.12Z"/><path class="cls-2" d="M31.43,4.23A7.15,7.15,0,0,0,30,2,7.15,7.15,0,0,0,27.74.54a7,7,0,0,0-5.69.14c-.24.12-.48.26-.71.4a16.92,16.92,0,0,1,9.93,8.81c.05-.11.13-.21.17-.32a6.93,6.93,0,0,0,0-5.34Z"/><path class="cls-3" d="M9.26,11.72a1,1,0,0,0-.52-.15.92.92,0,0,0-.66.28.94.94,0,0,0-.29.69,1,1,0,0,0,.45.81l4,2.47a4.05,4.05,0,0,1,1-1.63Z"/><path class="cls-3" d="M23.86,10.89a.5.5,0,0,0-.15-.38.52.52,0,0,0-.38-.15.53.53,0,0,0-.34.11l-5.91,5a2.32,2.32,0,0,0-.53-.24,1.91,1.91,0,0,0-1.32.06,1.93,1.93,0,0,0-.63.42,1.86,1.86,0,0,0-.41.62,2,2,0,0,0,0,1.52,1.86,1.86,0,0,0,.41.62,1.93,1.93,0,0,0,.63.42A1.9,1.9,0,0,0,16,19a2,2,0,0,0,1.39-.57,2,2,0,0,0,.41-.62,1.93,1.93,0,0,0,0-1.56l5.93-5A.49.49,0,0,0,23.86,10.89Z"/></g></g></g></svg>