<svg width="32" height="32" viewBox="0 0 32 32" fill="none" xmlns="http://www.w3.org/2000/svg">
<path d="M29.8219 7.92258C29.1303 6.73548 28.2942 5.65677 27.3239 4.68129C26.3484 3.70581 25.2697 2.87484 24.0826 2.18323C22.8955 1.49161 21.6206 0.954839 20.2529 0.572903C18.8852 0.190968 17.471 0 16 0C14.529 0 13.1045 0.190968 11.7419 0.572903C10.3845 0.954839 9.10968 1.49161 7.92258 2.18323C6.73548 2.87484 5.65161 3.71097 4.68129 4.68129C3.71097 5.65161 2.87484 6.73548 2.18323 7.92258C1.49161 9.10968 0.954839 10.3845 0.572903 11.7523C0.190968 13.1148 0 14.529 0 16C0 17.471 0.190968 18.8955 0.567742 20.2581C0.949677 21.6155 1.48129 22.8903 2.17806 24.0774C2.86968 25.2645 3.70581 26.3432 4.67613 27.3187C5.65161 28.2942 6.73032 29.1252 7.91742 29.8168C9.10452 30.5084 10.3794 31.0452 11.7471 31.4271C13.1097 31.809 14.529 32 15.9948 32C17.4606 32 18.88 31.809 20.2477 31.4271C21.6103 31.0503 22.8903 30.5084 24.0774 29.8168C25.2645 29.1252 26.3432 28.289 27.3187 27.3187C28.2942 26.3432 29.1252 25.2645 29.8168 24.0774C30.5084 22.8903 31.0452 21.6155 31.4271 20.2477C31.809 18.88 32 17.4658 32 15.9948C32 14.5239 31.809 13.1097 31.4271 11.7471C31.0452 10.3845 30.5084 9.10452 29.8168 7.91742L29.8219 7.92258Z" fill="#0078D4"/>
<rect x="14.75" y="5" width="2.5" height="17" fill="white"/>
<rect x="14.75" y="24.2551" width="2.5" height="2.5" fill="white"/>
</svg>
