<svg xmlns="http://www.w3.org/2000/svg" viewBox="0 0 32 26.33"><defs><style>.cls-1{fill:#c2c2c2;}.cls-2{fill:#d2d2d2;}.cls-3{fill:#d83b01;}</style></defs><title>anti-spam</title><g id="Layer_2" data-name="Layer 2"><g id="SYMBOLS"><g id="anti-spam"><path class="cls-1" d="M16,10.26,1.75,3.12,0,2.25V20H16a8.38,8.38,0,0,1,5-8.65C27,8.33,32,14,32,14V2.25l-1.74.87Z"/><polygon class="cls-2" points="31.99 2.25 31.99 2.25 32 2.25 31.99 2.25"/><polygon class="cls-2" points="0 2.25 0.01 2.25 0.01 2.25 0 2.25"/><polygon class="cls-1" points="16 8.01 30.25 0.87 31.99 0.01 31.99 0 0.01 0 0.01 0.01 1.75 0.87 16 8.01"/><path class="cls-3" d="M25,12.33A7,7,0,0,1,30,14.38a6.91,6.91,0,0,1,1.5,2.22A7,7,0,0,1,30,24.28a7,7,0,0,1-9.9,0,7,7,0,0,1-1.5-7.68,6.91,6.91,0,0,1,1.5-2.22A7,7,0,0,1,25,12.33Zm-5,7a4.92,4.92,0,0,0,.39,2,5,5,0,0,0,1.07,1.59,5.12,5.12,0,0,0,1.59,1.07,4.92,4.92,0,0,0,1.95.39,5,5,0,0,0,1.44-.21,4.92,4.92,0,0,0,1.31-.62l-6.92-6.92a4.92,4.92,0,0,0-.62,1.31A5,5,0,0,0,20,19.33Zm9.17,2.75a4.92,4.92,0,0,0,.62-1.31A5,5,0,0,0,30,19.33a4.71,4.71,0,0,0-.4-1.94,5.18,5.18,0,0,0-2.66-2.66,4.71,4.71,0,0,0-1.94-.4,5,5,0,0,0-1.44.21,4.92,4.92,0,0,0-1.31.62Z"/></g></g></g></svg>