<svg id="ArrowUp" xmlns="http://www.w3.org/2000/svg" viewBox="0 0 32 32"><defs><style>.cls-1{fill:#d2d2d2;}.cls-2{fill:#c2c2c2;}</style></defs><title>Aperture</title><path class="cls-1" d="M17.77,11.79a4.56,4.56,0,0,0-3.55,0,4.86,4.86,0,0,0-1.44,1,4.78,4.78,0,0,0-1,1.45,4.56,4.56,0,0,0,0,3.55,4.8,4.8,0,0,0,2.43,2.43,4.56,4.56,0,0,0,3.55,0,4.78,4.78,0,0,0,1.45-1,4.86,4.86,0,0,0,1-1.44,4.56,4.56,0,0,0,0-3.55,4.74,4.74,0,0,0-2.44-2.44Z"/><path class="cls-2" d="M31.32,11.43H21.84l7,14A15.67,15.67,0,0,0,31.2,21a15.8,15.8,0,0,0,.12-9.55Z"/><path class="cls-2" d="M3.12,6.54a15.84,15.84,0,0,0-2.44,14h9.48Z"/><path class="cls-2" d="M14.79,9.26A6.13,6.13,0,0,1,16,9.14H30.43a15.87,15.87,0,0,0-2.12-3.3,16,16,0,0,0-6.2-4.6,16,16,0,0,0-3.79-1L13.63,9.57A9.45,9.45,0,0,1,14.79,9.26Z"/><path class="cls-2" d="M15.86,0a15.78,15.78,0,0,0-6,1.23A16,16,0,0,0,4.75,4.64l4.39,8.81Z"/><path class="cls-2" d="M17.21,22.74a6.21,6.21,0,0,1-1.21.12H1.57a15.68,15.68,0,0,0,2.12,3.31,16.13,16.13,0,0,0,6.2,4.59,16,16,0,0,0,3.79,1l4.69-9.37A9.45,9.45,0,0,1,17.21,22.74Z"/><path class="cls-2" d="M16.14,32a15.78,15.78,0,0,0,6-1.23,16,16,0,0,0,5.11-3.41l-4.39-8.81Z"/></svg>