<svg xmlns="http://www.w3.org/2000/svg" viewBox="0 0 31.97 25.95"><defs><style>.cls-1{fill:#c2c2c2;}.cls-2{fill:#d83b01;}</style></defs><title>application_web</title><g id="Layer_2" data-name="Layer 2"><g id="SYMBOLS"><g id="application_web"><g id="_Group_" data-name="&lt;Group&gt;"><path class="cls-1" d="M0,0V26H32V0ZM2,9V6M30,24,2,24.21v-18L30,6ZM32,4H0V2H32Z"/></g><g id="_Group_2" data-name="&lt;Group&gt;"><path class="cls-2" d="M18.46,18.07h-5.3c0,.2.1.44.18.71A9.23,9.23,0,0,0,14,20.49a4.13,4.13,0,0,0,.49.76,2.6,2.6,0,0,0,.61.55,1.32,1.32,0,0,0,.7.2,1.35,1.35,0,0,0,.7-.2,2.6,2.6,0,0,0,.61-.55,4.73,4.73,0,0,0,.49-.76,9.23,9.23,0,0,0,.67-1.71C18.36,18.51,18.42,18.27,18.46,18.07Z"/><path class="cls-2" d="M19.62,13.15c0,.33.07.66.09,1s0,.66,0,1,0,.66,0,1-.05.65-.09,1h2.79a7.07,7.07,0,0,0,0-3.94Z"/><path class="cls-2" d="M19,10.32a7.6,7.6,0,0,1,.3.92c.08.31.15.62.22.93H22a7,7,0,0,0-.7-1.17,7.33,7.33,0,0,0-.92-1,7.25,7.25,0,0,0-1.1-.81,6.65,6.65,0,0,0-1.24-.58,7.46,7.46,0,0,1,.5.82A6.47,6.47,0,0,1,19,10.32Z"/><path class="cls-2" d="M13,13.15c0,.33-.07.66-.1,1s0,.66,0,1,0,.66,0,1,.06.65.1,1h5.64c0-.33.07-.66.09-1s0-.66,0-1,0-.66,0-1,0-.65-.09-1Z"/><path class="cls-2" d="M14,9.75A4.5,4.5,0,0,1,14.5,9a2.6,2.6,0,0,1,.61-.55,1.32,1.32,0,0,1,.7-.2,1.35,1.35,0,0,1,.7.2,2.6,2.6,0,0,1,.61.55,5.22,5.22,0,0,1,.49.76,9.23,9.23,0,0,1,.67,1.71c.08.28.14.51.18.71h-5.3c0-.2.1-.43.18-.71A9.23,9.23,0,0,1,14,9.75Z"/><path class="cls-2" d="M10.3,11a6.74,6.74,0,0,1,.92-1,7.25,7.25,0,0,1,1.1-.81,6.65,6.65,0,0,1,1.24-.58,6.19,6.19,0,0,0-.5.82,8,8,0,0,0-.4.89c-.11.3-.21.61-.29.92s-.16.62-.22.93H9.59A7,7,0,0,1,10.3,11Z"/><path class="cls-2" d="M8.93,15.12a6.8,6.8,0,0,1,.28-2H12c0,.33-.07.66-.09,1s0,.66,0,1,0,.66,0,1,.05.65.09,1H9.21A6.8,6.8,0,0,1,8.93,15.12Z"/><path class="cls-2" d="M12.32,21.05a6.63,6.63,0,0,1-1.1-.81,6.74,6.74,0,0,1-.92-1,6.29,6.29,0,0,1-.71-1.17h2.56c.06.31.14.62.22.93s.18.62.29.93a8.76,8.76,0,0,0,.4.88,6.19,6.19,0,0,0,.5.82A6.65,6.65,0,0,1,12.32,21.05Z"/><path class="cls-2" d="M21.32,19.24a7.33,7.33,0,0,1-.92,1,6.95,6.95,0,0,1-2.34,1.39,7.46,7.46,0,0,0,.5-.82,6.92,6.92,0,0,0,.39-.88,8.37,8.37,0,0,0,.3-.93c.08-.31.15-.62.22-.93H22A6.25,6.25,0,0,1,21.32,19.24Z"/></g></g></g></g></svg>