<svg xmlns="http://www.w3.org/2000/svg" viewBox="0 0 13.99 31.97"><defs><style>.cls-1{fill:#c2c2c2;}</style></defs><title>attachment</title><g id="Layer_2" data-name="Layer 2"><g id="SYMBOLS"><g id="attachment"><path class="cls-1" d="M12,25a4.67,4.67,0,0,1-.4,1.93,5.1,5.1,0,0,1-1.08,1.58,4.94,4.94,0,0,1-1.58,1.08A4.71,4.71,0,0,1,7,30a4.67,4.67,0,0,1-1.93-.4,5,5,0,0,1-1.59-1.08A5.07,5.07,0,0,1,2.4,26.91,4.67,4.67,0,0,1,2,25V5a3.1,3.1,0,0,1,.23-1.18A3,3,0,0,1,3.82,2.23a3.12,3.12,0,0,1,2.35,0A3,3,0,0,1,7.76,3.82,3.1,3.1,0,0,1,8,5V25a1,1,0,0,1-.29.7A1,1,0,0,1,7,26a.94.94,0,0,1-.7-.29A1,1,0,0,1,6,25V8H4V25a2.91,2.91,0,0,0,.23,1.17,3,3,0,0,0,1.59,1.59A3.09,3.09,0,0,0,7,28a3,3,0,0,0,1.17-.23,3,3,0,0,0,1-.64A3,3,0,0,0,10,25V5a4.68,4.68,0,0,0-.4-1.94A4.94,4.94,0,0,0,8.51,1.48,4.94,4.94,0,0,0,6.93.4,4.67,4.67,0,0,0,5,0,4.68,4.68,0,0,0,3.06.4,4.94,4.94,0,0,0,1.48,1.48,4.94,4.94,0,0,0,.4,3.06,4.68,4.68,0,0,0,0,5V25A6.75,6.75,0,0,0,.55,27.7a7,7,0,0,0,3.72,3.71,6.91,6.91,0,0,0,5.45,0,7,7,0,0,0,3.71-3.71A6.76,6.76,0,0,0,14,25V6H12Z"/></g></g></g></svg>