<svg width="28" height="32" viewBox="0 0 28 32" fill="none" xmlns="http://www.w3.org/2000/svg">
<path d="M10.1241 16.1799L12.9038 18.958L18.8209 13.041" stroke="#0078D4" stroke-width="2"/>
<path fill-rule="evenodd" clip-rule="evenodd" d="M14 0L20.896 4.05578L27.8564 8L27.792 16L27.8564 24L24.4313 25.9409L20.4265 20.5563C21.3399 19.27 21.8769 17.6977 21.8769 16C21.8769 11.6491 18.3499 8.12207 13.999 8.12207C9.64815 8.12207 6.12109 11.6491 6.12109 16C6.12109 20.3509 9.64815 23.8779 13.999 23.8779C14.4545 23.8779 14.901 23.8393 15.3354 23.765L19.1899 28.9476L14 32L7.10399 27.9442L0.143585 24L0.207992 16L0.143585 8L7.10399 4.05578L14 0Z" fill="#C2C2C2"/>
</svg>
