<svg id="ArrowUp" xmlns="http://www.w3.org/2000/svg" viewBox="0 0 32 32"><defs><style>.cls-1{fill:#0078d4;}.cls-2{fill:#2f2f2f;}.cls-3{fill:#c2c2c2;}</style></defs><title>Backpack-blue</title><path class="cls-1" d="M16,7.16a3.58,3.58,0,1,1,3.58-3.58A3.59,3.59,0,0,1,16,7.16Zm0-5.05a1.47,1.47,0,1,0,1.46,1.47A1.46,1.46,0,0,0,16,2.11Z"/><rect class="cls-2" x="4.9" y="20.68" width="5.27" height="8.68" rx="1.32"/><rect class="cls-2" x="21.83" y="20.68" width="5.27" height="8.68" rx="1.32"/><rect class="cls-1" x="6.87" y="6.52" width="18.26" height="25.48" rx="1.32"/><rect class="cls-2" x="4.23" y="3.36" width="23.53" height="7.58" rx="1.19"/><rect class="cls-2" x="9.51" y="20.47" width="12.98" height="9.09"/><rect class="cls-3" x="9.52" y="10.38" width="2.64" height="1.66"/><rect class="cls-3" x="19.84" y="10.38" width="2.64" height="1.66"/></svg>