<svg xmlns="http://www.w3.org/2000/svg" viewBox="0 0 31.97 31.97"><defs><style>.cls-1{fill:#c2c2c2;}.cls-2{fill:#d83b01;}.cls-3{fill:#fff;}.cls-4{fill:#939393;}.cls-5{fill:#2f2f2f;}</style></defs><title>bandwidth</title><g id="Layer_2" data-name="Layer 2"><g id="SYMBOLS"><g id="_Speed" data-name="~Speed"><path class="cls-1" d="M16,0a15.66,15.66,0,0,1,4.24.57A16.82,16.82,0,0,1,24,2.19a15.74,15.74,0,0,1,3.24,2.5,16,16,0,0,1,4.11,7.06,15.75,15.75,0,0,1,0,8.47A16.35,16.35,0,0,1,29.78,24a16.1,16.1,0,0,1-2.5,3.24A15.74,15.74,0,0,1,24,29.78a16.35,16.35,0,0,1-3.82,1.61,15.75,15.75,0,0,1-8.47,0,16.18,16.18,0,0,1-3.82-1.61A16,16,0,0,1,2.19,24,16.82,16.82,0,0,1,.57,20.22a16,16,0,0,1,0-8.47A16.63,16.63,0,0,1,2.19,7.93,16,16,0,0,1,7.93,2.19,16.63,16.63,0,0,1,11.75.57,15.64,15.64,0,0,1,16,0"/></g><path class="cls-2" d="M18.85,14.59a3.16,3.16,0,0,1,.08,2.64,3.13,3.13,0,0,1-1.7,1.7,3.07,3.07,0,0,1-1.25.25,3,3,0,0,1-1.24-.25,3.25,3.25,0,0,1-1-.68A3.22,3.22,0,0,1,12.79,16,3,3,0,0,1,13,14.74a3.13,3.13,0,0,1,1.7-1.7A3,3,0,0,1,16,12.79a3.1,3.1,0,0,1,1.4.33v0L23.49,7,25,8.47,18.86,14.6Z"/><path class="cls-3" d="M19.91,7.26a9.49,9.49,0,0,0-4-.87,9.53,9.53,0,0,0-4.81,1.32A9.39,9.39,0,0,0,9.19,9.22,9.72,9.72,0,0,0,7.7,11.16a9.18,9.18,0,0,0-1,2.28A9.38,9.38,0,0,0,6.39,16a9.6,9.6,0,0,0,2.82,6.78L7.69,24.28a11.6,11.6,0,0,1-2.55-3.81A11.82,11.82,0,0,1,4.26,16a11.5,11.5,0,0,1,.42-3.11,11.78,11.78,0,0,1,1.18-2.8A11.94,11.94,0,0,1,7.69,7.71a11.32,11.32,0,0,1,2.37-1.82A11.5,11.5,0,0,1,16,4.3a11.22,11.22,0,0,1,4.8,1Z"/><path class="cls-4" d="M26.64,11.19a11.26,11.26,0,0,1,.77,2.34A11.14,11.14,0,0,1,27.67,16a11.88,11.88,0,0,1-.87,4.49,11.46,11.46,0,0,1-2.52,3.81l-1.52-1.52a9.69,9.69,0,0,0,2.08-3.08A9.22,9.22,0,0,0,25.57,16a9.54,9.54,0,0,0-.86-4Z"/><path class="cls-5" d="M16,19.21a3,3,0,0,0,2.27-1,3.08,3.08,0,0,0,1-2.27,3.11,3.11,0,0,0-1-2.27,3.08,3.08,0,0,0-2.27-1A3.28,3.28,0,0,0,12.75,16,3.28,3.28,0,0,0,16,19.21"/></g></g></svg>