<svg id="ArrowUp" xmlns="http://www.w3.org/2000/svg" viewBox="0 0 32 32"><defs><style>.cls-1{fill:#c2c2c2;}.cls-2{fill:#0078d4;}.cls-3{fill:#fff;}.cls-4{fill:#2f2f2f;}</style></defs><title>BandwidthSpeedometerEfficiency-blue</title><g id="_Speed" data-name="~Speed"><path class="cls-1" d="M16,0a15.66,15.66,0,0,1,4.24.57,16.89,16.89,0,0,1,3.83,1.62,16,16,0,0,1,5.74,5.74,16.89,16.89,0,0,1,1.62,3.83,16.05,16.05,0,0,1,0,8.48,16.89,16.89,0,0,1-1.62,3.83,16,16,0,0,1-5.74,5.74,16.89,16.89,0,0,1-3.83,1.62,16.05,16.05,0,0,1-8.48,0,16.89,16.89,0,0,1-3.83-1.62,16,16,0,0,1-5.74-5.74A16.89,16.89,0,0,1,.57,20.24a16.05,16.05,0,0,1,0-8.48A16.89,16.89,0,0,1,2.19,7.93,16,16,0,0,1,7.93,2.19,16.89,16.89,0,0,1,11.76.57,15.66,15.66,0,0,1,16,0"/></g><path class="cls-2" d="M18.87,14.6A3.19,3.19,0,0,1,19,17.25a3.13,3.13,0,0,1-1.7,1.7,3.25,3.25,0,0,1-2.5,0,3.13,3.13,0,0,1-1.7-1.7,3.25,3.25,0,0,1,0-2.5,3.13,3.13,0,0,1,1.7-1.7,3.19,3.19,0,0,1,2.65.08h0L23.52,7,25,8.48l-6.14,6.14Z"/><path class="cls-3" d="M19.93,7.27a9.49,9.49,0,0,0-4-.87,9.2,9.2,0,0,0-2.53.34,9.67,9.67,0,0,0-5.71,4.43,9.5,9.5,0,0,0-1,2.29A9.32,9.32,0,0,0,6.4,16a9.48,9.48,0,0,0,.73,3.68,9.58,9.58,0,0,0,2.09,3.1L7.7,24.3A11.63,11.63,0,0,1,4.27,16a11.45,11.45,0,0,1,1.6-5.92A11.94,11.94,0,0,1,7.7,7.72a11.72,11.72,0,0,1,2.37-1.83A11.83,11.83,0,0,1,16,4.3a12,12,0,0,1,2.46.26,11.66,11.66,0,0,1,2.34.77Z"/><path class="cls-1" d="M26.67,11.2a11.66,11.66,0,0,1,.77,2.34,11.93,11.93,0,0,1-.61,7A11.49,11.49,0,0,1,24.3,24.3l-1.52-1.52a9.61,9.61,0,0,0,2.09-3.08,9.26,9.26,0,0,0,.73-3.65,9.49,9.49,0,0,0-.87-4Z"/><path class="cls-4" d="M16,19.23a3.21,3.21,0,0,0,2.27-5.5A3.23,3.23,0,0,0,12.77,16,3.28,3.28,0,0,0,16,19.23"/></svg>