<svg id="ArrowUp" xmlns="http://www.w3.org/2000/svg" viewBox="0 0 32 32"><defs><style>.cls-1{fill:#0078d4;}.cls-2{fill:#c2c2c2;}</style></defs><title>BellReminderAlarmbellNotification-blue</title><circle class="cls-1" cx="16" cy="29.7" r="2.3"/><path class="cls-2" d="M25.19,22.81V11.33a8.9,8.9,0,0,0-.73-3.57,9.46,9.46,0,0,0-2-2.92,9.64,9.64,0,0,0-2.92-2,8.49,8.49,0,0,0-1.29-.43.68.68,0,0,0,0-.14,2.3,2.3,0,1,0-4.6,0,.68.68,0,0,0,0,.14,8.49,8.49,0,0,0-1.29.43A9.24,9.24,0,0,0,7.54,7.76a8.9,8.9,0,0,0-.73,3.57V22.81H4.13v2.3H27.87v-2.3Z"/></svg>