<svg xmlns="http://www.w3.org/2000/svg" viewBox="0 0 23.71 31.97"><defs><style>.cls-1{fill:#d83b01;}.cls-2{fill:#c2c2c2;}</style></defs><title>bell_reminder</title><g id="Layer_2" data-name="Layer 2"><g id="SYMBOLS"><g id="bell_reminder"><circle class="cls-1" cx="11.85" cy="29.67" r="2.29"/><path class="cls-2" d="M21,22.79V11.32a8.9,8.9,0,0,0-.72-3.57,9.5,9.5,0,0,0-2-2.91,9.3,9.3,0,0,0-2.91-2,8.49,8.49,0,0,0-1.29-.43.77.77,0,0,0,0-.15,2.3,2.3,0,0,0-4.59,0s0,.1,0,.15a8.37,8.37,0,0,0-1.28.43,9.34,9.34,0,0,0-2.92,2,9.47,9.47,0,0,0-2,2.91,8.9,8.9,0,0,0-.72,3.57V22.79H0v2.3H23.71v-2.3Z"/></g></g></g></svg>