<svg xmlns="http://www.w3.org/2000/svg" viewBox="0 0 20.33 31.97"><defs><style>.cls-1{fill:#d83b01;}.cls-2{fill:#fff;}.cls-3{fill:#2f2f2f;}</style></defs><title>best_practices</title><g id="Layer_2" data-name="Layer 2"><g id="SYMBOLS"><g id="best_practices"><path class="cls-1" d="M12.49,21.72a6.24,6.24,0,0,1-4.94,0,6.32,6.32,0,0,1-1.77-1.14,5.69,5.69,0,0,1-.71-.07V32L10,29.49,15,32V20.51a5.69,5.69,0,0,1-.71.07A6.32,6.32,0,0,1,12.49,21.72Z"/><path class="cls-2" d="M5,15.22a7.21,7.21,0,0,0,2.27,1.53,7.16,7.16,0,0,0,5.55,0A7.13,7.13,0,0,0,16.6,13a6.81,6.81,0,0,0,.56-2.78A6.79,6.79,0,0,0,16.6,7.4a7.14,7.14,0,0,0-1.53-2.28,7.34,7.34,0,0,0-2.28-1.54A7,7,0,0,0,10,3a7,7,0,0,0-2.78.55A7.41,7.41,0,0,0,5,5.12,7.14,7.14,0,0,0,3.44,7.4a6.79,6.79,0,0,0-.56,2.77A6.81,6.81,0,0,0,3.44,13,7.21,7.21,0,0,0,5,15.22Z"/><path class="cls-3" d="M20,8.46A4.35,4.35,0,0,0,19,7.07a3.62,3.62,0,0,0-.6-.5,1.75,1.75,0,0,0,0-.24,4.34,4.34,0,0,0-1.3-3.1,4.39,4.39,0,0,0-1.4-1,4.25,4.25,0,0,0-1.71-.35c-.13,0-.25,0-.37,0a4.43,4.43,0,0,0-.55-.68,4.66,4.66,0,0,0-1.4-.94,4.35,4.35,0,0,0-3.42,0,3.87,3.87,0,0,0-.75.41,4.7,4.7,0,0,0-.65.53A5.11,5.11,0,0,0,6.36,2c-.12,0-.24,0-.37,0a4.25,4.25,0,0,0-1.71.35,4.5,4.5,0,0,0-.75.41,4.24,4.24,0,0,0-.65.54,4.52,4.52,0,0,0-.95,1.39,4.32,4.32,0,0,0-.35,1.71,3.41,3.41,0,0,0,0,.46,4.19,4.19,0,0,0-.34.28A4.49,4.49,0,0,0,.35,8.46a4.38,4.38,0,0,0,0,3.43,4.61,4.61,0,0,0,.94,1.39c.11.11.24.2.36.3h0a5.34,5.34,0,0,0-.07.71A4.32,4.32,0,0,0,1.93,16a6.79,6.79,0,0,0,.41.75,4.16,4.16,0,0,0,.54.64,4.24,4.24,0,0,0,.65.54,4.5,4.5,0,0,0,.75.41,4.27,4.27,0,0,0,.79.25h0a4.33,4.33,0,0,0,.89.09,3.68,3.68,0,0,0,.58-.06,4.62,4.62,0,0,0,.34.41c.09.09.2.16.29.24A4.77,4.77,0,0,0,8.31,20a4.35,4.35,0,0,0,3.42,0,4.51,4.51,0,0,0,1.4-.95,3.36,3.36,0,0,0,.34-.41,3.68,3.68,0,0,0,.58.06,4.63,4.63,0,0,0,.92-.1,4.27,4.27,0,0,0,.79-.25,4.5,4.5,0,0,0,.75-.41,4.24,4.24,0,0,0,.65-.54,4.34,4.34,0,0,0,1.3-3.1,3.87,3.87,0,0,0-.05-.49h0a3.8,3.8,0,0,0,.62-.52,4.24,4.24,0,0,0,.54-.65,4.83,4.83,0,0,0,.41-.74,4.38,4.38,0,0,0,0-3.43Zm-3.89,4.27a6.59,6.59,0,0,1-1.41,2.09,6.77,6.77,0,0,1-2.1,1.42,6.27,6.27,0,0,1-2.56.52,6.3,6.3,0,0,1-2.56-.52,6.77,6.77,0,0,1-2.1-1.42A6.59,6.59,0,0,1,4,12.73a6.3,6.3,0,0,1-.52-2.56A6.35,6.35,0,0,1,4,7.6,6.65,6.65,0,0,1,7.46,4.09a6.56,6.56,0,0,1,5.12,0A6.65,6.65,0,0,1,16.09,7.6a6.47,6.47,0,0,1,0,5.13Z"/></g></g></g></svg>