<svg id="ArrowUp" xmlns="http://www.w3.org/2000/svg" viewBox="0 0 32 32"><defs><style>.cls-1{fill:#0078d4;}.cls-2{fill:#c2c2c2;}</style></defs><title>Beverage-blue</title><polygon class="cls-1" points="8.85 13.96 6.74 13.96 5.56 13.96 3.44 13.96 3.44 18.23 3.44 19.37 4.32 19.37 8.85 19.37 8.85 13.96"/><path class="cls-2" d="M5.56,14V7H1.41v4.71a11.52,11.52,0,0,0,.42,3.12A11.77,11.77,0,0,0,3,17.6c.12.22.28.42.42.63V14Z"/><path class="cls-2" d="M30.62,15A4.66,4.66,0,0,0,32,11.66a4.5,4.5,0,0,0-.37-1.83,4.72,4.72,0,0,0-2.51-2.51A4.5,4.5,0,0,0,27.29,7c0,.8,0,1.59,0,2.39s0,1.59,0,2.37a20.54,20.54,0,0,1-.23,2.35,11.93,11.93,0,0,1-.58,2.3h.81A4.67,4.67,0,0,0,29.12,16,4.86,4.86,0,0,0,30.62,15Z"/><path class="cls-2" d="M1.18,24.55H27.71a1.18,1.18,0,1,0,0-2.35H18.34c.26-.13.52-.24.77-.38a11.79,11.79,0,0,0,5.41-7,11.52,11.52,0,0,0,.42-3.12V7H6.74v7H8.85v5.41H4.32c.18.2.34.41.53.61a12.18,12.18,0,0,0,2.39,1.84c.24.14.51.25.77.38H1.18a1.18,1.18,0,1,0,0,2.35Z"/></svg>