<svg id="ArrowUp" xmlns="http://www.w3.org/2000/svg" viewBox="0 0 32 32"><defs><style>.cls-1{fill:none;}.cls-2{fill:#2f2f2f;}.cls-3{fill:#0078d4;}</style></defs><title>Bike-blue</title><path class="cls-1" d="M26.65,18.2h0l0,0a.9.9,0,0,1,.18.28,1,1,0,0,1-.92,1.38h0v0H22a4.14,4.14,0,1,0,1.89-4.55l2.8,2.83Z"/><polygon class="cls-1" points="20.98 15.33 20.04 14.38 20.04 14.38 20.98 15.33 20.98 15.33"/><polygon class="cls-1" points="23.55 17.92 23.55 17.92 22.43 16.78 22.43 16.78 23.55 17.92"/><path class="cls-1" d="M7.14,19.16h0a.87.87,0,0,1-.1.24L7,19.52a1.42,1.42,0,0,1-.12.13.92.92,0,0,1-.25.17h0a1,1,0,0,1-.38.09,1,1,0,0,1-1-1h0a1,1,0,0,1,0-.23h0l1-3.87h0a4.18,4.18,0,1,0,2,.52l-1,3.86Z"/><path class="cls-2" d="M6.19,25A6.12,6.12,0,0,0,8.67,13.32l-.52,2a4.09,4.09,0,1,1-2-.52h0l.51-2-.54,0A6.13,6.13,0,0,0,6.19,25Z"/><path class="cls-2" d="M25.94,14.78a4.13,4.13,0,1,1-4,5.14H19.91a6.13,6.13,0,1,0,2.49-6l1.45,1.45A4.1,4.1,0,0,1,25.94,14.78Z"/><polygon class="cls-2" points="22.43 16.78 22.43 16.78 20.98 15.33 20.98 15.33 22.43 16.78"/><path class="cls-3" d="M26,17.91a1,1,0,0,1,.7.29l-2.8-2.82-1.44-1.46-1.52-1.53.82-1.93-2.17,0-1,2.34H12.7l-3-3.26.42-1.63L8,7.86l-1.28,5-.51,2-1,3.87h0a1,1,0,0,1,1-.76,1,1,0,0,1,1,1,1,1,0,0,1-.05.25h0l1-3.85.51-2,.4-1.52,6.42,6.9a1.49,1.49,0,0,0,0,.21,1.57,1.57,0,0,0,2.79,1H26a1,1,0,0,1,0-2Zm-9.23-.79s-2.15-2.33-2.15-2.33H17.7S16.72,17.07,16.72,17.12Zm1.83.8,1.5-3.54.94.95,1.44,1.45,1.13,1.14Z"/><path class="cls-3" d="M5.19,18.91h0a1,1,0,0,0,1,1,1,1,0,0,0,.38-.09,1,1,0,0,1-1.38-.92Z"/><path class="cls-3" d="M26.65,18.2h0l0,0Z"/><path class="cls-2" d="M5.19,18.91a1,1,0,0,1,0-.24h0a1,1,0,0,0,0,.23Z"/><path class="cls-2" d="M5.19,18.91a1,1,0,0,0,1.38.92h0a.92.92,0,0,0,.25-.17A1.42,1.42,0,0,0,7,19.52L7,19.41a.87.87,0,0,0,.1-.24.76.76,0,0,0,.06-.27,1,1,0,0,0-1-1,1,1,0,0,0-1,.77h0A1,1,0,0,0,5.19,18.91Z"/><path class="cls-2" d="M26.65,18.2h0a1,1,0,1,0,.21.32.9.9,0,0,0-.18-.28Z"/><path class="cls-2" d="M12.9,6.9a1,1,0,0,1-1,1H10.08L8,7.86l.52-2,3.36,0h0A1,1,0,0,1,12.9,6.9Z"/><path class="cls-2" d="M24.76,9.46a1,1,0,0,1-1,1h-2.1l-2.17,0H18.11v-2l5.65,0h0A1,1,0,0,1,24.76,9.46Z"/></svg>