<svg xmlns="http://www.w3.org/2000/svg" viewBox="0 0 31.97 29.51"><defs><style>.cls-1{fill:#2f2f2f;}.cls-2{fill:#939393;}.cls-3{fill:#c2c2c2;}.cls-4{fill:#d73910;}</style></defs><title>book_journal</title><g id="Layer_2" data-name="Layer 2"><g id="SYMBOLS"><path class="cls-1" d="M12.92,27.69a6.77,6.77,0,0,0-1.44-.48,7.73,7.73,0,0,0-1.64-.16H2.46V2.46H0V29.51H15.48a9.87,9.87,0,0,0-1.24-1.05A8.88,8.88,0,0,0,12.92,27.69Z"/><path class="cls-2" d="M12.37,24.91a9.78,9.78,0,0,1,2.38.95V1.77A7.44,7.44,0,0,0,12.45.45,7.79,7.79,0,0,0,9.84,0H4.92V24.59H9.84A10.32,10.32,0,0,1,12.37,24.91Z"/><path class="cls-1" d="M29.51,2.46V27.05H22.13a7.73,7.73,0,0,0-1.64.16,6.77,6.77,0,0,0-1.44.48,8,8,0,0,0-1.32.77,10.71,10.71,0,0,0-1.25,1.05H32v-27Z"/><path class="cls-3" d="M22.13,24.59h4.92V0h-5V17.18H20V.34c-.14,0-.29.06-.43.11a7.49,7.49,0,0,0-2.31,1.32V25.86a9.85,9.85,0,0,1,2.39-.95A10.26,10.26,0,0,1,22.13,24.59Z"/><path class="cls-4" d="M22.07,17.18V0A7.57,7.57,0,0,0,20,.34V17.18Z"/></g></g></svg>