<svg id="ArrowUp" xmlns="http://www.w3.org/2000/svg" viewBox="0 0 32 32"><defs><style>.cls-1{fill:#c2c2c2;}.cls-2{fill:#0078d4;}</style></defs><title>BowlFood-blue</title><path class="cls-1" d="M13.55,32h4.9c.31,0,.6,0,.9-.06H12.66C13,32,13.25,32,13.55,32Z"/><path class="cls-1" d="M7.14,16h8.5a6.21,6.21,0,0,1,.57-2,5.13,5.13,0,0,1,1.22-1.68L28.86,2.09a1.08,1.08,0,0,0,.24-.39,1.71,1.71,0,0,0,.08-.47,1.3,1.3,0,0,0-.31-.86A1,1,0,0,0,28.05,0a1.09,1.09,0,0,0-.78.36l-11,10.94a6.59,6.59,0,0,1-1.86,1.3,5.31,5.31,0,0,1-2.2.45,5.44,5.44,0,0,0-1.5.22,5.52,5.52,0,0,0-1.41.61,6.39,6.39,0,0,0-1.21.93A6.1,6.1,0,0,0,7.14,16Z"/><path class="cls-1" d="M4.18,27.82a13.35,13.35,0,0,0,2.15,1.83H25.7a13.52,13.52,0,0,0,2.11-1.82,14.64,14.64,0,0,0,1.07-1.29H3.1A14.62,14.62,0,0,0,4.18,27.82Z"/><path class="cls-1" d="M31.29,21.79A15.28,15.28,0,0,0,32,18.3H0a13.75,13.75,0,0,0,.62,3.49,15.86,15.86,0,0,0,1,2.47H30.27A15.28,15.28,0,0,0,31.29,21.79Z"/><path class="cls-2" d="M30.27,24.26H1.69c.13.25.25.51.39.76a15.5,15.5,0,0,0,1,1.52H28.88a14.1,14.1,0,0,0,1-1.51C30,24.78,30.14,24.51,30.27,24.26Z"/><path class="cls-2" d="M6.86,30A12.94,12.94,0,0,0,10,31.48a12.26,12.26,0,0,0,2.64.46h6.69A12.32,12.32,0,0,0,22,31.48,12.87,12.87,0,0,0,25.17,30c.18-.12.35-.26.53-.39H6.33C6.51,29.78,6.67,29.92,6.86,30Z"/></svg>