<svg id="ArrowUp" xmlns="http://www.w3.org/2000/svg" viewBox="0 0 32 32"><defs><style>.cls-1{fill:none;}.cls-2{fill:#c2c2c2;}.cls-3{fill:#0078d4;}.cls-4{fill:#2f2f2f;}</style></defs><title>Briefcase-blue</title><polygon class="cls-1" points="20 20.15 30 15.13 30 15.11 20 20.13 20 20.15"/><polygon class="cls-1" points="12 20.13 2 15.11 2 15.13 12 20.15 12 20.13"/><polygon class="cls-1" points="14 22 12 22 12 22.02 14 22.02 18 22.02 20 22.02 20 22 18 22 14 22"/><rect class="cls-1" x="12" y="6" width="8" height="2"/><path class="cls-2" d="M22,6a1.85,1.85,0,0,0-.16-.78,1.81,1.81,0,0,0-.43-.63,1.81,1.81,0,0,0-.63-.43A1.85,1.85,0,0,0,20,4H12a1.85,1.85,0,0,0-.78.16,1.81,1.81,0,0,0-.63.43,1.81,1.81,0,0,0-.43.63A1.85,1.85,0,0,0,10,6V8H0V28H32V8H22ZM12,6h8V8H12Zm18,9.11V26H2V15.11l10,5V16h8v4.13Z"/><rect class="cls-3" x="14" y="18" width="4" height="2"/><polygon class="cls-4" points="20 22 20 22.02 18 22.02 14 22.02 12 22.02 12 22 12 20.15 2 15.13 2 26 30 26 30 15.13 20 20.15 20 22"/><rect class="cls-4" x="2" y="26" width="28" height="0.03"/></svg>