<svg id="ArrowUp" xmlns="http://www.w3.org/2000/svg" viewBox="0 0 32 32"><defs><style>.cls-1{fill:#0078d4;}.cls-2{fill:#2f2f2f;}</style></defs><title>BroadcastPlaySound-blue</title><polygon class="cls-1" points="0.9 26 12.9 16 0.9 6 0.9 26"/><path class="cls-2" d="M18.69,11.67A11.28,11.28,0,0,0,16.23,8L14.9,9.33a9.39,9.39,0,0,1,2,3.05,9.58,9.58,0,0,1,0,7.24,9.39,9.39,0,0,1-2,3.05L16.23,24a11.36,11.36,0,0,0,2.46-12.33Z"/><path class="cls-2" d="M24.87,19.33a17,17,0,0,0,0-6.66,17.31,17.31,0,0,0-1-3.17,17,17,0,0,0-1.57-2.91A17.43,17.43,0,0,0,20.23,4L18.9,5.33a14.76,14.76,0,0,1,1.88,2.3,15.09,15.09,0,0,1,1.38,2.6A15.34,15.34,0,0,1,23,19a15.31,15.31,0,0,1-.86,2.82,15.09,15.09,0,0,1-1.38,2.6,14.76,14.76,0,0,1-1.88,2.3L20.23,28a16.86,16.86,0,0,0,2.11-2.58,17.49,17.49,0,0,0,1.57-2.92A17.31,17.31,0,0,0,24.87,19.33Z"/><path class="cls-2" d="M30.41,11.56a21.88,21.88,0,0,0-1.28-4.22,21.72,21.72,0,0,0-2.08-3.89A22.14,22.14,0,0,0,24.23,0L22.9,1.33a20.44,20.44,0,0,1,2.59,3.16,21.36,21.36,0,0,1,1.9,3.56,20,20,0,0,1,1.17,3.88,20.91,20.91,0,0,1,0,8.14A20,20,0,0,1,27.39,24a21.36,21.36,0,0,1-1.9,3.56,20.44,20.44,0,0,1-2.59,3.16L24.23,32a22.14,22.14,0,0,0,2.82-3.45,21.72,21.72,0,0,0,2.08-3.89,21.88,21.88,0,0,0,1.28-4.22,22.62,22.62,0,0,0,0-8.88Z"/></svg>