<svg xmlns="http://www.w3.org/2000/svg" xmlns:xlink="http://www.w3.org/1999/xlink" viewBox="0 0 29.95 32"><defs><style>.cls-1{fill:#d83b01;}.cls-2{fill:#2f2f2f;}</style><symbol id="Graphic_1" data-name="Graphic 1" viewBox="0 0 29.95 32"><polygon class="cls-1" points="0 26 12 16 0 6 0 26"/><path class="cls-2" d="M17.79,11.67A11.28,11.28,0,0,0,15.33,8L14,9.33a9.08,9.08,0,0,1,2,3.05,9.58,9.58,0,0,1,0,7.24,9.08,9.08,0,0,1-2,3.05L15.33,24a11.36,11.36,0,0,0,2.46-12.33Z"/><path class="cls-2" d="M24,19.33a17,17,0,0,0,0-6.66A17.31,17.31,0,0,0,23,9.5a15.73,15.73,0,0,0-1.57-2.91A16.82,16.82,0,0,0,19.33,4L18,5.33a14.21,14.21,0,0,1,1.88,2.3,15.87,15.87,0,0,1,1.39,2.6,16.09,16.09,0,0,1,.85,2.82,15.15,15.15,0,0,1,0,5.9,16.09,16.09,0,0,1-.85,2.82,15.87,15.87,0,0,1-1.39,2.6A14.21,14.21,0,0,1,18,26.67L19.33,28a16.29,16.29,0,0,0,2.11-2.58A16.14,16.14,0,0,0,23,22.5,17.31,17.31,0,0,0,24,19.33Z"/><path class="cls-2" d="M29.52,11.56a22.64,22.64,0,0,0-1.29-4.22,22.33,22.33,0,0,0-2.07-3.89A22.79,22.79,0,0,0,23.33,0L22,1.33a20.44,20.44,0,0,1,2.59,3.16,20.65,20.65,0,0,1,1.9,3.56,20,20,0,0,1,1.17,3.88,20.91,20.91,0,0,1,0,8.14A20,20,0,0,1,26.49,24a20.65,20.65,0,0,1-1.9,3.56A20.44,20.44,0,0,1,22,30.67L23.33,32a22.79,22.79,0,0,0,2.83-3.45,22.33,22.33,0,0,0,2.07-3.89,22.64,22.64,0,0,0,1.29-4.22,23.14,23.14,0,0,0,0-8.88Z"/></symbol></defs><title>broadcast</title><g id="Layer_2" data-name="Layer 2"><g id="SYMBOLS"><use id="broadcast" width="29.95" height="32" xlink:href="#Graphic_1"/></g></g></svg>