<svg id="ArrowUp" xmlns="http://www.w3.org/2000/svg" viewBox="0 0 32 32"><defs><style>.cls-1{fill:none;}.cls-2{fill:#0078d4;}.cls-3{fill:#c2c2c2;}</style></defs><title>BuildingEnterprise-blue</title><rect class="cls-1" x="13.71" y="18.29" width="4.59" height="4.59"/><rect class="cls-1" x="13.71" y="11.41" width="4.59" height="4.59"/><rect class="cls-1" x="6.82" y="11.41" width="4.59" height="4.59"/><rect class="cls-1" x="14" y="6" width="4" height="4"/><rect class="cls-1" x="13.71" y="25.18" width="4.59" height="4.59"/><rect class="cls-1" x="6.82" y="18.29" width="4.59" height="4.59"/><rect class="cls-1" x="20" y="6" width="4" height="4"/><rect class="cls-1" x="20.59" y="11.41" width="4.59" height="4.59"/><rect class="cls-2" x="20.57" y="18.28" width="4.47" height="4.58"/><path class="cls-3" d="M4.59,0V32H27.41V0Zm6.82,22.88H6.82V18.29h4.59Zm0-6.88H6.82V11.41h4.59Zm6.88,13.76H13.71V25.18h4.58Zm0-6.88H13.71V18.29h4.58Zm0-6.88H13.71V11.41h4.58Zm0-6.88H13.71V4.53h4.58ZM25,22.87H20.58V18.28H25ZM25.18,16H20.59V11.41h4.59Zm0-6.88H20.59V4.53h4.59Z"/></svg>