<svg xmlns="http://www.w3.org/2000/svg" viewBox="0 0 22.8 31.97"><defs><style>.cls-1{fill:none;}.cls-2{fill:#c2c2c2;}.cls-3{fill:#d83b01;}.cls-4{fill:#2f2f2f;}</style></defs><title>building</title><g id="Layer_2" data-name="Layer 2"><g id="SYMBOLS"><g id="building"><rect class="cls-1" x="9.11" y="18.28" width="4.58" height="4.58"/><rect class="cls-1" x="9.11" y="11.4" width="4.58" height="4.58"/><rect class="cls-1" x="2.24" y="11.4" width="4.58" height="4.58"/><rect class="cls-1" x="9.11" y="4.53" width="4.58" height="4.58"/><rect class="cls-1" x="9.11" y="25.15" width="4.58" height="4.58"/><rect class="cls-1" x="2.24" y="18.28" width="4.58" height="4.58"/><rect class="cls-1" x="15.98" y="4.53" width="4.58" height="4.58"/><rect class="cls-1" x="15.98" y="11.4" width="4.58" height="4.58"/><path class="cls-2" d="M0,0V32H22.8V0ZM2.3,4.53H6.76V9.11H2.3ZM6.82,22.86H2.24V18.28H6.82Zm0-6.88H2.24V11.4H6.82Zm6.87,13.75H9.11V25.15h4.58Zm0-6.87H9.11V18.28h4.58Zm0-6.88H9.11V11.4h4.58Zm0-6.87H9.11V4.53h4.58Zm6.74,13.73H16V18.26h4.46ZM20.57,16H16V11.4h4.59Zm0-6.87H16V4.53h4.59Z"/><rect class="cls-3" x="15.97" y="18.26" width="4.46" height="4.58"/><rect class="cls-4" x="2.3" y="4.53" width="4.46" height="4.58"/></g></g></g></svg>