<svg id="ArrowUp" xmlns="http://www.w3.org/2000/svg" viewBox="0 0 32 32"><defs><style>.cls-1{fill:none;}.cls-2{fill:#c2c2c2;}.cls-3{fill:#0078d4;}.cls-4{fill:#2f2f2f;}</style></defs><title>BuildingsEnterprise2-blue</title><rect class="cls-1" x="18.57" y="18.23" width="2.5" height="2.5"/><rect class="cls-1" x="13.57" y="13.23" width="2.5" height="2.5"/><rect class="cls-1" x="3.57" y="28.23" width="2.5" height="2.5"/><rect class="cls-1" x="3.57" y="23.23" width="2.5" height="2.5"/><rect class="cls-1" x="3.57" y="18.23" width="2.5" height="2.5"/><rect class="cls-1" x="3.57" y="8.22" width="2.5" height="2.5"/><path class="cls-2" d="M8.57,8.22h7.5V5.72h-15V32h7.5ZM6.07,30.73H3.57v-2.5h2.5Zm0-5H3.57v-2.5h2.5Zm0-5H3.57v-2.5h2.5Zm0-5H3.57v-2.5h2.5Zm0-5H3.57V8.22h2.5Z"/><path class="cls-2" d="M23.57,32V10.72H11.07V32h2.5V23.23h7.5V32Zm-5-18.77h2.5v2.5h-2.5Zm-2.5,7.5h-2.5v-2.5h2.5Zm0-5h-2.5v-2.5h2.5Zm2.5,5v-2.5h2.5v2.5Z"/><rect class="cls-3" x="16.07" y="25.73" width="2.5" height="6.27"/><polygon class="cls-2" points="31.07 32 31.07 7.5 23.57 0 23.57 8.22 26.07 8.22 26.07 32 31.07 32"/><rect class="cls-4" x="3.57" y="13.23" width="2.5" height="2.5"/><rect class="cls-4" x="13.57" y="18.23" width="2.5" height="2.5"/><rect class="cls-4" x="18.57" y="13.23" width="2.5" height="2.5"/></svg>