<svg xmlns="http://www.w3.org/2000/svg" viewBox="0 0 32 30"><defs><style>.cls-1{fill:#c2c2c2;}.cls-2{fill:#2f2f2f;}.cls-3{fill:#fff;}.cls-4{fill:#d83b01;}</style></defs><title>calendar</title><g id="Layer_2" data-name="Layer 2"><g id="SYMBOLS"><g id="calendar"><g id="_Calendar" data-name="~Calendar"><path class="cls-1" d="M24,0V2H8V0H6V2H0V30H32V2H26V0Z"/></g><rect class="cls-2" x="6" y="24" width="2" height="2"/><rect class="cls-2" x="12" y="24" width="2" height="2"/><rect class="cls-2" x="18" y="24" width="2" height="2"/><rect class="cls-3" x="6" y="20" width="2" height="2"/><rect class="cls-4" x="12" y="20" width="2" height="2"/><rect class="cls-3" x="18" y="20" width="2" height="2"/><rect class="cls-3" x="24" y="20" width="2" height="2"/><rect class="cls-3" x="6" y="16" width="2" height="2"/><rect class="cls-4" x="12" y="16" width="2" height="2"/><rect class="cls-3" x="18" y="16" width="2" height="2"/><rect class="cls-3" x="24" y="16" width="2" height="2"/><rect class="cls-2" x="12" y="12" width="2" height="2"/><rect class="cls-3" x="18" y="12" width="2" height="2"/><rect class="cls-4" x="24" y="12" width="2" height="2"/><polygon class="cls-3" points="26 6 26 4 30 4 30 8 2 8 2 4 6 4 6 6 8 6 8 4 24 4 24 6 26 6"/></g></g></g></svg>