<svg id="ArrowUp" xmlns="http://www.w3.org/2000/svg" viewBox="0 0 32 32"><defs><style>.cls-1{fill:none;}.cls-2{fill:#c2c2c2;}.cls-3{fill:#2f2f2f;}.cls-4{fill:#0078d4;}</style></defs><title>Calendar2OutlookCalendar-blue</title><polygon class="cls-1" points="26 6.78 24 6.78 24 4.78 8 4.78 8 6.78 6 6.78 6 4.78 2 4.78 2 8.78 30 8.78 30 4.78 26 4.78 26 6.78"/><path class="cls-2" d="M26,.78H24v2H8v-2H6v2H0v28H32v-28H26ZM8.12,26.7h-2v-14h2Zm6,0h-2v-14h2Zm6,0h-2v-14h2Zm6,0h-2v-14h2ZM30,4.78v4H2v-4H6v2H8v-2H24v2h2v-2Z"/><rect class="cls-3" x="18.12" y="12.7" width="2" height="14"/><rect class="cls-3" x="6.12" y="12.7" width="2" height="14"/><rect class="cls-3" x="24.12" y="12.7" width="2" height="14"/><rect class="cls-4" x="12.12" y="12.7" width="2" height="14"/></svg>