<svg id="ArrowUp" xmlns="http://www.w3.org/2000/svg" viewBox="0 0 32 32"><defs><style>.cls-1{fill:none;}.cls-2{fill:#c2c2c2;}.cls-3{fill:#2f2f2f;}.cls-4{fill:#0078d4;}</style></defs><title>CalendarOutlookCalendar-blue</title><polygon class="cls-1" points="26 6.78 24 6.78 24 4.78 8 4.78 8 6.78 6 6.78 6 4.78 2 4.78 2 8.78 30 8.78 30 4.78 26 4.78 26 6.78"/><path class="cls-2" d="M26,.78H24v2H8v-2H6v2H0v28H32v-28H26Zm-18,26H6v-2H8Zm0-4H6v-2H8Zm0-4H6v-2H8Zm6,8H12v-2h2Zm0-4H12v-2h2Zm0-4H12v-2h2Zm0-4H12v-2h2Zm6,12H18v-2h2Zm0-4H18v-2h2Zm0-4H18v-2h2Zm0-4H18v-2h2Zm6,8H24v-2h2Zm0-4H24v-2h2Zm0-4H24v-2h2Zm4-10v4H2v-4H6v2H8v-2H24v2h2v-2Z"/><rect class="cls-3" x="6" y="24.78" width="2" height="2"/><rect class="cls-3" x="12" y="24.78" width="2" height="2"/><rect class="cls-3" x="18" y="24.78" width="2" height="2"/><rect class="cls-4" x="12" y="20.78" width="2" height="2"/><rect class="cls-4" x="12" y="16.78" width="2" height="2"/><rect class="cls-3" x="12" y="12.78" width="2" height="2"/><rect class="cls-4" x="24" y="12.78" width="2" height="2"/></svg>