<svg id="ArrowUp" xmlns="http://www.w3.org/2000/svg" viewBox="0 0 32 32"><defs><style>.cls-1{fill:none;}.cls-2{fill:#c2c2c2;}.cls-3{fill:#0078d4;}.cls-4{fill:#2f2f2f;}</style></defs><title>Camera-blue</title><path class="cls-1" d="M11.41,21.36a6.37,6.37,0,0,0,2,1.37,6.28,6.28,0,0,0,5,0,6.37,6.37,0,0,0,2-1.37,6.79,6.79,0,0,0,1.37-2,6.31,6.31,0,0,0,0-5,6.34,6.34,0,0,0-.49-.89,6.08,6.08,0,0,0-.88-1.14,6.56,6.56,0,0,0-2-1.38,6.28,6.28,0,0,0-5,0,6.16,6.16,0,0,0-2.92,2.52,6.34,6.34,0,0,0-.49.89,6.31,6.31,0,0,0,0,5A6.79,6.79,0,0,0,11.41,21.36Z"/><path class="cls-2" d="M23.39,5.11,21.25,3H10.61L8.47,5.11H-.07V28.58h32V5.11ZM3.45,8.63a1,1,0,0,1,1.49,0,1,1,0,0,1,0,1.49,1,1,0,0,1-.74.32,1,1,0,0,1-.75-.32,1,1,0,0,1,0-1.49ZM23.8,13.52A8.52,8.52,0,0,1,22,22.88a8.61,8.61,0,0,1-2.71,1.84,8.73,8.73,0,0,1-6.66,0,8.61,8.61,0,0,1-2.71-1.84,8.61,8.61,0,0,1-1.83-9.36l0,0a8.18,8.18,0,0,1,1.8-2.66,8.5,8.5,0,0,1,12.08,0,8.18,8.18,0,0,1,1.8,2.66Z"/><path class="cls-3" d="M4.2,8.31A1.07,1.07,0,1,0,5,10.13,1.07,1.07,0,0,0,4.2,8.31Z"/><path class="cls-4" d="M7.4,16.84a8.46,8.46,0,0,0,.66,3.33,8.64,8.64,0,0,0,1.83,2.71,8.53,8.53,0,0,0,6,2.5,8.49,8.49,0,0,0,6-2.5,8.64,8.64,0,0,0,1.83-2.71,8.71,8.71,0,0,0,0-6.65l0,0A8.45,8.45,0,0,0,19.26,9a8.59,8.59,0,0,0-6.65,0,8.42,8.42,0,0,0-4.52,4.49l0,0A8.44,8.44,0,0,0,7.4,16.84ZM10,14.36a6.34,6.34,0,0,1,.49-.89A6.16,6.16,0,0,1,13.45,11a6.28,6.28,0,0,1,5,0,6.56,6.56,0,0,1,2,1.38,6.08,6.08,0,0,1,.88,1.14,6.34,6.34,0,0,1,.49.89,6.31,6.31,0,0,1,0,5,6.79,6.79,0,0,1-1.37,2,6.37,6.37,0,0,1-2,1.37,6.28,6.28,0,0,1-5,0,6.37,6.37,0,0,1-2-1.37,6.79,6.79,0,0,1-1.37-2,6.31,6.31,0,0,1,0-5Z"/></svg>