<svg xmlns="http://www.w3.org/2000/svg" viewBox="0 0 31.97 20.2"><defs><style>.cls-1{fill:#c2c2c2;}.cls-2{fill:#2f2f2f;}.cls-3{fill:#d83b01;}</style></defs><title>car</title><g id="Layer_2" data-name="Layer 2"><g id="SYMBOLS"><path class="cls-1" d="M31.5,9.65a6,6,0,0,0-1.28-1.91,6.16,6.16,0,0,0-1.91-1.28A5.86,5.86,0,0,0,26,6H25.4L20.28.87a2.92,2.92,0,0,0-1-.64A3,3,0,0,0,18.15,0H4V2h.45l-4,8.79A5,5,0,0,0,0,12.86V14a4,4,0,0,0,.2,1.25,5.65,5.65,0,0,1,1.67-3.38A5.85,5.85,0,0,1,3.71,10.6,5.73,5.73,0,0,1,6,10.15a5.78,5.78,0,0,1,2.29.45,6,6,0,0,1,1.84,1.26,5.85,5.85,0,0,1,1.26,1.84,5.95,5.95,0,0,1,.1,4.28h7a5.95,5.95,0,0,1,.1-4.28,5.85,5.85,0,0,1,1.26-1.84A5.79,5.79,0,0,1,21.7,10.6,5.66,5.66,0,0,1,24,10.15a5.73,5.73,0,0,1,2.28.45,6,6,0,0,1,1.85,1.26,5.82,5.82,0,0,1,1.25,1.84A5.73,5.73,0,0,1,29.82,16a5.91,5.91,0,0,1-.35,2H30a2,2,0,0,0,.78-.15,2.13,2.13,0,0,0,.63-.43,2.08,2.08,0,0,0,.43-.63A1.86,1.86,0,0,0,32,16V12A5.93,5.93,0,0,0,31.5,9.65ZM12,6H4.82L6.37,2.58a1,1,0,0,1,.38-.43A1,1,0,0,1,7.29,2H12Zm2,0V2h4.16a1,1,0,0,1,.71.29L22.56,6Z"/><path class="cls-2" d="M9,13a4.2,4.2,0,0,0-1.33-.91A4.09,4.09,0,0,0,6,11.77a4,4,0,0,0-1.64.33A4.09,4.09,0,0,0,3,13a4.2,4.2,0,0,0-.91,1.33,4.17,4.17,0,0,0,0,3.13c0,.05,0,.11,0,.16A4.2,4.2,0,0,0,3,19a4.09,4.09,0,0,0,1.33.91A4,4,0,0,0,6,20.2a4.09,4.09,0,0,0,1.65-.33A4.2,4.2,0,0,0,9,19a4,4,0,0,0,.71-1,2.91,2.91,0,0,0,.2-.35,4.39,4.39,0,0,0,0-3.29A4.2,4.2,0,0,0,9,13ZM4.15,15.2a2.27,2.27,0,0,1,.43-.63,2.13,2.13,0,0,1,.63-.43A2,2,0,0,1,6,14a2,2,0,0,1,.78.15,2.32,2.32,0,0,1,.64.43,2.27,2.27,0,0,1,.43.63,2.13,2.13,0,0,1,0,1.57,2.27,2.27,0,0,1-.43.63,2.32,2.32,0,0,1-.64.43A2,2,0,0,1,6,18a2,2,0,0,1-.78-.15,2.13,2.13,0,0,1-.63-.43,2.27,2.27,0,0,1-.43-.63,2.13,2.13,0,0,1,0-1.57Z"/><path class="cls-2" d="M27.86,14.34A4.2,4.2,0,0,0,27,13a4.09,4.09,0,0,0-1.33-.91A4,4,0,0,0,24,11.77a4.09,4.09,0,0,0-1.65.33,4.37,4.37,0,0,0-2.24,2.24,4.39,4.39,0,0,0,0,3.29,2.91,2.91,0,0,0,.2.35A4,4,0,0,0,21,19a4.2,4.2,0,0,0,1.33.91A4.09,4.09,0,0,0,24,20.2a4,4,0,0,0,1.64-.33A4.09,4.09,0,0,0,27,19a4,4,0,0,0,.71-1,2.91,2.91,0,0,0,.2-.35,4.27,4.27,0,0,0,0-3.29Zm-5.73.86a2.27,2.27,0,0,1,.43-.63,2.32,2.32,0,0,1,.64-.43A1.94,1.94,0,0,1,24,14a2,2,0,0,1,.78.15,2.13,2.13,0,0,1,.63.43,2.27,2.27,0,0,1,.43.63,2.13,2.13,0,0,1,0,1.57,2.27,2.27,0,0,1-.43.63,2.13,2.13,0,0,1-.63.43A2,2,0,0,1,24,18a1.94,1.94,0,0,1-.78-.15,2.32,2.32,0,0,1-.64-.43,2.27,2.27,0,0,1-.43-.63,2.13,2.13,0,0,1,0-1.57Z"/><path class="cls-3" d="M4.58,17.4a2.13,2.13,0,0,0,.63.43A2,2,0,0,0,6,18a2,2,0,0,0,.78-.15,2.32,2.32,0,0,0,.64-.43,2.27,2.27,0,0,0,.43-.63,2.13,2.13,0,0,0,0-1.57,2.27,2.27,0,0,0-.43-.63,2.32,2.32,0,0,0-.64-.43A2,2,0,0,0,6,14a2,2,0,0,0-.78.15,2.13,2.13,0,0,0-.63.43,2.27,2.27,0,0,0-.43.63,2.13,2.13,0,0,0,0,1.57A2.27,2.27,0,0,0,4.58,17.4Z"/><path class="cls-3" d="M22.56,17.4a2.32,2.32,0,0,0,.64.43A1.94,1.94,0,0,0,24,18a2,2,0,0,0,.78-.15,2.13,2.13,0,0,0,.63-.43,2.27,2.27,0,0,0,.43-.63,2.13,2.13,0,0,0,0-1.57,2.27,2.27,0,0,0-.43-.63,2.13,2.13,0,0,0-.63-.43A2,2,0,0,0,24,14a1.94,1.94,0,0,0-.78.15,2.32,2.32,0,0,0-.64.43,2.27,2.27,0,0,0-.43.63,2.13,2.13,0,0,0,0,1.57A2.27,2.27,0,0,0,22.56,17.4Z"/></g></g></svg>