<svg id="ArrowUp" xmlns="http://www.w3.org/2000/svg" viewBox="0 0 32 32"><defs><style>.cls-1{fill:#c2c2c2;}.cls-2{fill:#2f2f2f;}.cls-3{fill:#0078d4;}</style></defs><title>CarMobility-blue</title><path class="cls-1" d="M31.53,15.55a5.93,5.93,0,0,0-3.19-3.19A5.93,5.93,0,0,0,26,11.89h-.58L20.3,6.77a3,3,0,0,0-1-.65,3,3,0,0,0-1.15-.23H4v2h.45l-4,8.8A5,5,0,0,0,0,18.77v1.12a4.05,4.05,0,0,0,.2,1.26,5.64,5.64,0,0,1,.41-1.54,5.9,5.9,0,0,1,1.26-1.85A6.07,6.07,0,0,1,3.72,16.5,5.73,5.73,0,0,1,6,16.05a5.73,5.73,0,0,1,2.28.45,6.07,6.07,0,0,1,1.85,1.26,5.76,5.76,0,0,1,1.72,4.13,5.91,5.91,0,0,1-.35,2h7a5.78,5.78,0,0,1,1.36-6.13,6,6,0,0,1,1.85-1.26,6,6,0,0,1,4.56,0,6.07,6.07,0,0,1,1.85,1.26,5.9,5.9,0,0,1,1.26,1.85,5.95,5.95,0,0,1,.1,4.28H30a2,2,0,0,0,.78-.15,2.13,2.13,0,0,0,.63-.43,2,2,0,0,0,.43-.64,1.85,1.85,0,0,0,.16-.78v-4A5.93,5.93,0,0,0,31.53,15.55ZM12,11.89H4.83L6.38,8.47a.91.91,0,0,1,.38-.42,1.06,1.06,0,0,1,.54-.16H12Zm2,0v-4h4.17a.94.94,0,0,1,.7.3l3.71,3.7Z"/><path class="cls-2" d="M9,18.91A4.34,4.34,0,0,0,7.65,18,4.12,4.12,0,0,0,6,17.68,4.12,4.12,0,0,0,4.35,18a4.34,4.34,0,0,0-1.33.9,4.21,4.21,0,0,0-.9,1.34,4,4,0,0,0-.33,1.64,4.33,4.33,0,0,0,.27,1.49,1,1,0,0,0,.06.16,4.31,4.31,0,0,0,2.23,2.24A4.12,4.12,0,0,0,6,26.11a4.12,4.12,0,0,0,1.65-.33A4.2,4.2,0,0,0,9,24.87a4,4,0,0,0,.71-1c.07-.12.14-.23.2-.35a4.09,4.09,0,0,0,.33-1.65,4,4,0,0,0-.33-1.64A4.42,4.42,0,0,0,9,18.91Zm-4.82,2.2a1.81,1.81,0,0,1,.43-.63,2,2,0,0,1,.63-.43,2,2,0,0,1,1.56,0,2,2,0,0,1,.63.43,1.81,1.81,0,0,1,.43.63,2,2,0,0,1,0,1.56,2,2,0,0,1-.43.64,2.13,2.13,0,0,1-.63.43,2.1,2.1,0,0,1-1.56,0,2.13,2.13,0,0,1-.63-.43,2,2,0,0,1-.43-.64,2,2,0,0,1,0-1.56Z"/><path class="cls-2" d="M27.89,20.25A4.42,4.42,0,0,0,27,18.91a4.34,4.34,0,0,0-1.33-.9,4.29,4.29,0,0,0-3.3,0,4.34,4.34,0,0,0-1.33.9,4.42,4.42,0,0,0-.91,1.34,4,4,0,0,0-.33,1.64,4.09,4.09,0,0,0,.33,1.65c.06.12.13.23.2.35a4,4,0,0,0,.71,1,4.2,4.2,0,0,0,1.33.91,4.29,4.29,0,0,0,3.3,0A4.2,4.2,0,0,0,27,24.87a4,4,0,0,0,.71-1c.07-.12.14-.23.2-.35a4.26,4.26,0,0,0,.32-1.65A4.21,4.21,0,0,0,27.89,20.25Zm-5.73.86a1.81,1.81,0,0,1,.43-.63,2,2,0,0,1,.63-.43,2,2,0,0,1,1.56,0,2,2,0,0,1,.63.43,1.81,1.81,0,0,1,.43.63,2,2,0,0,1,0,1.56,2,2,0,0,1-.43.64,2.13,2.13,0,0,1-.63.43,2.1,2.1,0,0,1-1.56,0,2.13,2.13,0,0,1-.63-.43,2,2,0,0,1-.43-.64,2,2,0,0,1,0-1.56Z"/><path class="cls-3" d="M4.59,23.31a2.13,2.13,0,0,0,.63.43,2.1,2.1,0,0,0,1.56,0,2.13,2.13,0,0,0,.63-.43,2,2,0,0,0,.43-.64,2,2,0,0,0,0-1.56,1.81,1.81,0,0,0-.43-.63,2,2,0,0,0-.63-.43,2,2,0,0,0-1.56,0,2,2,0,0,0-.63.43,1.81,1.81,0,0,0-.43.63,2,2,0,0,0,0,1.56A2,2,0,0,0,4.59,23.31Z"/><path class="cls-3" d="M22.59,23.31a2.13,2.13,0,0,0,.63.43,2.1,2.1,0,0,0,1.56,0,2.13,2.13,0,0,0,.63-.43,2,2,0,0,0,.43-.64,2,2,0,0,0,0-1.56,1.81,1.81,0,0,0-.43-.63,2,2,0,0,0-.63-.43,2,2,0,0,0-1.56,0,2,2,0,0,0-.63.43,1.81,1.81,0,0,0-.43.63,2,2,0,0,0,0,1.56A2,2,0,0,0,22.59,23.31Z"/></svg>