<svg xmlns="http://www.w3.org/2000/svg" viewBox="0 0 21.31 31.97"><defs><style>.cls-1{fill:#d83b01;}.cls-2{fill:#c2c2c2;}</style></defs><title>clipboard</title><g id="Layer_2" data-name="Layer 2"><g id="SYMBOLS"><g id="clipboard"><path class="cls-1" d="M4.26,4.26H8.52c0-.41,0-.86,0-1.36a4.74,4.74,0,0,1,.16-1.39A2.31,2.31,0,0,1,9.28.43,1.9,1.9,0,0,1,10.66,0a2.27,2.27,0,0,1,1,.2,1.57,1.57,0,0,1,.63.53,2.32,2.32,0,0,1,.35.78,6.64,6.64,0,0,1,.14.91c0,.32,0,.64,0,1s0,.61,0,.89h4.26V6.39H4.26Z"/><polygon class="cls-2" points="10.66 31.97 0 31.97 0 4.26 2.13 4.26 2.13 8.53 19.18 8.53 19.18 4.26 21.31 4.26 21.31 31.97 10.66 31.97"/></g></g></g></svg>