<svg xmlns="http://www.w3.org/2000/svg" viewBox="0 0 24.75 31.97"><defs><style>.cls-1{fill:#d83b01;}.cls-2{fill:#c2c2c2;}.cls-3{fill:#939393;}</style></defs><title>clipboard_organization</title><g id="Layer_2" data-name="Layer 2"><g id="SYMBOLS"><g id="clipboard_organization"><path class="cls-1" d="M4.12,4.12H8.25c0-.39,0-.83,0-1.32a4.44,4.44,0,0,1,.16-1.34A2.24,2.24,0,0,1,9,.42,1.85,1.85,0,0,1,10.31,0a2.21,2.21,0,0,1,1,.19,1.63,1.63,0,0,1,.61.52,2.14,2.14,0,0,1,.33.75,5,5,0,0,1,.13.88,7.1,7.1,0,0,1,0,.92c0,.31,0,.6,0,.86H16.5V6.19H4.12Z"/><polygon class="cls-2" points="10.31 26.81 0 26.81 0 4.13 2.06 4.13 2.06 8.25 18.56 8.25 18.56 4.13 20.63 4.13 20.63 10.31 10.31 10.31 10.31 26.81"/><rect class="cls-3" x="12.37" y="12.37" width="12.37" height="19.59"/></g></g></g></svg>