<svg id="ArrowUp" xmlns="http://www.w3.org/2000/svg" viewBox="0 0 32 32"><defs><style>.cls-1{fill:#0078d4;}.cls-2{fill:#c2c2c2;}.cls-3{fill:#d2d2d2;}</style></defs><title>ClipboardOrganization-blue</title><path class="cls-1" d="M7.74,6.19H20.13V4.13H16c0-.27,0-.56,0-.86s0-.62,0-.92a5.16,5.16,0,0,0-.14-.89,2.14,2.14,0,0,0-.33-.75,1.56,1.56,0,0,0-.61-.52,2.2,2.2,0,0,0-1-.19A1.86,1.86,0,0,0,12.6.42a2.29,2.29,0,0,0-.59,1,4.81,4.81,0,0,0-.16,1.35c0,.48,0,.92,0,1.32H7.74Z"/><polygon class="cls-2" points="3.61 4.13 3.61 26.84 13.94 26.84 13.94 10.32 24.26 10.32 24.26 4.13 22.19 4.13 22.19 8.26 5.68 8.26 5.68 4.13 3.61 4.13"/><rect class="cls-3" x="16" y="12.39" width="12.39" height="19.61"/></svg>