<svg id="ArrowUp" xmlns="http://www.w3.org/2000/svg" viewBox="0 0 32 32"><defs><style>.cls-1{fill:#c2c2c2;}.cls-2{fill:#0078d4;}</style></defs><title>Clock-blue</title><path class="cls-1" d="M4.65,27.26a16.11,16.11,0,0,0,3.24,2.52A15.88,15.88,0,0,0,15.94,32a15.33,15.33,0,0,0,4.24-.56A15.82,15.82,0,0,0,24,29.84a16.06,16.06,0,0,0,5.77-5.73,15.88,15.88,0,0,0,2.22-8,15.33,15.33,0,0,0-.56-4.24A15.82,15.82,0,0,0,29.84,8a16.06,16.06,0,0,0-5.73-5.77,15.88,15.88,0,0,0-8-2.22,15.33,15.33,0,0,0-4.24.56A15.82,15.82,0,0,0,8,2.16,16.06,16.06,0,0,0,2.22,7.89,15.88,15.88,0,0,0,0,15.94a15.33,15.33,0,0,0,.56,4.24A15.82,15.82,0,0,0,2.16,24,16,16,0,0,0,4.65,27.26ZM13.71,4.57H16V16h6.86v2.29H13.71Z"/><polygon class="cls-2" points="22.86 16 16 16 16 4.57 13.71 4.57 13.71 18.29 22.86 18.29 22.86 16"/></svg>