<svg xmlns="http://www.w3.org/2000/svg" viewBox="0 0 31.97 31.97"><defs><style>.cls-1{fill:#c2c2c2;}.cls-2{fill:#d83b01;}</style></defs><title>clock</title><g id="Layer_2" data-name="Layer 2"><g id="SYMBOLS"><g id="_Time" data-name="~Time"><path class="cls-1" d="M16,0a15.26,15.26,0,0,0-4.23.56A15.43,15.43,0,0,0,8,2.16,16,16,0,0,0,2.22,7.88a15.88,15.88,0,0,0-2.22,8,15.28,15.28,0,0,0,.56,4.24A15.43,15.43,0,0,0,2.16,24a16.25,16.25,0,0,0,2.49,3.24,16.05,16.05,0,0,0,3.23,2.52A15.93,15.93,0,0,0,24,29.81a16.25,16.25,0,0,0,3.24-2.49,16.05,16.05,0,0,0,2.52-3.23A15.93,15.93,0,0,0,29.81,8a16,16,0,0,0-5.72-5.76A15.88,15.88,0,0,0,16,0"/></g><polygon class="cls-2" points="15.98 15.98 15.98 4.57 13.7 4.57 13.7 18.27 22.83 18.27 22.83 15.98 15.98 15.98"/></g></g></svg>