<svg xmlns="http://www.w3.org/2000/svg" viewBox="0 0 31.96 25.97"><defs><style>.cls-1{fill:#c2c2c2;}.cls-2{fill:#d83b01;}</style></defs><title>code</title><g id="Layer_2" data-name="Layer 2"><g id="SYMBOLS"><g id="code"><rect class="cls-1" width="31.96" height="25.97"/><rect class="cls-2" x="2" y="2" width="27.97" height="2"/><path d="M9.83,14.47a1.65,1.65,0,0,0,.69-.15,1.73,1.73,0,0,0,.57-.38,1.79,1.79,0,0,0,.38-.56,1.65,1.65,0,0,0,.14-.7c0-.33,0-.66,0-1a7.58,7.58,0,0,1,0-1,3.58,3.58,0,0,1,.23-.91A2.43,2.43,0,0,1,12.39,9a2.78,2.78,0,0,1,1.9-.78v.9a1.58,1.58,0,0,0-.69.14,1.75,1.75,0,0,0-.95,1,1.64,1.64,0,0,0-.14.69c0,.26,0,.52,0,.77s0,.5,0,.74a5.52,5.52,0,0,1-.06.72,2.86,2.86,0,0,1-.19.65,2.65,2.65,0,0,1-.36.6,2.61,2.61,0,0,1-.6.53,2.87,2.87,0,0,1,.6.53,2.65,2.65,0,0,1,.36.6,2.94,2.94,0,0,1,.19.66,5.51,5.51,0,0,1,.06.71q0,.36,0,.75c0,.25,0,.51,0,.77a1.64,1.64,0,0,0,.14.69,1.68,1.68,0,0,0,.38.56,1.92,1.92,0,0,0,.57.39,1.74,1.74,0,0,0,.69.14v.89a2.66,2.66,0,0,1-1.9-.78,2.3,2.3,0,0,1-.54-.81,3.69,3.69,0,0,1-.23-.91,7.8,7.8,0,0,1,0-1c0-.33,0-.66,0-1a1.64,1.64,0,0,0-.14-.69,1.73,1.73,0,0,0-.38-.57,1.9,1.9,0,0,0-.57-.38,1.81,1.81,0,0,0-.69-.14Zm8-6.25a2.59,2.59,0,0,1,1,.21,2.53,2.53,0,0,1,.87.57,2.63,2.63,0,0,1,.55.82,3.56,3.56,0,0,1,.22.91,5.08,5.08,0,0,1,0,1c0,.33,0,.66,0,1a1.82,1.82,0,0,0,.14.7,2,2,0,0,0,.39.56,1.79,1.79,0,0,0,.56.38,1.66,1.66,0,0,0,.7.15v.89a1.82,1.82,0,0,0-.7.14,2,2,0,0,0-.56.38,1.92,1.92,0,0,0-.39.57,1.81,1.81,0,0,0-.14.69c0,.33,0,.66,0,1a5.22,5.22,0,0,1,0,1,3.66,3.66,0,0,1-.22.91,2.48,2.48,0,0,1-.55.81,2.71,2.71,0,0,1-.87.58,2.76,2.76,0,0,1-1,.2v-.89a1.81,1.81,0,0,0,.69-.14,2,2,0,0,0,.56-.39,1.87,1.87,0,0,0,.39-.56,1.81,1.81,0,0,0,.14-.69c0-.26,0-.52,0-.77s0-.51,0-.75a5.51,5.51,0,0,1,.07-.71,2.94,2.94,0,0,1,.19-.66,2.65,2.65,0,0,1,.36-.6,2.8,2.8,0,0,1,.59-.53,2.55,2.55,0,0,1-.59-.53,2.65,2.65,0,0,1-.36-.6,2.86,2.86,0,0,1-.19-.65,5.49,5.49,0,0,1-.07-.72c0-.24,0-.49,0-.74s0-.51,0-.77a1.81,1.81,0,0,0-.14-.69,1.92,1.92,0,0,0-.39-.57,1.79,1.79,0,0,0-.56-.38,1.64,1.64,0,0,0-.69-.14Z"/></g></g></g></svg>