<svg id="ArrowUp" xmlns="http://www.w3.org/2000/svg" viewBox="0 0 32 32"><defs><style>.cls-1{fill:none;}.cls-2{fill:#c2c2c2;}.cls-3{fill:#d2d2d2;}.cls-4{fill:#0078d4;}.cls-5{fill:#2f2f2f;}</style></defs><title>Coffee2-blue</title><polygon class="cls-1" points="16 6.16 7.96 6.16 7.96 6.19 16 6.19 24.04 6.19 24.04 6.16 16 6.16"/><path class="cls-1" d="M9.26,30v0Z"/><path class="cls-1" d="M22.74,30v0Z"/><path class="cls-2" d="M15.15,16.33l-.1.07.2-.1Z"/><path class="cls-2" d="M16.85,16.33a2.54,2.54,0,0,0-.45-.13,2.47,2.47,0,0,1,.54.19A.47.47,0,0,1,16.85,16.33Z"/><path class="cls-2" d="M18,17.48a.86.86,0,0,1-.07-.1l.1.2Z"/><path class="cls-2" d="M14,17.48c0,.05,0,.11-.05.16a2.78,2.78,0,0,1,.25-.52A3.24,3.24,0,0,0,14,17.48Z"/><path class="cls-3" d="M23.1,23.28H8.9l.36,6.66h0V30c0,.4.19,1.94,2.72,1.94h8c2.53,0,2.72-1.54,2.72-1.94V30h0Z"/><path class="cls-2" d="M20,32H12C9.45,32,9.26,30.43,9.26,30c0,.35.11,2,2.72,2h8c2.61,0,2.73-1.63,2.72-2C22.74,30.43,22.55,32,20,32Z"/><path class="cls-2" d="M14,19.18a.86.86,0,0,1,.07.1,1.86,1.86,0,0,1-.1-.2Z"/><path class="cls-2" d="M23.1,23.28h0l-.36,6.66h0L24,6.19h0l-.42,7.58Z"/><path class="cls-2" d="M18,19.18s0-.06,0-.09a1,1,0,0,1-.08.18A.47.47,0,0,1,18,19.18Z"/><path class="cls-2" d="M16.85,20.33l.09-.06-.18.09A.32.32,0,0,1,16.85,20.33Z"/><path class="cls-2" d="M15.15,20.33l.11,0-.21-.09A.33.33,0,0,1,15.15,20.33Z"/><polygon class="cls-2" points="7.96 6.19 8.56 17.05 8.38 13.77 23.62 13.77 24.04 6.19 16 6.19 7.96 6.19"/><path class="cls-2" d="M8.9,23.28l-.34-6.23L8,6.19H8L9.26,30h0Z"/><path class="cls-4" d="M25,3.23,24.6,2a.94.94,0,0,0-.88-.66H22.09l-.2-.68A.92.92,0,0,0,21,0H11a.92.92,0,0,0-.88.65l-.2.68H8.28A.94.94,0,0,0,7.4,2L7,3.23S6.9,4,7.42,4H24.58C25.1,4,25,3.23,25,3.23Z"/><polygon class="cls-5" points="23.11 23.28 23.62 13.77 23.11 23.28 23.11 23.28"/><path class="cls-5" d="M23.1,23.28l.52-9.51H8.38l.18,3.28.34,6.23Zm-9.18-5.54,0-.1c0-.05,0-.11.05-.16a3.24,3.24,0,0,1,.2-.36h0l.09-.1a1.24,1.24,0,0,1,.18-.22l.15-.13a2.39,2.39,0,0,1,.43-.27l.1-.07.1,0h0a2,2,0,0,1,.33-.09,2.45,2.45,0,0,1,.39,0,2.58,2.58,0,0,1,.4,0,2.54,2.54,0,0,1,.45.13.47.47,0,0,0,.09.06,2.55,2.55,0,0,1,.47.31.58.58,0,0,1,.12.1l.14.16a2.26,2.26,0,0,1,.26.42.86.86,0,0,0,.07.1l0,.1s0,0,0,.06.06.2.08.3a2,2,0,0,1,0,.79,1.8,1.8,0,0,1-.1.33,0,0,0,0,1,0,0s0,.06,0,.09a.47.47,0,0,0-.06.09,2.43,2.43,0,0,1-.3.46l-.11.13a1.42,1.42,0,0,1-.13.12,2.74,2.74,0,0,1-.46.29l-.09.06a.32.32,0,0,0-.09,0h0a2,2,0,0,1-.33.09,1.75,1.75,0,0,1-.4,0,2.58,2.58,0,0,1-.39,0l-.29-.08-.06,0-.11,0a.33.33,0,0,0-.1-.06,2.75,2.75,0,0,1-.4-.26,1.3,1.3,0,0,1-.18-.15l-.14-.16a2.26,2.26,0,0,1-.26-.42.86.86,0,0,0-.07-.1l0-.1a.08.08,0,0,0,0,0,2.81,2.81,0,0,1-.08-.31,2,2,0,0,1,.05-1Z"/></svg>