<svg id="ArrowUp" xmlns="http://www.w3.org/2000/svg" viewBox="0 0 32 32"><defs><style>.cls-1{fill:#c2c2c2;}.cls-2{fill:#2f2f2f;}.cls-3{fill:#0078d4;}</style></defs><title>Coffee-blue</title><path class="cls-1" d="M3.59,0V6.86H26.2L21.05,27.43H3.59V32H31V0Zm25,28.32a2.36,2.36,0,0,1-.49.72,2.25,2.25,0,0,1-1.61.67,2.1,2.1,0,0,1-.9-.18,1.93,1.93,0,0,1-.71-.49,2.22,2.22,0,0,1-.5-.72,2.29,2.29,0,0,1,0-1.78,2,2,0,0,1,.5-.72,1.93,1.93,0,0,1,.71-.49,2.11,2.11,0,0,1,.9-.19,2.31,2.31,0,0,1,1.61.68,2.14,2.14,0,0,1,.49.72,2.29,2.29,0,0,1,0,1.78Z"/><rect class="cls-2" x="10.45" y="6.86" width="2.29" height="2.29"/><path class="cls-3" d="M25.55,25.32a2.55,2.55,0,0,0-.72.49,2.29,2.29,0,0,0-.49.73,2.29,2.29,0,0,0,0,1.78,2.29,2.29,0,0,0,.49.73,2.55,2.55,0,0,0,.72.49,2.26,2.26,0,0,0,.9.18,2.18,2.18,0,0,0,.89-.18,2.55,2.55,0,0,0,.72-.49,2.29,2.29,0,0,0,.49-.73,2.29,2.29,0,0,0,0-1.78,2.29,2.29,0,0,0-.49-.73,2.55,2.55,0,0,0-.72-.49,2.18,2.18,0,0,0-.89-.18A2.26,2.26,0,0,0,25.55,25.32Z"/><path class="cls-2" d="M.73,20A2.77,2.77,0,0,0,1,21.12a3.07,3.07,0,0,0,.59.89,2.84,2.84,0,0,0,.9.62,2.77,2.77,0,0,0,1.12.23h.24l.27,0,.65-.13-.23-.63a4.7,4.7,0,0,1-.25-1c0-.35-.08-.72-.1-1.09s0-.74,0-1.11,0-.77,0-1.15v-.58H3.59a2.77,2.77,0,0,0-1.12.23A2.88,2.88,0,0,0,1,18.88,2.77,2.77,0,0,0,.73,20Z"/><path class="cls-2" d="M8.44,24.74a5.23,5.23,0,0,0,4,0A5.2,5.2,0,0,0,15.19,22a5.14,5.14,0,0,0,.4-2V17.14H5.3V20a5,5,0,0,0,.41,2,5.09,5.09,0,0,0,1.1,1.64A5.26,5.26,0,0,0,8.44,24.74Z"/></svg>