<svg xmlns="http://www.w3.org/2000/svg" viewBox="0 0 31.97 31.97"><defs><style>.cls-1{fill:#d83b01;}.cls-2{fill:#c2c2c2;}.cls-3{fill:#2f2f2f;}</style></defs><title>collaboration</title><g id="Layer_2" data-name="Layer 2"><g id="SYMBOLS"><g id="collaboration"><g id="Artwork_40" data-name="Artwork 40"><path class="cls-1" d="M16,0a3.29,3.29,0,0,0-1.33.27A3.42,3.42,0,0,0,13.56,1a3.26,3.26,0,0,0-.73,1.09,3.31,3.31,0,0,0-.27,1.34,3.29,3.29,0,0,0,.27,1.33,3.26,3.26,0,0,0,.73,1.09,3.42,3.42,0,0,0,1.09.73,3.44,3.44,0,0,0,2.67,0,3.38,3.38,0,0,0,1.82-1.82,3.29,3.29,0,0,0,.27-1.33,3.31,3.31,0,0,0-.27-1.34A3.38,3.38,0,0,0,17.32.27,3.31,3.31,0,0,0,16,0"/></g><path class="cls-2" d="M16,32a13.74,13.74,0,0,0,7.85-2.48A5.91,5.91,0,0,1,23.09,28a5.78,5.78,0,0,1-.26-1.69,5.47,5.47,0,0,1,.46-2.21,5.69,5.69,0,0,1,1.23-1.81A5.8,5.8,0,0,1,26.33,21a5.34,5.34,0,0,1,2.21-.46l.47,0,.46.05a13.33,13.33,0,0,0,.21-2.35,13.53,13.53,0,0,0-2.29-7.61,13.78,13.78,0,0,0-6.14-5,5.88,5.88,0,0,1-.87,1.44,5.94,5.94,0,0,1-1.24,1.11,5.67,5.67,0,0,1-4.82.71,5.52,5.52,0,0,1-1.49-.71,5.7,5.7,0,0,1-1.24-1.11,5.59,5.59,0,0,1-.87-1.44,13.64,13.64,0,0,0-6.14,5,13.65,13.65,0,0,0-2.3,7.61,12.46,12.46,0,0,0,.22,2.35A5.51,5.51,0,0,1,5,20.77a5.54,5.54,0,0,1,2.12,1.15,5.92,5.92,0,0,1,1.47,1.91,5.41,5.41,0,0,1,.55,2.43A5.46,5.46,0,0,1,8.87,28a5.61,5.61,0,0,1-.74,1.54,13.57,13.57,0,0,0,3.74,1.84A13.37,13.37,0,0,0,16,32"/><path class="cls-3" d="M0,26.26A3.38,3.38,0,0,0,.27,27.6,3.54,3.54,0,0,0,1,28.69a3.59,3.59,0,0,0,1.09.73,3.56,3.56,0,0,0,2.67,0,3.59,3.59,0,0,0,1.09-.73,3.54,3.54,0,0,0,.73-1.09,3.38,3.38,0,0,0,.27-1.34,3.34,3.34,0,0,0-.27-1.34,3.54,3.54,0,0,0-.73-1.09,3.42,3.42,0,0,0-1.09-.73,3.29,3.29,0,0,0-1.33-.27,3.31,3.31,0,0,0-1.34.27A3.42,3.42,0,0,0,1,23.83a3.54,3.54,0,0,0-.73,1.09A3.34,3.34,0,0,0,0,26.26"/><path class="cls-3" d="M28.54,29.68a3.52,3.52,0,0,0,1.34-.26A3.59,3.59,0,0,0,31,28.69a3.54,3.54,0,0,0,.73-1.09A3.38,3.38,0,0,0,32,26.26a3.34,3.34,0,0,0-.27-1.34A3.54,3.54,0,0,0,31,23.83a3.42,3.42,0,0,0-1.09-.73,3.34,3.34,0,0,0-1.34-.27,3.38,3.38,0,0,0-1.34.27,3.49,3.49,0,0,0-1.08.73,3.56,3.56,0,0,0-.74,1.09,3.52,3.52,0,0,0-.26,1.34,3.34,3.34,0,0,0,1,2.43,3.67,3.67,0,0,0,1.08.73,3.55,3.55,0,0,0,1.34.26"/></g></g></g></svg>