<svg id="ArrowUp" xmlns="http://www.w3.org/2000/svg" viewBox="0 0 32 32"><defs><style>.cls-1{fill:#0078d4;}.cls-2{fill:#c2c2c2;}.cls-3{fill:#2f2f2f;}</style></defs><title>Collaboration-blue</title><g id="Artwork_40" data-name="Artwork 40"><path class="cls-1" d="M16,0a3.34,3.34,0,0,0-1.34.27,3.38,3.38,0,0,0-1.82,1.82,3.34,3.34,0,0,0-.27,1.34,3.38,3.38,0,0,0,.27,1.34,3.54,3.54,0,0,0,.73,1.09,3.42,3.42,0,0,0,1.09.73,3.46,3.46,0,0,0,2.68,0,3.42,3.42,0,0,0,1.09-.73,3.54,3.54,0,0,0,.73-1.09,3.38,3.38,0,0,0,.27-1.34,3.34,3.34,0,0,0-.27-1.34A3.38,3.38,0,0,0,17.34.27,3.34,3.34,0,0,0,16,0"/></g><path class="cls-2" d="M16,32a13.73,13.73,0,0,0,4.12-.63,13.88,13.88,0,0,0,3.74-1.85A5.82,5.82,0,0,1,23.12,28a5.36,5.36,0,0,1-.26-1.68,5.51,5.51,0,0,1,.45-2.22,6.17,6.17,0,0,1,1.23-1.81A5.85,5.85,0,0,1,26.36,21a5.34,5.34,0,0,1,2.21-.46l.47,0,.46.05a13.33,13.33,0,0,0,.21-2.35A13.65,13.65,0,0,0,24.76,7.72a13.65,13.65,0,0,0-3.49-2.09,5.64,5.64,0,0,1-.87,1.43,5.5,5.5,0,0,1-1.24,1.12,5.67,5.67,0,0,1-4.82.71,5.44,5.44,0,0,1-1.5-.71A5.5,5.5,0,0,1,11.6,7.06a5.37,5.37,0,0,1-.87-1.43,13.56,13.56,0,0,0-6.15,5,13.6,13.6,0,0,0-2.29,7.62,13.33,13.33,0,0,0,.21,2.35A5.49,5.49,0,0,1,5,20.79a5.65,5.65,0,0,1,2.13,1.15,6.07,6.07,0,0,1,1.47,1.92,5.41,5.41,0,0,1,.55,2.43A5.36,5.36,0,0,1,8.88,28a5.82,5.82,0,0,1-.74,1.55,13.88,13.88,0,0,0,3.74,1.85A13.73,13.73,0,0,0,16,32"/><path class="cls-3" d="M0,26.29a3.29,3.29,0,0,0,.27,1.33,3.44,3.44,0,0,0,1.82,1.83,3.52,3.52,0,0,0,1.34.26,3.55,3.55,0,0,0,1.34-.26,3.56,3.56,0,0,0,1.09-.74,3.42,3.42,0,0,0,.73-1.09,3.44,3.44,0,0,0,0-2.67,3.42,3.42,0,0,0-.73-1.09,3.56,3.56,0,0,0-1.09-.74,3.55,3.55,0,0,0-1.34-.26,3.52,3.52,0,0,0-1.34.26A3.44,3.44,0,0,0,.27,25,3.31,3.31,0,0,0,0,26.29"/><path class="cls-3" d="M28.57,29.71a3.52,3.52,0,0,0,1.34-.26,3.44,3.44,0,0,0,1.82-1.83,3.44,3.44,0,0,0,0-2.67,3.44,3.44,0,0,0-1.82-1.83,3.58,3.58,0,0,0-2.68,0A3.44,3.44,0,0,0,25.41,25a3.44,3.44,0,0,0,0,2.67,3.44,3.44,0,0,0,1.82,1.83,3.52,3.52,0,0,0,1.34.26"/></svg>