<svg xmlns="http://www.w3.org/2000/svg" viewBox="0 0 32 32"><defs><style>.cls-1{fill:#e6e6e6;}.cls-2{fill:#2f2f2f;}.cls-3{fill:#d83b01;}</style></defs><title>compass</title><g id="Layer_2" data-name="Layer 2"><g id="SYMBOLS"><g id="compass"><path class="cls-1" d="M26.47,18V14h1.45a12.11,12.11,0,0,0-10-10V5.42H14V4.08a12.11,12.11,0,0,0-10,10H5.4V18H4.08a12.11,12.11,0,0,0,10,10V26.49H18v1.43a12.11,12.11,0,0,0,10-10Z"/><path class="cls-2" d="M31.43,11.74A15.92,15.92,0,0,0,20.26.57a16.2,16.2,0,0,0-8.52,0A15.74,15.74,0,0,0,4.68,4.68a15.41,15.41,0,0,0-2.5,3.24A15.55,15.55,0,0,0,.57,11.74a16.2,16.2,0,0,0,0,8.52,15.55,15.55,0,0,0,1.61,3.82,15.41,15.41,0,0,0,2.5,3.24A15.95,15.95,0,0,0,16,32a15.76,15.76,0,0,0,4.26-.57A15.92,15.92,0,0,0,31.43,20.26a16.2,16.2,0,0,0,0-8.52Zm-1.6,5.33a13.7,13.7,0,0,1-2,6.21,14.07,14.07,0,0,1-4.52,4.52,14,14,0,0,1-6.21,2v-2.1H14.93v2.1a13.57,13.57,0,0,1-3.26-.66A13.44,13.44,0,0,1,8.72,27.8,14.07,14.07,0,0,1,4.2,23.28a13.92,13.92,0,0,1-1.37-3,13.57,13.57,0,0,1-.66-3.26h2.1V14.93H2.17a13.57,13.57,0,0,1,.66-3.26A13.92,13.92,0,0,1,4.2,8.72,14.07,14.07,0,0,1,8.72,4.2a13.44,13.44,0,0,1,2.95-1.37,13.57,13.57,0,0,1,3.26-.66v2.1h2.14V2.17a14,14,0,0,1,6.21,2A14.07,14.07,0,0,1,27.8,8.72a13.7,13.7,0,0,1,2,6.21h-2.1v2.14Z"/><polygon class="cls-3" points="10.77 10.77 14.26 17.74 21.23 21.23 17.74 14.26 10.77 10.77"/></g></g></g></svg>