<svg id="ArrowUp" xmlns="http://www.w3.org/2000/svg" viewBox="0 0 32 32"><defs><style>.cls-1{fill:#c2c2c2;}.cls-2{fill:#0078d4;}</style></defs><title>CompassDirection-blue</title><path class="cls-1" d="M12.45,20.46l-.69-.35-.34-.68-5-10.07L4.22,5.05A15.55,15.55,0,0,0,2.35,7.46,16.85,16.85,0,0,0,.76,10.87,15.67,15.67,0,0,0,0,14.64H2.43v2.47H0a15.85,15.85,0,0,0,.76,3.78,16.77,16.77,0,0,0,1.59,3.4,16.39,16.39,0,0,0,5.24,5.24A16.77,16.77,0,0,0,11,31.12a16.36,16.36,0,0,0,3.78.76V29.45h2.46v2.43A16.36,16.36,0,0,0,21,31.12a17.11,17.11,0,0,0,3.41-1.59,16.72,16.72,0,0,0,2.41-1.87L22.52,25.5Z"/><path class="cls-1" d="M29.57,14.64H32a15.67,15.67,0,0,0-.76-3.77,16.85,16.85,0,0,0-1.59-3.41,16.67,16.67,0,0,0-2.31-2.92,16.58,16.58,0,0,0-2.92-2.31A16.06,16.06,0,0,0,21,.64a15.37,15.37,0,0,0-3.78-.76V2.31H14.77V-.12A15.37,15.37,0,0,0,11,.64a15.76,15.76,0,0,0-3.4,1.59A16.2,16.2,0,0,0,5.17,4.09L9.48,6.25,19.55,11.3l.69.34.34.69,5,10.07,2.16,4.31a15.63,15.63,0,0,0,1.87-2.42,16.77,16.77,0,0,0,1.59-3.4A15.85,15.85,0,0,0,32,17.11H29.57Z"/><polygon class="cls-2" points="8.44 8.32 13.49 18.39 23.56 23.43 18.51 13.36 8.44 8.32"/></svg>