<svg id="ArrowUp" xmlns="http://www.w3.org/2000/svg" viewBox="0 0 32 32"><defs><style>.cls-1{fill:#2f2f2f;}.cls-2{fill:#0078d4;}.cls-3{fill:#d2d2d2;}.cls-4{fill:#2f2f2e;}</style></defs><title>Compliance-blue</title><polygon class="cls-1" points="4.26 13.06 0 13.06 0 30.77 27.73 30.77 27.73 26.16 4.26 26.16 4.26 13.06"/><rect class="cls-2" y="7.15" width="4.26" height="3.12"/><path class="cls-3" d="M30.53,7.14H6.88V23.54H32V7.14ZM18,22.11l-4.9-4.9a1.39,1.39,0,0,1,2-2L18,18.16l5.11-5.1,2.55-2.55.24-.24.2-.21a1.4,1.4,0,0,1,2,0,1.73,1.73,0,0,1,.17.21A1.4,1.4,0,0,1,28.06,12l-.32.32-.7.7Z"/><polygon class="cls-2" points="6.8 1.23 6.8 4.34 7.99 4.34 30.75 4.34 31.93 4.34 31.93 1.23 6.8 1.23"/><path class="cls-4" d="M28.23,10.27a1.73,1.73,0,0,0-.17-.21,1.4,1.4,0,0,0-2,0l-.2.21-.24.24-2.55,2.55L18,18.16l-2.93-2.92a1.39,1.39,0,0,0-2,2l4.9,4.9,9.06-9,.7-.7.32-.32A1.4,1.4,0,0,0,28.23,10.27Z"/></svg>