<svg xmlns="http://www.w3.org/2000/svg" viewBox="0 0 31.97 29.51"><defs><style>.cls-1{fill:#c2c2c2;}</style></defs><title>compare</title><g id="Layer_2" data-name="Layer 2"><g id="SYMBOLS"><path id="compare" class="cls-1" d="M32,4.92V2.46H17.21V1.23a1.23,1.23,0,1,0-2.46,0V2.46H0V4.92H3.39l-1.92,8.6H0V16a6.15,6.15,0,0,0,12.3,0V13.52H10.82L8.91,4.92h5.84V27.05H9.84v2.46H22.13V27.05H17.21V4.92h5.85l-1.91,8.6H19.67V16A6.15,6.15,0,0,0,32,16V13.52H30.5l-1.92-8.6ZM8.3,13.52H4L5.9,4.92h.49Zm19.68,0H23.66l1.92-8.6h.48Z"/></g></g></svg>