<svg id="ArrowUp" xmlns="http://www.w3.org/2000/svg" viewBox="0 0 32 32"><defs><style>.cls-1{fill:#0078d4;}.cls-2{fill:#c2c2c2;}</style></defs><title>ConnectorMerge-blue</title><path class="cls-1" d="M10.32,13.8c.39-.37.78-.72,1.18-1.05a11.88,11.88,0,0,1,1.28-.92A13.28,13.28,0,0,1,14.29,11H-.07v4H9.1Z"/><path class="cls-2" d="M31,11.73c-.29-.33-.62-.69-1-1.08s-.76-.79-1.16-1.19S28,8.68,27.61,8.3l-1.07-1c-.32-.29-.6-.52-.83-.7a1.07,1.07,0,0,0-.44-.26.78.78,0,0,0-.5.19.58.58,0,0,0-.25.48,2,2,0,0,0,.07.39q.06.3.15.69t.21.84c.08.3.16.59.23.87s.14.52.2.73.09.37.11.48H23.35c-.65,0-1.29,0-1.91.09a15.67,15.67,0,0,0-1.88.31,14.31,14.31,0,0,0-2,.66,11.43,11.43,0,0,0-2.75,1.59,29.81,29.81,0,0,0-2.31,2l-2.13,2.13a16.6,16.6,0,0,1-2.22,1.92,11.4,11.4,0,0,1-2.6,1.4,9.25,9.25,0,0,1-3.24.53H-.07v4H2.29A13.47,13.47,0,0,0,6,25.2,12.58,12.58,0,0,0,8.93,24a14.47,14.47,0,0,0,2.39-1.7c.72-.64,1.41-1.29,2.06-1.95s1.31-1.32,2-2a15.46,15.46,0,0,1,2.1-1.7,10.68,10.68,0,0,1,2.44-1.21,9.12,9.12,0,0,1,3-.46h2.59c0,.17-.11.46-.22.85L25,17.09c-.11.42-.2.82-.29,1.2a4.47,4.47,0,0,0-.12.76.5.5,0,0,0,.25.44.83.83,0,0,0,.48.17,1.07,1.07,0,0,0,.44-.26c.23-.18.51-.41.83-.7l1.07-1,1.19-1.16c.4-.4.79-.79,1.16-1.18s.71-.75,1-1.08.53-.6.7-.83a1.08,1.08,0,0,0,.27-.44,1.1,1.1,0,0,0-.27-.46C31.49,12.33,31.25,12.05,31,11.73Z"/></svg>