<svg xmlns="http://www.w3.org/2000/svg" viewBox="0 0 32 19.33"><defs><style>.cls-1{fill:#d83b01;}.cls-2{fill:#c2c2c2;}</style></defs><title>connector</title><g id="Layer_2" data-name="Layer 2"><g id="SYMBOLS"><g id="connector"><path class="cls-1" d="M14.36,4.67a15.07,15.07,0,0,0-1.51.82,15.48,15.48,0,0,0-1.28.92c-.4.33-.79.68-1.18,1.06s-.79.77-1.22,1.2H0v-4Z"/><path class="cls-2" d="M23,8.67a9.39,9.39,0,0,0-3,.46,10.68,10.68,0,0,0-2.44,1.21,14.27,14.27,0,0,0-2.1,1.71c-.65.63-1.3,1.28-2,1.95S12.11,15.32,11.39,16A14.35,14.35,0,0,1,9,17.66a13.22,13.22,0,0,1-2.94,1.21,13.87,13.87,0,0,1-3.7.46H0v-4H2.36a9,9,0,0,0,3.24-.54A11.37,11.37,0,0,0,8.2,13.4a18.18,18.18,0,0,0,2.22-1.92c.7-.72,1.41-1.43,2.13-2.14a29.81,29.81,0,0,1,2.31-2,11.43,11.43,0,0,1,2.75-1.59,13,13,0,0,1,2-.65,13.9,13.9,0,0,1,1.88-.31,17.07,17.07,0,0,1,1.91-.1h2.14c0-.1-.06-.26-.11-.47s-.13-.46-.2-.74S25.1,2.9,25,2.59s-.15-.58-.21-.84-.11-.49-.15-.69a2,2,0,0,1-.07-.39A.56.56,0,0,1,24.84.2a.75.75,0,0,1,.5-.2c.07,0,.21.09.44.27s.51.41.83.7.68.62,1.07,1l1.19,1.15c.4.4.79.8,1.16,1.19s.71.76,1,1.08.53.6.7.83a1.15,1.15,0,0,1,.27.45,1.15,1.15,0,0,1-.27.45c-.17.22-.41.5-.7.83s-.62.68-1,1.07-.76.79-1.16,1.18-.8.78-1.19,1.16l-1.07,1c-.32.29-.6.52-.83.7s-.37.27-.44.27a.9.9,0,0,1-.48-.17.51.51,0,0,1-.25-.44,4.54,4.54,0,0,1,.12-.77c.09-.37.18-.77.29-1.2l.32-1.23c.11-.39.18-.67.22-.85Z"/></g></g></g></svg>