<svg xmlns="http://www.w3.org/2000/svg" viewBox="0 0 28.41 31.97"><defs><style>.cls-1{fill:#c2c2c2;}.cls-2{fill:#2f2f2f;}</style></defs><title>contacts</title><g id="Layer_2" data-name="Layer 2"><g id="SYMBOLS"><g id="contacts"><g id="Artwork_215" data-name="Artwork 215"><path class="cls-1" d="M21.84,0H2a1.6,1.6,0,0,0-.72.18A2.22,2.22,0,0,0,.64.64a2.22,2.22,0,0,0-.46.63A1.6,1.6,0,0,0,0,2V22.36a4,4,0,0,1,2-.52l13.55.1s-4.31-4.47-1-9.14C17.55,8.43,23.18,10,23.18,10V6.79H21.84V4.9h1.34V.85H21.84Zm-6.3,23.82H2a1.85,1.85,0,0,0-.78.16,1.93,1.93,0,0,0-.63.42A2.13,2.13,0,0,0,.15,25a2,2,0,0,0-.15.78,2,2,0,0,0,.15.77,2.06,2.06,0,0,0,1.06,1.06,2,2,0,0,0,.78.15h9.35C12.43,25.45,15.54,23.82,15.54,23.82Z"/></g><path class="cls-2" d="M16,14.93a5.08,5.08,0,0,0-.41,2,5,5,0,0,0,.41,2,5.35,5.35,0,0,0,1.11,1.63,5.12,5.12,0,0,0,1.63,1.11,4.41,4.41,0,0,0,.85.27h2.3a4.41,4.41,0,0,0,.85-.27,5.26,5.26,0,0,0,2.75-2.74,4.81,4.81,0,0,0,.41-2,4.91,4.91,0,0,0-.41-2,5.17,5.17,0,0,0-2.75-2.74,4.83,4.83,0,0,0-2-.42,4.89,4.89,0,0,0-2,.42,5.26,5.26,0,0,0-1.63,1.1A5.52,5.52,0,0,0,16,14.93Z"/><path class="cls-2" d="M27.84,29.34a7.65,7.65,0,0,0-7.14-4.68,7.59,7.59,0,0,0-3.05.61,7.61,7.61,0,0,0-4.08,4.09A7.54,7.54,0,0,0,13,32H28.41A7.58,7.58,0,0,0,27.84,29.34Z"/></g></g></g></svg>