<svg xmlns="http://www.w3.org/2000/svg" viewBox="0 0 31.97 20.55"><defs><style>.cls-1{fill:#c2c2c2;}.cls-2{fill:#2f2f2f;}.cls-3{fill:#d83b01;}</style></defs><title>credit_card_2</title><g id="Layer_2" data-name="Layer 2"><g id="SYMBOLS"><path class="cls-1" d="M.57,0A.55.55,0,0,0,0,.57V11.42H6.85V9.7a2.7,2.7,0,0,1,.22-1.1A3,3,0,0,1,8.6,7.07a2.7,2.7,0,0,1,1.1-.22H25.12V.57A.58.58,0,0,0,25,.16.56.56,0,0,0,24.55,0ZM32,9.7a.55.55,0,0,0-.57-.57H9.7a.55.55,0,0,0-.57.57V20.55H32Z"/><path class="cls-2" d="M6.85,16V13.7H0v1.71a.53.53,0,0,0,.16.41A.54.54,0,0,0,.57,16Z"/><rect class="cls-3" x="2.28" y="2.28" width="4.57" height="2.28"/><path class="cls-2" d="M17.13,16a1.16,1.16,0,0,1,1.14,1.15,1.12,1.12,0,0,1-.34.8,1.12,1.12,0,0,1-1.61,0,1.12,1.12,0,0,1-.34-.8A1.16,1.16,0,0,1,17.13,16Z"/><path class="cls-2" d="M12.56,16a1.16,1.16,0,0,1,1.14,1.15,1.08,1.08,0,0,1-.34.8,1.11,1.11,0,0,1-1.6,0,1.08,1.08,0,0,1-.34-.8A1.16,1.16,0,0,1,12.56,16Z"/></g></g></svg>