<svg id="ArrowUp" xmlns="http://www.w3.org/2000/svg" viewBox="0 0 32 32"><defs><style>.cls-1{fill:#c2c2c2;}.cls-2{fill:#2f2f2f;}.cls-3{fill:#0078d4;}</style></defs><title>CreditCardPaymentBudget-blue</title><path class="cls-1" d="M.57,5.11A.55.55,0,0,0,0,5.68V16.54H6.86V14.82a2.78,2.78,0,0,1,.22-1.11,2.94,2.94,0,0,1,.62-.91,2.85,2.85,0,0,1,.91-.61A2.71,2.71,0,0,1,9.71,12H25.14V5.68A.54.54,0,0,0,25,5.27a.53.53,0,0,0-.41-.16ZM32,14.82a.55.55,0,0,0-.57-.57H9.71a.56.56,0,0,0-.41.16.6.6,0,0,0-.16.41V25.68H32Z"/><path class="cls-2" d="M6.86,21.11V18.82H0v1.72A.56.56,0,0,0,.16,21a.58.58,0,0,0,.41.16Z"/><rect class="cls-3" x="2.29" y="7.39" width="4.57" height="2.29"/><path class="cls-2" d="M17.14,21.11a1.14,1.14,0,0,1,0,2.28,1.14,1.14,0,0,1,0-2.28Z"/><path class="cls-2" d="M12.57,21.11a1.14,1.14,0,0,1,0,2.28,1.14,1.14,0,0,1,0-2.28Z"/></svg>