<svg id="ArrowUp" xmlns="http://www.w3.org/2000/svg" viewBox="0 0 32 32"><defs><style>.cls-1{fill:#c2c2c2;}.cls-2{fill:#0078d4;}.cls-3{fill:#2f2f2f;}</style></defs><title>DeveloperCodingDeveloper-blue</title><path class="cls-1" d="M0,29H32V3H0Zm8.07-9.37a3.44,3.44,0,0,0,.7,1.19,3.13,3.13,0,0,0,1.14.76,4,4,0,0,0,1.53.26,5,5,0,0,0,1.08-.11,3.54,3.54,0,0,0,.9-.28l.25,1a4.05,4.05,0,0,1-1,.31,7.41,7.41,0,0,1-1.5.13,5.27,5.27,0,0,1-1.84-.31,4.25,4.25,0,0,1-1.48-.92,4.14,4.14,0,0,1-1-1.48,5.39,5.39,0,0,1-.35-2,5.44,5.44,0,0,1,.36-2,4.5,4.5,0,0,1,1-1.56,4.67,4.67,0,0,1,1.55-1,5.3,5.3,0,0,1,2-.36,5.18,5.18,0,0,1,2.24.42l-.3,1a3.28,3.28,0,0,0-.82-.28,4.4,4.4,0,0,0-1.07-.11,4.09,4.09,0,0,0-1.51.26,3,3,0,0,0-1.15.75,3.36,3.36,0,0,0-.75,1.21,5,5,0,0,0-.26,1.65A4.84,4.84,0,0,0,8.07,19.63ZM18,21H16V19h2Zm0-4H16V15h2Zm6.34,6-4-10h1.42l4,10ZM2,5H30V7H2Z"/><rect class="cls-2" x="2" y="5" width="28" height="2"/><path class="cls-3" d="M8.84,15.2A3,3,0,0,1,10,14.45a4.09,4.09,0,0,1,1.51-.26,4.4,4.4,0,0,1,1.07.11,3.28,3.28,0,0,1,.82.28l.3-1a5.18,5.18,0,0,0-2.24-.42,5.3,5.3,0,0,0-2,.36,4.67,4.67,0,0,0-1.55,1,4.5,4.5,0,0,0-1,1.56,5.44,5.44,0,0,0-.36,2,5.39,5.39,0,0,0,.35,2,4.14,4.14,0,0,0,1,1.48,4.25,4.25,0,0,0,1.48.92,5.27,5.27,0,0,0,1.84.31,7.41,7.41,0,0,0,1.5-.13,4.05,4.05,0,0,0,1-.31l-.25-1a3.54,3.54,0,0,1-.9.28,5,5,0,0,1-1.08.11,4,4,0,0,1-1.53-.26,3.13,3.13,0,0,1-1.14-.76,3.39,3.39,0,0,1-.7-1.2,4.73,4.73,0,0,1-.24-1.56,5,5,0,0,1,.26-1.65A3.36,3.36,0,0,1,8.84,15.2Z"/><rect class="cls-3" x="16" y="15" width="2" height="2"/><rect class="cls-3" x="16" y="19" width="2" height="2"/><polygon class="cls-3" points="20.33 13 24.34 23 25.77 23 21.75 13 20.33 13"/></svg>