<svg xmlns="http://www.w3.org/2000/svg" viewBox="0 0 30.15 31.97"><defs><style>.cls-1{fill:#c2c2c2;}</style></defs><title>dislike</title><g id="Layer_2" data-name="Layer 2"><g id="SYMBOLS"><g id="dislike"><path class="cls-1" d="M2.73,2.18c0,1.25,0,2.05,1.32,2.26l0,.35A3,3,0,0,0,.77,7.9a2.36,2.36,0,0,0,1.8,2.58v.7C1.32,11.18,0,12,0,14.24a2.77,2.77,0,0,0,2.57,2.52v.58A2.44,2.44,0,0,0,.31,19.8a2.59,2.59,0,0,0,2.26,2.61H15.78l-2.16,5.11s-1.09,3.26.23,4.1A1.66,1.66,0,0,0,16,31.54L28.27,19.27c2.52-3,1.78-9.69,1.78-9.69C29.07-.15,22.8,0,22.8,0h-17C4.58,0,2.73.93,2.73,2.18Z"/></g></g></g></svg>