<svg xmlns="http://www.w3.org/2000/svg" viewBox="0 0 31.97 23.63"><defs><style>.cls-1{fill:#c2c2c2;}.cls-2{fill:#d83b01;}.cls-3{fill:#2f2f2f;}</style></defs><title>distribution</title><g id="Layer_2" data-name="Layer 2"><g id="SYMBOLS"><g id="distribution"><polygon class="cls-1" points="11.87 16.44 11.39 23.63 20.57 23.63 20.1 16.44 11.87 16.44"/><polygon class="cls-1" points="3.91 4.85 10.39 4.85 10.7 0 4.92 0 3.91 4.85"/><polygon class="cls-1" points="0 23.63 9.16 23.63 9.64 16.44 1.5 16.44 0 23.63"/><polygon class="cls-1" points="30.47 16.44 22.33 16.44 22.81 23.63 31.97 23.63 30.47 16.44"/><polygon class="cls-2" points="1.96 14.21 9.77 14.21 10.24 7.08 3.44 7.08 1.96 14.21"/><polygon class="cls-1" points="19.04 0 12.93 0 12.62 4.85 19.35 4.85 19.04 0"/><polygon class="cls-1" points="28.53 7.08 21.73 7.08 22.2 14.21 30.01 14.21 28.53 7.08"/><polygon class="cls-1" points="19.5 7.08 12.47 7.08 12 14.21 19.97 14.21 19.5 7.08"/><polygon class="cls-3" points="27.05 0 21.27 0 21.58 4.85 28.05 4.85 27.05 0"/></g></g></g></svg>