<svg id="ArrowUp" xmlns="http://www.w3.org/2000/svg" viewBox="0 0 32 32"><defs><style>.cls-1{fill:#c2c2c2;}.cls-2{fill:#0078d4;}.cls-3{fill:#2f2f2f;}</style></defs><title>DistributionMobilityQuadrants-blue</title><polygon class="cls-1" points="11.88 20.32 11.4 27.52 20.59 27.52 20.12 20.32 11.88 20.32"/><polygon class="cls-1" points="3.92 8.72 10.4 8.72 10.71 3.87 4.92 3.87 3.92 8.72"/><polygon class="cls-1" points="0 27.52 9.17 27.52 9.65 20.32 1.5 20.32 0 27.52"/><polygon class="cls-1" points="30.5 20.32 22.35 20.32 22.83 27.52 32 27.52 30.5 20.32"/><polygon class="cls-2" points="1.96 18.09 9.78 18.09 10.25 10.95 3.44 10.95 1.96 18.09"/><polygon class="cls-1" points="19.06 3.87 12.94 3.87 12.63 8.72 19.37 8.72 19.06 3.87"/><polygon class="cls-1" points="28.56 10.95 21.75 10.95 22.22 18.09 30.04 18.09 28.56 10.95"/><polygon class="cls-1" points="19.52 10.95 12.48 10.95 12.01 18.09 19.99 18.09 19.52 10.95"/><polygon class="cls-3" points="27.08 3.87 21.29 3.87 21.6 8.72 28.08 8.72 27.08 3.87"/></svg>