<svg xmlns="http://www.w3.org/2000/svg" viewBox="0 0 29.1 31.97"><defs><style>.cls-1{fill:#c2c2c2;}.cls-2{fill:#939393;}.cls-3{fill:#2f2f2f;}</style></defs><title>document_key</title><g id="Layer_2" data-name="Layer 2"><g id="SYMBOLS"><g id="document_key"><path class="cls-1" d="M19.88,22.32A7,7,0,0,1,18.2,11.84,11.49,11.49,0,0,1,21.66,9.5h-7.5L14.07,0H0V30.31H19.88Z"/><polygon class="cls-2" points="16 0.56 16 8.13 23.57 8.13 16 0.56"/><path class="cls-3" d="M25.91,21.32a7,7,0,0,0,.66-.36,4.8,4.8,0,0,0,.91-.72,5.39,5.39,0,0,0,1.22-1.83,5.61,5.61,0,0,0,0-4.16,5.39,5.39,0,0,0-1.22-1.83,5.27,5.27,0,0,0-1.83-1.21,5.62,5.62,0,0,0-2.08-.41,5.53,5.53,0,0,0-2.07.41,5.4,5.4,0,0,0-1.84,1.21,5.51,5.51,0,0,0-1.21,1.83,5.61,5.61,0,0,0,0,4.16,5.51,5.51,0,0,0,1.21,1.83,5.43,5.43,0,0,0,1.52,1.07,5.61,5.61,0,0,0,1.59.48h0l-1.56,1.57,1.56,1.56-1.56,1.56,1.56,1.57-1.56,1.56L23.57,32l2.34-2.34ZM24,15a1.25,1.25,0,0,1-.42.08,1.15,1.15,0,0,1-.41-.08,1,1,0,0,1-.37-.24,1.07,1.07,0,0,1-.24-.37,1,1,0,0,1-.08-.42,1,1,0,0,1,.08-.41,1.06,1.06,0,0,1,.61-.61,1,1,0,0,1,.41-.08A1,1,0,0,1,24,13a1,1,0,0,1,.36.24,1,1,0,0,1,.25.37,1.15,1.15,0,0,1,.08.41,1.2,1.2,0,0,1-.08.42,1.1,1.1,0,0,1-.25.37A1,1,0,0,1,24,15Z"/></g></g></g></svg>