<svg id="ArrowUp" xmlns="http://www.w3.org/2000/svg" viewBox="0 0 32 32"><defs><style>.cls-1{fill:none;}.cls-2{fill:#c2c2c2;}</style></defs><title>DoorOffice</title><path class="cls-1" d="M21.71,16a1.16,1.16,0,0,0-1.14,1.14,1.1,1.1,0,0,0,.34.81,1.12,1.12,0,0,0,.8.34,1.16,1.16,0,0,0,1.15-1.15,1.12,1.12,0,0,0-.34-.8A1.1,1.1,0,0,0,21.71,16Z"/><path class="cls-2" d="M6.86,0V32H25.14V0ZM22.52,18a1.14,1.14,0,0,1-.81.34,1.12,1.12,0,0,1-.8-.34,1.1,1.1,0,0,1-.34-.81A1.16,1.16,0,0,1,21.71,16a1.1,1.1,0,0,1,.81.34,1.12,1.12,0,0,1,.34.8A1.14,1.14,0,0,1,22.52,18Z"/></svg>