<svg id="ArrowUp" xmlns="http://www.w3.org/2000/svg" viewBox="0 0 32 32"><defs><style>.cls-1{fill:none;}.cls-2{fill:#c2c2c2;}.cls-3{fill:#0078d4;}.cls-4{fill:#2f2f2f;}</style></defs><title>DownloadScreenDownloadScreen-blue</title><rect class="cls-1" x="2.03" y="16.55" width="0.02" height="12.15"/><path class="cls-2" d="M0,14.54V30.72H32V14.54ZM12.17,28.7H2V16.55H12.17Zm6-2H14.16v-2h4.06Zm2-4H14.16v-2h6.08Zm0-4.05H14.16v-2h6.08Z"/><polygon class="cls-2" points="31.99 12.51 31.99 8.46 24.55 8.46 23.71 9.3 20.5 12.51 31.99 12.51"/><polygon class="cls-2" points="8.4 8.46 0.01 8.46 0.01 12.51 12.45 12.51 9.24 9.3 8.4 8.46"/><polygon class="cls-2" points="12.15 28.7 12.16 28.7 12.16 16.55 2.05 16.55 2.05 16.55 12.15 16.55 12.15 28.7"/><rect class="cls-3" x="14.17" y="24.65" width="4.05" height="2.02"/><rect class="cls-4" x="14.17" y="20.6" width="6.07" height="2.02"/><rect class="cls-4" x="14.17" y="16.55" width="6.07" height="2.02"/><polygon class="cls-3" points="15.27 1.28 15.27 8.46 14.98 8.46 12.52 6.02 10.83 7.7 11.59 8.46 15.63 12.51 16.47 13.35 17.31 12.51 21.36 8.46 22.12 7.7 20.43 6.02 17.97 8.46 17.67 8.75 17.67 8.46 17.67 1.28 15.27 1.28"/></svg>