<svg xmlns="http://www.w3.org/2000/svg" viewBox="0 0 31.97 29.42"><defs><style>.cls-1{fill:#c2c2c2;}.cls-2{fill:#fff;}.cls-3{fill:#d83b01;}.cls-4{fill:#2f2f2f;}</style></defs><title>download_screen</title><g id="Layer_2" data-name="Layer 2"><g id="SYMBOLS"><g id="download_screen"><path class="cls-1" d="M18.46,13.24H0V29.42H32V13.24ZM12.13,27.39H2V15.26H12.13Zm6.07-2h-4v-2h4Zm2-4H14.15v-2h6.07Zm0-4H14.15v-2h6.07Z"/><polygon class="cls-1" points="20.48 11.22 31.97 11.22 31.97 7.17 24.53 7.17 23.69 8.01 20.48 11.22"/><polygon class="cls-1" points="8.39 7.17 0 7.17 0 11.22 12.43 11.22 9.22 8.01 8.39 7.17"/><rect class="cls-2" x="2.04" y="15.26" width="10.11" height="12.13"/><rect class="cls-3" x="14.15" y="23.35" width="4.04" height="2.02"/><rect class="cls-4" x="14.15" y="19.31" width="6.07" height="2.02"/><rect class="cls-4" x="14.15" y="15.26" width="6.07" height="2.02"/><polygon class="cls-3" points="20.41 4.73 17.95 7.17 17.66 7.47 17.66 7.17 17.66 0 15.26 0 15.26 7.17 14.96 7.17 12.5 4.73 10.82 6.42 11.57 7.17 15.62 11.22 16.46 12.06 17.3 11.22 21.34 7.17 22.1 6.42 20.41 4.73"/><polygon class="cls-2" points="17.95 7.17 17.66 7.17 17.66 7.47 17.95 7.17"/></g></g></g></svg>