<svg xmlns="http://www.w3.org/2000/svg" viewBox="0 0 31.97 31.97"><defs><style>.cls-1{fill:none;}.cls-2{fill:#d83b01;}</style></defs><title>ease_of_access</title><g id="Layer_2" data-name="Layer 2"><g id="SYMBOLS"><g id="ease_of_access"><path class="cls-1" d="M15.13,23.74a5.85,5.85,0,0,1-.39-1.6h-1a6.67,6.67,0,0,0,.48,2,6.44,6.44,0,0,0,1.06,1.74l.7-.71A5.3,5.3,0,0,1,15.13,23.74Z"/><polygon class="cls-1" points="22.08 21.27 23.2 20.15 22.08 20.15 21.7 20.15 21.7 14.16 20.7 14.16 20.7 20.15 19.2 20.15 21.2 22.14 22.08 21.27"/><path class="cls-1" d="M16.69,25.86l-.71.7a6.53,6.53,0,0,0,1.74,1.07,6.83,6.83,0,0,0,2,.48v-1a6,6,0,0,1-1.6-.4A5.1,5.1,0,0,1,16.69,25.86Z"/><path class="cls-1" d="M18.1,16.58a6,6,0,0,1,1.6-.4v-1A6.61,6.61,0,0,0,16,16.72l.71.71A5.1,5.1,0,0,1,18.1,16.58Z"/><path class="cls-1" d="M15.13,19.55A5.3,5.3,0,0,1,16,18.14l-.7-.71a6.54,6.54,0,0,0-1.06,1.73,6.83,6.83,0,0,0-.48,2h1A5.77,5.77,0,0,1,15.13,19.55Z"/><path class="cls-1" d="M25.27,23.74a5.05,5.05,0,0,1-.85,1.41l.7.71a6.47,6.47,0,0,0,1.07-1.74,6.67,6.67,0,0,0,.48-2h-1A5.87,5.87,0,0,1,25.27,23.74Z"/><polygon class="cls-1" points="27.69 18.65 27.69 20.15 24.61 20.15 23.61 21.14 27.69 21.14 27.69 22.64 29.68 20.65 29.68 20.65 27.69 18.65"/><path class="cls-1" d="M22.3,26.71l-.22.08a5.89,5.89,0,0,1-1.38.32v1a7.19,7.19,0,0,0,1.38-.28c.2-.07.41-.12.6-.2a6.23,6.23,0,0,0,1.74-1.07l-.71-.7A5,5,0,0,1,22.3,26.71Z"/><path class="cls-2" d="M18.63.24A15.45,15.45,0,0,0,16,0a16,16,0,0,0,0,32,15.45,15.45,0,0,0,2.65-.24,16,16,0,0,0,0-31.49Zm-7.08,6a10.47,10.47,0,0,1,3.22-.78V7.1a9.72,9.72,0,0,0-2.6.65A8.47,8.47,0,0,0,9.88,9.13L8.72,8A10.71,10.71,0,0,1,11.55,6.26ZM5.08,15.17a10.79,10.79,0,0,1,2.5-6l1.14,1.15a8.68,8.68,0,0,0-1.38,2.3,9.64,9.64,0,0,0-.64,2.59ZM5.86,20a10.48,10.48,0,0,1-.78-3.21H6.7a9.61,9.61,0,0,0,.64,2.6,8.68,8.68,0,0,0,1.38,2.3L7.58,22.84A10.52,10.52,0,0,1,5.86,20Zm8.91,6.48a10.7,10.7,0,0,1-6-2.51l1.16-1.14a8.47,8.47,0,0,0,2.29,1.38,9.34,9.34,0,0,0,2.6.64ZM14,13.55h2.43V3.82H18v9.73h2.43l-1.81,1.82L17.2,16.79Zm5.65,12.16c-.32.13-.66.22-1,.32a11.28,11.28,0,0,1-2.24.46V24.86a9.12,9.12,0,0,0,2.24-.52c.11-.05.24-.07.36-.12a8.63,8.63,0,0,0,2.29-1.38L22.43,24A10.75,10.75,0,0,1,19.61,25.71ZM25.3,20a10.55,10.55,0,0,1-1.73,2.83l-1.14-1.15a8.43,8.43,0,0,0,1.38-2.3,9.27,9.27,0,0,0,.65-2.6h1.62A10.47,10.47,0,0,1,25.3,20Zm2.44-2.4V15.17H21.11l1.63-1.62h5V11.12L31,14.36h0Z"/></g></g></g></svg>