<svg xmlns="http://www.w3.org/2000/svg" viewBox="0 0 31.97 26.71"><defs><style>.cls-1{fill:#2f2f2f;}.cls-2{fill:#d83b01;}.cls-3{fill:#c2c2c2;}</style></defs><title>education_tutorial</title><g id="Layer_2" data-name="Layer 2"><g id="SYMBOLS"><g id="education_tutorial"><path class="cls-1" d="M16,18.23l-.89-.45L6.46,13.47a8.06,8.06,0,0,0-.3,1.29A11.6,11.6,0,0,0,6,16.34c0,.54,0,1.13,0,1.75l10,5,10-5V16.48a9.58,9.58,0,0,0-.32-2.5c0-.17-.11-.34-.16-.5l-8.61,4.3Z"/><path class="cls-2" d="M4.49,18.87A2.28,2.28,0,0,0,4,18.51a2,2,0,0,0-1-.27,2,2,0,0,0-1,.26,2.43,2.43,0,0,0-.49.37,2,2,0,0,0-.63,1.49v6.35H5.11V20.36A2,2,0,0,0,4.49,18.87Z"/><path class="cls-3" d="M16,0,0,8,2,9H2V18.5a2,2,0,0,1,1-.26,2,2,0,0,1,1,.27V10H4l3.27,1.64L16,16l8.71-4.35L32,8Z"/></g></g></g></svg>