<svg id="ArrowUp" xmlns="http://www.w3.org/2000/svg" viewBox="0 0 32 32"><defs><style>.cls-1{fill:#2f2f2f;}.cls-2{fill:#0078d4;}.cls-3{fill:#c2c2c2;}</style></defs><title>EducationTutorialStudent-blue</title><path class="cls-1" d="M26,19.13a10.1,10.1,0,0,0-.32-2.51c-.05-.17-.11-.33-.17-.5l-8.61,4.31-.9.45-.9-.45L6.42,16.11a10.07,10.07,0,0,0-.31,1.29A13.81,13.81,0,0,0,6,19c0,.54,0,1.13,0,1.75l10,5,10-5Z"/><path class="cls-2" d="M2,21.15a2.43,2.43,0,0,0-.49.37A2,2,0,0,0,.83,23v6.36H5.07V23a2,2,0,0,0-.63-1.49A2.43,2.43,0,0,0,4,21.15a2,2,0,0,0-1-.26A2,2,0,0,0,2,21.15Z"/><path class="cls-3" d="M2,11.63v9.52a2,2,0,0,1,1-.26,2,2,0,0,1,1,.26V12.63H4l3.28,1.64L16,18.63l8.72-4.36L32,10.63l-16-8-16,8,2,1Z"/></svg>