<svg xmlns="http://www.w3.org/2000/svg" viewBox="0 0 32 25.63"><defs><style>.cls-1{fill:#c2c2c2;}.cls-2{fill:#fff;}.cls-3{fill:#d83b01;}</style></defs><title>email_2</title><g id="Layer_2" data-name="Layer 2"><g id="SYMBOLS"><g id="email_2"><path class="cls-1" d="M30.25,8.77,16,15.9,1.75,8.77,0,7.9V25.63H32V7.9Z"/><polygon class="cls-2" points="31.99 7.89 31.99 7.9 32 7.89 31.99 7.89"/><rect x="31.99" y="7.89" width="0.01"/><polygon class="cls-2" points="0 7.89 0.01 7.9 0.01 7.89 0 7.89"/><polygon points="0.01 7.89 0 7.89 0.01 7.9 0.01 7.89 0.01 7.89"/><polygon class="cls-1" points="16 13.66 30.25 6.52 31.99 5.65 31.99 5.65 23.79 5.65 23.84 5.7 22.42 7.11 17.41 12.12 16 13.54 14.59 12.12 9.58 7.11 8.16 5.7 8.21 5.65 0.01 5.65 0.01 5.65 1.75 6.52 16 13.66"/><polygon class="cls-3" points="20.96 5.65 19.51 4.2 18.06 5.65 17.07 6.63 17.07 5.65 17.07 0 14.94 0 14.94 5.65 14.94 6.63 13.94 5.65 12.49 4.2 11.04 5.65 10.99 5.7 16 10.71 21.01 5.7 20.96 5.65"/></g></g></g></svg>