<svg id="ArrowUp" xmlns="http://www.w3.org/2000/svg" viewBox="0 0 32 32"><defs><style>.cls-1{fill:#2f2f2f;}.cls-2{fill:#0078d4;}</style></defs><title>Extinguisher-blue</title><polygon class="cls-1" points="15.5 3.85 26.52 5.47 26.52 -0.16 15.5 1.84 15.5 3.85"/><path class="cls-1" d="M14.5,5.77v-4h-2V5.77a5.47,5.47,0,0,1,1-.09A5.55,5.55,0,0,1,14.5,5.77Z"/><path class="cls-2" d="M14.5,5.76a6.63,6.63,0,0,0-1-.08,6.77,6.77,0,0,0-1,.08A6.5,6.5,0,0,0,7,12.19V31.84H20V12.19A6.51,6.51,0,0,0,14.5,5.76Zm3,17.14h-8v-8h8Z"/></svg>