<svg xmlns="http://www.w3.org/2000/svg" xmlns:xlink="http://www.w3.org/1999/xlink" viewBox="0 0 31.97 17.98"><defs><style>.cls-1{fill:#2f2f2f;}.cls-2{fill:#d83b01;}</style><symbol id="Glasses" data-name="Glasses" viewBox="0 0 30 16.88"><path class="cls-1" d="M26,5.62H18.75a3,3,0,0,0-1,.14,3.44,3.44,0,0,0-.72.35,3.15,3.15,0,0,0-.56.45L16,7a2.94,2.94,0,0,1-.47.34A1.16,1.16,0,0,1,15,7.5a1.19,1.19,0,0,1-.56-.14A2.94,2.94,0,0,1,14,7l-.48-.46a3.15,3.15,0,0,0-.56-.45,3.44,3.44,0,0,0-.72-.35,3,3,0,0,0-1-.14H0V7.5a.9.9,0,0,1,.66.28.87.87,0,0,1,.28.66v1.87a6.3,6.3,0,0,0,.52,2.56A6.63,6.63,0,0,0,2.86,15a7,7,0,0,0,2.08,1.41,6.56,6.56,0,0,0,5.12,0A6.83,6.83,0,0,0,12.14,15a6.63,6.63,0,0,0,1.4-2.08,6.3,6.3,0,0,0,.52-2.56.94.94,0,0,1,.28-.66.94.94,0,0,1,1.32,0,.9.9,0,0,1,.28.66,6.3,6.3,0,0,0,.52,2.56A6.63,6.63,0,0,0,17.86,15a7,7,0,0,0,2.08,1.41,6.56,6.56,0,0,0,5.12,0A6.83,6.83,0,0,0,27.14,15a6.63,6.63,0,0,0,1.4-2.08,6.3,6.3,0,0,0,.52-2.56V8.44A1,1,0,0,1,30,7.5V5.62ZM12.19,10.31a4.72,4.72,0,0,1-1.39,3.32,4.55,4.55,0,0,1-1.48,1A4.45,4.45,0,0,1,7.5,15a4.49,4.49,0,0,1-1.82-.37,4.62,4.62,0,0,1-2.5-2.49,4.54,4.54,0,0,1-.37-1.83V8.44a1,1,0,0,1,.94-.94h6.56a1.8,1.8,0,0,1,.73.15,1.75,1.75,0,0,1,.6.4,1.91,1.91,0,0,1,.4.6,1.8,1.8,0,0,1,.15.73Zm15-2.14a5.79,5.79,0,0,0,0,.72c0,.25,0,.49,0,.73s0,.48,0,.69a4.54,4.54,0,0,1-.38,1.83,4.68,4.68,0,0,1-1,1.49,4.55,4.55,0,0,1-1.48,1,4.66,4.66,0,0,1-3.64,0,4.62,4.62,0,0,1-2.5-2.49,4.54,4.54,0,0,1-.37-1.83V9.38A1.8,1.8,0,0,1,18,8.65a1.91,1.91,0,0,1,.4-.6,1.75,1.75,0,0,1,.6-.4,1.8,1.8,0,0,1,.73-.15h7.66A2.43,2.43,0,0,0,27.2,8.17Z"/><path class="cls-2" d="M11.06,2.08c.17.17.33.33.51.49a.86.86,0,0,0,.62.24.9.9,0,0,0,.66-.28.89.89,0,0,0,.27-.65A.87.87,0,0,0,13,1.42,1.8,1.8,0,0,0,12.67,1a4.89,4.89,0,0,0-.4-.39L11.91.28A.9.9,0,0,0,11.25,0a.82.82,0,0,0-.42.1L0,5.51v.11H4Z"/><path class="cls-2" d="M19.17.1a.82.82,0,0,0-.42-.1.9.9,0,0,0-.66.28l-.36.33a4.89,4.89,0,0,0-.4.39,2.12,2.12,0,0,0-.32.42.87.87,0,0,0-.13.46.89.89,0,0,0,.27.65.93.93,0,0,0,1.29,0l.5-.49L26,5.62h4V5.51Z"/></symbol></defs><title>eyeglasses</title><g id="Layer_2" data-name="Layer 2"><g id="SYMBOLS"><use id="eyeglasses" width="30" height="16.88" transform="scale(1.07)" xlink:href="#Glasses"/></g></g></svg>