<svg id="ArrowUp" xmlns="http://www.w3.org/2000/svg" viewBox="0 0 32 32"><defs><style>.cls-1{fill:none;}.cls-2{fill:#2f2f2f;}.cls-3{fill:#0078d4;}</style></defs><title>EyeglassesGlasses-blue</title><path class="cls-1" d="M3.3,15.28A1,1,0,0,0,3,16v2a4.91,4.91,0,0,0,.39,1.94,5,5,0,0,0,1.07,1.59A5,5,0,0,0,8,23a5,5,0,0,0,4.6-3.05A4.75,4.75,0,0,0,13,18V17a2,2,0,0,0-.59-1.41,1.9,1.9,0,0,0-.64-.43A2,2,0,0,0,11,15H4A.94.94,0,0,0,3.3,15.28Z"/><path class="cls-1" d="M20.46,21.52A5,5,0,0,0,24,23a4.93,4.93,0,0,0,3.52-1.46,5,5,0,0,0,1.08-1.59A4.75,4.75,0,0,0,29,18c0-.23,0-.48,0-.74s0-.52,0-.78a6.51,6.51,0,0,1,0-.77,2.71,2.71,0,0,1,.16-.72H21a2,2,0,0,0-.77.16,1.9,1.9,0,0,0-.64.43A2,2,0,0,0,19,17v1a4.91,4.91,0,0,0,.39,1.94A5,5,0,0,0,20.46,21.52Z"/><path class="cls-2" d="M0,13v2a.94.94,0,0,1,.7.3A1,1,0,0,1,1,16v2a6.76,6.76,0,0,0,.56,2.72,6.94,6.94,0,0,0,1.49,2.22,7.25,7.25,0,0,0,2.22,1.5A6.76,6.76,0,0,0,8,25a6.76,6.76,0,0,0,2.73-.55A7.25,7.25,0,0,0,13,22.93a6.94,6.94,0,0,0,1.49-2.22A6.76,6.76,0,0,0,15,18a1,1,0,0,1,.3-.71,1,1,0,0,1,1.4,0A1,1,0,0,1,17,18a6.92,6.92,0,0,0,.55,2.72,7,7,0,0,0,3.72,3.72,7.05,7.05,0,0,0,5.46,0,7,7,0,0,0,3.72-3.72A6.92,6.92,0,0,0,31,18V16a1,1,0,0,1,.3-.71A.94.94,0,0,1,32,15V13H20a3,3,0,0,0-1,.15,3.43,3.43,0,0,0-.77.37,4.85,4.85,0,0,0-.6.48l-.51.49a3,3,0,0,1-.51.37,1.31,1.31,0,0,1-1.18,0,3,3,0,0,1-.51-.37L14.39,14a4.85,4.85,0,0,0-.6-.48,3.43,3.43,0,0,0-.77-.37A3,3,0,0,0,12,13H0Zm19,4a2,2,0,0,1,.59-1.41,1.9,1.9,0,0,1,.64-.43A2,2,0,0,1,21,15h8.17a2.71,2.71,0,0,0-.16.72,6.51,6.51,0,0,0,0,.77c0,.26,0,.52,0,.78s0,.51,0,.74a4.75,4.75,0,0,1-.4,1.94,5,5,0,0,1-1.08,1.59,5,5,0,0,1-7.06,0,5,5,0,0,1-1.07-1.59A4.91,4.91,0,0,1,19,18Zm-8-2a2,2,0,0,1,.77.16,1.9,1.9,0,0,1,.64.43A2,2,0,0,1,13,17v1a4.75,4.75,0,0,1-.4,1.94A5,5,0,0,1,8,23a5,5,0,0,1-3.54-1.46,5,5,0,0,1-1.07-1.59A4.91,4.91,0,0,1,3,18V16a1,1,0,0,1,.3-.71A.94.94,0,0,1,4,15Z"/><path class="cls-3" d="M11.8,9.2c.17.18.35.36.54.53a1,1,0,0,0,1.36,0A1,1,0,0,0,14,9a1,1,0,0,0-.14-.48,2.42,2.42,0,0,0-.34-.45,5.66,5.66,0,0,0-.43-.42,4.92,4.92,0,0,1-.39-.35,1,1,0,0,0-1.15-.19L0,12.86V13H4.24Z"/><path class="cls-3" d="M32,12.86,20.45,7.09a1,1,0,0,0-1.15.19c-.11.11-.24.22-.39.35a5.66,5.66,0,0,0-.43.42,2.42,2.42,0,0,0-.34.45A1,1,0,0,0,18,9a1,1,0,0,0,.3.71A.93.93,0,0,0,19,10a1,1,0,0,0,.67-.25c.18-.17.36-.35.53-.53L27.76,13H32Z"/></svg>