<svg id="ArrowUp" xmlns="http://www.w3.org/2000/svg" viewBox="0 0 32 32"><defs><style>.cls-1{fill:#0078d4;}</style></defs><title>FavoriteHeartLove-blue</title><path class="cls-1" d="M2.48,16.62,16,30.12l13.52-13.5a8.38,8.38,0,0,0,1.83-2.75A8.48,8.48,0,0,0,32,10.6a8.42,8.42,0,0,0-2.48-6,8.67,8.67,0,0,0-2.71-1.82,8.65,8.65,0,0,0-5.62-.38,8,8,0,0,0-1.89.82,10.17,10.17,0,0,0-1.65,1.26c-.53.49-1.08,1-1.65,1.61C15.43,5.5,14.88,5,14.35,4.48A10.17,10.17,0,0,0,12.7,3.22a8,8,0,0,0-1.89-.82A8.14,8.14,0,0,0,8.5,2.1a8.17,8.17,0,0,0-3.31.68A8.67,8.67,0,0,0,2.48,4.6a8.53,8.53,0,0,0,0,12Z"/></svg>