<svg xmlns="http://www.w3.org/2000/svg" viewBox="0 0 31.97 27.99"><defs><style>.cls-1{fill:#d73910;}</style></defs><title>favorite</title><g id="Layer_2" data-name="Layer 2"><g id="SYMBOLS"><g id="favorite"><path class="cls-1" d="M23.48,0a8.2,8.2,0,0,1,3.31.67,8.68,8.68,0,0,1,2.7,1.82,8.38,8.38,0,0,1,1.81,2.7A8.22,8.22,0,0,1,32,8.49a8.54,8.54,0,0,1-2.48,6L16,28,2.48,14.5A8.54,8.54,0,0,1,0,8.49a8.38,8.38,0,0,1,.66-3.3,8.57,8.57,0,0,1,1.82-2.7A8.68,8.68,0,0,1,5.18.67,8.2,8.2,0,0,1,8.49,0,8.14,8.14,0,0,1,10.8.3a7.39,7.39,0,0,1,1.88.82,9.63,9.63,0,0,1,1.66,1.25c.52.49,1.07,1,1.64,1.61.58-.58,1.12-1.12,1.65-1.61a9.63,9.63,0,0,1,1.66-1.25A7.39,7.39,0,0,1,21.17.3,8.09,8.09,0,0,1,23.48,0Z"/></g></g></g></svg>