<svg id="ArrowUp" xmlns="http://www.w3.org/2000/svg" viewBox="0 0 32 32"><defs><style>.cls-1{fill:#c2c2c2;}.cls-2{fill:#0078d4;}</style></defs><title>FocusFocusPoint-blue</title><path class="cls-1" d="M7.39,11.54,3,16l4.44,4.46L5.93,21.92,0,16l5.93-5.92ZM20.46,24.61l1.46,1.46L16,32l-5.92-5.93,1.46-1.46L16,29.05ZM32,16l-5.93,5.92-1.46-1.46L29.05,16l-4.44-4.46,1.46-1.46ZM11.54,7.39,10.08,5.93,16,0l5.92,5.93L20.46,7.39,16,3Z"/><path class="cls-2" d="M16,20.15a4.13,4.13,0,0,0,1.61-.32,4.3,4.3,0,0,0,2.22-2.22,4.21,4.21,0,0,0,0-3.22,4.3,4.3,0,0,0-2.22-2.22,4.21,4.21,0,0,0-3.22,0,4.3,4.3,0,0,0-2.22,2.22,4.21,4.21,0,0,0,0,3.22,4.3,4.3,0,0,0,2.22,2.22A4.13,4.13,0,0,0,16,20.15Z"/></svg>