<svg id="ArrowUp" xmlns="http://www.w3.org/2000/svg" viewBox="0 0 32 32"><defs><style>.cls-1{fill:#0078d4;}.cls-2{fill:#2f2f2f;}.cls-3{fill:#c2c2c2;}.cls-4{fill:#d2d2d2;}</style></defs><title>FoodFruit-blue</title><path class="cls-1" d="M30.25,15.25a3.7,3.7,0,0,0,.33-.95,4.87,4.87,0,0,0,.1-1,4.47,4.47,0,0,0-.34-1.75,4.59,4.59,0,0,0-1-1.45,4.47,4.47,0,0,0-3.21-1.37,4,4,0,0,0-1.74.39,4.42,4.42,0,0,0-1.39,1,4.68,4.68,0,0,0-.93,1.49,4.77,4.77,0,0,0-.33,1.75,4.58,4.58,0,0,0,.39,1.87Z"/><path class="cls-2" d="M2.15,22A12.69,12.69,0,0,0,3.8,23.76a10.09,10.09,0,0,0,2,1.37,25.66,25.66,0,0,0,5,2.06,18.94,18.94,0,0,0,5.32.74,20.71,20.71,0,0,0,3.85-.37,19.07,19.07,0,0,0,3.84-1.15,18.39,18.39,0,0,0,3.48-1.91A12.34,12.34,0,0,0,30,21.79a12.08,12.08,0,0,0,1.18-2A10.25,10.25,0,0,0,32,17.64H0A12.19,12.19,0,0,0,.86,19.9,11.58,11.58,0,0,0,2.15,22Z"/><path class="cls-3" d="M4.7,15.27H9.19L5.15,10,7,8.6l5.15,6.67H16a13.92,13.92,0,0,0-2.17-4.34,14.4,14.4,0,0,0-3.49-3.34c-.32-.21-.65-.41-1-.61a6.69,6.69,0,0,0-1-.5v0a12.68,12.68,0,0,0-1.58-.59c-.57-.17-1.14-.32-1.73-.45s-1.17-.23-1.75-.31S2,5,1.52,4.92a25.9,25.9,0,0,0,1.09,5.32A32,32,0,0,0,4.7,15.27Z"/><path class="cls-4" d="M21.71,8.12a13,13,0,0,0-1.18-1.38,8.15,8.15,0,0,0-1.37-1.13,6.47,6.47,0,0,0-1.59-.76,5.94,5.94,0,0,0-1.8-.27,6,6,0,0,0-1,.08,8.32,8.32,0,0,0-1.08.23,7.06,7.06,0,0,0-1,.35,6,6,0,0,0-.91.47,16.86,16.86,0,0,1,4.21,4.17,16.82,16.82,0,0,1,2.46,5.39h1.28a7.45,7.45,0,0,1-.25-1.89A7.29,7.29,0,0,1,20,10.51,6.75,6.75,0,0,1,21.71,8.12Z"/></svg>