<svg id="ArrowUp" xmlns="http://www.w3.org/2000/svg" viewBox="0 0 32 32"><defs><style>.cls-1{fill:none;}.cls-2{fill:#0078d4;}.cls-3{fill:#c2c2c2;}.cls-4{fill:#2f2f2f;}</style></defs><title>Forklift-blue</title><circle class="cls-1" cx="5.8" cy="26.74" r="1.59"/><circle class="cls-1" cx="16.42" cy="26.74" r="1.59"/><path class="cls-1" d="M13.72,10.34c0-.13-.11-.33-.19-.6l-.28-.82a8.32,8.32,0,0,0-.3-.8,3.86,3.86,0,0,0-.25-.55,3.75,3.75,0,0,0-1.2-1.21,3.11,3.11,0,0,0-1.64-.43H2.19V12.5H8.76v4.38H16c-.38-1.1-.75-2.19-1.13-3.27Z"/><rect class="cls-2" x="23.83" y="3.74" width="4.38" height="4.38"/><path class="cls-3" d="M21.9,1.55H19.71V16.88h-1.4c-.26-.75-.52-1.5-.77-2.25s-.51-1.5-.77-2.25-.46-1.34-.7-2l-.72-2c-.11-.31-.23-.63-.33-1a4.17,4.17,0,0,0-.42-.93,5.8,5.8,0,0,0-2-2,5.22,5.22,0,0,0-2.73-.73H2.19a2.06,2.06,0,0,0-.86.17,2.17,2.17,0,0,0-.69.47,2.34,2.34,0,0,0-.47.69A2.2,2.2,0,0,0,0,5.93V25.64a2.18,2.18,0,0,0,.19.93,1.94,1.94,0,0,0,.51.69,2.8,2.8,0,0,0,.4.27A5.16,5.16,0,0,1,1,26.74a4.78,4.78,0,0,1,9.56,0,4.4,4.4,0,0,1-.14,1.09h1.34a4.93,4.93,0,0,1-.14-1.09,4.78,4.78,0,0,1,9.56,0,5.29,5.29,0,0,1-.05.56.1.1,0,0,1,.05,0,2.1,2.1,0,0,0,.52-.69,2.34,2.34,0,0,0,.18-.93H32V23.45H21.9ZM8.76,16.88V12.5H2.19V5.93H9.86a3.11,3.11,0,0,1,1.64.43,3.75,3.75,0,0,1,1.2,1.21,3.86,3.86,0,0,1,.25.55,8.32,8.32,0,0,1,.3.8l.28.82c.08.27.15.47.19.6l1.15,3.27c.38,1.08.75,2.17,1.13,3.27Z"/><rect class="cls-2" x="23.83" y="10.31" width="4.38" height="4.38"/><polygon class="cls-2" points="23.83 21.26 28.21 21.26 31.73 21.26 31.73 16.88 23.83 16.88 23.83 21.26"/><path class="cls-4" d="M5.8,23a3.71,3.71,0,0,0-3.71,3.72,3.49,3.49,0,0,0,.18,1.08,3.69,3.69,0,0,0,7.07,0,4,4,0,0,0,.18-1.09A3.71,3.71,0,0,0,5.8,23Zm0,5.31a1.6,1.6,0,0,1,0-3.19,1.6,1.6,0,1,1,0,3.19Z"/><path class="cls-4" d="M16.42,23a3.71,3.71,0,0,0-3.71,3.72,3.61,3.61,0,0,0,.18,1.09,3.7,3.7,0,0,0,7.08,0A3.67,3.67,0,0,0,16.42,23Zm0,5.31a1.6,1.6,0,0,1,0-3.19,1.6,1.6,0,1,1,0,3.19Z"/></svg>