<svg id="ArrowUp" xmlns="http://www.w3.org/2000/svg" viewBox="0 0 32 32"><defs><style>.cls-1{fill:#c2c2c2;}.cls-2{fill:#0078d4;}</style></defs><title>Frame-blue</title><path class="cls-1" d="M0,4.57V27.43H32V4.57Z"/><polygon class="cls-2" points="4.72 18.1 2.44 18.1 2.44 24.95 9.3 24.95 9.3 22.67 4.72 22.67 4.72 18.1"/><polygon class="cls-2" points="27.58 22.67 23.01 22.67 23.01 24.95 29.87 24.95 29.87 18.1 27.58 18.1 27.58 22.67"/><polygon class="cls-2" points="2.44 13.53 4.72 13.53 4.72 8.96 9.3 8.96 9.3 6.67 2.44 6.67 2.44 13.53"/><polygon class="cls-2" points="23.01 8.96 27.58 8.96 27.58 13.53 29.87 13.53 29.87 6.67 23.01 6.67 23.01 8.96"/></svg>