<svg xmlns="http://www.w3.org/2000/svg" viewBox="0 0 30.14 31.97"><defs><style>.cls-1{fill:#c2c2c2;}.cls-2{fill:#d83b01;}</style></defs><title>get_started</title><g id="Layer_2" data-name="Layer 2"><g id="SYMBOLS"><g id="get_started"><path class="cls-1" d="M28.39,11.41a1.74,1.74,0,0,0-1.74,1.74v3.18H25.53V10.64a1.75,1.75,0,0,0-3.5,0v5.69H20.91V10.64a1.75,1.75,0,1,0-3.49,0v5.69H16.28V4.05A1.75,1.75,0,0,0,14.53,2.3a1.73,1.73,0,0,0-1.72,1.75V16.33h0v4.53l-4-1.67s-2.52-.85-3.17.18A1.25,1.25,0,0,0,5.75,21l9.49,9.48c2.32,1.95,7.5,1.38,7.5,1.38,7.52-.76,7.4-5.61,7.4-5.61V13.15A1.74,1.74,0,0,0,28.39,11.41Z"/><polygon class="cls-2" points="6.54 2.45 5.55 2.45 4.2 2.46 4.87 3.13 6.39 4.65 10.48 8.74 8.74 10.48 4.65 6.39 3.13 4.87 2.46 4.2 2.45 5.55 2.44 8.18 0 8.18 0 8 0 0 4.09 0 8 0 8.18 0 8.18 2.44 6.54 2.45 6.54 2.45"/></g></g></g></svg>