<svg id="ArrowUp" xmlns="http://www.w3.org/2000/svg" viewBox="0 0 32 32"><defs><style>.cls-1{fill:#0078d4;}.cls-2{fill:#c2c2c2;}</style></defs><title>Gift-blue</title><path class="cls-1" d="M22.15,1.23a4.73,4.73,0,0,0-1.91.39,4.85,4.85,0,0,0-2.62,2.62,4.73,4.73,0,0,0-.39,1.91h4.92a2.37,2.37,0,0,0,1.74-.72,2.35,2.35,0,0,0,.53-.78,2.32,2.32,0,0,0,.2-1,2.39,2.39,0,0,0-.2-1,2.54,2.54,0,0,0-1.3-1.31A2.4,2.4,0,0,0,22.15,1.23Z"/><path class="cls-1" d="M8.88,6a2.4,2.4,0,0,0,1,.19h4.92a4.73,4.73,0,0,0-.39-1.91,4.85,4.85,0,0,0-2.62-2.62,4.73,4.73,0,0,0-1.91-.39,2.4,2.4,0,0,0-1,.19,2.54,2.54,0,0,0-1.3,1.31,2.39,2.39,0,0,0-.2,1,2.32,2.32,0,0,0,.2,1,2.35,2.35,0,0,0,.53.78A2.41,2.41,0,0,0,8.88,6Z"/><rect class="cls-2" y="20.92" width="14.77" height="9.85"/><polygon class="cls-2" points="0 12.31 0 18.46 14.77 18.46 14.77 8.62 0 8.62 0 12.31"/><rect class="cls-2" x="17.23" y="20.92" width="14.77" height="9.85"/><polygon class="cls-2" points="32 12.31 32 8.62 17.23 8.62 17.23 18.46 32 18.46 32 12.31"/></svg>