<svg xmlns="http://www.w3.org/2000/svg" viewBox="0 0 31.97 31.97"><defs><style>.cls-1{fill:#c2c2c2;}</style></defs><title>globe</title><g id="Layer_2" data-name="Layer 2"><g id="SYMBOLS"><g id="globe"><path class="cls-1" d="M16,0A16,16,0,1,0,32,16,16,16,0,0,0,16,0ZM27.55,19.18a4,4,0,0,0-.28-.65c-.13-.25-.33-.58-.58-1,0-.07,0-.17,0-.3a2.57,2.57,0,0,0,.06-.4c0-.13,0-.26,0-.39a.73.73,0,0,0-.07-.29,4.82,4.82,0,0,1-.87-.18,2.23,2.23,0,0,1-.79-.38l.1-.08a2.3,2.3,0,0,0-.42.14l-.4.17L24,16a1.54,1.54,0,0,1-.43.06l-.25,0,0-.11-.48.16a1.34,1.34,0,0,1-.49.1,1.62,1.62,0,0,1-.46-.11c-.2-.08-.41-.17-.61-.27a3.36,3.36,0,0,1-.54-.35.52.52,0,0,1-.24-.37l0,0a1.2,1.2,0,0,0-.21-.17l-.25-.16a1.16,1.16,0,0,1-.2-.18.35.35,0,0,1-.08-.22l.18-.14-.37,0-.12-.48q0,.08.15.06a.27.27,0,0,0,.16-.06l-.57-.3.4-1a2.6,2.6,0,0,1-.1-1.28,1.56,1.56,0,0,1,.42-.74,6.3,6.3,0,0,1,.71-.57,3.5,3.5,0,0,0,.77-.77l-.05-.19,1.05-1.28.24,0c.3,0,.63,0,1,0s.75-.06,1.13-.11l1.13-.16c.34,0,.64-.11.92-.18a14.1,14.1,0,0,1,1.08,16.66q-.18-.42-.36-.87a3,3,0,0,1-.19-1,5.85,5.85,0,0,1,.06-.93c0-.24.07-.44.1-.61s.06-.33.07-.47A1.26,1.26,0,0,0,27.55,19.18ZM13.63,27.59a3.21,3.21,0,0,1-.27.81,6.63,6.63,0,0,1-.43.79,5.66,5.66,0,0,1-.36.52,14,14,0,0,1-3.48-1.37,1.81,1.81,0,0,1,0-.52c.05-.23.1-.45.17-.67l.21-.68a2.29,2.29,0,0,0,.1-.68,3.81,3.81,0,0,0-.16-1.07A8,8,0,0,0,9,23.59c-.15-.38-.31-.75-.48-1.12s-.32-.73-.44-1.06a5,5,0,0,1-.25-.93,1.2,1.2,0,0,1,.1-.74l-.24-.11A1.76,1.76,0,0,1,8,19.2l.33-.42a4,4,0,0,0,.27-.44,1.13,1.13,0,0,0,.11-.48.9.9,0,0,0-.07-.34,3.18,3.18,0,0,1-.11-.33l.34.08a1.66,1.66,0,0,1,.74-.85,2.65,2.65,0,0,1,1.15-.23,1.41,1.41,0,0,1,.34.07l.54.17.55.18.37.12c0,.08.05.13.14.15s.13.07.13.11l0,.12.23.12.39.23.36.26.22.17a2.33,2.33,0,0,1,.78.2,9.75,9.75,0,0,1,1.08.48q.57.3,1.17.69a9.59,9.59,0,0,1,1.07.79,5.37,5.37,0,0,1,.79.8,1.15,1.15,0,0,1,.31.69l-.54.57a2.83,2.83,0,0,1-.12,1.25,1.61,1.61,0,0,1-.54.71,4.2,4.2,0,0,1-.84.48,7.92,7.92,0,0,0-1,.54,1.76,1.76,0,0,1-.16.7,3.56,3.56,0,0,1-.41.7A2.48,2.48,0,0,1,15,27a1.24,1.24,0,0,1-.66.22l-.67-.51s0,.06,0,.12,0,.06-.07,0A1,1,0,0,1,13.63,27.59Zm-7-10.71c0,.07,0,.09,0,0l-.58-1A5,5,0,0,1,5,15.79a10.39,10.39,0,0,1-1.15-.39,11.21,11.21,0,0,1-1.11-.52,9.54,9.54,0,0,1-.81-.51A14.11,14.11,0,0,1,6.19,5.79.83.83,0,0,1,6.67,6a3,3,0,0,1,.41.46,4.31,4.31,0,0,0,.39.46A.75.75,0,0,0,8,7.11l.25-.19,0-.35.53-.74L8.36,4.65l.25-.16a.48.48,0,0,1,.26-.11,4.71,4.71,0,0,1,.74,0,1.11,1.11,0,0,1,.44.19,1.45,1.45,0,0,1,.33.36q.16.24.45.6l.57-.45.52.22a6.67,6.67,0,0,1,.71.35,4.2,4.2,0,0,1,.62.42.6.6,0,0,1,.27.42.48.48,0,0,1-.18.38,2,2,0,0,1-.46.24,4.61,4.61,0,0,1-.59.15l-.6.12a2,2,0,0,0-.46.16.3.3,0,0,0-.19.27l.92.3a5.08,5.08,0,0,1-.69.5,6.23,6.23,0,0,1-.76.41l.06.27L9.11,9.9v.45L9,10.4l.08-.56L9,9.82c-.07,0-.12,0-.13,0a.14.14,0,0,0,0,.11.65.65,0,0,0,0,.13.1.1,0,0,1,0,.09l-.21-.11,0,.07a.3.3,0,0,0,.06.14l.13.18.18.23s0,.07-.07.1l-.15.07-.13,0s0,0,0,0,.18,0,.09,0a1.67,1.67,0,0,0-.39.16A2,2,0,0,0,8,11.5a1,1,0,0,0-.24.69c0,.19,0,.36,0,.53a1.9,1.9,0,0,1,0,.53A1.88,1.88,0,0,0,7,12.32,1.84,1.84,0,0,0,6,12l-.69.07.34.22L5,12.23a2.82,2.82,0,0,0-.58,0,1.77,1.77,0,0,0-.55.13,1.2,1.2,0,0,0-.47.32l-.09.72a1.34,1.34,0,0,0,.23.83.87.87,0,0,0,.77.33,3,3,0,0,0,.94-.15c.31-.1.61-.21.91-.33-.1.24-.21.46-.32.68a2.88,2.88,0,0,0-.26.69l.21.1a.63.63,0,0,1,.7-.08,2.58,2.58,0,0,1,.62.51l.62.69a1.69,1.69,0,0,0,.69.5l-.54.29-1.28-.72A.48.48,0,0,1,6.68,16.88ZM22.27,3.74a1.76,1.76,0,0,0-.87-.22V3.36l.72-.12a14.17,14.17,0,0,1,2.46,1.52l-.34.13a3.6,3.6,0,0,0-.5.29,2,2,0,0,0-.4.37.71.71,0,0,0-.17.43l.1.31a1.38,1.38,0,0,1-.64.58A2.61,2.61,0,0,1,21.9,7h-.76a1.68,1.68,0,0,0-.76.14l-.25-.54.24-.92-.27-.4,2.75-.86A1.28,1.28,0,0,0,22.27,3.74Z"/></g></g></g></svg>