<svg xmlns="http://www.w3.org/2000/svg" viewBox="0 0 31.97 31.97"><defs><style>.cls-1{fill:#c2c2c2;}</style></defs><title>globe_internet</title><g id="Layer_2" data-name="Layer 2"><g id="SYMBOLS"><g id="globe_internet"><path class="cls-1" d="M22.14,22.83H9.83c.09.47.23,1,.41,1.65s.4,1.28.66,2a19.77,19.77,0,0,0,.9,2A9.9,9.9,0,0,0,13,30.22a6.13,6.13,0,0,0,1.4,1.27,3,3,0,0,0,3.27,0A6.13,6.13,0,0,0,19,30.22a10.48,10.48,0,0,0,1.15-1.78,19.77,19.77,0,0,0,.9-2c.26-.68.48-1.33.66-2S22,23.3,22.14,22.83Z"/><path class="cls-1" d="M24.83,11.42c.1.76.17,1.52.22,2.27s.07,1.52.07,2.29,0,1.54-.07,2.3-.12,1.51-.22,2.27h6.48a16.12,16.12,0,0,0,0-9.13Z"/><path class="cls-1" d="M23.29,4.83A19.93,19.93,0,0,1,24,7c.19.72.35,1.44.5,2.15h5.94a15.41,15.41,0,0,0-1.65-2.72,15.71,15.71,0,0,0-2.14-2.32,15.83,15.83,0,0,0-2.55-1.88A15.29,15.29,0,0,0,21.21.87a14.6,14.6,0,0,1,1.16,1.9A20.14,20.14,0,0,1,23.29,4.83Z"/><path class="cls-1" d="M9.44,11.42c-.1.76-.17,1.52-.23,2.27S9.13,15.21,9.13,16s0,1.54.08,2.3.13,1.51.23,2.27H22.53c.1-.76.17-1.52.22-2.27s.08-1.52.08-2.3,0-1.53-.08-2.29-.12-1.51-.22-2.27Z"/><path class="cls-1" d="M11.8,3.52A9.81,9.81,0,0,1,13,1.75,6.13,6.13,0,0,1,14.35.48a3,3,0,0,1,3.27,0A6.13,6.13,0,0,1,19,1.75a10.38,10.38,0,0,1,1.15,1.77,19.93,19.93,0,0,1,.9,2c.26.68.48,1.33.66,2s.31,1.18.41,1.64H9.83c.09-.46.23-1,.41-1.64s.4-1.28.66-2A19.93,19.93,0,0,1,11.8,3.52Z"/><path class="cls-1" d="M3.19,6.41a16.63,16.63,0,0,1,4.69-4.2A15.68,15.68,0,0,1,10.76.87,14.6,14.6,0,0,0,9.6,2.77a18.18,18.18,0,0,0-.92,2.06A19.93,19.93,0,0,0,8,7c-.19.72-.35,1.44-.5,2.15H1.55A15.36,15.36,0,0,1,3.19,6.41Z"/><path class="cls-1" d="M0,16a15.72,15.72,0,0,1,.66-4.56H7.14c-.1.76-.17,1.52-.22,2.27S6.85,15.21,6.85,16s0,1.54.07,2.3.12,1.51.22,2.27H.66A15.73,15.73,0,0,1,0,16Z"/><path class="cls-1" d="M7.88,29.76a17.47,17.47,0,0,1-2.55-1.88,16.39,16.39,0,0,1-2.14-2.33,15,15,0,0,1-1.64-2.72H7.49c.15.72.31,1.44.5,2.16a20.67,20.67,0,0,0,.69,2.15A18.18,18.18,0,0,0,9.6,29.2a13.85,13.85,0,0,0,1.16,1.89A15.63,15.63,0,0,1,7.88,29.76Z"/><path class="cls-1" d="M28.77,25.55a15.29,15.29,0,0,1-2.14,2.33,16.45,16.45,0,0,1-2.55,1.88,15.25,15.25,0,0,1-2.87,1.33,13.85,13.85,0,0,0,1.16-1.89,20.14,20.14,0,0,0,.92-2.06A20.67,20.67,0,0,0,24,25c.19-.72.35-1.44.5-2.16h5.94A15.06,15.06,0,0,1,28.77,25.55Z"/></g></g></g></svg>