<svg width="32" height="32" viewBox="0 0 32 32" fill="none" xmlns="http://www.w3.org/2000/svg">
<path d="M14.9769 15.028V-0.000854492C14.2612 0.050264 13.6478 0.20362 13.0344 0.356975C12.1143 0.612568 11.2453 1.07263 10.3251 1.63494C9.55834 2.14612 8.79156 2.50395 8.02479 2.81066C7.25801 3.11738 6.49123 3.37297 5.67334 3.52632C4.85544 3.67968 4.08866 3.88415 3.21965 3.93527C2.35063 3.98639 1.53273 4.03751 0.663719 4.03751V12.2165C0.663719 13.1877 0.765956 14.1079 0.919312 15.028H14.9769Z" fill="#0078D4"/>
<path d="M17.0231 15.028H31.0807C31.234 14.1079 31.3363 13.1877 31.3363 12.2165V4.03751C30.4673 4.03751 29.5983 3.98639 28.7804 3.93527C27.9625 3.88415 27.1446 3.7308 26.3778 3.57744C25.611 3.42409 24.7931 3.16849 24.0263 2.86178C23.2596 2.55507 22.4928 2.14612 21.726 1.68606C21.2659 1.37935 20.8059 1.12375 20.3458 0.919279C19.8857 0.714805 19.4257 0.510331 18.9656 0.356975C18.5055 0.20362 18.0455 0.101383 17.5343 0.050264C17.3809 0.050264 17.1764 -0.000854492 17.0231 -0.000854492V15.028Z" fill="#0078D4"/>
<path d="M17.0231 17.0734V32C18.0966 31.3866 19.119 30.722 20.1924 29.9552C21.4193 29.0862 22.5439 28.1661 23.6685 27.246C24.7931 26.3258 25.7644 25.2523 26.7356 24.1277C27.6557 23.0031 28.4736 21.8274 29.1893 20.6005C29.8027 19.4759 30.3139 18.3002 30.6717 17.0734H17.0231Z" fill="#0078D4"/>
<path d="M14.9761 17.0729H1.37858C1.73641 18.2997 2.2476 19.5266 2.86102 20.6001C3.52556 21.8269 4.34345 23.0026 5.26359 24.1272C6.18372 25.2518 7.20609 26.2742 8.3307 27.2455C9.40419 28.2167 10.5799 29.1368 11.8068 29.9547C12.8291 30.6704 13.9026 31.3349 14.9761 31.9484V17.0729Z" fill="#0078D4"/>
</svg>
