<svg xmlns="http://www.w3.org/2000/svg" viewBox="0 0 31.97 28.03"><defs><style>.cls-1{fill:#fff;}.cls-2{fill:#d83b01;}</style></defs><title>health</title><g id="Layer_2" data-name="Layer 2"><g id="SYMBOLS"><g id="health"><g id="_Group_" data-name="&lt;Group&gt;"><path class="cls-1" d="M23.46.06a8.15,8.15,0,0,1,3.3.67,8.73,8.73,0,0,1,2.69,1.81,8.49,8.49,0,0,1,2.48,6,8.42,8.42,0,0,1-.65,3.25,8.32,8.32,0,0,1-1.51,2.4l-.32.34-1.29,1.29L16,28,2.52,14.52A8.5,8.5,0,0,1,0,8.53a8.37,8.37,0,0,1,2.48-6A8.61,8.61,0,0,1,5.21.73,8.15,8.15,0,0,1,8.51.06a8.58,8.58,0,0,1,2.31.29,7.86,7.86,0,0,1,1.87.82,10.24,10.24,0,0,1,1.65,1.25c.53.49,1.07,1,1.64,1.61.57-.58,1.12-1.12,1.65-1.61a10.24,10.24,0,0,1,1.65-1.25A7.86,7.86,0,0,1,21.15.35,8.58,8.58,0,0,1,23.46.06Z"/></g><path class="cls-2" d="M5.41,14H4.8L16,25.2,25.18,16H28L16,28,2.47,14.52a7.25,7.25,0,0,1-1-1.18A8.6,8.6,0,0,1,.77,12H4.56L9,7.6l7,7,5-5L23.42,12H29a6.91,6.91,0,0,0,.76-1.69A6.34,6.34,0,0,0,30,8.49a6.37,6.37,0,0,0-1.9-4.57A6.37,6.37,0,0,0,26,2.56a6.54,6.54,0,0,0-2.54-.5,6,6,0,0,0-2.33.42,7.79,7.79,0,0,0-1.88,1.08,14.67,14.67,0,0,0-1.65,1.53c-.53.57-1.08,1.14-1.65,1.73-.56-.57-1.11-1.13-1.64-1.71a16,16,0,0,0-1.66-1.55,8.41,8.41,0,0,0-1.9-1.12A5.82,5.82,0,0,0,8.49,2,6.32,6.32,0,0,0,6,2.51,6.52,6.52,0,0,0,2.51,6,6.32,6.32,0,0,0,2,8.49,7.28,7.28,0,0,0,2.17,10h-2A4.85,4.85,0,0,1,0,9.25C0,9,0,8.75,0,8.5A8.36,8.36,0,0,1,.66,5.19a8.68,8.68,0,0,1,1.82-2.7A8.33,8.33,0,0,1,8.49,0,8.19,8.19,0,0,1,10.8.3a8,8,0,0,1,1.89.82,10.17,10.17,0,0,1,1.65,1.26c.53.49,1.08,1,1.65,1.61.57-.59,1.12-1.12,1.65-1.61A10.24,10.24,0,0,1,19.3,1.12,7.93,7.93,0,0,1,21.18.3,8.21,8.21,0,0,1,23.5,0a8.3,8.3,0,0,1,3.29.66,8.71,8.71,0,0,1,2.7,1.81A8.33,8.33,0,0,1,31.3,5.16,8.15,8.15,0,0,1,32,8.46a8.44,8.44,0,0,1-.53,2.94A8.88,8.88,0,0,1,29.92,14H22.57L21,12.41l-5,5-7-7Z"/></g></g></g></svg>