<svg xmlns="http://www.w3.org/2000/svg" viewBox="0 0 32 32"><defs><style>.cls-1{fill:#2f2f2f;}.cls-2{fill:#fff;}</style></defs><title>help</title><g id="Layer_2" data-name="Layer 2"><g id="SYMBOLS"><g id="help"><path class="cls-1" d="M31.43,11.75a16.43,16.43,0,0,0-1.61-3.83,16,16,0,0,0-5.74-5.74A16.43,16.43,0,0,0,20.25.57a16.17,16.17,0,0,0-8.51,0A16.35,16.35,0,0,0,7.92,2.18,16,16,0,0,0,2.18,7.92,16.43,16.43,0,0,0,.57,11.75a16.17,16.17,0,0,0,0,8.51,16.35,16.35,0,0,0,1.61,3.82,16,16,0,0,0,5.74,5.74,16.43,16.43,0,0,0,3.83,1.61,16.13,16.13,0,0,0,8.5,0,16.43,16.43,0,0,0,3.83-1.61,16,16,0,0,0,5.74-5.74,16.43,16.43,0,0,0,1.61-3.83,16.13,16.13,0,0,0,0-8.5Z"/><path class="cls-2" d="M17.66,13.76a2.15,2.15,0,0,0,.84-1.62A2.18,2.18,0,0,0,16,9.84c-1.61,0-2.47.82-2.47,2.3H11v-.79h.08a5,5,0,0,1,4.95-4A4.94,4.94,0,0,1,21,12.14a5.07,5.07,0,0,1-1.56,3.39,9.17,9.17,0,0,1-1.54,1.21A2.26,2.26,0,0,0,17,18.45v1.9h-2.3v-1.9A4,4,0,0,1,16,15.16"/><rect class="cls-2" x="14.69" y="22.35" width="2.32" height="2"/></g></g></g></svg>