<svg id="ArrowUp" xmlns="http://www.w3.org/2000/svg" viewBox="0 0 32 32"><defs><style>.cls-1{fill:#c2c2c2;}.cls-2{fill:#0078d4;}</style></defs><title>Highlighter-blue</title><rect class="cls-1" x="0.43" width="31.15" height="6.67"/><polygon class="cls-2" points="11.55 32 20.45 27.55 20.45 22.25 11.55 22.25 11.55 32"/><path class="cls-1" d="M6.21,11.4A10.65,10.65,0,0,1,7,14.1,17.93,17.93,0,0,1,7.14,17c0,1,0,2,0,3.05H24.9c0-1,0-2,0-3A18.32,18.32,0,0,1,25,14.1a10.5,10.5,0,0,1,.76-2.71A8.07,8.07,0,0,1,27.52,8.9h-23A8.23,8.23,0,0,1,6.21,11.4Z"/></svg>