<svg xmlns="http://www.w3.org/2000/svg" viewBox="0 0 31.12 31.97"><defs><style>.cls-1{fill:#c2c2c2;}.cls-2{fill:#d83b01;}</style></defs><title>highlighter</title><g id="Layer_2" data-name="Layer 2"><g id="SYMBOLS"><g id="highlighter"><rect class="cls-1" width="31.12" height="6.67"/><polygon class="cls-2" points="20 27.52 11.11 31.97 11.11 22.23 20 22.23 20 27.52"/><path class="cls-1" d="M27.07,8.89a8,8,0,0,0-1.73,2.48,10.22,10.22,0,0,0-.76,2.71A18.32,18.32,0,0,0,24.41,17c0,1,0,2,0,3H6.67c0-1,0-2.05,0-3a17,17,0,0,0-.16-2.88,11.13,11.13,0,0,0-.76-2.69,8.23,8.23,0,0,0-1.73-2.5Z"/></g></g></g></svg>