<svg xmlns="http://www.w3.org/2000/svg" viewBox="0 0 31.97 28.99"><defs><style>.cls-1{fill:#c2c2c2;}.cls-2{fill:#d83b01;}.cls-3{fill:none;}.cls-4{fill:#2f2f2f;}</style></defs><title>hybrid</title><g id="Layer_2" data-name="Layer 2"><g id="SYMBOLS"><g id="hybrid"><path class="cls-1" d="M31.66,23.46a3.7,3.7,0,0,0-.84-1.22,4,4,0,0,0-1.23-.82,3.89,3.89,0,0,0-1.52-.3,6.06,6.06,0,0,0-.64-2.05,5.72,5.72,0,0,0-3-2.71A5.5,5.5,0,0,0,22.3,16h-.64V29l6.44-.12h0a3.79,3.79,0,0,0,1.5-.3,3.87,3.87,0,0,0,2.07-2.06A3.79,3.79,0,0,0,32,25,3.74,3.74,0,0,0,31.66,23.46Z"/><polygon class="cls-2" points="25.5 2.1 24.99 2.62 24.3 3.31 24.99 3.31 26.55 3.31 29.87 3.31 29.87 5.11 26.55 5.11 24.99 5.11 24.3 5.11 24.99 5.8 26.34 7.16 25.08 8.42 24.99 8.33 20.87 4.21 22.98 2.1 24.99 0.09 25.08 0 26.34 1.26 25.5 2.1 25.5 2.1"/><polygon class="cls-2" points="26.55 13.8 22.97 13.8 22.97 12.01 26.55 12.01 27.85 12.01 28.54 12.01 27.85 11.31 27.26 10.72 26.55 10.01 26.5 9.96 26.55 9.9 27.76 8.7 27.85 8.79 29.78 10.72 30.98 11.92 31.24 12.18 31.97 12.91 31.24 13.64 30.98 13.9 27.85 17.03 27.76 17.12 26.55 15.91 26.5 15.86 26.55 15.8 27.85 14.5 28.54 13.8 27.85 13.8 26.55 13.8"/><rect class="cls-3" x="7.98" y="17.38" width="4.01" height="3.88"/><rect class="cls-3" x="7.98" y="11.56" width="4.01" height="3.88"/><rect class="cls-3" x="1.96" y="11.56" width="4.01" height="3.88"/><rect class="cls-3" x="7.98" y="5.73" width="4.01" height="3.88"/><rect class="cls-3" x="7.98" y="23.21" width="4.01" height="3.88"/><rect class="cls-3" x="1.96" y="17.38" width="4.01" height="3.88"/><rect class="cls-3" x="14" y="5.73" width="4.01" height="3.88"/><rect class="cls-3" x="14" y="11.56" width="4.01" height="3.88"/><path class="cls-4" d="M0,1.89V29H20V1.89ZM2,5.73H5.92V9.61H2ZM6,21.27H2V17.38H6Zm0-5.83H2V11.56H6Zm6,11.65H8V23.21h4Zm0-5.82H8V17.38h4Zm0-5.83H8V11.56h4Zm0-5.83H8V5.73h4Zm5.9,11.64H14V17.37H17.9ZM18,15.44H14V11.56h4Zm0-5.83H14V5.73h4Z"/><rect class="cls-2" x="13.99" y="17.37" width="3.91" height="3.88"/><rect class="cls-1" x="2.01" y="5.73" width="3.91" height="3.88"/></g></g></g></svg>