<svg id="ArrowUp" xmlns="http://www.w3.org/2000/svg" viewBox="0 0 32 32"><defs><style>.cls-1{fill:none;}.cls-2{fill:#d2d2d2;}.cls-3{fill:#c2c2c2;}.cls-4{fill:#2f2f2f;}.cls-5{fill:#0078d4;}</style></defs><title>Lamp-blue</title><polygon class="cls-1" points="24.02 22.43 20.92 19.33 24.02 22.43 24.02 22.43"/><polygon class="cls-2" points="24.02 22.43 24.02 22.43 20.92 19.33 12.73 27.52 13.73 27.52 18.5 27.52 19.07 27.52 24.09 22.5 24.02 22.43"/><path class="cls-3" d="M24.09,22.5l3.13-3.13,0,0-.06-.07-7-7a11.2,11.2,0,0,1-1.53,4.8l2.26,2.26,3.1,3.1Zm-1.47-3.37a1.11,1.11,0,1,1,1.11,1.11A1.11,1.11,0,0,1,22.62,19.13Z"/><path class="cls-4" d="M24.83,19.13a1.11,1.11,0,1,0-1.1,1.11A1.11,1.11,0,0,0,24.83,19.13Z"/><path class="cls-5" d="M16,1.61l0-.05a4.78,4.78,0,0,0-4.82.73A9.19,9.19,0,0,0,8.91,2,9.31,9.31,0,0,0,2.33,4.71L15.51,17.89a9.44,9.44,0,0,0,1.67-2.3,9.34,9.34,0,0,0,1-5.35A8.74,8.74,0,0,0,17.93,9a4.78,4.78,0,0,0,.73-4.82l0,0A5.25,5.25,0,0,0,16,1.61Z"/><path class="cls-3" d="M13.73,27.52H10.4a8.06,8.06,0,0,0-5.67,2.33L2.57,32h27.1l-2.16-2.15a8.08,8.08,0,0,0-5.67-2.33H13.73Z"/><path class="cls-4" d="M17.62,0l-.05.05.27.16Z"/><path class="cls-4" d="M16.06,1.56l0,.05a5.25,5.25,0,0,1,2.6,2.59l0,0a4.64,4.64,0,0,0-1-1.56A4.69,4.69,0,0,0,16.06,1.56Z"/><path class="cls-4" d="M17.84.21,17.57.05l-.76.76-.75.75a4.69,4.69,0,0,1,1.56,1,4.64,4.64,0,0,1,1,1.56l.76-.76.74-.74.06-.06L20,2.34Z"/></svg>