<svg id="ArrowUp" xmlns="http://www.w3.org/2000/svg" viewBox="0 0 32 32"><defs><style>.cls-1{fill:#d2d2d2;}.cls-2{fill:#c2c2c2;}.cls-3{fill:#0078d4;}</style></defs><title>Lifesaver-blue</title><path class="cls-1" d="M17.76,7.17l5.45-5.46a16.06,16.06,0,0,0-14.42,0l5.45,5.46A9.06,9.06,0,0,1,17.76,7.17Z"/><path class="cls-2" d="M32,15a16.26,16.26,0,0,0-.52-3.17,15.59,15.59,0,0,0-1.16-3l-5.45,5.45c.05.25.08.51.11.76a9.55,9.55,0,0,1,0,2c0,.25-.06.51-.11.76l5.45,5.45A15.89,15.89,0,0,0,32,17,16.68,16.68,0,0,0,32,15Z"/><path class="cls-1" d="M14.24,24.83,8.79,30.29a15.65,15.65,0,0,0,3.52,1.28,16,16,0,0,0,10.9-1.28l-5.45-5.46A9.06,9.06,0,0,1,14.24,24.83Z"/><path class="cls-3" d="M22.37,22.37a9.15,9.15,0,0,1-2.49,1.75L25,29.24A15.5,15.5,0,0,0,29.24,25l-5.12-5.11A8.93,8.93,0,0,1,22.37,22.37Z"/><path class="cls-3" d="M9.63,9.63a9.15,9.15,0,0,1,2.49-1.75L7,2.76A15.5,15.5,0,0,0,2.76,7l5.12,5.11A8.93,8.93,0,0,1,9.63,9.63Z"/><path class="cls-2" d="M7.05,17a9.55,9.55,0,0,1,0-2c0-.25.06-.51.11-.76L1.71,8.79A15.89,15.89,0,0,0,0,15a16.68,16.68,0,0,0,0,2,16.08,16.08,0,0,0,1,4.72,15,15,0,0,0,.66,1.49l5.45-5.45C7.11,17.51,7.08,17.25,7.05,17Z"/><path class="cls-3" d="M9.63,22.37a8.93,8.93,0,0,1-1.75-2.49L2.76,25a16.08,16.08,0,0,0,1.91,2.33c.37.36.75.7,1.13,1s.79.62,1.2.9l5.12-5.12A9.15,9.15,0,0,1,9.63,22.37Z"/><path class="cls-3" d="M22.37,9.63a8.93,8.93,0,0,1,1.75,2.49L29.24,7c-.28-.41-.57-.81-.89-1.2s-.66-.77-1-1.13A16.16,16.16,0,0,0,25,2.76L19.88,7.88A9.15,9.15,0,0,1,22.37,9.63Z"/></svg>