<svg id="ArrowUp" xmlns="http://www.w3.org/2000/svg" viewBox="0 0 32 32"><defs><style>.cls-1{fill:#c2c2c2;}.cls-2{fill:#2f2f2f;}.cls-3{fill:#0078d4;}</style></defs><title>LightBulbIdeaCapture-blue</title><path class="cls-1" d="M15.3,18.91,6.12,9.73,11,4.89,15.3,9.23l5.88-5.89c-.1-.1-.19-.22-.3-.32A10.39,10.39,0,0,0,17.62.81a10.28,10.28,0,0,0-8,0A10.39,10.39,0,0,0,4.14,6.29a10,10,0,0,0-.81,4,9.47,9.47,0,0,0,.79,3.9A11.11,11.11,0,0,0,6.4,17.46,14,14,0,0,1,9,21a11.58,11.58,0,0,1,1.18,4.18h7A11.78,11.78,0,0,1,18.28,21a14,14,0,0,1,2.55-3.5,11.11,11.11,0,0,0,2.28-3.27,9.56,9.56,0,0,0,.79-3.89Z"/><path class="cls-2" d="M10.19,30.86a1.08,1.08,0,0,0,.34.8,1.07,1.07,0,0,0,.8.34H15.9a1.07,1.07,0,0,0,.8-.34,1.08,1.08,0,0,0,.34-.8V27.43H10.19Z"/><polygon class="cls-3" points="27.06 0.69 22.54 5.21 15.29 12.46 10.96 8.12 9.35 9.73 15.29 15.67 23.5 7.47 28.67 2.3 27.06 0.69"/></svg>