<svg id="ArrowUp" xmlns="http://www.w3.org/2000/svg" viewBox="0 0 32 32"><defs><style>.cls-1{fill:#2f2f2f;}.cls-2{fill:#c2c2c2;}.cls-3{fill:#0078d4;}</style></defs><title>LightBulbIdeaCapture2-blue</title><g id="Artwork_57" data-name="Artwork 57"><path class="cls-1" d="M16,30.86V27.43H9.14v3.43m0,0A1.16,1.16,0,0,0,10.29,32h4.57a1.08,1.08,0,0,0,.8-.34,1.07,1.07,0,0,0,.34-.8"/></g><path class="cls-2" d="M18.29,0V16H29.71V0Z"/><rect class="cls-3" x="20.78" y="2.29" width="4.57" height="2.29"/><rect class="cls-3" x="20.78" y="6.86" width="4.57" height="2.29"/><rect class="cls-3" x="20.78" y="11.43" width="6.86" height="2.29"/><path class="cls-2" d="M16.05,25.14A11.9,11.9,0,0,1,17,21.48a12.63,12.63,0,0,1,2-3.19H16V.61A9.82,9.82,0,0,0,14.31.15,10.25,10.25,0,0,0,8.57.81,10.33,10.33,0,0,0,3.1,6.29a10,10,0,0,0-.81,4,9.39,9.39,0,0,0,.79,3.89,11.29,11.29,0,0,0,2.28,3.28A14.27,14.27,0,0,1,7.92,21a11.37,11.37,0,0,1,1.17,4.18Z"/></svg>