<svg xmlns="http://www.w3.org/2000/svg" viewBox="0 0 20.55 31.97"><defs><style>.cls-1{fill:#c2c2c2;}.cls-2{fill:#2f2f2f;}</style></defs><title>light_bulb</title><g id="Layer_2" data-name="Layer 2"><g id="SYMBOLS"><g id="light_bulb"><path class="cls-1" d="M13.75,25.12a11.93,11.93,0,0,1,1.18-4.18,13.75,13.75,0,0,1,2.55-3.49,11,11,0,0,0,2.28-3.28,9.39,9.39,0,0,0,.79-3.89,10,10,0,0,0-.81-4A10.26,10.26,0,0,0,14.27.81a10,10,0,0,0-4-.81,10,10,0,0,0-4,.81A10.26,10.26,0,0,0,.81,6.28a10,10,0,0,0-.81,4,9.39,9.39,0,0,0,.79,3.89,11,11,0,0,0,2.28,3.28,13.75,13.75,0,0,1,2.55,3.49A11.93,11.93,0,0,1,6.8,25.12Z"/><path class="cls-2" d="M12.56,32a1.07,1.07,0,0,0,.8-.34,1.08,1.08,0,0,0,.34-.8V27.4H6.85v3.43a1.08,1.08,0,0,0,.34.8A1.07,1.07,0,0,0,8,32Z"/></g></g></g></svg>