<svg id="ArrowUp" xmlns="http://www.w3.org/2000/svg" viewBox="0 0 32 32"><defs><style>.cls-1{fill:none;}.cls-2{fill:#0078d4;}.cls-3{fill:#c2c2c2;}.cls-4{fill:#d2d2d2;}.cls-5{fill:#2f2f2f;}</style></defs><title>Lighthouse-blue</title><path class="cls-1" d="M15.9,6.41a.87.87,0,0,0-.38.11A1.11,1.11,0,0,0,15.05,8a1.06,1.06,0,1,0,.85-1.54Z"/><rect class="cls-1" x="11.65" y="2.13"/><polygon class="cls-2" points="17.52 10.67 14.5 10.67 14.49 10.67 17.52 10.67 17.52 10.67"/><polygon class="cls-2" points="12.36 12.8 11.2 13.97 11.08 17.11 15.38 12.8 12.36 12.8"/><path class="cls-2" d="M11,20.35l-.12,3.07a1.07,1.07,0,0,0,.22-.15l9.74-9.74,0-.73H18.5Z"/><path class="cls-2" d="M10.72,26.46l-.05,1.27h1.79L21,19.19l-.1-2.69a1,1,0,0,0-.48.25Z"/><polygon class="cls-2" points="18.6 27.73 21.23 25.1 21.12 22.19 15.58 27.73 18.6 27.73"/><polygon class="cls-3" points="21.33 27.73 21.23 25.1 18.6 27.73 21.33 27.73"/><polygon class="cls-3" points="15.38 12.8 11.08 17.11 10.95 20.35 18.5 12.8 15.38 12.8"/><polygon class="cls-3" points="15.58 27.73 21.12 22.19 21 19.19 12.46 27.73 15.58 27.73"/><path class="cls-3" d="M18,4.27H11.57l-.14,3.59-.11,2.81h9.36l-.25-6.4H18Zm-.19,4.27a2.15,2.15,0,0,1-2.25,1,2.45,2.45,0,0,1-.67-.24,2.21,2.21,0,0,1-.9-1,2.15,2.15,0,0,1,.12-1.88,2.13,2.13,0,0,1,2.66-.9l.26.12a2.1,2.1,0,0,1,1,1.45A2.12,2.12,0,0,1,17.85,8.54Z"/><polygon class="cls-3" points="11.24 12.8 11.2 13.97 12.36 12.8 11.24 12.8"/><path class="cls-3" d="M10.83,23.42l-.11,3,9.7-9.71a1,1,0,0,1,.48-.25l-.11-3-9.74,9.74A1.07,1.07,0,0,1,10.83,23.42Z"/><polygon class="cls-3" points="11.65 2.13 11.65 2.13 17.16 2.13 20.18 2.13 20.35 2.13 20.35 2.13 20.35 2.13 20.35 2.13 20.18 2.13 17.16 2.13 17.07 2.13 14.93 2.13 11.65 2.13"/><polygon class="cls-4" points="8.53 27.73 7.47 32 24.53 32 23.47 27.73 8.53 27.73"/><path class="cls-4" d="M14.5,10.67H10.67a1.07,1.07,0,1,0,0,2.13H21.33a1.07,1.07,0,1,0,0-2.13H14.5Z"/><path class="cls-5" d="M16,0a1.07,1.07,0,0,0-1.07,1.07V2.13h2.14V1.07A1.07,1.07,0,0,0,16,0Z"/><path class="cls-4" d="M20.18,2.13H11.33a1.07,1.07,0,1,0,0,2.14h9.34a1.07,1.07,0,1,0,0-2.14h-.49Z"/><path class="cls-5" d="M17.07,5.62l-.26-.12a2.13,2.13,0,0,0-2.66.9A2.15,2.15,0,0,0,14,8.28a2.21,2.21,0,0,0,.9,1,2.45,2.45,0,0,0,.67.24,2.15,2.15,0,0,0,2.25-1,2.12,2.12,0,0,0,.24-1.47A2.1,2.1,0,0,0,17.07,5.62Zm-.59,2.8A1.06,1.06,0,0,1,15.05,8a1.11,1.11,0,0,1,.47-1.43.87.87,0,0,1,.38-.11,1.06,1.06,0,0,1,.58,2Z"/></svg>