<svg xmlns="http://www.w3.org/2000/svg" viewBox="0 0 25.32 31.97"><defs><style>.cls-1{fill:#c2c2c2;}.cls-2{fill:#2f2f2f;}.cls-3{fill:#d83b01;}</style></defs><title>light_bulb_idea_capture</title><g id="Layer_2" data-name="Layer 2"><g id="SYMBOLS"><g id="light_bulb_idea_capture"><path class="cls-1" d="M12,18.89,2.78,9.72,7.62,4.88,12,9.22l5.88-5.88L17.54,3A10.57,10.57,0,0,0,14.27.81a10,10,0,0,0-4-.81,10,10,0,0,0-4,.81A10.26,10.26,0,0,0,.81,6.28a10,10,0,0,0-.81,4,9.39,9.39,0,0,0,.79,3.89,11,11,0,0,0,2.28,3.28,13.75,13.75,0,0,1,2.55,3.49A11.93,11.93,0,0,1,6.8,25.12h7a11.93,11.93,0,0,1,1.18-4.18,13.75,13.75,0,0,1,2.55-3.49,11,11,0,0,0,2.28-3.28,9.51,9.51,0,0,0,.79-3.88Z"/><path class="cls-2" d="M6.85,30.83a1.08,1.08,0,0,0,.34.8A1.07,1.07,0,0,0,8,32h4.57a1.07,1.07,0,0,0,.8-.34,1.08,1.08,0,0,0,.34-.8V27.4H6.85Z"/><polygon class="cls-3" points="23.71 0.69 19.2 5.21 11.95 12.45 7.62 8.11 6.01 9.72 11.95 15.66 20.15 7.46 25.32 2.3 23.71 0.69"/></g></g></g></svg>