<svg id="ArrowUp" xmlns="http://www.w3.org/2000/svg" viewBox="0 0 32 32"><defs><style>.cls-1{fill:#c2c2c2;}.cls-2{fill:#2f2f2f;}.cls-3{fill:#0078d4;}</style></defs><title>LightBulbIdeaSharing-blue</title><path class="cls-1" d="M19.48,25.14A12,12,0,0,1,20.66,21a14,14,0,0,1,2.55-3.5,11.11,11.11,0,0,0,2.28-3.27,9.48,9.48,0,0,0,.8-3.9,10,10,0,0,0-.82-4A10.33,10.33,0,0,0,20,.81a10.28,10.28,0,0,0-8,0A10.33,10.33,0,0,0,6.53,6.29a10,10,0,0,0-.82,4,9.48,9.48,0,0,0,.8,3.9,11.11,11.11,0,0,0,2.28,3.27A14,14,0,0,1,11.34,21a12,12,0,0,1,1.18,4.18Z"/><path class="cls-2" d="M18.29,32a1.1,1.1,0,0,0,.8-.34,1.08,1.08,0,0,0,.34-.8V27.43H12.57v3.43A1.16,1.16,0,0,0,13.71,32Z"/><polygon class="cls-3" points="17.14 12.56 17.14 20.08 14.86 20.08 14.86 12.56 12.23 15.16 10.63 13.56 16 8.18 21.38 13.56 19.77 15.16 17.14 12.56"/></svg>