<svg xmlns="http://www.w3.org/2000/svg" viewBox="0 0 30.15 31.97"><defs><style>.cls-1{fill:#c2c2c2;}</style></defs><title>like</title><g id="Layer_2" data-name="Layer 2"><g id="SYMBOLS"><g id="like"><path class="cls-1" d="M27.42,29.79c0-1.25,0-2.06-1.32-2.26l0-.35a3,3,0,0,0,3.24-3.11,2.37,2.37,0,0,0-1.8-2.59v-.7c1.25,0,2.57-.77,2.57-3.05a2.77,2.77,0,0,0-2.57-2.52v-.58a2.44,2.44,0,0,0,2.26-2.46,2.59,2.59,0,0,0-2.26-2.61H14.37l2.16-5.11s1.09-3.26-.23-4.1a1.66,1.66,0,0,0-2.16.08L1.89,12.7C-.64,15.7.1,22.39.1,22.39,1.09,32.12,7.35,32,7.35,32h17C25.58,32,27.42,31,27.42,29.79Z"/></g></g></g></svg>