<svg xmlns="http://www.w3.org/2000/svg" viewBox="0 0 31.97 28.34"><defs><style>.cls-1{fill:#c2c2c2;}</style></defs><title>like_unlike</title><g id="Layer_2" data-name="Layer 2"><g id="SYMBOLS"><g id="like_unlike"><path class="cls-1" d="M15.08,27.14c0-.69,0-1.13-.73-1.24l0-.19A1.64,1.64,0,0,0,16.15,24a1.3,1.3,0,0,0-1-1.43v-.38c.69,0,1.42-.43,1.42-1.68a1.53,1.53,0,0,0-1.42-1.39V18.8a1.34,1.34,0,0,0,1.25-1.35A1.42,1.42,0,0,0,15.16,16H7.9l1.19-2.81S9.69,11.41,9,11A.89.89,0,0,0,7.78,11L1,17.74c-1.39,1.66-1,5.33-1,5.33.54,5.35,4,5.27,4,5.27h9.34C14.06,28.34,15.08,27.82,15.08,27.14Z"/><path class="cls-1" d="M16.89,1.2c0,.69,0,1.13.73,1.24l0,.19a1.65,1.65,0,0,0-1.79,1.71,1.31,1.31,0,0,0,1,1.42v.39c-.68,0-1.41.43-1.41,1.68A1.52,1.52,0,0,0,16.8,9.21v.33a1.34,1.34,0,0,0-1.24,1.34,1.43,1.43,0,0,0,1.24,1.44h7.27l-1.19,2.81s-.6,1.79.13,2.25a.9.9,0,0,0,1.18,0l6.74-6.75c1.39-1.65,1-5.33,1-5.33-.54-5.34-4-5.26-4-5.26H18.59C17.91,0,16.89.51,16.89,1.2Z"/></g></g></g></svg>