<svg xmlns="http://www.w3.org/2000/svg" viewBox="0 0 31.97 22.16"><defs><style>.cls-1{fill:#d2d2d2;}.cls-2{fill:#c2c2c2;}.cls-3{fill:#d73910;}</style></defs><title>list_123</title><g id="Layer_2" data-name="Layer 2"><g id="SYMBOLS"><g id="list_123"><rect class="cls-1" x="7.93" y="18.04" width="24.03" height="2"/><rect class="cls-1" x="7.93" y="10.03" width="24.03" height="2"/><rect class="cls-1" x="7.93" y="2.02" width="24.03" height="2"/><rect class="cls-2" x="7.93" y="10.03" width="24.03" height="2"/><rect class="cls-2" x="7.93" y="18.04" width="24.03" height="2"/><rect class="cls-2" x="7.93" y="2.02" width="24.03" height="2"/><path class="cls-3" d="M.78.89c.33-.11.63-.24.93-.37A4.66,4.66,0,0,0,2.55,0h.77V6H2V1.47a2.54,2.54,0,0,1-.58.34A1.67,1.67,0,0,1,.78,2Z"/><path class="cls-3" d="M0,13.39a1.51,1.51,0,0,1,.15-.61,2.64,2.64,0,0,1,.64-.9c.27-.24.54-.47.8-.68a5.41,5.41,0,0,0,.7-.62,1,1,0,0,0,.3-.74.67.67,0,0,0-.24-.59,1,1,0,0,0-.62-.17A1.77,1.77,0,0,0,1,9.25a2.93,2.93,0,0,0-.68.44V8.54A3.18,3.18,0,0,1,2,8a2.94,2.94,0,0,1,.74.1,1.69,1.69,0,0,1,.61.32A1.5,1.5,0,0,1,3.78,9a1.72,1.72,0,0,1,.15.74,1.93,1.93,0,0,1-.19.85,3.11,3.11,0,0,1-.46.66,4.15,4.15,0,0,1-.6.51l-.61.43a3.75,3.75,0,0,0-.46.39.6.6,0,0,0-.19.4H3.93V14H0C0,13.8,0,13.58,0,13.39Z"/><path class="cls-3" d="M2.39,19.83a1.24,1.24,0,0,0-.49-.23,2.35,2.35,0,0,0-.6-.07H.77v-1h.5a2.35,2.35,0,0,0,.54-.06.86.86,0,0,0,.44-.21.64.64,0,0,0,.18-.48.62.62,0,0,0-.26-.57,1.21,1.21,0,0,0-.62-.15,2,2,0,0,0-1.16.37V16.37a2.74,2.74,0,0,1,.71-.25,4.76,4.76,0,0,1,.75-.07,3.08,3.08,0,0,1,.68.08,1.81,1.81,0,0,1,.62.26,1.46,1.46,0,0,1,.43.46,1.23,1.23,0,0,1,.18.68,1.4,1.4,0,0,1-.31.94,1.55,1.55,0,0,1-.87.49v0a1.76,1.76,0,0,1,1,.42,1.21,1.21,0,0,1,.39,1,1.67,1.67,0,0,1-.2.83,1.59,1.59,0,0,1-.51.55,2.36,2.36,0,0,1-.72.32,4,4,0,0,1-.84.1,3.91,3.91,0,0,1-.76-.07,2.59,2.59,0,0,1-.73-.23V20.72a2.65,2.65,0,0,0,.65.33,2.58,2.58,0,0,0,.73.11A1.49,1.49,0,0,0,2.28,21a.66.66,0,0,0,.32-.64A.61.61,0,0,0,2.39,19.83Z"/><path class="cls-3" d="M2,1.47V6H3.32V0H2.55a4.66,4.66,0,0,1-.84.52c-.3.13-.6.26-.93.37V2a1.67,1.67,0,0,0,.67-.16A2.54,2.54,0,0,0,2,1.47Z"/><path class="cls-3" d="M1.55,21.16a2.58,2.58,0,0,1-.73-.11,2.65,2.65,0,0,1-.65-.33v1.14a2.59,2.59,0,0,0,.73.23,3.91,3.91,0,0,0,.76.07,4,4,0,0,0,.84-.1,2.36,2.36,0,0,0,.72-.32,1.59,1.59,0,0,0,.51-.55,1.67,1.67,0,0,0,.2-.83,1.21,1.21,0,0,0-.39-1,1.76,1.76,0,0,0-1-.42v0a1.55,1.55,0,0,0,.87-.49,1.4,1.4,0,0,0,.31-.94,1.23,1.23,0,0,0-.18-.68,1.46,1.46,0,0,0-.43-.46,1.81,1.81,0,0,0-.62-.26,3.08,3.08,0,0,0-.68-.08,4.76,4.76,0,0,0-.75.07,2.74,2.74,0,0,0-.71.25v1.06a2,2,0,0,1,1.16-.37,1.21,1.21,0,0,1,.62.15.62.62,0,0,1,.26.57.64.64,0,0,1-.18.48.86.86,0,0,1-.44.21,2.35,2.35,0,0,1-.54.06H.77v1H1.3a2.35,2.35,0,0,1,.6.07,1.24,1.24,0,0,1,.49.23.61.61,0,0,1,.21.51.66.66,0,0,1-.32.64A1.49,1.49,0,0,1,1.55,21.16Z"/><path class="cls-3" d="M3.93,13H1.42a.6.6,0,0,1,.19-.4,3.75,3.75,0,0,1,.46-.39l.61-.43a4.15,4.15,0,0,0,.6-.51,3.11,3.11,0,0,0,.46-.66,1.93,1.93,0,0,0,.19-.85A1.72,1.72,0,0,0,3.78,9a1.5,1.5,0,0,0-.41-.52,1.69,1.69,0,0,0-.61-.32A2.94,2.94,0,0,0,2,8a3.18,3.18,0,0,0-1.74.5V9.69A2.93,2.93,0,0,1,1,9.25a1.77,1.77,0,0,1,.78-.17,1,1,0,0,1,.62.17.67.67,0,0,1,.24.59,1,1,0,0,1-.3.74,5.41,5.41,0,0,1-.7.62c-.26.21-.53.44-.8.68a2.64,2.64,0,0,0-.64.9,1.51,1.51,0,0,0-.15.61c0,.19,0,.41,0,.65H3.93Z"/></g></g></g></svg>