<svg id="ArrowUp" xmlns="http://www.w3.org/2000/svg" viewBox="0 0 32 32"><defs><style>.cls-1{fill:#c2c2c2;}.cls-2{fill:#0078d4;}</style></defs><title>ListNumbered-blue</title><rect class="cls-1" x="7.94" y="15" width="24.06" height="2"/><rect class="cls-1" x="7.94" y="23.02" width="24.06" height="2"/><rect class="cls-1" x="7.94" y="6.98" width="24.06" height="2"/><path class="cls-2" d="M.78,5.85V6.93a1.7,1.7,0,0,0,.67-.17A2.88,2.88,0,0,0,2,6.43V11H3.32V5H2.55a4.6,4.6,0,0,1-.84.51C1.41,5.61,1.11,5.73.78,5.85Z"/><path class="cls-2" d="M3.23,26.72a1.72,1.72,0,0,0,.51-.56,1.64,1.64,0,0,0,.19-.83,1.21,1.21,0,0,0-.39-.95,1.76,1.76,0,0,0-1-.42v0a1.61,1.61,0,0,0,.87-.49,1.38,1.38,0,0,0,.31-.95,1.34,1.34,0,0,0-.17-.68,1.61,1.61,0,0,0-.44-.46,2,2,0,0,0-.61-.26A3.23,3.23,0,0,0,1.85,21a3.81,3.81,0,0,0-.75.07,2.38,2.38,0,0,0-.71.24V22.4A2,2,0,0,1,1.55,22a1.12,1.12,0,0,1,.62.16.6.6,0,0,1,.26.56.59.59,0,0,1-.18.48,1,1,0,0,1-.44.22,3.1,3.1,0,0,1-.54.05H.77v1H1.3a2.9,2.9,0,0,1,.6.07,1.29,1.29,0,0,1,.5.24.63.63,0,0,1,.2.51.66.66,0,0,1-.32.64,1.48,1.48,0,0,1-.73.17A2.27,2.27,0,0,1,.82,26a2.1,2.1,0,0,1-.65-.33v1.15a2.59,2.59,0,0,0,.73.23,5,5,0,0,0,.76.06A3.44,3.44,0,0,0,2.5,27,2.18,2.18,0,0,0,3.23,26.72Z"/><path class="cls-2" d="M1.61,16.17c-.27.21-.54.44-.81.68a2.64,2.64,0,0,0-.64.9,1.51,1.51,0,0,0-.15.61c0,.19,0,.41,0,.65H3.93V17.92H1.43a.58.58,0,0,1,.18-.39,3.26,3.26,0,0,1,.47-.4l.6-.42a3.3,3.3,0,0,0,.6-.52,2.73,2.73,0,0,0,.46-.65,1.82,1.82,0,0,0,.19-.86A1.67,1.67,0,0,0,3.78,14a1.52,1.52,0,0,0-.4-.53,1.81,1.81,0,0,0-.62-.31A2.55,2.55,0,0,0,2,13a3.1,3.1,0,0,0-1.74.5v1.14A3.29,3.29,0,0,1,1,14.21,1.92,1.92,0,0,1,1.74,14a1.09,1.09,0,0,1,.63.17.73.73,0,0,1,.23.6,1,1,0,0,1-.3.73A7.19,7.19,0,0,1,1.61,16.17Z"/></svg>