<svg width="26" height="32" viewBox="0 0 26 32" fill="none" xmlns="http://www.w3.org/2000/svg">
<path d="M5.62499 7.38728H20.395V4.92728H15.465C15.465 4.60728 15.465 4.26728 15.465 3.92728C15.49 3.56438 15.49 3.20019 15.465 2.83728C15.4485 2.47012 15.3983 2.10525 15.315 1.74728C15.2417 1.42714 15.1057 1.12466 14.915 0.857282C14.7279 0.592268 14.4768 0.378965 14.185 0.237282C13.8141 0.0725777 13.4106 -0.00605241 13.005 0.00728179C12.4332 -0.0394498 11.8658 0.140086 11.425 0.507282C11.0796 0.849673 10.8311 1.27755 10.705 1.74728C10.5711 2.2731 10.5106 2.81489 10.525 3.35728C10.525 3.92728 10.525 4.45728 10.525 4.92728H5.62499V7.38728Z" fill="#0078D4"/>
<path d="M0.695 4.92737V32.0074H25.305V4.92737H22.845V9.85737H3.155V4.92737H0.695Z" fill="#C2C2C2"/>
<path d="M21.295 14.0073H9.29501V16.0073H21.295V14.0073Z" fill="#2F2F2F"/>
<path d="M6.305 14.0073H4.31499V16.0073H6.305V14.0073Z" fill="#2F2F2F"/>
<path d="M21.295 20.0173H9.29501V22.0173H21.295V20.0173Z" fill="#2F2F2F"/>
<path d="M6.305 20.0173H4.31499V22.0173H6.305V20.0173Z" fill="#2F2F2F"/>
<path d="M21.295 26.0073H9.29501V28.0073H21.295V26.0073Z" fill="#2F2F2F"/>
<path d="M6.305 26.0073H4.31499V28.0073H6.305V26.0073Z" fill="#2F2F2F"/>
</svg>
