<svg id="ArrowUp" xmlns="http://www.w3.org/2000/svg" viewBox="0 0 32 32"><defs><style>.cls-1{fill:#c2c2c2;}.cls-2{fill:#0078d4;}</style></defs><title>ListBullets-blue</title><rect class="cls-1" x="13.84" y="1.21" width="18.16" height="6.37"/><rect class="cls-1" x="13.84" y="24.52" width="18.16" height="6.37"/><rect class="cls-1" x="13.84" y="12.86" width="18.16" height="6.37"/><path class="cls-2" d="M4.27,8.6A4.27,4.27,0,1,0,0,4.33,4.27,4.27,0,0,0,4.27,8.6Z"/><path class="cls-2" d="M4.27,20.27A4.27,4.27,0,1,0,0,16,4.27,4.27,0,0,0,4.27,20.27Z"/><path class="cls-2" d="M8.53,27.67a4.27,4.27,0,1,0-4.26,4.26A4.27,4.27,0,0,0,8.53,27.67Z"/></svg>