<svg xmlns="http://www.w3.org/2000/svg" viewBox="0 0 31.97 31.83"><defs><style>.cls-1{fill:#c2c2c2;}.cls-2{fill:#d83b01;}</style></defs><title>list_bullets</title><g id="Layer_2" data-name="Layer 2"><g id="SYMBOLS"><g id="list_bullets"><rect class="cls-1" x="13.83" y="1.14" width="18.14" height="6.36"/><rect class="cls-1" x="13.83" y="24.42" width="18.14" height="6.36"/><rect class="cls-1" x="13.83" y="12.78" width="18.14" height="6.36"/><path class="cls-2" d="M4.26,0A4.26,4.26,0,1,0,8.52,4.26,4.26,4.26,0,0,0,4.26,0Z"/><path class="cls-2" d="M4.26,11.65a4.27,4.27,0,1,0,4.26,4.27A4.27,4.27,0,0,0,4.26,11.65Z"/><path class="cls-2" d="M4.26,23.31a4.26,4.26,0,1,0,4.26,4.26A4.26,4.26,0,0,0,4.26,23.31Z"/></g></g></g></svg>