<svg id="Layer_1" data-name="Layer 1" xmlns="http://www.w3.org/2000/svg" xmlns:xlink="http://www.w3.org/1999/xlink" viewBox="0 0 64 64"><defs><style>.cls-1{fill:none;}.cls-2{clip-path:url(#clip-path);}.cls-3{fill:#c2c2c2;}.cls-4{fill:#d63f27;}.cls-5{fill:#2f2f2f;}</style><clipPath id="clip-path"><rect class="cls-1" x="4.87" y="1" width="54.25" height="62"/></clipPath></defs><title>Location</title><g class="cls-2"><path class="cls-3" d="M50.09,46.09c-.82-.25-1.6-.47-2.35-.65l-8,4h17.1a12.33,12.33,0,0,0-2-1.37c-.75-.4-1.52-.77-2.32-1.1s-1.6-.62-2.42-.88"/><path class="cls-3" d="M5.39,55.22a7,7,0,0,0,1.33,1.62A12,12,0,0,0,8.58,58.2a20.69,20.69,0,0,0,2.14,1.11c.72.32,1.43.6,2.1.84s1.28.45,1.8.61l2.52-7.45H4.87a3.75,3.75,0,0,0,.52,1.91"/><path class="cls-3" d="M32,53.31H21.22L18.38,61.7a63.35,63.35,0,0,0,6.78,1q3.39.3,6.84.3,3.21,0,6.39-.27c2.12-.18,4.23-.47,6.32-.85l-2.93-8.57Z"/><path class="cls-3" d="M52,31a21.68,21.68,0,0,0,.87-14.06,22,22,0,0,0-2.17-5.18A21.89,21.89,0,0,0,42.94,4a21.94,21.94,0,0,0-5.17-2.18,22,22,0,0,0-11.54,0A21.94,21.94,0,0,0,21.06,4a21.65,21.65,0,0,0-10,13A21.55,21.55,0,0,0,12,31a21.74,21.74,0,0,0,4.7,7l6.21,6.21c-1.19.14-2.51.35-3.95.62a41.83,41.83,0,0,0-4.32,1.06,33.46,33.46,0,0,0-4.11,1.53,14.27,14.27,0,0,0-3.36,2h21L32,53.31,47.32,38A21.37,21.37,0,0,0,52,31M44.49,27.6a13.91,13.91,0,0,1-2.91,4.29,13.67,13.67,0,0,1-4.3,2.91,13.56,13.56,0,0,1-10.56,0,13.67,13.67,0,0,1-4.3-2.91,13.91,13.91,0,0,1-2.91-4.29,13.59,13.59,0,0,1,0-10.57,13.71,13.71,0,0,1,7.21-7.21,13.56,13.56,0,0,1,10.56,0A13.71,13.71,0,0,1,44.49,17a13.59,13.59,0,0,1,0,10.57"/><path class="cls-4" d="M38.86,15.46a9.84,9.84,0,0,0-3.09-2.08,9.73,9.73,0,0,0-7.54,0,9.84,9.84,0,0,0-3.09,2.08,9.65,9.65,0,0,0-2.07,3.08,9.73,9.73,0,0,0,0,7.54,9.81,9.81,0,0,0,2.07,3.09,9.64,9.64,0,0,0,3.09,2.07,9.73,9.73,0,0,0,7.54,0,9.59,9.59,0,0,0,5.16-5.16,9.73,9.73,0,0,0,0-7.54,9.49,9.49,0,0,0-2.07-3.08"/><path class="cls-5" d="M45.9,53.31,48.5,61c.54-.14,1.19-.33,1.92-.57s1.5-.53,2.29-.87,1.56-.71,2.33-1.13A12.08,12.08,0,0,0,57.1,57a7.6,7.6,0,0,0,1.47-1.72,3.75,3.75,0,0,0,.56-2Z"/></g></svg>