<svg xmlns="http://www.w3.org/2000/svg" viewBox="0 0 31.97 23.35"><defs><style>.cls-1{fill:#c2c2c2;}.cls-2{fill:#d2d2d2;}.cls-3{fill:#2f2f2f;}</style></defs><title>mailbox</title><g id="Layer_2" data-name="Layer 2"><g id="SYMBOLS"><g id="mailbox"><path class="cls-1" d="M16,8.23,4.54,2.51l-1.39-.7V16H28.81V1.81l-1.39.7Z"/><polygon class="cls-2" points="28.81 1.8 28.81 1.81 28.82 1.8 28.81 1.8"/><polygon class="cls-2" points="3.14 1.8 3.15 1.81 3.15 1.8 3.14 1.8"/><polygon class="cls-1" points="15.98 6.43 27.42 0.7 28.81 0.01 28.81 0 3.15 0 3.15 0.01 4.54 0.7 15.98 6.43"/><polygon class="cls-3" points="0 13.81 0 23.35 31.97 23.35 31.97 14.35 28.81 12.31 28.81 14.35 3.15 14.28 3.15 12.59 0 13.81"/></g></g></g></svg>