<svg xmlns="http://www.w3.org/2000/svg" viewBox="0 0 30 32"><defs><style>.cls-1{fill:#c2c2c2;}.cls-2{fill:#2f2f2f;}.cls-3{fill:#d83b01;}</style></defs><title>map_pin</title><g id="Layer_2" data-name="Layer 2"><g id="SYMBOLS"><g id="map_pin"><polygon class="cls-1" points="26.81 21.92 24.17 14 18.12 14 18.02 21.92 26.81 21.92"/><polygon class="cls-1" points="12.12 14 6.17 14 3.53 21.92 12.02 21.92 12.12 14"/><path class="cls-1" d="M30,32l-2.69-8.08H17.83v0a3,3,0,0,1-3,3,3,3,0,0,1-3-3H2.69L0,32Z"/><path class="cls-2" d="M15,24.92a1,1,0,0,1-1-1V10a1,1,0,0,1,2,0V23.92A1,1,0,0,1,15,24.92Z"/><path class="cls-3" d="M19.61,3.05A5,5,0,0,0,17,.39,4.85,4.85,0,0,0,15,0a4.92,4.92,0,0,0-1.95.39,5,5,0,0,0-2.66,2.66A4.89,4.89,0,0,0,10,5a4.85,4.85,0,0,0,.39,2,5,5,0,0,0,1.07,1.59,4.75,4.75,0,0,0,.69.57,5.51,5.51,0,0,0,.89.5h0A5.3,5.3,0,0,0,15,10a5.25,5.25,0,0,0,1-.09,5.2,5.2,0,0,0,1-.3h0a5.11,5.11,0,0,0,.89-.5,4.75,4.75,0,0,0,.69-.57A5,5,0,0,0,19.61,7,4.85,4.85,0,0,0,20,5,4.89,4.89,0,0,0,19.61,3.05Z"/></g></g></g></svg>