<svg id="ArrowUp" xmlns="http://www.w3.org/2000/svg" viewBox="0 0 32 32"><defs><style>.cls-1{fill:#c2c2c2;}.cls-2{fill:#2f2f2f;}.cls-3{fill:#0078d4;}</style></defs><title>MapPin-blue</title><polygon class="cls-1" points="27.81 21.92 25.17 14.01 19.12 14.01 19.02 21.92 27.81 21.92"/><polygon class="cls-1" points="13.12 14.01 7.17 14.01 4.53 21.92 13.02 21.92 13.12 14.01"/><path class="cls-1" d="M31,32l-2.69-8.09H18.83v0a3,3,0,0,1-6,0H3.69L1,32Z"/><path class="cls-2" d="M16,24.92a1,1,0,0,1-1-1V10a1,1,0,1,1,2,0V23.92A1,1,0,0,1,16,24.92Z"/><path class="cls-3" d="M20.61,3.05a5.24,5.24,0,0,0-1.07-1.59A5,5,0,0,0,18,.4,4.85,4.85,0,0,0,16,0,4.92,4.92,0,0,0,14.05.4a5,5,0,0,0-1.59,1.06,5.24,5.24,0,0,0-1.07,1.59A4.93,4.93,0,0,0,11,5a4.92,4.92,0,0,0,.39,2,5,5,0,0,0,1.07,1.59,4.75,4.75,0,0,0,.69.57,4.8,4.8,0,0,0,.89.49h0a4.53,4.53,0,0,0,1,.29,4.85,4.85,0,0,0,2,0,4.53,4.53,0,0,0,1-.29h0a5.08,5.08,0,0,0,.89-.49,4.75,4.75,0,0,0,.69-.57A5,5,0,0,0,20.61,7,4.92,4.92,0,0,0,21,5,4.93,4.93,0,0,0,20.61,3.05Z"/></svg>