<svg xmlns="http://www.w3.org/2000/svg" viewBox="0 0 27.71 31.97"><defs><style>.cls-1{fill:#c2c2c2;}</style></defs><title>marketplace_shopping_bag</title><g id="Layer_2" data-name="Layer 2"><g id="SYMBOLS"><path id="marketplace_shopping_bag" class="cls-1" d="M20.25,8.52V2.13a2.05,2.05,0,0,0-.17-.83,2.1,2.1,0,0,0-.46-.68A2.19,2.19,0,0,0,19,.17,2.09,2.09,0,0,0,18.12,0H9.59a2.05,2.05,0,0,0-.83.17,2.24,2.24,0,0,0-.68.45,2.24,2.24,0,0,0-.45.68,1.9,1.9,0,0,0-.17.83V8.52H0V32H27.71V8.52ZM9.59,2.13h8.53V8.52H9.59Z"/></g></g></svg>