<svg xmlns="http://www.w3.org/2000/svg" viewBox="0 0 31.97 25.74"><defs><style>.cls-1{fill:none;}.cls-2{fill:#c2c2c2;}.cls-3{fill:#2f2f2f;}</style></defs><title>meeting</title><g id="Layer_2" data-name="Layer 2"><g id="SYMBOLS"><g id="meeting"><rect class="cls-1" x="12.29" width="6.27" height="4.71"/><g id="_Group_" data-name="&lt;Group&gt;"><path class="cls-2" d="M0,20.93l5,0,2-4.59a5,5,0,0,0-7,4.61Z"/><path class="cls-2" d="M11.17,15.1a5.17,5.17,0,0,0-1.05,1H21.65A8.37,8.37,0,0,0,16,13.36,6.45,6.45,0,0,0,11.17,15.1Z"/><path class="cls-2" d="M26.93,15.87a5,5,0,0,0-2,.43,4.89,4.89,0,0,0-1.07.66c-.36.28-.1,0-.36.28l2.26,3.67H32A5,5,0,0,0,26.93,15.87Z"/><path class="cls-2" d="M26.72,14.64l.21,0,.22,0a3.14,3.14,0,0,0,2-.94,3.11,3.11,0,0,0,.89-2.19,3.15,3.15,0,0,0-6.29,0,3.11,3.11,0,0,0,.89,2.19A3.14,3.14,0,0,0,26.72,14.64Z"/><path class="cls-2" d="M13.14,11.26a5,5,0,0,0,2.49.86l.36,0,.36,0a5,5,0,0,0,1.73-9.57h0A5,5,0,0,0,16,2.09a5,5,0,0,0-2.08.46h0a5,5,0,0,0-.77,8.71Z"/><path class="cls-2" d="M5,7.13a3.77,3.77,0,0,0-3.77,3.78,3.71,3.71,0,0,0,1.36,2.87,3.72,3.72,0,0,0,2.19.88l.22,0,.22,0a3.8,3.8,0,0,0,3.56-3.75A3.78,3.78,0,0,0,5,7.13Z"/></g><path class="cls-3" d="M5.37,25.74V24L8.8,17.83H21.64L25.33,24v1.76Z"/></g></g></g></svg>