<svg id="ArrowUp" xmlns="http://www.w3.org/2000/svg" viewBox="0 0 32 32"><defs><style>.cls-1{fill:#c2c2c2;}</style></defs><title>Meeting2</title><path class="cls-1" d="M20.39,14.93V11.87a1.37,1.37,0,0,0-.16-.63,2.31,2.31,0,0,0-.42-.58,2.21,2.21,0,0,0-.58-.42,1.46,1.46,0,0,0-.62-.16H13.25a1.55,1.55,0,0,0-.64.16,2.33,2.33,0,0,0-.57.42,2,2,0,0,0-.41.57,1.35,1.35,0,0,0-.16.64V15c1.54-.15,3.12-.24,4.67-.24S19,14.79,20.39,14.93Z"/><circle class="cls-1" cx="15.93" cy="6.17" r="2.55"/><path class="cls-1" d="M8.92,14.41a1.33,1.33,0,0,0-.16-.62,2,2,0,0,0-.42-.58,2.21,2.21,0,0,0-.58-.42,1.33,1.33,0,0,0-.62-.16H1.78a1.41,1.41,0,0,0-.64.16,2.29,2.29,0,0,0-.57.41,2.29,2.29,0,0,0-.41.57,1.41,1.41,0,0,0-.16.64V18.6s0,0,0,.06C2.06,17,5.29,15.92,8.92,15.31Z"/><circle class="cls-1" cx="4.46" cy="8.71" r="2.55"/><path class="cls-1" d="M31.86,14.41a1.33,1.33,0,0,0-.16-.62,1.83,1.83,0,0,0-.42-.58,2.33,2.33,0,0,0-.57-.42,1.4,1.4,0,0,0-.63-.16H24.73a1.42,1.42,0,0,0-.65.16,2.18,2.18,0,0,0-1,1,1.41,1.41,0,0,0-.16.64v.83a21.57,21.57,0,0,1,8.92,3.11Z"/><circle class="cls-1" cx="27.4" cy="8.71" r="2.55"/><path class="cls-1" d="M30.12,20.21a19.63,19.63,0,0,0-7.18-2.39,38.8,38.8,0,0,0-4.26-.47c-.83,0-1.67-.08-2.54-.08s-2,0-2.89.1a39.51,39.51,0,0,0-4.33.52,17.67,17.67,0,0,0-7.14,2.59A3.11,3.11,0,0,0,.29,22.83c0,3.07,7.1,5.55,15.85,5.55S32,25.9,32,22.83A3.38,3.38,0,0,0,30.12,20.21Z"/></svg>