<svg xmlns="http://www.w3.org/2000/svg" viewBox="0 0 31.97 19.82"><defs><style>.cls-1{fill:#c2c2c2;}.cls-2{fill:#939393;}.cls-3{fill:#d83b01;}</style></defs><title>migration</title><g id="Layer_2" data-name="Layer 2"><g id="SYMBOLS"><g id="migration"><g id="Artwork_64" data-name="Artwork 64"><path class="cls-1" d="M0,0V19.82H14.86V15.67H8.56v-5.1h6.3V7.43H7.43V0Z"/></g><polygon class="cls-2" points="8.67 6.19 14.5 6.19 8.67 0.36 8.67 6.19"/><g id="Artwork_64-2" data-name="Artwork 64"><path class="cls-1" d="M17.11,0V6.84l6.31,6.34-6.31,6.64H32V7.43H24.54V0Z"/></g><polygon class="cls-2" points="25.77 6.19 31.61 6.19 25.77 0.36 25.77 6.19"/><polygon class="cls-3" points="16.99 11.25 17.45 11.71 18.09 12.36 17.45 12.36 16.02 12.36 10.02 12.36 10.02 14 16.02 14 17.45 14 18.09 14 17.45 14.63 16.22 15.88 17.37 17.03 17.45 16.95 21.23 13.18 19.3 11.25 17.45 9.4 17.37 9.32 16.22 10.47 16.99 11.25 16.99 11.25"/></g></g></g></svg>