<svg id="ArrowUp" xmlns="http://www.w3.org/2000/svg" viewBox="0 0 32 32"><defs><style>.cls-1{fill:#0078d4;}.cls-2{fill:#2f2f2f;}.cls-3{fill:#c2c2c2;}</style></defs><title>MixedReality-blue</title><path class="cls-1" d="M25.87,18.88c1-.15,1.89-.33,2.77-.54a38.06,38.06,0,0,0-5.22-.82c-1.76-.16-3.52-.26-5.28-.31a7.42,7.42,0,0,1-1,2.27c.91,0,1.85,0,2.83-.08s2-.1,2.95-.19S24.91,19,25.87,18.88Z"/><path class="cls-2" d="M10.74,20.55l.86-.19c.29-.07.53-.13.74-.16a4.73,4.73,0,0,0,1.46-.57,4.92,4.92,0,0,0,1.17-1,4.77,4.77,0,0,0,.77-1.33A4.51,4.51,0,0,0,16,15.75V10.34c-1.87,0-3.73.06-5.59.18a52.47,52.47,0,0,0-5.55.66l-1.06.21c-.47.1-1,.22-1.46.35a12.94,12.94,0,0,0-1.41.47,2.58,2.58,0,0,0-.93.54,12,12,0,0,0,.27,2.36A13.27,13.27,0,0,0,1,17.43a11.89,11.89,0,0,0,1.14,2.14,10,10,0,0,0,1.53,1.82,1.22,1.22,0,0,0,.7.36.53.53,0,0,0,.22-.43v-.56a1.89,1.89,0,0,1,.08-.58.94.94,0,0,1,.45-.52,1.16,1.16,0,0,1,.61-.18,1.57,1.57,0,0,1,.73.21l.83.44a9.61,9.61,0,0,0,.91.45,2.39,2.39,0,0,0,1,.21,4.26,4.26,0,0,0,.71-.08C10.16,20.67,10.44,20.61,10.74,20.55Z"/><path class="cls-3" d="M32,17V12.75a2.77,2.77,0,0,0-.93-.54,12.75,12.75,0,0,0-1.4-.47c-.49-.13-1-.25-1.44-.35l-1.08-.21a41.6,41.6,0,0,0-4.41-.58c-1.48-.11-3-.19-4.45-.22V15c.64,0,1.34,0,2.11.07s1.55.09,2.36.16,1.65.16,2.49.26,1.67.22,2.48.37,1.56.32,2.29.52A15.78,15.78,0,0,1,32,17Z"/></svg>