<svg id="ArrowUp" xmlns="http://www.w3.org/2000/svg" viewBox="0 0 32 32"><defs><style>.cls-1{fill:#c2c2c2;}.cls-2{fill:#0078d4;}</style></defs><title>MobilityPlane-blue</title><path class="cls-1" d="M30,18.06a3.06,3.06,0,0,1-.24,1.25,2.49,2.49,0,0,1-.67.92,2.81,2.81,0,0,1-1,.57,3.6,3.6,0,0,1-1.25.2H3a1,1,0,0,1-.59-.2A1,1,0,0,1,2,20.28c0-.13-.12-.4-.23-.79s-.25-.84-.4-1.35-.31-1.05-.47-1.61L.48,15c-.14-.48-.26-.9-.35-1.24A3.49,3.49,0,0,1,0,13.09a1,1,0,0,1,.29-.72A.92.92,0,0,1,1,12.06H5a1,1,0,0,1,.88.55L7.11,15h4.12L7.16,6.42A.82.82,0,0,1,7.06,6a1,1,0,0,1,1-1h3a1,1,0,0,1,.78.38L19.48,15h7.36a3.6,3.6,0,0,1,1.25.21,3.07,3.07,0,0,1,1,.62,2.82,2.82,0,0,1,.67,1A3.17,3.17,0,0,1,30,18.06Z"/><rect class="cls-2" x="10" y="25" width="22" height="2"/></svg>