<svg id="ArrowUp" xmlns="http://www.w3.org/2000/svg" viewBox="0 0 32 32"><defs><style>.cls-1{fill:none;}.cls-2{fill:#0078d4;}.cls-3{fill:#c2c2c2;}.cls-4{fill:#2f2f2f;}</style></defs><title>MobilityLuggage-blue</title><rect class="cls-1" x="13.82" y="2.05" width="4" height="2"/><path class="cls-2" d="M9.82,26.05v-22h-2a2,2,0,0,0-2,2V24.07a2,2,0,0,0,2,2Z"/><path class="cls-3" d="M19.24.63A2.32,2.32,0,0,0,18.6.2a2,2,0,0,0-.78-.15h-4A2,2,0,0,0,13,.2a2.13,2.13,0,0,0-.63.43,2,2,0,0,0-.43.63,1.86,1.86,0,0,0-.16.79V3.54h0V26.05h8v-23h0v-1a2,2,0,0,0-.15-.79A2.13,2.13,0,0,0,19.24.63ZM17.82,4.05h-4v-2h4Z"/><path class="cls-2" d="M23.84,4.05h-2v22h2a2,2,0,0,0,2-2V6A2,2,0,0,0,23.84,4.05Z"/><path class="cls-4" d="M7.41,28.63a2,2,0,1,0,2.83,0A2,2,0,0,0,7.41,28.63Z"/><path class="cls-4" d="M21.41,28.63a2,2,0,1,0,2.83,0A2,2,0,0,0,21.41,28.63Z"/></svg>