<svg id="ArrowUp" xmlns="http://www.w3.org/2000/svg" viewBox="0 0 32 32"><defs><style>.cls-1{fill:#c2c2c2;}.cls-2{fill:#2f2f2f;}.cls-3{fill:#0078d4;}.cls-4{fill:#d2d2d2;}</style></defs><title>MobilityShip-blue</title><polygon class="cls-1" points="0 24.24 0 26.01 5.66 26.01 4.78 24.24 0 24.24"/><polygon class="cls-1" points="27.3 24.24 26.41 26.01 32 26.01 32 24.24 27.3 24.24"/><path class="cls-2" d="M3,20.77l1.74,3.47L5.66,26l.53,1a2.41,2.41,0,0,0,.47.71c.16.15.28.23.38.23a1.91,1.91,0,0,0,.81-.18,2.29,2.29,0,0,0,.7-.51,4.08,4.08,0,0,1,1.37-1,4,4,0,0,1,3.23,0,4.08,4.08,0,0,1,1.37,1,1.85,1.85,0,0,0,.52.42V16.22l-12,4Z"/><rect class="cls-3" x="15.04" y="4" width="2" height="2"/><polygon class="cls-4" points="21.41 8 10.66 8 9.66 10 22.41 10 21.41 8"/><polygon class="cls-1" points="25.04 12 7.04 12 7.04 16.78 16.04 13.78 25.04 16.78 25.04 12"/><path class="cls-2" d="M29,20.77v-.55l-12-4V27.73a2,2,0,0,0,.51-.42,4.08,4.08,0,0,1,1.37-1,4,4,0,0,1,3.23,0,4.08,4.08,0,0,1,1.37,1A2,2,0,0,0,25,28c.09,0,.21-.08.37-.23a2.41,2.41,0,0,0,.47-.71h0l.53-1,.88-1.77Z"/></svg>