<svg id="ArrowUp" xmlns="http://www.w3.org/2000/svg" viewBox="0 0 32 32"><defs><style>.cls-1{fill:#0078d4;}.cls-2{fill:#c2c2c2;}</style></defs><title>MobilitySeat-blue</title><polygon class="cls-1" points="9.88 32 28.98 32 28.98 25.98 13.02 25.98 9.88 32"/><path class="cls-2" d="M30.68,18.43a4,4,0,0,0-.87-1.27,3.81,3.81,0,0,0-1.27-.86A3.89,3.89,0,0,0,27,16H18.19L11.3,2.14a3.59,3.59,0,0,0-.62-.88A4.23,4.23,0,0,0,9.83.58a4,4,0,0,0-1-.43A3.93,3.93,0,0,0,7.77,0H1L12.94,24H27l0,0a4.05,4.05,0,0,0,1.54-.33,3.93,3.93,0,0,0,1.25-.86,4.06,4.06,0,0,0,.85-1.26A3.8,3.8,0,0,0,31,20,3.84,3.84,0,0,0,30.68,18.43Z"/></svg>