<svg id="ArrowUp" xmlns="http://www.w3.org/2000/svg" viewBox="0 0 32 32"><defs><style>.cls-1{fill:#c2c2c2;}.cls-2{fill:#0078d4;}.cls-3{fill:#fff;}.cls-4{fill:#2f2f2f;}</style></defs><title>MobilityBus-blue</title><g id="Artwork_115" data-name="Artwork 115"><path class="cls-1" d="M32,8.62v4.25H29.81L29.74,28.8a10.88,10.88,0,0,1-.06,1.14,3.25,3.25,0,0,1-.27,1,1.76,1.76,0,0,1-.64.74A2.07,2.07,0,0,1,27.6,32l-.89,0c-.31,0-.63,0-.94,0a6.79,6.79,0,0,1-.92-.15,2.34,2.34,0,0,1-.77-.34,1.77,1.77,0,0,1-.53-.64,2.28,2.28,0,0,1-.19-1L8.48,29.78a2.09,2.09,0,0,1-.17.83,2.35,2.35,0,0,1-.46.67,2.24,2.24,0,0,1-.68.45,2,2,0,0,1-.83.16l-2,0a2.8,2.8,0,0,1-1.32-.3,1.59,1.59,0,0,1-.73-.93,6.12,6.12,0,0,1-.22-1.95l.06-15.95H.05V8.48H2.19l0-5.31a3.07,3.07,0,0,1,.26-1.25,3,3,0,0,1,.68-1A3.16,3.16,0,0,1,5.42,0L26.67.09a3.18,3.18,0,0,1,2.94,2,3.19,3.19,0,0,1,.24,1.24l0,5.32Z"/></g><path class="cls-2" d="M5.35,2.17a1,1,0,0,0-.75.32,1,1,0,0,0-.32.74V6.42H27.67V3.23a1,1,0,0,0-.32-.74,1,1,0,0,0-.74-.32Z"/><rect class="cls-3" x="4.28" y="8.55" width="10.63" height="8.5"/><rect class="cls-4" x="4.28" y="25.56" width="23.39" height="2.13"/><rect class="cls-3" x="17.04" y="8.55" width="10.63" height="8.5"/><circle class="cls-3" cx="7.5" cy="21.5" r="1.26"/><circle class="cls-3" cx="24.71" cy="21.5" r="1.26"/></svg>