<svg id="ArrowUp" xmlns="http://www.w3.org/2000/svg" viewBox="0 0 32 32"><defs><style>.cls-1{fill:none;}.cls-2{fill:#2f2f2f;}.cls-3{fill:#c2c2c2;}.cls-4{fill:#0078d4;}</style></defs><title>MobilityPassport-blue</title><polygon class="cls-1" points="9.61 26.11 17.34 27.41 17.34 25.54 9.61 24.24 9.61 26.11"/><path class="cls-2" d="M24.12,27.33s1.29,0,1.29-1.06V1.12A1.21,1.21,0,0,0,24.12,0l-18,2.11L22.35,4.89a1.3,1.3,0,0,1,1.07,1.27V27.41Z"/><path class="cls-3" d="M5.59,4V29c0,.26.17.29.25.3L21.36,32V7a.27.27,0,0,0-.24-.29ZM17.34,27.41,9.61,26.1V24.24l7.73,1.3Zm1.15-8-4-1.8v2l.67.42v1.67L13.48,21l-1.67.36V19.66l.66-.26v-2l-4,.87V16.6l4-1.56V12.49a.87.87,0,0,1,.08-.37,1,1,0,0,1,.22-.3.8.8,0,0,1,.32-.19,1,1,0,0,1,.77.09,1.15,1.15,0,0,1,.32.25,1.38,1.38,0,0,1,.22.35,1.09,1.09,0,0,1,.08.39v2.56l4,2.47Z"/><path class="cls-4" d="M14.48,12.71a1.09,1.09,0,0,0-.08-.39,1.38,1.38,0,0,0-.22-.35,1.15,1.15,0,0,0-.32-.25,1,1,0,0,0-.77-.09.8.8,0,0,0-.32.19,1,1,0,0,0-.22.3.87.87,0,0,0-.08.37V15l-4,1.56v1.66l4-.87v2l-.66.26v1.67L13.48,21l1.67.75V20.05l-.67-.42v-2l4,1.8V17.74l-4-2.47Z"/></svg>