<svg id="ArrowUp" xmlns="http://www.w3.org/2000/svg" viewBox="0 0 32 32"><defs><style>.cls-1{fill:none;}.cls-2{fill:#c2c2c2;}.cls-3{fill:#d2d2d2;}.cls-4{fill:#2f2f2f;}.cls-5{fill:#0078d4;}</style></defs><title>MobilityTruck-blue</title><path class="cls-1" d="M23,11.84v4h7v-2a2,2,0,0,0-2-2Z"/><path class="cls-2" d="M21,9.84V20.09H2v4.74H3.43a4.83,4.83,0,0,1,.31-1,5,5,0,0,1,1.07-1.58,5.19,5.19,0,0,1,1.56-1.06,5.08,5.08,0,0,1,4,0A5.07,5.07,0,0,1,13,23.8a4.52,4.52,0,0,1,.3,1h8a4.3,4.3,0,0,1,.3-1,5.32,5.32,0,0,1,1.07-1.58,5.12,5.12,0,0,1,1.57-1.06,4.82,4.82,0,0,1,2-.4,4.89,4.89,0,0,1,2,.4,5.09,5.09,0,0,1,1.57,1.07,5.19,5.19,0,0,1,1.06,1.56,4.36,4.36,0,0,1,.3,1,1.07,1.07,0,0,0,1-1.06V13.81a4,4,0,0,0-4-4Zm9,4v2H23v-4h5A2,2,0,0,1,30,13.85Z"/><polygon class="cls-3" points="19.01 18.08 19.01 9.84 19.01 3.85 0 3.85 0 18.08 2.02 18.08 19.01 18.08"/><path class="cls-4" d="M26.56,24.44l.15,0,0,0S26.6,24.45,26.56,24.44Z"/><path class="cls-4" d="M26,24.38l.14,0,.14,0a.7.7,0,0,0-.14,0A.58.58,0,0,0,26,24.38Z"/><path class="cls-4" d="M25.52,24.49l.15,0s-.08,0-.11,0Z"/><path class="cls-4" d="M28.24,23.65a3.15,3.15,0,0,0-.95-.65,3.12,3.12,0,0,0-2.35,0,3.27,3.27,0,0,0-1,.65,3.12,3.12,0,0,0-.64,1,1.55,1.55,0,0,0-.07.23,3,3,0,0,0-.17.94,2.85,2.85,0,0,0,.24,1.17c0,.09.09.17.14.26a2.93,2.93,0,0,0,1.45,1.34,3.12,3.12,0,0,0,2.35,0,3,3,0,0,0,.95-.65,3.16,3.16,0,0,0,.51-.69c0-.09.09-.17.13-.26a2.85,2.85,0,0,0,.24-1.17,3.25,3.25,0,0,0-.16-.94,1.55,1.55,0,0,0-.08-.23A3,3,0,0,0,28.24,23.65Zm-2.12,3.71a1.5,1.5,0,0,1-1.5-1.5,1.51,1.51,0,0,1,.41-1H25a.54.54,0,0,1,.09-.12,1.4,1.4,0,0,1,.47-.32,1.45,1.45,0,0,1,.59-.12,1.4,1.4,0,0,1,.58.12,1.55,1.55,0,0,1,.48.32,1.25,1.25,0,0,1,.08.12H27.2a1.48,1.48,0,0,1,.42,1A1.5,1.5,0,0,1,26.12,27.36Z"/><path class="cls-4" d="M25.11,24.76l.05,0a1.26,1.26,0,0,1,.36-.24l0,0s.07,0,.11,0a1.55,1.55,0,0,1,.31-.06.58.58,0,0,1,.14,0,.7.7,0,0,1,.14,0,1.45,1.45,0,0,1,.3.06s.08,0,.11,0l0,0a1.26,1.26,0,0,1,.36.24l.05,0s0,0,0,0l.06,0h.06a1.25,1.25,0,0,0-.08-.12,1.55,1.55,0,0,0-.48-.32,1.4,1.4,0,0,0-.58-.12,1.45,1.45,0,0,0-.59.12,1.4,1.4,0,0,0-.47.32.54.54,0,0,0-.09.12H25l.07,0A0,0,0,0,1,25.11,24.76Z"/><path class="cls-4" d="M10.47,23.65a3.27,3.27,0,0,0-1-.65,3.12,3.12,0,0,0-2.35,0,3.27,3.27,0,0,0-1,.65,3,3,0,0,0-.64,1,1.55,1.55,0,0,0-.07.23,3,3,0,0,0-.17.94,2.85,2.85,0,0,0,.24,1.17c0,.09.09.17.14.26a2.83,2.83,0,0,0,.5.69,3.09,3.09,0,0,0,1,.65,2.84,2.84,0,0,0,1.17.23,2.86,2.86,0,0,0,1.18-.23A2.93,2.93,0,0,0,11,27.2c0-.09.1-.17.14-.26a2.85,2.85,0,0,0,.24-1.17,3,3,0,0,0-.17-.94,1.55,1.55,0,0,0-.07-.23A3,3,0,0,0,10.47,23.65ZM8.34,27.27a1.5,1.5,0,1,1,1.51-1.5A1.5,1.5,0,0,1,8.34,27.27Z"/><circle class="cls-5" cx="8.34" cy="25.77" r="1.5"/><path class="cls-5" d="M27.17,24.83l0,0-.07-.05a1.26,1.26,0,0,0-.36-.24l-.15,0a1.45,1.45,0,0,0-.3-.06l-.14,0-.14,0a1.55,1.55,0,0,0-.31.06l-.15,0a1.26,1.26,0,0,0-.36.24l-.06.05,0,0h0a1.51,1.51,0,0,0-.41,1,1.5,1.5,0,0,0,3,0,1.48,1.48,0,0,0-.42-1Zm-.66,1.1a.34.34,0,0,1-.09.14.56.56,0,0,1-.15.1.33.33,0,0,1-.15,0,.35.35,0,0,1-.16,0,.5.5,0,0,1-.14-.1.45.45,0,0,1-.1-.14.38.38,0,0,1,0-.16.41.41,0,0,1,0-.16.45.45,0,0,1,.1-.14.34.34,0,0,1,.14-.09.35.35,0,0,1,.16,0,.33.33,0,0,1,.15,0,.28.28,0,0,1,.14.09.31.31,0,0,1,.1.15.33.33,0,0,1,0,.15A.41.41,0,0,1,26.51,25.93Z"/><path class="cls-5" d="M25.1,24.78l-.07,0h0Z"/><path class="cls-5" d="M25.1,24.78l.06-.05-.05,0A0,0,0,0,0,25.1,24.78Z"/><path class="cls-5" d="M27.17,24.83h0l-.06,0Z"/><path class="cls-5" d="M27.07,24.73l.07.05s0,0,0,0Z"/><path class="cls-5" d="M26.41,25.47a.28.28,0,0,0-.14-.09.33.33,0,0,0-.15,0,.35.35,0,0,0-.16,0,.34.34,0,0,0-.14.09.45.45,0,0,0-.1.14.41.41,0,0,0,0,.16.38.38,0,0,0,0,.16.45.45,0,0,0,.1.14.5.5,0,0,0,.14.1.35.35,0,0,0,.16,0,.33.33,0,0,0,.15,0,.56.56,0,0,0,.15-.1.34.34,0,0,0,.09-.14.41.41,0,0,0,0-.16.33.33,0,0,0,0-.15A.31.31,0,0,0,26.41,25.47Z"/></svg>