<svg id="ArrowUp" xmlns="http://www.w3.org/2000/svg" viewBox="0 0 32 32"><defs><style>.cls-1{fill:none;}.cls-2{fill:#c2c2c2;}.cls-3{fill:#0078d4;}.cls-4{fill:#2f2f2f;}</style></defs><title>MobilityHotAirBalloon-blue</title><path class="cls-1" d="M13.77,25.82H15.5V21.25A10.74,10.74,0,0,1,12,20.47Z"/><path class="cls-1" d="M16.5,25.82h1.85l1.84-5.41a10.81,10.81,0,0,1-3.69.84Z"/><path class="cls-2" d="M26.55,11.66H5.45a10.6,10.6,0,0,0,5.23,8.17l2,6h0v0h6.66v5.08a1,1,0,0,1-.34.78,1.08,1.08,0,0,1-.78.34h.06a1.15,1.15,0,0,0,1.11-1.12V25.82h0l2.07-6.08A10.62,10.62,0,0,0,26.55,11.66Zm-11,14.16H13.77L12,20.47a10.74,10.74,0,0,0,3.55.78Zm2.85,0H16.5V21.25a10.81,10.81,0,0,0,3.69-.84Z"/><path class="cls-3" d="M5.44,9.66H26.56a10.61,10.61,0,0,0-21.12,0Z"/><path class="cls-4" d="M12.7,30.93V25.85h-.06v5.08a1,1,0,0,0,.34.78,1.08,1.08,0,0,0,.78.34h.06a1.08,1.08,0,0,1-.78-.34A1,1,0,0,1,12.7,30.93Z"/><path class="cls-4" d="M19.36,30.93V25.85H12.7v5.08a1,1,0,0,0,.34.78,1.08,1.08,0,0,0,.78.34h4.42a1.08,1.08,0,0,0,.78-.34A1,1,0,0,0,19.36,30.93Z"/></svg>