<svg id="ArrowUp" xmlns="http://www.w3.org/2000/svg" viewBox="0 0 32 32"><defs><style>.cls-1{fill:none;}.cls-2{fill:#c2c2c2;}.cls-3{fill:#0078d4;}.cls-4{fill:#2f2f2f;}</style></defs><title>MobilityLocation-blue</title><path class="cls-1" d="M21,6.1a7.13,7.13,0,0,0-2.22-1.5,7.05,7.05,0,0,0-5.46,0,7.37,7.37,0,0,0-2.22,1.5,7.49,7.49,0,0,0-1.5,2.22,7,7,0,0,0,0,5.45A7.49,7.49,0,0,0,11.05,16a7.37,7.37,0,0,0,2.22,1.5,6.93,6.93,0,0,0,5.46,0,7,7,0,0,0,3.72-3.72,7,7,0,0,0,0-5.45A7.13,7.13,0,0,0,21,6.1ZM20.61,13a5,5,0,0,1-1.07,1.59A5,5,0,0,1,18,15.65a5,5,0,0,1-3.9,0,5,5,0,0,1-1.59-1.07A5,5,0,0,1,11.39,13a5,5,0,0,1,0-3.89,5,5,0,0,1,1.07-1.59,5,5,0,0,1,7.08,0A5,5,0,0,1,20.61,9.1a5,5,0,0,1,0,3.89Z"/><path class="cls-2" d="M25.34,23.32,24.13,23,20,25.05h8.83a5.68,5.68,0,0,0-1-.71,11.84,11.84,0,0,0-1.19-.57C26.18,23.6,25.76,23.45,25.34,23.32Z"/><path class="cls-2" d="M2.27,28a3.54,3.54,0,0,0,.68.84,5.93,5.93,0,0,0,1,.7A11.61,11.61,0,0,0,5,30.14c.37.17.73.31,1.08.44l.93.31,1.3-3.84H2A1.88,1.88,0,0,0,2.27,28Z"/><path class="cls-2" d="M16,27.05H10.44L9,31.37a32.48,32.48,0,0,0,3.5.52c1.17.1,2.34.16,3.53.16s2.2,0,3.3-.15a32.68,32.68,0,0,0,3.26-.43l-1.51-4.42Z"/><path class="cls-2" d="M26.34,15.51a11.19,11.19,0,0,0-.68-9.93,11.33,11.33,0,0,0-4-4,11.17,11.17,0,0,0-11.3,0,11.33,11.33,0,0,0-4,4,11.2,11.2,0,0,0-.68,9.93,11.35,11.35,0,0,0,2.43,3.63l3.21,3.2c-.62.08-1.3.18-2,.32A22,22,0,0,0,7,23.21,17.18,17.18,0,0,0,4.91,24a7.31,7.31,0,0,0-1.74,1.05H14l2,2,7.91-7.91A11.13,11.13,0,0,0,26.34,15.51Zm-3.89-1.74a7,7,0,0,1-3.72,3.72,6.93,6.93,0,0,1-5.46,0A7.37,7.37,0,0,1,11.05,16a7.49,7.49,0,0,1-1.5-2.22,7,7,0,0,1,0-5.45,7.49,7.49,0,0,1,1.5-2.22,7.37,7.37,0,0,1,2.22-1.5,7.05,7.05,0,0,1,5.46,0,7,7,0,0,1,3.72,3.72,7,7,0,0,1,0,5.45Z"/><path class="cls-3" d="M19.54,7.51a5,5,0,0,0-7.08,0A5,5,0,0,0,11.39,9.1a5,5,0,0,0,0,3.89,5,5,0,0,0,1.07,1.59,5,5,0,0,0,1.59,1.07,5,5,0,0,0,3.9,0,5,5,0,0,0,1.59-1.07A5,5,0,0,0,20.61,13a5,5,0,0,0,0-3.89A5,5,0,0,0,19.54,7.51Z"/><path class="cls-4" d="M23.17,27.05l1.35,4c.28-.07.61-.17,1-.29s.77-.28,1.18-.45.8-.37,1.2-.58A6,6,0,0,0,29,29a3.46,3.46,0,0,0,.76-.88,2,2,0,0,0,.29-1Z"/></svg>