<svg id="ArrowUp" xmlns="http://www.w3.org/2000/svg" viewBox="0 0 32 32"><defs><style>.cls-1{fill:#2f2f2f;}.cls-2{fill:#c2c2c2;}.cls-3{fill:#0078d4;}</style></defs><title>MobilityMotobike-blue</title><path class="cls-1" d="M16.09,32a2.28,2.28,0,0,0,2.28-2.28V20.05a2.28,2.28,0,0,0-2.28-2.28h-.18a2.28,2.28,0,0,0-2.28,2.28v9.67A2.28,2.28,0,0,0,15.91,32Z"/><path class="cls-2" d="M19.34,2.37a3.4,3.4,0,0,1,.22,1.19,3.3,3.3,0,0,1-.22,1.18h2.58V2.37Z"/><path class="cls-2" d="M12.66,2.37H10.08V4.74h2.58a3.3,3.3,0,0,1-.22-1.18A3.4,3.4,0,0,1,12.66,2.37Z"/><rect class="cls-1" x="26.56" y="2.37" width="0.1" height="2.37"/><rect class="cls-1" x="21.92" y="2.37" width="4.64" height="2.37"/><rect class="cls-1" x="5.34" y="2.37" width="0.1" height="2.37"/><rect class="cls-1" x="5.44" y="2.37" width="4.64" height="2.37"/><path class="cls-3" d="M21.14,8.3H10.86a2.57,2.57,0,0,0-2.57,2.57V22.33a2.57,2.57,0,0,0,2.57,2.57h.4V20.05a4.65,4.65,0,0,1,4.65-4.65h.18a4.66,4.66,0,0,1,4.66,4.65V24.9h.39a2.57,2.57,0,0,0,2.57-2.57V10.87A2.57,2.57,0,0,0,21.14,8.3Z"/><path class="cls-3" d="M19.34,2.37a1.52,1.52,0,0,0-.06-.2A3.54,3.54,0,0,0,17.39.28a3.59,3.59,0,0,0-2.78,0A3.51,3.51,0,0,0,13.48,1a3.68,3.68,0,0,0-.76,1.13,1.52,1.52,0,0,0-.06.2,3.4,3.4,0,0,0-.22,1.19,3.3,3.3,0,0,0,.22,1.18,1.66,1.66,0,0,0,.06.21,3.68,3.68,0,0,0,.76,1.13,3.68,3.68,0,0,0,1.13.76A3.59,3.59,0,0,0,16,7.12a3.56,3.56,0,0,0,1.39-.28,3.68,3.68,0,0,0,1.13-.76A3.51,3.51,0,0,0,19.28,5a1.66,1.66,0,0,0,.06-.21,3.3,3.3,0,0,0,.22-1.18A3.4,3.4,0,0,0,19.34,2.37ZM18.19,4.48a1.59,1.59,0,0,1-.14.26,2.59,2.59,0,0,1-.37.5,2.29,2.29,0,0,1-.75.5,2.37,2.37,0,0,1-1.86,0,2.4,2.4,0,0,1-.75-.5,3.08,3.08,0,0,1-.37-.5c0-.08-.1-.16-.14-.26a2.32,2.32,0,0,1-.18-.92,2.41,2.41,0,0,1,.18-.93c0-.09.1-.17.14-.26a2.62,2.62,0,0,1,.37-.49,2.27,2.27,0,0,1,.75-.51,2.49,2.49,0,0,1,1.86,0,2.17,2.17,0,0,1,.75.51,2.25,2.25,0,0,1,.37.49c.05.09.1.17.14.26a2.41,2.41,0,0,1,.18.93A2.32,2.32,0,0,1,18.19,4.48Z"/></svg>