<svg id="ArrowUp" xmlns="http://www.w3.org/2000/svg" viewBox="0 0 32 32"><defs><style>.cls-1{fill:none;}.cls-2{fill:#c2c2c2;}.cls-3{fill:#0078d4;}.cls-4{fill:#2f2f2f;}</style></defs><title>MobilityLocation2-blue</title><polygon class="cls-1" points="17.13 11.67 17.13 2.33 14.88 2.33 14.88 11.67 9.95 6.76 8.34 8.38 16 16.05 23.66 8.38 22.05 6.76 17.13 11.67"/><polygon class="cls-2" points="19.75 27.46 19.32 25.19 12.25 25.19 11.5 27.46 19.75 27.46"/><path class="cls-2" d="M31.43,11.8A16,16,0,0,0,27.3,4.74,15.88,15.88,0,0,0,20.24.62a16.05,16.05,0,0,0-8.48,0A15.88,15.88,0,0,0,4.7,4.74,16,16,0,0,0,.57,11.8,15.79,15.79,0,0,0,0,16.05a15.52,15.52,0,0,0,.16,2.26H31.84A15.52,15.52,0,0,0,32,16.05,15.79,15.79,0,0,0,31.43,11.8ZM16,16.05,8.34,8.38,10,6.76l4.93,4.91V2.33h2.24v9.34l4.93-4.91,1.61,1.62Z"/><path class="cls-2" d="M5.28,27.91a15.88,15.88,0,0,0,3,2.12l1.61-4.84h-7A16,16,0,0,0,5.28,27.91Z"/><path class="cls-3" d="M18.48,20.62H.66c.12.39.25.77.4,1.15s.31.75.48,1.11H18.89Z"/><path class="cls-4" d="M10.73,29.76,10.32,31a17.23,17.23,0,0,0,2.81.78,16.3,16.3,0,0,0,2.87.26,15.66,15.66,0,0,0,4.48-.65l-.3-1.64Z"/><path class="cls-2" d="M21.23,22.88h9.23c.17-.36.33-.74.48-1.11s.28-.76.4-1.15H20.8Z"/><path class="cls-4" d="M22.66,30.6a16,16,0,0,0,3.59-2.27,16.22,16.22,0,0,0,2.88-3.14H21.66Z"/></svg>