<svg id="ArrowUp" xmlns="http://www.w3.org/2000/svg" viewBox="0 0 32 32"><defs><style>.cls-1{fill:#c2c2c2;}.cls-2{fill:#2f2f2f;}.cls-3{fill:#0078d4;}.cls-4{fill:#fff;}</style></defs><title>MobilityTrain-blue</title><path class="cls-1" d="M22.56,28H9.4l-4,4H2.56l4-4a2.65,2.65,0,0,1-1-.33A3.3,3.3,0,0,1,4.74,27a3.15,3.15,0,0,1-.56-.91A3,3,0,0,1,4,25V3A3,3,0,0,1,4.85.88a2.91,2.91,0,0,1,1-.65A3,3,0,0,1,7,0H25a3.05,3.05,0,0,1,1.17.23,3,3,0,0,1,1,.65,2.84,2.84,0,0,1,.64,1A2.85,2.85,0,0,1,28,3V25a3,3,0,0,1-.2,1.07,3.15,3.15,0,0,1-.56.91,3.18,3.18,0,0,1-.83.66,2.66,2.66,0,0,1-1,.33l4,4H26.56Z"/><rect class="cls-2" x="5.98" y="20.17" width="20" height="6"/><path class="cls-3" d="M7,2a.94.94,0,0,0-.7.3A1,1,0,0,0,6,3V8H26V3a1,1,0,0,0-.3-.7A1,1,0,0,0,25,2Z"/><path class="cls-4" d="M26,10H6v8H26ZM9,24a1,1,0,0,1-1-1,1,1,0,0,1,.3-.7A.94.94,0,0,1,9,22a1,1,0,0,1,1,1,.94.94,0,0,1-.3.7A1,1,0,0,1,9,24ZM20,6H12V4h8Zm3,18a1,1,0,0,1-1-1,1,1,0,0,1,.3-.7A.94.94,0,0,1,23,22a1,1,0,0,1,1,1,.94.94,0,0,1-.3.7A1,1,0,0,1,23,24Z"/></svg>