<svg xmlns="http://www.w3.org/2000/svg" viewBox="0 0 31.97 34.05"><defs><style>.cls-1{fill:#c2c2c2;}</style></defs><title>night</title><g id="Layer_2" data-name="Layer 2"><g id="SYMBOLS"><g id="night"><path class="cls-1" d="M2.05,25.51a16.64,16.64,0,0,0,4.54-.61,17.05,17.05,0,0,0,4.09-1.73,17.18,17.18,0,0,0,3.45-2.68A17.55,17.55,0,0,0,16.81,17a17,17,0,0,0,2.34-8.63,16.75,16.75,0,0,0-.57-4.35A17.3,17.3,0,0,0,16.93,0,17.63,17.63,0,0,1,21,1a16.7,16.7,0,0,1,3.62,1.92,17.57,17.57,0,0,1,3,2.69A17.37,17.37,0,0,1,30,9a16.94,16.94,0,0,1,2,8,17.09,17.09,0,0,1-.61,4.54,16.81,16.81,0,0,1-1.73,4.08A17.32,17.32,0,0,1,27,29a17.55,17.55,0,0,1-3.45,2.68,17.46,17.46,0,0,1-4.09,1.73A17.16,17.16,0,0,1,6.27,31.73,17.6,17.6,0,0,1,2.74,29,17.08,17.08,0,0,1,0,25.37c.34.05.69.08,1,.1S1.71,25.51,2.05,25.51Z"/></g></g></g></svg>