<svg xmlns="http://www.w3.org/2000/svg" viewBox="0 0 25.12 31.97"><defs><style>.cls-1{fill:#c2c2c2;}.cls-2{fill:#d83b01;}</style></defs><title>notebook</title><g id="Layer_2" data-name="Layer 2"><g id="SYMBOLS"><g id="notebook"><g id="Artwork_215" data-name="Artwork 215"><path class="cls-1" d="M25.12,0H2.28a1.94,1.94,0,0,0-.82.2A3.17,3.17,0,0,0,.73.73a3.17,3.17,0,0,0-.53.73,1.94,1.94,0,0,0-.2.82V25.72a4.6,4.6,0,0,1,2.28-.6H25.12Zm0,27.4H2.28a2.21,2.21,0,0,0-.89.18A2.33,2.33,0,0,0,.18,28.79a2.32,2.32,0,0,0,0,1.79,2.33,2.33,0,0,0,1.21,1.21,2.21,2.21,0,0,0,.89.18H25.12Z"/></g><rect class="cls-2" x="4.57" y="4.57" width="15.98" height="6.85"/></g></g></g></svg>