<svg id="ArrowUp" xmlns="http://www.w3.org/2000/svg" viewBox="0 0 32 32"><defs><style>.cls-1{fill:#0078d4;}.cls-2{fill:#c2c2c2;}.cls-3{fill:#d2d2d2;}.cls-4{fill:#2f2f2f;}</style></defs><title>Objects2-blue</title><polygon class="cls-1" points="24.01 10.94 17.44 14.21 24.01 17.5 30.59 14.21 24.01 10.94"/><polygon class="cls-2" points="25.16 29.51 32 26.08 32 16.07 25.16 19.48 25.16 29.51"/><polygon class="cls-3" points="15.99 8.07 9.15 11.48 9.15 21.5 13.74 19.23 13.74 13.52 16.01 12.39 15.99 8.07"/><polygon class="cls-2" points="16.01 26.09 22.87 29.51 22.87 19.48 16.03 16.07 16.01 26.09"/><polygon class="cls-2" points="0 18.09 6.86 21.5 6.86 11.48 0.02 8.07 0 18.09"/><polygon class="cls-4" points="8.01 2.94 1.43 6.21 8.01 9.49 14.58 6.21 8.01 2.94"/></svg>