<svg id="ArrowUp" xmlns="http://www.w3.org/2000/svg" viewBox="0 0 32 32"><defs><style>.cls-1{fill:#0078d4;}.cls-2{fill:#c2c2c2;}.cls-3{fill:#d2d2d2;}</style></defs><title>Objects-blue</title><path class="cls-1" d="M15.37,18a7.94,7.94,0,0,0,0-6.2,8.49,8.49,0,0,0-1.72-2.55,8.1,8.1,0,0,0-2.53-1.72A7.77,7.77,0,0,0,8,6.86a7.77,7.77,0,0,0-3.12.63A8.1,8.1,0,0,0,2.35,9.21,8.27,8.27,0,0,0,.63,11.74,8,8,0,0,0,.63,18a8.32,8.32,0,0,0,1.72,2.54,8.07,8.07,0,0,0,2.53,1.71A7.61,7.61,0,0,0,8,22.86a7.61,7.61,0,0,0,3.12-.64,7.93,7.93,0,0,0,2.53-1.72A8.44,8.44,0,0,0,15.37,18Z"/><path class="cls-2" d="M20.88,14.86c-1.45,2.49-2.87,5-4.29,7.43s-2.85,4.94-4.29,7.42H29.45c-1.44-2.48-2.87-5-4.29-7.42Z"/><path class="cls-3" d="M16,8.48a10.11,10.11,0,0,1,1.68,3,10.29,10.29,0,0,1,.61,3.35l2.59-4.5,4.6,8H32v-16H16Z"/></svg>