<svg xmlns="http://www.w3.org/2000/svg" viewBox="0 0 31.97 27.4"><defs><style>.cls-1{fill:#d83b01;}.cls-2{fill:#2f2f2f;}.cls-3{fill:#c2c2c2;}</style></defs><title>objects</title><g id="Layer_2" data-name="Layer 2"><g id="SYMBOLS"><g id="objects"><path class="cls-1" d="M8,20.55a7.72,7.72,0,0,0,3.11-.63,8.14,8.14,0,0,0,2.54-1.72,8.28,8.28,0,0,0,1.71-2.55A7.66,7.66,0,0,0,16,12.56a7.74,7.74,0,0,0-.63-3.1,8.23,8.23,0,0,0-1.71-2.54A8.14,8.14,0,0,0,11.1,5.2,7.72,7.72,0,0,0,8,4.57a7.75,7.75,0,0,0-3.11.63A8.08,8.08,0,0,0,.63,9.45a8,8,0,0,0,0,6.22,8.17,8.17,0,0,0,4.25,4.25A7.75,7.75,0,0,0,8,20.55Z"/><path class="cls-2" d="M29.42,27.4c-1.44-2.48-2.87-5-4.28-7.42l-4.29-7.42L16.57,20c-1.41,2.46-2.84,4.94-4.28,7.42Z"/><path class="cls-3" d="M32,0H16V6.19a10.12,10.12,0,0,1,2.29,6.3L20.85,8l4.61,8H32Z"/></g></g></g></svg>