<svg xmlns="http://www.w3.org/2000/svg" viewBox="0 0 29.97 31.97"><defs><style>.cls-1{fill:#c2c2c2;}.cls-2{fill:#d83b01;}.cls-3{fill:#939393;}.cls-4{fill:#2f2f2f;}.cls-5{fill:#fff;}</style></defs><title>on_premises</title><g id="Layer_2" data-name="Layer 2"><g id="SYMBOLS"><polygon class="cls-1" points="14.99 8.22 14.99 5.72 0 5.72 0 31.97 7.49 31.97 7.49 8.22 14.99 8.22"/><path class="cls-1" d="M12.49,23.2H20V32h2.5V10.71H10V32h2.5Zm5-10H20v2.5h-2.5Zm0,5H20v2.5h-2.5Zm-5-5H15v2.5h-2.5Zm0,5H15v2.5h-2.5Z"/><rect class="cls-2" x="14.99" y="25.7" width="2.49" height="6.27"/><path class="cls-2" d="M5,30.7H2.49V28.2H5Zm0-5H2.49V23.2H5Zm0-5H2.49v-2.5H5Zm0-5H2.49v-2.5H5Zm0-5H2.49V8.22H5Z"/><polygon class="cls-3" points="22.48 0 22.48 8.22 24.97 8.22 24.97 31.97 29.97 31.97 29.97 7.49 22.48 0"/><rect class="cls-4" x="2.49" y="13.21" width="2.5" height="2.5"/><rect class="cls-5" x="2.49" y="8.22" width="2.5" height="2.5"/><rect class="cls-5" x="2.49" y="18.21" width="2.5" height="2.5"/><rect class="cls-5" x="2.49" y="23.2" width="2.5" height="2.5"/><rect class="cls-5" x="2.49" y="28.2" width="2.5" height="2.5"/><rect class="cls-4" x="12.49" y="18.21" width="2.5" height="2.5"/><rect class="cls-5" x="12.49" y="13.21" width="2.5" height="2.5"/><rect class="cls-5" x="17.48" y="18.21" width="2.5" height="2.5"/><rect class="cls-4" x="17.48" y="13.21" width="2.5" height="2.5"/><polygon class="cls-5" points="19.98 23.2 12.49 23.2 12.49 31.97 14.99 31.97 14.99 25.7 17.48 25.7 17.48 31.97 19.98 31.97 19.98 23.2"/></g></g></svg>