<svg xmlns="http://www.w3.org/2000/svg" viewBox="0 0 27.38 31.97"><defs><style>.cls-1{fill:#c2c2c2;}.cls-2{fill:#d83b01;}.cls-3{fill:#2f2f2f;}.cls-4{fill:#fff;}</style></defs><title>on_premises_building</title><g id="Layer_2" data-name="Layer 2"><g id="SYMBOLS"><g id="on_premises_building"><polygon class="cls-1" points="18.25 3.04 18.25 0 0 0 0 31.97 9.13 31.97 9.13 3.04 18.25 3.04"/><path class="cls-1" d="M15.21,21.29h9.12V32h3.05V6.08H12.16V32h3.05ZM21.29,9.13h3v3h-3Zm0,6.08h3v3h-3ZM15.21,9.13h3v3h-3Zm0,6.08h3v3h-3Z"/><rect class="cls-2" x="18.25" y="24.34" width="3.04" height="7.63"/><path class="cls-2" d="M6.08,30.42H3v-3h3Zm0-6.08H3V21.29h3Zm0-6.09H3v-3h3Zm0-6.08H3v-3h3Zm0-6.09H3V3h3Z"/><rect class="cls-3" x="3.04" y="9.13" width="3.04" height="3.04"/><rect class="cls-4" x="3.04" y="3.04" width="3.04" height="3.04"/><rect class="cls-4" x="3.04" y="15.21" width="3.04" height="3.04"/><rect class="cls-4" x="3.04" y="21.29" width="3.04" height="3.04"/><rect class="cls-4" x="3.04" y="27.38" width="3.04" height="3.04"/><rect class="cls-3" x="15.21" y="15.21" width="3.04" height="3.04"/><rect class="cls-4" x="15.21" y="9.13" width="3.04" height="3.04"/><rect class="cls-4" x="21.29" y="15.21" width="3.04" height="3.04"/><rect class="cls-3" x="21.29" y="9.13" width="3.04" height="3.04"/><polygon class="cls-4" points="24.33 21.29 15.21 21.29 15.21 31.97 18.25 31.97 18.25 24.34 21.29 24.34 21.29 31.97 24.33 31.97 24.33 21.29"/></g></g></g></svg>