<svg id="ArrowUp" xmlns="http://www.w3.org/2000/svg" viewBox="0 0 32 32"><defs><style>.cls-1{fill:none;}.cls-2{fill:#0078d4;}.cls-3{fill:#d2d2d2;}.cls-4{fill:#2f2f2f;}.cls-5{fill:#c2c2c2;}</style></defs><title>OrganizationDrawer-blue</title><rect class="cls-1" x="11.43" y="27.43" width="9.14" height="2.29"/><polygon class="cls-2" points="2.43 22.86 29.57 22.86 28.45 20.57 3.55 20.57 2.43 22.86"/><polygon class="cls-3" points="8.13 11.43 4.71 18.29 11.43 18.29 11.43 11.43 8.13 11.43"/><polygon class="cls-3" points="20.57 11.43 20.57 18.29 27.29 18.29 23.88 11.43 20.57 11.43"/><rect class="cls-3" x="13.71" y="11.43" width="4.57" height="6.86"/><path class="cls-4" d="M0,32H32V25.14H0Zm11.43-4.57h9.14v2.28H11.43Z"/><polygon class="cls-4" points="29.71 11.43 26.41 11.43 28.7 16 29.71 16 29.71 11.43"/><polygon class="cls-4" points="2.29 16 3.3 16 5.59 11.43 2.29 11.43 2.29 16"/><polygon class="cls-5" points="7.13 0 2.55 9.14 29.45 9.14 24.88 0 7.13 0"/></svg>