<svg xmlns="http://www.w3.org/2000/svg" viewBox="0 0 20.21 31.97"><defs><style>.cls-1{fill:#2f2f2f;}.cls-2{fill:#c2c2c2;}.cls-3{fill:#d83b01;}</style></defs><title>paintbrush</title><g id="Layer_2" data-name="Layer 2"><g id="SYMBOLS"><g id="paintbrush"><path class="cls-1" d="M18.27,3.43A3.42,3.42,0,0,1,20.21.34a.73.73,0,0,0-.36-.26A1.32,1.32,0,0,0,19.41,0H2.28a2.21,2.21,0,0,0-.89.18A2.33,2.33,0,0,0,.18,1.39,2.21,2.21,0,0,0,0,2.28V13.7H18.27Z"/><path class="cls-2" d="M18.27,18.27V16H0v2.29H6.85V29.68a2.23,2.23,0,0,0,.18.9,2.33,2.33,0,0,0,1.21,1.21,2.21,2.21,0,0,0,.89.18,2.26,2.26,0,0,0,.9-.18,2.33,2.33,0,0,0,1.21-1.21,2.23,2.23,0,0,0,.18-.9V18.27Z"/><path class="cls-3" d="M18.27,3.43A3.42,3.42,0,0,1,20.21.34a.73.73,0,0,0-.36-.26A1.32,1.32,0,0,0,19.41,0H2.28a2.21,2.21,0,0,0-.89.18A2.33,2.33,0,0,0,.18,1.39,2.21,2.21,0,0,0,0,2.28V6.85H18.27Z"/></g></g></g></svg>