<svg id="ArrowUp" xmlns="http://www.w3.org/2000/svg" viewBox="0 0 32 32"><defs><style>.cls-1{fill:#c2c2c2;}.cls-2{fill:#0078d4;}.cls-3{fill:#2f2f2f;}</style></defs><title>PaintColorPaletteColor-blue</title><path class="cls-1" d="M31.43,20.24a15.89,15.89,0,0,0-1.62-12.3,16.27,16.27,0,0,0-5.75-5.75,15.89,15.89,0,0,0-16.12,0A16.27,16.27,0,0,0,2.19,7.94,15.8,15.8,0,0,0,0,16a2.18,2.18,0,0,0,.18.89,2.29,2.29,0,0,0,.49.73,2.55,2.55,0,0,0,.72.49,2.23,2.23,0,0,0,.9.18,4,4,0,0,0,1.2-.17,7.5,7.5,0,0,0,1-.42,8.82,8.82,0,0,0,.93-.56,8.32,8.32,0,0,1,1-.55,6.14,6.14,0,0,1,1.19-.42A6.44,6.44,0,0,1,9.14,16a6.65,6.65,0,0,1,2.68.54,6.76,6.76,0,0,1,3.64,3.64A6.68,6.68,0,0,1,16,22.86a6.42,6.42,0,0,1-.17,1.54,6,6,0,0,1-.42,1.2,8.32,8.32,0,0,1-.55,1,8.82,8.82,0,0,0-.56.93,7.5,7.5,0,0,0-.42,1,4,4,0,0,0-.17,1.2,2.23,2.23,0,0,0,.18.9,2.55,2.55,0,0,0,.49.72,2.29,2.29,0,0,0,.73.49A2.18,2.18,0,0,0,16,32a15.8,15.8,0,0,0,8.06-2.19,16.27,16.27,0,0,0,5.75-5.75A15.8,15.8,0,0,0,31.43,20.24ZM9,12.32a2,2,0,0,1-.49.72,2.27,2.27,0,0,1-.72.5,2.35,2.35,0,0,1-.89.17,2.44,2.44,0,0,1-.9-.17,2.39,2.39,0,0,1-.72-.5,2.14,2.14,0,0,1-.49-.72,2.29,2.29,0,0,1,0-1.78,2.29,2.29,0,0,1,.49-.73A2.36,2.36,0,0,1,6,9.32a2.26,2.26,0,0,1,.9-.18,2.18,2.18,0,0,1,.89.18,2.24,2.24,0,0,1,.72.49,2.13,2.13,0,0,1,.49.73,2.29,2.29,0,0,1,0,1.78Zm6.86-4.57a2.24,2.24,0,0,1-.49.72,2.19,2.19,0,0,1-.72.49,2.32,2.32,0,0,1-1.79,0,2.19,2.19,0,0,1-.72-.49,2.24,2.24,0,0,1-.49-.72,2.18,2.18,0,0,1-.18-.89,2.26,2.26,0,0,1,.18-.9,2.33,2.33,0,0,1,1.21-1.21,2.32,2.32,0,0,1,1.79,0A2.33,2.33,0,0,1,15.82,6a2.26,2.26,0,0,1,.18.9A2.18,2.18,0,0,1,15.82,7.75Zm5.42,3a2.36,2.36,0,0,1-.49-.72,2.26,2.26,0,0,1-.18-.9,2.18,2.18,0,0,1,.18-.89,2.36,2.36,0,0,1,.49-.72A2.19,2.19,0,0,1,22,7a2.26,2.26,0,0,1,.9-.18,2.18,2.18,0,0,1,.89.18,2.09,2.09,0,0,1,.72.49,2.25,2.25,0,0,1,.67,1.61A2.26,2.26,0,0,1,25,10a2.19,2.19,0,0,1-.49.72,2.24,2.24,0,0,1-.72.49,2.18,2.18,0,0,1-.89.18,2.26,2.26,0,0,1-.9-.18A2.36,2.36,0,0,1,21.24,10.76Zm6,8.42A2.33,2.33,0,0,1,26,20.39a2.26,2.26,0,0,1-.9.18,2.18,2.18,0,0,1-.89-.18,2.36,2.36,0,0,1-.72-.49,2.25,2.25,0,0,1-.67-1.61,2.23,2.23,0,0,1,.18-.9,2.19,2.19,0,0,1,.49-.72,2.36,2.36,0,0,1,.72-.49,2.18,2.18,0,0,1,.89-.18,2.26,2.26,0,0,1,.9.18,2.33,2.33,0,0,1,1.21,1.21,2.23,2.23,0,0,1,.18.9A2.18,2.18,0,0,1,27.25,19.18Z"/><path class="cls-2" d="M15.33,5.24a2.36,2.36,0,0,0-.72-.49,2.32,2.32,0,0,0-1.79,0A2.33,2.33,0,0,0,11.61,6a2.26,2.26,0,0,0-.18.9,2.18,2.18,0,0,0,.18.89,2.24,2.24,0,0,0,.49.72,2.25,2.25,0,0,0,1.61.67,2.23,2.23,0,0,0,.9-.18,2.19,2.19,0,0,0,.72-.49,2.24,2.24,0,0,0,.49-.72A2.18,2.18,0,0,0,16,6.86a2.26,2.26,0,0,0-.18-.9A2.36,2.36,0,0,0,15.33,5.24Z"/><path class="cls-3" d="M26.76,16.67a2.36,2.36,0,0,0-.72-.49,2.26,2.26,0,0,0-.9-.18,2.18,2.18,0,0,0-.89.18,2.36,2.36,0,0,0-.72.49,2.19,2.19,0,0,0-.49.72,2.23,2.23,0,0,0-.18.9,2.25,2.25,0,0,0,.67,1.61,2.36,2.36,0,0,0,.72.49,2.18,2.18,0,0,0,.89.18,2.26,2.26,0,0,0,.9-.18,2.33,2.33,0,0,0,1.21-1.21,2.18,2.18,0,0,0,.18-.89,2.23,2.23,0,0,0-.18-.9A2.36,2.36,0,0,0,26.76,16.67Z"/></svg>