<svg xmlns="http://www.w3.org/2000/svg" viewBox="0 0 31.97 31.97"><defs><style>.cls-1{fill:#c2c2c2;}.cls-2{fill:#fff;}.cls-3{fill:#d83b01;}.cls-4{fill:#2f2f2f;}</style></defs><title>paint_color</title><g id="Layer_2" data-name="Layer 2"><g id="SYMBOLS"><g id="paint_color"><path class="cls-1" d="M31.4,11.75a15.8,15.8,0,0,0-1.62-3.82A16,16,0,0,0,24,2.19a15.88,15.88,0,0,0-16.11,0A16,16,0,0,0,2.19,7.93,15.8,15.8,0,0,0,0,16a2.26,2.26,0,0,0,.18.9,2.33,2.33,0,0,0,1.21,1.21,2.21,2.21,0,0,0,.89.18,4,4,0,0,0,1.21-.17,5.87,5.87,0,0,0,1-.42c.31-.17.62-.35.92-.55a7.27,7.27,0,0,1,1-.56,7.7,7.7,0,0,1,1.18-.42A6.44,6.44,0,0,1,9.13,16a6.65,6.65,0,0,1,2.68.54A7,7,0,0,1,14,18a7.13,7.13,0,0,1,1.46,2.18A6.63,6.63,0,0,1,16,22.83a6,6,0,0,1-.17,1.55,6.9,6.9,0,0,1-.41,1.19,8.36,8.36,0,0,1-.56,1c-.2.31-.38.62-.55.93a5.87,5.87,0,0,0-.42,1,4,4,0,0,0-.17,1.2,2.23,2.23,0,0,0,.18.9,2.33,2.33,0,0,0,1.21,1.21A2.21,2.21,0,0,0,16,32,15.8,15.8,0,0,0,24,29.78,16,16,0,0,0,29.78,24,15.94,15.94,0,0,0,31.4,11.75ZM9,12.31a2.39,2.39,0,0,1-.5.72,2.14,2.14,0,0,1-.72.49,2.29,2.29,0,0,1-1.78,0A2.24,2.24,0,0,1,5.24,13a2.39,2.39,0,0,1-.5-.72,2.35,2.35,0,0,1-.17-.89,2.44,2.44,0,0,1,.17-.9,2.39,2.39,0,0,1,.5-.72A2.42,2.42,0,0,1,6,9.31a2.29,2.29,0,0,1,1.78,0,2.29,2.29,0,0,1,.72.49,2.39,2.39,0,0,1,.5.72,2.44,2.44,0,0,1,.17.9A2.35,2.35,0,0,1,9,12.31Zm6.85-4.57A2.37,2.37,0,0,1,14.59,9a2.41,2.41,0,0,1-1.78,0,2.27,2.27,0,0,1-.72-.5,2,2,0,0,1-.49-.72A2.29,2.29,0,0,1,11.6,6a2.33,2.33,0,0,1,1.21-1.21,2.29,2.29,0,0,1,1.78,0,2.13,2.13,0,0,1,.73.49,2.42,2.42,0,0,1,.49.72,2.41,2.41,0,0,1,0,1.78Zm5.41,3a2.36,2.36,0,0,1-.49-.72,2.26,2.26,0,0,1-.18-.9,2.21,2.21,0,0,1,.18-.89A2.33,2.33,0,0,1,21.94,7a2.32,2.32,0,0,1,1.79,0,2.33,2.33,0,0,1,1.21,1.21,2.21,2.21,0,0,1,.18.89,2.26,2.26,0,0,1-.18.9,2.33,2.33,0,0,1-1.21,1.21,2.32,2.32,0,0,1-1.79,0A2.36,2.36,0,0,1,21.22,10.75Zm6,8.41A2.33,2.33,0,0,1,26,20.37a2.29,2.29,0,0,1-1.78,0,2.29,2.29,0,0,1-.73-.49,2.55,2.55,0,0,1-.49-.72,2.29,2.29,0,0,1,0-1.78,2.28,2.28,0,0,1,1.22-1.22,2.29,2.29,0,0,1,1.78,0,2.55,2.55,0,0,1,.72.49,2.29,2.29,0,0,1,.49.73,2.29,2.29,0,0,1,0,1.78Z"/><path class="cls-2" d="M8.46,9.8a2.29,2.29,0,0,0-.72-.49A2.29,2.29,0,0,0,6,9.31a2.42,2.42,0,0,0-.72.49,2.39,2.39,0,0,0-.5.72,2.44,2.44,0,0,0-.17.9,2.35,2.35,0,0,0,.17.89,2.39,2.39,0,0,0,.5.72,2.24,2.24,0,0,0,.72.49,2.29,2.29,0,0,0,1.78,0A2.14,2.14,0,0,0,8.46,13a2.39,2.39,0,0,0,.5-.72,2.35,2.35,0,0,0,.17-.89,2.44,2.44,0,0,0-.17-.9A2.39,2.39,0,0,0,8.46,9.8Z"/><path class="cls-3" d="M15.32,5.24a2.13,2.13,0,0,0-.73-.49,2.29,2.29,0,0,0-1.78,0A2.33,2.33,0,0,0,11.6,6a2.29,2.29,0,0,0,0,1.78,2,2,0,0,0,.49.72,2.27,2.27,0,0,0,.72.5,2.41,2.41,0,0,0,1.78,0,2.37,2.37,0,0,0,1.22-1.22,2.41,2.41,0,0,0,0-1.78A2.42,2.42,0,0,0,15.32,5.24Z"/><path class="cls-2" d="M23.73,11.24A2.33,2.33,0,0,0,24.94,10a2.26,2.26,0,0,0,.18-.9,2.21,2.21,0,0,0-.18-.89A2.33,2.33,0,0,0,23.73,7a2.32,2.32,0,0,0-1.79,0,2.33,2.33,0,0,0-1.21,1.21,2.21,2.21,0,0,0-.18.89,2.26,2.26,0,0,0,.18.9,2.33,2.33,0,0,0,1.21,1.21,2.32,2.32,0,0,0,1.79,0Z"/><path class="cls-4" d="M26.73,16.65a2.55,2.55,0,0,0-.72-.49,2.29,2.29,0,0,0-1.78,0A2.28,2.28,0,0,0,23,17.38a2.29,2.29,0,0,0,0,1.78,2.55,2.55,0,0,0,.49.72,2.29,2.29,0,0,0,.73.49,2.29,2.29,0,0,0,1.78,0,2.33,2.33,0,0,0,1.21-1.21,2.29,2.29,0,0,0,0-1.78A2.29,2.29,0,0,0,26.73,16.65Z"/></g></g></g></svg>