<svg id="ArrowUp" xmlns="http://www.w3.org/2000/svg" viewBox="0 0 32 32"><defs><style>.cls-1{fill:#2f2f2f;}.cls-2{fill:#c2c2c2;}.cls-3{fill:#0078d4;}</style></defs><title>PaintBrushColor-blue</title><rect class="cls-1" x="6" y="6.86" width="18.29" height="6.86"/><path class="cls-2" d="M6,18.29h6.85V29.71a2.23,2.23,0,0,0,.18.9,2.36,2.36,0,0,0,.49.72,2.29,2.29,0,0,0,.73.49,2.29,2.29,0,0,0,1.78,0,2.14,2.14,0,0,0,.72-.49,2.39,2.39,0,0,0,.5-.72,2.22,2.22,0,0,0,.17-.9V18.29h6.86V16H6Z"/><path class="cls-3" d="M24.28,3.43a3.36,3.36,0,0,1,.53-1.82A3.36,3.36,0,0,1,26.23.34a.83.83,0,0,0-.36-.26A1.33,1.33,0,0,0,25.42,0H8.28a2.18,2.18,0,0,0-.89.18,2.24,2.24,0,0,0-.72.49,2.39,2.39,0,0,0-.5.72,2.4,2.4,0,0,0-.17.9V6.86H24.28Z"/></svg>