<svg id="ArrowUp" xmlns="http://www.w3.org/2000/svg" viewBox="0 0 32 32"><defs><style>.cls-1{fill:none;}.cls-2{fill:#0078d4;}.cls-3{fill:#c2c2c2;}.cls-4{fill:#2f2f2f;}</style></defs><title>ParagraphWritingWordDocument-blue</title><path class="cls-1" d="M8.21,2a1.06,1.06,0,0,1-.12-.34c0-.12,0-.24-.07-.37H8a1.35,1.35,0,0,0-.08.36A1.1,1.1,0,0,1,7.79,2L5.92,6.54h4.14Z"/><path class="cls-2" d="M5.42,7.67h5.12l1.29,3H13.4L8.77,0H7.29L2.67,10.67H4.25ZM7.79,2a1.1,1.1,0,0,0,.11-.35A1.35,1.35,0,0,1,8,1.31H8c0,.13.05.25.07.37A1.06,1.06,0,0,0,8.21,2l1.85,4.52H5.92Z"/><rect class="cls-3" x="2.71" y="29.33" width="26.62" height="2.67"/><rect class="cls-3" x="2.71" y="24" width="26.62" height="2.67"/><rect class="cls-3" x="2.71" y="18.67" width="26.62" height="2.67"/><rect class="cls-4" x="16" y="8" width="13.33" height="2.67"/><rect class="cls-3" x="2.71" y="13.33" width="26.62" height="2.67"/></svg>