<svg id="ArrowUp" xmlns="http://www.w3.org/2000/svg" viewBox="0 0 32 32"><defs><style>.cls-1{fill:#0078d4;}.cls-2{fill:#2f2f2e;}</style></defs><title>Pen-blue</title><path class="cls-1" d="M17.43,16.83a1.26,1.26,0,0,1-1.54-1.54l.41-1.53,1-3.63,2.66,2.66,2.66,2.66-3.63,1Z"/><path class="cls-1" d="M28.08,10l-4.56,4.57L18.16,9.24,23,4.45A13.71,13.71,0,0,1,28.08,10Z"/><path d="M13.71,17.15a1.24,1.24,0,0,0,0,1.78,1.26,1.26,0,0,0,1.78,0l.84-.83-1.84-1.84Z"/><path class="cls-2" d="M32,16A16,16,0,0,1,3.28,25.7l-.59,2.6a1.27,1.27,0,0,1-1.22,1,1.45,1.45,0,0,1-.29,0,1.27,1.27,0,0,1-.95-1.51L1.82,20.8l7,1.6a1.26,1.26,0,1,1-.56,2.46l-2.94-.67A13.35,13.35,0,0,0,16,29.47,13.49,13.49,0,0,0,29.48,16a13.33,13.33,0,0,0-1.4-6A13.71,13.71,0,0,0,23,4.45,13.49,13.49,0,0,0,2.52,16,1.26,1.26,0,1,1,0,16a16,16,0,1,1,32,0Z"/></svg>