<svg xmlns="http://www.w3.org/2000/svg" viewBox="0 0 31.97 23.21"><defs><style>.cls-1{fill:#c2c2c2;}.cls-2{fill:#939393;}.cls-3{fill:#2f2f2f;}.cls-4{fill:#d83b01;}</style></defs><title>picture_photo</title><g id="Layer_2" data-name="Layer 2"><g id="SYMBOLS"><g id="picture_photo"><path class="cls-1" d="M0,12.08l8-8L19.41,15.52,24,11l8,8V0H0Z"/><polygon class="cls-2" points="0 23.21 0 15.7 7.99 7.69 23.49 23.21 0 23.21"/><polygon class="cls-3" points="31.97 23.21 26.74 23.21 21.01 17.5 23.98 14.54 31.97 22.55 31.97 23.21"/><path class="cls-4" d="M24.65,4.67A2.21,2.21,0,0,1,26.26,4a2.18,2.18,0,0,1,1.6.67,2.19,2.19,0,0,1,.68,1.61,2.15,2.15,0,0,1-.68,1.6,2.15,2.15,0,0,1-1.6.68,2.19,2.19,0,0,1-1.61-.68A2.18,2.18,0,0,1,24,6.28,2.21,2.21,0,0,1,24.65,4.67Z"/></g></g></g></svg>