<svg id="ArrowUp" xmlns="http://www.w3.org/2000/svg" viewBox="0 0 32 32"><defs><style>.cls-1{fill:#c2c2c2;}.cls-2{fill:#2f2f2f;}.cls-3{fill:#0078d4;}</style></defs><title>PicturePhotoImage-blue</title><path class="cls-1" d="M32,4.38H0V16.47l8-8L19.43,19.92,24,15.35l8,8Zm-4.11,7.89a2.23,2.23,0,0,1-3.21,0,2.19,2.19,0,0,1-.68-1.6,2.27,2.27,0,0,1,3.89-1.61,2.17,2.17,0,0,1,.68,1.61A2.15,2.15,0,0,1,27.89,12.27Z"/><polygon class="cls-1" points="0 27.62 23.52 27.62 8 12.08 0 20.1 0 27.62"/><polygon class="cls-2" points="32 26.96 24 18.94 21.04 21.9 26.77 27.62 32 27.62 32 26.96"/><path class="cls-3" d="M26.29,8.38A2.32,2.32,0,0,0,24,10.67,2.32,2.32,0,0,0,26.29,13a2.32,2.32,0,0,0,2.28-2.28,2.17,2.17,0,0,0-.68-1.61A2.2,2.2,0,0,0,26.29,8.38Z"/></svg>