<svg xmlns="http://www.w3.org/2000/svg" viewBox="0 0 31.97 22.83"><defs><style>.cls-1{fill:#fff;}.cls-2{fill:#c2c2c2;}.cls-3{fill:none;}.cls-4{fill:#d83b01;}.cls-5{fill:#939393;}</style></defs><title>picture_photo_2</title><g id="Layer_2" data-name="Layer 2"><g id="SYMBOLS"><g id="picture_photo_2"><polygon class="cls-1" points="31.97 18.93 23.98 10.95 19.41 15.52 7.99 4.1 0 12.08 0 0 31.97 0 31.97 18.93"/><path class="cls-2" d="M0,12.08l8-8L19.41,15.52,24,11l8,8V0H0ZM25.46,4.91a1.14,1.14,0,0,1,1.94.8,1.14,1.14,0,1,1-1.94-.8Z"/><polygon class="cls-3" points="21.01 17.13 26.74 22.83 31.97 22.83 31.97 22.17 23.98 14.16 21.01 17.13"/><polygon class="cls-3" points="0 15.32 0 22.83 23.49 22.83 7.99 7.31 0 15.32"/><path class="cls-4" d="M26.26,6.85A1.16,1.16,0,0,0,27.4,5.71a1.14,1.14,0,1,0-1.94.8A1.07,1.07,0,0,0,26.26,6.85Z"/><polygon class="cls-5" points="0 22.83 0 15.32 7.99 7.31 23.49 22.83 0 22.83"/><polygon class="cls-5" points="31.97 22.83 26.74 22.83 21.01 17.13 23.98 14.16 31.97 22.17 31.97 22.83"/></g></g></g></svg>