<svg xmlns="http://www.w3.org/2000/svg" viewBox="0 0 31.97 29.68"><defs><style>.cls-1{fill:#d83b01;}.cls-2{fill:#c2c2c2;}.cls-3{fill:#2f2f2f;}</style></defs><title>piggy_bank</title><g id="Layer_2" data-name="Layer 2"><g id="SYMBOLS"><g id="piggy_bank"><path class="cls-1" d="M18.66,5.44l5.67.89a3.39,3.39,0,0,0,1-1.22,3.63,3.63,0,0,0,.34-1.52,3.4,3.4,0,0,0-.31-1.43A3.49,3.49,0,0,0,24.5,1,3.92,3.92,0,0,0,23.3.27,3.83,3.83,0,0,0,21.87,0a3.68,3.68,0,0,0-1.43.28A3.76,3.76,0,0,0,19.25,1a3.61,3.61,0,0,0-.82,1.15,3.38,3.38,0,0,0-.3,1.42,3.19,3.19,0,0,0,.14,1A3.47,3.47,0,0,0,18.66,5.44Z"/><path class="cls-2" d="M31.2,12.2a8.36,8.36,0,0,0-4.78-4.71,5.61,5.61,0,0,1-.72.67,9,9,0,0,1-.81.56l-7.5-1.16a8.49,8.49,0,0,1-.93-1.4,5.22,5.22,0,0,1-.53-1.59H13.29c-.69-.35-1.37-.68-2-1S9.86,3,9.13,2.73V7.55A11.21,11.21,0,0,0,7.21,8.78a17.21,17.21,0,0,0-1.7,1.5c-.53.53-1,1.09-1.54,1.66S3,13.11,2.52,13.7l-.66,0a5,5,0,0,0-.78,0,2.19,2.19,0,0,0-.7.2A.7.7,0,0,0,0,14.4l0,0,0,0v3.39a1.11,1.11,0,0,0,.15.63.85.85,0,0,0,.4.3,1.92,1.92,0,0,0,.56.1h.6L3.12,20a3.57,3.57,0,0,0,.47,1,9,9,0,0,0,.69.84,7.34,7.34,0,0,0,2.24,1.62,10.22,10.22,0,0,0,1.24.47c.43.13.89.26,1.37.38V29a.38.38,0,0,0,.16.31,1.78,1.78,0,0,0,.39.2,2.51,2.51,0,0,0,.44.1l.35,0H13a.74.74,0,0,0,.49-.15A.55.55,0,0,0,13.7,29l0-1.64h9.14v1.48a.65.65,0,0,0,.35.61,1.38,1.38,0,0,0,.69.19h2.94a.56.56,0,0,0,.48-.16A.94.94,0,0,0,27.4,29V24.48l.63-.31a2.59,2.59,0,0,0,.54-.35c.18-.14.36-.3.54-.47s.33-.34.49-.52a5.28,5.28,0,0,0,.39-.5,8.86,8.86,0,0,0,1.54-3.2A14.36,14.36,0,0,0,32,15.59a7.28,7.28,0,0,0-.23-1.72A14.27,14.27,0,0,0,31.2,12.2ZM8.8,13.36A1.1,1.1,0,0,1,8,13.7a1.08,1.08,0,0,1-.8-.34,1.11,1.11,0,0,1,0-1.6,1.08,1.08,0,0,1,.8-.34,1.14,1.14,0,0,1,.81,1.94Z"/><path class="cls-3" d="M8,11.42a1.08,1.08,0,0,0-.8.34,1.11,1.11,0,0,0,0,1.6,1.08,1.08,0,0,0,.8.34,1.14,1.14,0,0,0,0-2.28Z"/></g></g></g></svg>