<svg id="ArrowUp" xmlns="http://www.w3.org/2000/svg" viewBox="0 0 32 32"><defs><style>.cls-1{fill:#0078d4;}.cls-2{fill:#c2c2c2;}</style></defs><title>Pin-blue</title><path class="cls-1" d="M11.59,13.13a5.21,5.21,0,0,0-2.23,1.52,5.27,5.27,0,0,0-1.2,2.42h14.7a5.33,5.33,0,0,0-3.43-3.94l-.72-.25V2l.63-.39a3.87,3.87,0,0,0,.54-.42,3.16,3.16,0,0,0,.45-.51A2.69,2.69,0,0,0,20.66,0H10.36a2.69,2.69,0,0,0,.33.68,3.67,3.67,0,0,0,.44.51,4.69,4.69,0,0,0,.55.42l.63.39V12.88Z"/><polygon class="cls-2" points="15.51 32 16.58 29.87 16.58 19.2 14.44 19.2 14.44 29.87 15.51 32"/></svg>