<svg xmlns="http://www.w3.org/2000/svg" viewBox="0 0 14.69 31.97"><defs><style>.cls-1{fill:#d83b01;}.cls-2{fill:#c2c2c2;}</style></defs><title>pin</title><g id="Layer_2" data-name="Layer 2"><g id="SYMBOLS"><path class="cls-1" d="M2.2,0a2.69,2.69,0,0,0,.33.68A3.1,3.1,0,0,0,3,1.19a3.87,3.87,0,0,0,.54.42L4.15,2V12.87l-.72.25A5.21,5.21,0,0,0,1.2,14.64,5.19,5.19,0,0,0,0,17.05H14.69a5.19,5.19,0,0,0-1.2-2.41,5.27,5.27,0,0,0-2.23-1.52l-.72-.25V2l.63-.39a3.87,3.87,0,0,0,.54-.42,3.1,3.1,0,0,0,.44-.51A2.4,2.4,0,0,0,12.49,0Z"/><polygon class="cls-2" points="6.28 19.18 6.28 29.84 7.34 31.97 8.41 29.84 8.41 19.18 6.28 19.18"/></g></g></svg>