<svg id="ArrowUp" xmlns="http://www.w3.org/2000/svg" viewBox="0 0 32 32"><defs><style>.cls-1{fill:#c2c2c2;}.cls-2{fill:#0078d4;}</style></defs><title>Pizza-blue</title><path class="cls-1" d="M19.71,7.6,0,27.31H28.16A30.79,30.79,0,0,0,19.71,7.6Zm-5.63,17a3,3,0,1,1,0-4.25A3,3,0,0,1,14.08,24.62Zm2.54-6.75a3,3,0,1,1,4.24,0A3,3,0,0,1,16.62,17.87Zm3.56,7a3,3,0,1,1,4.24,0A3,3,0,0,1,20.18,24.85Z"/><path class="cls-1" d="M32,27.32A31.92,31.92,0,0,0,22.63,4.68l-1.51,1.5a32.75,32.75,0,0,1,9,21.14Z"/><circle class="cls-2" cx="22.3" cy="22.73" r="3"/><path class="cls-2" d="M20.86,13.63a3,3,0,1,0,0,4.24A3,3,0,0,0,20.86,13.63Z"/><circle class="cls-2" cx="11.96" cy="22.5" r="3"/></svg>