<svg xmlns="http://www.w3.org/2000/svg" viewBox="0 0 32.55 31.97"><defs><style>.cls-1{fill:#c2c2c2;}.cls-2{fill:#939393;}.cls-3{fill:#d83b01;}.cls-4{fill:#2f2f2f;}</style></defs><title>post</title><g id="Layer_2" data-name="Layer 2"><g id="SYMBOLS"><g id="post"><g id="Artwork_64" data-name="Artwork 64"><path class="cls-1" d="M24.09,32V17.07L21.57,14.4l-5.79,5.49-3.89.79.68-4.29L18,11.16,14.56,7.22H0V22.69H9.28V32Z"/></g><polygon class="cls-2" points="7.73 24.24 0.45 24.24 7.73 31.52 7.73 24.24"/><path class="cls-3" d="M27.21,0A2,2,0,0,0,27,.53,2.7,2.7,0,0,0,27,1a3,3,0,0,0,.07.5c0,.17.08.34.12.53L21.54,7.69,21,7.45a3.87,3.87,0,0,0-1.95-.37,3.7,3.7,0,0,0-1.87.63l7.62,7.62a3.7,3.7,0,0,0,.63-1.87,3.87,3.87,0,0,0-.37-2l-.24-.5L30.5,5.37l.53.12a3,3,0,0,0,.5.07,2.7,2.7,0,0,0,.49,0,2,2,0,0,0,.53-.18Z"/><polygon class="cls-4" points="19.37 12.07 13.84 17.6 13.29 19.26 14.95 18.71 20.48 13.18 19.37 12.07"/></g></g></g></svg>