<svg id="ArrowUp" xmlns="http://www.w3.org/2000/svg" viewBox="0 0 32 32"><defs><style>.cls-1{fill:#2f2f2f;}.cls-2{fill:#c2c2c2;}.cls-3{fill:#0078d4;}</style></defs><title>PresentationGraph-blue</title><polygon class="cls-1" points="19.2 24.35 19.2 27.37 21.33 25.23 24.53 28.45 29.87 23.1 29.87 20.08 24.53 25.43 21.33 22.22 19.2 24.35"/><polygon class="cls-2" points="32 14.93 17.07 14.93 17.07 0 14.93 0 14.93 14.93 0 14.93 0 17.07 14.93 17.07 14.93 32 17.07 32 17.07 17.07 32 17.07 32 14.93"/><rect class="cls-1" x="2.13" y="4.27" width="2.13" height="8.53"/><rect class="cls-1" x="19.2" y="6.4" width="6.4" height="2.13"/><rect class="cls-3" x="10.67" y="2.13" width="2.13" height="10.67"/><rect class="cls-1" x="6.4" y="6.4" width="2.13" height="6.4"/><path class="cls-1" d="M4.74,21.67a4.51,4.51,0,0,0-1.36.91,4.33,4.33,0,0,0-.91,1.36,4.22,4.22,0,0,0,0,3.32,4.22,4.22,0,0,0,.91,1.36,4.33,4.33,0,0,0,1.36.91,4,4,0,0,0,1.66.34,4,4,0,0,0,1.66-.34,4.21,4.21,0,0,0,2.27-2.27,4,4,0,0,0,.34-1.66H6.4V21.33A4.21,4.21,0,0,0,4.74,21.67Z"/><path class="cls-3" d="M12.47,21.81a4.33,4.33,0,0,0-2.28-2.28,4.2,4.2,0,0,0-1.66-.33v4.27H12.8A4.2,4.2,0,0,0,12.47,21.81Z"/><rect class="cls-1" x="19.2" y="2.13" width="8.53" height="2.13"/><rect class="cls-1" x="19.2" y="10.67" width="10.67" height="2.13"/></svg>