<svg xmlns="http://www.w3.org/2000/svg" viewBox="0 0 31.97 31.97"><defs><style>.cls-1{fill:#2f2f2f;}.cls-2{fill:#c2c2c2;}.cls-3{fill:#d73910;}</style></defs><title>presentation_graph</title><g id="Layer_2" data-name="Layer 2"><g id="SYMBOLS"><polygon class="cls-1" points="29.84 20.06 24.51 25.41 21.31 22.19 19.18 24.33 19.18 27.34 21.31 25.21 24.51 28.42 29.84 23.08 29.84 20.06"/><polygon class="cls-2" points="14.92 31.97 17.05 31.97 17.05 17.05 31.97 17.05 31.97 14.92 17.05 14.92 17.05 0 14.92 0 14.92 14.92 0 14.92 0 17.05 14.92 17.05 14.92 31.97"/><rect class="cls-1" x="2.13" y="4.26" width="2.13" height="8.52"/><rect class="cls-1" x="19.18" y="6.39" width="6.39" height="2.13"/><rect class="cls-3" x="10.66" y="2.13" width="2.13" height="10.66"/><rect class="cls-1" x="6.39" y="6.39" width="2.13" height="6.39"/><path class="cls-1" d="M4.74,21.64a4.33,4.33,0,0,0-2.28,2.28,4.16,4.16,0,0,0-.33,1.65,4.2,4.2,0,0,0,.33,1.66,4.41,4.41,0,0,0,.92,1.36,4.22,4.22,0,0,0,1.36.91,4,4,0,0,0,1.65.34,4,4,0,0,0,1.66-.34,4.28,4.28,0,0,0,2.61-3.93H6.39V21.31A4.16,4.16,0,0,0,4.74,21.64Z"/><path class="cls-3" d="M12.45,21.79a4.22,4.22,0,0,0-.91-1.36,4.41,4.41,0,0,0-1.36-.92,4.17,4.17,0,0,0-1.66-.33v4.26h4.27A4,4,0,0,0,12.45,21.79Z"/><rect class="cls-1" x="19.18" y="2.13" width="8.52" height="2.13"/><rect class="cls-1" x="19.18" y="10.66" width="10.66" height="2.13"/></g></g></svg>