<svg xmlns="http://www.w3.org/2000/svg" viewBox="0 0 25.82 31.97"><defs><style>.cls-1{fill:#c2c2c2;}</style></defs><title>puzzle</title><g id="Layer_2" data-name="Layer 2"><g id="SYMBOLS"><g id="puzzle"><g id="Artwork_70" data-name="Artwork 70"><path class="cls-1" d="M24.59,20.9a4.86,4.86,0,0,1-1.91-.38,5,5,0,0,1-1.57-1.06,4.87,4.87,0,0,1-1.05-1.56A4.78,4.78,0,0,1,19.67,16a4.73,4.73,0,0,1,.39-1.91,4.87,4.87,0,0,1,1.05-1.56,5,5,0,0,1,1.57-1.06,4.69,4.69,0,0,1,1.91-.38h1.23V6.15H18.44V2.46a2.32,2.32,0,0,0-.19-1,2.35,2.35,0,0,0-.53-.78,2.5,2.5,0,0,0-.78-.53A2.32,2.32,0,0,0,16,0a2.38,2.38,0,0,0-1,.19,2.58,2.58,0,0,0-.77.53,2.21,2.21,0,0,0-.53.78,2.32,2.32,0,0,0-.2,1V6.15H6.15v7.37H2.46a2.32,2.32,0,0,0-1,.2,2.21,2.21,0,0,0-.78.53A2.58,2.58,0,0,0,.19,15,2.38,2.38,0,0,0,0,16a2.32,2.32,0,0,0,.19,1,2.5,2.5,0,0,0,.53.78,2.35,2.35,0,0,0,.78.53,2.32,2.32,0,0,0,1,.19H6.15v7.38h7.37v3.69a2.47,2.47,0,0,0,.73,1.74A2.36,2.36,0,0,0,16,32a2.41,2.41,0,0,0,1.74-.72,2.57,2.57,0,0,0,.53-.78,2.38,2.38,0,0,0,.19-1V25.82h7.38V20.9Z"/></g></g></g></g></svg>