<svg id="ArrowUp" xmlns="http://www.w3.org/2000/svg" viewBox="0 0 32 32"><defs><style>.cls-1{fill:#c2c2c2;}.cls-2{fill:#0078d4;}.cls-3{fill:#2f2f2f;}</style></defs><title>ReaderSecurity-blue</title><path class="cls-1" d="M9.94,13.18A17.13,17.13,0,0,0,6.62,15a24.22,24.22,0,0,0-2.93,2.43,25.27,25.27,0,0,0,2.93,2.44,17.09,17.09,0,0,0,3.32,1.85,7.17,7.17,0,0,1-1-2,7.55,7.55,0,0,1-.35-2.25,7.64,7.64,0,0,1,1.35-4.29Z"/><path class="cls-1" d="M22.24,13.18a7.65,7.65,0,0,1,1,2.05,7.42,7.42,0,0,1,.34,2.24,7.53,7.53,0,0,1-.34,2.25,7.45,7.45,0,0,1-1,2,17.38,17.38,0,0,0,3.32-1.85,26.14,26.14,0,0,0,2.93-2.44A25,25,0,0,0,25.56,15,17.43,17.43,0,0,0,22.24,13.18Z"/><path class="cls-2" d="M13.91,22.65a5.62,5.62,0,0,0,4.36,0,5.83,5.83,0,0,0,1.79-1.21,5.69,5.69,0,0,0,1.2-1.79,5.51,5.51,0,0,0,0-4.36,5.64,5.64,0,0,0-1.2-1.78,5.83,5.83,0,0,0-1.79-1.21,5.51,5.51,0,0,0-4.36,0,5.72,5.72,0,0,0-3,3,5.62,5.62,0,0,0,0,4.36,5.69,5.69,0,0,0,3,3Zm.45-5.91a2,2,0,0,1,.4-.59,1.75,1.75,0,0,1,.6-.4,1.73,1.73,0,0,1,.73-.15,1.77,1.77,0,0,1,.73.15,1.81,1.81,0,0,1,.59.4,2,2,0,0,1,.41.59,2,2,0,0,1,.14.73,1.9,1.9,0,0,1-.14.73,1.94,1.94,0,0,1-.41.6,2,2,0,0,1-.59.4,1.77,1.77,0,0,1-.73.15,1.73,1.73,0,0,1-.73-.15,1.84,1.84,0,0,1-1-1,1.73,1.73,0,0,1-.15-.73A1.8,1.8,0,0,1,14.36,16.74Z"/><path class="cls-3" d="M14.76,18.8a1.91,1.91,0,0,0,.6.4,1.73,1.73,0,0,0,.73.15,1.77,1.77,0,0,0,.73-.15,2,2,0,0,0,.59-.4,1.94,1.94,0,0,0,.41-.6,1.9,1.9,0,0,0,.14-.73,2,2,0,0,0-.14-.73,2,2,0,0,0-.41-.59,1.81,1.81,0,0,0-.59-.4,1.77,1.77,0,0,0-.73-.15,1.73,1.73,0,0,0-.73.15,1.75,1.75,0,0,0-.6.4,2,2,0,0,0-.4.59,1.8,1.8,0,0,0-.15.73,1.73,1.73,0,0,0,.15.73A1.91,1.91,0,0,0,14.76,18.8Z"/><path class="cls-1" d="M16.13,7.72h-.26A20.66,20.66,0,0,0,.23,14.89a.94.94,0,1,0,1.42,1.22A18.77,18.77,0,0,1,15.87,9.6h.26a18.77,18.77,0,0,1,14.22,6.51.93.93,0,0,0,.71.33,1,1,0,0,0,.62-.23.93.93,0,0,0,.09-1.32A20.66,20.66,0,0,0,16.13,7.72Z"/></svg>