<svg xmlns="http://www.w3.org/2000/svg" viewBox="0 0 31.97 15.35"><defs><style>.cls-1{fill:#c2c2c2;}.cls-2{fill:#2f2f2f;}.cls-3{fill:#fff;}.cls-4{fill:#939393;}</style></defs><title>reader_security</title><g id="Layer_2" data-name="Layer 2"><g id="SYMBOLS"><g id="reader_security"><path class="cls-1" d="M9.93,5.45A17.63,17.63,0,0,0,6.61,7.3,25.17,25.17,0,0,0,3.69,9.74a24.12,24.12,0,0,0,2.92,2.43A16.58,16.58,0,0,0,9.93,14a7.17,7.17,0,0,1-1-2,7.42,7.42,0,0,1-.34-2.24,7.53,7.53,0,0,1,.34-2.25A7.44,7.44,0,0,1,9.93,5.45Z"/><path class="cls-1" d="M22.21,5.45a7.51,7.51,0,0,1,1,6.53,7.2,7.2,0,0,1-1,2,16.58,16.58,0,0,0,3.32-1.85,24.22,24.22,0,0,0,2.93-2.43A25.27,25.27,0,0,0,25.53,7.3,17.63,17.63,0,0,0,22.21,5.45Z"/><path class="cls-2" d="M20,5.78a5.83,5.83,0,0,0-1.79-1.21,5.51,5.51,0,0,0-4.36,0,5.79,5.79,0,0,0-1.78,1.21A5.67,5.67,0,0,0,10.9,7.56a5.62,5.62,0,0,0,0,4.36,5.75,5.75,0,0,0,3,3,5.62,5.62,0,0,0,4.36,0A5.83,5.83,0,0,0,20,13.7a5.94,5.94,0,0,0,1.2-1.78,5.51,5.51,0,0,0,0-4.36A5.81,5.81,0,0,0,20,5.78ZM17.8,10.47a2,2,0,0,1-.4.59,1.91,1.91,0,0,1-1.33.55,1.88,1.88,0,0,1-1.72-1.14,1.85,1.85,0,0,1,0-1.46,1.71,1.71,0,0,1,.4-.59A1.84,1.84,0,0,1,15.34,8a2,2,0,0,1,.73-.14A1.94,1.94,0,0,1,16.8,8a1.78,1.78,0,0,1,.6.41,1.87,1.87,0,0,1,.4.59,2,2,0,0,1,0,1.46Z"/><path class="cls-3" d="M17.4,8.42A1.78,1.78,0,0,0,16.8,8a1.94,1.94,0,0,0-.73-.14,2,2,0,0,0-.73.14,1.84,1.84,0,0,0-.59.41,1.71,1.71,0,0,0-.4.59,1.85,1.85,0,0,0,0,1.46,1.87,1.87,0,0,0,1.72,1.14,1.91,1.91,0,0,0,1.33-.55,2,2,0,0,0,.4-.59A2,2,0,0,0,17.8,9,1.87,1.87,0,0,0,17.4,8.42Z"/><path class="cls-4" d="M31.74,7.16A20.63,20.63,0,0,0,16.11,0h-.25A20.63,20.63,0,0,0,.23,7.16.93.93,0,1,0,1.64,8.38,18.78,18.78,0,0,1,15.86,1.87h.25A18.75,18.75,0,0,1,30.32,8.38,1,1,0,0,0,31,8.7a.92.92,0,0,0,.61-.22A.94.94,0,0,0,31.74,7.16Z"/></g></g></g></svg>