<svg xmlns="http://www.w3.org/2000/svg" viewBox="0 0 33 33"><defs><style>.cls-1{fill:#2f2f2f;stroke:#2f2f2f;stroke-miterlimit:10;}</style></defs><title>renew</title><g id="Layer_2" data-name="Layer 2"><g id="SYMBOLS"><g id="renew"><path class="cls-1" d="M25.52,3.29a16.05,16.05,0,0,1,6.12,8.05,16,16,0,0,1,.29,9.41,16.43,16.43,0,0,1-1.61,3.83,16,16,0,0,1-5.74,5.74,16.43,16.43,0,0,1-3.83,1.61,16.13,16.13,0,0,1-8.5,0,16.43,16.43,0,0,1-3.83-1.61,16,16,0,0,1-5.74-5.74,16.35,16.35,0,0,1-1.61-3.82A15.76,15.76,0,0,1,.5,16.5a15.46,15.46,0,0,1,.58-4.25A15.85,15.85,0,0,1,2.73,8.37a15.68,15.68,0,0,1,2.6-3.32A16.23,16.23,0,0,1,8.78,2.5H4.5V.5h8v8h-2V3.86A13.73,13.73,0,0,0,7.2,6.05,14.28,14.28,0,0,0,4.67,9a14.14,14.14,0,0,0-1.61,3.56A14,14,0,0,0,3,20.21a14.15,14.15,0,0,0,6.45,8.38A13.67,13.67,0,0,0,12.78,30a14,14,0,0,0,13.61-3.61,14.11,14.11,0,0,0,2.2-2.84A13.67,13.67,0,0,0,30,20.22a13.86,13.86,0,0,0,.5-3.72A13.53,13.53,0,0,0,29.74,12a14.13,14.13,0,0,0-5.36-7A13.35,13.35,0,0,0,20.23,3l.54-1.93A15.37,15.37,0,0,1,25.52,3.29Z"/></g></g></g></svg>