<svg id="ArrowUp" xmlns="http://www.w3.org/2000/svg" viewBox="0 0 32 32"><defs><style>.cls-1{fill:none;}.cls-2{fill:#c2c2c2;}.cls-3{fill:#0078d4;}</style></defs><title>RulerDesign-blue</title><polygon class="cls-1" points="4.55 15.52 4.55 26.29 15.32 26.29 4.55 15.52"/><polygon class="cls-2" points="22.84 19.43 22.84 21.71 27.41 21.71 27.41 24 24.46 24 26.75 26.29 26.79 26.29 26.75 26.25 29.69 26.25 29.69 26.29 29.69 28.53 29.69 28.57 29.03 28.57 31.32 30.86 31.98 30.86 31.98 1.14 22.84 1.14 22.84 3.43 27.41 3.43 27.41 5.71 22.84 5.71 22.84 8 27.41 8 27.41 10.29 22.84 10.29 22.84 12.57 29.69 12.57 29.69 14.86 22.84 14.86 22.84 17.14 27.41 17.14 27.41 19.43 22.84 19.43"/><path class="cls-2" d="M0,30.86H28.07L0,2.77ZM4.55,15.52,15.32,26.29H4.55Z"/><rect class="cls-3" x="22.84" y="12.57" width="6.85" height="2.29"/><polygon class="cls-3" points="26.79 26.29 28.9 28.53 29.69 28.53 29.69 26.29 26.79 26.29"/><polygon class="cls-3" points="29.69 26.25 26.75 26.25 26.79 26.29 29.69 26.29 29.69 26.25"/></svg>