<svg id="ArrowUp" xmlns="http://www.w3.org/2000/svg" viewBox="0 0 32 32"><defs><style>.cls-1{fill:#0078d4;}.cls-2{fill:#c2c2c2;}</style></defs><title>Satellite-blue</title><g id="Artwork_64" data-name="Artwork 64"><path class="cls-1" d="M20,25.42A5.23,5.23,0,0,0,22.09,25,5.58,5.58,0,0,0,25,22.06a5.23,5.23,0,0,0,.44-2.12h2.19a7.37,7.37,0,0,1-.61,3A7.69,7.69,0,0,1,23,27a7.37,7.37,0,0,1-3,.61ZM32,19.94A12.06,12.06,0,0,1,30.39,26a12.52,12.52,0,0,1-4.34,4.34A12.06,12.06,0,0,1,20,32V29.81A9.54,9.54,0,0,0,23.8,29a10,10,0,0,0,5.26-5.26,9.51,9.51,0,0,0,.78-3.83Z"/></g><polygon class="cls-2" points="26.74 5.68 24.36 8.06 22.28 6 16.45 11.84 20.16 15.55 15.58 20.13 11.86 16.42 6.03 22.25 8.09 24.33 5.71 26.71 0.03 21.04 2.42 18.65 4.48 20.71 10.32 14.87 6.61 11.17 11.2 6.58 14.9 10.29 20.74 4.45 18.68 2.39 21.07 0 26.74 5.68"/></svg>