<svg xmlns="http://www.w3.org/2000/svg" viewBox="0 0 30.1 31.98"><defs><style>.cls-1{fill:#c2c2c2;}.cls-2{fill:#939393;}</style></defs><title>script</title><g id="Layer_2" data-name="Layer 2"><g id="SYMBOLS"><g id="script"><path class="cls-1" d="M24,5a6,6,0,0,1,2.71-5H6.49A5.84,5.84,0,0,0,3.81,5V27.48H17.28S16.9,32,20.64,32,24,27.62,24,27.62Z"/><path class="cls-2" d="M15,29.72H0S1.09,32,3.19,32l13,0A3.49,3.49,0,0,1,15,29.72Z"/><path class="cls-2" d="M25.85,6.74a15.21,15.21,0,0,1,0-2.23C26,2.81,26.78,1,29,1,31.31,1,29.91,6.74,25.85,6.74Z"/></g></g></g></svg>