<svg xmlns="http://www.w3.org/2000/svg" viewBox="0 0 31.81 31.97"><defs><style>.cls-1{fill:#d83b01;}.cls-2{fill:#2f2f2f;}</style></defs><title>search</title><g id="Layer_2" data-name="Layer 2"><g id="SYMBOLS"><g id="search"><path class="cls-1" d="M14.5,19.63l-12.06,12a1,1,0,0,1-.7.3c-.27,0-1.09-.7-1.29-.9A1.55,1.55,0,0,1,0,30.23a1,1,0,0,1,.29-.7l12-12A11.59,11.59,0,0,0,14.5,19.63Z"/><path class="cls-2" d="M31.78,10.34c0-.17,0-.33,0-.5a1.52,1.52,0,0,0,0-.21c0-.24-.07-.47-.11-.7s-.09-.48-.15-.71,0-.16,0-.24-.11-.29-.16-.44-.08-.3-.13-.45-.07-.15-.1-.22c-.09-.23-.19-.44-.3-.66s-.2-.43-.32-.64l-.09-.18c-.09-.15-.19-.28-.29-.42s-.17-.3-.28-.45-.09-.11-.13-.16a4.87,4.87,0,0,0-.35-.42q-.3-.37-.63-.72l0,0-.16-.14a8.68,8.68,0,0,0-.7-.65l-.16-.11-.25-.18c-.28-.2-.57-.41-.87-.59l-.06,0c-.17-.1-.35-.18-.53-.27S25.54,1,25.36.94l-.07,0c-.32-.14-.65-.25-1-.36L24,.45a1.27,1.27,0,0,0-.18-.06c-.31-.09-.62-.14-.94-.2l-.2,0h-.05C22.33.1,22,.07,21.7.05l-.55,0h-.21V0h0V0c-.18,0-.35,0-.53,0s-.33,0-.5,0l-.21,0L19,.19l-.71.15a2,2,0,0,0-.24,0c-.15,0-.29.1-.44.15l-.45.13-.22.1c-.23.09-.44.2-.66.3s-.43.2-.63.32l-.19.09c-.15.09-.28.19-.42.29s-.3.17-.45.28v0h0v0l-.16.13c-.15.11-.28.23-.42.35s-.49.41-.72.63l0,0-.14.16c-.22.23-.45.45-.65.7l-.11.16-.18.25a10.11,10.11,0,0,0-.58.87l0,.06c-.1.17-.17.36-.26.53s-.2.35-.28.53l0,.07c-.14.32-.25.65-.36,1,0,.1-.07.19-.1.29a1.27,1.27,0,0,0-.06.18,7.67,7.67,0,0,0-.19.93,1.6,1.6,0,0,0,0,.21.09.09,0,0,1,0,.05c0,.31-.07.62-.09.94s0,.37,0,.55a1.49,1.49,0,0,0,0,.21c0,.34,0,.68,0,1v0s0,0,0,.07a11,11,0,0,0,.18,1.15c0,.1,0,.2.07.31a9.85,9.85,0,0,0,.34,1.14h0l0,.07a1.89,1.89,0,0,0,.11.25c.11.27.22.53.35.79l.24.47c.18.32.38.63.59.93l.08.13c.14.2.3.39.45.57l0,0h0a8.45,8.45,0,0,0,2.21,2,10.83,10.83,0,0,0,1.19.69,11.63,11.63,0,0,0,1.25.56,10.56,10.56,0,0,0,2.94.62h.06l.7,0h.15a10,10,0,0,0,1.1-.07l.52-.08a8,8,0,0,0,.85-.17l.27-.06.07,0h0c.38-.11.76-.25,1.12-.39l.3-.13a10.62,10.62,0,0,0,1-.51l.08,0,0,0c.28-.17.56-.35.84-.55l.16-.13c.15-.11.29-.23.43-.35s.49-.41.71-.63l0,0,.14-.16c.22-.23.45-.45.65-.7l.11-.16a2.4,2.4,0,0,0,.18-.26,10.06,10.06,0,0,0,.59-.86l0-.06c.1-.16.17-.34.26-.51s.2-.36.28-.55l0-.08a7.84,7.84,0,0,0,.35-1c0-.1.08-.21.11-.31l.07-.18c.08-.31.13-.62.19-.94,0-.07,0-.13,0-.2a.09.09,0,0,0,0,0c0-.31.07-.62.09-.94s0-.37,0-.55,0-.14,0-.21S31.78,10.52,31.78,10.34Zm-4.45,3.23a6.85,6.85,0,0,1-1.49,2.2,7,7,0,0,1-2.2,1.49,6.62,6.62,0,0,1-2.7.55,6.69,6.69,0,0,1-2.7-.55,7,7,0,0,1-3.69-3.69,6.9,6.9,0,0,1,0-5.4A7,7,0,0,1,16,6a7.13,7.13,0,0,1,2.2-1.49,6.69,6.69,0,0,1,2.7-.55,6.62,6.62,0,0,1,2.7.55A7,7,0,0,1,25.84,6a6.85,6.85,0,0,1,1.49,2.2,6.9,6.9,0,0,1,0,5.4Z"/></g></g></g></svg>