<svg id="ArrowUp" xmlns="http://www.w3.org/2000/svg" viewBox="0 0 32 32"><defs><style>.cls-1{fill:#2f2f2f;}.cls-2{fill:#0078d4;}.cls-3{fill:#c2c2c2;}</style></defs><title>Search-blue</title><path class="cls-1" d="M32,11.21c0-.07,0-.14,0-.21s0-.35,0-.53,0-.34,0-.52,0-.13,0-.2c0-.24-.07-.48-.11-.72s-.09-.47-.15-.71a2,2,0,0,0-.05-.24c0-.16-.1-.3-.15-.45s-.08-.3-.14-.45a2.29,2.29,0,0,0-.1-.23,6.62,6.62,0,0,0-.3-.66c-.1-.22-.2-.44-.32-.65a1.74,1.74,0,0,0-.1-.19c-.08-.14-.19-.28-.28-.42s-.18-.31-.29-.45l-.13-.17c-.11-.15-.24-.29-.35-.43s-.42-.49-.64-.72l0,0-.16-.14a8.81,8.81,0,0,0-.71-.66l-.16-.11a2.4,2.4,0,0,0-.26-.18,9.08,9.08,0,0,0-.88-.6l-.06,0c-.17-.1-.36-.18-.54-.27S25.69,1,25.51,1l-.07,0c-.32-.14-.66-.25-1-.36-.1,0-.2-.08-.3-.1L24,.39A7.6,7.6,0,0,0,23,.2l-.2-.05h0c-.32,0-.64-.08-1-.1l-.55,0H21V0h0V0c-.19,0-.36,0-.54,0a4.34,4.34,0,0,0-.51,0l-.21,0c-.24,0-.48.07-.71.12s-.48.08-.71.14l-.25,0c-.15,0-.29.11-.44.16l-.46.13L17,.78c-.23.09-.45.2-.67.3s-.43.21-.64.33a1.63,1.63,0,0,0-.19.09c-.15.09-.28.19-.42.29l-.46.28v0h0v0l-.17.14L14,2.56a7.31,7.31,0,0,0-.72.64l0,0-.14.16c-.22.23-.45.45-.65.7l-.12.17-.18.25c-.21.29-.41.58-.59.88l0,.06c-.11.18-.18.36-.28.54s-.19.35-.28.54c0,0,0,0,0,.07-.14.32-.26.66-.37,1,0,.1-.07.19-.1.29a1.06,1.06,0,0,0-.06.19c-.09.31-.14.62-.2.94,0,.07,0,.14,0,.21a.09.09,0,0,0,0,0c0,.31-.07.63-.09,1a5.27,5.27,0,0,0,0,.56c0,.07,0,.14,0,.21,0,.35,0,.69,0,1v0a.64.64,0,0,1,0,.07,8.87,8.87,0,0,0,.18,1.15c0,.11,0,.21.07.32a9.45,9.45,0,0,0,.34,1.15h0a.14.14,0,0,0,0,.07c0,.09.08.17.11.26.11.27.23.54.36.8l.25.47a10.63,10.63,0,0,0,.59.95l.08.12c.14.21.3.4.45.59l0,0h0a10.88,10.88,0,0,0,2.24,2,12.09,12.09,0,0,0,1.2.7,12.91,12.91,0,0,0,1.27.56,10.78,10.78,0,0,0,3,.63h.07c.23,0,.47,0,.71,0h.14a10.36,10.36,0,0,0,1.12-.07l.53-.08.85-.17a2.8,2.8,0,0,1,.28-.06l.07,0h0a11.79,11.79,0,0,0,1.14-.39l.29-.13c.35-.16.69-.33,1-.52l.08,0h0c.29-.18.58-.36.86-.56a1.07,1.07,0,0,0,.16-.14l.44-.35c.24-.21.49-.41.71-.64l0,0,.14-.16c.22-.23.45-.45.65-.7l.12-.16.18-.27a8.32,8.32,0,0,0,.59-.87.21.21,0,0,0,0-.06c.1-.17.18-.35.26-.52s.21-.37.3-.56c0,0,0-.05,0-.07.14-.32.25-.65.36-1,0-.1.08-.21.11-.31a1.39,1.39,0,0,0,.06-.19c.09-.31.14-.63.2-.94a1.6,1.6,0,0,1,.05-.21v0c.05-.31.07-.63.09-1A5.27,5.27,0,0,0,32,11.21Z"/><path class="cls-2" d="M14,19.45,1.74,31.7A1,1,0,0,1,1,32a1,1,0,0,1-.71-.3,1,1,0,0,1,0-1.4L12.58,18Z"/><path class="cls-3" d="M21,20a8.83,8.83,0,0,0,3.5-.71,9.09,9.09,0,0,0,2.85-1.93,9,9,0,0,0,1.93-2.86A8.6,8.6,0,0,0,30,11a8.6,8.6,0,0,0-.72-3.5,9,9,0,0,0-1.93-2.86,9.26,9.26,0,0,0-2.85-1.93,9,9,0,0,0-7,0,9.19,9.19,0,0,0-2.86,1.93A9,9,0,0,0,12.75,7.5,8.59,8.59,0,0,0,12,11a8.59,8.59,0,0,0,.71,3.5,9.05,9.05,0,0,0,4.79,4.79A8.76,8.76,0,0,0,21,20"/></svg>