<svg xmlns="http://www.w3.org/2000/svg" viewBox="0 0 31.97 31.98"><defs><style>.cls-1{fill:#c2c2c2;}.cls-2{fill:#d83b01;}.cls-3{fill:#2f2f2f;}</style></defs><title>search_document</title><g id="Layer_2" data-name="Layer 2"><g id="SYMBOLS"><g id="search_document"><path class="cls-1" d="M17.29,19.15a8.32,8.32,0,0,1,8.31-8.29h0V4.19l-21.38,0v15Z"/><polygon class="cls-2" points="21.34 0.02 0.01 0 0 14.85 2.14 14.85 2.15 2.14 21.34 2.16 21.34 0.02"/><path class="cls-3" d="M25.6,12.79h0a6.37,6.37,0,0,0-6.38,6.37h0a6.26,6.26,0,0,0,1.15,3.65L19,24.19l-5.9,6a1,1,0,0,0-.32.75,1,1,0,0,0,.31.75,1.07,1.07,0,0,0,.76.32,1,1,0,0,0,.75-.32l5.91-5.95,1.37-1.38a6.26,6.26,0,0,0,3.71,1.21,6.38,6.38,0,0,0,0-12.75Zm0,10.61a4.14,4.14,0,0,1-2.49-.83q-.42-.37-.81-.78a4.2,4.2,0,0,1-.94-2.63h0a4.26,4.26,0,0,1,4.25-4.24h0a4.24,4.24,0,0,1,0,8.48Z"/></g></g></g></svg>