<svg id="ArrowUp" xmlns="http://www.w3.org/2000/svg" viewBox="0 0 32 32"><defs><style>.cls-1{fill:#c2c2c2;}.cls-2{fill:#0078d4;}.cls-3{fill:#2f2f2f;}</style></defs><title>SearchDocument-blue</title><path class="cls-1" d="M17.31,19.17a8.31,8.31,0,0,1,8.31-8.3h0V4.2l-21.39,0,0,15,13.09,0Z"/><polygon class="cls-2" points="21.36 0.02 0.02 0 0.01 14.86 2.15 14.86 2.16 2.14 21.36 2.16 21.36 0.02"/><path class="cls-3" d="M25.62,12.79h0a6.4,6.4,0,0,0-6.39,6.38h0a6.32,6.32,0,0,0,1.16,3.65L19,24.2l-5.91,6A1.07,1.07,0,0,0,13.86,32a1,1,0,0,0,.75-.32l5.92-5.95,1.36-1.38a6.38,6.38,0,1,0,3.73-11.56Zm0,10.62a4.22,4.22,0,0,1-2.49-.82c-.28-.25-.55-.51-.81-.79a4.18,4.18,0,0,1-.94-2.63h0a4.26,4.26,0,0,1,4.25-4.24h0a4.24,4.24,0,0,1,0,8.48Z"/></svg>