<svg id="ArrowUp" xmlns="http://www.w3.org/2000/svg" viewBox="0 0 32 32"><defs><style>.cls-1{fill:#d2d2d2;}</style></defs><title>SearchBinoculars</title><path class="cls-1" d="M9.74,21.12a6,6,0,0,0-1.81-1.24,5.51,5.51,0,0,0-2.22-.45,5.49,5.49,0,0,0-2.21.45,6,6,0,0,0-1.81,1.24A5.69,5.69,0,0,0,.46,22.93a5.56,5.56,0,0,0,0,4.43,5.84,5.84,0,0,0,3,3,5.34,5.34,0,0,0,2.21.46,5.35,5.35,0,0,0,2.22-.46,5.84,5.84,0,0,0,3-3,5.56,5.56,0,0,0,0-4.43A5.69,5.69,0,0,0,9.74,21.12Z"/><path class="cls-1" d="M30.18,18.14a8.89,8.89,0,0,0-1.89-.73,7.59,7.59,0,0,0-2-.27,7.89,7.89,0,0,0-1.44.17,13.52,13.52,0,0,0-1.7.48,8,8,0,0,0-1.55.76,3.19,3.19,0,0,0-1,1V14.86H11.43v4.69a3.19,3.19,0,0,0-1-1,8,8,0,0,0-1.55-.76,13.52,13.52,0,0,0-1.7-.48,7.89,7.89,0,0,0-1.44-.17,7.59,7.59,0,0,0-2,.27,8.89,8.89,0,0,0-1.89.73L7,2.67a2.21,2.21,0,0,1,.85-1.09,2.22,2.22,0,0,1,1.31-.44,2,2,0,0,1,.89.19,1.89,1.89,0,0,1,.72.49,2,2,0,0,1,.5.72,2.18,2.18,0,0,1,.18.89v6.86h9.14V3.43a2.18,2.18,0,0,1,.18-.89,2,2,0,0,1,.5-.72A1.89,1.89,0,0,1,22,1.33a2,2,0,0,1,.89-.19,2.22,2.22,0,0,1,1.31.44A2.16,2.16,0,0,1,25,2.67Z"/><path class="cls-1" d="M31.54,22.93a5.69,5.69,0,0,0-1.23-1.81,6,6,0,0,0-1.81-1.24,5.68,5.68,0,0,0-4.43,0,6,6,0,0,0-1.81,1.24A5.69,5.69,0,0,0,21,22.93a5.56,5.56,0,0,0,0,4.43,5.84,5.84,0,0,0,3,3,5.56,5.56,0,0,0,4.43,0,5.84,5.84,0,0,0,3-3,5.56,5.56,0,0,0,0-4.43Z"/></svg>