<svg xmlns="http://www.w3.org/2000/svg" viewBox="0 0 31.97 31.97"><defs><style>.cls-1{fill:#d83b01;}</style></defs><title>settings_office_365</title><g id="Layer_2" data-name="Layer 2"><g id="SYMBOLS"><g id="settings_office_365"><path class="cls-1" d="M27.91,16.27c0-.1,0-.19,0-.29s0-.18,0-.28a2.62,2.62,0,0,1,0-.28L32,12.89l-2.5-6L24.81,7.94c-.25-.27-.51-.53-.79-.78L25.09,2.5l-6-2.5L16.55,4.07H15.42L12.89,0l-6,2.5L7.94,7.16q-.41.38-.78.78L2.5,6.88l-2.5,6,4.07,2.53c0,.09,0,.19,0,.28a2.72,2.72,0,0,0,0,.28,2.81,2.81,0,0,0,0,.29c0,.09,0,.19,0,.28L0,19.08l2.5,6L7.16,24c.25.28.51.54.78.79L6.88,29.47l6,2.5,2.53-4.07h1.13L19.08,32l6-2.5L24,24.81a9.81,9.81,0,0,0,.79-.79l4.66,1.07,2.5-6L27.9,16.55A2.62,2.62,0,0,1,27.91,16.27Zm-6.49,2a5.84,5.84,0,0,1-3.14,3.14,5.7,5.7,0,0,1-2.3.47,5.77,5.77,0,0,1-2.3-.47,5.93,5.93,0,0,1-3.14-3.14,5.69,5.69,0,0,1-.46-2.3,5.76,5.76,0,0,1,.46-2.3,6,6,0,0,1,3.14-3.14,5.76,5.76,0,0,1,2.3-.46,5.69,5.69,0,0,1,2.3.46,5.93,5.93,0,0,1,3.14,3.14,5.77,5.77,0,0,1,.47,2.3A5.7,5.7,0,0,1,21.42,18.28Z"/></g></g></g></svg>