<svg width="32" height="28" viewBox="0 0 32 28" fill="none" xmlns="http://www.w3.org/2000/svg">
<g clip-path="url(#clip0_1588_247)">
<path d="M16.6 10V9.70005C16.6 9.60005 16.6 9.60005 16.6 9.50005L19 8.00005L17.5 4.40005L14.7 5.00005C14.6 4.80005 14.4 4.70005 14.2 4.50005L15 1.80005L11.4 0.300049L9.9 2.70005H9.2L7.7 0.300049L4.1 1.80005L4.7 4.60005C4.6 4.70005 4.4 4.90005 4.3 5.00005L1.5 4.40005L0 8.00005L2.4 9.50005V9.70005C2.4 9.80005 2.4 9.80005 2.4 9.90005C2.4 10 2.4 10 2.4 10.1V10.3L0 11.7L1.5 15.3L4.3 14.7C4.5 14.9 4.6 15 4.8 15.2L4.2 17.9L7.7 19.3L9.2 16.9H9.9L11.4 19.3L15 17.8L14.4 15C14.6 14.9 14.7 14.7 14.9 14.5L17.7 15.1L19.2 11.5L16.7445 10.1854C16.578 10.1022 16.6 10.1 16.6 10ZM12.8 11.2C12.4 12 11.8 12.7 10.9 13.1C10.5 13.3 10 13.3 9.5 13.3C9 13.3 8.6 13.2 8.1 13C7.3 12.6 6.6 12 6.2 11.1C6.1 10.8 6 10.3 6 9.80005C6 9.30005 6.1 8.90005 6.3 8.40005C6.7 7.60005 7.3 6.90005 8.2 6.50005C8.6 6.40005 9.1 6.30005 9.5 6.30005C10 6.30005 10.4 6.40005 10.9 6.60005C11.7 7.00005 12.4 7.60005 12.8 8.50005C12.9444 8.76033 13.0424 9.29942 13.0424 9.82626C13.0424 10.3531 13 10.8 12.8 11.2Z" fill="#0078D4"/>
<path d="M30.0016 20.1V19.8V19.7L32.0016 18.5L30.8016 15.6L28.6016 16.1C28.5016 16 28.4016 15.8 28.2016 15.7L28.7016 13.5L25.8016 12.3L24.6016 14.3H24.0016L22.8016 12.3L19.9016 13.5L20.4016 15.7C20.3016 15.8 20.2016 15.9 20.0016 16.1L17.8016 15.6L16.6016 18.5L18.6016 19.7V19.8V20.1V20.2L16.6016 21.4L17.8016 24.3L20.0016 23.8L20.4016 24.2L19.9016 26.4L22.8016 27.6L24.0016 25.6H24.5016L25.7016 27.6L28.6016 26.4L28.1016 24.2C28.2016 24.1 28.4016 24 28.5016 23.8L30.7016 24.3L32.0016 21.4L30.0016 20.3C30.0016 20.2 30.0016 20.2 30.0016 20.1ZM26.9016 21.1C26.8016 21.4 26.5016 21.7 26.3016 22C25.5016 22.8 24.3016 23.1 23.2016 22.6C22.9016 22.5 22.6016 22.2 22.3016 22C22.0016 21.7 21.8016 21.4 21.7016 21.1C21.6016 20.7 21.5016 20.4 21.5016 20C21.5016 19.2 21.8016 18.5 22.3016 18C22.6016 17.7 22.9016 17.5 23.2016 17.4C24.6016 16.8 26.3016 17.5 26.9016 18.9C27.1016 19.3 27.1016 19.6 27.1016 20C27.1016 20.4 27.0016 20.7 26.9016 21.1Z" fill="#939393"/>
<path d="M29.5995 5.80002V5.50002L30.9995 4.70002L30.1995 2.70002L28.5995 3.10002C28.4995 3.00002 28.3995 2.90002 28.2995 2.80002L28.5995 1.20002L26.5995 0.400024L25.6995 1.80002H25.2995L24.3995 0.400024L22.3995 1.20002L22.9995 2.80002C22.8995 2.90002 22.7995 3.00002 22.6995 3.10002L21.0995 2.70002L20.2995 4.70002L21.6995 5.50002V5.90002L20.2995 6.70002L21.0995 8.70002L22.6995 8.30002C22.7995 8.40002 22.8995 8.50002 22.9995 8.60002L22.5995 10.2L24.5995 11L25.4995 9.60002H25.8995L26.7995 11L28.7995 10.2L28.3995 8.60002C28.4995 8.50002 28.5995 8.40002 28.6995 8.30002L30.2995 8.70002L31.0995 6.70002L29.5995 5.80002ZM27.4995 6.50002C27.2995 7.00002 26.8995 7.40002 26.3995 7.50002C26.1995 7.60002 25.8995 7.70002 25.5995 7.70002C25.2995 7.70002 25.0995 7.70002 24.7995 7.50002C24.2995 7.30002 23.8995 6.90002 23.7995 6.50002C23.5995 6.00002 23.5995 5.50002 23.7995 5.00002C23.8995 4.80002 23.9995 4.50002 24.1995 4.40002C24.3995 4.20002 24.5995 4.10002 24.7995 4.00002C24.9995 3.90002 25.2995 3.80002 25.5995 3.80002C25.8995 3.80002 26.0995 3.80002 26.3995 4.00002C26.5995 4.00002 26.7995 4.10002 26.9995 4.30002C27.1995 4.50002 27.2995 4.70002 27.3995 4.90002C27.5995 5.40002 27.5995 6.00002 27.4995 6.50002Z" fill="#C2C2C2"/>
</g>
<defs>
<clipPath id="clip0_1588_247">
<rect width="32" height="27.4" fill="white" transform="translate(0 0.300049)"/>
</clipPath>
</defs>
</svg>
