<svg id="ArrowUp" xmlns="http://www.w3.org/2000/svg" viewBox="0 0 32 32"><defs><style>.cls-1{fill:#c2c2c2;}.cls-2{fill:#0078d4;}</style></defs><title>SettingsLevels-blue</title><rect class="cls-1" x="2.46" y="1.54" width="2.46" height="4.31"/><rect class="cls-1" x="2.46" y="13.23" width="2.46" height="17.22"/><rect class="cls-1" x="14.76" y="27.69" width="2.46" height="2.76"/><rect class="cls-1" x="14.76" y="1.54" width="2.46" height="18.62"/><rect class="cls-1" x="27.07" y="20.31" width="2.46" height="10.14"/><rect class="cls-1" x="27.07" y="1.54" width="2.46" height="11.17"/><polygon class="cls-2" points="2.46 5.85 0 5.85 0 10.77 2.46 10.77 4.92 10.77 7.38 10.77 7.38 5.85 4.92 5.85 2.46 5.85"/><polygon class="cls-2" points="14.76 20.16 12.31 20.16 12.31 25.08 14.76 25.08 17.22 25.08 19.69 25.08 19.69 20.16 17.22 20.16 14.76 20.16"/><polygon class="cls-2" points="29.53 12.71 27.07 12.71 24.62 12.71 24.62 17.64 27.07 17.64 29.53 17.64 32 17.64 32 12.71 29.53 12.71"/></svg>