<svg id="ArrowUp" xmlns="http://www.w3.org/2000/svg" viewBox="0 0 32 32"><defs><style>.cls-1{fill:#c2c2c2;}.cls-2{fill:#0078d4;}</style></defs><title>Share-blue</title><path class="cls-1" d="M12.16,18.53l-.17.25a5.18,5.18,0,0,1-.77.9l8.57,4.76c0-.11.07-.21.1-.32a3.68,3.68,0,0,1,.56-1.26,5.48,5.48,0,0,1,.55-.72l-8.31-4.62A6.29,6.29,0,0,1,12.16,18.53Z"/><path class="cls-1" d="M12.75,14.4,20.81,10a5,5,0,0,1-1.1-2.36l-8.34,4.6A5.07,5.07,0,0,1,12.59,14C12.65,14.14,12.7,14.27,12.75,14.4Z"/><path class="cls-2" d="M5.12,10.77a5.07,5.07,0,1,0,5.06,5.07A5.07,5.07,0,0,0,5.12,10.77Z"/><path class="cls-2" d="M26.88,0A5.07,5.07,0,1,0,32,5.07,5.07,5.07,0,0,0,26.88,0Z"/><path class="cls-2" d="M26.88,21.86A5.07,5.07,0,1,0,32,26.93,5.07,5.07,0,0,0,26.88,21.86Z"/></svg>