<svg id="ArrowUp" xmlns="http://www.w3.org/2000/svg" viewBox="0 0 32 32"><defs><style>.cls-1{fill:#c2c2c2;}.cls-2{fill:#0078d4;}</style></defs><title>ShareFiles-blue</title><g id="_Global_Network" data-name="~Global Network"><path class="cls-1" d="M0,15.84a16.74,16.74,0,0,0,.71,4.88A15.86,15.86,0,0,0,2.77,25,15.57,15.57,0,0,0,6,28.52,16.24,16.24,0,0,0,10.3,31c-.06-.5-.1-1-.13-1.5s0-1,0-1.53,0-.9,0-1.34.06-.89.11-1.34A3.56,3.56,0,0,1,9,24a3.32,3.32,0,0,1-.45-1.69,3.37,3.37,0,0,1,.52-1.82,40.51,40.51,0,0,1-3.82-5.64,3.9,3.9,0,0,1-1.35-.22,3.19,3.19,0,0,1-1.15-.71q-.74.42-1.44.9c-.47.32-.92.65-1.35,1M2.18,7.93A16.61,16.61,0,0,0,.32,12.77L1,12.31l.71-.44a3.28,3.28,0,0,1,.12-1.46,3.19,3.19,0,0,1,.74-1.28c-.07-.21-.15-.41-.22-.6l-.21-.6M16,0a16.52,16.52,0,0,0-3.43.37A17.34,17.34,0,0,0,9.31,1.46,16.61,16.61,0,0,0,6.36,3.21a14.84,14.84,0,0,0-2.5,2.38c.12.42.24.83.37,1.23s.27.81.41,1.22a3.57,3.57,0,0,1,1.67.16,3.25,3.25,0,0,1,1.39.94A37.25,37.25,0,0,1,11.8,8,34.62,34.62,0,0,1,16,7.36a3.09,3.09,0,0,1,.42-1.12,3.57,3.57,0,0,1,.76-.88,3.12,3.12,0,0,1,1-.58,3.28,3.28,0,0,1,1.17-.21,3.19,3.19,0,0,1,1.17.22c.47-.52,1-1,1.45-1.5s1-1,1.53-1.42A14,14,0,0,0,19.87.46,16.69,16.69,0,0,0,16,0M11.68,18.89a34.74,34.74,0,0,1,2.06-4.72,38,38,0,0,1,2.71-4.38l-.09-.16a33.07,33.07,0,0,0-7.79,1.64,4,4,0,0,1-.27,1.48A3.27,3.27,0,0,1,7.43,14a38.38,38.38,0,0,0,3.46,5.09,2.62,2.62,0,0,1,.4-.11l.39-.07m1,12.77a12.86,12.86,0,0,0,1.63.26c.55,0,1.1.08,1.66.08a16.06,16.06,0,0,0,3-.28,14.16,14.16,0,0,0,2.9-.85,36.71,36.71,0,0,1-4.29-2.51,37.43,37.43,0,0,1-3.94-3.06,3.58,3.58,0,0,1-1.16.41c-.07.74-.11,1.49-.11,2.24s0,1.23.08,1.85.13,1.24.22,1.86m11.77-2.09a15.92,15.92,0,0,0,7-9.52A15.62,15.62,0,0,0,32,16a17,17,0,0,0-.17-2.36,13.94,13.94,0,0,0-.53-2.3,44.87,44.87,0,0,0-4.39-1.13,39.59,39.59,0,0,0-4.5-.62,3.41,3.41,0,0,1-1.26,1.35,3.34,3.34,0,0,1-1.78.49,3.72,3.72,0,0,1-1.16-.2,39.26,39.26,0,0,0-2.43,4,27.92,27.92,0,0,0-1.87,4.26A3.2,3.2,0,0,1,15,20.69a3.4,3.4,0,0,1,.41,1.63,3.46,3.46,0,0,1-.25,1.27,35.56,35.56,0,0,0,4.41,3.35,36.73,36.73,0,0,0,4.87,2.63M30.21,8.64a15.69,15.69,0,0,0-2-3,16.43,16.43,0,0,0-2.65-2.49c-.58.5-1.13,1-1.67,1.51s-1.05,1-1.57,1.58a3.07,3.07,0,0,1,.43,1.09,43.25,43.25,0,0,1,7.48,1.32"/></g><path class="cls-2" d="M5.14,10.29a1.08,1.08,0,0,0-.8.34,1.11,1.11,0,0,0,0,1.6,1.08,1.08,0,0,0,.8.34,1.14,1.14,0,0,0,0-2.28"/><path class="cls-2" d="M12,23.46a1.14,1.14,0,0,0,1.14-1.14A1.16,1.16,0,0,0,12,21.18a1.16,1.16,0,0,0-1.15,1.14A1.14,1.14,0,0,0,12,23.46"/><path class="cls-2" d="M18.23,8a1.15,1.15,0,1,0,2.29,0,1.07,1.07,0,0,0-.34-.8,1.15,1.15,0,0,0-1.95.8"/></svg>