<svg xmlns="http://www.w3.org/2000/svg" viewBox="0 0 31.87 31.97"><defs><style>.cls-1{fill:#2f2f2f;}.cls-2{fill:#db4519;}</style></defs><title>share</title><g id="Layer_2" data-name="Layer 2"><g id="SYMBOLS"><g id="share"><path class="cls-1" d="M11.34,19.77l8.49,4.72A6.09,6.09,0,0,1,21.15,22l-8.36-4.65A7.45,7.45,0,0,1,11.34,19.77Z"/><path class="cls-1" d="M12.68,14.38l8.06-4.44a6,6,0,0,1-1.25-2.58l-8.15,4.49A11.08,11.08,0,0,1,12.68,14.38Z"/><path class="cls-2" d="M5.06,10.76a5.07,5.07,0,1,0,5.07,5.06A5.07,5.07,0,0,0,5.06,10.76Z"/><path class="cls-2" d="M26.81,10.13a5.07,5.07,0,1,0-5.06-5.07A5.06,5.06,0,0,0,26.81,10.13Z"/><path class="cls-2" d="M26.81,21.84a5.07,5.07,0,1,0,5.06,5.07A5.06,5.06,0,0,0,26.81,21.84Z"/></g></g></g></svg>