<svg id="ArrowUp" xmlns="http://www.w3.org/2000/svg" viewBox="0 0 32 32"><defs><style>.cls-1{fill:none;}.cls-2{fill:#0078d4;}.cls-3{fill:#c2c2c2;}</style></defs><title>ShoppingBag2-blue</title><path class="cls-1" d="M20.52,4a6.3,6.3,0,0,0-9.09,0A6.52,6.52,0,0,0,9.64,8.37H22.32A6.6,6.6,0,0,0,20.52,4Z"/><path class="cls-2" d="M10.1,6.12A6.55,6.55,0,0,1,11.43,4a6.3,6.3,0,0,1,9.09,0,6.6,6.6,0,0,1,1.8,4.33h2.12A8.61,8.61,0,0,0,22,2.53,8.44,8.44,0,0,0,19.33.68a8.62,8.62,0,0,0-6.71,0A8.44,8.44,0,0,0,9.93,2.53,8.66,8.66,0,0,0,8.14,5.28a8.87,8.87,0,0,0-.63,3.09H9.64A6.5,6.5,0,0,1,10.1,6.12Z"/><path class="cls-3" d="M16,24l.86.41,11.37,5.43V8.37H3.74V29.82l11.37-5.43Zm6.67-13.07a1.06,1.06,0,0,1,1.8.75,1,1,0,0,1-.31.74,1,1,0,0,1-1.49,0,1,1,0,0,1-.32-.74A1,1,0,0,1,22.65,10.91ZM9.3,12.4a1,1,0,0,1-1.49,0,1,1,0,0,1-.31-.74,1.06,1.06,0,0,1,2.12,0A1,1,0,0,1,9.3,12.4Z"/><path class="cls-2" d="M8.56,10.6A1.06,1.06,0,0,0,7.5,11.66a1,1,0,0,0,.31.74,1,1,0,0,0,1.49,0,1,1,0,0,0,.32-.74,1,1,0,0,0-.32-.75A1,1,0,0,0,8.56,10.6Z"/><path class="cls-2" d="M23.39,12.72a1,1,0,0,0,.75-.32,1,1,0,0,0,.31-.74,1.06,1.06,0,0,0-2.12,0,1,1,0,0,0,.32.74A1,1,0,0,0,23.39,12.72Z"/><polygon class="cls-3" points="15.98 26.21 3.85 32 15.98 32 28.11 32 15.98 26.21"/></svg>