<svg xmlns="http://www.w3.org/2000/svg" viewBox="0 0 32 28.09"><defs><style>.cls-1{fill:none;}.cls-2{fill:#c2c2c2;}.cls-3{fill:#d2d2d2;}.cls-4{fill:#d83b01;}.cls-5{fill:#2f2f2f;}</style></defs><title>shopping_cart</title><g id="Layer_2" data-name="Layer 2"><g id="SYMBOLS"><g id="shopping_cart"><path class="cls-1" d="M11,24a.94.94,0,0,0-.7.3,1,1,0,0,0-.3.7,1,1,0,0,0,1,1,1,1,0,0,0,.7-.3A.94.94,0,0,0,12,25a1,1,0,0,0-1-1Z"/><path class="cls-1" d="M25,24a.94.94,0,0,0-.7.3,1,1,0,0,0-.3.7,1,1,0,0,0,1,1,1,1,0,0,0,.7-.3A.94.94,0,0,0,26,25a1,1,0,0,0-1-1Z"/><path class="cls-2" d="M27.12,22.88a2.87,2.87,0,0,0-.95-.65A3,3,0,0,0,25,22H11.72l-1.33-4h17L32,4H5.72L11.8,22.28,5.72,4h0L4.39,0H0V2H3L9.7,22.3a3,3,0,0,0-1.24,1.11A2.91,2.91,0,0,0,8,25a3,3,0,0,0,.23,1.17,3.12,3.12,0,0,0,1.6,1.6,3.09,3.09,0,0,0,2.34,0,3.12,3.12,0,0,0,1.6-1.6A3,3,0,0,0,14,25a3.28,3.28,0,0,0-.17-1h8.34A3.28,3.28,0,0,0,22,25a3,3,0,0,0,.23,1.17,3.12,3.12,0,0,0,1.6,1.6,3.09,3.09,0,0,0,2.34,0,3.12,3.12,0,0,0,1.6-1.6,3.09,3.09,0,0,0,0-2.34A2.87,2.87,0,0,0,27.12,22.88ZM11.7,25.7a1,1,0,0,1-.7.3,1,1,0,0,1-1-1,1,1,0,0,1,.3-.7A.94.94,0,0,1,11,24a1,1,0,0,1,1,1A.94.94,0,0,1,11.7,25.7Zm14,0a1,1,0,0,1-.7.3,1,1,0,0,1-1-1,1,1,0,0,1,.3-.7A.94.94,0,0,1,25,24a1,1,0,0,1,1,1A.94.94,0,0,1,25.7,25.7Z"/><path class="cls-3" d="M5.72,4h0m4.67,14h17L32,4H5.72"/><path class="cls-4" d="M5.72,4h0m4.67,14h17L32,4H5.72Z"/><path class="cls-5" d="M11,22.09a3,3,0,1,0,3,3A3,3,0,0,0,11,22.09Zm0,4a1,1,0,1,1,1-1A1,1,0,0,1,11,26.09Z"/><path class="cls-5" d="M25,22.09a3,3,0,1,0,3,3A3,3,0,0,0,25,22.09Zm0,4a1,1,0,1,1,1-1A1,1,0,0,1,25,26.09Z"/></g></g></g></svg>