<svg id="ArrowUp" xmlns="http://www.w3.org/2000/svg" viewBox="0 0 32 32"><defs><style>.cls-1{fill:none;}.cls-2{fill:#c2c2c2;}.cls-3{fill:#0078d4;}.cls-4{fill:#2f2f2f;}</style></defs><title>ShoppingCartPurchase-blue</title><path class="cls-1" d="M11,26a1,1,0,0,0-1,1,1,1,0,0,0,.29.66,1,1,0,0,0,1.41,0A.94.94,0,0,0,11,26Z"/><path class="cls-1" d="M25,26a1,1,0,0,0-1,1,1,1,0,0,0,.29.66,1,1,0,0,0,1.41,0A.94.94,0,0,0,25,26Z"/><path class="cls-2" d="M11,28a1,1,0,0,1-.71-.3A1,1,0,0,1,10,27v0a1,1,0,0,0,2,0s0,0,0,0a1,1,0,0,1-.29.66A1,1,0,0,1,11,28Z"/><path class="cls-2" d="M14,27s0,0,0,0a3,3,0,0,0-.18-1h8.35A3,3,0,0,0,22,27v0a3,3,0,0,1,6,0s0,0,0,0a2.85,2.85,0,0,0-.24-1.17,2.89,2.89,0,0,0-.64-1A3,3,0,0,0,25,24H11.73l-1.32-4L5.74,6l6,18.2A3,3,0,0,1,14,27Z"/><path class="cls-2" d="M25,28a1,1,0,0,1-.71-.3A1,1,0,0,1,24,27v0a1,1,0,0,0,2,0s0,0,0,0a1,1,0,0,1-.29.66A1,1,0,0,1,25,28Z"/><path class="cls-2" d="M9.72,24.25A3,3,0,0,0,8,27v0a3,3,0,0,1,3-3,2.88,2.88,0,0,1,.77.12L5.74,6h0L4.41,2H0V4H3Z"/><polygon class="cls-3" points="27.36 19.96 32.02 5.96 5.74 5.96 10.41 19.96 27.36 19.96"/><path class="cls-4" d="M13.14,29.08a3,3,0,0,1-1,.64,3,3,0,0,1-2.35,0,3,3,0,0,1-.95-.64,3.12,3.12,0,0,1-.64-.95A3,3,0,0,1,8,27v0a3,3,0,0,0,6,0s0,0,0,0a2.85,2.85,0,0,1-.23,1.13A3,3,0,0,1,13.14,29.08Z"/><path class="cls-4" d="M11.72,26.25a1,1,0,0,0-1.41,0A1,1,0,0,0,10,27v0a1,1,0,0,1,2,0s0,0,0,0A1,1,0,0,0,11.72,26.25Z"/><path class="cls-4" d="M11.79,24.16l0,.08,0-.08A2.88,2.88,0,0,0,11,24a3,3,0,0,0-3,3,3,3,0,0,0,.23,1.13,3.12,3.12,0,0,0,.64.95A3,3,0,0,0,11,30a2.92,2.92,0,0,0,1.17-.24,3,3,0,0,0,1.59-1.59A2.85,2.85,0,0,0,14,27,3,3,0,0,0,11.79,24.16ZM12,27a1,1,0,0,1-2,0V27a1,1,0,0,1,.29-.71,1,1,0,0,1,1.41,0A1,1,0,0,1,12,27s0,0,0,0S12,27,12,27Z"/><path class="cls-4" d="M27.14,29.08a3,3,0,0,1-.95.64,3,3,0,0,1-2.35,0,3,3,0,0,1-.95-.64,3.12,3.12,0,0,1-.64-.95A3,3,0,0,1,22,27v0a3,3,0,0,0,6,0s0,0,0,0a2.85,2.85,0,0,1-.23,1.13A3,3,0,0,1,27.14,29.08Z"/><path class="cls-4" d="M25.72,26.25a1,1,0,0,0-1.41,0A1,1,0,0,0,24,27v0a1,1,0,0,1,2,0s0,0,0,0A1,1,0,0,0,25.72,26.25Z"/><path class="cls-4" d="M25,24a3,3,0,0,0-3,3,3,3,0,0,0,.23,1.13,3.12,3.12,0,0,0,.64.95A3,3,0,0,0,25,30a2.92,2.92,0,0,0,1.17-.24,3,3,0,0,0,1.59-1.59A2.85,2.85,0,0,0,28,27,3,3,0,0,0,25,24Zm1,3a1,1,0,0,1-2,0V27a1,1,0,0,1,.29-.71,1,1,0,0,1,1.41,0A1,1,0,0,1,26,27s0,0,0,0S26,27,26,27Z"/></svg>