<svg xmlns="http://www.w3.org/2000/svg" viewBox="0 0 31.97 31.88"><defs><style>.cls-1{fill:#d2d2d2;}.cls-2{fill:#2f2f2f;}.cls-3{fill:#d83b01;}</style></defs><title>sign_up</title><g id="Layer_2" data-name="Layer 2"><g id="SYMBOLS"><g id="sign_up"><polygon class="cls-1" points="2.7 29.18 4.69 21.22 21.08 4.85 0 4.85 0 31.88 27.03 31.88 27.03 10.8 10.66 27.19 2.7 29.18"/><path class="cls-2" d="M25.89,2.6,24.48,4,23.2,5.29,7,21.48a5.42,5.42,0,0,1,2.16,1.33A5.35,5.35,0,0,1,10.49,25L26.68,8.77,28,7.49l1.42-1.41Z"/><path class="cls-3" d="M27.53,1a5.07,5.07,0,0,1,.55-.49,2.94,2.94,0,0,1,.63-.34A2.39,2.39,0,0,1,29.5,0a2.31,2.31,0,0,1,.95.2,2.49,2.49,0,0,1,.79.53,2.76,2.76,0,0,1,.53.78,2.39,2.39,0,0,1,.2,1,2.15,2.15,0,0,1-.13.79,2.71,2.71,0,0,1-.33.63,5.07,5.07,0,0,1-.49.55L30.45,5,27,1.52Z"/><path class="cls-2" d="M6.09,22.94a3.88,3.88,0,0,1,1,.38A4.29,4.29,0,0,1,8,24a4,4,0,0,1,1,1.9l-3.91,1Z"/></g></g></g></svg>