<svg id="ArrowUp" xmlns="http://www.w3.org/2000/svg" viewBox="0 0 32 32"><defs><style>.cls-1{fill:#0078d4;}.cls-2{fill:#c2c2c2;}.cls-3{fill:#2f2f2f;}</style></defs><title>SmallBusiness-blue</title><rect class="cls-1" x="26.02" y="13.5" height="2"/><path class="cls-1" d="M26,15.52v0h0Z"/><path class="cls-2" d="M27.07,15.47a2.21,2.21,0,0,1-4.42,0,2.21,2.21,0,0,1-4.41,0,2.21,2.21,0,0,1-4.41,0,2.21,2.21,0,0,1-4.42,0,2.21,2.21,0,0,1-4.41,0,2.19,2.19,0,0,1-3.31,1.88V32H30.38V17.35a2.19,2.19,0,0,1-3.31-1.88Zm-22,14.32L5,21H27.06l.09,8.82Z"/><path class="cls-1" d="M5,13.24v2.23a2.21,2.21,0,0,1-2.21,2.19,2.22,2.22,0,0,1-1.1-.31,2.21,2.21,0,0,1-1.11-1.9V13.24Z"/><path class="cls-3" d="M9.41,13.24v2.23a2.21,2.21,0,0,1-4.41,0V13.24Z"/><rect class="cls-3" x="5" y="13.24" height="2.21"/><path class="cls-3" d="M5,15.45v0Z"/><path class="cls-1" d="M13.83,13.24v2.23a2.21,2.21,0,0,1-4.42,0s0,0,0,0V13.24Z"/><rect class="cls-1" x="9.41" y="13.24" height="2.21" transform="translate(-0.01 0.01) rotate(-0.06)"/><path class="cls-1" d="M9.41,15.45v0Z"/><path class="cls-3" d="M18.24,15.47a2.21,2.21,0,0,1-4.41,0V13.24h4.4v2.21S18.24,15.46,18.24,15.47Z"/><rect class="cls-3" x="13.82" y="13.24" height="2.21" transform="translate(-0.01 0.01) rotate(-0.06)"/><path class="cls-3" d="M13.82,15.45v0Z"/><path class="cls-1" d="M22.65,13.24v2.23a2.21,2.21,0,0,1-4.41,0V13.24Z"/><rect class="cls-1" x="18.24" y="13.24" height="2.21" transform="translate(-0.01 0.02) rotate(-0.06)"/><path class="cls-1" d="M18.24,15.45v0Z"/><path class="cls-3" d="M27.07,13.24v2.23a2.21,2.21,0,0,1-4.42,0V13.24Z"/><rect class="cls-3" x="22.65" y="13.24" height="2.21"/><path class="cls-3" d="M22.65,15.45v0Z"/><polygon class="cls-2" points="31.48 13.24 0.58 13.24 5 6.63 14.93 6.63 14.93 5.52 7.21 5.52 7.21 0 24.86 0 24.86 5.52 17.14 5.52 17.14 6.63 27.07 6.63 31.48 13.24"/><path class="cls-1" d="M31.47,13.24v2.23a2.2,2.2,0,0,1-4.4,0V13.24Z"/></svg>