<svg id="ArrowUp" xmlns="http://www.w3.org/2000/svg" viewBox="0 0 32 32"><defs><style>.cls-1{fill:none;}.cls-2{fill:#c2c2c2;}.cls-3{fill:#0078d4;}.cls-4{fill:#2f2f2f;}</style></defs><title>Speaker-blue</title><path class="cls-1" d="M11.49,15.18a6.56,6.56,0,0,0,2,1.38,6.08,6.08,0,0,0,2.48.51,6.15,6.15,0,0,0,2.48-.51,6.52,6.52,0,0,0,2-1.38,6.4,6.4,0,0,0,1.38-2,6.4,6.4,0,0,0,0-5,6.56,6.56,0,0,0-1.38-2,6.66,6.66,0,0,0-2-1.37A6.15,6.15,0,0,0,16,4.27a6.08,6.08,0,0,0-2.48.51,6.37,6.37,0,0,0-3.41,3.41,6.28,6.28,0,0,0,0,5A6.55,6.55,0,0,0,11.49,15.18ZM12.08,9A4.6,4.6,0,0,1,13,7.66a4.23,4.23,0,0,1,1.35-.91A4.05,4.05,0,0,1,16,6.4a4.11,4.11,0,0,1,1.65.35A4.23,4.23,0,0,1,19,7.66,4.41,4.41,0,0,1,19.93,9a4.2,4.2,0,0,1,0,3.31A4.49,4.49,0,0,1,19,13.68a4.4,4.4,0,0,1-1.35.91,4.1,4.1,0,0,1-1.65.34,4,4,0,0,1-1.66-.34A4.4,4.4,0,0,1,13,13.68a4.68,4.68,0,0,1-.92-1.35,4.2,4.2,0,0,1,0-3.31Z"/><path class="cls-1" d="M19,20.46a4.25,4.25,0,0,0-1.35-.92A4.1,4.1,0,0,0,16,19.2a4,4,0,0,0-1.66.34,4.25,4.25,0,0,0-1.35.92,4.42,4.42,0,0,0-.92,1.35,4.27,4.27,0,0,0-.34,1.65,4.21,4.21,0,0,0,.34,1.66,4.39,4.39,0,0,0,2.27,2.27,4.21,4.21,0,0,0,1.66.34,4.27,4.27,0,0,0,1.65-.34A4.42,4.42,0,0,0,19,26.47a4.25,4.25,0,0,0,.92-1.35,4,4,0,0,0,.34-1.66,4.1,4.1,0,0,0-.34-1.65A4.25,4.25,0,0,0,19,20.46ZM18,24.3a2.06,2.06,0,0,1-.46.67,2,2,0,0,1-.67.46,2.09,2.09,0,0,1-.83.17,2.14,2.14,0,0,1-.84-.17A2.22,2.22,0,0,1,14,24.3a2.13,2.13,0,0,1-.16-.84,2.08,2.08,0,0,1,.16-.83,2.22,2.22,0,0,1,1.13-1.13,2.14,2.14,0,0,1,.84-.17,2.09,2.09,0,0,1,.83.17,2,2,0,0,1,.67.46,2.06,2.06,0,0,1,.46.67,2.09,2.09,0,0,1,.17.83A2.14,2.14,0,0,1,18,24.3Z"/><path class="cls-2" d="M5.34,32H26.67V0H5.34Zm14.59-6.88a4.3,4.3,0,0,1-2.27,2.27,4.1,4.1,0,0,1-1.65.34,4,4,0,0,1-1.66-.34A4.25,4.25,0,0,1,13,26.47a4.42,4.42,0,0,1-.92-1.35,4,4,0,0,1-.34-1.65,4,4,0,0,1,.34-1.65A4.35,4.35,0,0,1,13,20.46a4.25,4.25,0,0,1,1.35-.92A4,4,0,0,1,16,19.2a4.1,4.1,0,0,1,1.65.34,4.41,4.41,0,0,1,1.36.92,4.33,4.33,0,0,1,.91,1.36,4,4,0,0,1,.34,1.65A4,4,0,0,1,19.93,25.12ZM10.12,8.18a6.44,6.44,0,0,1,1.37-2,6.64,6.64,0,0,1,2-1.38,6.43,6.43,0,0,1,5,0,6.4,6.4,0,0,1,2,1.38,6.64,6.64,0,0,1,1.38,2,6.31,6.31,0,0,1,0,5,6.55,6.55,0,0,1-3.41,3.41,6.31,6.31,0,0,1-5,0,6.64,6.64,0,0,1-2-1.38,6.22,6.22,0,0,1-1.37-2,6.31,6.31,0,0,1,0-5Z"/><path class="cls-3" d="M13,13.68a4.4,4.4,0,0,0,1.35.91,4,4,0,0,0,1.66.34,4.1,4.1,0,0,0,1.65-.34A4.4,4.4,0,0,0,19,13.68a4.49,4.49,0,0,0,.92-1.35,4.2,4.2,0,0,0,0-3.31A4.41,4.41,0,0,0,19,7.66a4.23,4.23,0,0,0-1.35-.91A4.11,4.11,0,0,0,16,6.4a4.05,4.05,0,0,0-1.66.35A4.23,4.23,0,0,0,13,7.66,4.6,4.6,0,0,0,12.08,9a4.2,4.2,0,0,0,0,3.31A4.68,4.68,0,0,0,13,13.68ZM16,9.1a1.59,1.59,0,1,1-1.59,1.59A1.6,1.6,0,0,1,16,9.1Z"/><path class="cls-4" d="M17.51,22a2,2,0,0,0-.67-.46,2.09,2.09,0,0,0-.83-.17,2.14,2.14,0,0,0-.84.17A2.22,2.22,0,0,0,14,22.63a2.08,2.08,0,0,0-.16.83,2.13,2.13,0,0,0,.16.84,2.22,2.22,0,0,0,1.13,1.13,2.14,2.14,0,0,0,.84.17,2.09,2.09,0,0,0,.83-.17,2,2,0,0,0,.67-.46A2.06,2.06,0,0,0,18,24.3a2.14,2.14,0,0,0,.17-.84,2.09,2.09,0,0,0-.17-.83A2.06,2.06,0,0,0,17.51,22Z"/><path class="cls-4" d="M16,12.28a1.59,1.59,0,1,0-1.59-1.59A1.6,1.6,0,0,0,16,12.28Z"/></svg>