<svg xmlns="http://www.w3.org/2000/svg" viewBox="0 0 21.31 31.97"><defs><style>.cls-1{fill:#c2c2c2;}.cls-2{fill:#fff;}.cls-3{fill:#2f2f2f;}.cls-4{fill:#d83b01;}</style></defs><title>speaker</title><g id="Layer_2" data-name="Layer 2"><g id="SYMBOLS"><g id="speaker"><path class="cls-1" d="M0,0V32H21.31V0ZM14.58,25.1a4.42,4.42,0,0,1-.92,1.35,4.16,4.16,0,0,1-1.36.91,4.06,4.06,0,0,1-3.3,0,4.23,4.23,0,0,1-1.35-.91,4.42,4.42,0,0,1-.92-1.35,4.21,4.21,0,0,1-.34-1.66,4.27,4.27,0,0,1,.34-1.65,4.42,4.42,0,0,1,.92-1.35A4.25,4.25,0,0,1,9,19.52a4.17,4.17,0,0,1,3.3,0,4.19,4.19,0,0,1,1.36.92,4.42,4.42,0,0,1,.92,1.35,4.27,4.27,0,0,1,.34,1.65A4.21,4.21,0,0,1,14.58,25.1Zm2-12a6.43,6.43,0,0,1-3.4,3.4,6.15,6.15,0,0,1-2.48.51,6.08,6.08,0,0,1-2.48-.51,6.54,6.54,0,0,1-2-1.37,6.79,6.79,0,0,1-1.37-2,6.15,6.15,0,0,1-.51-2.48,6.08,6.08,0,0,1,.51-2.48A6.37,6.37,0,0,1,8.18,4.77a6.08,6.08,0,0,1,2.48-.51,6.15,6.15,0,0,1,2.48.51,6.79,6.79,0,0,1,2,1.37,6.54,6.54,0,0,1,1.37,2,6.08,6.08,0,0,1,.51,2.48A6.15,6.15,0,0,1,16.54,13.14Z"/><path class="cls-2" d="M15.17,6.14a6.79,6.79,0,0,0-2-1.37,6.15,6.15,0,0,0-2.48-.51,6.08,6.08,0,0,0-2.48.51A6.37,6.37,0,0,0,4.77,8.18a6.08,6.08,0,0,0-.51,2.48,6.15,6.15,0,0,0,.51,2.48,6.79,6.79,0,0,0,1.37,2,6.54,6.54,0,0,0,2,1.37,6.08,6.08,0,0,0,2.48.51,6.15,6.15,0,0,0,2.48-.51,6.43,6.43,0,0,0,3.4-3.4,6.15,6.15,0,0,0,.51-2.48,6.08,6.08,0,0,0-.51-2.48A6.54,6.54,0,0,0,15.17,6.14Zm-.59,6.17a4.42,4.42,0,0,1-.92,1.35,4.35,4.35,0,0,1-1.36.92,4.17,4.17,0,0,1-3.3,0,4.39,4.39,0,0,1-2.27-2.27,4.17,4.17,0,0,1,0-3.3,4.47,4.47,0,0,1,.92-1.36A4.42,4.42,0,0,1,9,6.73a4.17,4.17,0,0,1,3.3,0,4.35,4.35,0,0,1,1.36.92A4.47,4.47,0,0,1,14.58,9a4.17,4.17,0,0,1,0,3.3Z"/><path class="cls-3" d="M13.66,7.65a4.35,4.35,0,0,0-1.36-.92,4.17,4.17,0,0,0-3.3,0,4.42,4.42,0,0,0-1.35.92A4.47,4.47,0,0,0,6.73,9a4.17,4.17,0,0,0,0,3.3A4.39,4.39,0,0,0,9,14.58a4.17,4.17,0,0,0,3.3,0,4.35,4.35,0,0,0,1.36-.92,4.42,4.42,0,0,0,.92-1.35,4.17,4.17,0,0,0,0-3.3A4.47,4.47,0,0,0,13.66,7.65Zm-3,4.62a1.59,1.59,0,1,1,1.59-1.59A1.59,1.59,0,0,1,10.66,12.27Z"/><path class="cls-2" d="M13.66,20.44a4.19,4.19,0,0,0-1.36-.92,4.17,4.17,0,0,0-3.3,0,4.25,4.25,0,0,0-1.35.92,4.42,4.42,0,0,0-.92,1.35,4.27,4.27,0,0,0-.34,1.65,4.21,4.21,0,0,0,.34,1.66,4.42,4.42,0,0,0,.92,1.35A4.23,4.23,0,0,0,9,27.36a4.06,4.06,0,0,0,3.3,0,4.16,4.16,0,0,0,1.36-.91,4.42,4.42,0,0,0,.92-1.35,4.21,4.21,0,0,0,.34-1.66,4.27,4.27,0,0,0-.34-1.65A4.42,4.42,0,0,0,13.66,20.44Zm-1,3.84a2.06,2.06,0,0,1-.46.67,2.22,2.22,0,0,1-.67.46,2.08,2.08,0,0,1-.83.16,2.13,2.13,0,0,1-.84-.16A2.22,2.22,0,0,1,9.15,25a2.06,2.06,0,0,1-.46-.67,2.14,2.14,0,0,1-.17-.84,2.09,2.09,0,0,1,.17-.83,2.22,2.22,0,0,1,1.13-1.13,2.14,2.14,0,0,1,.84-.17,2.09,2.09,0,0,1,.83.17,2.22,2.22,0,0,1,1.13,1.13,2.09,2.09,0,0,1,.17.83A2.14,2.14,0,0,1,12.62,24.28Z"/><path class="cls-3" d="M12.16,21.94a2.06,2.06,0,0,0-.67-.46,2.09,2.09,0,0,0-.83-.17,2.14,2.14,0,0,0-.84.17,2.22,2.22,0,0,0-1.13,1.13,2.09,2.09,0,0,0-.17.83,2.14,2.14,0,0,0,.17.84,2.06,2.06,0,0,0,.46.67,2.22,2.22,0,0,0,.67.46,2.13,2.13,0,0,0,.84.16,2.08,2.08,0,0,0,.83-.16,2.22,2.22,0,0,0,.67-.46,2.06,2.06,0,0,0,.46-.67,2.14,2.14,0,0,0,.17-.84,2.09,2.09,0,0,0-.17-.83A2.06,2.06,0,0,0,12.16,21.94Z"/><path class="cls-4" d="M10.66,9.09a1.59,1.59,0,1,0,1.59,1.59A1.59,1.59,0,0,0,10.66,9.09Z"/></g></g></g></svg>