<svg xmlns="http://www.w3.org/2000/svg" viewBox="0 0 32 32"><defs><style>.cls-1{fill:#2f2f2f;}.cls-2{fill:#fff;}</style></defs><title>success</title><g id="Layer_2" data-name="Layer 2"><g id="SYMBOLS"><g id="success"><path class="cls-1" d="M31.43,11.75a16.43,16.43,0,0,0-1.61-3.83,16,16,0,0,0-5.74-5.74A16.43,16.43,0,0,0,20.25.57a16.17,16.17,0,0,0-8.51,0A16.35,16.35,0,0,0,7.92,2.18,16,16,0,0,0,2.18,7.92,16.43,16.43,0,0,0,.57,11.75a16.17,16.17,0,0,0,0,8.51,16.35,16.35,0,0,0,1.61,3.82,16,16,0,0,0,5.74,5.74,16.43,16.43,0,0,0,3.83,1.61,16.13,16.13,0,0,0,8.5,0,16.43,16.43,0,0,0,3.83-1.61,16,16,0,0,0,5.74-5.74,16.43,16.43,0,0,0,1.61-3.83,16.13,16.13,0,0,0,0-8.5Z"/><polygon class="cls-2" points="13.5 18.39 9.2 14.1 7.3 16 13.5 22.2 25.7 10 23.8 8.1 13.5 18.39"/></g></g></g></svg>