<svg id="ArrowUp" xmlns="http://www.w3.org/2000/svg" viewBox="0 0 32 32"><defs><style>.cls-1{fill:#c2c2c2;}.cls-2{fill:#0078d4;}</style></defs><title>SuccessCheckmark-blue</title><path class="cls-1" d="M29.82,7.92a16,16,0,0,0-5.74-5.74A16.43,16.43,0,0,0,20.25.57a16.17,16.17,0,0,0-8.51,0A16.35,16.35,0,0,0,7.92,2.18,16,16,0,0,0,2.18,7.92,16.43,16.43,0,0,0,.57,11.75a16.17,16.17,0,0,0,0,8.51,16.35,16.35,0,0,0,1.61,3.82,16,16,0,0,0,5.74,5.74,16.43,16.43,0,0,0,3.83,1.61,16.13,16.13,0,0,0,8.5,0,16.43,16.43,0,0,0,3.83-1.61,16,16,0,0,0,5.74-5.74,16.43,16.43,0,0,0,1.61-3.83,16.13,16.13,0,0,0,0-8.5A16.43,16.43,0,0,0,29.82,7.92ZM13,22.41,7.3,16.7l1.4-1.4L13,19.59,23.3,9.3l1.4,1.4Z"/><polygon class="cls-2" points="13 19.59 8.7 15.3 7.3 16.7 13 22.41 24.7 10.7 23.3 9.3 13 19.59"/></svg>