<svg id="ArrowUp" xmlns="http://www.w3.org/2000/svg" viewBox="0 0 32 32"><defs><style>.cls-1{fill:#c2c2c2;}.cls-2{fill:#2f2f2f;}.cls-3{fill:#d2d2d2;}.cls-4{fill:#0078d4;}</style></defs><title>Surprise-blue</title><polygon class="cls-1" points="23.2 7.87 16.23 11.33 23.2 14.81 30.17 11.33 23.2 7.87"/><polygon class="cls-2" points="23.48 16.77 16.23 20.39 16.23 31.01 23.48 27.38 23.48 16.77"/><polygon class="cls-2" points="13.81 20.39 6.56 16.77 6.54 27.4 13.81 31.01 13.81 20.39"/><polygon class="cls-3" points="0 11.33 6.97 14.81 13.94 11.33 6.97 7.87 0 11.33"/><path class="cls-4" d="M20.77,3.22a1.6,1.6,0,0,1-.6-.36,1.6,1.6,0,0,1-.36-.6,6.29,6.29,0,0,1-.25-1C19.5,1.08,19.4,1,19.25,1a.3.3,0,0,0-.31.27,7.61,7.61,0,0,1-.25,1,1.74,1.74,0,0,1-.36.6,1.6,1.6,0,0,1-.6.36,7.61,7.61,0,0,1-1,.25.31.31,0,0,0-.27.31.3.3,0,0,0,.27.31,7.61,7.61,0,0,1,1,.25,1.6,1.6,0,0,1,.6.36,1.74,1.74,0,0,1,.36.6,6.87,6.87,0,0,1,.25,1,.3.3,0,0,0,.31.27c.15,0,.25-.09.31-.27a5.77,5.77,0,0,1,.25-1,1.44,1.44,0,0,1,1-1,6.87,6.87,0,0,1,1-.25A.3.3,0,0,0,22,3.78a.31.31,0,0,0-.27-.31A6.87,6.87,0,0,1,20.77,3.22Z"/><path class="cls-4" d="M14.59,17.52a9.63,9.63,0,0,1,.25,1,.3.3,0,0,0,.31.27c.15,0,.25-.09.31-.27a6.29,6.29,0,0,1,.25-1,1.6,1.6,0,0,1,.36-.6,1.73,1.73,0,0,1,.6-.35,6.7,6.7,0,0,1,1-.26.3.3,0,0,0,.27-.31c0-.15-.09-.25-.27-.31a5.77,5.77,0,0,1-1-.25,1.44,1.44,0,0,1-1-1,5.77,5.77,0,0,1-.25-1c-.06-.18-.16-.27-.31-.27a.3.3,0,0,0-.31.27,8.47,8.47,0,0,1-.25,1,1.91,1.91,0,0,1-.36.6,1.6,1.6,0,0,1-.6.36,6.29,6.29,0,0,1-1,.25c-.18.06-.27.16-.27.31a.3.3,0,0,0,.27.31,7.43,7.43,0,0,1,1,.26,1.73,1.73,0,0,1,.6.35A1.91,1.91,0,0,1,14.59,17.52Z"/><path class="cls-4" d="M26.69,18.74a7.22,7.22,0,0,1,1,.25,1.44,1.44,0,0,1,1,1,7.22,7.22,0,0,1,.25,1,.3.3,0,0,0,.31.27.32.32,0,0,0,.31-.27,7.22,7.22,0,0,1,.25-1,1.44,1.44,0,0,1,1-1,7.22,7.22,0,0,1,1-.25.3.3,0,0,0,.27-.31.31.31,0,0,0-.27-.31,7.22,7.22,0,0,1-1-.25,1.44,1.44,0,0,1-1-1,7.22,7.22,0,0,1-.25-1,.32.32,0,0,0-.31-.27.3.3,0,0,0-.31.27,7.22,7.22,0,0,1-.25,1,1.44,1.44,0,0,1-1,1,7.22,7.22,0,0,1-1,.25.31.31,0,0,0-.27.31A.3.3,0,0,0,26.69,18.74Z"/></svg>