<svg width="32" height="32" viewBox="0 0 32 32" fill="none" xmlns="http://www.w3.org/2000/svg">
<path fill-rule="evenodd" clip-rule="evenodd" d="M10.2452 3.04632L7.85298 1.92414L8.75559 0L14.5458 2.71615L11.8296 8.50633L9.90547 7.60372L11.1321 4.98886C6.70078 6.48314 4.33746 9.15854 3.15793 11.9086C1.87766 14.8936 1.96281 18.0419 2.47599 20.0039L0.419825 20.5417C-0.195949 18.1875 -0.286714 14.5481 1.20468 11.0709C2.6049 7.80623 5.37519 4.74753 10.2452 3.04632ZM30.9085 17.6089L28.7082 18.9258C29.2534 14.5698 28.0289 11.0566 26.0937 8.43677C23.9289 5.50625 20.8925 3.71443 18.5218 3.06399L17.9595 5.11358C19.8912 5.64358 22.5152 7.16959 24.3842 9.69958C26.0138 11.9057 27.084 14.8919 26.5928 18.7132L25.0514 16.1378L23.2277 17.2293L26.5122 22.717L32 19.4325L30.9085 17.6089ZM5.59602 28.3606L5.84841 30.9724L3.73293 31.1768L3.11776 24.8108L9.4837 24.1957L9.68813 26.3111L6.78218 26.592C9.8399 28.9537 12.9832 29.509 15.7353 29.1779C18.8367 28.8047 21.4615 27.3005 22.8872 25.9051L24.3738 27.4239C22.6294 29.1313 19.5769 30.8563 15.9892 31.288C12.7469 31.6781 9.0829 31.0082 5.59602 28.3606Z" fill="#0078D4"/>
</svg>
