<svg xmlns="http://www.w3.org/2000/svg" viewBox="0 0 32 26"><defs><style>.cls-1{fill:#d83b01;}.cls-2{fill:#2f2f2f;}</style></defs><title>tag</title><g id="Layer_2" data-name="Layer 2"><g id="SYMBOLS"><g id="tag"><polygon class="cls-1" points="17.44 20.56 26 12 26 7.08 26 4.83 26 3.13 26 0 14 0 0 14 12 26 15.18 22.82 16 22 17.44 20.56"/><path class="cls-2" d="M31.58,10.44a9.67,9.67,0,0,0-1.21-2.58,9.85,9.85,0,0,0-1.89-2.14A10.2,10.2,0,0,0,26,4.16V6.41a8,8,0,0,1,1.66,1.28,7.68,7.68,0,0,1,1.26,1.65,8.11,8.11,0,0,1,.8,1.92A7.6,7.6,0,0,1,30,13.33a7.72,7.72,0,0,1-.63,3.11,8.11,8.11,0,0,1-4.26,4.26,7.75,7.75,0,0,1-3.11.63A8.1,8.1,0,0,1,19.61,21a7.91,7.91,0,0,1-1.81-.86l-1.4,1.5a9.45,9.45,0,0,0,2.44,1.22,10.24,10.24,0,0,0,3.16.5,9.81,9.81,0,0,0,3.9-.78,10,10,0,0,0,5.32-5.32,9.77,9.77,0,0,0,.78-3.9A10,10,0,0,0,31.58,10.44Z"/></g></g></g></svg>