<svg width="22" height="32" viewBox="0 0 22 32" fill="none" xmlns="http://www.w3.org/2000/svg">
<path d="M4.6022 4.2704H8.86522C8.86522 3.86011 8.86522 3.40979 8.86522 2.90944C8.84948 2.44041 8.90344 1.97164 9.02533 1.51845C9.12363 1.11037 9.3312 0.736749 9.62575 0.437691C10.0114 0.117922 10.5077 -0.0367162 11.0067 0.00738682C11.3512 -0.00266106 11.6934 0.0657797 12.0074 0.207528C12.261 0.325092 12.4787 0.508179 12.6379 0.737903C12.802 0.974144 12.9207 1.23882 12.9881 1.51845C13.0558 1.8184 13.1027 2.12267 13.1282 2.4291C13.1282 2.74933 13.1282 3.06955 13.1282 3.42981C13.1282 3.79006 13.1282 4.04024 13.1282 4.32044H17.3912V6.40191H4.6022V4.2704Z" fill="#2F2F2F"/>
<path d="M11.005 32H0.337463V4.27039H2.46897V8.54341H19.531V4.27039H21.6625V32H11.005Z" fill="#C2C2C2"/>
<path d="M5.44779 20.636L8.93286 24.1069L16.552 16.4877" stroke="#0078D4" stroke-width="2" stroke-linecap="square"/>
</svg>
