<svg xmlns="http://www.w3.org/2000/svg" viewBox="0 0 25.12 31.97"><defs><style>.cls-1{fill:#c2c2c2;}.cls-2{fill:#d83b01;}</style></defs><title>tasks</title><g id="Layer_2" data-name="Layer 2"><g id="SYMBOLS"><g id="tasks"><path d="M16,3.43a3.43,3.43,0,1,0-6.85,0H0V32H25.12V3.43ZM11.42,5.71V3.43a1.14,1.14,0,1,1,2.28,0V5.71H16V8H9.13V5.71Zm11.41,24H2.28v-24H6.85v4.57H18.27V5.71h4.56Z"/><rect class="cls-1" x="11.48" y="12.9" width="9.07" height="3.18"/><rect class="cls-1" x="11.48" y="24.54" width="9.07" height="3.18"/><rect class="cls-1" x="11.48" y="18.72" width="9.07" height="3.18"/><path class="cls-2" d="M6.7,12.33a2.13,2.13,0,1,0,2.13,2.13A2.13,2.13,0,0,0,6.7,12.33Z"/><path class="cls-2" d="M6.7,18.16a2.13,2.13,0,1,0,2.13,2.13A2.13,2.13,0,0,0,6.7,18.16Z"/><path class="cls-2" d="M6.7,24a2.13,2.13,0,1,0,2.13,2.13A2.13,2.13,0,0,0,6.7,24Z"/></g></g></g></svg>