<svg id="ArrowUp" xmlns="http://www.w3.org/2000/svg" viewBox="0 0 32 32"><defs><style>.cls-1{fill:#c2c2c2;}.cls-2{fill:#0078d4;}</style></defs><title>TimeHourglass-blue</title><path class="cls-1" d="M17.33,16a5,5,0,0,1,.9-3,6.3,6.3,0,0,1,2.39-2l1.17-.57a7.7,7.7,0,0,0,1.11-.68,11.58,11.58,0,0,0,2.15-1.92,12.47,12.47,0,0,0,1.61-2.36,12.23,12.23,0,0,0,1-2.67A11.91,11.91,0,0,0,28,0H4a11.91,11.91,0,0,0,.34,2.86,12.23,12.23,0,0,0,1,2.67A12.47,12.47,0,0,0,7,7.89,11.58,11.58,0,0,0,9.1,9.81a7.19,7.19,0,0,0,1.11.68l1.16.57a6.34,6.34,0,0,1,2.4,2,5,5,0,0,1,.9,3,4.92,4.92,0,0,1-.9,3,6.34,6.34,0,0,1-2.4,2l-1.16.57a7.19,7.19,0,0,0-1.11.68A11.58,11.58,0,0,0,7,24.11a12.47,12.47,0,0,0-1.61,2.36,12.23,12.23,0,0,0-1,2.67A11.91,11.91,0,0,0,4,32H28a11.91,11.91,0,0,0-.34-2.86,12.23,12.23,0,0,0-1-2.67,12.47,12.47,0,0,0-1.61-2.36,11.58,11.58,0,0,0-2.15-1.92,7.7,7.7,0,0,0-1.11-.68l-1.17-.57a6.3,6.3,0,0,1-2.39-2A4.92,4.92,0,0,1,17.33,16Z"/><path class="cls-2" d="M9.72,29.51a6.28,6.28,0,0,1,12.56,0"/></svg>