<svg xmlns="http://www.w3.org/2000/svg" viewBox="0 0 31.97 31.97"><defs><style>.cls-1{fill:#c2c2c2;}</style></defs><title>toolbox</title><g id="Layer_2" data-name="Layer 2"><g id="SYMBOLS"><g id="toolbox"><g id="_Utility_-_Maintain" data-name="~Utility - Maintain"><path class="cls-1" d="M24,16a7.75,7.75,0,0,0,3.11-.63,8,8,0,0,0,4.24-4.25A7.53,7.53,0,0,0,32,8a7.36,7.36,0,0,0-.43-2.51l-6.42,6.4-5-5L26.49.43A7.4,7.4,0,0,0,24,0a7.77,7.77,0,0,0-3.12.63,8.27,8.27,0,0,0-2.53,1.72,8.07,8.07,0,0,0-1.71,2.53A7.76,7.76,0,0,0,16,8a7,7,0,0,0,.11,1.22c.07.39.16.78.25,1.17L1.09,25.65a3.71,3.71,0,0,0-.8,1.2,3.65,3.65,0,0,0,0,2.85,3.9,3.9,0,0,0,.8,1.18,3.6,3.6,0,0,0,1.18.79,3.45,3.45,0,0,0,1.42.3,3.65,3.65,0,0,0,1.43-.29,3.88,3.88,0,0,0,1.2-.8L21.59,15.63c.39.09.78.18,1.17.25A7,7,0,0,0,24,16"/></g></g></g></g></svg>