<svg width="26" height="32" viewBox="0 0 26 32" fill="none" xmlns="http://www.w3.org/2000/svg">
<path d="M18.0097 4.00133V2.006C18.0097 1.73925 17.967 1.47249 17.8496 1.22708C17.7322 0.981661 17.5935 0.768256 17.4121 0.586862C17.2307 0.405468 17.028 0.266756 16.7826 0.160053C16.5478 0.0533511 16.2918 0 16.0037 0H10.007C9.74025 0 9.47349 0.0426809 9.22808 0.160053C8.98266 0.277426 8.76926 0.416139 8.58786 0.597533C8.40647 0.778926 8.26776 0.981661 8.16105 1.22708C8.05435 1.46182 8.001 1.72858 8.001 2.006V4.00133H0.00900269V5.99667H2.00433V29.0017C2.00433 29.4178 2.07903 29.8126 2.23908 30.1754C2.39913 30.5382 2.61254 30.8583 2.87929 31.125C3.14605 31.3918 3.46615 31.6052 3.82894 31.7653C4.19173 31.9253 4.58653 32 5.00267 32H20.9973C21.4135 32 21.8083 31.9253 22.1711 31.7653C22.5338 31.6052 22.854 31.3918 23.1207 31.125C23.3875 30.8583 23.6009 30.5382 23.7609 30.1754C23.921 29.8126 23.9957 29.4178 23.9957 29.0017V5.99667H25.991V4.00133H17.9883H18.0097ZM10.007 2.006H16.0037V4.00133H10.007V2.006Z" fill="#C2C2C2"/>
<path d="M10.007 9.99817H8.01167V25.9928H10.007V9.99817Z" fill="white"/>
<path d="M14.0083 9.99817H12.013V25.9928H14.0083V9.99817Z" fill="white"/>
<path d="M17.999 9.99817H16.0037V25.9928H17.999V9.99817Z" fill="white"/>
</svg>
