<svg id="ArrowUp" xmlns="http://www.w3.org/2000/svg" viewBox="0 0 32 32"><defs><style>.cls-1{fill:none;}.cls-2{fill:#c2c2c2;}.cls-3{fill:#0078d4;}</style></defs><title>TypeStyleTypeFont-blue</title><polygon class="cls-1" points="16.64 20.73 23.03 20.73 19.76 13.69 16.64 20.73"/><polygon class="cls-1" points="4.86 13.63 10.26 13.63 7.56 5.54 4.86 13.63"/><path class="cls-2" d="M32,29.38a4.14,4.14,0,0,1-1.44-.21,2.33,2.33,0,0,1-.93-.63,3.8,3.8,0,0,1-.63-1c-.18-.4-.38-.85-.59-1.35L21.3,8.9H19.78L12.53,26c-.24.59-.45,1.08-.61,1.46a3.78,3.78,0,0,1-.55,1,2.26,2.26,0,0,1-.81.6,7.26,7.26,0,0,1-1.41.38v.82h7v-.82l-.67,0a3.29,3.29,0,0,1-.72-.1,1.2,1.2,0,0,1-.56-.29.87.87,0,0,1-.23-.66,3.17,3.17,0,0,1,.12-.74,10,10,0,0,1,.31-1c.13-.35.27-.71.43-1.08s.3-.72.44-1,.27-.61.38-.85a5.45,5.45,0,0,0,.22-.51h8.29c0,.09.1.25.2.49s.21.53.34.86.26.69.41,1.06.27.74.39,1.1.21.69.29,1a3.11,3.11,0,0,1,.12.72.9.9,0,0,1-.22.68,1.18,1.18,0,0,1-.56.31,2.67,2.67,0,0,1-.71.07H23.7v.82H32ZM16.64,20.73l3.12-7,3.27,7Z"/><path class="cls-3" d="M6.32,1.8,0,20.73H2.5L4.07,16h7l1.2,3.62,1.49-3L8.8,1.8ZM4.86,13.63l2.7-8.09,2.7,8.09Z"/></svg>