<svg xmlns="http://www.w3.org/2000/svg" viewBox="0 0 31.97 28.37"><defs><style>.cls-1{fill:#c2c2c2;}.cls-2{fill:#d83b01;}</style></defs><title>type_style</title><g id="Layer_2" data-name="Layer 2"><g id="SYMBOLS"><g id="type_style"><g id="Artwork_259" data-name="Artwork 259"><path class="cls-1" d="M28.39,24.36c.2.5.4.95.58,1.35a4.07,4.07,0,0,0,.63,1,2.33,2.33,0,0,0,.93.63,4.14,4.14,0,0,0,1.44.21v.82H23.68v-.82h.69a2.72,2.72,0,0,0,.71-.07,1.15,1.15,0,0,0,.55-.31.9.9,0,0,0,.22-.68,3.6,3.6,0,0,0-.11-.72c-.08-.31-.18-.64-.3-1s-.25-.72-.39-1.1-.28-.72-.4-1.06-.25-.62-.35-.86-.16-.4-.2-.49H15.83c0,.1-.11.27-.22.51s-.24.53-.38.85l-.45,1.05q-.22.55-.42,1.08a8.35,8.35,0,0,0-.31,1,2.71,2.71,0,0,0-.12.74.83.83,0,0,0,.23.66,1.2,1.2,0,0,0,.56.29,3.2,3.2,0,0,0,.71.1l.67,0v.82h-7v-.82a7.06,7.06,0,0,0,1.41-.38,2.26,2.26,0,0,0,.81-.6,3.89,3.89,0,0,0,.55-.95c.16-.39.37-.87.61-1.46L19.76,7.09h1.51ZM23,18.91l-3.27-7-3.12,7Z"/></g><path class="cls-2" d="M8.79,0H6.32L0,18.91H2.49l1.57-4.73h7l1.2,3.62,1.5-3ZM4.86,11.82,7.55,3.73l2.7,8.09Z"/></g></g></g></svg>