<svg id="ArrowUp" xmlns="http://www.w3.org/2000/svg" viewBox="0 0 32 32"><defs><style>.cls-1{fill:none;}.cls-2{fill:#c2c2c2;}</style></defs><title>TypeFontWriting</title><polygon class="cls-1" points="10.86 17.31 19.78 17.31 15.22 7.49 10.86 17.31"/><path class="cls-2" d="M32,29.77a5.39,5.39,0,0,1-2-.32,3.41,3.41,0,0,1-1.31-.9,5.13,5.13,0,0,1-.89-1.42c-.25-.55-.51-1.16-.79-1.84L17,1.09H14.89L4.73,25c-.2.5-.39.95-.54,1.34s-.31.75-.46,1.07a4.28,4.28,0,0,1-.52.84,3.65,3.65,0,0,1-.7.65,4.3,4.3,0,0,1-1,.5A9.45,9.45,0,0,1,0,29.77v1.14H9.77V29.77l-1,0a4.09,4.09,0,0,1-1-.14A1.83,1.83,0,0,1,7,29.18a1.2,1.2,0,0,1-.32-.91A5.52,5.52,0,0,1,7,26.62c.22-.65.47-1.31.76-2s.59-1.34.88-2,.54-1.2.71-1.65H21a5.11,5.11,0,0,1,.4.92c.12.33.24.65.36,1s.27.67.47,1.17.38,1,.56,1.57.34,1.06.47,1.55a4.62,4.62,0,0,1,.21,1.15,1.32,1.32,0,0,1-.31.95,1.66,1.66,0,0,1-.78.43,3.57,3.57,0,0,1-1,.11h-1v1.14H32ZM10.48,17.65l4.38-9.86,4.58,9.86Z"/></svg>