<svg xmlns="http://www.w3.org/2000/svg" viewBox="0 0 31.97 29.8"><defs><style>.cls-1{fill:#c2c2c2;}</style></defs><title>type_font_writing</title><g id="Layer_2" data-name="Layer 2"><g id="SYMBOLS"><g id="type_font_writing"><path class="cls-1" d="M29.93,28.34a3.51,3.51,0,0,1-1.31-.91A5.22,5.22,0,0,1,27.73,26c-.24-.55-.51-1.16-.79-1.84L17,0H14.88L4.73,23.9c-.21.5-.39,1-.55,1.34s-.31.75-.46,1.07a3.9,3.9,0,0,1-.51.83,3.36,3.36,0,0,1-.7.65,4,4,0,0,1-1,.5A9.36,9.36,0,0,1,0,28.66V29.8H9.76V28.66l-1,0a4.64,4.64,0,0,1-1-.14A2,2,0,0,1,7,28.07a1.16,1.16,0,0,1-.32-.91A5.17,5.17,0,0,1,7,25.51c.21-.65.46-1.31.75-2s.59-1.35.89-2,.53-1.2.71-1.66H21a5.93,5.93,0,0,1,.4.92c.12.33.24.65.36.95s.27.68.46,1.17.38,1,.57,1.57.34,1.05.47,1.55a4.44,4.44,0,0,1,.2,1.15,1.29,1.29,0,0,1-.31.95,1.63,1.63,0,0,1-.77.43,4,4,0,0,1-1,.11h-1V29.8H32V28.66A5.59,5.59,0,0,1,29.93,28.34ZM10.47,16.55,14.84,6.7l4.58,9.85Z"/></g></g></g></svg>