<svg xmlns="http://www.w3.org/2000/svg" viewBox="0 0 24 32"><defs><style>.cls-1{fill:#c2c2c2;}.cls-2{fill:#939393;}.cls-3{fill:#d83b01;}.cls-4{fill:#2f2f2f;}</style></defs><title>usage_report</title><g id="Layer_2" data-name="Layer 2"><g id="SYMBOLS"><g id="usage_report"><path class="cls-1" d="M14,10V0H0V32H24V10ZM2,10H4v2H2Zm0,3.62H4v2H2ZM22,24.88H18.7l-1.36-1.36a.18.18,0,0,0-.3,0l-.18.18a.8.8,0,0,1,.16.08,1.16,1.16,0,0,1,.43.67l.7,2.79H22v1h-4.6l-.89-3.56a.23.23,0,0,0-.07-.11.23.23,0,0,0-.14,0H16L14.45,26.1l-1.74-6.75a.17.17,0,0,0-.13,0,.14.14,0,0,0-.07.1l-.89,3.44-2,8L7,28.31c-.12-.11-.19-.11-.3,0L5.33,29.67H2v-1H4.92L6,27.6a1.22,1.22,0,0,1,1.71,0L9,28.94l2.5-9.69a.64.64,0,0,1,.08-.19A1.13,1.13,0,0,1,12,18.6a1.2,1.2,0,0,1,.49-.22l-.84-3.26-.1-.41a.23.23,0,0,0-.07-.11.22.22,0,0,0-.27,0,.19.19,0,0,0-.07.11l-1.23,5H7.75a.17.17,0,0,0-.13.05.17.17,0,0,0-.07.1l-.9,3.57H2.06v-1H5.87l.71-2.81A1.16,1.16,0,0,1,7,19a1.24,1.24,0,0,1,.74-.25H9.1l1-4.26a1.17,1.17,0,0,1,.42-.67,1.22,1.22,0,0,1,1.06-.2,1.17,1.17,0,0,1,.44.2,1.16,1.16,0,0,1,.43.67l1.1,4.25a1.2,1.2,0,0,1,.3.54l1,4.26h.69l.72-.72a1.22,1.22,0,0,1,1.7,0l1.07,1.07H22Z"/><polygon class="cls-2" points="15.99 0.01 15.99 8.01 23.99 8.01 15.99 0.01"/><path class="cls-3" d="M18,22.81a1.22,1.22,0,0,0-1.7,0l-.72.72h.65a1.1,1.1,0,0,1,.59.17l.18-.18a.18.18,0,0,1,.3,0l1.36,1.36H22v-1H19.11Z"/><path class="cls-3" d="M12.92,19.51a.24.24,0,0,0-.07-.13.26.26,0,0,0-.14,0l1.74,6.75L16,24.53H14.14Z"/><path class="cls-3" d="M13.47,18.6a1.42,1.42,0,0,1,.12.13l-1.1-4.25a1.16,1.16,0,0,0-.43-.67,1.17,1.17,0,0,0-.44-.2,1.22,1.22,0,0,0-1.06.2,1.17,1.17,0,0,0-.42.67l-1,4.26H7.75A1.24,1.24,0,0,0,7,19a1.16,1.16,0,0,0-.43.66l-.71,2.81H2.06v1H6.65l.9-3.57a.17.17,0,0,1,.07-.1.17.17,0,0,1,.13-.05H9.88l1.23-5a.19.19,0,0,1,.07-.11.22.22,0,0,1,.27,0,.23.23,0,0,1,.07.11l.1.41.84,3.26A1.25,1.25,0,0,1,13.47,18.6Z"/><path class="cls-4" d="M15.62,23.53h-.69l-1-4.26a1.2,1.2,0,0,0-.3-.54,1.42,1.42,0,0,0-.12-.13,1.25,1.25,0,0,0-1-.22,1.2,1.2,0,0,0-.49.22,1.13,1.13,0,0,0-.35.46.64.64,0,0,0-.08.19L9,28.94,7.69,27.6A1.22,1.22,0,0,0,6,27.6L4.92,28.67H2v1h3.3l1.36-1.36c.11-.11.18-.11.3,0l2.58,2.57,2-7.95.89-3.44a.14.14,0,0,1,.07-.1.17.17,0,0,1,.13,0,.26.26,0,0,1,.14,0,.24.24,0,0,1,.07.13l1.22,5h2.13a.23.23,0,0,1,.14,0,.23.23,0,0,1,.07.11l.89,3.56H22v-1H18.15l-.7-2.79a1.16,1.16,0,0,0-.43-.67.8.8,0,0,0-.16-.08,1.1,1.1,0,0,0-.59-.17Z"/><rect class="cls-4" x="2.03" y="13.61" width="1.96" height="1.96"/><rect class="cls-3" x="2.03" y="9.99" width="1.96" height="1.96"/></g></g></g></svg>