<svg xmlns="http://www.w3.org/2000/svg" viewBox="0 0 31.97 31.51"><defs><style>.cls-1{fill:#2f2f2f;}.cls-2{fill:#dc3c00;}</style></defs><title>voicemail</title><g id="Layer_2" data-name="Layer 2"><g id="SYMBOLS"><g id="voicemail"><path class="cls-1" d="M24.56,31.51a13.91,13.91,0,0,1-4-.62,22.57,22.57,0,0,1-4.15-1.75,31.72,31.72,0,0,1-4.12-2.64,38,38,0,0,1-3.86-3.34A38.27,38.27,0,0,1,5.1,19.32a31.52,31.52,0,0,1-2.68-4.13A22.71,22.71,0,0,1,.64,11,13.78,13.78,0,0,1,0,7,7.91,7.91,0,0,1,.24,4.84a5.21,5.21,0,0,1,.7-1.53A8.64,8.64,0,0,1,2.07,2q.66-.64,1.5-1.5A1.59,1.59,0,0,1,4.71,0a1.54,1.54,0,0,1,.75.25,6.83,6.83,0,0,1,.9.66c.32.27.65.58,1,.91s.65.66.95,1,.57.63.83.9.45.49.6.64A1.59,1.59,0,0,1,10.2,5.5a1.46,1.46,0,0,1-.27.85,4.93,4.93,0,0,1-.65.77c-.25.26-.54.53-.85.8a7.33,7.33,0,0,0-.85.91,4.63,4.63,0,0,0-.65,1.1,3.33,3.33,0,0,0-.27,1.38A3.94,3.94,0,0,0,7,12.79a3.87,3.87,0,0,0,.84,1.26l9.69,9.69a3.9,3.9,0,0,0,2.74,1.12,3.5,3.5,0,0,0,1.38-.26A5,5,0,0,0,22.7,24a7.33,7.33,0,0,0,.91-.85c.27-.31.54-.6.8-.86a5.65,5.65,0,0,1,.77-.65,1.51,1.51,0,0,1,.84-.26,1.58,1.58,0,0,1,1.16.47c.16.16.37.36.65.61l.89.83c.32.3.65.61,1,1s.63.66.9,1a6.64,6.64,0,0,1,.66.91,1.5,1.5,0,0,1,.26.74A1.56,1.56,0,0,1,31.05,28c-.56.56-1.06,1.06-1.49,1.51a8,8,0,0,1-1.34,1.12,5.51,5.51,0,0,1-1.54.68A7.94,7.94,0,0,1,24.56,31.51Z"/><path class="cls-2" d="M31.66,8.85a3.85,3.85,0,0,0-.82-1.22,4,4,0,0,0-1.22-.83,3.9,3.9,0,0,0-3,0,4.12,4.12,0,0,0-1.22.83,3.85,3.85,0,0,0-.82,1.22,3.71,3.71,0,0,0-.31,1.49,3.77,3.77,0,0,0,0,.44c0,.17.06.34.11.52s.1.37.17.55a5.06,5.06,0,0,0,.23.52,2.4,2.4,0,0,0,.29.44H21.24a2.4,2.4,0,0,0,.29-.44,5.06,5.06,0,0,0,.23-.52c.07-.18.12-.37.17-.55S22,11,22,10.78a4.2,4.2,0,0,0,0-.44,3.71,3.71,0,0,0-.31-1.49A3.85,3.85,0,0,0,21,7.63a4.12,4.12,0,0,0-1.22-.83,3.9,3.9,0,0,0-3,0,4,4,0,0,0-1.22.83,3.85,3.85,0,0,0-.82,1.22,3.76,3.76,0,0,0,0,3,3.85,3.85,0,0,0,.82,1.22,4,4,0,0,0,1.22.83,3.79,3.79,0,0,0,1.5.3h9.89a3.79,3.79,0,0,0,1.5-.3,4,4,0,0,0,1.22-.83,3.85,3.85,0,0,0,.82-1.22,3.76,3.76,0,0,0,0-3ZM20.42,11.23a2.37,2.37,0,0,1-1.22,1.22,2.21,2.21,0,0,1-.89.18,2.16,2.16,0,0,1-.88-.18A2.46,2.46,0,0,1,16.7,12a2.29,2.29,0,0,1-.49-.73,2.21,2.21,0,0,1-.18-.89,2.16,2.16,0,0,1,.18-.88,2.28,2.28,0,0,1,1.22-1.22,2.16,2.16,0,0,1,.88-.18,2.21,2.21,0,0,1,.89.18,2.14,2.14,0,0,1,.72.49,2.31,2.31,0,0,1,.5.73,2.16,2.16,0,0,1,.18.88A2.21,2.21,0,0,1,20.42,11.23Zm9.81,0a2.49,2.49,0,0,1-.5.73,2.42,2.42,0,0,1-.72.49,2.21,2.21,0,0,1-.89.18,2.25,2.25,0,0,1-.89-.18,2.55,2.55,0,0,1-.72-.49,2.29,2.29,0,0,1-.49-.73,2.06,2.06,0,0,1-.19-.89A2,2,0,0,1,26,9.46a2.29,2.29,0,0,1,.49-.73,2.36,2.36,0,0,1,.72-.49,2.25,2.25,0,0,1,.89-.18,2.21,2.21,0,0,1,.89.18,2.24,2.24,0,0,1,.72.49,2.49,2.49,0,0,1,.5.73,2.16,2.16,0,0,1,.18.88A2.21,2.21,0,0,1,30.23,11.23Z"/></g></g></g></svg>