<svg xmlns="http://www.w3.org/2000/svg" viewBox="0 0 31.97 25.51"><defs><style>.cls-1{fill:none;}.cls-2{fill:#d2d2d2;}.cls-3{fill:#c2c2c2;}.cls-4{fill:#2f2f2f;}.cls-5{fill:#d83b01;}</style></defs><title>walkthrough_map</title><g id="Layer_2" data-name="Layer 2"><g id="SYMBOLS"><polygon class="cls-1" points="11.42 0.13 11.42 19.91 11.45 19.93 20.55 25.39 20.55 5.6 20.52 5.58 11.42 0.13"/><polygon class="cls-2" points="0 24.05 9.13 19.89 9.13 0 0 4.98 0 24.05"/><path class="cls-3" d="M9.13,19.89,0,24.05V5L9.13,0Z"/><polygon class="cls-4" points="20.55 25.39 11.45 19.93 11.42 19.91 11.42 0.13 20.52 5.58 20.55 5.6 20.55 25.39"/><polygon class="cls-5" points="22.83 25.51 31.97 20.53 31.97 1.46 22.83 5.62 22.83 25.51"/><polygon class="cls-5" points="31.97 20.53 22.83 25.51 22.83 5.62 31.97 1.46 31.97 20.53"/></g></g></svg>