<svg id="ArrowUp" xmlns="http://www.w3.org/2000/svg" viewBox="0 0 32 32"><defs><style>.cls-1{fill:none;}.cls-2{fill:#c2c2c2;}.cls-3{fill:#2f2f2f;}.cls-4{fill:#0078d4;}</style></defs><title>WalkthroughMap-blue</title><polygon class="cls-1" points="11.43 3.36 11.43 23.16 11.46 23.18 20.57 28.64 20.57 8.84 20.54 8.82 11.43 3.36"/><polygon class="cls-2" points="0 27.3 9.14 23.14 9.14 3.23 0 8.21 0 27.3"/><path class="cls-2" d="M9.14,23.14,0,27.3V8.21l9.14-5Z"/><polygon class="cls-3" points="20.57 28.64 11.46 23.18 11.43 23.16 11.43 3.36 20.54 8.82 20.57 8.84 20.57 28.64"/><polygon class="cls-4" points="22.86 28.77 32 23.79 32 4.7 22.86 8.86 22.86 28.77"/><polygon class="cls-4" points="32 23.79 22.86 28.77 22.86 8.86 32 4.7 32 23.79"/></svg>