<svg xmlns="http://www.w3.org/2000/svg" viewBox="0 0 22.04 31.97"><defs><style>.cls-1{fill:#c2c2c2;}</style></defs><title>walkthrough_shoes</title><g id="Layer_2" data-name="Layer 2"><g id="SYMBOLS"><g id="walkthrough_shoes"><path class="cls-1" d="M8,15.32,1.94,16.6a14.82,14.82,0,0,1-.85-2,19.84,19.84,0,0,1-.57-2,17,17,0,0,1-.33-1.91C.11,10.13.06,9.55,0,9A22.86,22.86,0,0,1,.14,5.29,9.71,9.71,0,0,1,.71,3.12,7.46,7.46,0,0,1,1.5,1.64,4.08,4.08,0,0,1,2.37.72,4.41,4.41,0,0,1,3.19.23,2.34,2.34,0,0,1,3.84,0l.34,0H4.4A2.64,2.64,0,0,1,5.68.32a3.92,3.92,0,0,1,1,.85,6,6,0,0,1,.8,1.19,11.57,11.57,0,0,1,.6,1.35A19.66,19.66,0,0,1,9,7.42a5.1,5.1,0,0,1,.08,1,9.5,9.5,0,0,1,0,1c0,.34-.1.68-.16,1Zm1,4a8.38,8.38,0,0,1,.34,2.53,6.93,6.93,0,0,1-.11,1,3.16,3.16,0,0,1-.36.94,2.76,2.76,0,0,1-.65.8,2.63,2.63,0,0,1-1,.54.65.65,0,0,1-.2.05,2.34,2.34,0,0,1-.52.05,4,4,0,0,1-.94-.14,2.64,2.64,0,0,1-1.09-.56,4.62,4.62,0,0,1-1-1.23,7.34,7.34,0,0,1-.75-2.11l-.47-2.38,6.36-1.51ZM13.64,22l6,1.6a16.43,16.43,0,0,0,.95-1.93,19.42,19.42,0,0,0,.67-1.94,18.24,18.24,0,0,0,.44-1.89c.1-.61.19-1.18.24-1.73A23.13,23.13,0,0,0,22,12.37a9.42,9.42,0,0,0-.46-2.2,7,7,0,0,0-.71-1.52,3.81,3.81,0,0,0-.82-1,4,4,0,0,0-.79-.54,2.6,2.6,0,0,0-.63-.23l-.35,0H18a2.7,2.7,0,0,0-1.3.25,4,4,0,0,0-1.07.8,6.3,6.3,0,0,0-.86,1.14,11.61,11.61,0,0,0-.66,1.32A19.2,19.2,0,0,0,13.08,14a5.7,5.7,0,0,0-.14,1c0,.36,0,.68,0,1s.05.68.1,1Zm-1.25,4a8.89,8.89,0,0,0-.47,2.51,5.71,5.71,0,0,0,.06,1,3.31,3.31,0,0,0,.3,1,3.05,3.05,0,0,0,.62.83,2.65,2.65,0,0,0,1,.59.66.66,0,0,0,.2.06,2.17,2.17,0,0,0,.52.07,3.72,3.72,0,0,0,1-.08,3,3,0,0,0,1.11-.5,4.46,4.46,0,0,0,1.07-1.18,7.08,7.08,0,0,0,.86-2.07l.6-2.35-6.27-1.84Zm1.66,2a5.49,5.49,0,0,0-.06,1,2.09,2.09,0,0,0,.15.7.91.91,0,0,0,.17.23.65.65,0,0,0,.32.19.88.88,0,0,0,.26,0,1.26,1.26,0,0,0,.77-.26,2.75,2.75,0,0,0,.55-.65,5.17,5.17,0,0,0,.55-1.42l.11-.47-2.46-.71,0,.11,0,.1a2.43,2.43,0,0,0-.12.37A5.41,5.41,0,0,0,14.05,28Zm5.89-12c0-.45.07-.87.08-1.27s0-.73,0-1,0-.53,0-.71,0-.29,0-.33a7.74,7.74,0,0,0-.57-2.26,3.33,3.33,0,0,0-.66-1,1.47,1.47,0,0,0-.43-.31L18.09,9h-.24a1.27,1.27,0,0,0-.28.06,1.46,1.46,0,0,0-.53.42,6.61,6.61,0,0,0-1.1,1.87c-.15.38-.28.76-.39,1.13l-.27,1c-.07.29-.14.63-.2,1v.09l0,.08a2.8,2.8,0,0,0-.08.54c0,.2,0,.41,0,.61s0,.4,0,.59a4.53,4.53,0,0,0,.05.47l0,0v.05l.43,3.57,3.11.82c.14-.33.27-.66.39-1s.22-.69.33-1.06.26-1,.36-1.59S19.87,16.55,19.94,16Z"/></g></g></g></svg>