<svg id="ArrowUp" xmlns="http://www.w3.org/2000/svg" viewBox="0 0 32 32"><defs><style>.cls-1{fill:#c2c2c2;}.cls-2{fill:#0078d4;}.cls-3{fill:#2f2f2f;}</style></defs><title>WalletBudgetSaving-blue</title><path class="cls-1" d="M14.12,2.62H2.81A2.81,2.81,0,0,0,0,5.43V6.52L4.93,5.16Z"/><polygon class="cls-1" points="23.45 17.06 23.45 22.76 32 22.76 32 30.21 0 30.21 0 9.33 27.59 9.33 27.59 2.62 29.93 2.62 29.93 9.33 32 9.33 32 17.06 23.45 17.06"/><polygon class="cls-2" points="25.38 7.31 25.38 2.62 25.38 1.79 22.39 2.62 5.52 7.29 25.38 7.31"/><polygon class="cls-3" points="23.45 17.05 23.45 22.76 29.93 22.76 32 22.76 32 17.05 29.93 17.05 23.45 17.05"/></svg>