<svg id="ArrowUp" xmlns="http://www.w3.org/2000/svg" viewBox="0 0 32 32"><defs><style>.cls-1{fill:none;}.cls-2{fill:#c2c2c2;}.cls-3{fill:#2f2f2f;}.cls-4{fill:#0078d4;}</style></defs><title>WashingMachineAutomation</title><path class="cls-1" d="M22.46,14.12a9.25,9.25,0,0,0-2.9-2,9.14,9.14,0,0,0-7.11,0,9.37,9.37,0,0,0-2.9,2,9.11,9.11,0,0,0-2,2.9,9,9,0,0,0,0,7.11,9.34,9.34,0,0,0,2,2.9,9.51,9.51,0,0,0,2.9,2,9.14,9.14,0,0,0,7.11,0,9.28,9.28,0,0,0,4.87-4.86,9.14,9.14,0,0,0,0-7.11A9.14,9.14,0,0,0,22.46,14.12Zm-.13,9.12a7.1,7.1,0,0,1-1.47,2.18,7,7,0,0,1-2.19,1.47,6.66,6.66,0,0,1-2.66.54,6.73,6.73,0,0,1-3-.67,6.89,6.89,0,0,1-2.37-1.88,4.51,4.51,0,0,0,1.24-.67,5,5,0,0,0,1-1A4.68,4.68,0,0,0,13.5,22a4.32,4.32,0,0,0,.22-1.4,4.39,4.39,0,0,0-.22-1.39,4.53,4.53,0,0,0-.63-1.24,4.29,4.29,0,0,0-1-1,4.54,4.54,0,0,0-1.24-.68A6.79,6.79,0,0,1,16,13.71a6.66,6.66,0,0,1,2.66.54,6.83,6.83,0,0,1,3.66,3.66,7,7,0,0,1,0,5.33Z"/><path class="cls-2" d="M29.72,0H2.29V6.86H29.72ZM6.53,4.23a1.1,1.1,0,0,1-.81.34,1.07,1.07,0,0,1-.8-.34,1.07,1.07,0,0,1-.34-.8,1.07,1.07,0,0,1,.34-.8,1.07,1.07,0,0,1,.8-.34A1.14,1.14,0,0,1,6.86,3.43,1.09,1.09,0,0,1,6.53,4.23Zm4.57,0a1.1,1.1,0,0,1-.81.34,1.08,1.08,0,0,1-.8-.34,1.07,1.07,0,0,1-.34-.8,1.07,1.07,0,0,1,.34-.8,1.08,1.08,0,0,1,.8-.34,1.16,1.16,0,0,1,1.15,1.14A1.1,1.1,0,0,1,11.1,4.23Zm16,0a1.1,1.1,0,0,1-.81.34,1.08,1.08,0,0,1-.8-.34,1.07,1.07,0,0,1-.34-.8,1.07,1.07,0,0,1,.34-.8,1.08,1.08,0,0,1,.8-.34,1.16,1.16,0,0,1,1.15,1.14A1.1,1.1,0,0,1,27.1,4.23Z"/><path class="cls-2" d="M29.72,9.14H2.29V32H29.72Zm-5.29,15A9.28,9.28,0,0,1,19.56,29a9.14,9.14,0,0,1-7.11,0,9.51,9.51,0,0,1-2.9-2,9.34,9.34,0,0,1-2-2.9,9,9,0,0,1,0-7.11,9.11,9.11,0,0,1,2-2.9,9.37,9.37,0,0,1,2.9-2,9.14,9.14,0,0,1,7.11,0,9.25,9.25,0,0,1,2.9,2,9.14,9.14,0,0,1,2,2.9,9.14,9.14,0,0,1,0,7.11Z"/><path class="cls-3" d="M5.72,2.29a1.07,1.07,0,0,0-.8.34,1.07,1.07,0,0,0-.34.8,1.07,1.07,0,0,0,.34.8,1.07,1.07,0,0,0,.8.34A1.14,1.14,0,0,0,6.86,3.43,1.14,1.14,0,0,0,5.72,2.29Z"/><path class="cls-3" d="M26.29,2.29a1.08,1.08,0,0,0-.8.34,1.07,1.07,0,0,0-.34.8,1.07,1.07,0,0,0,.34.8,1.08,1.08,0,0,0,.8.34,1.16,1.16,0,0,0,1.15-1.14,1.16,1.16,0,0,0-1.15-1.14Z"/><path class="cls-4" d="M10.29,2.29a1.08,1.08,0,0,0-.8.34,1.07,1.07,0,0,0-.34.8,1.07,1.07,0,0,0,.34.8,1.08,1.08,0,0,0,.8.34,1.16,1.16,0,0,0,1.15-1.14,1.16,1.16,0,0,0-1.15-1.14Z"/><path class="cls-2" d="M20.86,15.72a7.15,7.15,0,0,0-2.19-1.47A6.66,6.66,0,0,0,16,13.71a6.79,6.79,0,0,0-5.34,2.56,4.54,4.54,0,0,1,1.24.68,4.29,4.29,0,0,1,1,1,4.53,4.53,0,0,1,.63,1.24,4.39,4.39,0,0,1,.22,1.39A4.32,4.32,0,0,1,13.5,22a4.68,4.68,0,0,1-.63,1.24,5,5,0,0,1-1,1,4.51,4.51,0,0,1-1.24.67A6.89,6.89,0,0,0,13,26.76a6.73,6.73,0,0,0,3,.67,6.66,6.66,0,0,0,2.66-.54,7,7,0,0,0,2.19-1.47,7.1,7.1,0,0,0,1.47-2.18,7,7,0,0,0,0-5.33A7.15,7.15,0,0,0,20.86,15.72Z"/></svg>