<svg xmlns="http://www.w3.org/2000/svg" viewBox="0 0 31.97 18.25"><defs><style>.cls-1{fill:#2f2f2f;}.cls-2{fill:#c2c2c2;}.cls-3{fill:#d83b01;}</style></defs><title>whats_new_megaphone</title><g id="Layer_2" data-name="Layer 2"><g id="SYMBOLS"><path class="cls-1" d="M9.13,14.82a3.31,3.31,0,0,0,.27,1.34A3.38,3.38,0,0,0,11.22,18a3.34,3.34,0,0,0,1.34.27A3.39,3.39,0,0,0,13.75,18a3.71,3.71,0,0,0,1-.6,3.6,3.6,0,0,0,.75-.9,3.46,3.46,0,0,0,.41-1.14L9.19,14.2A3.34,3.34,0,0,0,9.13,14.82Z"/><path class="cls-2" d="M0,5.69v4.57a.59.59,0,0,1,.2,0l26.92,4.8V.86Z"/><polygon class="cls-2" points="29.4 0.46 29.4 15.49 31.97 15.95 31.97 0 29.4 0.46"/><polygon class="cls-3" points="27.12 0.86 27.12 15.08 29.4 15.49 29.4 0.46 27.12 0.86"/></g></g></svg>