<svg id="ArrowUp" xmlns="http://www.w3.org/2000/svg" viewBox="0 0 32 32"><defs><style>.cls-1{fill:#2f2f2f;}.cls-2{fill:#c2c2c2;}.cls-3{fill:#0078d4;}</style></defs><title>WhatsNewMegaphoneAnnouncement-blue</title><path class="cls-1" d="M10.14,24.72a3.54,3.54,0,0,0,1.09.73,3.38,3.38,0,0,0,1.34.27,3.23,3.23,0,0,0,1.2-.22,3.27,3.27,0,0,0,1-.6,3.67,3.67,0,0,0,.75-.9A3.52,3.52,0,0,0,16,22.86L9.2,21.66a3.52,3.52,0,0,0-.06.63,3.38,3.38,0,0,0,.27,1.34A3.54,3.54,0,0,0,10.14,24.72Z"/><path class="cls-2" d="M27.14,22.55V8.31L0,13.15v4.57H.2Z"/><polygon class="cls-2" points="32 23.41 32 7.45 29.43 7.91 29.43 22.95 32 23.41"/><polygon class="cls-3" points="29.43 22.95 29.43 7.91 27.14 8.31 27.14 22.55 29.43 22.95"/></svg>