<svg id="ArrowUp" xmlns="http://www.w3.org/2000/svg" viewBox="0 0 32 32"><defs><style>.cls-1{fill:#c2c2c2;}.cls-2{fill:#fff;}.cls-3{fill:#0078d4;}</style></defs><title>WizardMagicWandEasy-blue</title><g id="Artwork_29" data-name="Artwork 29"><path class="cls-1" d="M30.72,10.5a.91.91,0,0,1-.25.67,1.13,1.13,0,0,1-.63.33,10.46,10.46,0,0,1-1.09.21c-.36.06-.72.13-1.09.23a8.38,8.38,0,0,0-1.88.72,5.22,5.22,0,0,0-1.36,1,6,6,0,0,0-1,1.45,10.68,10.68,0,0,0-.64,1.91c-.06.29-.12.59-.16.88s-.09.59-.16.89a1.13,1.13,0,0,1-.33.63,1,1,0,0,1-1.35,0,1.13,1.13,0,0,1-.33-.63,10,10,0,0,1-.21-1.09,10.4,10.4,0,0,0-.23-1.08,8,8,0,0,0-.72-1.88,4.91,4.91,0,0,0-1-1.36,5.71,5.71,0,0,0-1.45-1,10.68,10.68,0,0,0-1.91-.64l-.88-.16c-.3,0-.59-.09-.89-.16a1.13,1.13,0,0,1-.63-.33,1,1,0,0,1,0-1.35,1.13,1.13,0,0,1,.63-.33,10,10,0,0,1,1.09-.21,10.34,10.34,0,0,0,1.08-.22,9,9,0,0,0,1.88-.72,5.14,5.14,0,0,0,1.36-1,5.66,5.66,0,0,0,1-1.44,10.41,10.41,0,0,0,.64-1.91c.06-.3.11-.6.16-.89s.09-.59.16-.89a1.13,1.13,0,0,1,.33-.63,1,1,0,0,1,1.35,0,1.13,1.13,0,0,1,.33.63c.07.3.12.59.16.89s.1.59.16.89a10.41,10.41,0,0,0,.64,1.91,5.9,5.9,0,0,0,1,1.44,5.48,5.48,0,0,0,1.36,1,9.47,9.47,0,0,0,1.88.72,11.08,11.08,0,0,0,1.09.22,10.46,10.46,0,0,1,1.09.21,1.13,1.13,0,0,1,.63.33.92.92,0,0,1,.25.68"/></g><path class="cls-1" d="M0,31a1,1,0,0,1,.3-.72L15.66,14.9a1,1,0,0,1,.72-.31,1.06,1.06,0,0,1,1,1,1,1,0,0,1-.31.72L1.74,31.7A1,1,0,0,1,1,32a1,1,0,0,1-1-1"/><path class="cls-2" d="M21.54,12.3A2,2,0,0,0,23,8.9a1.93,1.93,0,0,0-1.41-.6,2.05,2.05,0,0,0-2,2,2,2,0,0,0,2,2"/><path class="cls-3" d="M13.31,4.61c-.14,0-.22-.08-.25-.23a7.32,7.32,0,0,0-.21-.82,1.51,1.51,0,0,0-.3-.5,1.3,1.3,0,0,0-.49-.29,4.72,4.72,0,0,0-.83-.21A.24.24,0,0,1,11,2.3a.25.25,0,0,1,.22-.25,7.58,7.58,0,0,0,.83-.21,1.2,1.2,0,0,0,.49-.3,1.36,1.36,0,0,0,.3-.49,7,7,0,0,0,.21-.83A.23.23,0,0,1,13.31,0c.13,0,.21.07.26.22a4.5,4.5,0,0,0,.21.83,1.23,1.23,0,0,0,.29.49,1.24,1.24,0,0,0,.5.3,7.32,7.32,0,0,0,.82.21c.15,0,.23.13.23.25a.25.25,0,0,1-.23.26,4.58,4.58,0,0,0-.82.21,1.35,1.35,0,0,0-.5.29,1.35,1.35,0,0,0-.29.5,4.58,4.58,0,0,0-.21.82c-.05.15-.13.23-.26.23"/><path class="cls-3" d="M29.7,4.61a.25.25,0,0,1-.26-.23,4.58,4.58,0,0,0-.21-.82,1.35,1.35,0,0,0-.29-.5,1.35,1.35,0,0,0-.5-.29,4.58,4.58,0,0,0-.82-.21.25.25,0,0,1-.23-.26c0-.12.08-.21.23-.25a7.32,7.32,0,0,0,.82-.21,1.24,1.24,0,0,0,.5-.3,1.23,1.23,0,0,0,.29-.49,4.5,4.5,0,0,0,.21-.83A.24.24,0,0,1,29.7,0,.25.25,0,0,1,30,.22a7,7,0,0,0,.21.83,1.14,1.14,0,0,0,.3.49,1.14,1.14,0,0,0,.49.3,7,7,0,0,0,.83.21A.25.25,0,0,1,32,2.3a.24.24,0,0,1-.22.26,4.5,4.5,0,0,0-.83.21,1.17,1.17,0,0,0-.79.79,7.32,7.32,0,0,0-.21.82c0,.15-.13.23-.25.23"/><path class="cls-3" d="M29.7,16.38c.12,0,.21.08.25.23a7.32,7.32,0,0,0,.21.82,1.17,1.17,0,0,0,.79.79,4.5,4.5,0,0,0,.83.21.26.26,0,0,1,.22.26.23.23,0,0,1-.22.25,7,7,0,0,0-.83.21,1.36,1.36,0,0,0-.49.3,1.2,1.2,0,0,0-.3.49,7.58,7.58,0,0,0-.21.83.25.25,0,0,1-.25.22.24.24,0,0,1-.26-.22,4.72,4.72,0,0,0-.21-.83,1.3,1.3,0,0,0-.29-.49,1.51,1.51,0,0,0-.5-.3,7.32,7.32,0,0,0-.82-.21c-.15,0-.23-.11-.23-.25a.26.26,0,0,1,.23-.26,4.58,4.58,0,0,0,.82-.21,1.12,1.12,0,0,0,.79-.79,4.58,4.58,0,0,0,.21-.82.25.25,0,0,1,.26-.23"/></svg>