<svg xmlns="http://www.w3.org/2000/svg" viewBox="0 0 32 32"><defs><style>.cls-1{fill:#c2c2c2;}.cls-2{fill:#d83b01;}</style></defs><title>wizard_2</title><g id="Layer_2" data-name="Layer 2"><g id="SYMBOLS"><g id="wizard_2"><g id="Artwork_152" data-name="Artwork 152"><path class="cls-1" d="M0,31a1,1,0,0,1,.3-.7l19-19A.94.94,0,0,1,20,11a1,1,0,0,1,1,1,.94.94,0,0,1-.3.7l-19,19A1,1,0,0,1,1,32a.94.94,0,0,1-.7-.3A.94.94,0,0,1,0,31"/></g><rect class="cls-2" x="14" y="8" width="4" height="2"/><polygon class="cls-2" points="18.77 6.17 15.92 3.34 17.34 1.92 20.17 4.76 18.77 6.17"/><rect class="cls-2" x="22" width="2" height="4"/><path class="cls-2" d="M23,8a1,1,0,0,1,1,1,.94.94,0,0,1-.3.7,1,1,0,0,1-.7.3,1,1,0,0,1-1-1,1,1,0,0,1,.3-.7A.94.94,0,0,1,23,8"/><rect class="cls-2" x="22" y="14" width="2" height="4"/><polygon class="cls-2" points="27.23 6.17 25.83 4.76 28.66 1.92 30.08 3.34 27.23 6.17"/><polygon class="cls-2" points="27.23 11.83 30.08 14.66 28.66 16.08 25.83 13.23 27.23 11.83"/><rect class="cls-2" x="28" y="8" width="4" height="2"/></g></g></g></svg>