<svg xmlns="http://www.w3.org/2000/svg" viewBox="0 0 32 31.66"><defs><style>.cls-1{fill:#d83b01;}.cls-2{fill:#c2c2c2;}</style></defs><title>wriing_pen</title><g id="Layer_2" data-name="Layer 2"><g id="SYMBOLS"><path class="cls-1" d="M31,29.66H13a.93.93,0,0,0-.7.29,1,1,0,0,0-.3.71,1,1,0,0,0,.3.7.94.94,0,0,0,.7.3H31a1,1,0,0,0,1-1,1,1,0,0,0-.3-.71A.94.94,0,0,0,31,29.66Z"/><path class="cls-1" d="M1.06,28.38l-.5.47a3,3,0,0,0-.4.53,1.42,1.42,0,0,0-.16.7,1.58,1.58,0,0,0,.42,1.13,1.48,1.48,0,0,0,1.13.45,1.62,1.62,0,0,0,.54-.08,1.41,1.41,0,0,0,.4-.22A2.6,2.6,0,0,0,2.84,31a4.53,4.53,0,0,1,.38-.38,2,2,0,0,1,.3-.27,1.3,1.3,0,0,0,.26-.27L1.53,27.83A2.49,2.49,0,0,1,1.06,28.38Z"/><path class="cls-2" d="M25.27,3,3.34,23.12a3.68,3.68,0,0,0-.42.5,5.15,5.15,0,0,0-.36.61,3.91,3.91,0,0,0-.24.65,2.53,2.53,0,0,0-.09.64v.21a.78.78,0,0,1,0,.22l3.47,3.5.21,0,.2,0a2.54,2.54,0,0,0,.65-.09,2.92,2.92,0,0,0,.66-.24A3.37,3.37,0,0,0,8,28.7a3.47,3.47,0,0,0,.5-.42L28.89,6.62Z"/><path class="cls-2" d="M30.91,4.79a4.26,4.26,0,0,0,.55-.58,2.73,2.73,0,0,0,.39-.66,2,2,0,0,0,.15-.8,2.19,2.19,0,0,0-.09-.66,1.59,1.59,0,0,0-.24-.51,3.11,3.11,0,0,0-.37-.46L30.83.66A2.11,2.11,0,0,0,29.28,0a1.84,1.84,0,0,0-.8.16,2.81,2.81,0,0,0-.64.39,6,6,0,0,0-.58.54q-.27.3-.57.6l3.62,3.67Z"/></g></g></svg>