<svg xmlns="http://www.w3.org/2000/svg" viewBox="0 0 31.99 31.97"><defs><style>.cls-1{fill:#c2c2c2;}.cls-2{fill:#d83b01;}.cls-3{fill:#2f2f2f;}</style></defs><title>writing_pencil_2</title><g id="Layer_2" data-name="Layer 2"><g id="SYMBOLS"><g id="writing_pencil_2"><path class="cls-1" d="M13.48,8.13,8.13,13.48l15.6,15.61a8.27,8.27,0,0,1,5.36-5.36Z"/><rect class="cls-1" x="3.98" y="6.22" width="7.56" height="3.08" transform="translate(-3.21 7.76) rotate(-45)"/><rect class="cls-2" x="6.04" y="8.44" width="7.57" height="2.77" transform="translate(-4.07 9.83) rotate(-45)"/><path class="cls-2" d="M6.83,1.46A6.62,6.62,0,0,0,6,.71,3.94,3.94,0,0,0,5,.19,3.45,3.45,0,0,0,3.8,0,3.58,3.58,0,0,0,2.33.3a4,4,0,0,0-1.21.82A4,4,0,0,0,.3,2.33,3.58,3.58,0,0,0,0,3.8,3.45,3.45,0,0,0,.19,5,3.94,3.94,0,0,0,.71,6a6.62,6.62,0,0,0,.75.85c.28.26.57.55.88.85L7.68,2.34C7.38,2,7.09,1.74,6.83,1.46Z"/><path class="cls-3" d="M30.49,26a6,6,0,0,0-1.59.6A5.92,5.92,0,0,0,26,30.47L32,32Z"/></g></g></g></svg>