<svg xmlns="http://www.w3.org/2000/svg" viewBox="0 0 31.97 31.95"><defs><style>.cls-1{fill:#2f2f2f;}.cls-2{fill:#d83b01;}</style></defs><title>writing_pencil</title><g id="Layer_2" data-name="Layer 2"><g id="SYMBOLS"><g id="writing_pencil"><path class="cls-1" d="M22.63,4,20.45,6.17l-2,2L2.89,23.71a8.39,8.39,0,0,1,3.33,2,8.39,8.39,0,0,1,2,3.33L23.84,13.47l2-2L28,9.34Z"/><path class="cls-2" d="M25.15,1.46A6.54,6.54,0,0,1,26,.71a3.94,3.94,0,0,1,1-.52A3.45,3.45,0,0,1,28.17,0a3.58,3.58,0,0,1,1.47.3,4,4,0,0,1,1.21.82,4,4,0,0,1,.82,1.21A3.57,3.57,0,0,1,32,3.79,3.72,3.72,0,0,1,31.78,5a3.88,3.88,0,0,1-.52,1,6,6,0,0,1-.75.85l-.88.86L24.29,2.33Z"/><path class="cls-1" d="M1.5,26a5.9,5.9,0,0,1,1.58.59,5.76,5.76,0,0,1,1.33,1,6.08,6.08,0,0,1,1,1.34A5.78,5.78,0,0,1,6,30.45L0,32Z"/></g></g></g></svg>