<svg id="ArrowUp" xmlns="http://www.w3.org/2000/svg" viewBox="0 0 32 32"><defs><style>.cls-1{fill:#c2c2c2;}.cls-2{fill:#0078d4;}.cls-3{fill:#2f2f2f;}</style></defs><title>WritingPencil2-blue</title><path class="cls-1" d="M23.74,29.12a8.26,8.26,0,0,1,2-3.33,8.39,8.39,0,0,1,3.33-2L13.49,8.14,8.13,13.5Z"/><rect class="cls-1" x="3.98" y="6.23" width="7.57" height="3.08" transform="translate(-3.22 7.77) rotate(-45.02)"/><rect class="cls-2" x="6.04" y="8.45" width="7.57" height="2.77" transform="translate(-4.08 9.84) rotate(-45.02)"/><path class="cls-2" d="M.71,6a6,6,0,0,0,.75.85l.88.86L7.69,2.34l-.86-.88A6.62,6.62,0,0,0,6,.71,3.94,3.94,0,0,0,5,.19,3.42,3.42,0,0,0,3.8,0,3.58,3.58,0,0,0,2.33.3a4,4,0,0,0-1.21.82A4,4,0,0,0,.3,2.33,3.65,3.65,0,0,0,0,3.8,3.51,3.51,0,0,0,.19,5,3.88,3.88,0,0,0,.71,6Z"/><path class="cls-3" d="M27.58,27.58A6,6,0,0,0,26,30.5L32,32l-1.5-6a5.83,5.83,0,0,0-2.92,1.59Z"/></svg>