<svg xmlns="http://www.w3.org/2000/svg" viewBox="0 0 31.97 23.44"><defs><style>.cls-1{fill:#c2c2c2;}.cls-2{fill:#d83b01;}</style></defs><title>add_to_cloud</title><g id="Layer_2" data-name="Layer 2"><g id="SYMBOLS"><g id="add_to_cloud"><path class="cls-1" d="M31.62,10.69a6.42,6.42,0,0,0-1-1.82,6.55,6.55,0,0,0-1.52-1.4,6.22,6.22,0,0,0-1.92-.88,9.41,9.41,0,0,0-1.38-2.67,9.86,9.86,0,0,0-2.1-2.08A10,10,0,0,0,21.09.48a9.24,9.24,0,0,0-3-.48,9.67,9.67,0,0,0-2.47.32,9.78,9.78,0,0,0-4.2,2.41A9.39,9.39,0,0,0,9.91,4.68a7.47,7.47,0,0,0-2.45-.42,7.31,7.31,0,0,0-2.91.59,7.54,7.54,0,0,0-4,4A7.23,7.23,0,0,0,0,11.72a7.31,7.31,0,0,0,.59,2.91A7.75,7.75,0,0,0,2.19,17a7.58,7.58,0,0,0,2.36,1.6,7.31,7.31,0,0,0,2.91.59h.68V14.91H12.4V10.65h6.4v4.26h4.26v4.26h2.51a6.33,6.33,0,0,0,2.49-.5,6.44,6.44,0,0,0,2-1.37A6.3,6.3,0,0,0,32,12.79,6.38,6.38,0,0,0,31.62,10.69Z"/><polygon class="cls-2" points="10.27 17.04 14.54 17.04 14.54 12.78 16.67 12.78 16.67 17.04 20.93 17.04 20.93 19.17 16.67 19.17 16.67 19.18 16.67 23.44 14.54 23.44 14.54 19.18 14.54 19.17 10.27 19.17 10.27 17.04"/></g></g></g></svg>