<svg xmlns="http://www.w3.org/2000/svg" viewBox="0 0 32 23.46"><defs><style>.cls-1{fill:#c2c2c2;}.cls-2{fill:#0078d4;}</style></defs><title>AddToCloud</title><g id="Layer_2" data-name="Layer 2"><g id="ArrowUp"><path class="cls-1" d="M23.08,19.19H25.6A6.39,6.39,0,0,0,32,12.8a6.43,6.43,0,0,0-.35-2.1,6.18,6.18,0,0,0-1-1.82,6.76,6.76,0,0,0-1.52-1.4,6.22,6.22,0,0,0-1.92-.88,9.61,9.61,0,0,0-1.39-2.68A9.82,9.82,0,0,0,21.11.48a9.26,9.26,0,0,0-3-.48,9.65,9.65,0,0,0-2.46.32,9.38,9.38,0,0,0-2.26.94,9.6,9.6,0,0,0-1.95,1.47A9.39,9.39,0,0,0,9.92,4.68a7.73,7.73,0,0,0-2.45-.41,7.08,7.08,0,0,0-2.91.59,7.51,7.51,0,0,0-2.37,1.6A7.68,7.68,0,0,0,.59,8.83a7.45,7.45,0,0,0,0,5.81,7.51,7.51,0,0,0,4,4,7.24,7.24,0,0,0,2.91.59h.68V14.93h4.27V10.66h6.4v4.27h4.26v4.26Z"/><polygon class="cls-2" points="14.55 23.46 16.68 23.46 16.68 19.2 16.68 19.19 20.95 19.19 20.95 17.06 16.68 17.06 16.68 12.79 14.55 12.79 14.55 17.06 10.28 17.06 10.28 19.19 14.55 19.19 14.55 19.2 14.55 23.46"/></g></g></svg>