<svg xmlns="http://www.w3.org/2000/svg" viewBox="0 0 31.97 23.28"><defs><style>.cls-1{fill:#c2c2c2;}.cls-2{fill:#d83b01;}</style></defs><title>cloud_disaster</title><g id="Layer_2" data-name="Layer 2"><g id="SYMBOLS"><g id="cloud_disaster"><path class="cls-1" d="M31.49,11.63a6.14,6.14,0,0,0-1.29-1.9,6.3,6.3,0,0,0-1.92-1.27A6,6,0,0,0,25.93,8a9.54,9.54,0,0,0-1-3.17,9.08,9.08,0,0,0-2-2.53A8.94,8.94,0,0,0,17,0a8.76,8.76,0,0,0-2.24.28,9,9,0,0,0-2.06.81A8.49,8.49,0,0,0,10.89,2.4,9.06,9.06,0,0,0,9.44,4.14,7.19,7.19,0,0,0,8,4a7.75,7.75,0,0,0-3.11.62A8.28,8.28,0,0,0,2.33,6.33,8.12,8.12,0,0,0,.62,8.87,8,8,0,0,0,0,12,7.92,7.92,0,0,0,.62,15.1a8.28,8.28,0,0,0,1.71,2.55,8.28,8.28,0,0,0,2.55,1.71A19.15,19.15,0,0,0,9.76,20L18,4.71,26,20a6,6,0,0,0,6-6A5.79,5.79,0,0,0,31.49,11.63Z"/><path class="cls-2" d="M18.07,8,10.45,23.28H25.7Zm.77,6.58v5.12H17.3V14.61h1.54M17.3,20.8h1.54v1.07H17.3Z"/></g></g></g></svg>