<svg xmlns="http://www.w3.org/2000/svg" viewBox="0 0 31.97 27.79"><defs><style>.cls-1{fill:#c2c2c2;}.cls-2{fill:#2f2f2f;}</style></defs><title>cloud_key</title><g id="Layer_2" data-name="Layer 2"><g id="SYMBOLS"><g id="cloud_key"><path class="cls-1" d="M31.49,11.63a6.14,6.14,0,0,0-1.29-1.9,6.3,6.3,0,0,0-1.92-1.27A6,6,0,0,0,25.93,8a9.54,9.54,0,0,0-1-3.17,9.08,9.08,0,0,0-2-2.53A8.94,8.94,0,0,0,17,0a8.76,8.76,0,0,0-2.24.28,9,9,0,0,0-2.06.81A8.49,8.49,0,0,0,10.89,2.4,9.06,9.06,0,0,0,9.44,4.14,7.19,7.19,0,0,0,8,4a7.75,7.75,0,0,0-3.11.62A8.28,8.28,0,0,0,2.33,6.33,8.12,8.12,0,0,0,.62,8.87,8,8,0,0,0,0,12,7.92,7.92,0,0,0,.62,15.1a8.28,8.28,0,0,0,1.71,2.55,8.28,8.28,0,0,0,2.55,1.71c1,.41,8,.57,9.05.57,0,0-1.8-5.24,1.68-7.86,3.66-2.76,7.84-1.54,9.2-.23,3.5,3.33,2.31,6.87,2.31,6.87l1.13,1.16a20.61,20.61,0,0,0,2-1.65,5.92,5.92,0,0,0,1.29-1.9,6,6,0,0,0,0-4.69Z"/><path class="cls-2" d="M25.28,19.08a5.31,5.31,0,0,0,.2-.68,4.4,4.4,0,0,0,.13-1.09,5,5,0,0,0-.42-2,5.25,5.25,0,0,0-2.78-2.78,5.16,5.16,0,0,0-4.08,0,5.25,5.25,0,0,0-2.78,2.78,5.16,5.16,0,0,0,0,4.08,5.25,5.25,0,0,0,2.78,2.78,5,5,0,0,0,2,.42,5.12,5.12,0,0,0,1.73-.3,5,5,0,0,0,1.39-.75h0v2.1h2.1v2.09h2.1v2.1h3.14V24.65Zm-5.51-2.93a1.23,1.23,0,0,1-.23.33,1.19,1.19,0,0,1-.33.22,1.09,1.09,0,0,1-.82,0,1,1,0,0,1-.33-.22,1.23,1.23,0,0,1-.23-.33,1.15,1.15,0,0,1-.08-.41,1.07,1.07,0,0,1,.08-.41,1.14,1.14,0,0,1,.56-.56,1.09,1.09,0,0,1,.82,0,1.23,1.23,0,0,1,.33.23,1,1,0,0,1,.23.33,1.07,1.07,0,0,1,.08.41A1.15,1.15,0,0,1,19.77,16.15Z"/></g></g></g></svg>