<svg xmlns="http://www.w3.org/2000/svg" viewBox="0 0 31.97 24.46"><defs><style>.cls-1{fill:#c2c2c2;}.cls-2{fill:#2f2f2f;}</style></defs><title>cloud_users</title><g id="Layer_2" data-name="Layer 2"><g id="SYMBOLS"><g id="cloud_users"><path class="cls-1" d="M24.89,5.67a8.61,8.61,0,0,0-2.31-3.42A12.62,12.62,0,0,0,19.9.6,8.88,8.88,0,0,0,14.48.28a8.84,8.84,0,0,0-2,.79A8.47,8.47,0,0,0,10.7,2.36,8.73,8.73,0,0,0,9.28,4.07a7,7,0,0,0-1.43-.14,7.71,7.71,0,0,0-3.06.61A7.82,7.82,0,0,0,.61,8.72,7.71,7.71,0,0,0,0,11.78a7.64,7.64,0,0,0,.61,3.06,7.86,7.86,0,0,0,1.68,2.5A8,8,0,0,0,4.79,19c1,.41,6.14.2,7.22.2,0,0-4.5-3.6-.54-7.62,3.06-3.11,7.25,0,7.25,0a6.79,6.79,0,0,1,1.91-4.69A5.09,5.09,0,0,1,24.89,5.67Z"/><path class="cls-2" d="M25,16.28a4.68,4.68,0,1,0-4.69-4.68A4.68,4.68,0,0,0,25,16.28Z"/><path class="cls-2" d="M24.94,17.4a7,7,0,0,0-7,7H32A7,7,0,0,0,24.94,17.4Z"/><path class="cls-2" d="M10.3,24.46h5.51v0a9.29,9.29,0,0,1,1-4.27,4.64,4.64,0,0,0-1.87-.4A4.69,4.69,0,0,0,10.3,24.46Z"/><path class="cls-2" d="M15,11.62a3.5,3.5,0,0,0-2.25,6.19,3.46,3.46,0,0,0,2,.81l.2,0,.21,0a3.43,3.43,0,0,0,2-.81A3.49,3.49,0,0,0,15,11.62Z"/></g></g></g></svg>