<svg xmlns="http://www.w3.org/2000/svg" viewBox="0 0 31.97 23.87"><defs><style>.cls-1{fill:#c2c2c2;}.cls-2{fill:#2f2f2f;}</style></defs><title>cloud_voicemail</title><g id="Layer_2" data-name="Layer 2"><g id="SYMBOLS"><g id="cloud_voicemail"><path class="cls-1" d="M31.22,11.53a5.89,5.89,0,0,0-1.29-1.88A6.06,6.06,0,0,0,28,8.39a5.88,5.88,0,0,0-2.33-.47,9.14,9.14,0,0,0-1-3.14,8.93,8.93,0,0,0-1.94-2.51A9.13,9.13,0,0,0,20.08.6,8.79,8.79,0,0,0,16.84,0a8.68,8.68,0,0,0-2.23.28,8.41,8.41,0,0,0-2,.8,8.29,8.29,0,0,0-1.78,1.3A9.14,9.14,0,0,0,9.36,4.1a7.8,7.8,0,0,0-4.52.48A7.79,7.79,0,0,0,.62,8.8,8,8,0,0,0,.62,15a7.88,7.88,0,0,0,4.22,4.22,4.27,4.27,0,0,0,2.24.62s-.17-5.08,2.56-6.95c4.33-3,8-.42,10,.8,1.75,1,3.13-2.21,7.71-2.06,2.26.08,4.59,3,4.59,3A9.29,9.29,0,0,0,31.22,11.53Z"/><path class="cls-2" d="M26.69,13.31a5.26,5.26,0,0,0-4.21,8.45H18.21A5.27,5.27,0,1,0,14,23.87H26.69a5.28,5.28,0,0,0,0-10.56ZM10.84,18.59A3.17,3.17,0,1,1,14,21.76,3.17,3.17,0,0,1,10.84,18.59Zm15.85,3.17a3.17,3.17,0,1,1,3.17-3.17A3.18,3.18,0,0,1,26.69,21.76Z"/></g></g></g></svg>