<svg xmlns="http://www.w3.org/2000/svg" viewBox="0 0 31.97 24.19"><defs><style>.cls-1{fill:#c2c2c2;}.cls-2{fill:#2f2f2f;}.cls-3{fill:#fff;}</style></defs><title>cloud_pbx</title><g id="Layer_2" data-name="Layer 2"><g id="SYMBOLS"><g id="cloud_pbx"><path class="cls-1" d="M28.4,10.6a7.83,7.83,0,0,0-3.9-3.27,5.11,5.11,0,0,0-2-.4,8,8,0,0,0-.86-2.75A7.86,7.86,0,0,0,19.91,2a7.76,7.76,0,0,0-5.19-2A7.64,7.64,0,0,0,11,1,7.32,7.32,0,0,0,9.43,2.08a8.23,8.23,0,0,0-1.25,1.5,6.69,6.69,0,0,0-1.25-.12A6.78,6.78,0,0,0,4.23,4,7.06,7.06,0,0,0,2,5.49,7,7,0,0,0,.54,7.69,6.78,6.78,0,0,0,0,10.39a6.85,6.85,0,0,0,.54,2.7A7,7,0,0,0,2,15.29a6.87,6.87,0,0,0,2.21,1.48c.84.36,6.35.55,7.31.55V10.57Z"/><path class="cls-2" d="M32,12.15H13v12H32v-12Z"/><path class="cls-3" d="M20.18,17.67v1.72H18.46V17.67h1.72m1.72-1.73H16.73v5.17H21.9V15.94Z"/><rect class="cls-3" x="23.62" y="15.94" width="1.72" height="1.72"/><rect class="cls-3" x="27.06" y="15.94" width="1.72" height="1.72"/><rect class="cls-3" x="23.62" y="19.39" width="1.72" height="1.72"/><rect class="cls-3" x="27.06" y="19.39" width="1.72" height="1.72"/></g></g></g></svg>