<svg xmlns="http://www.w3.org/2000/svg" viewBox="0 0 31.97 25.2"><defs><style>.cls-1{fill:#c2c2c2;}.cls-2{fill:none;}.cls-3{fill:#2f2f2f;}</style></defs><title>cloud_devices</title><g id="Layer_2" data-name="Layer 2"><g id="SYMBOLS"><g id="cloud_devices"><path class="cls-1" d="M4.49,17.82a6.75,6.75,0,0,0,2,.53V10.47H27L27,17c.66,0,.53,0,.78-.21A4.37,4.37,0,0,0,29,15a5.5,5.5,0,0,0,.43-2.15A5.39,5.39,0,0,0,29,10.71,5.59,5.59,0,0,0,27.81,9,5.93,5.93,0,0,0,26,7.79a5.46,5.46,0,0,0-2.17-.43A8.37,8.37,0,0,0,23,4.44,8.2,8.2,0,0,0,15.64,0a8.39,8.39,0,0,0-2.07.26,8,8,0,0,0-1.9.75A7.59,7.59,0,0,0,10,2.21,7.92,7.92,0,0,0,8.7,3.81a6.83,6.83,0,0,0-1.34-.13,7.28,7.28,0,0,0-2.87.57A7.55,7.55,0,0,0,2.15,5.83,7.24,7.24,0,0,0,.58,8.17a7.39,7.39,0,0,0,0,5.74,7.35,7.35,0,0,0,1.57,2.34A6.44,6.44,0,0,0,4.49,17.82Z"/><rect class="cls-2" x="24.43" y="22.77" width="1.79" height="1.18"/><rect class="cls-2" x="11.7" y="22.83" width="0.8" height="0.78"/><path class="cls-3" d="M19.08,23.62H17.21V22.05h1.87V17.74a1.15,1.15,0,0,1,.41-.9,1.34,1.34,0,0,1,.43-.26,1.39,1.39,0,0,1,.5-.09H25.6V11.85H7.87v10.2h7.77v1.57h-3c0,.1-.06,1.58-.06,1.58s6.5,0,6.5,0"/><path class="cls-3" d="M31.94,18.1a.41.41,0,0,0-.1-.13l-.16-.1a.71.71,0,0,0-.21,0H21a.64.64,0,0,0-.2,0,.69.69,0,0,0-.17.1.64.64,0,0,0-.1.13.27.27,0,0,0,0,.13v6.58a.27.27,0,0,0,0,.13.64.64,0,0,0,.1.13.69.69,0,0,0,.17.1.64.64,0,0,0,.2,0h10.5a.71.71,0,0,0,.21,0l.16-.1a.41.41,0,0,0,.1-.13.28.28,0,0,0,0-.13V18.23A.28.28,0,0,0,31.94,18.1Zm-4.75,6.29H25.26V23.12h1.93Z"/></g></g></g></svg>