<svg xmlns="http://www.w3.org/2000/svg" viewBox="0 0 31.97 25.54"><defs><style>.cls-1{fill:#c2c2c2;}.cls-2{fill:#2f2f2f;}.cls-3{fill:#d83b01;}</style></defs><title>cloud_shield</title><g id="Layer_2" data-name="Layer 2"><g id="SYMBOLS"><g id="cloud_shield"><path class="cls-1" d="M26,5.84A15.67,15.67,0,0,0,24,2.38,9.46,9.46,0,0,0,21.11.63,9.22,9.22,0,0,0,17.7,0a9.61,9.61,0,0,0-2.34.29,9.54,9.54,0,0,0-2.15.85A9.05,9.05,0,0,0,11.35,2.5,9.81,9.81,0,0,0,9.84,4.31a7.79,7.79,0,0,0-1.51-.14,8,8,0,0,0-3.24.65A8.23,8.23,0,0,0,2.43,6.6,8.52,8.52,0,0,0,.65,9.25,8.27,8.27,0,0,0,0,12.5a8.19,8.19,0,0,0,.65,3.24A8.56,8.56,0,0,0,2.43,18.4a8.56,8.56,0,0,0,2.66,1.78c1,.43,8.77.28,9.92.28A12.3,12.3,0,0,1,12.41,12c0-.58,0-4.38,0-4.38C20.17,8,20.26,2.81,26,5.84Z"/><path class="cls-2" d="M23,25.36c-.68-.39-1.36-.82-2-1.29A20.26,20.26,0,0,1,19,22.52a18.08,18.08,0,0,1-1.72-1.78,12.06,12.06,0,0,1-1.41-2,11,11,0,0,1-.95-2.29,9.27,9.27,0,0,1-.35-2.54V9.52l.59,0a11.75,11.75,0,0,0,2.63-.44A9,9,0,0,0,20.17,8a6.14,6.14,0,0,1,1.47-.7,6.11,6.11,0,0,1,3.25,0,6,6,0,0,1,1.47.7,9.19,9.19,0,0,0,2.39,1.1,11.85,11.85,0,0,0,2.63.44l.59,0v4.34a9.27,9.27,0,0,1-.35,2.54,11.48,11.48,0,0,1-.94,2.29,13.34,13.34,0,0,1-1.41,2,19.4,19.4,0,0,1-1.73,1.78,19.09,19.09,0,0,1-1.94,1.55c-.67.47-1.35.9-2,1.29l-.31.18Z"/><line class="cls-3" x1="22.64" y1="10.13" x2="23.89" y2="10.13"/></g></g></g></svg>