<svg xmlns="http://www.w3.org/2000/svg" viewBox="0 0 31.97 27.12"><defs><style>.cls-1{fill:#c2c2c2;}.cls-2{fill:#d83b01;}.cls-3{fill:#2f2f2f;}</style></defs><title>cloud_ssa</title><g id="Layer_2" data-name="Layer 2"><g id="SYMBOLS"><g id="cloud_ssa"><path class="cls-1" d="M27.84,19.65a6.36,6.36,0,0,0,2.37-1.43,5.92,5.92,0,0,0,1.29-1.9,6,6,0,0,0,0-4.69,6.14,6.14,0,0,0-1.29-1.9,6.3,6.3,0,0,0-1.92-1.27A6,6,0,0,0,25.93,8a9.54,9.54,0,0,0-1-3.17,9.08,9.08,0,0,0-2-2.53A8.94,8.94,0,0,0,17,0a8.76,8.76,0,0,0-2.24.28,9,9,0,0,0-2.06.81A8.49,8.49,0,0,0,10.89,2.4,9.06,9.06,0,0,0,9.44,4.14,7.19,7.19,0,0,0,8,4a7.75,7.75,0,0,0-3.11.62A8.28,8.28,0,0,0,2.33,6.33,8.12,8.12,0,0,0,.62,8.87,8,8,0,0,0,0,12,7.92,7.92,0,0,0,.62,15.1a8.28,8.28,0,0,0,1.71,2.55,8.28,8.28,0,0,0,2.55,1.71A7.92,7.92,0,0,0,8,20h6A7.83,7.83,0,0,1,13,16.17a6.7,6.7,0,0,1,3-5.44c2.1-1.46,6.06-1.4,8.17-.18a7.37,7.37,0,0,1,3.23,5.12A7.19,7.19,0,0,1,26.3,20"/><path class="cls-2" d="M17.21,20.91,11.15,27a.49.49,0,0,1-.35.15c-.13,0-.54-.35-.64-.45a.77.77,0,0,1-.23-.42.47.47,0,0,1,.15-.35l6-6A5.41,5.41,0,0,0,17.21,20.91Z"/><path class="cls-3" d="M20.3,11.09a5.42,5.42,0,1,0,5.42,5.42A5.42,5.42,0,0,0,20.3,11.09Zm0,8.88a3.46,3.46,0,1,1,3.46-3.46A3.46,3.46,0,0,1,20.3,20Z"/></g></g></g></svg>