<svg xmlns="http://www.w3.org/2000/svg" viewBox="0 0 31.97 22.35"><defs><style>.cls-1{fill:#c2c2c2;}.cls-2{fill:#2f2f2f;}.cls-3{fill:#d83b01;}</style></defs><title>cloud_architecture_arch_models</title><g id="Layer_2" data-name="Layer 2"><g id="SYMBOLS"><g id="cloud_architecture_arch_models"><path class="cls-1" d="M29.24,18a3.75,3.75,0,0,0,1.07-.84,5.69,5.69,0,0,0,1.22-1.79,5.61,5.61,0,0,0,.44-2.2A5.52,5.52,0,0,0,31.52,11a5.67,5.67,0,0,0-3-3,5.5,5.5,0,0,0-2.22-.44,8.92,8.92,0,0,0-.93-3,8.49,8.49,0,0,0-4.42-4,8.55,8.55,0,0,0-5.2-.3A8.16,8.16,0,0,0,13.78,1a8,8,0,0,0-1.69,1.23A8.66,8.66,0,0,0,10.73,3.9a7.48,7.48,0,0,0-4.3.46A7.5,7.5,0,0,0,4,6a10,10,0,0,0-2,2.7L13.29,19.38h.91V16.55h1.62V14.16h2.4V8.54h7v5.63h2.4v2.38h1.61"/><g id="_Group_" data-name="&lt;Group&gt;"><path class="cls-2" d="M0,21.15H12.66L0,8.49V21.15Zm6.91-2.06H2.06V14.24Z"/></g><g id="_Group_2" data-name="&lt;Group&gt;"><path class="cls-2" d="M26.14,18.34V15.92h-4v-1.6h1.61v-4h-4v4h1.61v1.6h-4v2.42H15.69v4h4v-4H18.1V16.73h7.24v1.61H23.73v4h4v-4Zm-7.23.8v2.41H16.5V19.14Zm1.6-5.63V11.1h2.42v2.41Zm6.43,8H24.53V19.14h2.41Z"/><rect class="cls-3" x="16.5" y="19.14" width="2.41" height="2.41"/><rect class="cls-3" x="24.53" y="19.14" width="2.41" height="2.41"/><rect class="cls-3" x="20.51" y="11.1" width="2.41" height="2.41"/></g></g></g></g></svg>