<svg xmlns="http://www.w3.org/2000/svg" viewBox="0 0 31.97 30.89"><defs><style>.cls-1{fill:#c2c2c2;}.cls-2{fill:#2f2f2f;}.cls-3{fill:#d83b01;}</style></defs><title>cloud_devtest</title><g id="Layer_2" data-name="Layer 2"><g id="SYMBOLS"><g id="cloud_devtest"><path class="cls-1" d="M29.49,11.94a5.61,5.61,0,0,0-.4-1.2,5.6,5.6,0,0,0-3-2.93A5.64,5.64,0,0,0,24,7.38,8.65,8.65,0,0,0,23,4.45,8.21,8.21,0,0,0,15.69,0a8.47,8.47,0,0,0-2.08.26,7.84,7.84,0,0,0-1.9.75,8.1,8.1,0,0,0-1.65,1.2A8.69,8.69,0,0,0,8.72,3.82a6.83,6.83,0,0,0-1.34-.13,7.08,7.08,0,0,0-2.87.58A7.36,7.36,0,0,0,.58,8.2,7.11,7.11,0,0,0,0,11.07,7.16,7.16,0,0,0,.58,14a7.34,7.34,0,0,0,6.8,4.5h4.67l2.57-3.77V10.49c-1.91,0-1.82-4.44.13-4.43h6.79c1.94,0,1.81,4.42.48,4.43v1.45"/><path class="cls-2" d="M23.32,24.64H12.5l3.94-6.89h3.93l2.95,3.93V18.74h0l-2.95-4,0-5.91h.44c.2,0,.53,0,.53-.49s-.32-.48-.53-.48H16s-.52,0-.52.48.33.49.52.49h.45v5.91S10,25,9.7,25.43a.83.83,0,0,0,.83,1.18c.56,0,12.71,0,12.79,0Z"/><path class="cls-3" d="M32,14.17H23.79v.92c0,.36,1,.73,1,1.09s0,.91,0,1.42h0V28a4,4,0,0,0,3.16,2.94c1.49,0,3.05-2,3.05-2.94V27H27.72a1,1,0,1,1,0-2H31V23H27.72a1,1,0,1,1,0-2H31v-2H27.72a1,1,0,1,1,0-2H31v-.94c0-.37,1-.73,1-1.09Z"/></g></g></g></svg>