<svg xmlns="http://www.w3.org/2000/svg" viewBox="0 0 31.97 24.71"><defs><style>.cls-1{fill:#2f2f2f;}.cls-2{fill:#d83b01;}.cls-3{fill:#c2c2c2;}</style></defs><title>cloud_meeting_broadcast</title><g id="Layer_2" data-name="Layer 2"><g id="SYMBOLS"><g id="cloud_meeting_broadcast"><g id="_Group_" data-name="&lt;Group&gt;"><path class="cls-1" d="M18.37,22.67a2,2,0,0,0,.16.8,2,2,0,0,0,.43.64,2.07,2.07,0,0,0,.65.44,2,2,0,0,0,1.51,0,1.66,1.66,0,0,0,.6-.36,2.08,2.08,0,0,0,.45-.53,2,2,0,0,0,.24-.68l-4-.71A2.31,2.31,0,0,0,18.37,22.67Z"/><path class="cls-1" d="M12.93,17.23V20H13l16,2.86V14.35Z"/><polygon class="cls-1" points="30.44 14.11 30.44 23.06 31.97 23.34 31.97 13.84 30.44 14.11"/><polygon class="cls-2" points="29.08 14.35 29.08 22.82 30.44 23.06 30.44 14.11 29.08 14.35"/></g><path class="cls-3" d="M32,12a6.82,6.82,0,0,0-1.32-2.13A6.09,6.09,0,0,0,28.7,8.59a6,6,0,0,0-2.38-.48,9.27,9.27,0,0,0-1-3.21A9,9,0,0,0,17.24,0,9.13,9.13,0,0,0,15,.29a8.42,8.42,0,0,0-2.09.82,9,9,0,0,0-1.82,1.32A9.62,9.62,0,0,0,9.59,4.2a7.49,7.49,0,0,0-1.48-.14A8,8,0,0,0,2.37,6.43,8.1,8.1,0,0,0,.63,9a8.24,8.24,0,0,0,0,6.32,8.1,8.1,0,0,0,1.74,2.58A7.94,7.94,0,0,0,5,19.65a30.11,30.11,0,0,0,6.2.64V15.58Z"/></g></g></g></svg>