<svg xmlns="http://www.w3.org/2000/svg" viewBox="0 0 31.97 24.39"><defs><style>.cls-1{fill:#c2c2c2;}.cls-2{fill:#2f2f2f;}.cls-3{fill:#d83b01;}</style></defs><title>cloud_pstn_conferencing</title><g id="Layer_2" data-name="Layer 2"><g id="SYMBOLS"><g id="cloud_pstn_conferencing"><path class="cls-1" d="M23.34,7.06s-1.71-4.12-3-5A11.17,11.17,0,0,0,17.94.54,8.05,8.05,0,0,0,13.05.25,7.35,7.35,0,0,0,11.23,1,8,8,0,0,0,9.64,2.12,8.2,8.2,0,0,0,8.37,3.66a7.2,7.2,0,0,0-1.29-.12,6.91,6.91,0,0,0-2.76.55A7.14,7.14,0,0,0,.55,7.86,6.91,6.91,0,0,0,0,10.62a6.91,6.91,0,0,0,.55,2.76,7.14,7.14,0,0,0,3.77,3.77c.86.37,9.27.05,10.25.05L14.71,7Z"/><path class="cls-2" d="M19.06,24.39a7.14,7.14,0,0,0,2.08-.33,12.24,12.24,0,0,0,2.18-.92,16.08,16.08,0,0,0,2.16-1.39,18.73,18.73,0,0,0,2-1.75,19.94,19.94,0,0,0,1.78-2,18.19,18.19,0,0,0,1.41-2.17,12.17,12.17,0,0,0,.93-2.2A7.12,7.12,0,0,0,32,11.47a3.9,3.9,0,0,0-.13-1.1,2.49,2.49,0,0,0-.37-.81,4.67,4.67,0,0,0-.59-.7l-.79-.79a.82.82,0,0,0-.6-.25A.81.81,0,0,0,29.1,8a3.94,3.94,0,0,0-.48.34c-.16.15-.34.3-.51.48l-.5.52-.43.47-.32.34a.81.81,0,0,0-.25.61.72.72,0,0,0,.14.44,2.46,2.46,0,0,0,.34.41l.45.42a3.27,3.27,0,0,1,.44.47,3.08,3.08,0,0,1,.35.58,1.86,1.86,0,0,1,.13.73,2.08,2.08,0,0,1-.15.78,2,2,0,0,1-.44.66L22.78,20.3a2,2,0,0,1-.66.44,2.08,2.08,0,0,1-.78.15,1.73,1.73,0,0,1-.73-.14,2.33,2.33,0,0,1-.57-.34,2.56,2.56,0,0,1-.48-.45c-.14-.16-.29-.31-.42-.45a4.1,4.1,0,0,0-.41-.34.77.77,0,0,0-.44-.14.86.86,0,0,0-.61.25c-.08.08-.19.19-.34.32l-.47.44c-.17.15-.34.32-.52.5s-.33.34-.47.51a2.76,2.76,0,0,0-.35.48.78.78,0,0,0-.13.39.82.82,0,0,0,.25.6l.78.79a4.14,4.14,0,0,0,.7.59,2.7,2.7,0,0,0,.81.36A4.36,4.36,0,0,0,19.06,24.39Z"/><polygon class="cls-3" points="19.59 11.15 23.68 15.25 22.44 16.49 18.35 12.4 18.34 15.25 16.59 15.25 16.59 9.4 22.44 9.4 22.44 11.14 19.59 11.15"/></g></g></g></svg>