<svg xmlns="http://www.w3.org/2000/svg" viewBox="0 0 31.97 22.83"><defs><style>.cls-1{fill:#939393;}.cls-2{fill:#c2c2c2;}</style></defs><title>cloud</title><g id="Layer_2" data-name="Layer 2"><g id="SYMBOLS"><g id="cloud"><path class="cls-1" d="M8,9.13a8.55,8.55,0,0,1,1.34.11,6.89,6.89,0,0,1,1.28.34A8.72,8.72,0,0,1,12,7.72a10.58,10.58,0,0,1,3.88-2.53,10,10,0,0,1,2.27-.55,6,6,0,0,0-.7-1.86A5.58,5.58,0,0,0,16.2,1.31a5.75,5.75,0,0,0-1.69-1A5.56,5.56,0,0,0,12.56,0a5.49,5.49,0,0,0-2.1.4A5.79,5.79,0,0,0,8.71,1.51,6.06,6.06,0,0,0,7.47,3.17,5.49,5.49,0,0,0,6.9,5.23a5,5,0,0,0-1.12-.48,4.12,4.12,0,0,0-1.21-.18A4.44,4.44,0,0,0,1.34,5.91,4.55,4.55,0,0,0,0,9.13,4.51,4.51,0,0,0,.38,11a4.59,4.59,0,0,0,1.1,1.53A7.8,7.8,0,0,1,4.33,10,7.88,7.88,0,0,1,8,9.13Z"/><path class="cls-2" d="M31.6,16.45a4.39,4.39,0,0,0-1-1.46,4.52,4.52,0,0,0-1.49-1,4.83,4.83,0,0,0-1.82-.34A8.24,8.24,0,0,0,26.37,11,8.44,8.44,0,0,0,24.63,8.8a7.87,7.87,0,0,0-2.38-1.43,7.74,7.74,0,0,0-2.84-.52,7.54,7.54,0,0,0-2.61.45,7.86,7.86,0,0,0-2.26,1.23,8,8,0,0,0-1.76,1.89,8.06,8.06,0,0,0-1.08,2.41A6,6,0,0,0,10,11.78a5.51,5.51,0,0,0-2-.36,5.75,5.75,0,0,0-2.22.44A5.85,5.85,0,0,0,4,13.09,5.66,5.66,0,0,0,2.73,14.9a5.73,5.73,0,0,0,0,4.45A5.82,5.82,0,0,0,4,21.17a6,6,0,0,0,1.82,1.22A5.57,5.57,0,0,0,8,22.83H27.4a4.45,4.45,0,0,0,1.78-.35,4.82,4.82,0,0,0,1.45-1,4.57,4.57,0,0,0,1-1.46,4.6,4.6,0,0,0,0-3.59Z"/></g></g></g></svg>