<svg xmlns="http://www.w3.org/2000/svg" viewBox="0 0 31.97 26.16"><defs><style>.cls-1{fill:#c2c2c2;}.cls-2{fill:#2f2f2f;}</style></defs><title>cloud_folder</title><g id="Layer_2" data-name="Layer 2"><g id="SYMBOLS"><g id="cloud_folder"><path class="cls-1" d="M29.91,10.9a5.06,5.06,0,0,0-1.23-1.66A5.77,5.77,0,0,0,26.86,8a5.59,5.59,0,0,0-2.23-.45,9,9,0,0,0-.94-3,8.53,8.53,0,0,0-1.87-2.41A8.54,8.54,0,0,0,14,.27,7.77,7.77,0,0,0,12,1a8.13,8.13,0,0,0-1.7,1.24A9.1,9.1,0,0,0,9,3.93,7.16,7.16,0,0,0,7.59,3.8,7.54,7.54,0,0,0,2.22,6,7.76,7.76,0,0,0,.59,8.43a7.7,7.7,0,0,0,0,5.91,7.64,7.64,0,0,0,1.63,2.42,7.41,7.41,0,0,0,2.41,1.62c.93.4,6.38.61,7.43.61l0-9.29h9.21l2,1.19Z"/><g id="Artwork_247" data-name="Artwork 247"><path class="cls-2" d="M13.73,26.16V13.79h8.15l1.23-1.24H32V26.16Z"/></g><polygon class="cls-2" points="21.35 12.55 13.73 12.55 13.73 11.32 21.35 11.32 21.98 11.93 21.35 12.55"/></g></g></g></svg>