<svg xmlns="http://www.w3.org/2000/svg" viewBox="0 0 31.97 23.06"><defs><style>.cls-1{fill:#2f2f2f;}.cls-2{fill:#c2c2c2;}</style></defs><title>cloud_pipes</title><g id="Layer_2" data-name="Layer 2"><g id="SYMBOLS"><g id="cloud_pipes"><path class="cls-1" d="M32,20.47v1.29H26.78v1.3H17.69v-1.3H12.5V20.47h5.19v-1.3h2.6v-1.3h1.3v-2.6h1.29v2.6h1.3v1.3h2.6v1.3Z"/><path class="cls-2" d="M31.48,11.62a6,6,0,0,0-3.21-3.16A5.84,5.84,0,0,0,25.92,8a9.54,9.54,0,0,0-1-3.17,9.08,9.08,0,0,0-2-2.53A8.94,8.94,0,0,0,17,0a8.89,8.89,0,0,0-2.25.28,9,9,0,0,0-2.06.81A8.75,8.75,0,0,0,10.88,2.4,9.66,9.66,0,0,0,9.44,4.13,8,8,0,0,0,8,4a7.75,7.75,0,0,0-3.11.63A8,8,0,0,0,2.33,6.33,8.12,8.12,0,0,0,.62,8.87a8.14,8.14,0,0,0,0,6.23,8,8,0,0,0,4.26,4.25,27.73,27.73,0,0,0,5.88.65V18.73H16v-1.3h2.62v-1.3h1.24l0-2.6h4.78v2.61H25.9v1.29h2.61V18.7h1.72a5.69,5.69,0,0,0,1.4-2.4A11.09,11.09,0,0,0,32,14,5.82,5.82,0,0,0,31.48,11.62Z"/></g></g></g></svg>