<svg xmlns="http://www.w3.org/2000/svg" viewBox="0 0 31.97 24.16"><defs><style>.cls-1{fill:#c2c2c2;}.cls-2{fill:#2f2f2f;}</style></defs><title>cloud_public</title><g id="Layer_2" data-name="Layer 2"><g id="SYMBOLS"><g id="cloud_public"><path class="cls-1" d="M24.32,5.47a14.78,14.78,0,0,0-1.91-3.24A9,9,0,0,0,19.76.59,8.73,8.73,0,0,0,16.57,0a8.9,8.9,0,0,0-2.2.27,8.79,8.79,0,0,0-2,.8,7.92,7.92,0,0,0-1.74,1.27A9.59,9.59,0,0,0,9.21,4a7.83,7.83,0,0,0-4.45.48A7.72,7.72,0,0,0,2.28,6.17,7.9,7.9,0,0,0,.61,8.66a7.86,7.86,0,0,0,0,6.07,7.8,7.8,0,0,0,4.15,4.15c1,.41,8.21.26,9.29.26a10,10,0,0,1,.6-9C15.75,8.27,17.8,5.54,24.32,5.47Z"/><path class="cls-2" d="M23.58,7.38A8.39,8.39,0,1,0,32,15.77,8.4,8.4,0,0,0,23.58,7.38Zm6.07,10.07a2.23,2.23,0,0,0-.15-.34c-.07-.13-.17-.31-.3-.52a.61.61,0,0,1,0-.16l0-.21V16a.38.38,0,0,0,0-.16,1.89,1.89,0,0,1-.45-.09,1.17,1.17,0,0,1-.42-.2l0,0-.21.07-.22.09-.21.07a.85.85,0,0,1-.23,0l-.13,0,0-.06-.25.09a.85.85,0,0,1-.26,0,.81.81,0,0,1-.24-.06l-.32-.14a1.52,1.52,0,0,1-.28-.19.27.27,0,0,1-.13-.19l0,0a.36.36,0,0,0-.11-.1l-.13-.08-.1-.09a.16.16,0,0,1,0-.12l.09-.07-.19,0-.07-.25s0,0,.08,0a.12.12,0,0,0,.09,0l-.3-.16.2-.53a1.49,1.49,0,0,1-.05-.67.83.83,0,0,1,.22-.39,4,4,0,0,1,.37-.3,1.59,1.59,0,0,0,.41-.41l0-.1.56-.67h.12l.53,0,.59-.06.6-.09c.17,0,.33-.06.48-.09a7.4,7.4,0,0,1,.56,8.75l-.18-.46a1.39,1.39,0,0,1-.1-.53,3.19,3.19,0,0,1,0-.49,2.32,2.32,0,0,1,.05-.33,2.4,2.4,0,0,0,0-.24A.61.61,0,0,0,29.65,17.45Zm-7.31,4.42a1.73,1.73,0,0,1-.14.42,2.82,2.82,0,0,1-.23.42c-.06.11-.13.19-.18.27A7.27,7.27,0,0,1,20,22.26.66.66,0,0,1,20,22a2.58,2.58,0,0,1,.09-.35c0-.11.07-.23.11-.35a1.49,1.49,0,0,0,.05-.36,2.29,2.29,0,0,0-.08-.56q-.09-.3-.21-.6c-.08-.19-.16-.39-.25-.58s-.17-.39-.23-.56a2.11,2.11,0,0,1-.13-.49.54.54,0,0,1,.05-.38l-.13-.06a1.09,1.09,0,0,1,.14-.23,1.84,1.84,0,0,0,.17-.22,1.42,1.42,0,0,0,.14-.23.54.54,0,0,0,.06-.25.39.39,0,0,0,0-.18,1.54,1.54,0,0,1-.05-.17l.18,0a.83.83,0,0,1,.38-.45,1.41,1.41,0,0,1,.61-.12l.18,0,.28.09.29.09.2.07s0,.06.07.08.07,0,.07.05l0,.07.12.06.2.12.19.13.12.1a1.14,1.14,0,0,1,.41.1,5.24,5.24,0,0,1,.57.25,5.7,5.7,0,0,1,.61.36,5.44,5.44,0,0,1,.56.42,2.77,2.77,0,0,1,.42.42.57.57,0,0,1,.16.36L25,19a1.42,1.42,0,0,1-.07.66.8.8,0,0,1-.28.37,2.3,2.3,0,0,1-.44.25,4.68,4.68,0,0,0-.54.28.87.87,0,0,1-.09.37,1.53,1.53,0,0,1-.21.37,1.32,1.32,0,0,1-.3.28.59.59,0,0,1-.35.12l-.35-.27a.08.08,0,0,1,0,.07s0,0,0,0A.51.51,0,0,1,22.34,21.87Zm-3.65-5.63s0,.05,0,0l-.3-.51a3.05,3.05,0,0,1-.57-.09,4.35,4.35,0,0,1-.61-.2,4.41,4.41,0,0,1-.58-.28,3.84,3.84,0,0,1-.42-.27,7.42,7.42,0,0,1,2.23-4.5.4.4,0,0,1,.25.1,1.23,1.23,0,0,1,.22.24,1.64,1.64,0,0,0,.21.24.37.37,0,0,0,.29.12l.13-.1v-.19l.27-.39-.22-.62.13-.08a.3.3,0,0,1,.14-.06l.39,0a.54.54,0,0,1,.23.1,1.11,1.11,0,0,1,.18.19c.05.08.13.19.23.32l.3-.24.27.11.38.19a2,2,0,0,1,.32.22.29.29,0,0,1,.14.22.25.25,0,0,1-.09.2.9.9,0,0,1-.24.12,1.57,1.57,0,0,1-.31.08l-.32.07-.24.08a.17.17,0,0,0-.1.14l.48.16a3.32,3.32,0,0,1-.36.26,3.11,3.11,0,0,1-.4.22l0,.14-.77.3v.23l-.06,0,0-.29h0s-.07,0-.07,0a.13.13,0,0,0,0,.06s0,.05,0,.07a.11.11,0,0,1,0,.05l-.11-.06,0,0a.13.13,0,0,0,0,.08l.07.09L20,13s0,0,0,.05a.19.19,0,0,1-.08,0l-.07,0s0,0,0,0,.1,0,0,0l-.21.08a1.4,1.4,0,0,0-.26.2.53.53,0,0,0-.13.36c0,.1,0,.19,0,.28a.82.82,0,0,1,0,.27,1,1,0,0,0-.35-.48,1,1,0,0,0-.57-.17l-.36,0,.18.11-.3,0a1.5,1.5,0,0,0-.3,0,.94.94,0,0,0-.29.06A.85.85,0,0,0,17,14l0,.38a.76.76,0,0,0,.12.44.48.48,0,0,0,.41.17,1.62,1.62,0,0,0,.49-.08l.48-.17a3.78,3.78,0,0,1-.17.35,1.26,1.26,0,0,0-.13.37l.11,0a.32.32,0,0,1,.36,0,1.5,1.5,0,0,1,.33.26l.33.37a1,1,0,0,0,.35.26l-.28.15-.67-.37S18.68,16.2,18.69,16.24Zm8.19-6.9a1.07,1.07,0,0,0-.46-.11V9.14l.38-.06a7.12,7.12,0,0,1,1.29.8l-.18.07a1.35,1.35,0,0,0-.26.15,1.34,1.34,0,0,0-.21.2.35.35,0,0,0-.09.22l0,.16a.66.66,0,0,1-.34.31,1.16,1.16,0,0,1-.38.06h-.4a.87.87,0,0,0-.39.07l-.14-.28.13-.48-.14-.21,1.44-.45A.67.67,0,0,0,26.88,9.34Z"/></g></g></g></svg>