<svg xmlns="http://www.w3.org/2000/svg" viewBox="0 0 31.97 25.96"><defs><style>.cls-1{fill:#2f2f2f;}.cls-2{fill:#d83b01;}.cls-3{fill:#c2c2c2;}</style></defs><title>cloud_storage</title><g id="Layer_2" data-name="Layer 2"><g id="SYMBOLS"><g id="cloud_storage"><path class="cls-1" d="M28.05,13.52c-.72.12-1.44.2-2.16.25s-1.4.07-2,.07-1.31,0-2-.07-1.44-.13-2.17-.25a17.19,17.19,0,0,1-2.09-.46,8.64,8.64,0,0,1-1.82-.74v11.4a.62.62,0,0,0,.24.46,2.6,2.6,0,0,0,.58.41,4.37,4.37,0,0,0,.69.33l.56.22a10.85,10.85,0,0,0,1.42.38,15.65,15.65,0,0,0,1.55.25c.53.07,1.05.12,1.57.14s1,.05,1.5.05,1,0,1.5-.05,1-.07,1.57-.14,1-.14,1.55-.25a11.29,11.29,0,0,0,1.42-.38l.56-.22a4.37,4.37,0,0,0,.69-.33,2.6,2.6,0,0,0,.58-.41.62.62,0,0,0,.24-.46V12.32a8.87,8.87,0,0,1-1.82.74A17,17,0,0,1,28.05,13.52Z"/><path class="cls-2" d="M15.9,10.63a2.84,2.84,0,0,0,.86.66,8.15,8.15,0,0,0,1.25.49,14.62,14.62,0,0,0,1.48.35c.53.1,1.06.18,1.58.23s1,.11,1.51.13.9,0,1.28,0,.8,0,1.28,0,1-.07,1.51-.13,1.05-.13,1.57-.23a14.83,14.83,0,0,0,1.49-.35A8.57,8.57,0,0,0,31,11.29a2.46,2.46,0,0,0,.85-.66.61.61,0,0,0,.12-.16.47.47,0,0,0,0-.17.64.64,0,0,0-.24-.46,3,3,0,0,0-.58-.42,7.32,7.32,0,0,0-.69-.33,4.77,4.77,0,0,0-.56-.21,11.62,11.62,0,0,0-1.44-.38c-.5-.11-1-.19-1.54-.26s-1-.11-1.56-.14-1,0-1.5,0-1,0-1.5,0-1,.07-1.56.14-1,.15-1.54.26a11.62,11.62,0,0,0-1.44.38,4.77,4.77,0,0,0-.56.21,7.32,7.32,0,0,0-.69.33,3,3,0,0,0-.58.42.64.64,0,0,0-.24.46.33.33,0,0,0,0,.17A.91.91,0,0,0,15.9,10.63Z"/><path class="cls-3" d="M27.22,6.69a12.27,12.27,0,0,0-2.93-4.27A9.47,9.47,0,0,0,21.41.64,9.29,9.29,0,0,0,18,0a9.39,9.39,0,0,0-2.37.3,9.14,9.14,0,0,0-2.18.85,9.74,9.74,0,0,0-1.89,1.38A10,10,0,0,0,10,4.37a8,8,0,0,0-1.53-.15,8.26,8.26,0,0,0-3.29.66A8.67,8.67,0,0,0,2.47,6.69,8.44,8.44,0,0,0,.66,9.38,8.56,8.56,0,0,0,.66,16a8.55,8.55,0,0,0,1.81,2.69,8.47,8.47,0,0,0,2.69,1.8c1,.44,7.59.67,8.75.67l0-12C19,5.32,27.22,6.69,27.22,6.69Z"/></g></g></g></svg>