<svg xmlns="http://www.w3.org/2000/svg" viewBox="0 0 31.97 22.18"><defs><style>.cls-1{fill:#c2c2c2;}.cls-2{fill:#2f2f2f;}.cls-3{fill:#d2d2d2;}</style></defs><title>cloud_mail</title><g id="Layer_2" data-name="Layer 2"><g id="SYMBOLS"><g id="cloud_mail"><path class="cls-1" d="M25.37,8.45a8.2,8.2,0,0,0-2-1.45,4.87,4.87,0,0,0-1.94-.39A7.79,7.79,0,0,0,20.62,4,7.39,7.39,0,0,0,16.75.5,7.41,7.41,0,0,0,14,0a7.77,7.77,0,0,0-1.86.23,7.62,7.62,0,0,0-1.7.67A7.43,7.43,0,0,0,7.81,3.42a6.26,6.26,0,0,0-1.2-.12A6.61,6.61,0,0,0,4,3.82a6.92,6.92,0,0,0-2.1,1.41A6.51,6.51,0,0,0,.52,7.34,6.35,6.35,0,0,0,0,9.91a6.43,6.43,0,0,0,.52,2.58A6.56,6.56,0,0,0,4,16c.81.35,5.87.53,6.79.53l0-8.09H25.37Z"/><path class="cls-2" d="M22.11,16.18l-8.78-4.39-1.07-.54V22.18H32V11.25l-1.07.54Z"/><polygon class="cls-3" points="31.96 11.25 31.96 11.25 31.97 11.25 31.96 11.25"/><polygon class="cls-3" points="12.25 11.25 12.26 11.25 12.26 11.25 12.25 11.25"/><polygon class="cls-2" points="22.11 14.8 30.89 10.4 31.96 9.87 31.96 9.86 12.26 9.86 12.26 9.87 13.33 10.4 22.11 14.8"/></g></g></g></svg>