<svg xmlns="http://www.w3.org/2000/svg" viewBox="0 0 31.97 21.14"><defs><style>.cls-1{fill:#c2c2c2;}.cls-2{fill:#2f2f2f;}</style></defs><title>cloud_architecture2</title><g id="Layer_2" data-name="Layer 2"><g id="SYMBOLS"><g id="cloud_architecture2"><path class="cls-1" d="M28.58,18.53a10.14,10.14,0,0,0,1.73-1.34,5.66,5.66,0,0,0,1.21-1.79A5.41,5.41,0,0,0,32,13.2a5.6,5.6,0,0,0-1.67-4,5.74,5.74,0,0,0-4-1.65,9,9,0,0,0-.93-3,8.67,8.67,0,0,0-1.84-2.39A8.44,8.44,0,0,0,20.94.58,8.11,8.11,0,0,0,17.86,0a8.79,8.79,0,0,0-2.12.26A8.6,8.6,0,0,0,13.8,1a8.8,8.8,0,0,0-1.69,1.23,9,9,0,0,0-1.36,1.64,7.14,7.14,0,0,0-1.37-.13,7.2,7.2,0,0,0-2.93.58A7.5,7.5,0,0,0,4.05,6a9.74,9.74,0,0,0-2,2.7L13.28,19.37H26.89"/><g id="_Group_" data-name="&lt;Group&gt;"><path class="cls-2" d="M0,21.12l12.66,0L0,8.47,0,21.12Zm6.91-2.05H2.06V14.21Z"/></g></g></g></g></svg>