<svg xmlns="http://www.w3.org/2000/svg" viewBox="0 0 31.97 25.45"><defs><style>.cls-1{fill:#939393;}.cls-2{fill:none;}.cls-3{fill:#2f2f2f;}.cls-4{fill:#d83b01;}.cls-5{fill:#c2c2c2;}</style></defs><title>cloud_hybrid</title><g id="Layer_2" data-name="Layer 2"><g id="SYMBOLS"><g id="cloud_hybrid"><rect class="cls-1" x="18.43" y="14.38" width="1.89" height="1.85"/><rect class="cls-2" x="21.27" y="19.93" width="1.91" height="1.85"/><rect class="cls-2" x="21.27" y="17.15" width="1.91" height="1.85"/><rect class="cls-2" x="18.4" y="17.15" width="1.91" height="1.85"/><rect class="cls-2" x="21.27" y="14.38" width="1.91" height="1.85"/><rect class="cls-2" x="21.27" y="22.7" width="1.91" height="1.85"/><rect class="cls-2" x="18.4" y="19.93" width="1.91" height="1.85"/><rect class="cls-2" x="24.14" y="14.38" width="1.91" height="1.85"/><rect class="cls-2" x="24.14" y="17.15" width="1.91" height="1.85"/><path class="cls-3" d="M17.47,12.55v12.9H27V12.55Zm1,1.83h1.86v1.84H18.43Zm1.88,7.4H18.4V19.93h1.91Zm0-2.78H18.4V17.15h1.91Zm2.87,5.55H21.27V22.7h1.91Zm0-2.77H21.27V19.93h1.91Zm0-2.78H21.27V17.15h1.91Zm0-2.77H21.27V14.38h1.91ZM26,21.77H24.13V19.92H26ZM26.05,19H24.14V17.15h1.91Zm0-2.77H24.14V14.38h1.91Z"/><rect class="cls-4" x="24.13" y="19.92" width="1.86" height="1.85"/><path class="cls-5" d="M28.74,19.68a6.79,6.79,0,0,0,1.47-1.46,8.49,8.49,0,0,0,1.29-1.9,6,6,0,0,0,0-4.69,6.14,6.14,0,0,0-1.29-1.9,6.3,6.3,0,0,0-1.92-1.27A6,6,0,0,0,25.93,8a9.54,9.54,0,0,0-1-3.17,9.08,9.08,0,0,0-2-2.53A8.94,8.94,0,0,0,17,0a8.76,8.76,0,0,0-2.24.28,9,9,0,0,0-2.06.81A8.49,8.49,0,0,0,10.89,2.4,9.06,9.06,0,0,0,9.44,4.14,7.19,7.19,0,0,0,8,4a7.75,7.75,0,0,0-3.11.62A8.28,8.28,0,0,0,2.33,6.33,8.12,8.12,0,0,0,.62,8.87,8,8,0,0,0,0,12,7.92,7.92,0,0,0,.62,15.1a8.28,8.28,0,0,0,1.71,2.55,8.28,8.28,0,0,0,2.55,1.71c1,.41,9.75.57,10.85.57v-9.1l13-.09"/></g></g></g></svg>