<svg xmlns="http://www.w3.org/2000/svg" viewBox="0 0 31.97 28.63"><defs><style>.cls-1{fill:#c2c2c2;}.cls-2{fill:#d83b01;}</style></defs><title>cloud_download</title><g id="Layer_2" data-name="Layer 2"><g id="SYMBOLS"><g id="cloud_download"><path class="cls-1" d="M31.49,11.63a6.14,6.14,0,0,0-1.29-1.9,6.3,6.3,0,0,0-1.92-1.27A6,6,0,0,0,25.93,8a9.54,9.54,0,0,0-1-3.17,9.08,9.08,0,0,0-2-2.53A8.94,8.94,0,0,0,17,0a8.76,8.76,0,0,0-2.24.28,9,9,0,0,0-2.06.81A8.49,8.49,0,0,0,10.89,2.4,9.06,9.06,0,0,0,9.44,4.14,7.19,7.19,0,0,0,8,4a7.75,7.75,0,0,0-3.11.62A8.28,8.28,0,0,0,2.33,6.33,8.12,8.12,0,0,0,.62,8.87,8,8,0,0,0,0,12,7.92,7.92,0,0,0,.62,15.1a8.28,8.28,0,0,0,1.71,2.55,8.28,8.28,0,0,0,2.55,1.71A7.92,7.92,0,0,0,8,20h4.8V15.41h6.39V20H26a6,6,0,0,0,6-6A5.79,5.79,0,0,0,31.49,11.63Z"/><polygon class="cls-2" points="19.5 22.12 17.05 24.55 17.05 19.98 17.05 17.55 14.92 17.55 14.92 19.98 14.92 24.55 12.47 22.12 10.97 23.62 15.98 28.63 21 23.62 19.5 22.12"/></g></g></g></svg>