<svg xmlns="http://www.w3.org/2000/svg" viewBox="0 0 31.97 23.31"><defs><style>.cls-1{fill:#2f2f2f;}.cls-2{fill:#d83b01;}.cls-3{fill:#c2c2c2;}</style></defs><title>cloud_architecture1</title><g id="Layer_2" data-name="Layer 2"><g id="SYMBOLS"><g id="cloud_architecture1"><g id="_Group_" data-name="&lt;Group&gt;"><path class="cls-1" d="M15.53,23.31H29.81L15.53,9V23.31Zm14.94-1.16,1.16,1.16H32V8.2H27.32V9.37h2.32v1.16H27.32v1.16h2.32v1.16H27.32V14h3.49v1.16H27.32v1.16h2.32V17.5H27.32v1.17h2.32v1.16H28.15L29.31,21h1.5v1.16ZM23.33,21H17.85V15.51ZM27,8.2V18.25l.34.42V8.2Z"/><rect class="cls-2" x="27.32" y="14.02" width="3.48" height="1.16"/><polygon class="cls-2" points="29.31 20.97 30.81 20.97 30.81 22.13 30.4 22.13 29.31 20.97"/></g><path class="cls-3" d="M25.68,16.77V8.45a6.45,6.45,0,0,0-1.76-1.29,5,5,0,0,0-2-.4,7.92,7.92,0,0,0-.84-2.68,7.83,7.83,0,0,0-1.66-2.15A7.72,7.72,0,0,0,17.13.51,7.72,7.72,0,0,0,12.46.24a7.67,7.67,0,0,0-1.74.68A7.08,7.08,0,0,0,9.21,2,7.57,7.57,0,0,0,8,3.5a6.57,6.57,0,0,0-1.23-.12,6.64,6.64,0,0,0-2.63.53,6.62,6.62,0,0,0-3.6,3.6,6.75,6.75,0,0,0,3.6,8.86c.82.35,9,.54,9.93.54V5.25Z"/></g></g></g></svg>