<svg xmlns="http://www.w3.org/2000/svg" viewBox="0 0 31.97 19.98"><defs><style>.cls-1{fill:#c2c2c2;}</style></defs><title>cloud_private</title><g id="Layer_2" data-name="Layer 2"><g id="SYMBOLS"><path id="cloud_private" class="cls-1" d="M31.49,11.63a6.14,6.14,0,0,0-1.29-1.9,6.3,6.3,0,0,0-1.92-1.27A6,6,0,0,0,25.93,8a9.54,9.54,0,0,0-1-3.17,9.23,9.23,0,0,0-2-2.53A8.94,8.94,0,0,0,17,0a8.76,8.76,0,0,0-2.24.28,9.28,9.28,0,0,0-2.07.81A8.69,8.69,0,0,0,10.89,2.4,9.06,9.06,0,0,0,9.44,4.14,7.19,7.19,0,0,0,8,4a7.75,7.75,0,0,0-3.11.62A8,8,0,0,0,.62,8.87,8,8,0,0,0,0,12,7.92,7.92,0,0,0,.62,15.1a7.94,7.94,0,0,0,4.26,4.26A7.92,7.92,0,0,0,8,20H26a6,6,0,0,0,6-6A5.79,5.79,0,0,0,31.49,11.63ZM19.71,2.54A7.25,7.25,0,0,1,21.93,4,7,7,0,0,1,24,9v1h2a3.88,3.88,0,0,1,1.56.31,4.06,4.06,0,0,1,2.13,2.13A3.88,3.88,0,0,1,30,14a3.83,3.83,0,0,1-.31,1.55,4.55,4.55,0,0,1-.38.69l-14-14a6.86,6.86,0,0,1,4.43.31Zm-14,3.92A5.59,5.59,0,0,1,7,6.08L18.92,18H11.05L2.56,9.49A6,6,0,0,1,3.75,7.75,6.08,6.08,0,0,1,5.66,6.46Zm0,11.05a5.93,5.93,0,0,1-3.19-3.19A5.68,5.68,0,0,1,2,12a6.13,6.13,0,0,1,.07-.87L8.93,18H8A5.68,5.68,0,0,1,5.66,17.51ZM26,18H21L9.17,6.12a6.08,6.08,0,0,1,1.29.42,7,7,0,0,1,1-1.86A6.81,6.81,0,0,1,13,3.25a6.73,6.73,0,0,1,.73-.44L28.22,17.29a4.64,4.64,0,0,1-.69.38A3.88,3.88,0,0,1,26,18Z"/></g></g></svg>