<svg xmlns="http://www.w3.org/2000/svg" viewBox="0 0 32 29.73"><defs><style>.cls-1{fill:#c2c2c2;}.cls-2{fill:#0078d4;}</style></defs><title>FilesInTheCloud</title><g id="Layer_2" data-name="Layer 2"><g id="ArrowUp"><path class="cls-1" d="M2.34,6.34A8,8,0,0,0,0,12a8,8,0,0,0,2.34,5.66,7.79,7.79,0,0,0,2.54,1.71,4.13,4.13,0,0,0,.45.17l6-6L17.74,20h.43V16.5h6.4V20H26a6,6,0,0,0,4.24-1.76,6,6,0,0,0,1.29-1.9A5.93,5.93,0,0,0,32,14a5.82,5.82,0,0,0-.48-2.36,6,6,0,0,0-1.29-1.9,6.3,6.3,0,0,0-1.92-1.27A6,6,0,0,0,26,8,9,9,0,0,0,20.27.61,8.68,8.68,0,0,0,17,0a8.89,8.89,0,0,0-2.25.28,9,9,0,0,0-2.06.81A8.75,8.75,0,0,0,10.9,2.4,9.06,9.06,0,0,0,9.45,4.14,8,8,0,0,0,8,4a7.84,7.84,0,0,0-3.12.63A7.79,7.79,0,0,0,2.34,6.34Z"/><polygon class="cls-2" points="12.37 27.68 12.37 20.66 14.82 23.1 16.32 21.6 14.72 20 11.3 16.58 7.89 20 6.28 21.6 7.78 23.1 10.23 20.66 10.23 27.68 12.37 27.68"/><polygon class="cls-2" points="22.43 18.63 20.3 18.63 20.3 20 20.3 25.65 17.85 23.21 16.35 24.71 21.37 29.73 26.38 24.71 24.88 23.21 22.43 25.65 22.43 20 22.43 18.63"/></g></g></svg>