<svg xmlns="http://www.w3.org/2000/svg" viewBox="0 0 31.97 29.7"><defs><style>.cls-1{fill:#c2c2c2;}.cls-2{fill:#d83b01;}</style></defs><title>files_in_cloud</title><g id="Layer_2" data-name="Layer 2"><g id="SYMBOLS"><g id="files_in_cloud"><path class="cls-1" d="M31.49,11.63a6.14,6.14,0,0,0-1.29-1.9,6.3,6.3,0,0,0-1.92-1.27A6,6,0,0,0,25.93,8a9.54,9.54,0,0,0-1-3.17,9.08,9.08,0,0,0-2-2.53A8.94,8.94,0,0,0,17,0a8.76,8.76,0,0,0-2.24.28,9,9,0,0,0-2.06.81A8.49,8.49,0,0,0,10.89,2.4,9.06,9.06,0,0,0,9.44,4.14,7.19,7.19,0,0,0,8,4a7.75,7.75,0,0,0-3.11.62A8.28,8.28,0,0,0,2.33,6.33,8.12,8.12,0,0,0,.62,8.87,8,8,0,0,0,0,12,7.92,7.92,0,0,0,.62,15.1a8.28,8.28,0,0,0,1.71,2.55,8.28,8.28,0,0,0,2.55,1.71l.44.16,6-6L17.72,20h.43v-3.5h6.39V20H26a6,6,0,0,0,6-6A5.79,5.79,0,0,0,31.49,11.63Z"/><polygon class="cls-2" points="14.71 19.98 11.29 16.56 7.88 19.98 6.28 21.57 7.78 23.07 10.22 20.64 10.22 27.65 12.36 27.65 12.36 20.64 14.8 23.07 16.3 21.57 14.71 19.98"/><polygon class="cls-2" points="24.86 23.19 22.41 25.62 22.41 19.98 22.41 18.61 20.28 18.61 20.28 19.98 20.28 25.62 17.83 23.19 16.33 24.69 21.34 29.7 26.36 24.69 24.86 23.19"/></g></g></g></svg>