<svg xmlns="http://www.w3.org/2000/svg" viewBox="0 0 31.97 29.47"><defs><style>.cls-1{fill:#c2c2c2;}.cls-2{fill:#2f2f2f;}</style></defs><title>online_user</title><g id="Layer_2" data-name="Layer 2"><g id="SYMBOLS"><g id="online_user"><path class="cls-1" d="M31.49,12a6.11,6.11,0,0,0-3.21-3.27,5.85,5.85,0,0,0-2.35-.48,10,10,0,0,0-1-3.27,9.46,9.46,0,0,0-2-2.61A8.81,8.81,0,0,0,20.25.63,8.5,8.5,0,0,0,17,0a8.76,8.76,0,0,0-2.24.29,8.26,8.26,0,0,0-2.06.84,8.29,8.29,0,0,0-1.79,1.34,9.45,9.45,0,0,0-1.45,1.8A7.21,7.21,0,0,0,8,4.12a7.6,7.6,0,0,0-3.11.65A7.92,7.92,0,0,0,2.33,6.53,8.37,8.37,0,0,0,.62,9.15a8.45,8.45,0,0,0,1.71,9A8.08,8.08,0,0,0,4.88,20,7.6,7.6,0,0,0,8,20.61h6.64c-1.6-3,.14-8.54,5.06-8.49s6.76,4.85,4.93,8.49H26a5.56,5.56,0,0,0,2.33-.49,5.81,5.81,0,0,0,1.91-1.33,6.08,6.08,0,0,0,1.29-2A6.24,6.24,0,0,0,32,14.42,6.13,6.13,0,0,0,31.49,12Z"/><path class="cls-2" d="M19.7,22.23a4.11,4.11,0,0,0,4-4.17,4.15,4.15,0,0,0-2.37-3.78,3.86,3.86,0,0,0-3.34,0,4.17,4.17,0,0,0-2.37,3.78A4.11,4.11,0,0,0,19.7,22.23Z"/><path class="cls-2" d="M19.69,23.22a6.15,6.15,0,0,0-6.05,6.25H25.75A6.16,6.16,0,0,0,19.69,23.22Z"/></g></g></g></svg>