<svg xmlns="http://www.w3.org/2000/svg" viewBox="0 0 31.97 19.98"><defs><style>.cls-1{fill:#c2c2c2;}.cls-2{fill:#d83b01;}.cls-3{fill:#fff;}</style></defs><title>work_off_cloud</title><g id="Layer_2" data-name="Layer 2"><g id="SYMBOLS"><g id="work_off_cloud"><path class="cls-1" d="M31.34,8.87a7.79,7.79,0,0,0-1.71-2.54,8.12,8.12,0,0,0-2.54-1.71A7.75,7.75,0,0,0,24,4a7.29,7.29,0,0,0-1.46.14A8.66,8.66,0,0,0,21.08,2.4a8.75,8.75,0,0,0-1.79-1.31A9,9,0,0,0,17.23.28,8.81,8.81,0,0,0,15,0,8.94,8.94,0,0,0,9,2.29,9.08,9.08,0,0,0,7,4.82,9.54,9.54,0,0,0,6,8a6,6,0,0,0-2.35.47A6.3,6.3,0,0,0,1.77,9.73a6,6,0,0,0-1.29,1.9,6,6,0,0,0,0,4.69,5.92,5.92,0,0,0,1.29,1.9A6,6,0,0,0,6,20H24a7.92,7.92,0,0,0,3.11-.62,8.12,8.12,0,0,0,2.54-1.71,7.94,7.94,0,0,0,1.71-2.55,8,8,0,0,0,0-6.23Zm-14,1.9L14.93,8.32l0,4.76-2.13,0L12.8,8.3l-2.47,2.41L8.84,9.2l5.06-5,5,5.06Zm6.58,6.58-5-5.06,1.52-1.49,2.42,2.46L23,8.49l2.13,0,0,4.77,2.47-2.41L29,12.38Z"/><polygon class="cls-2" points="8.84 9.2 10.33 10.71 12.8 8.3 12.75 13.06 14.88 13.08 14.93 8.32 17.35 10.78 18.86 9.29 13.9 4.23 8.84 9.2"/><polygon class="cls-3" points="25.03 13.28 25.08 8.52 22.95 8.49 22.9 13.26 20.48 10.8 18.96 12.29 23.93 17.35 28.99 12.38 27.5 10.87 25.03 13.28"/></g></g></g></svg>