<svg xmlns="http://www.w3.org/2000/svg" viewBox="0 0 32 20"><defs><style>.cls-1{fill:#c2c2c2;}.cls-2{fill:#0078d4;}</style></defs><title>WorkOffTheCloud</title><g id="Layer_2" data-name="Layer 2"><g id="ArrowUp"><path class="cls-1" d="M1.76,18.24A6,6,0,0,0,6,20H24A8,8,0,1,0,22.55,4.14,9.06,9.06,0,0,0,21.1,2.4a8.75,8.75,0,0,0-1.79-1.31A9,9,0,0,0,17.25.28,8.89,8.89,0,0,0,15,0a8.68,8.68,0,0,0-3.27.61A9.13,9.13,0,0,0,6.05,8a5.94,5.94,0,0,0-2.35.47A6.23,6.23,0,0,0,1.77,9.74a6,6,0,0,0-1.29,1.9A5.82,5.82,0,0,0,0,14a5.93,5.93,0,0,0,.47,2.34A6,6,0,0,0,1.76,18.24ZM20.5,10.81l2.42,2.46L23,8.5l2.13,0,0,4.77,2.47-2.41L29,12.4l-5.07,5L19,12.3ZM13.91,4.24l5,5.06-1.51,1.49L14.94,8.33l0,4.77-2.14,0,.05-4.77-2.47,2.41L8.85,9.2Z"/><polygon class="cls-2" points="12.81 8.31 12.76 13.08 14.9 13.1 14.94 8.33 17.37 10.79 18.88 9.3 13.91 4.24 8.85 9.21 10.34 10.72 12.81 8.31"/></g></g></svg>