<svg id="ArrowUp" xmlns="http://www.w3.org/2000/svg" viewBox="0 0 32 32"><defs><style>.cls-1{fill:#c2c2c2;}.cls-2{fill:#2f2f2f;}.cls-3{fill:#0078d4;}</style></defs><title>BlogSite-blue</title><g id="blog_site"><polygon class="cls-1" points="27.72 10.87 27.72 9.55 0 9.55 0 25.39 13.59 25.39 27.72 11.38 27.72 10.87"/><rect class="cls-2" y="3.61" width="27.72" height="3.96"/><polygon class="cls-1" points="27.75 25.39 27.77 20.03 22.71 25.39 27.75 25.39"/><path class="cls-2" d="M28,13.25l2.3,2.3L18.74,27.11a3.55,3.55,0,0,0-.88-1.44,3.5,3.5,0,0,0-1.43-.87Z"/><path class="cls-3" d="M29.06,12.16a3.68,3.68,0,0,1,.37-.32,1.68,1.68,0,0,1,.42-.22,1.35,1.35,0,0,1,.52-.08,1.51,1.51,0,0,1,.63.13,1.54,1.54,0,0,1,.52.35,1.7,1.7,0,0,1,.35.52,1.45,1.45,0,0,1,.13.63,1.62,1.62,0,0,1-.08.52,1.72,1.72,0,0,1-.23.42,2.67,2.67,0,0,1-.32.36l-.37.37-2.3-2.3Z"/><path class="cls-2" d="M15.83,25.76a2.64,2.64,0,0,1,.68.25,2.5,2.5,0,0,1,.58.43,2.62,2.62,0,0,1,.42.57,2.51,2.51,0,0,1,.26.69l-2.58.64Z"/></g></svg>