<svg xmlns="http://www.w3.org/2000/svg" viewBox="0 0 31.97 24.71"><defs><style>.cls-1{fill:#c2c2c2;}.cls-2{fill:#2f2f2f;}.cls-3{fill:#d83b01;}</style></defs><title>blog_site</title><g id="Layer_2" data-name="Layer 2"><g id="SYMBOLS"><g id="blog_site"><polygon class="cls-1" points="27.7 7.26 27.7 5.93 0 5.93 0 21.76 13.57 21.76 27.7 7.76 27.7 7.26"/><rect class="cls-2" width="27.7" height="3.96"/><polygon class="cls-1" points="27.72 21.77 27.74 16.41 22.69 21.77 27.72 21.77"/><path class="cls-2" d="M28,9.64l2.3,2.29L18.72,23.47a3.52,3.52,0,0,0-2.31-2.3Z"/><path class="cls-3" d="M29,8.55a2.17,2.17,0,0,1,.36-.32A1.72,1.72,0,0,1,29.82,8a1.58,1.58,0,0,1,.52-.08,1.51,1.51,0,0,1,.63.13,1.83,1.83,0,0,1,.52.35,1.9,1.9,0,0,1,.35.52,1.69,1.69,0,0,1,.13.63,1.62,1.62,0,0,1-.08.52,1.72,1.72,0,0,1-.23.42,2.17,2.17,0,0,1-.32.36l-.38.37-2.29-2.3Z"/><path class="cls-2" d="M15.81,22.13a2.85,2.85,0,0,1,.69.25,2.57,2.57,0,0,1,1,1,2.71,2.71,0,0,1,.25.69l-2.58.64Z"/></g></g></g></svg>