<svg id="ArrowUp" xmlns="http://www.w3.org/2000/svg" viewBox="0 0 32 32"><defs><style>.cls-1{fill:#2f2f2f;}.cls-2{fill:#0078d4;}.cls-3{fill:#c2c2c2;}</style></defs><title>ExtranetSite-blue</title><g id="extranet_site"><rect class="cls-1" y="3.01" width="28.35" height="4.05"/><path class="cls-1" d="M14.09,12.14a4.71,4.71,0,1,0,4.7,4.71A4.71,4.71,0,0,0,14.09,12.14Zm3.4,5.65a.6.6,0,0,0-.08-.19l-.17-.3a.31.31,0,0,1,0-.08s0-.08,0-.12a.24.24,0,0,0,0-.12.11.11,0,0,0,0-.08l-.25,0a.71.71,0,0,1-.23-.12l0,0-.12,0-.12.05-.12,0-.12,0h-.08l0,0-.15.05-.14,0-.14,0-.18-.08a1,1,0,0,1-.15-.11.13.13,0,0,1-.07-.11h0l-.06-.05-.08-.05-.06-.05a.14.14,0,0,1,0-.06l0-.05h-.11l0-.14,0,0,.05,0L15,16.05l.12-.3a.88.88,0,0,1,0-.38.4.4,0,0,1,.12-.21,1.2,1.2,0,0,1,.21-.17,1,1,0,0,0,.23-.23l0-.06.31-.37h.37l.33,0,.33,0,.27-.05a4.11,4.11,0,0,1,1,2.67,4.17,4.17,0,0,1-.66,2.23c0-.09-.07-.17-.1-.26a.73.73,0,0,1-.06-.3,1.87,1.87,0,0,1,0-.27q0-.11,0-.18c0-.05,0-.1,0-.14A.36.36,0,0,0,17.49,17.79ZM13.4,20.26a1.13,1.13,0,0,1-.08.24,1.71,1.71,0,0,1-.13.23l-.1.15a4,4,0,0,1-1-.4.38.38,0,0,1,0-.15c0-.07,0-.13,0-.2l.06-.2a.69.69,0,0,0,0-.2,1.15,1.15,0,0,0,0-.31,2,2,0,0,0-.12-.34c0-.11-.09-.22-.14-.33l-.13-.31a1.08,1.08,0,0,1-.07-.27.28.28,0,0,1,0-.22l-.07,0a.33.33,0,0,1,.07-.13l.1-.12.08-.13a.32.32,0,0,0,0-.14.36.36,0,0,0,0-.1l0-.1.1,0a.45.45,0,0,1,.22-.26.83.83,0,0,1,.34-.06l.09,0,.16.05L13,17l.11,0s0,0,0,0,0,0,0,0v0l.07,0,.12.07.1.08.07.05a1,1,0,0,1,.23.05l.31.15a2.08,2.08,0,0,1,.35.2l.32.23a1.7,1.7,0,0,1,.23.24.32.32,0,0,1,.09.2l-.16.17a.8.8,0,0,1,0,.37.54.54,0,0,1-.16.21,1.38,1.38,0,0,1-.24.14,1.84,1.84,0,0,0-.31.16.51.51,0,0,1,0,.2,1.13,1.13,0,0,1-.12.21,1.29,1.29,0,0,1-.17.16.36.36,0,0,1-.2.06L13.4,20v0s0,0,0,0A.26.26,0,0,1,13.4,20.26Zm-2.05-3.15s0,0,0,0l-.17-.28a1.92,1.92,0,0,1-.32-.05,2,2,0,0,1-.34-.12,2,2,0,0,1-.33-.15L10,16.37a4.17,4.17,0,0,1,1.26-2.52.24.24,0,0,1,.14.05l.12.14.11.13a.22.22,0,0,0,.17.07l.07-.06v-.1l.16-.22-.12-.35.07,0,.08,0h.21a.23.23,0,0,1,.13.06.36.36,0,0,1,.1.11l.13.17.17-.13.15.06.21.11.19.12a.19.19,0,0,1,.08.12.14.14,0,0,1-.06.12l-.13.07-.18,0-.17,0-.14,0a.09.09,0,0,0-.06.08l.28.09-.21.15-.22.12,0,.08-.43.17v.13h0l0-.16h0s0,0,0,0a0,0,0,0,0,0,0,.08.08,0,0,0,0,0v0l-.06,0v0l0,0,0,.06a.22.22,0,0,1,.06.07l0,0-.05,0,0,0h0s.06,0,0,0l-.11.05a.48.48,0,0,0-.15.11.26.26,0,0,0-.07.2v.16a.75.75,0,0,1,0,.15.57.57,0,0,0-.2-.27.58.58,0,0,0-.32-.1l-.2,0,.1.07-.17,0H10.7a.51.51,0,0,0-.3.13l0,.21a.41.41,0,0,0,.07.25.26.26,0,0,0,.23.09.84.84,0,0,0,.27,0l.27-.1-.09.2a.76.76,0,0,0-.08.21l.06,0a.2.2,0,0,1,.21,0l.18.15.18.2a.48.48,0,0,0,.21.15l-.16.09-.38-.21A.1.1,0,0,1,11.35,17.11Zm4.59-3.87a.58.58,0,0,0-.26-.06v0l.21,0a4.16,4.16,0,0,1,.73.44l-.1,0-.15.09-.12.11a.21.21,0,0,0-.05.12l0,.09a.34.34,0,0,1-.19.17.46.46,0,0,1-.21,0h-.22a.62.62,0,0,0-.23,0l-.07-.16.07-.27-.08-.12.81-.25A.37.37,0,0,0,15.94,13.24Z"/><path class="cls-2" d="M21.68,22.14H23.4V19.63a3.43,3.43,0,0,1,.26-1.36,3.34,3.34,0,0,1,1.82-1.87,3.44,3.44,0,0,1,2.72,0,3.32,3.32,0,0,1,1.09.75A3.56,3.56,0,0,1,30,18.27a3.62,3.62,0,0,1,.26,1.36v2.51H32m-7.74,0h5.16V19.63a2.76,2.76,0,0,0-.74-1.87,2.52,2.52,0,0,0-.82-.57,2.45,2.45,0,0,0-1-.21,2.53,2.53,0,0,0-1,.21,2.63,2.63,0,0,0-.82.57,2.69,2.69,0,0,0-.73,1.87Z"/><rect class="cls-2" x="21.68" y="22.14" width="10.32" height="7.67"/><path class="cls-3" d="M0,9.08v16.2H20.19V20.82h1.9c-.11-7.82,6.27-6,6.27-6V9.08ZM14.09,22.76A5.92,5.92,0,1,1,20,16.85,5.92,5.92,0,0,1,14.09,22.76Z"/></g></svg>