<svg xmlns="http://www.w3.org/2000/svg" viewBox="0 0 31.97 25.12"><defs><style>.cls-1{fill:#c2c2c2;}.cls-2{fill:#2f2f2f;}.cls-3{fill:#d83b01;}</style></defs><title>site_team</title><g id="Layer_2" data-name="Layer 2"><g id="SYMBOLS"><g id="site_team"><path class="cls-1" d="M28.66,10.28V6.14H0V22.52H13.6a4.13,4.13,0,0,1,2-1.78c-1.92-.76-1.93-4.61-.13-6.26,2.42-2.21,5.67-.15,5.67-.15.33-1.64,1.4-4.11,3.75-4.57C27.47,9.24,28.66,10.28,28.66,10.28Z"/><rect class="cls-2" width="28.66" height="4.09"/><path class="cls-3" d="M26.31,18.52a3.77,3.77,0,0,0,1.56-7.21A3.71,3.71,0,0,0,26.31,11a3.78,3.78,0,1,0,0,7.56Z"/><path class="cls-3" d="M26.3,19.42a5.67,5.67,0,0,0-5.67,5.67H32A5.67,5.67,0,0,0,26.3,19.42Z"/><path class="cls-3" d="M14.49,25.12h4.44v0a7.58,7.58,0,0,1,.84-3.45,3.78,3.78,0,0,0-5.28,3.47Z"/><path class="cls-3" d="M18.27,14.76a2.83,2.83,0,0,0-.17,5.65h.33a2.83,2.83,0,0,0-.16-5.65Z"/></g></g></g></svg>