<svg id="ArrowUp" xmlns="http://www.w3.org/2000/svg" viewBox="0 0 32 32"><defs><style>.cls-1{fill:#c2c2c2;}.cls-2{fill:#2f2f2f;}.cls-3{fill:#0078d4;}</style></defs><title>SiteTeam-blue</title><g id="site_team"><path class="cls-1" d="M28.69,14.56V10.42H0v16.4H13.61a4.11,4.11,0,0,1,2-1.78c-1.91-.77-1.92-4.62-.12-6.27,2.42-2.21,5.67-.15,5.67-.15.33-1.64,1.4-4.11,3.75-4.58C27.5,13.52,28.69,14.56,28.69,14.56Z"/><rect class="cls-2" y="4.28" width="28.69" height="4.1"/><path class="cls-3" d="M26.33,22.81a3.78,3.78,0,1,0,0-7.56,3.71,3.71,0,0,0-1.56.34,3.78,3.78,0,0,0,1.56,7.22Z"/><path class="cls-3" d="M26.33,23.72a5.67,5.67,0,0,0-5.68,5.67H32A5.67,5.67,0,0,0,26.33,23.72Z"/><path class="cls-3" d="M14.5,29.42H19v0A7.55,7.55,0,0,1,19.79,26a3.77,3.77,0,0,0-5.29,3.47Z"/><path class="cls-3" d="M18.29,19.05a2.83,2.83,0,0,0-1.82,5,2.75,2.75,0,0,0,1.65.65l.17,0,.16,0a2.75,2.75,0,0,0,1.65-.65,2.83,2.83,0,0,0-1.81-5Z"/></g></svg>