<svg xmlns="http://www.w3.org/2000/svg" viewBox="0 0 42.24 26.73"><defs><style>.cls-1{fill:#c2c2c2;}.cls-2{fill:#2f2f2f;}.cls-3{fill:#db4519;}</style></defs><title>site_shared</title><g id="Layer_2" data-name="Layer 2"><g id="SYMBOLS"><g id="site_shared"><g id="site_shared-2" data-name="site_shared"><path class="cls-1" d="M31.81,6.82H0V25H32v-2.8L29.4,20.88c-2.62,2-6.43-.18-6.43-3.3s4.28-5.24,6.51-3l2.33-1.43Z"/><rect class="cls-2" width="31.81" height="4.54"/></g><path class="cls-2" d="M30.65,19.84l4.79,2.67a3.35,3.35,0,0,1,.75-1.42l-4.73-2.63A4.12,4.12,0,0,1,30.65,19.84Z"/><path class="cls-2" d="M31.4,16.8,36,14.29a3.63,3.63,0,0,1-.71-1.46l-4.59,2.54A6.07,6.07,0,0,1,31.4,16.8Z"/><path class="cls-3" d="M27.1,14.75A2.86,2.86,0,1,0,30,17.61,2.86,2.86,0,0,0,27.1,14.75Z"/><path class="cls-3" d="M39.38,14.39a2.86,2.86,0,1,0-2.86-2.86A2.86,2.86,0,0,0,39.38,14.39Z"/><path class="cls-3" d="M39.38,21a2.86,2.86,0,1,0,2.86,2.86A2.86,2.86,0,0,0,39.38,21Z"/></g></g></g></svg>