<svg id="ArrowUp" xmlns="http://www.w3.org/2000/svg" viewBox="0 0 32 32"><defs><style>.cls-1{fill:#c2c2c2;}.cls-2{fill:#2f2f2f;}.cls-3{fill:#0078d4;}</style></defs><title>SiteShared-blue</title><g id="site_shared"><g id="site_shared-2" data-name="site_shared"><path class="cls-1" d="M24.1,11.88H0V25.65H24.22V23.53l-1.95-1A3.11,3.11,0,0,1,17.4,20c0-2.37,3.24-4,4.93-2.31l1.77-1.08Z"/><rect class="cls-2" y="6.72" width="24.1" height="3.44"/></g><path class="cls-2" d="M23.22,21.75l3.63,2a2.54,2.54,0,0,1,.56-1.08l-3.58-2A3.12,3.12,0,0,1,23.22,21.75Z"/><path class="cls-2" d="M23.79,19.45l3.44-1.9a2.73,2.73,0,0,1-.53-1.11l-3.48,1.92A4.69,4.69,0,0,1,23.79,19.45Z"/><path class="cls-3" d="M20.53,17.9a2.17,2.17,0,1,0,2.16,2.16A2.17,2.17,0,0,0,20.53,17.9Z"/><path class="cls-3" d="M29.83,17.62a2.17,2.17,0,1,0-2.16-2.16A2.17,2.17,0,0,0,29.83,17.62Z"/><path class="cls-3" d="M29.83,22.64A2.17,2.17,0,1,0,32,24.81,2.17,2.17,0,0,0,29.83,22.64Z"/></g></svg>