<svg xmlns="http://www.w3.org/2000/svg" viewBox="0 0 31.97 24.93"><defs><style>.cls-1{fill:#c2c2c2;}.cls-2{fill:#2f2f2f;}</style></defs><title>website_public</title><g id="Layer_2" data-name="Layer 2"><g id="SYMBOLS"><g id="website_public"><path class="cls-1" d="M29.22,11.88V6.26H0V23H17s-4.39-6.7.78-11.84S29.22,9.56,29.22,9.56Z"/><rect class="cls-2" width="29.22" height="4.17"/><path class="cls-2" d="M24.62,10.23A7.35,7.35,0,1,0,32,17.58,7.36,7.36,0,0,0,24.62,10.23Zm5.32,8.82a3,3,0,0,0-.13-.3q-.09-.16-.27-.45s0-.08,0-.14a1.1,1.1,0,0,0,0-.18,1.21,1.21,0,0,0,0-.18.47.47,0,0,0,0-.14,2.18,2.18,0,0,1-.4-.08,1.2,1.2,0,0,1-.36-.17l0,0-.19.06-.18.08-.19.06a.64.64,0,0,1-.2,0l-.11,0,0,0-.23.07a.63.63,0,0,1-.22,0,.76.76,0,0,1-.21,0l-.28-.13a1.2,1.2,0,0,1-.25-.16c-.07-.06-.11-.11-.11-.17l0,0a.39.39,0,0,0-.1-.08L26.5,17a.36.36,0,0,1-.09-.08.15.15,0,0,1,0-.11l.08-.06-.17,0-.06-.22a.08.08,0,0,0,.07,0l.08,0-.26-.14.18-.47a1.28,1.28,0,0,1-.05-.59.73.73,0,0,1,.2-.34,2.13,2.13,0,0,1,.32-.26,1.53,1.53,0,0,0,.36-.36l0-.08.49-.59h.11l.46,0,.52,0,.52-.08.42-.08a6.48,6.48,0,0,1,.5,7.66c-.06-.13-.11-.26-.17-.4a1.26,1.26,0,0,1-.08-.47,2.56,2.56,0,0,1,0-.42c0-.11,0-.21.05-.29s0-.15,0-.21A.63.63,0,0,0,29.94,19.05Zm-6.4,3.87a1.82,1.82,0,0,1-.13.37,2.64,2.64,0,0,1-.2.37c-.06.09-.11.17-.16.23a6.35,6.35,0,0,1-1.6-.63.65.65,0,0,1,0-.24,1.67,1.67,0,0,1,.08-.3l.09-.32a1.06,1.06,0,0,0,.05-.31,2.22,2.22,0,0,0-.07-.49,5.34,5.34,0,0,0-.18-.52c-.07-.17-.15-.35-.23-.52l-.2-.48a3,3,0,0,1-.11-.43.55.55,0,0,1,0-.34l-.11,0a.82.82,0,0,1,.12-.2l.15-.19.13-.2a.59.59,0,0,0,.05-.22.5.5,0,0,0,0-.16.65.65,0,0,1-.05-.15l.15,0a.81.81,0,0,1,.34-.4,1.22,1.22,0,0,1,.53-.1l.16,0,.25.08.25.08.17.06s0,.05.06.07.07,0,.07,0l0,.06.11.06.17.1.17.12.1.08a1,1,0,0,1,.36.09,5.12,5.12,0,0,1,.5.22c.17.09.35.2.53.32a5.41,5.41,0,0,1,.5.36,2.46,2.46,0,0,1,.36.37.52.52,0,0,1,.14.32l-.24.26a1.24,1.24,0,0,1-.06.58.8.8,0,0,1-.25.32,1.47,1.47,0,0,1-.39.22l-.47.25a.81.81,0,0,1-.07.32,1.5,1.5,0,0,1-.19.32.88.88,0,0,1-.26.25.53.53,0,0,1-.31.11l-.3-.24s0,0,0,.06,0,0,0,0A.49.49,0,0,1,23.54,22.92ZM20.34,18s0,0,0,0l-.26-.44a2.44,2.44,0,0,1-.51-.08c-.17,0-.35-.1-.53-.17l-.51-.25a2.6,2.6,0,0,1-.37-.23,6.55,6.55,0,0,1,2-3.95.37.37,0,0,1,.22.09,1.8,1.8,0,0,1,.19.21l.18.22a.37.37,0,0,0,.26.09l.12-.08,0-.17.24-.34-.19-.54.12-.07a.22.22,0,0,1,.12-.06,1.52,1.52,0,0,1,.34,0,.4.4,0,0,1,.2.08.86.86,0,0,1,.15.17l.21.27.26-.2.24.1a1.91,1.91,0,0,1,.32.16,1.62,1.62,0,0,1,.29.19c.08.07.13.13.13.19a.21.21,0,0,1-.09.18.82.82,0,0,1-.21.11l-.27.07-.28.05a1,1,0,0,0-.21.08.14.14,0,0,0-.09.12l.43.14-.32.23-.35.19,0,.12-.67.27V15l-.05,0,0-.25h0l-.06,0a0,0,0,0,0,0,.05.14.14,0,0,0,0,.06v0l-.1-.05,0,0a.25.25,0,0,0,0,.07l.06.08.09.11s0,0,0,0l-.07,0H21.3s0,0,0,0,.08,0,0,0a.6.6,0,0,0-.18.07.91.91,0,0,0-.23.17.42.42,0,0,0-.12.32c0,.08,0,.16,0,.24a.65.65,0,0,1,0,.24.89.89,0,0,0-.31-.42.79.79,0,0,0-.49-.15l-.32,0,.16.1-.26,0h-.27a1,1,0,0,0-.25.06.54.54,0,0,0-.22.15l0,.33a.65.65,0,0,0,.1.38.41.41,0,0,0,.36.15,1.29,1.29,0,0,0,.43-.07,3.52,3.52,0,0,0,.42-.15L20,17a2.08,2.08,0,0,0-.12.32l.1.05a.3.3,0,0,1,.32,0,1,1,0,0,1,.29.24l.28.31a.77.77,0,0,0,.32.23l-.25.14-.59-.33S20.33,18,20.34,18Zm7.17-6a.82.82,0,0,0-.4-.1v-.07l.33-.06a6.88,6.88,0,0,1,1.13.7l-.15.06a1.71,1.71,0,0,0-.23.13.82.82,0,0,0-.19.18.31.31,0,0,0-.08.19l0,.14a.63.63,0,0,1-.3.27.92.92,0,0,1-.33.06H27a.7.7,0,0,0-.35.06l-.12-.25.11-.42-.12-.19,1.27-.39A.63.63,0,0,0,27.51,12Z"/></g></g></g></svg>