<svg id="ArrowUp" xmlns="http://www.w3.org/2000/svg" viewBox="0 0 32 32"><defs><style>.cls-1{fill:#c2c2c2;}.cls-2{fill:#2f2f2f;}.cls-3{fill:#0078d4;}</style></defs><title>ActiveDirectory-blue</title><g id="active_directory"><path class="cls-1" d="M16,0,0,32H32Zm0,4.47L28.76,30H3.24Z"/><path class="cls-2" d="M14.71,18.81l-.11-.07a2.36,2.36,0,0,1-.4-.34l-2.12,3.81.14,0a1.68,1.68,0,0,1,.57.25,3.92,3.92,0,0,1,.32.25l2.05-3.7A2.38,2.38,0,0,1,14.71,18.81Z"/><path class="cls-2" d="M16.55,19.08l2,3.58a2.35,2.35,0,0,1,1.06-.49l-2.05-3.71a2.28,2.28,0,0,1-.82.55Z"/><path class="cls-2" d="M13.94,26l3.8,0a2.19,2.19,0,0,1,.07-1.16l-3.95,0a2.17,2.17,0,0,1,.1,1C14,25.84,14,25.9,13.94,26Z"/><path class="cls-3" d="M18.17,15.68a2.26,2.26,0,1,0-2.26,2.25A2.26,2.26,0,0,0,18.17,15.68Z"/><path class="cls-3" d="M18.45,25.37a2.26,2.26,0,1,0,2.26-2.26A2.26,2.26,0,0,0,18.45,25.37Z"/><path class="cls-3" d="M13.23,25.37A2.26,2.26,0,1,0,11,27.62,2.26,2.26,0,0,0,13.23,25.37Z"/></g></svg>