<svg xmlns="http://www.w3.org/2000/svg" viewBox="0 0 26.24 32"><defs><style>.cls-1{fill:#c2c2c2;}</style></defs><title>authentication</title><g id="Layer_2" data-name="Layer 2"><g id="SYMBOLS"><g id="authentication"><path class="cls-1" d="M16.94.3C10-1.39,2.68,4.27.57,13S2.37,30,9.3,31.7s14.26-4,16.37-12.65S23.87,2,16.94.3Zm-11,4.33A4.78,4.78,0,0,1,7.14,4a12.33,12.33,0,0,1,1.61-.47c.59-.12,1.16-.23,1.72-.31S11.55,3.08,12,3s.81-.06,1-.06,1.13,0,1.64.07,1.1.14,1.73.25a30.51,30.51,0,0,1,3.28,1A5.75,5.75,0,0,1,21,5a1.1,1.1,0,0,1,.53.86,1,1,0,0,1-.95,1,1,1,0,0,1-.46-.12,17.32,17.32,0,0,0-3.44-1.36,13.72,13.72,0,0,0-3.67-.47,13.74,13.74,0,0,0-3.19.35,18.11,18.11,0,0,0-3,1l-.2.08-.21,0a.87.87,0,0,1-.66-.28.88.88,0,0,1-.28-.66A1,1,0,0,1,5.94,4.63ZM7.21,27.35a2.94,2.94,0,0,1-1.47.48.94.94,0,0,1-1-.94A.89.89,0,0,1,5,26.35,1,1,0,0,1,5.41,26a8.33,8.33,0,0,0,2.05-1.23,10,10,0,0,0,1.62-1.69,12.28,12.28,0,0,0,1.25-2,15.41,15.41,0,0,0,.88-2.21,1.07,1.07,0,0,1,.34-.51.85.85,0,0,1,.58-.2.92.92,0,0,1,.67.29,1,1,0,0,1,.28.67,4.18,4.18,0,0,1-.36,1.5,12,12,0,0,1-.94,1.85,19.19,19.19,0,0,1-1.37,1.94,15.71,15.71,0,0,1-1.58,1.73A9.21,9.21,0,0,1,7.21,27.35Zm6.27-.62a16.5,16.5,0,0,1-1.39,1.55,8.14,8.14,0,0,1-1.35,1.06.86.86,0,0,1-.24.11.71.71,0,0,1-.26,0,1,1,0,0,1-1-.95.92.92,0,0,1,.43-.79,9.82,9.82,0,0,0,1.11-1A17.15,17.15,0,0,0,12,25.47q.59-.73,1.14-1.53a16.13,16.13,0,0,0,1-1.63,12.33,12.33,0,0,0,.66-1.6A4.92,4.92,0,0,0,15,19.27a6.91,6.91,0,0,0-.12-1.39,1.92,1.92,0,0,0-.44-.94,1.8,1.8,0,0,0-.88-.53,4.78,4.78,0,0,0-1.43-.17,2.05,2.05,0,0,0-1,.24,2.61,2.61,0,0,0-.76.65,5.43,5.43,0,0,0-.59,1c-.19.36-.38.75-.57,1.16s-.42.82-.65,1.25a8.82,8.82,0,0,1-.86,1.23,7.73,7.73,0,0,1-1.16,1.12,7,7,0,0,1-1.61.89,1,1,0,0,1-.37.07.87.87,0,0,1-.66-.28.92.92,0,0,1-.29-.67.87.87,0,0,1,.17-.52A1.16,1.16,0,0,1,4.2,22,6.91,6.91,0,0,0,6,20.73a5.73,5.73,0,0,0,1.28-1.85c.25-.57.5-1.13.76-1.67A6.45,6.45,0,0,1,9,15.75a4,4,0,0,1,1.28-1,4,4,0,0,1,1.86-.39,4.72,4.72,0,0,1,3.64,1.24,5.31,5.31,0,0,1,1.12,3.69,5.84,5.84,0,0,1-.28,1.7,14.47,14.47,0,0,1-.74,1.92,21.75,21.75,0,0,1-1.09,2A22.34,22.34,0,0,1,13.48,26.73Zm7.34-6.13a17.2,17.2,0,0,1-.44,1.94c-.2.67-.42,1.34-.69,2a17.68,17.68,0,0,1-.9,1.91,10.94,10.94,0,0,1-1.07,1.63,5.89,5.89,0,0,1-1.21,1.19,1.51,1.51,0,0,1-.28.15.81.81,0,0,1-.31.06,1,1,0,0,1-.95-.95.83.83,0,0,1,.09-.39,1.15,1.15,0,0,1,.25-.34,11,11,0,0,0,1.53-1.88A13.69,13.69,0,0,0,18,23.69a13.13,13.13,0,0,0,.78-2.42,11.18,11.18,0,0,0,.27-2.4,6.29,6.29,0,0,0-.46-2.37,6.88,6.88,0,0,0-1.28-2.05A6.45,6.45,0,0,0,15.43,13a5.14,5.14,0,0,0-2.35-.55,11.62,11.62,0,0,0-2.27.18,4.86,4.86,0,0,0-1.46.53,3,3,0,0,0-.94.83,11.68,11.68,0,0,0-.72,1.1c-.23.41-.5.86-.8,1.35A12.72,12.72,0,0,1,5.71,18a9,9,0,0,1-1.26,1.21,4.28,4.28,0,0,1-1.54.8L2.8,20H2.68A.94.94,0,0,1,2,19.74a1,1,0,0,1-.29-.68.83.83,0,0,1,.2-.56,1.27,1.27,0,0,1,.5-.34,4.73,4.73,0,0,0,1.42-.82,5.64,5.64,0,0,0,1-1.1A11.11,11.11,0,0,0,5.54,15c.22-.43.46-.86.72-1.28a7.38,7.38,0,0,1,.89-1.21,4.82,4.82,0,0,1,1.3-1,7.64,7.64,0,0,1,1.9-.68,11.92,11.92,0,0,1,2.73-.26,7.11,7.11,0,0,1,2.12.31,7.8,7.8,0,0,1,1.89.89,8,8,0,0,1,1.6,1.36,8.59,8.59,0,0,1,2,3.68A8.31,8.31,0,0,1,21,18.91,10.76,10.76,0,0,1,20.82,20.6Zm2.36-6.54a.94.94,0,0,1-1.52-.26A10,10,0,0,0,18.12,10a9.51,9.51,0,0,0-5.07-1.3,18.87,18.87,0,0,0-2.3.13,8.6,8.6,0,0,0-2.06.48,6.62,6.62,0,0,0-1.8,1A7.45,7.45,0,0,0,5.35,12a1.18,1.18,0,0,1-.34.36.86.86,0,0,1-.48.13,1,1,0,0,1-1-.95A1.05,1.05,0,0,1,3.7,11a6.53,6.53,0,0,1,1.71-2.1A9.08,9.08,0,0,1,7.72,7.63,12.23,12.23,0,0,1,10.35,7a19.27,19.27,0,0,1,2.7-.19,12.13,12.13,0,0,1,3.16.41,11.69,11.69,0,0,1,2.95,1.19,10.74,10.74,0,0,1,2.47,1.94A9,9,0,0,1,23.37,13a1,1,0,0,1,.09.4A.9.9,0,0,1,23.18,14.06Z"/></g></g></g></svg>