<svg id="ArrowUp" xmlns="http://www.w3.org/2000/svg" viewBox="0 0 32 32"><defs><style>.cls-1{fill:#c2c2c2;}.cls-2{fill:#939393;}.cls-3{fill:#0078d4;}.cls-4{fill:#fff;}.cls-5{fill:#2f2f2f;}</style></defs><title>Certificate-blue</title><g id="certificate"><g id="Artwork_64" data-name="Artwork 64"><path class="cls-1" d="M7.62,0V11.44s6.11-.24,7.79,5.37a7.33,7.33,0,0,1-2.95,8.66v5.28H30.68V11.53H19.15V0Z"/></g><polygon class="cls-2" points="21.07 9.61 30.12 9.61 21.07 0.56 21.07 9.61"/><path class="cls-3" d="M8.28,26.29a3.4,3.4,0,0,1-2.75,0,3.63,3.63,0,0,1-1-.63l-.39,0V32L6.9,30.62,9.66,32V25.62l-.39,0A3.63,3.63,0,0,1,8.28,26.29Z"/><path class="cls-4" d="M4.09,22.67a3.94,3.94,0,0,0,4.36.85,4,4,0,0,0,2.12-2.11,4,4,0,0,0,0-3.1A4.22,4.22,0,0,0,9.72,17a4.22,4.22,0,0,0-1.27-.85,4,4,0,0,0-3.1,0,4,4,0,0,0-2.11,2.12,4,4,0,0,0,.85,4.36Z"/><path class="cls-5" d="M12.45,18.91a2.35,2.35,0,0,0-.53-.78,3,3,0,0,0-.33-.28s0-.08,0-.13a2.34,2.34,0,0,0-.19-.95,2.52,2.52,0,0,0-1.31-1.31,2.3,2.3,0,0,0-.95-.19l-.21,0a3.57,3.57,0,0,0-.3-.38,2.73,2.73,0,0,0-.78-.52,2.38,2.38,0,0,0-1.91,0,2.13,2.13,0,0,0-.42.23,2,2,0,0,0-.36.29,3.57,3.57,0,0,0-.3.38l-.21,0a2.38,2.38,0,0,0-1,.19,3.3,3.3,0,0,0-.41.23,2.6,2.6,0,0,0-.36.3,2.47,2.47,0,0,0-.73,1.73,1.9,1.9,0,0,0,0,.25L2,18.13a2.48,2.48,0,0,0-.52.78,2.36,2.36,0,0,0,0,1.9,2.48,2.48,0,0,0,.52.78l.2.17h0a2.58,2.58,0,0,0,0,.39,2.31,2.31,0,0,0,.2,1,2.13,2.13,0,0,0,.23.42,2,2,0,0,0,.3.36,2.6,2.6,0,0,0,.36.3,3.3,3.3,0,0,0,.41.23,2.59,2.59,0,0,0,.45.14h0a2.07,2.07,0,0,0,.5.05,1.66,1.66,0,0,0,.32,0,2.11,2.11,0,0,0,.19.23,1.09,1.09,0,0,0,.17.13,2.3,2.3,0,0,0,.61.4,2.5,2.5,0,0,0,1.91,0,2.76,2.76,0,0,0,.78-.53,2,2,0,0,0,.18-.23,1.84,1.84,0,0,0,.33,0,2.84,2.84,0,0,0,.51-.05,2.25,2.25,0,0,0,.44-.14,2.82,2.82,0,0,0,.42-.23,2.6,2.6,0,0,0,.36-.3,2.5,2.5,0,0,0,.53-.78,2.3,2.3,0,0,0,.19-1,2.45,2.45,0,0,0,0-.27h0a2.37,2.37,0,0,0,.34-.29,1.69,1.69,0,0,0,.3-.36,2.13,2.13,0,0,0,.23-.42,2.36,2.36,0,0,0,0-1.9Zm-2.16,2.37a3.83,3.83,0,0,1-.79,1.17,3.77,3.77,0,0,1-1.17.79,3.65,3.65,0,0,1-2.85,0,3.71,3.71,0,0,1-2-2,3.65,3.65,0,0,1,0-2.85,3.77,3.77,0,0,1,.79-1.17,3.83,3.83,0,0,1,1.17-.79,3.65,3.65,0,0,1,2.85,0,4,4,0,0,1,1.17.79,4,4,0,0,1,.79,1.17,3.65,3.65,0,0,1,0,2.85Z"/></g></svg>