<svg xmlns="http://www.w3.org/2000/svg" viewBox="0 0 29.01 31.97"><defs><style>.cls-1{fill:#c2c2c2;}.cls-2{fill:#939393;}.cls-3{fill:#d83b01;}.cls-4{fill:#fff;}.cls-5{fill:#2f2f2f;}</style></defs><title>certificate</title><g id="Layer_2" data-name="Layer 2"><g id="SYMBOLS"><g id="certificate"><g id="Artwork_64" data-name="Artwork 64"><path class="cls-1" d="M5.35,0V11.74s6.27-.25,8,5.5a7.52,7.52,0,0,1-3,8.89v5.42H29V11.83H17.18V0Z"/></g><polygon class="cls-2" points="19.15 9.86 28.44 9.86 19.15 0.57 19.15 9.86"/><g id="_Group_" data-name="&lt;Group&gt;"><path class="cls-3" d="M7.14,26.11a3.39,3.39,0,0,1-1.41.29,3.36,3.36,0,0,1-1.41-.29,3.62,3.62,0,0,1-1-.65,2.71,2.71,0,0,1-.4,0V32l2.83-1.42L8.55,32V25.42a2.58,2.58,0,0,1-.4,0A3.71,3.71,0,0,1,7.14,26.11Z"/><path class="cls-4" d="M2.84,22.4a4.12,4.12,0,0,0,1.3.87,4.09,4.09,0,0,0,3.17,0,4,4,0,0,0,1.3-.87,4.27,4.27,0,0,0,.88-1.3,4.09,4.09,0,0,0,0-3.17,4.19,4.19,0,0,0-.88-1.31,4,4,0,0,0-1.3-.87,3.85,3.85,0,0,0-1.58-.32,3.83,3.83,0,0,0-1.59.32,4.12,4.12,0,0,0-1.3.87A4.37,4.37,0,0,0,2,17.93,4.21,4.21,0,0,0,2,21.1,4.45,4.45,0,0,0,2.84,22.4Z"/><path class="cls-5" d="M11.42,18.54a2.36,2.36,0,0,0-.54-.8,2.45,2.45,0,0,0-.35-.29.51.51,0,0,0,0-.13,2.49,2.49,0,0,0-.2-1,2.57,2.57,0,0,0-.54-.8A2.75,2.75,0,0,0,9,15a2.49,2.49,0,0,0-1-.2l-.21,0a3.79,3.79,0,0,0-.32-.38,2.36,2.36,0,0,0-.8-.54,2.48,2.48,0,0,0-1.95,0,2.22,2.22,0,0,0-.43.23,2.17,2.17,0,0,0-.37.31,2.72,2.72,0,0,0-.31.38l-.22,0a2.49,2.49,0,0,0-1,.2,2.86,2.86,0,0,0-.42.24,2.2,2.2,0,0,0-.37.3,2.78,2.78,0,0,0-.55.8,2.48,2.48,0,0,0-.19,1,2.28,2.28,0,0,0,0,.26l-.19.16a2.36,2.36,0,0,0-.54.8,2.48,2.48,0,0,0,0,1.95,2.46,2.46,0,0,0,.54.8c.06.06.14.11.21.17H1a1.75,1.75,0,0,0,0,.4,2.45,2.45,0,0,0,.19,1,3,3,0,0,0,.24.43,2.17,2.17,0,0,0,.31.37A2.25,2.25,0,0,0,2,24a2.82,2.82,0,0,0,.42.23,2.44,2.44,0,0,0,.46.14h0a2.73,2.73,0,0,0,.5.05c.12,0,.23,0,.34,0a2.11,2.11,0,0,0,.19.23l.17.14a2.41,2.41,0,0,0,.63.4,2.48,2.48,0,0,0,2,0,2.36,2.36,0,0,0,.8-.54,2.2,2.2,0,0,0,.2-.23l.33,0a2.24,2.24,0,0,0,.52-.06A2.44,2.44,0,0,0,9,24.18,3.55,3.55,0,0,0,9.44,24a3.57,3.57,0,0,0,.37-.31,2.24,2.24,0,0,0,.71-2.05h0a2.6,2.6,0,0,0,.36-.3,2.69,2.69,0,0,0,.3-.37,3,3,0,0,0,.24-.43,2.48,2.48,0,0,0,0-1.95ZM9.2,21a3.8,3.8,0,0,1-2,2,3.6,3.6,0,0,1-1.46.3A3.65,3.65,0,0,1,4.26,23a3.92,3.92,0,0,1-1.19-.81A3.78,3.78,0,0,1,2,19.51,3.65,3.65,0,0,1,2.26,18a3.59,3.59,0,0,1,.81-1.19A3.92,3.92,0,0,1,4.26,16a3.65,3.65,0,0,1,1.47-.3,3.6,3.6,0,0,1,1.46.3,3.85,3.85,0,0,1,1.2.81A3.92,3.92,0,0,1,9.2,18a3.65,3.65,0,0,1,.3,1.47A3.57,3.57,0,0,1,9.2,21Z"/></g></g></g></g></svg>