<svg xmlns="http://www.w3.org/2000/svg" viewBox="0 0 31.97 15.58"><defs><style>.cls-1{fill:none;}.cls-2{fill:#c2c2c2;}.cls-3{fill:#2f2f2f;}.cls-4{fill:#d83b01;}</style></defs><title>drive_encryption</title><g id="Layer_2" data-name="Layer 2"><g id="SYMBOLS"><g id="drive_encryption"><path class="cls-1" d="M2.88,5.77a.91.91,0,0,0-.67.28,1,1,0,0,0-.29.68.94.94,0,0,0,.29.68.91.91,0,0,0,.67.28.93.93,0,0,0,.68-.28.94.94,0,0,0,.29-.68,1,1,0,0,0-.29-.68A.93.93,0,0,0,2.88,5.77Z"/><path class="cls-2" d="M23.08,0V3.85H3.85V0H0V9.62H13.6s1.56-4.4,5.77-4.4,5.52,2.7,5.52,2.7h2V0ZM3.56,7.41a.93.93,0,0,1-.68.28.91.91,0,0,1-.67-.28.94.94,0,0,1-.29-.68,1,1,0,0,1,.29-.68.91.91,0,0,1,.67-.28.93.93,0,0,1,.68.28,1,1,0,0,1,.29.68A.94.94,0,0,1,3.56,7.41Z"/><rect class="cls-3" x="5.77" width="15.38" height="1.94"/><path class="cls-4" d="M6.73,5.77a.93.93,0,0,0-.68.28.94.94,0,0,0-.28.68,1,1,0,1,0,1.92,0,.94.94,0,0,0-.28-.68A.93.93,0,0,0,6.73,5.77Z"/><path class="cls-3" d="M23.52,9.34a5.29,5.29,0,0,0-.29-.52,3.54,3.54,0,0,0-.57-.72,4.25,4.25,0,0,0-1.45-1,4.41,4.41,0,0,0-3.3,0,4.35,4.35,0,0,0-1.45,1,4.22,4.22,0,0,0-1,1.45,4.52,4.52,0,0,0-.32,1.65,4.43,4.43,0,0,0,.32,1.64,4.12,4.12,0,0,0,1,1.46,4.26,4.26,0,0,0,1.46,1,4.43,4.43,0,0,0,1.64.32,4.52,4.52,0,0,0,1.65-.32,4.37,4.37,0,0,0,2.3-2.16,4.13,4.13,0,0,0,.38-1.27h0l1.24,1.24,1.25-1.24,1.24,1.24,1.24-1.24,1.24,1.24L32,11.2,30.11,9.34Zm-5,1.53a.81.81,0,0,1,0,.66.85.85,0,0,1-.19.29A.77.77,0,0,1,18,12a.81.81,0,0,1-.66,0,.77.77,0,0,1-.29-.19.85.85,0,0,1-.19-.29.81.81,0,0,1,0-.66.77.77,0,0,1,.19-.29.94.94,0,0,1,.29-.2.94.94,0,0,1,.66,0,.94.94,0,0,1,.29.2A.77.77,0,0,1,18.51,10.87Z"/></g></g></g></svg>