<svg xmlns="http://www.w3.org/2000/svg" viewBox="0 0 31.97 31.97"><defs><style>.cls-1{fill:#c2c2c2;}</style></defs><title>key_permissions</title><g id="Layer_2" data-name="Layer 2"><g id="SYMBOLS"><g id="key_permissions"><path class="cls-1" d="M20.65,14.26c.15-.46.29-.92.4-1.38a9.63,9.63,0,0,0,.26-2.22,10.41,10.41,0,0,0-.84-4.16A10.78,10.78,0,0,0,14.81.84,10.4,10.4,0,0,0,10.66,0,10.45,10.45,0,0,0,6.5.84,10.81,10.81,0,0,0,3.13,3.13,10.62,10.62,0,0,0,.85,6.5,10.25,10.25,0,0,0,0,10.66a10.24,10.24,0,0,0,.85,4.15,10.78,10.78,0,0,0,2.28,3.38A11,11,0,0,0,6.5,20.47a10.6,10.6,0,0,0,7.68.23A10,10,0,0,0,17,19.18h.05v4.26h4.26v4.27h4.26V32H32V25.58Zm-11.23-6A2,2,0,0,1,8.29,9.42a2.11,2.11,0,0,1-1.66,0A2.24,2.24,0,0,1,6,9a2.47,2.47,0,0,1-.46-.68,2.23,2.23,0,0,1,0-1.66A2.47,2.47,0,0,1,6,6a2.47,2.47,0,0,1,.68-.46,2.23,2.23,0,0,1,1.66,0A2.47,2.47,0,0,1,9,6a2.24,2.24,0,0,1,.45.68,1.9,1.9,0,0,1,.17.83A1.9,1.9,0,0,1,9.42,8.29Z"/></g></g></g></svg>