<svg id="ArrowUp" xmlns="http://www.w3.org/2000/svg" viewBox="0 0 32 32"><defs><style>.cls-1{fill:#2f2f2f;}.cls-2{fill:#c2c2c2;}.cls-3{fill:#fcfcfc;}.cls-4{fill:#0078d4;}</style></defs><title>KeyChainSecurityKey-blue</title><path class="cls-1" d="M29.08,13.41H18.76a7.44,7.44,0,0,1,.76,1.32,6.78,6.78,0,0,1,.55,2.69c0,.2,0,.4,0,.61l1.24,1.23,1.95-2,2,2,1.95-2,1.95,2L32,16.33Z"/><path class="cls-2" d="M19.64,19.75c.1-.3.18-.59.26-.89A7.55,7.55,0,0,0,20,18c0-.21,0-.41,0-.61a6.78,6.78,0,0,0-.55-2.69,7.44,7.44,0,0,0-.76-1.32,6.65,6.65,0,0,0-.72-.87,7,7,0,0,0-2.18-1.48l-.32-.12h0a6.86,6.86,0,0,0-2-.42h-.34a6.77,6.77,0,0,0-2.69.54,7.06,7.06,0,0,0-2.19,1.48,6.76,6.76,0,0,0-.54.66h.08A3.55,3.55,0,0,0,9,13a3.1,3.1,0,0,0,.86-.46l.6-.43s1-.46,2.44,1c1.78,2.11.61,3.6.61,3.6l-.53.37a8.66,8.66,0,0,1-2,1.06,8.76,8.76,0,0,1-3.13.57,8.9,8.9,0,0,1-1.46-.13,6.52,6.52,0,0,0,.44,1.55,7,7,0,0,0,3.67,3.66,6.78,6.78,0,0,0,2.69.55,6.89,6.89,0,0,0,2.28-.4,6.59,6.59,0,0,0,1.83-1h0V25.7h2.76v2.76h2.76v2.76H27V27.08Z"/><path class="cls-3" d="M11.44,13.75h0l0,0,.1,0a1.35,1.35,0,0,1,.44.29,1.32,1.32,0,0,1,.3.44,1.37,1.37,0,0,1,.11.54s0,.08,0,.12v.1h0a.11.11,0,0,1,0-.05v0s0-.08,0-.12a1.37,1.37,0,0,0-.11-.54,1.32,1.32,0,0,0-.3-.44,1.35,1.35,0,0,0-.44-.29l-.1,0,0,0h0l-.13,0h0Z"/><path class="cls-3" d="M10.65,16.4a7.89,7.89,0,0,1-3.26.48,7.89,7.89,0,0,0,3.26-.48,7.62,7.62,0,0,0,1.76-.93h0A7.62,7.62,0,0,1,10.65,16.4Z"/><path class="cls-3" d="M12.43,15.46h0l0-.15h0Z"/><path class="cls-4" d="M13.51,10.52a6.86,6.86,0,0,1,2,.42h0a6.86,6.86,0,0,0-2-.42Z"/><path class="cls-4" d="M13.37,3.37a7.77,7.77,0,0,0-2.67-1.7A7.9,7.9,0,0,0,.51,6.21C.42,6.46.34,6.7.27,7c0,.09-.05.19-.07.28v0l-.06.26a7.86,7.86,0,0,0,4.93,8.87,8.1,8.1,0,0,0,1,.28H6a2.5,2.5,0,0,0,.26.07h0a6.65,6.65,0,0,0,1.09.15,7.91,7.91,0,0,0,3.26-.48,7.82,7.82,0,0,0,1.76-.93c0-.05,0-.1,0-.15h0a.07.07,0,0,0,0-.05v-.17a1.19,1.19,0,0,0-.11-.54,1.31,1.31,0,0,0-.73-.73l-.1,0,0,0h0l-.14,0a5.62,5.62,0,0,1-1.45.77,5.55,5.55,0,0,1-2.28.33,4.92,4.92,0,0,1-.76-.09c-.13,0-.25-.06-.37-.09h0A5.78,5.78,0,0,1,2.12,8.16l0-.18V8a1.77,1.77,0,0,1,0-.2A6.08,6.08,0,0,1,2.44,7a5.82,5.82,0,0,1,11.07,3.57h0a6.86,6.86,0,0,1,2,.42A7.91,7.91,0,0,0,13.37,3.37Z"/><path class="cls-4" d="M6.3,16.73a6.8,6.8,0,0,0,1.09.15,6.8,6.8,0,0,1-1.09-.15Z"/><path class="cls-4" d="M12.46,15.32a.88.88,0,0,1-.05.15h0Z"/></svg>