<svg xmlns="http://www.w3.org/2000/svg" viewBox="0 0 32 30.07"><defs><style>.cls-1{fill:#2f2f2f;}.cls-2{fill:#c2c2c2;}.cls-3{fill:#fcfcfc;}.cls-4{fill:#d83b01;}</style></defs><title>keychain</title><g id="Layer_2" data-name="Layer 2"><g id="SYMBOLS"><g id="keychain"><path class="cls-1" d="M29.08,12.26H18.76a7.81,7.81,0,0,1,.76,1.32,6.81,6.81,0,0,1,.55,2.69,6,6,0,0,1,0,.61l1.24,1.23,1.95-1.95,2,1.95,1.95-1.95,1.95,1.95L32,15.19Z"/><path class="cls-2" d="M19.64,18.61c.1-.3.18-.6.26-.9a7.55,7.55,0,0,0,.13-.83,6,6,0,0,0,0-.61,6.81,6.81,0,0,0-.55-2.69,7.81,7.81,0,0,0-.76-1.32A6.56,6.56,0,0,0,18,11.4a6.84,6.84,0,0,0-2.18-1.48l-.32-.13h0a6.54,6.54,0,0,0-2-.41h-.35a6.78,6.78,0,0,0-2.69.55A7.06,7.06,0,0,0,8.29,11.4a5.75,5.75,0,0,0-.54.66h.08A3.31,3.31,0,0,0,9,11.86a3.36,3.36,0,0,0,.86-.45l.6-.43s1-.47,2.44,1c1.78,2.12.61,3.6.61,3.6l-.53.38A9.49,9.49,0,0,1,11,17a8.77,8.77,0,0,1-4.59.43A6.26,6.26,0,0,0,6.81,19a7,7,0,0,0,3.67,3.67,6.77,6.77,0,0,0,2.69.54,6.76,6.76,0,0,0,4.11-1.38h0v2.76h2.76v2.76h2.76v2.76H27V25.94Z"/><path class="cls-3" d="M11.44,12.61h.09l.1,0a1.23,1.23,0,0,1,.44.3,1.28,1.28,0,0,1,.3.43,1.41,1.41,0,0,1,.11.54s0,.08,0,.12v.11h0a.07.07,0,0,1,0-.05v-.06s0-.08,0-.12a1.41,1.41,0,0,0-.11-.54,1.5,1.5,0,0,0-.73-.73l-.11,0h-.09l-.13,0h0Z"/><path class="cls-3" d="M10.65,15.25a7.89,7.89,0,0,1-3.26.48,7.89,7.89,0,0,0,3.26-.48,7.62,7.62,0,0,0,1.76-.93h0A7.62,7.62,0,0,1,10.65,15.25Z"/><path class="cls-3" d="M12.43,14.31h0l0-.14h0Z"/><path class="cls-4" d="M13.52,9.38a6.54,6.54,0,0,1,2,.41h0a6.54,6.54,0,0,0-2-.41Z"/><path class="cls-4" d="M13.37,2.22A7.89,7.89,0,0,0,.51,5.07c-.09.24-.17.49-.24.74,0,.09-.05.18-.07.27v0l-.06.26a7.86,7.86,0,0,0,4.93,8.87,8.1,8.1,0,0,0,1,.28H6l.26.08h0a8.06,8.06,0,0,0,4.35-.34,7.62,7.62,0,0,0,1.76-.93c0-.05,0-.09,0-.15h0a.13.13,0,0,0,0-.06v-.17a1.4,1.4,0,0,0-.1-.54,1.66,1.66,0,0,0-.3-.43,1.32,1.32,0,0,0-.44-.3l-.1,0h-.09l-.14,0a5.62,5.62,0,0,1-1.45.77,5.9,5.9,0,0,1-2.28.33,4.92,4.92,0,0,1-.76-.09c-.13,0-.25-.07-.37-.1h0A5.74,5.74,0,0,1,3.82,12a5.81,5.81,0,0,1-1.7-5l0-.18v0a1.18,1.18,0,0,1,0-.2,5.65,5.65,0,0,1,.24-.8A5.83,5.83,0,0,1,13.52,9.38h0a6.54,6.54,0,0,1,2,.41A7.91,7.91,0,0,0,13.37,2.22Z"/><path class="cls-4" d="M6.3,15.59a8.13,8.13,0,0,0,1.09.14,8.13,8.13,0,0,1-1.09-.14Z"/><path class="cls-4" d="M12.46,14.18a.78.78,0,0,1-.05.14h0Z"/></g></g></g></svg>