<svg id="ArrowUp" xmlns="http://www.w3.org/2000/svg" viewBox="0 0 32 32"><defs><style>.cls-1{fill:#c2c2c2;}.cls-2{fill:#0078d4;}.cls-3{fill:#2f2f2f;}.cls-4{fill:#fff;}</style></defs><title>LockUnprotectedSecurity-blue</title><path class="cls-1" d="M3.94,14.07V32H28.06V14.07ZM16,27.56a4,4,0,1,1,4-4A4,4,0,0,1,16,27.56Z"/><circle class="cls-2" cx="16" cy="23.54" r="2.01"/><path class="cls-3" d="M23.43,5a8.18,8.18,0,0,0-1.7-2.61,8,8,0,0,0-11.46,0A8.17,8.17,0,0,0,8,8.05h2a6.53,6.53,0,0,1,.44-2.25,6.35,6.35,0,0,1,1.27-2A6,6,0,0,1,13.6,2.5a6.12,6.12,0,0,1,4.8,0,6,6,0,0,1,1.91,1.33A6.22,6.22,0,0,1,22,8.2v5.87h2V8.2A8.27,8.27,0,0,0,23.43,5Z"/><polygon class="cls-4" points="7.96 14.07 5.25 14.07 5.25 14.07 11.72 14.07 11.72 14.07 9.97 14.07 7.96 14.07"/></svg>