<svg xmlns="http://www.w3.org/2000/svg" viewBox="0 0 24.1 31.97"><defs><style>.cls-1{fill:#2f2f2f;}.cls-2{fill:#c2c2c2;}.cls-3{fill:#d83b01;}</style></defs><title>lock_protected</title><g id="Layer_2" data-name="Layer 2"><g id="SYMBOLS"><g id="lock_protected"><g id="Artwork_68" data-name="Artwork 68"><path class="cls-1" d="M0,14.06H4V8.19A8.22,8.22,0,0,1,4.63,5,8.1,8.1,0,0,1,6.32,2.4,8,8,0,0,1,8.87.64,7.82,7.82,0,0,1,12.05,0a7.82,7.82,0,0,1,3.18.64A8,8,0,0,1,19.47,5a8.22,8.22,0,0,1,.61,3.18v5.87h4M6,14.06H18.07V8.19a6.35,6.35,0,0,0-.45-2.39,6.21,6.21,0,0,0-1.26-2,6,6,0,0,0-8.62,0,6,6,0,0,0-1.26,2A6.36,6.36,0,0,0,6,8.19Z"/></g><path class="cls-2" d="M0,14.06V32H24.1V14.06ZM12.05,27.53a4,4,0,1,1,4-4A4,4,0,0,1,12.05,27.53Z"/><circle class="cls-3" cx="12.05" cy="23.52" r="2.01"/></g></g></g></svg>