<svg xmlns="http://www.w3.org/2000/svg" viewBox="0 0 24.1 31.97"><defs><style>.cls-1{fill:#c2c2c2;}.cls-2{fill:#d83b01;}.cls-3{fill:#2f2f2f;}.cls-4{fill:#fff;}</style></defs><title>lock_unprotected</title><g id="Layer_2" data-name="Layer 2"><g id="SYMBOLS"><g id="lock_unprotected"><path class="cls-1" d="M0,14.06V32H24.1V14.06ZM12.05,27.53a4,4,0,1,1,4-4A4,4,0,0,1,12.05,27.53Z"/><circle class="cls-2" cx="12.05" cy="23.52" r="2.01"/><path class="cls-3" d="M19.47,5A8,8,0,0,0,15.23.64,7.82,7.82,0,0,0,12.05,0,7.82,7.82,0,0,0,8.87.64,8,8,0,0,0,6.32,2.4,8.1,8.1,0,0,0,4.63,5,8.27,8.27,0,0,0,4,8H6A6.21,6.21,0,0,1,6.48,5.8a6,6,0,0,1,1.26-2,6,6,0,0,1,8.62,0,6,6,0,0,1,1.26,2,6.35,6.35,0,0,1,.45,2.39v5.87h2V8.19A8.22,8.22,0,0,0,19.47,5Z"/><polygon class="cls-4" points="4.02 14.06 1.31 14.06 1.31 14.06 7.77 14.06 7.77 14.06 6.03 14.06 4.02 14.06"/></g></g></g></svg>