<svg id="ArrowUp" xmlns="http://www.w3.org/2000/svg" viewBox="0 0 32 32"><defs><style>.cls-1{fill:#2f2f2f;}.cls-2{fill:#c2c2c2;}.cls-3{fill:#0078d4;}</style></defs><title>LockProtectedSecurity-blue</title><g id="Artwork_68" data-name="Artwork 68"><path class="cls-1" d="M3.94,14.07H8V8.2A8.27,8.27,0,0,1,8.57,5a8.18,8.18,0,0,1,1.7-2.61,8,8,0,0,1,11.46,0A8.18,8.18,0,0,1,23.43,5,8.27,8.27,0,0,1,24,8.2v5.87h4M10,14.07H22V8.2a6.22,6.22,0,0,0-1.72-4.37A6,6,0,0,0,18.4,2.5a6.12,6.12,0,0,0-4.8,0,6,6,0,0,0-1.91,1.33A6.22,6.22,0,0,0,10,8.2Z"/></g><path class="cls-2" d="M3.94,14.07V32H28.06V14.07ZM16,27.56a4,4,0,1,1,4-4A4,4,0,0,1,16,27.56Z"/><circle class="cls-3" cx="16" cy="23.54" r="2.01"/></svg>