<svg width="31" height="32" viewBox="0 0 31 32" fill="none" xmlns="http://www.w3.org/2000/svg">
<path d="M14.5013 31.6907C13.3333 31.0134 12.16 30.2667 11.008 29.4614C9.84001 28.6454 8.71467 27.744 7.65334 26.784C6.59734 25.824 5.59467 24.784 4.67201 23.696C3.73334 22.5867 2.91201 21.3974 2.23467 20.1654C1.55201 18.9227 1.00267 17.5894 0.608007 16.208C0.208007 14.8054 0.00534058 13.328 0.00534058 11.8187V4.32004L1.02401 4.2667C2.60267 4.18137 4.12801 3.92537 5.56801 3.50404C6.98667 3.08804 8.37867 2.44804 9.69601 1.60004C10.5333 1.06137 11.392 0.650704 12.24 0.394704C13.0933 0.133371 14.0373 0.00537109 15.0453 0.00537109C16.0533 0.00537109 16.9973 0.138704 17.8507 0.394704C18.6987 0.650704 19.5573 1.06137 20.3947 1.60537C21.7067 2.45337 23.0987 3.09337 24.5173 3.50937C25.9573 3.9307 27.488 4.1867 29.0667 4.27204L30.0853 4.32537V11.8187C30.0853 13.3334 29.8827 14.8054 29.4827 16.208C29.088 17.5894 28.5387 18.9174 27.856 20.1654C27.1733 21.4027 26.3573 22.592 25.4187 23.696C24.496 24.784 23.4933 25.824 22.432 26.784C21.376 27.744 20.2453 28.6454 19.0773 29.4614C17.9253 30.272 16.7467 31.0187 15.584 31.6907L15.0453 32L14.5067 31.6907H14.5013Z" fill="#C2C2C2"/>
<path fill-rule="evenodd" clip-rule="evenodd" d="M20.4064 22.8207L8.17934 10.5936L9.59355 9.17935L21.8207 21.4065L20.4064 22.8207Z" fill="#0078D4"/>
<path fill-rule="evenodd" clip-rule="evenodd" d="M8.17934 21.4065L20.4065 9.17938L21.8207 10.5936L9.59356 22.8207L8.17934 21.4065Z" fill="#0078D4"/>
</svg>
