<svg width="32" height="31" viewBox="0 0 32 31" fill="none" xmlns="http://www.w3.org/2000/svg">
<path d="M29.8271 0.207886H0V4.47422H29.8271V0.207886Z" fill="#2F2F2F"/>
<path d="M15.0733 23.5771L18.4715 20.1641C18.4608 20.0041 18.4502 19.8334 18.4395 19.6521C18.4395 18.4895 18.6419 17.4549 19.0574 16.495C19.4622 15.5564 20.0268 14.7138 20.7298 14.0099C21.4435 13.3059 22.2744 12.7406 23.2119 12.3353C24.1706 11.93 25.2039 11.7167 26.2798 11.7167C27.3557 11.7167 28.3783 11.93 29.3371 12.3353C29.4436 12.378 29.5288 12.442 29.6247 12.4953L29.8271 12.346V6.60779H0V23.6731H14.9455L15.0733 23.5771Z" fill="#C2C2C2"/>
<path d="M31.5419 17.3585C31.233 16.6546 30.8282 16.0466 30.3062 15.524C29.7843 15.0014 29.1877 14.596 28.4953 14.3081C27.8029 14.0094 27.0679 13.8601 26.2796 13.8601C25.4913 13.8601 24.7456 14.0094 24.0532 14.3081C23.3608 14.6067 22.7536 15.012 22.2423 15.524C21.731 16.0359 21.3155 16.6439 21.0279 17.3372C20.7403 18.0304 20.5805 18.7771 20.5805 19.5663C20.5805 19.801 20.6018 20.0356 20.6231 20.2489C20.6444 20.4623 20.687 20.6862 20.7403 20.8996L14.8707 26.7978V31.0001H20.5805V29.0909H22.4873V27.1817H24.3941V24.9312C25.0226 25.1552 25.6511 25.2725 26.3009 25.2725C27.0892 25.2725 27.8349 25.1232 28.5273 24.8246C29.2197 24.5259 29.8269 24.1206 30.3382 23.6087C30.8495 23.0967 31.265 22.4888 31.5526 21.7955C31.8509 21.1022 32 20.3556 32 19.5663C32 18.7877 31.8615 18.0518 31.5526 17.3478L31.5419 17.3585ZM27.8988 19.289C27.707 19.481 27.4833 19.577 27.2277 19.577C26.972 19.577 26.7483 19.481 26.5566 19.289C26.3648 19.097 26.2689 18.873 26.2689 18.6171C26.2689 18.3611 26.3648 18.1371 26.5566 17.9451C26.7483 17.7531 26.972 17.6571 27.2277 17.6571C27.4833 17.6571 27.707 17.7531 27.8988 17.9451C28.0905 18.1371 28.1864 18.3611 28.1864 18.6171C28.1864 18.873 28.0905 19.097 27.8988 19.289Z" fill="#0078D4"/>
</svg>
