<svg width="32" height="32" viewBox="0 0 32 32" fill="none" xmlns="http://www.w3.org/2000/svg">
<path d="M9.9912 7.01026C8.489 7.51099 6.15224 8.17864 4.98386 8.01173V12.5183C4.98386 15.5227 6.9868 19.0279 8.98973 21.5315C10.5921 23.5345 14.3309 25.8712 16 27.0396C16.5007 26.7058 19.7261 25.4725 23.0103 21.5315C25.5139 18.5271 27.0161 15.022 27.0161 12.5183V8.01173C25.8478 7.84482 23.511 7.51099 22.0088 7.01026C21.0587 6.69357 19.0044 4.50659 16 4.50659C12.9956 4.50659 11.704 6.43934 9.9912 7.01026Z" fill="#0078D4"/>
<path d="M16 32L15.5149 31.7183C14.2944 31.0194 13.0895 30.2579 11.9002 29.4337C10.711 28.6096 9.57914 27.7229 8.50465 26.7736C7.43016 25.8243 6.43391 24.802 5.51589 23.7066C4.59788 22.6112 3.80505 21.4585 3.13741 20.2484C2.46977 19.0383 1.94295 17.7395 1.55697 16.3521C1.17099 14.9646 0.977997 13.5198 0.977997 12.0176V4.00587C1.84385 4.00587 2.68362 3.97457 3.49731 3.91198C4.311 3.84939 5.10383 3.73464 5.8758 3.56773C6.64776 3.40081 7.40929 3.1661 8.16039 2.86357C8.91149 2.56104 9.66259 2.16985 10.4137 1.68998C11.3004 1.11622 12.1871 0.693725 13.0738 0.422494C13.9606 0.151263 14.9359 0.0104319 16 0C16.532 0 17.038 0.0312958 17.5179 0.0938875C17.9977 0.156479 18.4619 0.260799 18.9105 0.406846C19.3591 0.552893 19.8077 0.730236 20.2562 0.938875C20.7048 1.14751 21.1482 1.39788 21.5863 1.68998C22.3374 2.16985 23.0885 2.56104 23.8396 2.86357C24.5907 3.1661 25.3522 3.40081 26.1242 3.56773C26.8962 3.73464 27.689 3.84939 28.5027 3.91198C29.3164 3.97457 30.1562 4.00587 31.022 4.00587V12.0176C31.022 13.5407 30.8342 14.9855 30.4587 16.3521C30.0831 17.7187 29.5563 19.0122 28.8782 20.2328C28.2002 21.4533 27.4021 22.6112 26.4841 23.7066C25.5661 24.802 24.5698 25.8191 23.4954 26.7579C22.4209 27.6968 21.289 28.5888 20.0998 29.4337C18.9105 30.2787 17.7056 31.0403 16.4851 31.7183L16 32ZM2.98093 5.97751V12.0176C2.98093 13.3425 3.15306 14.6152 3.49731 15.8357C3.84157 17.0562 4.32144 18.2194 4.93692 19.3252C5.55241 20.431 6.27221 21.4742 7.09633 22.4548C7.92046 23.4354 8.81761 24.3638 9.78778 25.2401C10.7579 26.1164 11.7646 26.9196 12.8078 27.6499C13.851 28.3801 14.9151 29.0582 16 29.6841C17.0641 29.0686 18.1229 28.3905 19.1765 27.6499C20.2302 26.9092 21.2421 26.1059 22.2122 25.2401C23.1824 24.3742 24.0795 23.451 24.9037 22.4704C25.7278 21.4898 26.4476 20.4414 27.0631 19.3252C27.6786 18.209 28.1532 17.0458 28.487 15.8357C28.8209 14.6256 28.9982 13.3529 29.0191 12.0176V5.97751C27.4647 5.89405 25.9782 5.64368 24.5594 5.22641C23.1407 4.80913 21.7689 4.178 20.444 3.33301C19.7346 2.874 19.0305 2.54018 18.3315 2.33154C17.6326 2.1229 16.8554 2.01337 16 2.00293C15.155 2.00293 14.383 2.10725 13.6841 2.31589C12.9852 2.52453 12.2758 2.86357 11.556 3.33301C10.2416 4.178 8.87498 4.80913 7.45624 5.22641C6.03749 5.64368 4.54572 5.89405 2.98093 5.97751Z" fill="#0078D4"/>
</svg>
