<svg xmlns="http://www.w3.org/2000/svg" viewBox="0 0 31.97 29.33"><defs><style>.cls-1{fill:#c2c2c2;}.cls-2{fill:#2f2f2f;}.cls-3{fill:#d83b01;}</style></defs><title>secure_document</title><g id="Layer_2" data-name="Layer 2"><g id="SYMBOLS"><g id="secure_document"><path class="cls-1" d="M14.11,21.09a11.18,11.18,0,0,1-.41-3V13.2a13.38,13.38,0,0,0,3.43-.43,11,11,0,0,0,3.17-1.39,7.52,7.52,0,0,1,1.75-.84,7.26,7.26,0,0,1,3.85,0,7.34,7.34,0,0,1,1.75.84,11,11,0,0,0,3.17,1.39A10.62,10.62,0,0,0,32,13V6.85H0V25.12H16a13,13,0,0,1-.79-1.28A13.45,13.45,0,0,1,14.11,21.09Z"/><rect class="cls-2" width="31.97" height="4.57"/><path class="cls-3" d="M26.37,13.27A4.34,4.34,0,0,0,24,12.56a4.29,4.29,0,0,0-2.39.71,11.66,11.66,0,0,1-2.69,1.34,15.74,15.74,0,0,1-2.92.71v2.75a9,9,0,0,0,.7,3.51,12.54,12.54,0,0,0,1.83,3.06,16.62,16.62,0,0,0,2.57,2.6A26.06,26.06,0,0,0,24,29.33a26.93,26.93,0,0,0,2.89-2.09,16.62,16.62,0,0,0,2.57-2.6,12.54,12.54,0,0,0,1.83-3.06,8.84,8.84,0,0,0,.7-3.51V15.32a15.74,15.74,0,0,1-2.92-.71A11.39,11.39,0,0,1,26.37,13.27Z"/></g></g></g></svg>