<svg xmlns="http://www.w3.org/2000/svg" viewBox="0 0 31.97 23.99"><defs><style>.cls-1{fill:#2f2f2f;}.cls-2{fill:#d2d2d2;}.cls-3{fill:#d83b01;}</style></defs><title>secure_messaging</title><g id="Layer_2" data-name="Layer 2"><g id="SYMBOLS"><g id="secure_messaging"><path class="cls-1" d="M14.21,9.11,1.55,2.77,0,2V17.75H19.49V14.12h2.27c0-2.22.14-3.41,1.46-4.66C24.75,8,27.7,8.06,28.4,8.59V2l-1.53.77Z"/><polygon class="cls-2" points="28.41 2 28.41 2 28.42 2 28.41 2"/><polygon class="cls-2" points="0 2 0.01 2 0.01 2 0 2"/><polygon class="cls-1" points="14.21 7.11 26.86 0.78 28.41 0.01 28.41 0 0.01 0 0.01 0.01 1.55 0.78 14.21 7.11"/><path class="cls-3" d="M21.31,16.07h1.78V13.48a3.69,3.69,0,0,1,.27-1.41,3.58,3.58,0,0,1,.75-1.15,3.53,3.53,0,0,1,5.06,0,3.58,3.58,0,0,1,.75,1.15,3.69,3.69,0,0,1,.27,1.41v2.59H32m-8,0H29.3V13.48a2.76,2.76,0,0,0-.76-1.93A2.5,2.5,0,0,0,27.7,11a2.78,2.78,0,0,0-2.12,0,2.5,2.5,0,0,0-.84.59A2.76,2.76,0,0,0,24,13.48Z"/><rect class="cls-3" x="21.31" y="16.07" width="10.66" height="7.92"/></g></g></g></svg>