<svg id="ArrowUp" xmlns="http://www.w3.org/2000/svg" viewBox="0 0 32 32"><defs><style>.cls-1{fill:#c2c2c2;}.cls-2{fill:#0078d4;}</style></defs><title>SecurityShield-blue</title><path class="cls-1" d="M15.39,31.69c-1.17-.67-2.35-1.42-3.5-2.23a33.07,33.07,0,0,1-3.36-2.67,32.23,32.23,0,0,1-3-3.08A21.38,21.38,0,0,1,3.1,20.18a19,19,0,0,1-1.64-3.95,16.39,16.39,0,0,1-.61-4.39V4.34l1,0A20.43,20.43,0,0,0,6.4,3.52a16.39,16.39,0,0,0,4.13-1.91A9.49,9.49,0,0,1,13.07.4a9.24,9.24,0,0,1,2.8-.4,9.92,9.92,0,0,1,2.8.38,10.36,10.36,0,0,1,2.55,1.21,16,16,0,0,0,4.13,1.89,19.85,19.85,0,0,0,4.55.76l1,0,0,7.5a16,16,0,0,1-.6,4.39,19.27,19.27,0,0,1-1.62,4,22.4,22.4,0,0,1-2.43,3.53,32.35,32.35,0,0,1-3,3.1A35.74,35.74,0,0,1,20,29.45c-1.15.81-2.33,1.56-3.49,2.24l-.54.31Z"/><g id="Artwork_70" data-name="Artwork 70"><path class="cls-2" d="M14.84,24.7V22.56H17m0,0"/></g><polyline class="cls-2" points="16.95 5.37 16.98 20.4 14.83 20.41 14.8 5.37 16.95 5.37"/><polyline class="cls-2" points="16.98 22.55 16.99 24.7 14.84 24.7"/></svg>