<svg xmlns="http://www.w3.org/2000/svg" viewBox="0 0 30.04 31.97"><defs><style>.cls-1{fill:#d83b01;}.cls-2{fill:#fff;}</style></defs><title>security</title><g id="Layer_2" data-name="Layer 2"><g id="SYMBOLS"><g id="security"><path class="cls-1" d="M14.48,31.66C13.32,31,12.14,30.23,11,29.43a35.74,35.74,0,0,1-3.35-2.68,32.13,32.13,0,0,1-3-3.08,22.4,22.4,0,0,1-2.43-3.53A19,19,0,0,1,.6,16.19,16,16,0,0,1,0,11.8V4.31l1,0A20.42,20.42,0,0,0,5.56,3.5,16,16,0,0,0,9.68,1.59,10.26,10.26,0,0,1,12.22.39,9.62,9.62,0,0,1,15,0a9.57,9.57,0,0,1,2.8.39A10,10,0,0,1,20.36,1.6a16.29,16.29,0,0,0,4.12,1.9A20.41,20.41,0,0,0,29,4.26l1,0V11.8a16,16,0,0,1-.6,4.39,19,19,0,0,1-1.63,3.95,21.74,21.74,0,0,1-2.43,3.53,32.13,32.13,0,0,1-3,3.08,32.77,32.77,0,0,1-3.35,2.68c-1.16.8-2.33,1.56-3.49,2.23L15,32Z"/><polyline class="cls-2" points="16.63 7.63 16.63 18.34 13.41 18.34 13.41 7.63 16.63 7.63"/><rect class="cls-2" x="13.4" y="20.59" width="3.24" height="2.24"/></g></g></g></svg>