<svg id="ArrowUp" xmlns="http://www.w3.org/2000/svg" viewBox="0 0 32 32"><defs><style>.cls-1{fill:#c2c2c2;}.cls-2{fill:#2f2f2f;}.cls-3{fill:#0078d4;}</style></defs><title>SecureDocumentShieldedDocumentSecurity-blue</title><path class="cls-1" d="M14.13,22.43a10.8,10.8,0,0,1-.42-3V14.54a13.91,13.91,0,0,0,3.44-.43,11,11,0,0,0,3.17-1.4,7.09,7.09,0,0,1,1.75-.83,7,7,0,0,1,3.86,0,7.09,7.09,0,0,1,1.75.83,11,11,0,0,0,3.17,1.4c.37.09.76.15,1.15.22V8.18H0V26.46H16a14.88,14.88,0,0,1-.78-1.27A13.21,13.21,0,0,1,14.13,22.43Z"/><rect class="cls-2" y="1.32" width="32" height="4.57"/><path class="cls-3" d="M26.39,14.61a4.33,4.33,0,0,0-4.78,0A12.07,12.07,0,0,1,18.92,16a15.74,15.74,0,0,1-2.92.71v2.75a8.84,8.84,0,0,0,.7,3.51A12.79,12.79,0,0,0,18.53,26a17.06,17.06,0,0,0,2.57,2.6A27,27,0,0,0,24,30.68a27,27,0,0,0,2.9-2.09A17.06,17.06,0,0,0,29.47,26a12.79,12.79,0,0,0,1.83-3.07,8.84,8.84,0,0,0,.7-3.51V16.66A15.74,15.74,0,0,1,29.08,16,12.07,12.07,0,0,1,26.39,14.61Z"/></svg>