<svg id="ArrowUp" xmlns="http://www.w3.org/2000/svg" viewBox="0 0 32 32"><defs><style>.cls-1{fill:#0078d4;}.cls-2{fill:#fff;}.cls-3{fill:#2f2f2f;}</style></defs><title>Token-blue</title><g id="token"><path class="cls-1" d="M18.33,21.75a6.3,6.3,0,0,1-2.47.5,6.23,6.23,0,0,1-2.47-.5,6.63,6.63,0,0,1-1.78-1.15,5.69,5.69,0,0,1-.71-.07V32l5-2.48L20.81,32V20.53a5.69,5.69,0,0,1-.71.07A6.58,6.58,0,0,1,18.33,21.75Z"/><path class="cls-2" d="M10.8,15.23a7.24,7.24,0,0,0,2.27,1.54,7.18,7.18,0,0,0,5.56,0,7.17,7.17,0,0,0,2.28-1.54A7.41,7.41,0,0,0,22.45,13,7,7,0,0,0,23,10.18a7,7,0,0,0-.55-2.78,7.46,7.46,0,0,0-1.54-2.28,7.14,7.14,0,0,0-2.28-1.53,7.18,7.18,0,0,0-5.56,0A7.13,7.13,0,0,0,9.27,7.4a6.87,6.87,0,0,0-.56,2.78A6.81,6.81,0,0,0,9.27,13,7.21,7.21,0,0,0,10.8,15.23Z"/><path class="cls-3" d="M25.83,8.47a4.68,4.68,0,0,0-.95-1.4,4.59,4.59,0,0,0-.6-.49c0-.08,0-.16,0-.24A4.25,4.25,0,0,0,24,4.63,4.39,4.39,0,0,0,23,3.23a4.52,4.52,0,0,0-1.39-1,4.34,4.34,0,0,0-1.72-.35c-.13,0-.25,0-.37,0A4.46,4.46,0,0,0,19,1.3a4.51,4.51,0,0,0-1.4-.95A4.29,4.29,0,0,0,15.86,0a4.34,4.34,0,0,0-1.72.35,4.56,4.56,0,0,0-.75.41,4.78,4.78,0,0,0-.65.54,5.17,5.17,0,0,0-.55.67c-.12,0-.24,0-.37,0a4.25,4.25,0,0,0-1.71.35,5.36,5.36,0,0,0-.75.41,4.24,4.24,0,0,0-.65.54,4.39,4.39,0,0,0-1,1.4,4.25,4.25,0,0,0-.35,1.71,3.59,3.59,0,0,0,0,.46,3.1,3.1,0,0,0-.34.27,4.68,4.68,0,0,0-1,1.4,4.5,4.5,0,0,0,0,3.43,4.68,4.68,0,0,0,1,1.4,3.26,3.26,0,0,0,.36.29h0a4.17,4.17,0,0,0-.07.71A4.25,4.25,0,0,0,7.76,16a4.5,4.5,0,0,0,.41.75A4.59,4.59,0,0,0,9.36,18a4.5,4.5,0,0,0,.75.41,4.27,4.27,0,0,0,.79.25h0a4.33,4.33,0,0,0,.89.09,3.68,3.68,0,0,0,.58-.06c.11.14.22.28.34.41a3.5,3.5,0,0,0,.3.24,4.51,4.51,0,0,0,1.1.71,4.34,4.34,0,0,0,1.72.35A4.29,4.29,0,0,0,17.57,20a4.68,4.68,0,0,0,1.4-1c.12-.13.23-.27.34-.41a3.68,3.68,0,0,0,.58.06,4.54,4.54,0,0,0,1.72-.35,5.46,5.46,0,0,0,.75-.41,4.16,4.16,0,0,0,.64-.54A4.39,4.39,0,0,0,24,16a4.25,4.25,0,0,0,.35-1.71,4.07,4.07,0,0,0-.05-.49h0a3.9,3.9,0,0,0,.63-.51,4.07,4.07,0,0,0,.53-.65,5.52,5.52,0,0,0,.42-.75,4.5,4.5,0,0,0,0-3.43Zm-3.89,4.27a7,7,0,0,1-1.42,2.1,6.77,6.77,0,0,1-2.1,1.42,6.59,6.59,0,0,1-5.13,0,6.62,6.62,0,0,1-3.51-3.52,6.47,6.47,0,0,1,0-5.13,6.59,6.59,0,0,1,1.41-2.09,6.77,6.77,0,0,1,2.1-1.42,6.59,6.59,0,0,1,5.13,0,6.71,6.71,0,0,1,3.52,3.51,6.59,6.59,0,0,1,0,5.13Z"/></g></svg>